<?xml version="1.0" encoding="UTF-8" standalone="no"?>
<!DOCTYPE svg PUBLIC "-//W3C//DTD SVG 1.1//EN" "http://www.w3.org/Graphics/SVG/1.1/DTD/svg11.dtd">
<svg width="100%" height="100%" viewBox="0 0 630 636" version="1.1" xmlns="http://www.w3.org/2000/svg" xmlns:xlink="http://www.w3.org/1999/xlink" xml:space="preserve" xmlns:serif="http://www.serif.com/" style="fill-rule:evenodd;clip-rule:evenodd;stroke-linejoin:round;stroke-miterlimit:2;">
    <g transform="matrix(1,0,0,1,-219.208333,-3234.632975)">
        <g transform="matrix(4.166667,0,0,4.166667,0,0)">
            <path d="M150.2,787.09C152.35,786.39 153.54,788.58 154.97,789.75C153.88,799.79 154.61,809.89 154.8,819.96C155.02,830.82 153.29,841.62 153.71,852.49C154.66,854.24 155.47,856.08 156.2,857.95C158.71,857.29 161.21,856.1 163.86,856.28C165.89,856.9 167.56,858.27 169.31,859.45C174.75,857.7 180.27,855.85 186.03,855.54C187.6,855.34 188.48,857.06 189.4,858.04C187.45,867.41 179.55,874.85 170.5,877.47C172.52,883.59 175.21,890.08 173.33,896.6C172.84,898.4 171.01,899.69 169.18,898.82C160.35,895.95 152.29,888.35 151.35,878.76C151.14,888.6 145.9,897.95 137.39,902.97C139.58,907.75 142.54,912.18 143.96,917.3C144.57,920.19 148.02,923.07 145.91,925.97C145.12,926.5 144.32,927 143.51,927.49C138.87,922.21 138.32,914.84 134.29,909.2C127.16,911.76 120.13,914.6 113.06,917.32C112.16,916.88 111.25,916.44 110.35,916.02C108.41,919.75 106.89,923.71 104.58,927.24C103.56,929.9 100.87,928.5 99.23,927.34C101.78,920.1 105.58,913.41 108.8,906.47C104.32,904.77 99.93,902.21 95,902.34C90.7,902.42 85.88,901.37 83.21,897.7C79.7,892.63 79.57,885.25 83.22,880.22C85.57,877.86 89.17,876.63 90.37,873.26C92.29,868.13 92.58,862.56 93.01,857.16C93.71,852.48 94.92,847.89 96.31,843.38C96.92,843.28 98.13,843.09 98.74,843C101.18,843.81 103.65,844.52 106.12,845.28C117.41,836.34 125.91,823.44 128.45,809.17C129.81,809.53 131.4,809.43 132.57,810.32C133.9,814.53 133.32,819.16 135.05,823.3C141.22,813.72 144.33,802.64 148.01,791.97C148.62,790.31 148.79,788.31 150.2,787.09M138.17,830.36C136.88,833.21 133.1,834.71 130.54,832.54C130.78,829.23 130.32,825.95 129.59,822.74C128.34,825.28 127.16,827.86 126.3,830.57C121.7,835.7 117.93,841.49 113.03,846.36C118.79,846.64 124.44,847.74 130.03,849.11C136.17,849.37 142.21,850.51 148.23,851.7C148.29,837.04 149.43,822.37 148.69,807.71C145.36,815.34 141.92,822.93 138.17,830.36M99.25,858.97C101.92,859.75 104.55,860.68 107.1,861.81C114.18,864.84 122,864.95 129.49,866.28C135.4,866.93 141.18,868.32 147.02,869.41C147.05,868.75 147.12,867.44 147.15,866.78C142.8,866.18 138.41,865.8 134.1,864.96C131.67,864.56 131.45,860.21 133.93,859.68C138.51,859.83 143.01,860.87 147.6,860.96C147.69,859.75 147.79,858.56 147.89,857.38C140.96,855.95 133.92,855.17 126.92,854.21C118.7,852.38 110.32,851.4 102,850.23C99.41,851.97 100.3,856.19 99.25,858.97M155.39,865.3C154.44,867.61 154.14,870.1 153.6,872.53C157.57,873 162.09,873.24 165.17,870.2C167.18,869.06 166.61,866.7 166.66,864.8C165.41,863.72 164.18,862.65 162.96,861.57C160.36,862.57 157.33,863.15 155.39,865.3M172.2,863.94C171.89,866.37 171.55,868.8 171.21,871.23C175.91,869.38 180.08,866.11 182.47,861.6C179.04,862.34 175.64,863.24 172.2,863.94M113.34,872.96C115.16,876.39 117.54,880.28 121.98,880.14C127.47,881.82 130.64,876.35 133.01,872.45C130.29,872.04 127.56,871.67 124.86,871.15C125.16,873.15 126.42,875.32 125.32,877.29C123.01,879.15 119.65,878.22 117.94,876.02C116.31,874.3 117.05,871.78 117.02,869.69C114.92,869.76 113.57,870.82 113.34,872.96M95.47,875.06C94.32,877.27 93,879.53 90.93,881.02C89.14,882.37 87.04,883.67 86.42,886C84.5,889.97 87.08,895.43 91.43,896.38C93.56,896.77 95.76,896.67 97.92,896.9C102.12,897.05 105.88,899.17 109.96,899.93C112.69,898.44 114.8,895.89 116.08,893.08C116.91,891.64 117.43,889.77 119.11,889.09C120.52,889.24 122.21,890.3 122,891.93C122,895.71 119.18,898.68 116.76,901.29C125.56,901.86 135.97,900.12 141.29,892.3C145.35,887.45 145.92,880.85 146.39,874.8C143.53,874.45 140.69,874.01 137.87,873.43C136.21,877.68 133.69,881.7 129.98,884.46C128.63,885 127.27,885.54 125.96,886.18C121.65,885.41 116.77,885.66 113.25,882.66C110.57,879.27 107.78,875.44 108.25,870.86C104.08,872.53 99.67,873.48 95.47,875.06M156.84,878.51C157.12,880.76 157.53,883.12 159.2,884.82C161.76,887.75 164.22,891.69 168.56,891.82C168.56,891.75 168.56,891.62 168.55,891.56C168.61,886.52 166.36,881.84 164.42,877.31C161.9,877.76 159.37,878.16 156.84,878.51Z" style="fill:rgb(61,37,97);fill-rule:nonzero;"/>
        </g>
        <g transform="matrix(4.166667,0,0,4.166667,0,0)">
            <path d="M52.61,776.45C102.96,776.18 153.31,776.4 203.66,776.34C203.61,826.68 203.78,877.03 203.58,927.37C184.11,927.3 164.65,927.3 145.18,927.38L145.91,925.97C148.02,923.07 144.57,920.19 143.96,917.3C142.54,912.18 139.58,907.75 137.39,902.97C145.9,897.95 151.14,888.6 151.35,878.76C152.29,888.35 160.35,895.95 169.18,898.82C171.01,899.69 172.84,898.4 173.33,896.6C175.21,890.08 172.52,883.59 170.5,877.47C179.55,874.85 187.45,867.41 189.4,858.04C188.48,857.06 187.6,855.34 186.03,855.54C180.27,855.85 174.75,857.7 169.31,859.45C167.56,858.27 165.89,856.9 163.86,856.28C161.21,856.1 158.71,857.29 156.2,857.95C155.47,856.08 154.66,854.24 153.71,852.49C153.29,841.62 155.02,830.82 154.8,819.96C154.61,809.89 153.88,799.79 154.97,789.75C153.54,788.58 152.35,786.39 150.2,787.09C148.79,788.31 148.62,790.31 148.01,791.97C144.33,802.64 141.22,813.72 135.05,823.3C133.32,819.16 133.9,814.53 132.57,810.32C131.4,809.43 129.81,809.53 128.45,809.17C125.91,823.44 117.41,836.34 106.12,845.28C103.65,844.52 101.18,843.81 98.74,843C98.13,843.09 96.92,843.28 96.31,843.38C94.92,847.89 93.71,852.48 93.01,857.16C92.58,862.56 92.29,868.13 90.37,873.26C89.17,876.63 85.57,877.86 83.22,880.22C79.57,885.25 79.7,892.63 83.21,897.7C85.88,901.37 90.7,902.42 95,902.34C99.93,902.21 104.32,904.77 108.8,906.47C105.58,913.41 101.78,920.1 99.23,927.34C83.71,927.32 68.19,927.34 52.67,927.32C52.63,877.03 52.74,826.74 52.61,776.45Z" style="fill:rgb(252,253,222);fill-rule:nonzero;"/>
        </g>
        <g transform="matrix(4.166667,0,0,4.166667,0,0)">
            <path d="M138.17,830.36C141.92,822.93 145.36,815.34 148.69,807.71C149.43,822.37 148.29,837.04 148.23,851.7C142.21,850.51 136.17,849.37 130.03,849.11C124.44,847.74 118.79,846.64 113.03,846.36C117.93,841.49 121.7,835.7 126.3,830.57C127.16,827.86 128.34,825.28 129.59,822.74C130.32,825.95 130.78,829.23 130.54,832.54C133.1,834.71 136.88,833.21 138.17,830.36Z" style="fill:rgb(252,253,222);fill-rule:nonzero;"/>
        </g>
        <g transform="matrix(4.166667,0,0,4.166667,0,0)">
            <path d="M95.47,875.06C99.67,873.48 104.08,872.53 108.25,870.86C107.78,875.44 110.57,879.27 113.25,882.66C116.77,885.66 121.65,885.41 125.96,886.18C124.54,887.76 123.22,889.65 123.17,891.87C124.5,896.03 130.35,897.59 133.72,894.96C135.45,893.1 136.25,890.51 136.18,888.01C135.16,885.51 132.18,885.25 129.98,884.46C133.69,881.7 136.21,877.68 137.87,873.43C140.69,874.01 143.53,874.45 146.39,874.8C145.92,880.85 145.35,887.45 141.29,892.3C135.97,900.12 125.56,901.86 116.76,901.29C119.18,898.68 122,895.71 122,891.93C122.21,890.3 120.52,889.24 119.11,889.09C117.43,889.77 116.91,891.64 116.08,893.08C114.8,895.89 112.69,898.44 109.96,899.93C105.88,899.17 102.12,897.05 97.92,896.9C95.76,896.67 93.56,896.77 91.43,896.38C87.08,895.43 84.5,889.97 86.42,886C87.04,883.67 89.14,882.37 90.93,881.02C93,879.53 94.32,877.27 95.47,875.06Z" style="fill:rgb(252,253,222);fill-rule:nonzero;"/>
        </g>
        <g transform="matrix(4.166667,0,0,4.166667,0,0)">
            <path d="M113.06,917.32C120.13,914.6 127.16,911.76 134.29,909.2C138.32,914.84 138.87,922.21 143.51,927.49C130.54,927.07 117.55,927.54 104.58,927.24C106.89,923.71 108.41,919.75 110.35,916.02C111.25,916.44 112.16,916.88 113.06,917.32Z" style="fill:rgb(252,253,222);fill-rule:nonzero;"/>
        </g>
        <g transform="matrix(4.166667,0,0,4.166667,0,0)">
            <path d="M99.25,858.97C100.3,856.19 99.41,851.97 102,850.23C110.32,851.4 118.7,852.38 126.92,854.21C133.92,855.17 140.96,855.95 147.89,857.38C147.79,858.56 147.69,859.75 147.6,860.96C143.01,860.87 138.51,859.83 133.93,859.68C131.45,860.21 131.67,864.56 134.1,864.96C138.41,865.8 142.8,866.18 147.15,866.78C147.12,867.44 147.05,868.75 147.02,869.41C141.18,868.32 135.4,866.93 129.49,866.28C122,864.95 114.18,864.84 107.1,861.81C104.55,860.68 101.92,859.75 99.25,858.97Z" style="fill:rgb(236,28,52);fill-rule:nonzero;"/>
        </g>
        <g transform="matrix(4.166667,0,0,4.166667,0,0)">
            <path d="M155.39,865.3C157.33,863.15 160.36,862.57 162.96,861.57C164.18,862.65 165.41,863.72 166.66,864.8C166.61,866.7 167.18,869.06 165.17,870.2C162.09,873.24 157.57,873 153.6,872.53C154.14,870.1 154.44,867.61 155.39,865.3Z" style="fill:rgb(236,28,52);fill-rule:nonzero;"/>
        </g>
        <g transform="matrix(4.166667,0,0,4.166667,0,0)">
            <path d="M172.2,863.94C175.64,863.24 179.04,862.34 182.47,861.6C180.08,866.11 175.91,869.38 171.21,871.23C171.55,868.8 171.89,866.37 172.2,863.94Z" style="fill:rgb(236,28,52);fill-rule:nonzero;"/>
        </g>
        <g transform="matrix(4.166667,0,0,4.166667,0,0)">
            <path d="M156.84,878.51C159.37,878.16 161.9,877.76 164.42,877.31C166.36,881.84 168.61,886.52 168.55,891.56C168.56,891.62 168.56,891.75 168.56,891.82C164.22,891.69 161.76,887.75 159.2,884.82C157.53,883.12 157.12,880.76 156.84,878.51Z" style="fill:rgb(236,28,52);fill-rule:nonzero;"/>
        </g>
        <g transform="matrix(4.166667,0,0,4.166667,0,0)">
            <path d="M125.96,886.18C127.27,885.54 128.63,885 129.98,884.46C132.18,885.25 135.16,885.51 136.18,888.01C136.25,890.51 135.45,893.1 133.72,894.96C130.35,897.59 124.5,896.03 123.17,891.87C123.22,889.65 124.54,887.76 125.96,886.18Z" style="fill:rgb(236,28,52);fill-rule:nonzero;"/>
        </g>
        <g transform="matrix(4.166667,0,0,4.166667,0,0)">
            <path d="M113.34,872.96C113.57,870.82 114.92,869.76 117.02,869.69C117.05,871.78 116.31,874.3 117.94,876.02C119.65,878.22 123.01,879.15 125.32,877.29C126.42,875.32 125.16,873.15 124.86,871.15C127.56,871.67 130.29,872.04 133.01,872.45C130.64,876.35 127.47,881.82 121.98,880.14C117.54,880.28 115.16,876.39 113.34,872.96Z" style="fill:rgb(252,252,223);fill-rule:nonzero;"/>
        </g>
        <g transform="matrix(4.166667,0,0,4.166667,0,0)">
            <path d="M168.56,891.82C168.56,891.75 168.56,891.62 168.55,891.56C168.56,891.62 168.56,891.75 168.56,891.82Z" style="fill:rgb(248,223,200);fill-rule:nonzero;"/>
        </g>
    </g>
</svg>
