<?xml version="1.0" encoding="UTF-8" standalone="no"?>
<!DOCTYPE svg PUBLIC "-//W3C//DTD SVG 1.1//EN" "http://www.w3.org/Graphics/SVG/1.1/DTD/svg11.dtd">
<svg width="100%" height="100%" viewBox="0 0 630 630" version="1.1" xmlns="http://www.w3.org/2000/svg" xmlns:xlink="http://www.w3.org/1999/xlink" xml:space="preserve" xmlns:serif="http://www.serif.com/" style="fill-rule:evenodd;clip-rule:evenodd;stroke-linejoin:round;stroke-miterlimit:2;">
    <g transform="matrix(1,0,0,1,-3119.431122,-324.957978)">
        <g transform="matrix(4.166667,0,0,4.166667,0,0)">
            <path d="M828.4,114.28C830.13,114.27 832.84,114.64 832.73,116.94C833.1,123.21 834.97,129.21 835.99,135.37C837.34,134.98 838.86,134.92 840.12,134.21C843.18,128.61 844.25,122.1 847.65,116.68C849.1,114.44 853.48,113.14 854.83,116.09C855.82,120 854.69,124.04 854.78,128.01C854.94,135.7 853.46,143.3 853.37,150.98C853.38,160.17 852.08,169.28 851.67,178.46C850.95,186.32 850.27,195.03 844.74,201.18C847.33,199.96 849.95,197.88 852.94,198.14C856.19,198.93 854.91,202.8 854.01,205.01C851.63,209.76 849.24,214.5 846.97,219.31C848.21,222.42 849.37,225.62 849.45,229.01C847.454,229.054 814.884,229.214 812.29,229C812.98,223.48 812.2,217.97 811.84,212.46C805.8,211 800.37,207.02 793.97,207.31C789.52,207.43 784.58,205.83 782.25,201.78C779.43,196.66 779.37,189.76 783.03,185.03C785.68,182.71 789.4,181.15 790.41,177.42C791.61,172.44 791.99,167.13 794.7,162.64C798.28,157.01 803.22,152.43 808.31,148.19C818.45,139.42 825.39,127.3 828.4,114.28M843.73,138.83C841.74,140.22 839.1,140.11 836.85,140.87C834.26,141.34 831.62,143.04 829,141.91C827.24,141.52 827.32,139.42 826.72,138.12C827.94,137.4 829.21,136.74 830.4,135.93C830.35,133.19 829.73,130.51 829.17,127.84C827.28,131.89 825.97,136.32 822.65,139.48C819.26,144.35 815.05,148.54 811.38,153.19C809.19,155.44 806.43,157.04 804.3,159.36C799.76,165.42 796.26,172.39 795.04,179.92C794,185.52 786.82,186.61 785.72,192.07C784.55,195.86 787.06,199.85 790.52,201.41C791.9,199.87 793.4,198.33 795.42,197.66C800.58,195.75 805.58,193.41 810.82,191.68C807.72,189.65 804.63,187.51 802.16,184.72C799.78,181.29 800.71,176.76 801.33,172.93C801.34,171.33 803.37,170.56 804.66,171.32C807.15,172.48 805.92,175.82 806.26,178C813.97,178.19 821.43,176.05 829.09,175.63C832.56,175.38 836.43,174.37 839.59,176.39C840.35,178.67 841.01,181.98 838.59,183.52C835.17,185.84 831.69,188.08 828.08,190.09C828.19,195.26 828.71,200.46 827.93,205.61C832.29,204.17 836.99,202.59 839.82,198.72C845.54,192.69 845.91,183.9 846.36,176.07C846.12,171.01 847.43,166.07 847.63,161.03C848.25,154.06 847.13,146.96 848.76,140.09C849.85,135.4 848.64,130.59 849.44,125.87C847.33,130.1 846.29,134.84 843.73,138.83M823.22,181.96C823.32,183.32 823.42,184.68 823.53,186.04C825.11,185.01 826.7,183.96 828.26,182.89C826.57,182.58 824.89,182.27 823.22,181.96M808.38,183.35C810.95,185.98 814.56,186.96 817.77,188.56L818.18,188.45C816.15,187 814.08,185.51 812.83,183.29C811.34,183.29 809.85,183.31 808.38,183.35M817.85,194.48C820.5,195.09 822.45,196.89 821.52,199.79C820.19,201.51 818.79,203.18 817.73,205.08C818.11,207.89 820.97,206.08 822.75,206.04C822.9,204.14 823.04,202.24 823.18,200.35L823.38,200.41C823.27,197.79 823.13,195.18 822.96,192.56C821.25,193.21 819.55,193.85 817.85,194.48M800.45,201.67C803.3,203.54 806.75,204.06 809.94,205.1C813.3,202.44 815.73,198.95 817.23,194.94C811.72,197.41 805.94,199.19 800.45,201.67Z" style="fill:rgb(61,37,97);fill-rule:nonzero;"/>
        </g>
        <g transform="matrix(4.166667,0,0,4.166667,0,0)">
            <path d="M748.67,78C799.02,78.04 849.36,77.92 899.71,78.06C899.63,128.36 899.66,178.66 899.69,228.96C882.95,229.06 866.2,228.96 849.45,229.01C849.37,225.62 848.21,222.42 846.97,219.31C849.24,214.5 851.63,209.76 854.01,205.01C854.91,202.8 856.19,198.93 852.94,198.14C849.95,197.88 847.33,199.96 844.74,201.18C850.27,195.03 850.95,186.32 851.67,178.46C852.08,169.28 853.38,160.17 853.37,150.98C853.46,143.3 854.94,135.7 854.78,128.01C854.69,124.04 855.82,120 854.83,116.09C853.48,113.14 849.1,114.44 847.65,116.68C844.25,122.1 843.18,128.61 840.12,134.21C838.86,134.92 837.34,134.98 835.99,135.37C834.97,129.21 833.1,123.21 832.73,116.94C832.84,114.64 830.13,114.27 828.4,114.28C825.39,127.3 818.45,139.42 808.31,148.19C803.22,152.43 798.28,157.01 794.7,162.64C791.99,167.13 791.61,172.44 790.41,177.42C789.4,181.15 785.68,182.71 783.03,185.03C779.37,189.76 779.43,196.66 782.25,201.78C784.58,205.83 789.52,207.43 793.97,207.31C800.37,207.02 805.8,211 811.84,212.46C812.2,217.97 812.98,223.48 812.29,229L748.68,229C748.65,178.67 748.67,128.33 748.67,78Z" style="fill:rgb(252,253,222);fill-rule:nonzero;"/>
        </g>
        <g transform="matrix(4.166667,0,0,4.166667,0,0)">
            <path d="M843.73,138.83C846.29,134.84 847.33,130.1 849.44,125.87C848.64,130.59 849.85,135.4 848.76,140.09C847.13,146.96 848.25,154.06 847.63,161.03C847.43,166.07 846.12,171.01 846.36,176.07C845.91,183.9 845.54,192.69 839.82,198.72C836.99,202.59 832.29,204.17 827.93,205.61C828.71,200.46 828.19,195.26 828.08,190.09C831.69,188.08 835.17,185.84 838.59,183.52C841.01,181.98 840.35,178.67 839.59,176.39C836.43,174.37 832.56,175.38 829.09,175.63C821.43,176.05 813.97,178.19 806.26,178C805.92,175.82 807.15,172.48 804.66,171.32C803.37,170.56 801.34,171.33 801.33,172.93C800.71,176.76 799.78,181.29 802.16,184.72C804.63,187.51 807.72,189.65 810.82,191.68C805.58,193.41 800.58,195.75 795.42,197.66C793.4,198.33 791.9,199.87 790.52,201.41C787.06,199.85 784.55,195.86 785.72,192.07C786.82,186.61 794,185.52 795.04,179.92C796.26,172.39 799.76,165.42 804.3,159.36C806.43,157.04 809.19,155.44 811.38,153.19C815.05,148.54 819.26,144.35 822.65,139.48C825.97,136.32 827.28,131.89 829.17,127.84C829.73,130.51 830.35,133.19 830.4,135.93C829.21,136.74 827.94,137.4 826.72,138.12C827.32,139.42 827.24,141.52 829,141.91C831.62,143.04 834.26,141.34 836.85,140.87C839.1,140.11 841.74,140.22 843.73,138.83Z" style="fill:rgb(252,253,222);fill-rule:nonzero;"/>
        </g>
        <g transform="matrix(4.166667,0,0,4.166667,0,0)">
            <path d="M823.22,181.96C824.89,182.27 826.57,182.58 828.26,182.89C826.7,183.96 825.11,185.01 823.53,186.04C823.42,184.68 823.32,183.32 823.22,181.96Z" style="fill:rgb(252,253,222);fill-rule:nonzero;"/>
        </g>
        <g transform="matrix(4.166667,0,0,4.166667,0,0)">
            <path d="M808.38,183.35C809.85,183.31 811.34,183.29 812.83,183.29C814.08,185.51 816.15,187 818.18,188.45L817.77,188.56C814.56,186.96 810.95,185.98 808.38,183.35Z" style="fill:rgb(252,253,222);fill-rule:nonzero;"/>
        </g>
        <g transform="matrix(4.166667,0,0,4.166667,0,0)">
            <path d="M800.45,201.67C805.94,199.19 811.72,197.41 817.23,194.94C815.73,198.95 813.3,202.44 809.94,205.1C806.75,204.06 803.3,203.54 800.45,201.67Z" style="fill:rgb(252,253,222);fill-rule:nonzero;"/>
        </g>
        <g transform="matrix(4.166667,0,0,4.166667,0,0)">
            <path d="M821.52,199.79C821.94,199.93 822.77,200.21 823.18,200.35C823.04,202.24 822.9,204.14 822.75,206.04C820.97,206.08 818.11,207.89 817.73,205.08C818.79,203.18 820.19,201.51 821.52,199.79Z" style="fill:rgb(252,253,223);fill-rule:nonzero;"/>
        </g>
        <g transform="matrix(4.166667,0,0,4.166667,0,0)">
            <path d="M817.85,194.48C819.55,193.85 821.25,193.21 822.96,192.56C823.13,195.18 823.27,197.79 823.38,200.41L823.18,200.35C822.77,200.21 821.94,199.93 821.52,199.79C822.45,196.89 820.5,195.09 817.85,194.48Z" style="fill:rgb(238,27,52);fill-rule:nonzero;"/>
        </g>
    </g>
</svg>
