<?xml version="1.0" encoding="UTF-8" standalone="no"?>
<!DOCTYPE svg PUBLIC "-//W3C//DTD SVG 1.1//EN" "http://www.w3.org/Graphics/SVG/1.1/DTD/svg11.dtd">
<svg width="100%" height="100%" viewBox="0 0 630 632" version="1.1" xmlns="http://www.w3.org/2000/svg" xmlns:xlink="http://www.w3.org/1999/xlink" xml:space="preserve" xmlns:serif="http://www.serif.com/" style="fill-rule:evenodd;clip-rule:evenodd;stroke-linejoin:round;stroke-miterlimit:2;">
    <g transform="matrix(1,0,0,1,-934.63933,-2497.130134)">
        <g transform="matrix(4.166667,0,0,4.166667,0,0)">
            <path d="M325.19,611.2C326.04,609.37 326.68,606.94 328.99,606.51C330.07,607.02 331.48,607.57 331.48,609.01C333.32,617.55 332.06,626.34 332.66,634.99C332.47,644.64 332.23,654.29 332.63,663.94C333.21,672.73 331.11,681.44 331.8,690.24C333.38,691.41 336.84,692.41 336.05,694.98C335.66,698.17 331.79,696.09 329.85,695.83C329.51,699.44 329.15,703.06 328.77,706.68C332.53,704.47 336.3,701.03 340.98,701.74C342.52,701.91 344.51,702.06 345.16,703.77C348.51,710.07 350.16,717.56 348.4,724.59C347.17,729.34 343.44,732.79 340.2,736.26C337.22,739.46 332.64,740.09 328.67,741.35C330.48,743.25 332.31,745.14 334.18,747C334.14,747.87 334.06,749.61 334.01,750.48C332.11,751.22 330.29,751.23 329.17,749.31C326.93,746.68 324.43,744.3 321.97,741.89C320.65,740.95 320.76,738.85 321.86,737.8C326.51,736.02 331.77,735.8 336.06,733.09C339.46,730.05 343.06,726.61 344.1,721.99C345.04,716.76 343.57,711.35 340.94,706.82C338.72,706.65 336.67,707.65 334.88,708.85C331.47,711.14 328.15,713.6 325.31,716.57C330.11,715.31 334.21,712.12 339.22,711.58C339.13,712.93 338.98,714.29 338.78,715.64C336.74,717.83 333.82,718.82 331.12,719.92C326.65,721.64 322.57,724.17 318.31,726.33C314.43,728.21 312.41,732.34 308.83,734.62C304.54,737.36 300.12,740.12 295.06,741.15C291.06,741.52 291,746.55 288.88,749.15C287.26,750.99 284.75,750.83 282.56,750.42C283.55,743.87 286.54,737.81 288.84,731.64C283.32,729.8 278.07,726.52 272.07,726.65C267.49,726.82 262.41,725.09 260.11,720.87C257.53,715.89 257.42,709.39 260.75,704.72C262.98,702.29 266.53,701.12 267.92,697.94C269.55,694.16 269.31,689.87 270.87,686.06C272.12,681.85 275.16,678.61 277.83,675.26C276.13,674.53 274.44,673.79 272.75,673.05C272.68,672.11 272.54,670.23 272.47,669.29C275.77,668.57 279.16,668.78 282.5,668.51C287.9,664.65 292.74,659.78 295.85,653.87C301.35,648.5 304.46,641.35 309.58,635.67C312.17,633.48 314.06,630.65 315.62,627.68C318.61,622.07 322.88,617.17 325.19,611.2M319.86,629.94C315.36,635.23 312.49,641.63 308.03,646.95C302.14,654.99 296.26,663.12 288.87,669.87C288.29,670.58 286.01,672.44 288,672.8C296.1,675.39 304.01,678.54 311.6,682.38C316.74,684.36 321.84,686.45 326.74,688.99C327.18,683.99 327.17,678.96 327.96,674.01C328.46,664.04 326.87,654.07 327.6,644.1C328.27,637 328.65,629.67 326.64,622.74C321.96,621.63 322.06,627.36 319.86,629.94M283.19,676.83C281.2,678.65 279.66,680.88 278.06,683.04C273.54,688.85 275.59,697.29 270.95,703.04C269.03,705.74 265.26,706.81 264.14,710.11C262.56,713.26 263.78,717.34 266.46,719.49C268.62,721.18 271.52,720.87 274.09,721.12C278.92,721.12 283.36,723.23 287.94,724.46C290.07,722.39 292.48,720.45 293.64,717.63C294.72,716.03 295.23,712.74 297.84,713.8C299.72,714.24 299.96,716.34 299.56,717.93C298.65,721.02 296.55,723.57 294.18,725.67C299.82,725.82 305.66,725.64 310.85,723.16C315.53,721.47 318.79,717.43 321.17,713.24C323.96,707.14 323.88,700.28 324.63,693.75C322.12,692.04 319.26,690.93 316.59,689.52C317.09,694.88 315.13,699.92 313.65,704.96C311.75,707.23 309.7,709.38 307.51,711.37C300.44,715.17 290.8,713.57 285.44,707.56C282.79,702.08 282.59,695.52 283.76,689.63C284.7,685.15 288.01,681.94 291.29,679.02C288.6,678.24 285.95,677.31 283.19,676.83M288.56,690.44C287.45,695.2 287.3,700.67 290.04,704.91C293.11,707.2 297.11,708.51 300.96,708.12C304.63,708.04 307.1,704.86 309.24,702.28C311.1,697.87 312.69,692.84 310.98,688.12C307.82,686.12 304.53,684.33 300.99,683.12C299.97,683.52 298.96,683.93 297.95,684.35C296.96,683.86 295.98,683.38 295,682.9C292.43,684.94 289.32,687.02 288.56,690.44Z" style="fill:rgb(61,37,97);fill-rule:nonzero;"/>
        </g>
        <g transform="matrix(4.166667,0,0,4.166667,0,0)">
            <path d="M293.01,688.91C295.75,685.28 303.98,684.71 304.75,690.21C304.87,692.92 301.53,692.25 299.81,691.99C299.03,692.66 298.29,693.36 297.58,694.11C296.98,695.99 298.82,697.07 299.87,698.3C301.77,698.37 303.67,698.52 305.56,698.75C306.67,702.91 302.1,704.63 299.11,706.13C296.74,706.12 293.89,705.66 292.53,703.49C290.16,698.99 290.09,693.14 293.01,688.91Z" style="fill:rgb(61,37,97);fill-rule:nonzero;"/>
        </g>
        <g transform="matrix(4.166667,0,0,4.166667,0,0)">
            <path d="M224.33,599.33C274.68,599.4 325.04,599.19 375.38,599.43C375.27,649.73 375.37,700.02 375.33,750.32C361.56,750.45 347.78,750.13 334.01,750.48C334.06,749.61 334.14,747.87 334.18,747C332.31,745.14 330.48,743.25 328.67,741.35C332.64,740.09 337.22,739.46 340.2,736.26C343.44,732.79 347.17,729.34 348.4,724.59C350.16,717.56 348.51,710.07 345.16,703.77C344.51,702.06 342.52,701.91 340.98,701.74C336.3,701.03 332.53,704.47 328.77,706.68C329.15,703.06 329.51,699.44 329.85,695.83C331.79,696.09 335.66,698.17 336.05,694.98C336.84,692.41 333.38,691.41 331.8,690.24C331.11,681.44 333.21,672.73 332.63,663.94C332.23,654.29 332.47,644.64 332.66,634.99C332.06,626.34 333.32,617.55 331.48,609.01C331.48,607.57 330.07,607.02 328.99,606.51C326.68,606.94 326.04,609.37 325.19,611.2C322.88,617.17 318.61,622.07 315.62,627.68C314.06,630.65 312.17,633.48 309.58,635.67C304.46,641.35 301.35,648.5 295.85,653.87C292.74,659.78 287.9,664.65 282.5,668.51C279.16,668.78 275.77,668.57 272.47,669.29C272.54,670.23 272.68,672.11 272.75,673.05C274.44,673.79 276.13,674.53 277.83,675.26C275.16,678.61 272.12,681.85 270.87,686.06C269.31,689.87 269.55,694.16 267.92,697.94C266.53,701.12 262.98,702.29 260.75,704.72C257.42,709.39 257.53,715.89 260.11,720.87C262.41,725.09 267.49,726.82 272.07,726.65C278.07,726.52 283.32,729.8 288.84,731.64C286.54,737.81 283.55,743.87 282.56,750.42C263.19,750.25 243.81,750.33 224.44,750.39C224.19,700.04 224.4,649.68 224.33,599.33Z" style="fill:rgb(252,253,222);fill-rule:nonzero;"/>
        </g>
        <g transform="matrix(4.166667,0,0,4.166667,0,0)">
            <path d="M283.19,676.83C285.95,677.31 288.6,678.24 291.29,679.02C288.01,681.94 284.7,685.15 283.76,689.63C282.59,695.52 282.79,702.08 285.44,707.56C290.8,713.57 300.44,715.17 307.51,711.37C309.7,709.38 311.75,707.23 313.65,704.96C315.13,699.92 317.09,694.88 316.59,689.52C319.26,690.93 322.12,692.04 324.63,693.75C323.88,700.28 323.96,707.14 321.17,713.24C318.79,717.43 315.53,721.47 310.85,723.16C305.66,725.64 299.82,725.82 294.18,725.67C296.55,723.57 298.65,721.02 299.56,717.93C299.96,716.34 299.72,714.24 297.84,713.8C295.23,712.74 294.72,716.03 293.64,717.63C292.48,720.45 290.07,722.39 287.94,724.46C283.36,723.23 278.92,721.12 274.09,721.12C271.52,720.87 268.62,721.18 266.46,719.49C263.78,717.34 262.56,713.26 264.14,710.11C265.26,706.81 269.03,705.74 270.95,703.04C275.59,697.29 273.54,688.85 278.06,683.04C279.66,680.88 281.2,678.65 283.19,676.83Z" style="fill:rgb(252,253,222);fill-rule:nonzero;"/>
        </g>
        <g transform="matrix(4.166667,0,0,4.166667,0,0)">
            <path d="M288.56,690.44C289.32,687.02 292.43,684.94 295,682.9C295.98,683.38 296.96,683.86 297.95,684.35C298.96,683.93 299.97,683.52 300.99,683.12C304.53,684.33 307.82,686.12 310.98,688.12C312.69,692.84 311.1,697.87 309.24,702.28C307.1,704.86 304.63,708.04 300.96,708.12C297.11,708.51 293.11,707.2 290.04,704.91C287.3,700.67 287.45,695.2 288.56,690.44M293.01,688.91C290.09,693.14 290.16,698.99 292.53,703.49C293.89,705.66 296.74,706.12 299.11,706.13C302.1,704.63 306.67,702.91 305.56,698.75C303.67,698.52 301.77,698.37 299.87,698.3C298.82,697.07 296.98,695.99 297.58,694.11C298.29,693.36 299.03,692.66 299.81,691.99C301.53,692.25 304.87,692.92 304.75,690.21C303.98,684.71 295.75,685.28 293.01,688.91Z" style="fill:rgb(252,253,222);fill-rule:nonzero;"/>
        </g>
        <g transform="matrix(4.166667,0,0,4.166667,0,0)">
            <path d="M334.88,708.85C336.67,707.65 338.72,706.65 340.94,706.82C343.57,711.35 345.04,716.76 344.1,721.99C343.06,726.61 339.46,730.05 336.06,733.09C331.77,735.8 326.51,736.02 321.86,737.8C320.76,738.85 320.65,740.95 321.97,741.89C324.43,744.3 326.93,746.68 329.17,749.31L330.01,750.24C316.07,750.48 302.13,750.23 288.2,750.37L288.88,749.15C291,746.55 291.06,741.52 295.06,741.15C300.12,740.12 304.54,737.36 308.83,734.62C312.41,732.34 314.43,728.21 318.31,726.33C322.57,724.17 326.65,721.64 331.12,719.92C333.82,718.82 336.74,717.83 338.78,715.64C338.98,714.29 339.13,712.93 339.22,711.58C334.21,712.12 330.11,715.31 325.31,716.57C328.15,713.6 331.47,711.14 334.88,708.85Z" style="fill:rgb(252,253,222);fill-rule:nonzero;"/>
        </g>
        <g transform="matrix(4.166667,0,0,4.166667,0,0)">
            <path d="M319.86,629.94C322.06,627.36 321.96,621.63 326.64,622.74C328.65,629.67 328.27,637 327.6,644.1C326.87,654.07 328.46,664.04 327.96,674.01C327.17,678.96 327.18,683.99 326.74,688.99C321.84,686.45 316.74,684.36 311.6,682.38C304.01,678.54 296.1,675.39 288,672.8C286.01,672.44 288.29,670.58 288.87,669.87C296.26,663.12 302.14,654.99 308.03,646.95C312.49,641.63 315.36,635.23 319.86,629.94Z" style="fill:rgb(236,28,52);fill-rule:nonzero;"/>
        </g>
    </g>
</svg>
