<?xml version="1.0" encoding="UTF-8" standalone="no"?>
<!DOCTYPE svg PUBLIC "-//W3C//DTD SVG 1.1//EN" "http://www.w3.org/Graphics/SVG/1.1/DTD/svg11.dtd">
<svg width="100%" height="100%" viewBox="0 0 630 639" version="1.1" xmlns="http://www.w3.org/2000/svg" xmlns:xlink="http://www.w3.org/1999/xlink" xml:space="preserve" xmlns:serif="http://www.serif.com/" style="fill-rule:evenodd;clip-rule:evenodd;stroke-linejoin:round;stroke-miterlimit:2;">
    <g transform="matrix(1,0,0,1,-3119.25,-2505.472664)">
        <g transform="matrix(4.166667,0,0,4.166667,0,0)">
            <path d="M849.07,616.05C851.64,613.84 854.88,617.19 854.42,619.95C853.34,633.61 855.2,647.3 854.09,660.97C853.09,671.58 853.64,682.3 852.18,692.88C856.42,692.72 860.74,692.25 864.96,692.99C869.92,694.54 870.6,701.79 867,705.07C864.6,703.49 864.46,700.62 863.68,698.16C859.8,697.69 855.88,698.03 852,698.17C851.33,705.54 850.98,713.16 847.89,720.01C845.99,723.46 843.13,726.24 840.51,729.14C842.08,732.66 842.76,736.61 845.17,739.73C847.83,743.35 848.84,747.9 848.8,752.34L848.83,753.09C847.65,752.78 845.76,753.5 845.1,752.25C842.7,746.08 838.53,740.61 837.41,733.98C831.36,738.54 824.6,742.04 817.75,745.23C817.57,747.09 817.39,748.96 817.27,750.83C817.11,751.54 816.79,752.96 816.63,753.66C815.9,755.32 814.06,754.23 812.76,754.24C812.66,752.42 812.56,750.61 812.58,748.8C812.77,744.45 811.99,740.15 811.82,735.82C805.85,734.25 800.41,730.49 794.07,730.65C789.49,730.82 784.42,729.09 782.11,724.88C779.79,720.37 779.44,714.68 781.87,710.13C783.47,706.73 787.79,705.88 789.57,702.6C791.36,699.43 791.14,695.64 792.19,692.23C794.08,684.55 800,678.79 805.75,673.74C816.98,664.63 825.63,651.8 828.13,637.42C829.69,638.02 832.59,637.72 832.7,640.02C833.3,643.93 833.42,647.93 834.56,651.76C841.61,640.88 844.9,628.17 849.07,616.05M848.41,635.83C844.94,643.78 841.49,651.76 837.36,659.39C836.21,661.64 832.01,663.26 830.5,660.75C830.19,657.49 829.93,654.23 829.17,651.05C827.31,655.12 826.02,659.6 822.68,662.77C819.47,667.22 815.88,671.34 812.05,675.28C812.75,675.57 814.16,676.14 814.86,676.43C819.55,675.44 824.45,677.15 828.35,679.69C832.09,683.8 835.69,688.5 836.26,694.24C839.81,693.88 843.36,693.47 846.92,693.13C848.27,674.08 848.82,654.94 848.41,635.83M805.16,684.21C800.49,688.87 797,695.39 798.7,702.17C800.59,705.21 802.27,708.51 804.95,710.97C807.6,713.56 811.43,714.02 814.9,714.75C819.01,715.72 822.56,712.94 825.71,710.73C830.59,706.26 831.58,699.29 831.23,693C829.57,689.19 827.31,685.47 823.93,682.98C819.94,680.57 815.31,682.17 811.03,681.26C808.76,681.27 806.88,682.9 805.16,684.21M836.27,699.37C835.45,702.29 834.78,705.25 833.62,708.07L833.8,708.19C832.46,710.09 831.23,712.07 829.73,713.85C827.64,716.17 824.5,717.15 822.29,719.33C821.56,720.98 821.05,722.72 820.57,724.46C819.36,726.4 817.84,728.11 816.2,729.69C824.99,730.11 835.39,728.61 840.81,720.83C846.04,714.65 845.56,706.1 846.6,698.56C843.16,698.91 839.72,699.25 836.27,699.37M788.2,711.23C784.66,714.09 784.61,719.93 787.9,723.01C790.03,725.17 793.27,724.84 796.05,725.12C800.89,725.12 805.34,727.22 809.95,728.46C812.6,726.11 815.07,723.5 816.47,720.19C812.09,719.27 807.35,718.99 803.53,716.44C799.39,713.69 796.8,709.33 794.72,704.95C792.85,707.35 790.64,709.43 788.2,711.23Z" style="fill:rgb(61,37,97);fill-rule:nonzero;"/>
        </g>
        <g transform="matrix(4.166667,0,0,4.166667,0,0)">
            <path d="M809.68,686.45C811.66,685.41 813.86,684.97 816.02,684.47C818.44,686.12 823.24,687.12 822.58,690.91C822.51,693.98 818.48,693 816.45,693.35C815.47,694.21 814.47,695.06 813.49,695.91C813.3,698.23 812.76,701.46 815.34,702.7C818.88,705.84 822.26,697.93 825.4,701.64C826.36,704.67 823.92,708.15 821.07,709.2C816.93,710.88 811.49,711.2 808.02,707.96C800.39,703.27 801.39,689.86 809.68,686.45Z" style="fill:rgb(61,37,97);fill-rule:nonzero;"/>
        </g>
        <g transform="matrix(4.166667,0,0,4.166667,0,0)">
            <path d="M748.62,601.44C798.96,601.19 849.31,601.4 899.66,601.33C899.61,651.68 899.8,702.03 899.57,752.38C882.64,752.27 865.72,752.36 848.8,752.34C848.84,747.9 847.83,743.35 845.17,739.73C842.76,736.61 842.08,732.66 840.51,729.14C843.13,726.24 845.99,723.46 847.89,720.01C850.98,713.16 851.33,705.54 852,698.17C855.88,698.03 859.8,697.69 863.68,698.16C864.46,700.62 864.6,703.49 867,705.07C870.6,701.79 869.92,694.54 864.96,692.99C860.74,692.25 856.42,692.72 852.18,692.88C853.64,682.3 853.09,671.58 854.09,660.97C855.2,647.3 853.34,633.61 854.42,619.95C854.88,617.19 851.64,613.84 849.07,616.05C844.9,628.17 841.61,640.88 834.56,651.76C833.42,647.93 833.3,643.93 832.7,640.02C832.59,637.72 829.69,638.02 828.13,637.42C825.63,651.8 816.98,664.63 805.75,673.74C800,678.79 794.08,684.55 792.19,692.23C791.14,695.64 791.36,699.43 789.57,702.6C787.79,705.88 783.47,706.73 781.87,710.13C779.44,714.68 779.79,720.37 782.11,724.88C784.42,729.09 789.49,730.82 794.07,730.65C800.41,730.49 805.85,734.25 811.82,735.82C811.99,740.15 812.77,744.45 812.58,748.8C812.43,749.97 812.26,751.14 812.08,752.32C790.95,752.35 769.81,752.33 748.67,752.32C748.63,702.03 748.73,651.73 748.62,601.44Z" style="fill:rgb(252,253,222);fill-rule:nonzero;"/>
        </g>
        <g transform="matrix(4.166667,0,0,4.166667,0,0)">
            <path d="M848.41,635.83C848.82,654.94 848.27,674.08 846.92,693.13C843.36,693.47 839.81,693.88 836.26,694.24C835.69,688.5 832.09,683.8 828.35,679.69C824.45,677.15 819.55,675.44 814.86,676.43C814.16,676.14 812.75,675.57 812.05,675.28C815.88,671.34 819.47,667.22 822.68,662.77C826.02,659.6 827.31,655.12 829.17,651.05C829.93,654.23 830.19,657.49 830.5,660.75C832.01,663.26 836.21,661.64 837.36,659.39C841.49,651.76 844.94,643.78 848.41,635.83Z" style="fill:rgb(252,253,222);fill-rule:nonzero;"/>
        </g>
        <g transform="matrix(4.166667,0,0,4.166667,0,0)">
            <path d="M805.16,684.21C806.88,682.9 808.76,681.27 811.03,681.26C815.31,682.17 819.94,680.57 823.93,682.98C827.31,685.47 829.57,689.19 831.23,693C831.58,699.29 830.59,706.26 825.71,710.73C822.56,712.94 819.01,715.72 814.9,714.75C811.43,714.02 807.6,713.56 804.95,710.97C802.27,708.51 800.59,705.21 798.7,702.17C797,695.39 800.49,688.87 805.16,684.21M809.68,686.45C801.39,689.86 800.39,703.27 808.02,707.96C811.49,711.2 816.93,710.88 821.07,709.2C823.92,708.15 826.36,704.67 825.4,701.64C822.26,697.93 818.88,705.84 815.34,702.7C812.76,701.46 813.3,698.23 813.49,695.91C814.47,695.06 815.47,694.21 816.45,693.35C818.48,693 822.51,693.98 822.58,690.91C823.24,687.12 818.44,686.12 816.02,684.47C813.86,684.97 811.66,685.41 809.68,686.45Z" style="fill:rgb(252,253,222);fill-rule:nonzero;"/>
        </g>
        <g transform="matrix(4.166667,0,0,4.166667,0,0)">
            <path d="M836.27,699.37C839.72,699.25 843.16,698.91 846.6,698.56C845.56,706.1 846.04,714.65 840.81,720.83C835.39,728.61 824.99,730.11 816.2,729.69C817.84,728.11 819.36,726.4 820.57,724.46C827.56,729.66 840.22,723.07 838.01,713.92C838.18,711.12 835.93,709.45 833.8,708.19L833.62,708.07C834.78,705.25 835.45,702.29 836.27,699.37Z" style="fill:rgb(252,253,222);fill-rule:nonzero;"/>
        </g>
        <g transform="matrix(4.166667,0,0,4.166667,0,0)">
            <path d="M788.2,711.23C790.64,709.43 792.85,707.35 794.72,704.95C796.8,709.33 799.39,713.69 803.53,716.44C807.35,718.99 812.09,719.27 816.47,720.19C815.07,723.5 812.6,726.11 809.95,728.46C805.34,727.22 800.89,725.12 796.05,725.12C793.27,724.84 790.03,725.17 787.9,723.01C784.61,719.93 784.66,714.09 788.2,711.23M787.29,713.91C787.1,717.17 786.44,721.4 790.01,723.17C793.56,725.84 798.2,722.09 797.72,718.09C798.81,714.76 795.42,712.96 792.96,711.74C790.77,710.48 788.89,712.77 787.29,713.91Z" style="fill:rgb(252,253,222);fill-rule:nonzero;"/>
        </g>
        <g transform="matrix(4.166667,0,0,4.166667,0,0)">
            <path d="M817.75,745.23C824.6,742.04 831.36,738.54 837.41,733.98C838.53,740.61 842.7,746.08 845.1,752.25C835.81,752.48 826.52,752.19 817.23,752.42C817.24,752.02 817.26,751.23 817.27,750.83C817.39,748.96 817.57,747.09 817.75,745.23Z" style="fill:rgb(252,253,222);fill-rule:nonzero;"/>
        </g>
        <g transform="matrix(4.166667,0,0,4.166667,0,0)">
            <path d="M829.73,713.85C831.23,712.07 832.46,710.09 833.8,708.19C835.93,709.45 838.18,711.12 838.01,713.92C840.22,723.07 827.56,729.66 820.57,724.46C821.05,722.72 821.56,720.98 822.29,719.33C824.5,717.15 827.64,716.17 829.73,713.85Z" style="fill:rgb(236,28,52);fill-rule:nonzero;"/>
        </g>
        <g transform="matrix(4.166667,0,0,4.166667,0,0)">
            <path d="M787.29,713.91C788.89,712.77 790.77,710.48 792.96,711.74C795.42,712.96 798.81,714.76 797.72,718.09C798.2,722.09 793.56,725.84 790.01,723.17C786.44,721.4 787.1,717.17 787.29,713.91Z" style="fill:rgb(236,28,52);fill-rule:nonzero;"/>
        </g>
    </g>
</svg>
