<?xml version="1.0" encoding="UTF-8" standalone="no"?>
<!DOCTYPE svg PUBLIC "-//W3C//DTD SVG 1.1//EN" "http://www.w3.org/Graphics/SVG/1.1/DTD/svg11.dtd">
<svg width="100%" height="100%" viewBox="0 0 630 637" version="1.1" xmlns="http://www.w3.org/2000/svg" xmlns:xlink="http://www.w3.org/1999/xlink" xml:space="preserve" xmlns:serif="http://www.serif.com/" style="fill-rule:evenodd;clip-rule:evenodd;stroke-linejoin:round;stroke-miterlimit:2;">
    <g transform="matrix(1,0,0,1,-1670.799936,-2497.041667)">
        <g transform="matrix(4.166667,0,0,4.166667,0,0)">
            <path d="M482.05,613.12C486.77,610.38 492.59,608.67 497.89,610.78C503.1,612.12 504.73,617.8 506.7,622.13C507.85,628.63 508.34,635.4 507.04,641.93C506.16,648.21 505.65,654.53 504.86,660.82C503.64,670.83 505.58,680.9 504.53,690.92C503.94,697.89 503.49,705.1 500.46,711.53C497.99,715.72 494.55,719.31 490.65,722.2C493.13,722.55 495.86,722.37 497.98,723.96C503.5,727.83 509.84,730.57 514.48,735.59C520.16,738.97 526.32,743.5 527.58,750.42C525.69,750.81 523.48,750.95 522.13,749.3C519.94,746.7 518.02,743.71 514.86,742.19C510.75,740.06 508.26,735.81 504.02,733.89C500.56,732.18 497.65,729.51 494.1,728C490.15,727.06 486.05,726.95 482.03,726.59C479.24,728.92 476.16,731.22 474.75,734.7C472.78,739.48 471.26,744.44 469,749.1C468.46,751.99 464.75,753.52 463.43,750.3C464.67,745.49 467.32,741.18 468.39,736.32C469.12,732.95 471.25,730.2 473.16,727.43C468.78,727.54 464.27,727.37 460.16,725.74C457.32,724.63 454.55,723.34 451.63,722.49C447.88,721.55 443.8,722.51 440.2,720.87C432.23,717.71 430.79,706.11 435.67,699.77C438.48,697.29 442.44,695.52 443.27,691.46C444.25,685.75 445.32,679.85 448.75,675.01C439.14,673.58 429.5,672.38 419.83,671.45C419.81,670.5 419.76,668.6 419.73,667.64C430.83,665.32 441.87,662.7 452.84,659.79C455.84,654.56 457.44,648.74 459.41,643.08C463.17,630.89 471.15,619.86 482.05,613.12M471.23,630.11C465.33,638 463.25,647.77 459.81,656.82C458.83,659.36 457.93,662.06 456.06,664.1C450.99,665.81 445.61,666.53 440.64,668.57C452.35,670.88 464.47,670.88 476.03,674.13C483.68,676.56 491.44,678.59 499.06,681.13C499.18,679.82 499.11,678.53 498.86,677.27C495.29,675.87 491.04,676.36 487.92,673.92C487.08,673.17 485.86,672.26 486.18,670.98C486.75,667.61 487.83,664.35 488.36,660.97C492.31,660.52 496.3,660.71 500.26,661.16C501.03,654.74 500.93,648.23 502.21,641.87C503.85,633.86 503.65,624.9 499.1,617.83C497.48,614.5 493.05,615.05 490.02,615.45C482.12,617.61 476.02,623.74 471.23,630.11M492.39,665.9C492.03,667.39 491.68,668.9 491.34,670.41C494.23,670.88 497.09,671.45 499.97,672C499.9,670.2 499.84,668.4 499.8,666.62C497.39,665.93 494.89,665.61 492.39,665.9M447.42,695.45C446.25,698.42 443.66,700.43 441.19,702.28C437.39,705.06 437.15,711.22 440.62,714.38C443.11,716.81 446.87,716.19 450.04,716.55C454.4,716.62 458.31,718.9 462.56,719.6C466.24,717.28 468.2,713.34 470.2,709.65C470.14,709.08 470.02,707.93 469.96,707.35C467.61,706.81 464.78,706.83 463.14,704.79C460.99,702.24 459.61,699.15 457.57,696.52C456.56,691.57 457.11,686.41 459.38,681.88C456.49,681.83 453.61,681.84 450.73,681.73C449.32,686.23 449.13,691.04 447.42,695.45M462.67,696.12C463.97,697.89 465.21,699.74 466.85,701.24C468.98,702.46 471.62,702.21 473.93,701.68C475.19,701.63 476.45,701.61 477.71,701.62C479.61,700.22 481.64,698.96 483.29,697.25C485.35,694.28 484.21,690.53 483.4,687.34C482.06,685.24 479.88,682.83 477.1,683.56C477.15,685.25 477.22,686.96 477.3,688.66C476.49,688.81 474.88,689.1 474.07,689.24C473.83,690.05 473.36,691.68 473.12,692.49C475.7,691.99 478,692.88 479.64,694.9C479.52,695.68 479.28,697.25 479.16,698.03C478.13,698.57 477.04,699.02 476.09,699.71C473.85,699.68 471.26,700.25 469.46,698.55C464.1,694.78 464.86,684.7 471.87,683.29C469.77,683.09 467.68,682.87 465.6,682.59C461.61,685.93 461.63,691.45 462.67,696.12M487.97,683.78C489.99,690.06 490.65,698.09 485.08,702.8C483.86,703.66 482.67,704.56 481.45,705.41C478.3,707.95 473.95,707.04 470.26,707.73C471.6,708.79 473.04,709.73 474.34,710.88C474.22,712.25 474.05,713.62 473.82,714.99C472.36,717.14 470.78,719.21 468.94,721.06C475.33,721.41 481.63,720.31 487.56,717.96C486.72,717.23 485.87,716.51 485.03,715.82C484.69,715.4 484.02,714.56 483.68,714.14L483.17,714.03C482.95,713.8 482.5,713.34 482.28,713.11C479.02,713.33 478.86,708.32 482.14,708.57C483.62,709.66 483.79,711.7 484.61,713.27C485.21,712.84 486.43,711.99 487.04,711.56C489.59,712.11 488.41,715.16 488.83,717.01C492.82,713.56 496.35,709.21 497.48,703.94C498.62,698.34 498.91,692.61 499.48,686.93C495.68,685.75 491.96,684.19 487.97,683.78Z" style="fill:rgb(61,37,97);fill-rule:nonzero;"/>
        </g>
        <g transform="matrix(4.166667,0,0,4.166667,0,0)">
            <path d="M401.05,599.29C451.35,599.36 501.65,599.35 551.95,599.3C552.06,649.64 551.97,699.99 552,750.33C543.86,750.39 535.72,750.23 527.58,750.42C526.32,743.5 520.16,738.97 514.48,735.59C509.84,730.57 503.5,727.83 497.98,723.96C495.86,722.37 493.13,722.55 490.65,722.2C494.55,719.31 497.99,715.72 500.46,711.53C503.49,705.1 503.94,697.89 504.53,690.92C505.58,680.9 503.64,670.83 504.86,660.82C505.65,654.53 506.16,648.21 507.04,641.93C508.34,635.4 507.85,628.63 506.7,622.13C504.73,617.8 503.1,612.12 497.89,610.78C492.59,608.67 486.77,610.38 482.05,613.12C471.15,619.86 463.17,630.89 459.41,643.08C457.44,648.74 455.84,654.56 452.84,659.79C441.87,662.7 430.83,665.32 419.73,667.64C419.76,668.6 419.81,670.5 419.83,671.45C429.5,672.38 439.14,673.58 448.75,675.01C445.32,679.85 444.25,685.75 443.27,691.46C442.44,695.52 438.48,697.29 435.67,699.77C430.79,706.11 432.23,717.71 440.2,720.87C443.8,722.51 447.88,721.55 451.63,722.49C454.55,723.34 457.32,724.63 460.16,725.74C464.27,727.37 468.78,727.54 473.16,727.43C471.25,730.2 469.12,732.95 468.39,736.32C467.32,741.18 464.67,745.49 463.43,750.3C442.62,750.38 421.81,750.32 401,750.33C401.04,699.98 400.93,649.64 401.05,599.29Z" style="fill:rgb(252,253,222);fill-rule:nonzero;"/>
        </g>
        <g transform="matrix(4.166667,0,0,4.166667,0,0)">
            <path d="M492.39,665.9C494.89,665.61 497.39,665.93 499.8,666.62C499.84,668.4 499.9,670.2 499.97,672C497.09,671.45 494.23,670.88 491.34,670.41C491.68,668.9 492.03,667.39 492.39,665.9Z" style="fill:rgb(252,253,222);fill-rule:nonzero;"/>
        </g>
        <g transform="matrix(4.166667,0,0,4.166667,0,0)">
            <path d="M447.42,695.45C449.13,691.04 449.32,686.23 450.73,681.73C453.61,681.84 456.49,681.83 459.38,681.88C457.11,686.41 456.56,691.57 457.57,696.52C459.61,699.15 460.99,702.24 463.14,704.79C464.78,706.83 467.61,706.81 469.96,707.35C470.02,707.93 470.14,709.08 470.2,709.65C468.2,713.34 466.24,717.28 462.56,719.6C458.31,718.9 454.4,716.62 450.04,716.55C446.87,716.19 443.11,716.81 440.62,714.38C437.15,711.22 437.39,705.06 441.19,702.28C443.66,700.43 446.25,698.42 447.42,695.45Z" style="fill:rgb(252,253,222);fill-rule:nonzero;"/>
        </g>
        <g transform="matrix(4.166667,0,0,4.166667,0,0)">
            <path d="M477.1,683.56C479.88,682.83 482.06,685.24 483.4,687.34C484.21,690.53 485.35,694.28 483.29,697.25C481.64,698.96 479.61,700.22 477.71,701.62C476.45,701.61 475.19,701.63 473.93,701.68C474.64,701 475.36,700.35 476.09,699.71C477.04,699.02 478.13,698.57 479.16,698.03C479.28,697.25 479.52,695.68 479.64,694.9C478,692.88 475.7,691.99 473.12,692.49C473.36,691.68 473.83,690.05 474.07,689.24C474.88,689.1 476.49,688.81 477.3,688.66C477.22,686.96 477.15,685.25 477.1,683.56Z" style="fill:rgb(252,253,222);fill-rule:nonzero;"/>
        </g>
        <g transform="matrix(4.166667,0,0,4.166667,0,0)">
            <path d="M487.97,683.78C491.96,684.19 495.68,685.75 499.48,686.93C498.91,692.61 498.62,698.34 497.48,703.94C496.35,709.21 492.82,713.56 488.83,717.01C488.41,715.16 489.59,712.11 487.04,711.56C486.43,711.99 485.21,712.84 484.61,713.27C485.34,712.36 486.08,711.47 486.83,710.6C488.07,710.6 489.31,710.64 490.55,710.55C490.72,709.2 490.73,707.85 490.79,706.52C489.68,706.43 488.57,706.35 487.47,706.27C486.7,705.08 485.89,703.94 485.08,702.8C490.65,698.09 489.99,690.06 487.97,683.78Z" style="fill:rgb(252,253,222);fill-rule:nonzero;"/>
        </g>
        <g transform="matrix(4.166667,0,0,4.166667,0,0)">
            <path d="M483.17,714.03L483.68,714.14C484.02,714.56 484.69,715.4 485.03,715.82C485.87,716.51 486.72,717.23 487.56,717.96C481.63,720.31 475.33,721.41 468.94,721.06C470.78,719.21 472.36,717.14 473.82,714.99C476.87,716.15 480.33,716.24 483.01,714.13L483.17,714.03Z" style="fill:rgb(252,253,222);fill-rule:nonzero;"/>
        </g>
        <g transform="matrix(4.166667,0,0,4.166667,0,0)">
            <path d="M474.75,734.7C476.16,731.22 479.24,728.92 482.03,726.59C486.05,726.95 490.15,727.06 494.1,728C497.65,729.51 500.56,732.18 504.02,733.89C508.26,735.81 510.75,740.06 514.86,742.19C518.02,743.71 519.94,746.7 522.13,749.3L522.97,750.31C504.8,750.34 486.63,750.38 468.45,750.29L469,749.1C471.26,744.44 472.78,739.48 474.75,734.7Z" style="fill:rgb(252,253,222);fill-rule:nonzero;"/>
        </g>
        <g transform="matrix(4.166667,0,0,4.166667,0,0)">
            <path d="M471.23,630.11C476.02,623.74 482.12,617.61 490.02,615.45C493.05,615.05 497.48,614.5 499.1,617.83C503.65,624.9 503.85,633.86 502.21,641.87C500.93,648.23 501.03,654.74 500.26,661.16C496.3,660.71 492.31,660.52 488.36,660.97C487.83,664.35 486.75,667.61 486.18,670.98C485.86,672.26 487.08,673.17 487.92,673.92C491.04,676.36 495.29,675.87 498.86,677.27C499.11,678.53 499.18,679.82 499.06,681.13C491.44,678.59 483.68,676.56 476.03,674.13C464.47,670.88 452.35,670.88 440.64,668.57C445.61,666.53 450.99,665.81 456.06,664.1C457.93,662.06 458.83,659.36 459.81,656.82C463.25,647.77 465.33,638 471.23,630.11M461.29,663.28C461.83,663.75 461.83,663.75 461.29,663.28Z" style="fill:rgb(236,28,52);fill-rule:nonzero;"/>
        </g>
        <g transform="matrix(4.166667,0,0,4.166667,0,0)">
            <path d="M481.45,705.41C482.67,704.56 483.86,703.66 485.08,702.8C485.89,703.94 486.7,705.08 487.47,706.27C487.28,707.71 487.07,709.15 486.83,710.6C486.08,711.47 485.34,712.36 484.61,713.27C483.79,711.7 483.62,709.66 482.14,708.57C478.86,708.32 479.02,713.33 482.28,713.11C482.5,713.34 482.95,713.8 483.17,714.03L483.01,714.13C480.33,716.24 476.87,716.15 473.82,714.99C474.05,713.62 474.22,712.25 474.34,710.88C473.04,709.73 471.6,708.79 470.26,707.73C473.95,707.04 478.3,707.95 481.45,705.41Z" style="fill:rgb(236,28,52);fill-rule:nonzero;"/>
        </g>
        <g transform="matrix(4.166667,0,0,4.166667,0,0)">
            <path d="M462.67,696.12C461.63,691.45 461.61,685.93 465.6,682.59C467.68,682.87 469.77,683.09 471.87,683.29C464.86,684.7 464.1,694.78 469.46,698.55C471.26,700.25 473.85,699.68 476.09,699.71C475.36,700.35 474.64,701 473.93,701.68C471.62,702.21 468.98,702.46 466.85,701.24C465.21,699.74 463.97,697.89 462.67,696.12Z" style="fill:rgb(252,252,222);fill-rule:nonzero;"/>
        </g>
        <g transform="matrix(4.166667,0,0,4.166667,0,0)">
            <path d="M461.29,663.28C461.83,663.75 461.83,663.75 461.29,663.28Z" style="fill:rgb(241,117,120);fill-rule:nonzero;"/>
        </g>
        <g transform="matrix(4.166667,0,0,4.166667,0,0)">
            <path d="M487.47,706.27C488.57,706.35 489.68,706.43 490.79,706.52C490.73,707.85 490.72,709.2 490.55,710.55C489.31,710.64 488.07,710.6 486.83,710.6C487.07,709.15 487.28,707.71 487.47,706.27Z" style="fill:rgb(70,50,103);fill-rule:nonzero;"/>
        </g>
    </g>
</svg>
