<?xml version="1.0" encoding="UTF-8" standalone="no"?>
<!DOCTYPE svg PUBLIC "-//W3C//DTD SVG 1.1//EN" "http://www.w3.org/Graphics/SVG/1.1/DTD/svg11.dtd">
<svg width="100%" height="100%" viewBox="0 0 630 630" version="1.1" xmlns="http://www.w3.org/2000/svg" xmlns:xlink="http://www.w3.org/1999/xlink" xml:space="preserve" xmlns:serif="http://www.serif.com/" style="fill-rule:evenodd;clip-rule:evenodd;stroke-linejoin:round;stroke-miterlimit:2;">
    <g transform="matrix(1,0,0,1,-3119.25,-3242.981584)">
        <g transform="matrix(4.166667,0,0,4.166667,0,0)">
            <path d="M766.57,794.48C768.74,792.02 771.78,794.77 773.69,796.25C776.72,799.15 781.16,799.85 784.1,802.86C786.56,805.18 789.08,807.51 792.12,809.07C798.38,812.41 804.23,816.67 808.93,822.03C812.27,825.71 816.07,828.92 819.7,832.32C823.22,835.5 826.33,839.11 830.03,842.12C829.68,840.71 829.4,839.32 828.98,837.95C827.93,834.18 823.77,832.37 822.73,828.58C821.02,823.01 819.41,816.26 823.06,811.11C825.05,808.11 826.73,804.82 829.33,802.29C831.47,800.29 834.01,803.11 835.05,804.98C837.51,809.78 840.45,814.54 841.12,820C842.18,827.29 842.3,834.69 843.2,842.01C845.09,836.29 847.28,830.06 852.42,826.44C856.15,823.61 861.25,823.72 864.95,820.82C866.49,819.3 867.55,817.36 869.03,815.77C870.27,815.91 871.5,816.15 872.73,816.5C872.45,820.31 872.19,824.21 870.78,827.8C866.75,837.74 861.34,847.06 855.08,855.76C857.03,855.31 858.98,854.79 860.98,854.58C862.44,855.51 862.23,857.33 861.79,858.77C859.47,861.07 856.13,861.82 853.09,862.66C853.03,863.84 852.98,865.04 852.95,866.25C857.51,865.03 862.04,863.22 866.85,863.29C868.37,863.32 869.6,864.73 869.94,866.16C870.74,869.67 871.17,873.26 871.82,876.81C877.02,874.54 884.03,871.66 889.03,875.71C887.92,876.84 887.51,879.15 885.64,879.31C882.21,879.7 878.64,879.67 875.49,881.25C873.26,882.31 869.99,883.25 868.21,880.96C865.7,877.52 865.99,872.96 865.07,868.98C860.77,869.68 856.56,870.84 852.58,872.59C852.45,873.17 852.19,874.33 852.07,874.91C855.63,874.23 860.25,872.61 863,875.93C865.06,879.63 866.2,883.79 867.29,887.87C872.87,886.66 879.09,882.92 884.53,886.54C884.1,887.8 883.67,889.07 883.26,890.35C879.76,890.57 876.22,890.87 872.92,892.13C870.04,893.06 866.51,894.35 863.95,892.01C861.04,888.6 861.03,883.78 858.96,879.94C856.49,878.81 853.94,880.81 851.57,881.44C851.38,882.41 851.19,883.4 851.01,884.4C853.75,884.52 856.8,885.05 858.4,887.58C860.89,890.32 859.49,895.25 862.87,897.25C868.29,898.82 873.67,896.14 879.06,895.78C881.56,895.78 880.68,898.81 880.71,900.43C875.95,901.92 871.07,903.2 866.07,903.4C861.93,903.46 856.83,901.43 856.02,896.89C855.11,894.64 855.5,891.18 852.91,890.06C848.76,889.71 847.56,894.62 845.19,897.11C846.56,900.77 846.66,904.71 846.65,908.58C854.72,908.92 862.79,907.53 870.83,908.38C873.4,908.67 873.75,913.97 870.87,913.58C863.14,913.41 855.44,914.53 847.72,913.93C848.19,915.17 848.69,916.43 849.19,917.69C856.42,918.28 863.68,916.8 870.89,917.81C873.13,918.76 873.46,921.53 872.13,923.4C865.1,922.87 858.08,923.22 851.05,923.35C850.93,924.52 850.82,925.7 850.71,926.89C850.56,928.88 848.54,928.89 847.1,928.32C845.58,925.03 845.1,921.38 843.63,918.08C841.97,914.37 841.64,910.28 841.59,906.27C834.85,911.75 826.94,915.7 820.74,921.84C819.6,922.86 817.91,922.18 816.54,922.28C816.02,924.65 815.48,927.02 814.86,929.38C813.61,928.94 812.36,928.59 811.18,928.04C811.07,927.57 810.86,926.63 810.75,926.16C811.44,920.11 812.74,914.12 814.75,908.39C809.14,907.74 804.25,904.73 798.87,903.3C793.98,902.79 788.27,903.4 784.53,899.51C779.12,893.57 779.43,882.07 787.11,878.11C793.3,874.14 791.31,865.75 794.43,859.93C793.11,857.4 791.84,854.85 790.77,852.21C788.36,846.19 783.99,841.13 782.18,834.85C780.55,828.69 777.65,822.97 774.55,817.45C771.04,812.74 769.36,807.06 767.24,801.68C766.57,799.4 765.13,796.73 766.57,794.48M773.21,803.13C774.17,805.34 774.84,807.66 775.76,809.89C775.83,810.22 775.97,810.89 776.03,811.22C777.99,812.77 779.3,814.92 780.57,817.04C782.4,815.3 784.17,813.51 785.9,811.68C783.53,809.61 781.19,807.49 778.73,805.53C776.82,804.88 774.99,804.05 773.21,803.13M826.21,817.06C825.16,820.49 826.82,823.96 827.66,827.26C828.03,824.65 827.57,821.89 828.44,819.39C830.85,817.26 833.75,820.35 834.14,822.83C833.86,823.37 833.3,824.45 833.02,825C834.48,830.76 834.74,836.72 835.42,842.6C835.97,842.98 837.07,843.75 837.62,844.14C837.87,837.09 836.99,830.05 836.4,823.04C836.29,817.9 833.25,813.61 831.52,808.95C829.41,811.41 827.43,814.04 826.21,817.06M790.01,814.14C788.08,817.23 785.74,820.04 783.24,822.68C784.07,824.39 784.91,826.12 785.73,827.85C787.35,827.25 788.98,826.66 790.61,826.08L791.45,826.24C791.72,825.94 792.24,825.35 792.5,825.05C793.86,823.95 795.32,822.93 796.47,821.6C797.42,820.43 798.07,818.22 795.85,818.13C796.04,816.37 795.29,815.8 793.61,816.45C792.59,815.4 791.23,814.85 790.01,814.14M787.39,833.73C789.67,840.02 794.13,845.2 796.37,851.5C796.38,851.53 796.4,851.58 796.41,851.6C798.39,851.53 800.39,851.81 802.22,852.66C808.42,850.65 813.41,846.26 818.89,842.88C819.71,842.47 820.53,842.08 821.37,841.7C820.34,840.55 819.3,839.43 818.26,838.32C816.8,837.14 815.38,835.94 813.98,834.73C810.32,839.52 805.15,843.24 799.3,844.7C796.5,844.25 797.24,840.26 799.29,839.29C803.07,836.77 807.29,834.76 810.03,830.98C807.42,828.48 805.07,825.73 802.59,823.13C798.38,827.77 793.33,831.57 787.39,833.73M858.98,829.42C852.78,831.3 849.49,837.9 848.43,843.88C850.08,841.4 851.18,838.15 854.08,836.84C856.23,836.61 857.64,838.86 856.54,840.69C853.78,845.12 851.38,849.76 849.3,854.54C855.3,845.98 861.48,837.25 865.07,827.34C863.07,828.11 861.02,828.76 858.98,829.42M807.52,856.53C804.41,857.93 801.79,860.14 798.93,861.94C797.23,867.12 797.27,872.82 794.79,877.74C792.87,881.76 787.43,882.87 786.47,887.47C785.45,890.45 786.79,893.94 789.19,895.88C791.75,897.75 795.12,897.2 798.1,897.55C802.43,897.65 806.31,899.88 810.53,900.61C814.15,898.39 816.04,894.58 817.96,890.98C819.22,888.42 823.01,890.68 822.34,893.07C822.02,896.68 819.38,899.59 816.93,902.07C825.62,902.37 835.91,901 841.34,893.35C846.85,886.88 846.28,877.91 847.33,869.99C847.28,865.43 847.97,859.99 844.45,856.47C842.6,854.32 840.85,852.06 838.66,850.26C833.83,847.07 827.74,846.41 822.15,847.55C817.19,850.41 812.77,854.2 807.52,856.53Z" style="fill:rgb(61,37,97);fill-rule:nonzero;"/>
        </g>
        <g transform="matrix(4.166667,0,0,4.166667,0,0)">
            <path d="M817.76,855.72C822.45,854.76 827.64,854.44 831.96,856.9C839.2,860.38 841.89,870.31 838.25,877.28C836.92,880.4 834.36,882.76 831.61,884.63C829.69,885.52 827.76,886.38 825.75,887.05C821.19,887.93 816.35,887.09 812.35,884.75C808.68,881.97 805.9,877.64 805.75,872.95C805.61,865.41 810.73,858.34 817.76,855.72M819.15,861.36C814.29,863.04 810.66,867.8 810.99,873.02C811.46,876.47 813.78,879.79 817.15,880.93C824.92,884.28 835.63,877.8 834.58,868.89C833.64,861.94 825.14,858.98 819.15,861.36Z" style="fill:rgb(61,37,97);fill-rule:nonzero;"/>
        </g>
        <g transform="matrix(4.166667,0,0,4.166667,0,0)">
            <path d="M815.89,869.09C817.33,866.3 820.02,864.18 823.11,863.53C825.5,863.67 824.89,866.25 825.05,867.93C823.67,869.14 822.41,870.48 821.35,871.99C823.66,872.02 826.6,870.39 828.42,872.56C830,876.53 824.35,879.6 821.01,878.53C816.67,878.05 814.35,872.93 815.89,869.09Z" style="fill:rgb(61,37,97);fill-rule:nonzero;"/>
        </g>
        <g transform="matrix(4.166667,0,0,4.166667,0,0)">
            <path d="M748.62,778.43C798.97,778.2 849.32,778.4 899.66,778.33C899.6,828.68 899.81,879.04 899.55,929.39C883.19,929.3 866.82,929.27 850.45,929.4C850.52,928.78 850.64,927.52 850.71,926.89C850.82,925.7 850.93,924.52 851.05,923.35C858.08,923.22 865.1,922.87 872.13,923.4C873.46,921.53 873.13,918.76 870.89,917.81C863.68,916.8 856.42,918.28 849.19,917.69C848.69,916.43 848.19,915.17 847.72,913.93C855.44,914.53 863.14,913.41 870.87,913.58C873.75,913.97 873.4,908.67 870.83,908.38C862.79,907.53 854.72,908.92 846.65,908.58C846.66,904.71 846.56,900.77 845.19,897.11C847.56,894.62 848.76,889.71 852.91,890.06C855.5,891.18 855.11,894.64 856.02,896.89C856.83,901.43 861.93,903.46 866.07,903.4C871.07,903.2 875.95,901.92 880.71,900.43C880.68,898.81 881.56,895.78 879.06,895.78C873.67,896.14 868.29,898.82 862.87,897.25C859.49,895.25 860.89,890.32 858.4,887.58C856.8,885.05 853.75,884.52 851.01,884.4C851.19,883.4 851.38,882.41 851.57,881.44C853.94,880.81 856.49,878.81 858.96,879.94C861.03,883.78 861.04,888.6 863.95,892.01C866.51,894.35 870.04,893.06 872.92,892.13C876.22,890.87 879.76,890.57 883.26,890.35C883.67,889.07 884.1,887.8 884.53,886.54C879.09,882.92 872.87,886.66 867.29,887.87C866.2,883.79 865.06,879.63 863,875.93C860.25,872.61 855.63,874.23 852.07,874.91C852.19,874.33 852.45,873.17 852.58,872.59C856.56,870.84 860.77,869.68 865.07,868.98C865.99,872.96 865.7,877.52 868.21,880.96C869.99,883.25 873.26,882.31 875.49,881.25C878.64,879.67 882.21,879.7 885.64,879.31C887.51,879.15 887.92,876.84 889.03,875.71C884.03,871.66 877.02,874.54 871.82,876.81C871.17,873.26 870.74,869.67 869.94,866.16C869.6,864.73 868.37,863.32 866.85,863.29C862.04,863.22 857.51,865.03 852.95,866.25C852.98,865.04 853.03,863.84 853.09,862.66C856.13,861.82 859.47,861.07 861.79,858.77C862.23,857.33 862.44,855.51 860.98,854.58C858.98,854.79 857.03,855.31 855.08,855.76C861.34,847.06 866.75,837.74 870.78,827.8C872.19,824.21 872.45,820.31 872.73,816.5C871.5,816.15 870.27,815.91 869.03,815.77C867.55,817.36 866.49,819.3 864.95,820.82C861.25,823.72 856.15,823.61 852.42,826.44C847.28,830.06 845.09,836.29 843.2,842.01C842.3,834.69 842.18,827.29 841.12,820C840.45,814.54 837.51,809.78 835.05,804.98C834.01,803.11 831.47,800.29 829.33,802.29C826.73,804.82 825.05,808.11 823.06,811.11C819.41,816.26 821.02,823.01 822.73,828.58C823.77,832.37 827.93,834.18 828.98,837.95C829.4,839.32 829.68,840.71 830.03,842.12C826.33,839.11 823.22,835.5 819.7,832.32C816.07,828.92 812.27,825.71 808.93,822.03C804.23,816.67 798.38,812.41 792.12,809.07C789.08,807.51 786.56,805.18 784.1,802.86C781.16,799.85 776.72,799.15 773.69,796.25C771.78,794.77 768.74,792.02 766.57,794.48C765.13,796.73 766.57,799.4 767.24,801.68C769.36,807.06 771.04,812.74 774.55,817.45C777.65,822.97 780.55,828.69 782.18,834.85C783.99,841.13 788.36,846.19 790.77,852.21C791.84,854.85 793.11,857.4 794.43,859.93C791.31,865.75 793.3,874.14 787.11,878.11C779.43,882.07 779.12,893.57 784.53,899.51C788.27,903.4 793.98,902.79 798.87,903.3C804.25,904.73 809.14,907.74 814.75,908.39C812.74,914.12 811.44,920.11 810.75,926.16C810.86,926.63 811.07,927.57 811.18,928.04L811.65,929.42C790.66,929.22 769.66,929.39 748.67,929.33C748.63,879.03 748.73,828.73 748.62,778.43Z" style="fill:rgb(252,253,222);fill-rule:nonzero;"/>
        </g>
        <g transform="matrix(4.166667,0,0,4.166667,0,0)">
            <path d="M773.21,803.13C774.99,804.05 776.82,804.88 778.73,805.53C777.62,806.06 776.51,806.61 775.42,807.17C775.5,807.85 775.68,809.21 775.76,809.89C774.84,807.66 774.17,805.34 773.21,803.13Z" style="fill:rgb(252,253,222);fill-rule:nonzero;"/>
        </g>
        <g transform="matrix(4.166667,0,0,4.166667,0,0)">
            <path d="M826.21,817.06C827.43,814.04 829.41,811.41 831.52,808.95C833.25,813.61 836.29,817.9 836.4,823.04C836.99,830.05 837.87,837.09 837.62,844.14C837.07,843.75 835.97,842.98 835.42,842.6C834.74,836.72 834.48,830.76 833.02,825C833.3,824.45 833.86,823.37 834.14,822.83C833.75,820.35 830.85,817.26 828.44,819.39C827.57,821.89 828.03,824.65 827.66,827.26C826.82,823.96 825.16,820.49 826.21,817.06Z" style="fill:rgb(252,253,222);fill-rule:nonzero;"/>
        </g>
        <g transform="matrix(4.166667,0,0,4.166667,0,0)">
            <path d="M789.32,823.01C790.56,823.25 791.96,823.75 792.5,825.05C792.24,825.35 791.72,825.94 791.45,826.24L790.61,826.08C789.93,825.16 789.5,824.13 789.32,823.01Z" style="fill:rgb(252,253,222);fill-rule:nonzero;"/>
        </g>
        <g transform="matrix(4.166667,0,0,4.166667,0,0)">
            <path d="M858.98,829.42C861.02,828.76 863.07,828.11 865.07,827.34C861.48,837.25 855.3,845.98 849.3,854.54C851.38,849.76 853.78,845.12 856.54,840.69C857.64,838.86 856.23,836.61 854.08,836.84C851.18,838.15 850.08,841.4 848.43,843.88C849.49,837.9 852.78,831.3 858.98,829.42Z" style="fill:rgb(252,253,222);fill-rule:nonzero;"/>
        </g>
        <g transform="matrix(4.166667,0,0,4.166667,0,0)">
            <path d="M818.26,838.32C819.3,839.43 820.34,840.55 821.37,841.7C820.53,842.08 819.71,842.47 818.89,842.88C818.56,842.35 817.9,841.31 817.57,840.78C817.79,839.95 818.02,839.13 818.26,838.32Z" style="fill:rgb(252,253,222);fill-rule:nonzero;"/>
        </g>
        <g transform="matrix(4.166667,0,0,4.166667,0,0)">
            <path d="M807.52,856.53C812.77,854.2 817.19,850.41 822.15,847.55C827.74,846.41 833.83,847.07 838.66,850.26C840.85,852.06 842.6,854.32 844.45,856.47C847.97,859.99 847.28,865.43 847.33,869.99C846.28,877.91 846.85,886.88 841.34,893.35C835.91,901 825.62,902.37 816.93,902.07C819.38,899.59 822.02,896.68 822.34,893.07C823.01,890.68 819.22,888.42 817.96,890.98C816.04,894.58 814.15,898.39 810.53,900.61C806.31,899.88 802.43,897.65 798.1,897.55C795.12,897.2 791.75,897.75 789.19,895.88C786.79,893.94 785.45,890.45 786.47,887.47C787.43,882.87 792.87,881.76 794.79,877.74C797.27,872.82 797.23,867.12 798.93,861.94C801.79,860.14 804.41,857.93 807.52,856.53M817.76,855.72C810.73,858.34 805.61,865.41 805.75,872.95C805.9,877.64 808.68,881.97 812.35,884.75C816.35,887.09 821.19,887.93 825.75,887.05C825.49,889.2 823.91,892.4 826.38,893.79C828.53,895.33 831.21,897.87 833.97,896.07C838.85,893.47 837.93,884.02 831.61,884.63C834.36,882.76 836.92,880.4 838.25,877.28C841.89,870.31 839.2,860.38 831.96,856.9C827.64,854.44 822.45,854.76 817.76,855.72Z" style="fill:rgb(252,253,222);fill-rule:nonzero;"/>
        </g>
        <g transform="matrix(4.166667,0,0,4.166667,0,0)">
            <path d="M819.15,861.36C825.14,858.98 833.64,861.94 834.58,868.89C835.63,877.8 824.92,884.28 817.15,880.93C813.78,879.79 811.46,876.47 810.99,873.02C810.66,867.8 814.29,863.04 819.15,861.36M815.89,869.09C814.35,872.93 816.67,878.05 821.01,878.53C824.35,879.6 830,876.53 828.42,872.56C826.6,870.39 823.66,872.02 821.35,871.99C822.41,870.48 823.67,869.14 825.05,867.93C824.89,866.25 825.5,863.67 823.11,863.53C820.02,864.18 817.33,866.3 815.89,869.09Z" style="fill:rgb(252,253,222);fill-rule:nonzero;"/>
        </g>
        <g transform="matrix(4.166667,0,0,4.166667,0,0)">
            <path d="M841.59,906.27C841.64,910.28 841.97,914.37 843.63,918.08C845.1,921.38 845.58,925.03 847.1,928.32L847.62,929.43C836.7,929.24 825.78,929.32 814.86,929.38C815.48,927.02 816.02,924.65 816.54,922.28C817.91,922.18 819.6,922.86 820.74,921.84C826.94,915.7 834.85,911.75 841.59,906.27Z" style="fill:rgb(252,253,222);fill-rule:nonzero;"/>
        </g>
        <g transform="matrix(4.166667,0,0,4.166667,0,0)">
            <path d="M775.42,807.17C776.51,806.61 777.62,806.06 778.73,805.53C781.19,807.49 783.53,809.61 785.9,811.68C784.17,813.51 782.4,815.3 780.57,817.04C779.3,814.92 777.99,812.77 776.03,811.22C775.97,810.89 775.83,810.22 775.76,809.89C775.68,809.21 775.5,807.85 775.42,807.17Z" style="fill:rgb(236,28,52);fill-rule:nonzero;"/>
        </g>
        <g transform="matrix(4.166667,0,0,4.166667,0,0)">
            <path d="M790.01,814.14C791.23,814.85 792.59,815.4 793.61,816.45C794.09,817.34 794.84,817.91 795.85,818.13C798.07,818.22 797.42,820.43 796.47,821.6C795.32,822.93 793.86,823.95 792.5,825.05C791.96,823.75 790.56,823.25 789.32,823.01C789.5,824.13 789.93,825.16 790.61,826.08C788.98,826.66 787.35,827.25 785.73,827.85C784.91,826.12 784.07,824.39 783.24,822.68C785.74,820.04 788.08,817.23 790.01,814.14Z" style="fill:rgb(236,28,52);fill-rule:nonzero;"/>
        </g>
        <g transform="matrix(4.166667,0,0,4.166667,0,0)">
            <path d="M787.39,833.73C793.33,831.57 798.38,827.77 802.59,823.13C805.07,825.73 807.42,828.48 810.03,830.98C807.29,834.76 803.07,836.77 799.29,839.29C797.24,840.26 796.5,844.25 799.3,844.7C805.15,843.24 810.32,839.52 813.98,834.73C815.38,835.94 816.8,837.14 818.26,838.32C818.02,839.13 817.79,839.95 817.57,840.78C817.9,841.31 818.56,842.35 818.89,842.88C813.41,846.26 808.42,850.65 802.22,852.66C800.39,851.81 798.39,851.53 796.41,851.6C796.4,851.58 796.38,851.53 796.37,851.5C794.13,845.2 789.67,840.02 787.39,833.73Z" style="fill:rgb(236,28,52);fill-rule:nonzero;"/>
        </g>
        <g transform="matrix(4.166667,0,0,4.166667,0,0)">
            <path d="M825.75,887.05C827.76,886.38 829.69,885.52 831.61,884.63C837.93,884.02 838.85,893.47 833.97,896.07C831.21,897.87 828.53,895.33 826.38,893.79C823.91,892.4 825.49,889.2 825.75,887.05Z" style="fill:rgb(236,28,52);fill-rule:nonzero;"/>
        </g>
        <g transform="matrix(4.166667,0,0,4.166667,0,0)">
            <path d="M793.61,816.45C795.29,815.8 796.04,816.37 795.85,818.13C794.84,817.91 794.09,817.34 793.61,816.45Z" style="fill:rgb(181,95,115);fill-rule:nonzero;"/>
        </g>
        <g transform="matrix(4.166667,0,0,4.166667,0,0)">
            <path d="M796.37,851.5C796.38,851.53 796.4,851.58 796.41,851.6C796.4,851.58 796.38,851.53 796.37,851.5Z" style="fill:rgb(223,92,105);fill-rule:nonzero;"/>
        </g>
    </g>
</svg>
