<?xml version="1.0" encoding="UTF-8" standalone="no"?>
<!DOCTYPE svg PUBLIC "-//W3C//DTD SVG 1.1//EN" "http://www.w3.org/Graphics/SVG/1.1/DTD/svg11.dtd">
<svg width="100%" height="100%" viewBox="0 0 630 634" version="1.1" xmlns="http://www.w3.org/2000/svg" xmlns:xlink="http://www.w3.org/1999/xlink" xml:space="preserve" xmlns:serif="http://www.serif.com/" style="fill-rule:evenodd;clip-rule:evenodd;stroke-linejoin:round;stroke-miterlimit:2;">
    <g transform="matrix(1,0,0,1,-2379.115313,-1056.939815)">
        <g transform="matrix(4.166667,0,0,4.166667,0,0)">
            <path d="M663.46,290.41C665.18,288.26 666.52,284.17 670,285.07C671.66,285.16 673.03,287.43 672.05,288.94C669.75,293.32 670.1,298.37 668.8,303.04C667.39,307.92 668.67,312.97 668.56,317.93C668.2,323.64 670.44,329.4 668.37,334.98C669.43,342.29 668.7,349.67 668.86,357.02C668.93,361.24 667.72,365.36 666.23,369.27C664.49,373 661.41,375.86 658.79,378.96C660.49,380.02 662.22,381.04 663.83,382.23C667.67,385.02 669.85,389.52 673.82,392.17C678.62,395.21 682.26,399.8 684.9,404.78C682.8,405.96 680.1,406.23 678.22,404.51C675.68,399.83 670.97,397.34 667.24,393.81C663.26,389.13 658.69,383.58 652.09,383.18C648.16,383.78 644.46,385.43 640.58,386.3C633.71,389.85 632.78,398.08 630.22,404.59C629.09,406.75 626.38,404.88 626.12,402.98C626.01,396.87 629.42,391.27 632.07,385.93C623.9,385.09 617.06,379.78 608.92,378.8C600.49,377.83 592.4,375.17 584,374.06C581.45,373.98 581.06,370.3 583.16,369.23C591.17,364.14 599.72,359.79 606.95,353.57C608.4,350.97 609.14,348.08 609.55,345.15C611.09,334.86 618.94,326.57 627.96,322.01C631.62,319.94 635.99,319.8 639.66,317.76C643.01,315.96 646.21,313.64 648.32,310.41C652.75,303.27 659.22,297.69 663.46,290.41M652.71,313.79C650.08,318.15 645.58,320.8 641.31,323.3C637.64,325.52 633.26,325.8 629.36,327.36C625.96,329.59 623.17,332.59 619.89,334.98C615.57,338.69 614.83,344.7 614.23,350.02C613.68,354.63 610.01,357.72 606.98,360.84C602.63,363.88 597.45,366.21 594.02,370.3C602.43,372.14 611.39,372 619.12,376.34L618.91,376.85C621.98,377.03 625.05,377.4 627.99,378.39C631.11,375.9 633.39,372.68 635.01,369.06C635.78,366.68 638.8,367.38 639.63,369.34C640.14,373.53 637.05,377.02 634.18,379.67C641.39,380.04 649.02,379.12 655.05,374.83C660.25,370.5 663.62,363.92 663.45,357.08C663.24,349.39 664.14,341.64 662.71,334.03C664.6,328.1 662.92,322.04 663.34,315.98C663.12,310.65 662.33,305.23 663.82,300C659.87,304.39 655.89,308.79 652.71,313.79Z" style="fill:rgb(61,37,97);fill-rule:nonzero;"/>
        </g>
        <g transform="matrix(4.166667,0,0,4.166667,0,0)">
            <path d="M634.02,334.4C639.74,332.48 646.8,333.03 650.86,337.95C653.32,341.56 655.83,345.98 654.72,350.5C654.36,352.38 653.94,354.28 653.08,356C651.58,358.4 649.89,360.73 647.6,362.44C647.55,362.47 647.44,362.54 647.38,362.57C644.95,363.73 642.32,364.32 639.67,364.66C635.1,364.19 630.72,361.82 627.58,358.49C621.78,351 624.72,337.62 634.02,334.4M631.77,342.85C630.2,345.25 630.01,348.18 629.56,350.94C630.57,352.71 631.11,354.96 633,356.05C636.23,358.05 640.34,360.09 644.07,358.12C647.96,356.18 649.03,351.7 650.15,347.89C648.95,345.51 647.94,342.93 646.03,341.01C644.15,339.36 641.56,339.19 639.24,338.71C636.68,339.91 633.28,340.14 631.77,342.85Z" style="fill:rgb(61,37,97);fill-rule:nonzero;"/>
        </g>
        <g transform="matrix(4.166667,0,0,4.166667,0,0)">
            <path d="M636.56,355.56C629.81,352.64 633.79,339.28 641.45,342.28C641.47,343.32 641.5,344.37 641.54,345.41C640.65,346.72 639.73,348.01 638.82,349.3C640.57,349.46 642.58,348.98 644.14,350.11C644.34,351.41 644.5,352.72 644.62,354.05C642.06,354.83 639.2,357.39 636.56,355.56Z" style="fill:rgb(61,37,97);fill-rule:nonzero;"/>
        </g>
        <g transform="matrix(4.166667,0,0,4.166667,0,0)">
            <path d="M571.01,253.67C621.34,253.67 671.67,253.66 722,253.67C721.97,304.01 722.05,354.36 721.96,404.7C709.61,404.7 697.25,404.53 684.9,404.78C682.26,399.8 678.62,395.21 673.82,392.17C669.85,389.52 667.67,385.02 663.83,382.23C662.22,381.04 660.49,380.02 658.79,378.96C661.41,375.86 664.49,373 666.23,369.27C667.72,365.36 668.93,361.24 668.86,357.02C668.7,349.67 669.43,342.29 668.37,334.98C670.44,329.4 668.2,323.64 668.56,317.93C668.67,312.97 667.39,307.92 668.8,303.04C670.1,298.37 669.75,293.32 672.05,288.94C673.03,287.43 671.66,285.16 670,285.07C666.52,284.17 665.18,288.26 663.46,290.41C659.22,297.69 652.75,303.27 648.32,310.41C646.21,313.64 643.01,315.96 639.66,317.76C635.99,319.8 631.62,319.94 627.96,322.01C618.94,326.57 611.09,334.86 609.55,345.15C609.14,348.08 608.4,350.97 606.95,353.57C599.72,359.79 591.17,364.14 583.16,369.23C581.06,370.3 581.45,373.98 584,374.06C592.4,375.17 600.49,377.83 608.92,378.8C617.06,379.78 623.9,385.09 632.07,385.93C629.42,391.27 626.01,396.87 626.12,402.98L626.26,404.58C607.86,404.81 589.46,404.55 571.06,404.71C570.92,354.37 571.03,304.02 571.01,253.67Z" style="fill:rgb(252,253,222);fill-rule:nonzero;"/>
        </g>
        <g transform="matrix(4.166667,0,0,4.166667,0,0)">
            <path d="M652.71,313.79C655.89,308.79 659.87,304.39 663.82,300C662.33,305.23 663.12,310.65 663.34,315.98C662.92,322.04 664.6,328.1 662.71,334.03C664.14,341.64 663.24,349.39 663.45,357.08C663.62,363.92 660.25,370.5 655.05,374.83C649.02,379.12 641.39,380.04 634.18,379.67C637.05,377.02 640.14,373.53 639.63,369.34C638.8,367.38 635.78,366.68 635.01,369.06C633.39,372.68 631.11,375.9 627.99,378.39C625.05,377.4 621.98,377.03 618.91,376.85L619.12,376.34C621.27,372.32 620.94,367.31 618.7,363.41C616.92,361.1 614.03,358.33 610.88,359.55C609.55,359.89 608.25,360.34 606.98,360.84C610.01,357.72 613.68,354.63 614.23,350.02C614.83,344.7 615.57,338.69 619.89,334.98C623.17,332.59 625.96,329.59 629.36,327.36C633.26,325.8 637.64,325.52 641.31,323.3C645.58,320.8 650.08,318.15 652.71,313.79M634.02,334.4C624.72,337.62 621.78,351 627.58,358.49C630.72,361.82 635.1,364.19 639.67,364.66C639.62,369.26 643.58,372.42 647.99,372.24C652.32,371.17 654.7,366.82 655.82,362.84C656.67,360.15 654.51,357.97 653.08,356C653.94,354.28 654.36,352.38 654.72,350.5C655.83,345.98 653.32,341.56 650.86,337.95C646.8,333.03 639.74,332.48 634.02,334.4Z" style="fill:rgb(252,253,222);fill-rule:nonzero;"/>
        </g>
        <g transform="matrix(4.166667,0,0,4.166667,0,0)">
            <path d="M631.77,342.85C633.28,340.14 636.68,339.91 639.24,338.71C641.56,339.19 644.15,339.36 646.03,341.01C647.94,342.93 648.95,345.51 650.15,347.89C649.03,351.7 647.96,356.18 644.07,358.12C640.34,360.09 636.23,358.05 633,356.05C631.11,354.96 630.57,352.71 629.56,350.94C630.01,348.18 630.2,345.25 631.77,342.85M636.56,355.56C639.2,357.39 642.06,354.83 644.62,354.05C644.5,352.72 644.34,351.41 644.14,350.11C642.58,348.98 640.57,349.46 638.82,349.3C639.73,348.01 640.65,346.72 641.54,345.41C641.5,344.37 641.47,343.32 641.45,342.28C633.79,339.28 629.81,352.64 636.56,355.56Z" style="fill:rgb(252,253,222);fill-rule:nonzero;"/>
        </g>
        <g transform="matrix(4.166667,0,0,4.166667,0,0)">
            <path d="M640.58,386.3C644.46,385.43 648.16,383.78 652.09,383.18C658.69,383.58 663.26,389.13 667.24,393.81C670.97,397.34 675.68,399.83 678.22,404.51C662.23,404.82 646.22,404.67 630.22,404.59C632.78,398.08 633.71,389.85 640.58,386.3Z" style="fill:rgb(252,253,222);fill-rule:nonzero;"/>
        </g>
        <g transform="matrix(4.166667,0,0,4.166667,0,0)">
            <path d="M647.6,362.44C649.89,360.73 651.58,358.4 653.08,356C654.51,357.97 656.67,360.15 655.82,362.84C654.7,366.82 652.32,371.17 647.99,372.24C643.58,372.42 639.62,369.26 639.67,364.66C642.32,364.32 644.95,363.73 647.38,362.57C647.44,362.54 647.55,362.47 647.6,362.44Z" style="fill:rgb(236,28,52);fill-rule:nonzero;"/>
        </g>
        <g transform="matrix(4.166667,0,0,4.166667,0,0)">
            <path d="M610.88,359.55C614.03,358.33 616.92,361.1 618.7,363.41C620.94,367.31 621.27,372.32 619.12,376.34C611.39,372 602.43,372.14 594.02,370.3C597.45,366.21 602.63,363.88 606.98,360.84C608.25,360.34 609.55,359.89 610.88,359.55Z" style="fill:rgb(236,28,52);fill-rule:nonzero;"/>
        </g>
        <g transform="matrix(4.166667,0,0,4.166667,0,0)">
            <path d="M647.38,362.57C647.44,362.54 647.55,362.47 647.6,362.44C647.55,362.47 647.44,362.54 647.38,362.57Z" style="fill:rgb(151,110,131);fill-rule:nonzero;"/>
        </g>
    </g>
</svg>
