<?xml version="1.0" encoding="UTF-8" standalone="no"?>
<!DOCTYPE svg PUBLIC "-//W3C//DTD SVG 1.1//EN" "http://www.w3.org/Graphics/SVG/1.1/DTD/svg11.dtd">
<svg width="100%" height="100%" viewBox="0 0 630 638" version="1.1" xmlns="http://www.w3.org/2000/svg" xmlns:xlink="http://www.w3.org/1999/xlink" xml:space="preserve" xmlns:serif="http://www.serif.com/" style="fill-rule:evenodd;clip-rule:evenodd;stroke-linejoin:round;stroke-miterlimit:2;">
    <g transform="matrix(1,0,0,1,-934.62429,-1797.148251)">
        <g transform="matrix(4.166667,0,0,4.166667,0,0)">
            <path d="M279.4,482.32C284.61,479.16 291.03,479.44 296.85,480.12C301.55,480.85 306.68,482.49 309.53,486.58C310.99,488.4 312.63,490.07 314.21,491.8C316.74,494.39 317.24,498.13 318.84,501.26C325.61,514.75 330.29,529.15 335.85,543.15C339.04,550.01 341.94,557.01 345.21,563.84C346.09,565.13 345.02,566.67 344.04,567.56C337.37,568.07 330.7,568.59 324.06,569.47C325.18,572.89 326.44,576.29 328.43,579.32C328.27,579.73 327.94,580.54 327.78,580.95C327.28,581.93 326.82,582.93 326.4,583.95C324.99,583.96 323.58,583.97 322.17,583.99C322.12,583.56 322,582.72 321.94,582.3C321.78,581.1 321.62,579.92 321.46,578.74C307.73,577.54 293.92,578.34 280.2,577.15C279.44,578.48 278.7,579.82 277.92,581.15C276.76,582.73 275.28,584.87 273.01,584.3C271.64,584.31 270.83,583.04 269.73,582.44C271.76,577.63 273.93,572.87 275.97,568.07C264.26,568.36 252.55,567.29 240.83,567.37C241.91,563.43 242.78,559.45 243.84,555.52C246.67,546.25 248.25,536.64 251.36,527.45C253.83,519.89 256.07,512.13 260.31,505.33C263.02,500.87 263.85,495.4 267.38,491.44C270.56,487.43 275.09,484.9 279.4,482.32M271.53,507.54C268.39,512.72 269.43,519.56 265.3,524.26C262.96,528.1 257.49,529.34 256.59,534.1C255.7,536.86 257.01,540.03 259.05,541.96C262.18,544.47 266.46,543.37 270.12,544.07C272.8,544.14 275.41,546.57 277.99,544.98C282.43,542.81 287.15,541.14 292.11,540.76C294.13,541.46 294.96,543.83 293.52,545.54C290.75,546.67 287.74,547.01 284.85,547.69C293.88,549.55 304.33,547.69 310.87,540.8C310.7,539.29 310.53,537.78 310.39,536.29C315.1,534.24 316.94,529.1 316.74,524.29C315.7,521.71 313.07,518.85 310.01,520.05C305.84,521.36 305.24,526.48 301.86,528.81C298.56,532.29 293.39,532.4 288.93,532.23C283.74,530.67 278.7,526.87 277.57,521.31C276.09,516.07 279.53,511.33 282.08,507.08C279.77,505.88 277.58,504.49 275.84,502.54C274.26,504.08 272.61,505.6 271.53,507.54M283.12,521.84C284.72,523.3 286.21,524.92 288.05,526.09C290.08,527.47 292.67,526.73 294.92,526.45C298.88,525.66 301.21,522.07 303.11,518.84C301.59,515.5 299.16,512.65 295.47,511.77C295.34,514.51 293.16,516.27 291.59,518.25C293.38,518.09 295.18,517.77 296.99,517.81C298.87,518.16 298.59,520.37 298.73,521.78C296.77,524.35 292.99,525.79 289.91,524.49C286.23,523.38 284.74,518.58 286.19,515.25C287.15,512.91 289.69,512.03 291.77,510.96C290.45,510.45 289.13,509.93 287.82,509.44C284.21,512.44 281.4,517.03 283.12,521.84M290.14,563.57C297.5,563.24 304.85,562.7 312.13,561.52C310.52,559.08 308.77,556.75 307,554.44C301.02,556.77 295.65,560.32 290.14,563.57M296.1,568.62C291.83,568.87 287.52,568.47 283.3,569.3C283.09,569.96 282.68,571.3 282.47,571.96C294.64,573.02 306.9,572.2 319.09,573.16C317.52,571.06 316.93,567.35 314.08,566.77C308.11,567.54 302.12,568.22 296.1,568.62Z" style="fill:rgb(61,37,97);fill-rule:nonzero;"/>
        </g>
        <g transform="matrix(4.166667,0,0,4.166667,0,0)">
            <path d="M224.33,431.33C274.68,431.4 325.03,431.2 375.38,431.43C375.27,481.73 375.37,532.03 375.33,582.33C361.19,582.39 347.06,582.23 332.93,582.37C331.33,582.02 328.95,583.09 327.83,581.71L327.78,580.95C327.94,580.54 328.27,579.73 328.43,579.32C326.44,576.29 325.18,572.89 324.06,569.47C330.7,568.59 337.37,568.07 344.04,567.56C345.02,566.67 346.09,565.13 345.21,563.84C341.94,557.01 339.04,550.01 335.85,543.15C330.29,529.15 325.61,514.75 318.84,501.26C317.24,498.13 316.74,494.39 314.21,491.8C312.63,490.07 310.99,488.4 309.53,486.58C306.68,482.49 301.55,480.85 296.85,480.12C291.03,479.44 284.61,479.16 279.4,482.32C275.09,484.9 270.56,487.43 267.38,491.44C263.85,495.4 263.02,500.87 260.31,505.33C256.07,512.13 253.83,519.89 251.36,527.45C248.25,536.64 246.67,546.25 243.84,555.52C242.78,559.45 241.91,563.43 240.83,567.37C252.55,567.29 264.26,568.36 275.97,568.07C273.93,572.87 271.76,577.63 269.73,582.44C254.64,582.23 239.54,582.32 224.45,582.4C224.17,532.04 224.41,481.69 224.33,431.33Z" style="fill:rgb(252,253,222);fill-rule:nonzero;"/>
        </g>
        <g transform="matrix(4.166667,0,0,4.166667,0,0)">
            <path d="M271.53,507.54C272.61,505.6 274.26,504.08 275.84,502.54C277.58,504.49 279.77,505.88 282.08,507.08C279.53,511.33 276.09,516.07 277.57,521.31C278.7,526.87 283.74,530.67 288.93,532.23C293.39,532.4 298.56,532.29 301.86,528.81C305.24,526.48 305.84,521.36 310.01,520.05C313.07,518.85 315.7,521.71 316.74,524.29C316.94,529.1 315.1,534.24 310.39,536.29C310.53,537.78 310.7,539.29 310.87,540.8C304.33,547.69 293.88,549.55 284.85,547.69C287.74,547.01 290.75,546.67 293.52,545.54C294.96,543.83 294.13,541.46 292.11,540.76C287.15,541.14 282.43,542.81 277.99,544.98C275.41,546.57 272.8,544.14 270.12,544.07C266.46,543.37 262.18,544.47 259.05,541.96C257.01,540.03 255.7,536.86 256.59,534.1C257.49,529.34 262.96,528.1 265.3,524.26C269.43,519.56 268.39,512.72 271.53,507.54M264.22,529.36C260.96,531.02 259.47,535.1 260.58,538.55C262.36,541.47 266.73,542.59 269.59,540.52C272.63,538.95 272.9,534.99 272.07,532.05C270.65,529.3 267.02,528.19 264.22,529.36M295.05,534.04C294.33,534.98 294.37,536.22 294.44,537.34C295.38,538.03 297.32,538.42 297.75,537.02C298.81,535.29 296.98,532.52 295.05,534.04M300.43,534.16C300.28,535.68 300.13,537.21 300.17,538.76C302.71,539.82 304.38,536.9 303.31,534.79C302.35,534.53 301.39,534.32 300.43,534.16M297.23,540.01C296.02,542.04 297,544.58 299.55,543.48C300.74,541.43 299.89,538.75 297.23,540.01Z" style="fill:rgb(252,253,222);fill-rule:nonzero;"/>
        </g>
        <g transform="matrix(4.166667,0,0,4.166667,0,0)">
            <path d="M283.12,521.84C281.4,517.03 284.21,512.44 287.82,509.44C289.13,509.93 290.45,510.45 291.77,510.96C289.69,512.03 287.15,512.91 286.19,515.25C284.74,518.58 286.23,523.38 289.91,524.49C292.99,525.79 296.77,524.35 298.73,521.78C298.59,520.37 298.87,518.16 296.99,517.81C295.18,517.77 293.38,518.09 291.59,518.25C293.16,516.27 295.34,514.51 295.47,511.77C299.16,512.65 301.59,515.5 303.11,518.84C301.21,522.07 298.88,525.66 294.92,526.45C292.67,526.73 290.08,527.47 288.05,526.09C286.21,524.92 284.72,523.3 283.12,521.84Z" style="fill:rgb(252,253,222);fill-rule:nonzero;"/>
        </g>
        <g transform="matrix(4.166667,0,0,4.166667,0,0)">
            <path d="M290.14,563.57C295.65,560.32 301.02,556.77 307,554.44C308.77,556.75 310.52,559.08 312.13,561.52C304.85,562.7 297.5,563.24 290.14,563.57Z" style="fill:rgb(252,253,222);fill-rule:nonzero;"/>
        </g>
        <g transform="matrix(4.166667,0,0,4.166667,0,0)">
            <path d="M296.1,568.62C302.12,568.22 308.11,567.54 314.08,566.77C316.93,567.35 317.52,571.06 319.09,573.16C306.9,572.2 294.64,573.02 282.47,571.96C282.68,571.3 283.09,569.96 283.3,569.3C287.52,568.47 291.83,568.87 296.1,568.62Z" style="fill:rgb(252,253,222);fill-rule:nonzero;"/>
        </g>
        <g transform="matrix(4.166667,0,0,4.166667,0,0)">
            <path d="M280.2,577.15C293.92,578.34 307.73,577.54 321.46,578.74C321.62,579.92 321.78,581.1 321.94,582.3C307.05,582.35 292.15,582.38 277.26,582.28L277.92,581.15C278.7,579.82 279.44,578.48 280.2,577.15Z" style="fill:rgb(252,253,222);fill-rule:nonzero;"/>
        </g>
        <g transform="matrix(4.166667,0,0,4.166667,0,0)">
            <path d="M264.22,529.36C267.02,528.19 270.65,529.3 272.07,532.05C272.9,534.99 272.63,538.95 269.59,540.52C266.73,542.59 262.36,541.47 260.58,538.55C259.47,535.1 260.96,531.02 264.22,529.36Z" style="fill:rgb(236,28,52);fill-rule:nonzero;"/>
        </g>
        <g transform="matrix(4.166667,0,0,4.166667,0,0)">
            <path d="M295.05,534.04C296.98,532.52 298.81,535.29 297.75,537.02C297.32,538.42 295.38,538.03 294.44,537.34C294.37,536.22 294.33,534.98 295.05,534.04Z" style="fill:rgb(236,28,52);fill-rule:nonzero;"/>
        </g>
        <g transform="matrix(4.166667,0,0,4.166667,0,0)">
            <path d="M297.23,540.01C299.89,538.75 300.74,541.43 299.55,543.48C297,544.58 296.02,542.04 297.23,540.01Z" style="fill:rgb(236,28,52);fill-rule:nonzero;"/>
        </g>
        <g transform="matrix(4.166667,0,0,4.166667,0,0)">
            <path d="M300.43,534.16C301.39,534.32 302.35,534.53 303.31,534.79C304.38,536.9 302.71,539.82 300.17,538.76C300.13,537.21 300.28,535.68 300.43,534.16Z" style="fill:rgb(235,28,52);fill-rule:nonzero;"/>
        </g>
    </g>
</svg>
