<?xml version="1.0" encoding="UTF-8" standalone="no"?>
<!DOCTYPE svg PUBLIC "-//W3C//DTD SVG 1.1//EN" "http://www.w3.org/Graphics/SVG/1.1/DTD/svg11.dtd">
<svg width="100%" height="100%" viewBox="0 0 630 631" version="1.1" xmlns="http://www.w3.org/2000/svg" xmlns:xlink="http://www.w3.org/1999/xlink" xml:space="preserve" xmlns:serif="http://www.serif.com/" style="fill-rule:evenodd;clip-rule:evenodd;stroke-linejoin:round;stroke-miterlimit:2;">
    <g transform="matrix(1,0,0,1,-934.541667,-316.627591)">
        <g transform="matrix(4.166667,0,0,4.166667,0,0)">
            <path d="M327,88.93C328.88,86.61 331.28,89.2 332.62,90.72C331.1,105.1 333.3,119.55 332.07,133.95C331.18,143.3 331.56,152.73 330.59,162.08C329.64,171.98 329.97,182.23 326.35,191.66C324.83,195.18 321.98,197.86 319.63,200.82C322.24,207.14 326.66,212.58 328.45,219.25C330.78,220.85 331.84,223.72 329.94,226.14C328.65,227.03 327.04,226.92 325.65,226.33C324.21,223.9 323.58,221.13 322.63,218.5C321.24,214.32 318.56,210.77 316.53,206.91C308.41,212.23 298.7,214.75 291.24,221.17C290.88,222.41 290.52,223.65 290.11,224.88C289.51,225.67 288.9,226.45 288.26,227.21C287.58,226.97 286.22,226.5 285.53,226.27C284.81,220.05 287.68,214.1 287.54,207.85C282.47,206.04 277.56,203.06 272,203.31C267.53,203.43 262.56,201.83 260.23,197.75C257.89,193.42 257.45,187.92 259.58,183.42C261.09,179.14 266.75,178.5 268.14,174.1C269.68,169.21 269.74,163.83 272.34,159.28C275.88,153.33 281.05,148.59 286.32,144.19C296.45,135.42 303.4,123.31 306.38,110.29C307.79,110.34 309.36,110.43 310.42,111.51C311.38,115.81 311.23,120.32 312.69,124.54C319.37,113.53 322.96,101.06 327,88.93M315.65,131.63C314.49,134.1 310.63,135.86 308.51,133.66C308.24,130.37 308.04,127.05 307.07,123.87C305.94,126.46 304.78,129.04 303.86,131.72C298.6,137.54 294.5,144.42 288.28,149.35C283.62,152.96 279.2,157.09 276.44,162.37C274.41,167.19 274.67,172.66 272.45,177.41C271.19,180.1 268.83,181.97 266.46,183.62C262.64,186.53 262.5,192.81 266.16,195.93C268.59,198.05 272.01,197.56 274.99,197.85C279.49,197.98 283.63,199.98 287.92,201.12C290.96,198.63 293.36,195.55 294.89,191.92C295.63,189.37 299.05,189.94 299.64,192.25C300.11,196.21 296.94,199.22 294.84,202.19C303.59,203.01 313.88,200.86 319.09,193.13C323.91,187.17 323.59,179.1 324.51,171.91C326.18,150.85 326.74,129.7 326.5,108.57C322.94,116.28 319.6,124.11 315.65,131.63Z" style="fill:rgb(61,37,97);fill-rule:nonzero;"/>
        </g>
        <g transform="matrix(4.166667,0,0,4.166667,0,0)">
            <path d="M283.9,169.02C286.42,159.93 297.84,153.8 306.48,158.61C314.37,161.94 316.28,173.23 311.4,179.76C308.85,182.89 305.58,185.54 301.59,186.53C297.45,187.76 293.09,186.38 289.49,184.27C285.06,180.7 282.68,174.64 283.9,169.02M295.33,163.5C293.37,164.36 291.51,165.64 290.4,167.51C287.08,171.98 289.74,179.43 295.18,180.74C302.02,183.18 310.81,176.39 308.6,169.01C307.27,163.45 300.21,161.1 295.33,163.5Z" style="fill:rgb(61,37,97);fill-rule:nonzero;"/>
        </g>
        <g transform="matrix(4.166667,0,0,4.166667,0,0)">
            <path d="M296.07,165.1C299.11,162.68 303.5,166.92 301.65,170.19C300.3,170.83 298.95,171.45 297.6,172.07C299.59,172.19 301.61,172.28 303.59,172.64C304.74,178.04 297.32,180.8 294.09,176.89C291.46,173.32 292.89,167.88 296.07,165.1Z" style="fill:rgb(61,37,97);fill-rule:nonzero;"/>
        </g>
        <g transform="matrix(4.166667,0,0,4.166667,0,0)">
            <path d="M224.29,76.07C274.63,75.91 324.98,76.05 375.33,76C375.34,126.33 375.33,176.66 375.33,227C360.06,227.02 344.79,226.96 329.52,227.03L329.94,226.14C331.84,223.72 330.78,220.85 328.45,219.25C326.66,212.58 322.24,207.14 319.63,200.82C321.98,197.86 324.83,195.18 326.35,191.66C329.97,182.23 329.64,171.98 330.59,162.08C331.56,152.73 331.18,143.3 332.07,133.95C333.3,119.55 331.1,105.1 332.62,90.72C331.28,89.2 328.88,86.61 327,88.93C322.96,101.06 319.37,113.53 312.69,124.54C311.23,120.32 311.38,115.81 310.42,111.51C309.36,110.43 307.79,110.34 306.38,110.29C303.4,123.31 296.45,135.42 286.32,144.19C281.05,148.59 275.88,153.33 272.34,159.28C269.74,163.83 269.68,169.21 268.14,174.1C266.75,178.5 261.09,179.14 259.58,183.42C257.45,187.92 257.89,193.42 260.23,197.75C262.56,201.83 267.53,203.43 272,203.31C277.56,203.06 282.47,206.04 287.54,207.85C287.68,214.1 284.81,220.05 285.53,226.27L285.62,227.03C265.18,226.93 244.74,227.09 224.3,226.95C224.35,176.66 224.37,126.36 224.29,76.07Z" style="fill:rgb(252,253,222);fill-rule:nonzero;"/>
        </g>
        <g transform="matrix(4.166667,0,0,4.166667,0,0)">
            <path d="M315.65,131.63C319.6,124.11 322.94,116.28 326.5,108.57C326.74,129.7 326.18,150.85 324.51,171.91C323.59,179.1 323.91,187.17 319.09,193.13C313.88,200.86 303.59,203.01 294.84,202.19C296.94,199.22 300.11,196.21 299.64,192.25C299.05,189.94 295.63,189.37 294.89,191.92C293.36,195.55 290.96,198.63 287.92,201.12C283.63,199.98 279.49,197.98 274.99,197.85C272.01,197.56 268.59,198.05 266.16,195.93C262.5,192.81 262.64,186.53 266.46,183.62C268.83,181.97 271.19,180.1 272.45,177.41C274.67,172.66 274.41,167.19 276.44,162.37C279.2,157.09 283.62,152.96 288.28,149.35C294.5,144.42 298.6,137.54 303.86,131.72C304.78,129.04 305.94,126.46 307.07,123.87C308.04,127.05 308.24,130.37 308.51,133.66C310.63,135.86 314.49,134.1 315.65,131.63M283.9,169.02C282.68,174.64 285.06,180.7 289.49,184.27C293.09,186.38 297.45,187.76 301.59,186.53C300.87,189.45 302.4,192.48 305.11,193.72C308.31,194.55 311.75,193.43 314.28,191.41C316.05,190.11 318.21,188.51 317.91,186.01C317.68,182.54 314.45,180.55 311.4,179.76C316.28,173.23 314.37,161.94 306.48,158.61C297.84,153.8 286.42,159.93 283.9,169.02Z" style="fill:rgb(252,253,222);fill-rule:nonzero;"/>
        </g>
        <g transform="matrix(4.166667,0,0,4.166667,0,0)">
            <path d="M295.33,163.5C300.21,161.1 307.27,163.45 308.6,169.01C310.81,176.39 302.02,183.18 295.18,180.74C289.74,179.43 287.08,171.98 290.4,167.51C291.51,165.64 293.37,164.36 295.33,163.5M296.07,165.1C292.89,167.88 291.46,173.32 294.09,176.89C297.32,180.8 304.74,178.04 303.59,172.64C301.61,172.28 299.59,172.19 297.6,172.07C298.95,171.45 300.3,170.83 301.65,170.19C303.5,166.92 299.11,162.68 296.07,165.1Z" style="fill:rgb(252,253,222);fill-rule:nonzero;"/>
        </g>
        <g transform="matrix(4.166667,0,0,4.166667,0,0)">
            <path d="M291.24,221.17C298.7,214.75 308.41,212.23 316.53,206.91C318.56,210.77 321.24,214.32 322.63,218.5C323.58,221.13 324.21,223.9 325.65,226.33L326.02,227.01C313.83,226.98 301.64,227.01 289.45,227C289.61,226.47 289.94,225.41 290.11,224.88C290.52,223.65 290.88,222.41 291.24,221.17Z" style="fill:rgb(252,253,222);fill-rule:nonzero;"/>
        </g>
        <g transform="matrix(4.166667,0,0,4.166667,0,0)">
            <path d="M301.59,186.53C305.58,185.54 308.85,182.89 311.4,179.76C314.45,180.55 317.68,182.54 317.91,186.01C318.21,188.51 316.05,190.11 314.28,191.41C311.75,193.43 308.31,194.55 305.11,193.72C302.4,192.48 300.87,189.45 301.59,186.53Z" style="fill:rgb(236,28,52);fill-rule:nonzero;"/>
        </g>
    </g>
</svg>
