<?xml version="1.0" encoding="UTF-8" standalone="no"?>
<!DOCTYPE svg PUBLIC "-//W3C//DTD SVG 1.1//EN" "http://www.w3.org/Graphics/SVG/1.1/DTD/svg11.dtd">
<svg width="100%" height="100%" viewBox="0 0 630 635" version="1.1" xmlns="http://www.w3.org/2000/svg" xmlns:xlink="http://www.w3.org/1999/xlink" xml:space="preserve" xmlns:serif="http://www.serif.com/" style="fill-rule:evenodd;clip-rule:evenodd;stroke-linejoin:round;stroke-miterlimit:2;">
    <g transform="matrix(1,0,0,1,-219.439815,-316.621667)">
        <g transform="matrix(4.166667,0,0,4.166667,0,0)">
            <path d="M157.65,85.5C160.34,84.52 162.73,87.38 162.42,89.92C161.31,104.95 163.44,120.02 161.78,135.02C161.93,143.39 161.29,151.72 160.6,160.06C159.58,170.81 159.82,182 155.13,192C155.52,191.79 156.29,191.38 156.68,191.17C154.56,193.35 154.35,196.33 155.25,199.12C158,208.41 161.5,217.51 163.55,227C157.67,227.11 151.79,227.28 145.95,228.04C136.97,229.18 128.03,227.05 119.05,227.11C115.22,227.11 111.05,229.38 107.51,227.01C107.78,222.68 111.25,219.72 113.19,216.11C115.19,212.53 117.35,209.04 119.92,205.84C115.72,204.65 111.78,202.73 107.64,201.39C103.73,200.06 99.38,201.3 95.57,199.55C88.41,196.83 86.61,187.24 89.54,180.83C90.88,176.91 95.67,176.07 97.57,172.58C99.36,169.43 99.14,165.65 100.19,162.24C102.21,154.09 108.67,148.11 114.81,142.83C125.53,133.83 133.74,121.33 136.12,107.41C137.54,107.78 139.01,108.05 140.35,108.68C141.43,112.96 141.23,117.47 142.53,121.73C148.72,112.58 151.65,101.79 155.34,91.51C156.1,89.51 156.26,87.2 157.65,85.5M145.77,128.72C144.69,131.27 141.05,133.1 138.69,131.21C138.01,127.88 138.11,124.37 137.13,121.06C136.01,123.66 134.8,126.23 133.94,128.93C130.1,132.87 127.39,137.73 123.49,141.6C118.09,147.77 110.17,151.77 106.67,159.51C105.75,165.85 103.17,171.77 102.44,178.14C99.08,178.94 95.39,180.57 94.16,184.08C92.16,188.05 94.56,193.73 99.01,194.67C102.62,195.34 106.42,194.82 109.95,196C112.61,196.82 115.27,197.64 117.93,198.46C121.27,195.77 123.75,192.28 125.3,188.29C126.06,188 127.57,187.42 128.33,187.13C131.59,191.68 127.62,196.66 124.18,199.68C132.99,200.14 143.42,198.6 148.83,190.8C153.68,185 153.71,177.03 154.37,169.89C154.29,163.21 155.97,156.68 155.91,149.99C156.97,145.33 155.79,140.63 156.17,135.92C156.79,125.91 156.52,115.87 156.47,105.85C153.02,113.52 149.66,121.25 145.77,128.72M141,220.53C139.43,221.32 137.71,220.68 136.11,220.41C134.91,221.23 133.72,222.05 132.55,222.89C140.61,223.78 148.62,222.29 156.66,221.89C155.15,218.7 153.66,215.43 153.13,211.91C149.36,215.14 145.47,218.32 141,220.53Z" style="fill:rgb(61,37,97);fill-rule:nonzero;"/>
        </g>
        <g transform="matrix(4.166667,0,0,4.166667,0,0)">
            <path d="M134.06,153.89C138.67,152.38 142.14,148.92 146.07,146.29C149.41,145.8 149.88,150 147.96,151.93C141.99,159.65 143.23,170.01 139.82,178.7C138.04,181.39 135.37,183.31 132.55,184.79C128.08,186.53 122.63,186.33 118.74,183.3C111.47,178.55 110.16,167.42 115.94,160.97C120.35,155.4 128.15,156.57 134.06,153.89M120.62,163.63C119.06,165.49 117.84,167.72 117.36,170.11C117.17,175.24 121.67,180.5 126.99,180.25C130.24,180.55 132.99,178.25 135.33,176.29C136.67,173.89 136.63,171.06 136.79,168.4C135.26,166.26 133.97,163.67 131.41,162.59C127.99,160.75 123.8,161.78 120.62,163.63Z" style="fill:rgb(61,37,97);fill-rule:nonzero;"/>
        </g>
        <g transform="matrix(4.166667,0,0,4.166667,0,0)">
            <path d="M122.1,173.82C119.42,169.99 124.14,162.71 128.57,166.32C128.37,167.69 128.18,169.07 127.99,170.44C129.8,170.64 131.54,171.17 133.09,172.14C132.42,173.83 132.24,176.3 129.97,176.53C127.24,176.67 123.75,176.31 122.1,173.82Z" style="fill:rgb(61,37,97);fill-rule:nonzero;"/>
        </g>
        <g transform="matrix(4.166667,0,0,4.166667,0,0)">
            <path d="M52.67,76C103.02,76.03 153.36,75.93 203.7,76.05C203.65,126.35 203.64,176.65 203.71,226.94C190.32,227.08 176.93,226.95 163.55,227C161.5,217.51 158,208.41 155.25,199.12C154.35,196.33 154.56,193.35 156.68,191.17C156.29,191.38 155.52,191.79 155.13,192C159.82,182 159.58,170.81 160.6,160.06C161.29,151.72 161.93,143.39 161.78,135.02C163.44,120.02 161.31,104.95 162.42,89.92C162.73,87.38 160.34,84.52 157.65,85.5C156.26,87.2 156.1,89.51 155.34,91.51C151.65,101.79 148.72,112.58 142.53,121.73C141.23,117.47 141.43,112.96 140.35,108.68C139.01,108.05 137.54,107.78 136.12,107.41C133.74,121.33 125.53,133.83 114.81,142.83C108.67,148.11 102.21,154.09 100.19,162.24C99.14,165.65 99.36,169.43 97.57,172.58C95.67,176.07 90.88,176.91 89.54,180.83C86.61,187.24 88.41,196.83 95.57,199.55C99.38,201.3 103.73,200.06 107.64,201.39C111.78,202.73 115.72,204.65 119.92,205.84C117.35,209.04 115.19,212.53 113.19,216.11C111.25,219.72 107.78,222.68 107.51,227.01C89.23,226.99 70.95,227.01 52.67,227C52.67,176.67 52.66,126.33 52.67,76Z" style="fill:rgb(252,253,222);fill-rule:nonzero;"/>
        </g>
        <g transform="matrix(4.166667,0,0,4.166667,0,0)">
            <path d="M145.77,128.72C149.66,121.25 153.02,113.52 156.47,105.85C156.52,115.87 156.79,125.91 156.17,135.92C155.79,140.63 156.97,145.33 155.91,149.99C155.97,156.68 154.29,163.21 154.37,169.89C153.71,177.03 153.68,185 148.83,190.8C143.42,198.6 132.99,200.14 124.18,199.68C127.62,196.66 131.59,191.68 128.33,187.13C127.57,187.42 126.06,188 125.3,188.29C123.75,192.28 121.27,195.77 117.93,198.46C115.27,197.64 112.61,196.82 109.95,196C106.42,194.82 102.62,195.34 99.01,194.67C94.56,193.73 92.16,188.05 94.16,184.08C95.39,180.57 99.08,178.94 102.44,178.14C103.17,171.77 105.75,165.85 106.67,159.51C110.17,151.77 118.09,147.77 123.49,141.6C127.39,137.73 130.1,132.87 133.94,128.93C134.8,126.23 136.01,123.66 137.13,121.06C138.11,124.37 138.01,127.88 138.69,131.21C141.05,133.1 144.69,131.27 145.77,128.72M134.06,153.89C128.15,156.57 120.35,155.4 115.94,160.97C110.16,167.42 111.47,178.55 118.74,183.3C122.63,186.33 128.08,186.53 132.55,184.79C132.17,186.3 131.8,187.81 131.43,189.33C132.85,190.84 134.17,192.59 136.13,193.45C139.15,194.08 142.45,192.94 144.54,190.7C146.26,188.18 145.83,184.97 145.98,182.09C144.13,180.62 142.11,179.36 139.82,178.7C143.23,170.01 141.99,159.65 147.96,151.93C149.88,150 149.41,145.8 146.07,146.29C142.14,148.92 138.67,152.38 134.06,153.89Z" style="fill:rgb(252,253,222);fill-rule:nonzero;"/>
        </g>
        <g transform="matrix(4.166667,0,0,4.166667,0,0)">
            <path d="M120.62,163.63C123.8,161.78 127.99,160.75 131.41,162.59C133.97,163.67 135.26,166.26 136.79,168.4C136.63,171.06 136.67,173.89 135.33,176.29C132.99,178.25 130.24,180.55 126.99,180.25C121.67,180.5 117.17,175.24 117.36,170.11C117.84,167.72 119.06,165.49 120.62,163.63M122.1,173.82C123.75,176.31 127.24,176.67 129.97,176.53C132.24,176.3 132.42,173.83 133.09,172.14C131.54,171.17 129.8,170.64 127.99,170.44C128.18,169.07 128.37,167.69 128.57,166.32C124.14,162.71 119.42,169.99 122.1,173.82Z" style="fill:rgb(252,253,222);fill-rule:nonzero;"/>
        </g>
        <g transform="matrix(4.166667,0,0,4.166667,0,0)">
            <path d="M141,220.53C145.47,218.32 149.36,215.14 153.13,211.91C153.66,215.43 155.15,218.7 156.66,221.89C148.62,222.29 140.61,223.78 132.55,222.89C133.72,222.05 134.91,221.23 136.11,220.41C137.71,220.68 139.43,221.32 141,220.53Z" style="fill:rgb(252,253,222);fill-rule:nonzero;"/>
        </g>
        <g transform="matrix(4.166667,0,0,4.166667,0,0)">
            <path d="M132.55,184.79C135.37,183.31 138.04,181.39 139.82,178.7C142.11,179.36 144.13,180.62 145.98,182.09C145.83,184.97 146.26,188.18 144.54,190.7C142.45,192.94 139.15,194.08 136.13,193.45C134.17,192.59 132.85,190.84 131.43,189.33C131.8,187.81 132.17,186.3 132.55,184.79Z" style="fill:rgb(236,28,52);fill-rule:nonzero;"/>
        </g>
    </g>
</svg>
