<?xml version="1.0" encoding="UTF-8" standalone="no"?>
<!DOCTYPE svg PUBLIC "-//W3C//DTD SVG 1.1//EN" "http://www.w3.org/Graphics/SVG/1.1/DTD/svg11.dtd">
<svg width="100%" height="100%" viewBox="0 0 630 639" version="1.1" xmlns="http://www.w3.org/2000/svg" xmlns:xlink="http://www.w3.org/1999/xlink" xml:space="preserve" xmlns:serif="http://www.serif.com/" style="fill-rule:evenodd;clip-rule:evenodd;stroke-linejoin:round;stroke-miterlimit:2;">
    <g transform="matrix(1,0,0,1,-934.656986,-3977.583333)">
        <g transform="matrix(4.166667,0,0,4.166667,0,0)">
            <path d="M280.3,988.35C286.93,980.21 296.23,973.71 306.82,972.3C313.68,971.12 321.25,971.83 326.99,976.08C329.78,978.55 331.98,981.6 334.38,984.44C340.03,984.87 346.06,985.69 350.58,989.43C355.98,993.99 362.19,998.52 364.29,1005.64C367.37,1016.25 367.11,1027.84 363.22,1038.21C360.95,1049.2 351.85,1058.25 341.15,1061.29C335.67,1063.49 329.68,1062.88 323.92,1062.96C321.21,1063.09 319.02,1061.32 316.62,1060.38C314.07,1063.08 311.54,1065.84 308.23,1067.64C319.85,1066.16 331.69,1067.6 342.84,1071.06C350.69,1073.55 355.89,1080.63 359.2,1087.81C361.71,1092.72 361.94,1098.66 360.07,1103.83C359.43,1106.15 355.55,1105.3 355.49,1103.03C355.52,1100.04 356.56,1097.02 355.73,1094.07C354.38,1088.86 351.42,1084.2 347.72,1080.35C343.22,1076.18 336.95,1075.11 331.17,1073.89C324.64,1072.5 317.93,1072.6 311.3,1073.08C307.12,1076.4 303.12,1080.31 297.91,1081.96C291.38,1083.91 284.44,1082.93 277.79,1082.18C277.41,1081.16 277.03,1080.18 276.65,1079.19C274.28,1080.26 271.73,1081.13 269.74,1082.86C268.52,1084.69 268.25,1086.95 267.67,1089.05C264.68,1091.53 261.03,1092.81 257.28,1093.62C253.69,1096.62 252.35,1101.15 251.92,1105.65C251.99,1106.98 250.6,1107.9 249.38,1107.73C248.47,1106.88 247.67,1105.96 246.85,1105.06C247.13,1100.81 247.96,1096.55 250.51,1093.04C245.8,1092.58 240.9,1090.98 237.97,1087.03C233.01,1082.05 232.52,1074.57 233.05,1067.96C233.25,1063.56 235.85,1059.82 238.09,1056.21C242.5,1049.56 250.18,1046.4 256.95,1042.75C259.91,1041.21 261.77,1038.13 262.28,1034.9C263.01,1029.9 264.48,1025.04 266.42,1020.38C267.54,1017.77 269.87,1015.97 271.28,1013.55C271.56,1009.66 271.8,1005.76 272.91,1002C273.81,996.73 277.57,992.73 280.3,988.35M300.91,979.55C296.51,980.71 293.12,983.91 289.58,986.6C285.13,989.92 282.56,994.94 279.28,999.29C277.78,1002.75 277.45,1006.59 276.17,1010.15C280.51,1009.06 284.47,1006.63 288.99,1006.29C290.36,1006.02 292.03,1006.27 293.04,1005.11C296.39,1001.78 299.46,998.16 303.01,995.04C309.85,989.03 318.7,986.18 327.54,984.76C325.68,982.55 324,979.87 321.11,978.93C314.67,976.05 307.39,977.58 300.91,979.55M312.37,995.41C307.44,997.67 303.95,1001.93 300.06,1005.54C301.27,1005.55 302.49,1005.58 303.71,1005.62C310.62,1001.24 318.56,998.79 326.56,997.35C331.54,996.27 336.67,997.36 341.07,999.84C344.53,1001.23 346.21,1004.76 348.64,1007.36C353.8,1012.46 353.22,1020.33 353.82,1027C354.55,1034.32 349.89,1041.27 343.54,1044.54C341.75,1045.52 340.45,1043.45 339.37,1042.41C341.01,1040.07 343.11,1038.13 345.18,1036.18C348.73,1032.96 349.14,1028.05 348.59,1023.57C348.41,1020.59 348.09,1017.57 347.17,1014.74C345.7,1012.05 343.48,1009.87 341.64,1007.45C341.63,1007.43 341.59,1007.39 341.58,1007.37C337.77,1003.07 331.37,1001.43 325.91,1003.15C322.39,1004.2 318.24,1004.36 315.34,1006.71C314.42,1005.46 311.71,1006.66 312.48,1008.21C309.86,1007.85 307.79,1009.76 305.64,1010.9C304.05,1011.59 302.44,1012.24 300.83,1012.87C300.56,1012.22 300.02,1010.93 299.74,1010.28C299.38,1010.48 298.64,1010.89 298.28,1011.1C291.48,1011.27 284.54,1012.4 278.44,1015.53C274.78,1018.45 271.83,1022.31 269.6,1026.4C267.64,1031.31 268.01,1036.92 265.49,1041.63C263.36,1044.71 260.95,1047.97 257.26,1049.25C252.43,1051.03 247.92,1053.77 244.17,1057.32C240.41,1061.66 237.24,1067.14 238.04,1073.12C238.04,1078.32 240.89,1083.24 245.11,1086.16C250.64,1087.96 256.83,1088.27 262.4,1086.43C260.3,1085.98 258.14,1086.24 256.02,1086.05C254.49,1085.13 254.81,1083.17 254.42,1081.72C257.72,1080.24 261.34,1080.13 264.89,1080.02C261.34,1076.06 255.34,1077.88 251.26,1074.87C246.66,1072.49 248.65,1064.52 253.38,1063.56C258.67,1062.49 264,1060.6 269.46,1061.36C273.43,1062.12 277.16,1063.74 281.09,1064.64C282.91,1063 285.81,1061.56 286.04,1058.88C287.56,1057.24 288.31,1053.83 290.93,1053.87C294.82,1055.46 292.24,1060.01 290.95,1062.6C289.83,1063.72 288.74,1064.87 287.66,1066.04C293.84,1066.22 300.24,1065.75 305.78,1062.76C309.73,1060.96 312.09,1057.18 314.58,1053.83C316.2,1054.38 317.84,1054.9 319.49,1055.42C322.26,1058.33 326.43,1057.33 330.02,1057.39C338.93,1057.64 348.08,1053.62 353.53,1046.47C357.45,1041.78 358.34,1035.52 360.35,1029.92C361.72,1021.86 361.88,1013.11 358.52,1005.49C356.54,1001.02 352.32,998.36 348.92,995.09C345.76,991.9 341.14,990.89 336.87,990.21C328.46,989.83 319.8,991.29 312.37,995.41M253.53,1069.37C256.2,1071.61 259.88,1071.44 263.1,1072.27C265.67,1072.54 267.18,1074.88 268.88,1076.55C272.98,1074.86 277,1072.96 281.24,1071.64C277.2,1070.14 273.28,1068.3 269.14,1067.13C263.82,1066.29 258.65,1068.23 253.53,1069.37Z" style="fill:rgb(61,37,97);fill-rule:nonzero;"/>
        </g>
        <g transform="matrix(4.166667,0,0,4.166667,0,0)">
            <path d="M278.84,1044.26C271.89,1034.18 281.12,1018.94 292.99,1019.09C297.86,1018.47 302.86,1020.26 306.42,1023.61C310.5,1028.22 311.85,1035.29 309.09,1040.91C307.16,1045.71 302.6,1048.75 298.01,1050.69C295.2,1051.19 292.34,1051.3 289.5,1051.43C285.33,1050.14 281.05,1048.27 278.84,1044.26M282.44,1039.74C283.75,1043.47 287.57,1045.05 291.06,1046.09C295.06,1045.42 299.73,1044.9 302.34,1041.38C305.38,1038.26 306.42,1032.93 303.84,1029.25C301.39,1025.43 296.38,1023.94 292.07,1024.83C285.35,1025.63 279.49,1033.11 282.44,1039.74Z" style="fill:rgb(61,37,97);fill-rule:nonzero;"/>
        </g>
        <g transform="matrix(4.166667,0,0,4.166667,0,0)">
            <path d="M286.83,1038.89C283.88,1033.38 289.99,1026.72 295.7,1027.89C295.65,1029.25 295.6,1030.64 295.53,1032.03C294.23,1033.21 293.16,1034.59 292.11,1035.99C294.46,1035.77 299.2,1034.14 299.39,1037.97C298.55,1043.79 288.87,1044.34 286.83,1038.89Z" style="fill:rgb(61,37,97);fill-rule:nonzero;"/>
        </g>
        <g transform="matrix(4.166667,0,0,4.166667,0,0)">
            <path d="M224.34,1105.67C224.39,1055.32 224.21,1004.97 224.43,954.62C274.72,954.73 325.02,954.64 375.32,954.67C375.39,1004.96 375.25,1055.26 375.39,1105.56C334.23,1105.79 293.07,1105.62 251.92,1105.65C252.35,1101.15 253.69,1096.62 257.28,1093.62C261.03,1092.81 264.68,1091.53 267.67,1089.05C268.25,1086.95 268.52,1084.69 269.74,1082.86C271.73,1081.13 274.28,1080.26 276.65,1079.19C277.03,1080.18 277.41,1081.16 277.79,1082.18C284.44,1082.93 291.38,1083.91 297.91,1081.96C303.12,1080.31 307.12,1076.4 311.3,1073.08C317.93,1072.6 324.64,1072.5 331.17,1073.89C336.95,1075.11 343.22,1076.18 347.72,1080.35C351.42,1084.2 354.38,1088.86 355.73,1094.07C356.56,1097.02 355.52,1100.04 355.49,1103.03C355.55,1105.3 359.43,1106.15 360.07,1103.83C361.94,1098.66 361.71,1092.72 359.2,1087.81C355.89,1080.63 350.69,1073.55 342.84,1071.06C331.69,1067.6 319.85,1066.16 308.23,1067.64C311.54,1065.84 314.07,1063.08 316.62,1060.38C319.02,1061.32 321.21,1063.09 323.92,1062.96C329.68,1062.88 335.67,1063.49 341.15,1061.29C351.85,1058.25 360.95,1049.2 363.22,1038.21C367.11,1027.84 367.37,1016.25 364.29,1005.64C362.19,998.52 355.98,993.99 350.58,989.43C346.06,985.69 340.03,984.87 334.38,984.44C331.98,981.6 329.78,978.55 326.99,976.08C321.25,971.83 313.68,971.12 306.82,972.3C296.23,973.71 286.93,980.21 280.3,988.35C277.57,992.73 273.81,996.73 272.91,1002C271.8,1005.76 271.56,1009.66 271.28,1013.55C269.87,1015.97 267.54,1017.77 266.42,1020.38C264.48,1025.04 263.01,1029.9 262.28,1034.9C261.77,1038.13 259.91,1041.21 256.95,1042.75C250.18,1046.4 242.5,1049.56 238.09,1056.21C235.85,1059.82 233.25,1063.56 233.05,1067.96C232.52,1074.57 233.01,1082.05 237.97,1087.03C240.9,1090.98 245.8,1092.58 250.51,1093.04C247.96,1096.55 247.13,1100.81 246.85,1105.06L246.77,1105.71C239.29,1105.62 231.82,1105.67 224.34,1105.67Z" style="fill:rgb(252,253,222);fill-rule:nonzero;"/>
        </g>
        <g transform="matrix(4.166667,0,0,4.166667,0,0)">
            <path d="M300.91,979.55C307.39,977.58 314.67,976.05 321.11,978.93C324,979.87 325.68,982.55 327.54,984.76C318.7,986.18 309.85,989.03 303.01,995.04C299.46,998.16 296.39,1001.78 293.04,1005.11C292.03,1006.27 290.36,1006.02 288.99,1006.29C284.47,1006.63 280.51,1009.06 276.17,1010.15C277.45,1006.59 277.78,1002.75 279.28,999.29C282.56,994.94 285.13,989.92 289.58,986.6C293.12,983.91 296.51,980.71 300.91,979.55Z" style="fill:rgb(252,253,222);fill-rule:nonzero;"/>
        </g>
        <g transform="matrix(4.166667,0,0,4.166667,0,0)">
            <path d="M312.37,995.41C319.8,991.29 328.46,989.83 336.87,990.21C341.14,990.89 345.76,991.9 348.92,995.09C352.32,998.36 356.54,1001.02 358.52,1005.49C361.88,1013.11 361.72,1021.86 360.35,1029.92C358.34,1035.52 357.45,1041.78 353.53,1046.47C348.08,1053.62 338.93,1057.64 330.02,1057.39C326.43,1057.33 322.26,1058.33 319.49,1055.42C317.84,1054.9 316.2,1054.38 314.58,1053.83C312.09,1057.18 309.73,1060.96 305.78,1062.76C300.24,1065.75 293.84,1066.22 287.66,1066.04C288.74,1064.87 289.83,1063.72 290.95,1062.6C293.49,1062.55 296.11,1062.9 298.6,1062.27C300.35,1061.04 301.54,1059 301.92,1056.93C302.24,1054.16 299.65,1052.47 298.01,1050.69C302.6,1048.75 307.16,1045.71 309.09,1040.91C311.85,1035.29 310.5,1028.22 306.42,1023.61C302.86,1020.26 297.86,1018.47 292.99,1019.09C281.12,1018.94 271.89,1034.18 278.84,1044.26C281.05,1048.27 285.33,1050.14 289.5,1051.43C288.81,1051.56 287.44,1051.8 286.76,1051.93C286.41,1054.23 286.18,1056.54 286.04,1058.88C285.81,1061.56 282.91,1063 281.09,1064.64C277.16,1063.74 273.43,1062.12 269.46,1061.36C264,1060.6 258.67,1062.49 253.38,1063.56C248.65,1064.52 246.66,1072.49 251.26,1074.87C255.34,1077.88 261.34,1076.06 264.89,1080.02C261.34,1080.13 257.72,1080.24 254.42,1081.72C254.81,1083.17 254.49,1085.13 256.02,1086.05C258.14,1086.24 260.3,1085.98 262.4,1086.43C256.83,1088.27 250.64,1087.96 245.11,1086.16C240.89,1083.24 238.04,1078.32 238.04,1073.12C237.24,1067.14 240.41,1061.66 244.17,1057.32C247.92,1053.77 252.43,1051.03 257.26,1049.25C260.95,1047.97 263.36,1044.71 265.49,1041.63C268.01,1036.92 267.64,1031.31 269.6,1026.4C271.83,1022.31 274.78,1018.45 278.44,1015.53C284.54,1012.4 291.48,1011.27 298.28,1011.1C298.64,1010.89 299.38,1010.48 299.74,1010.28C300.02,1010.93 300.56,1012.22 300.83,1012.87C302.44,1012.24 304.05,1011.59 305.64,1010.9C311.66,1017.59 313.78,1026.66 319.56,1033.5C321.46,1036.05 320.82,1040.22 323.98,1041.86C328.69,1044.24 334.44,1044.06 339.37,1042.41C340.45,1043.45 341.75,1045.52 343.54,1044.54C349.89,1041.27 354.55,1034.32 353.82,1027C353.22,1020.33 353.8,1012.46 348.64,1007.36C346.21,1004.76 344.53,1001.23 341.07,999.84C336.67,997.36 331.54,996.27 326.56,997.35C318.56,998.79 310.62,1001.24 303.71,1005.62C302.49,1005.58 301.27,1005.55 300.06,1005.54C303.95,1001.93 307.44,997.67 312.37,995.41Z" style="fill:rgb(252,253,222);fill-rule:nonzero;"/>
        </g>
        <g transform="matrix(4.166667,0,0,4.166667,0,0)">
            <path d="M312.48,1008.21C311.71,1006.66 314.42,1005.46 315.34,1006.71C314.66,1007.61 313.7,1008.46 312.48,1008.21Z" style="fill:rgb(252,253,222);fill-rule:nonzero;"/>
        </g>
        <g transform="matrix(4.166667,0,0,4.166667,0,0)">
            <path d="M333.12,1024.42C334.51,1024.56 334.75,1025.23 333.85,1026.43C332.46,1026.26 332.22,1025.59 333.12,1024.42Z" style="fill:rgb(252,253,222);fill-rule:nonzero;"/>
        </g>
        <g transform="matrix(4.166667,0,0,4.166667,0,0)">
            <path d="M348.59,1023.57C349.14,1028.05 348.73,1032.96 345.18,1036.18C347.27,1032.3 348.33,1027.95 348.59,1023.57Z" style="fill:rgb(252,253,222);fill-rule:nonzero;"/>
        </g>
        <g transform="matrix(4.166667,0,0,4.166667,0,0)">
            <path d="M282.44,1039.74C279.49,1033.11 285.35,1025.63 292.07,1024.83C296.38,1023.94 301.39,1025.43 303.84,1029.25C306.42,1032.93 305.38,1038.26 302.34,1041.38C299.73,1044.9 295.06,1045.42 291.06,1046.09C287.57,1045.05 283.75,1043.47 282.44,1039.74M286.83,1038.89C288.87,1044.34 298.55,1043.79 299.39,1037.97C299.2,1034.14 294.46,1035.77 292.11,1035.99C293.16,1034.59 294.23,1033.21 295.53,1032.03C295.6,1030.64 295.65,1029.25 295.7,1027.89C289.99,1026.72 283.88,1033.38 286.83,1038.89Z" style="fill:rgb(252,253,222);fill-rule:nonzero;"/>
        </g>
        <g transform="matrix(4.166667,0,0,4.166667,0,0)">
            <path d="M253.53,1069.37C258.65,1068.23 263.82,1066.29 269.14,1067.13C273.28,1068.3 277.2,1070.14 281.24,1071.64C277,1072.96 272.98,1074.86 268.88,1076.55C267.18,1074.88 265.67,1072.54 263.1,1072.27C259.88,1071.44 256.2,1071.61 253.53,1069.37Z" style="fill:rgb(252,253,222);fill-rule:nonzero;"/>
        </g>
        <g transform="matrix(4.166667,0,0,4.166667,0,0)">
            <path d="M315.34,1006.71C318.24,1004.36 322.39,1004.2 325.91,1003.15C331.37,1001.43 337.77,1003.07 341.58,1007.37C341.59,1007.39 341.63,1007.43 341.64,1007.45C343.48,1009.87 345.7,1012.05 347.17,1014.74C348.09,1017.57 348.41,1020.59 348.59,1023.57C348.33,1027.95 347.27,1032.3 345.18,1036.18C343.11,1038.13 341.01,1040.07 339.37,1042.41C334.44,1044.06 328.69,1044.24 323.98,1041.86C320.82,1040.22 321.46,1036.05 319.56,1033.5C313.78,1026.66 311.66,1017.59 305.64,1010.9C307.79,1009.76 309.86,1007.85 312.48,1008.21C313.7,1008.46 314.66,1007.61 315.34,1006.71M333.12,1024.42C332.22,1025.59 332.46,1026.26 333.85,1026.43C334.75,1025.23 334.51,1024.56 333.12,1024.42Z" style="fill:rgb(236,28,52);fill-rule:nonzero;"/>
        </g>
        <g transform="matrix(4.166667,0,0,4.166667,0,0)">
            <path d="M289.5,1051.43C292.34,1051.3 295.2,1051.19 298.01,1050.69C299.65,1052.47 302.24,1054.16 301.92,1056.93C301.54,1059 300.35,1061.04 298.6,1062.27C296.11,1062.9 293.49,1062.55 290.95,1062.6C292.24,1060.01 294.82,1055.46 290.93,1053.87C288.31,1053.83 287.56,1057.24 286.04,1058.88C286.18,1056.54 286.41,1054.23 286.76,1051.93C287.44,1051.8 288.81,1051.56 289.5,1051.43Z" style="fill:rgb(236,28,52);fill-rule:nonzero;"/>
        </g>
        <g transform="matrix(4.166667,0,0,4.166667,0,0)">
            <path d="M341.58,1007.37C341.59,1007.39 341.63,1007.43 341.64,1007.45C341.63,1007.43 341.59,1007.39 341.58,1007.37Z" style="fill:rgb(180,94,111);fill-rule:nonzero;"/>
        </g>
    </g>
</svg>
