<?xml version="1.0" encoding="UTF-8" standalone="no"?>
<!DOCTYPE svg PUBLIC "-//W3C//DTD SVG 1.1//EN" "http://www.w3.org/Graphics/SVG/1.1/DTD/svg11.dtd">
<svg width="100%" height="100%" viewBox="0 0 630 637" version="1.1" xmlns="http://www.w3.org/2000/svg" xmlns:xlink="http://www.w3.org/1999/xlink" xml:space="preserve" xmlns:serif="http://www.serif.com/" style="fill-rule:evenodd;clip-rule:evenodd;stroke-linejoin:round;stroke-miterlimit:2;">
    <g transform="matrix(1,0,0,1,-934.5,-1054.133269)">
        <g transform="matrix(4.166667,0,0,4.166667,0,0)">
            <path d="M287.82,258.1C289.84,257.14 291.81,255.99 293.98,255.38C296.95,254.87 299.73,256.22 302.16,257.75C304.05,256.96 305.94,255.6 308.1,256C311,256.61 313.42,258.44 315.96,259.87C320.24,259.62 326.86,260.58 327.2,265.96C327.5,268.48 329.26,270.46 329.86,272.88C329.47,275.68 328.16,278.24 327.06,280.82C329.08,283.26 332.42,285.39 332.1,288.98C332.25,292.33 329.77,294.92 328.36,297.75C330.82,301.72 329.05,306.35 326.29,309.64C327.04,311.65 328.37,313.7 327.79,315.95C327.4,318.64 325.27,320.47 323.4,322.22C323.72,323.85 324.07,325.48 324.18,327.14C323.6,329.2 322.36,330.97 321.54,332.94C321.52,337.3 323.16,341.55 322.71,345.95C322.25,351.54 321.95,357.19 320.61,362.66C319.03,370.44 313.31,376.99 306.34,380.55C308.71,383.17 311.56,385.33 313.81,388.06C316.15,391.47 317.65,395.39 320.17,398.7C321.47,400.19 321.69,402.12 321.45,404.02C319.88,405.2 318.06,404.24 316.7,403.27C314.31,400.64 312.41,397.64 310.29,394.81C304.49,395.96 298.75,397.32 292.92,398.27C288.88,399.14 284.42,400.29 282.05,404C280.65,407.25 276.83,405.59 276.01,402.85C276.53,395.93 280.6,389.89 284.86,384.65C279.16,384.11 274.21,381.08 268.78,379.61C264.05,379.13 258.63,379.7 254.86,376.17C250.36,371.69 249.75,364.07 252.65,358.56C254.17,355.47 258.08,354.72 259.84,351.84C263.4,345.66 263.28,338.28 265.87,331.77C264.84,329.93 263.34,328.15 263.38,325.93C263.32,323.85 264.55,322.06 265.36,320.24C263.5,319.03 261.14,317.97 260.55,315.6C259.33,312.3 260.67,309.01 261.72,305.9C260.43,303.98 258.38,302.42 257.95,300.03C257.23,297.49 259.22,295.42 260.37,293.4C257.7,289.89 257.72,285.19 260.26,281.64C257.59,275.96 261.38,267.86 268.04,267.59C269.76,263.53 272.15,259.44 276.19,257.32C279.99,255.72 284.05,257.16 287.82,258.1M270.77,333.86C268.32,339.35 268.29,345.53 266,351.09C265.12,354.7 262.41,357.36 259.45,359.4C255.53,362.08 255.05,368.24 258.45,371.56C260.6,373.89 263.98,373.59 266.86,373.8C271.69,373.81 276.1,375.95 280.71,377.09C284.95,374.09 286.34,368.93 289.93,365.4C290.72,366.58 292.21,367.47 292.34,369.01C292.24,370.72 291.5,372.31 290.97,373.92C289.67,375.41 288.36,376.88 287.06,378.37C294.14,378.64 301.63,377.79 307.57,373.6C311.67,370.19 314.82,365.47 315.72,360.15C316.91,352.22 317.95,344.08 316.47,336.12C316.13,332.97 312.93,331.47 310.83,329.56C306.27,332 300.99,331.18 296.69,328.61C295.1,329.61 293.5,330.57 291.88,331.51C297.46,331.22 303.16,334.21 305.5,339.38C309.52,347.46 304.75,357.76 297.01,361.6C295.26,362.06 293.54,362.63 291.83,363.21C286.23,364.02 280.4,361.49 277.15,356.88C274.67,352.66 274.43,347.3 276.38,342.82C278.18,337.02 283.45,333.33 289.06,331.69C287.18,330.64 285.31,329.57 283.41,328.55C279.7,331.47 274.95,331.95 270.77,333.86M289.41,337.5C282.61,339.24 277.6,347.83 281.87,354.15C287.54,360.94 299.73,356.74 301.42,348.5C302.29,345.23 301.13,341.55 298.55,339.37C296.23,336.85 292.5,337.02 289.41,337.5Z" style="fill:rgb(61,37,97);fill-rule:nonzero;"/>
        </g>
        <g transform="matrix(4.166667,0,0,4.166667,0,0)">
            <path d="M286.61,341.6C288.07,339.57 292.39,340.13 292.33,342.99C291.75,345.1 289.49,346.47 289.59,348.85C291.42,348.88 295.69,347.87 295.2,350.92C295.22,355.5 288.41,355.88 286.37,352.57C283.56,349.55 284.36,344.69 286.61,341.6Z" style="fill:rgb(61,37,97);fill-rule:nonzero;"/>
        </g>
        <g transform="matrix(4.166667,0,0,4.166667,0,0)">
            <path d="M224.29,253.05C274.64,252.93 324.98,253.04 375.33,253C375.33,303.33 375.35,353.67 375.32,404C357.36,404.01 339.41,403.97 321.45,404.02C321.69,402.12 321.47,400.19 320.17,398.7C317.65,395.39 316.15,391.47 313.81,388.06C311.56,385.33 308.71,383.17 306.34,380.55C313.31,376.99 319.03,370.44 320.61,362.66C321.95,357.19 322.25,351.54 322.71,345.95C323.16,341.55 321.52,337.3 321.54,332.94C322.36,330.97 323.6,329.2 324.18,327.14C324.07,325.48 323.72,323.85 323.4,322.22C325.27,320.47 327.4,318.64 327.79,315.95C328.37,313.7 327.04,311.65 326.29,309.64C329.05,306.35 330.82,301.72 328.36,297.75C329.77,294.92 332.25,292.33 332.1,288.98C332.42,285.39 329.08,283.26 327.06,280.82C328.16,278.24 329.47,275.68 329.86,272.88C329.26,270.46 327.5,268.48 327.2,265.96C326.86,260.58 320.24,259.62 315.96,259.87C313.42,258.44 311,256.61 308.1,256C305.94,255.6 304.05,256.96 302.16,257.75C299.73,256.22 296.95,254.87 293.98,255.38C291.81,255.99 289.84,257.14 287.82,258.1C284.05,257.16 279.99,255.72 276.19,257.32C272.15,259.44 269.76,263.53 268.04,267.59C261.38,267.86 257.59,275.96 260.26,281.64C257.72,285.19 257.7,289.89 260.37,293.4C259.22,295.42 257.23,297.49 257.95,300.03C258.38,302.42 260.43,303.98 261.72,305.9C260.67,309.01 259.33,312.3 260.55,315.6C261.14,317.97 263.5,319.03 265.36,320.24C264.55,322.06 263.32,323.85 263.38,325.93C263.34,328.15 264.84,329.93 265.87,331.77C263.28,338.28 263.4,345.66 259.84,351.84C258.08,354.72 254.17,355.47 252.65,358.56C249.75,364.07 250.36,371.69 254.86,376.17C258.63,379.7 264.05,379.13 268.78,379.61C274.21,381.08 279.16,384.11 284.86,384.65C280.6,389.89 276.53,395.93 276.01,402.85L275.94,403.9C258.72,404.08 241.5,404.04 224.28,403.92C224.38,353.63 224.35,303.34 224.29,253.05Z" style="fill:rgb(252,253,222);fill-rule:nonzero;"/>
        </g>
        <g transform="matrix(4.166667,0,0,4.166667,0,0)">
            <path d="M270.77,333.86C274.95,331.95 279.7,331.47 283.41,328.55C285.31,329.57 287.18,330.64 289.06,331.69C283.45,333.33 278.18,337.02 276.38,342.82C274.43,347.3 274.67,352.66 277.15,356.88C280.4,361.49 286.23,364.02 291.83,363.21C291.2,363.94 290.57,364.67 289.93,365.4C286.34,368.93 284.95,374.09 280.71,377.09C276.1,375.95 271.69,373.81 266.86,373.8C263.98,373.59 260.6,373.89 258.45,371.56C255.05,368.24 255.53,362.08 259.45,359.4C262.41,357.36 265.12,354.7 266,351.09C268.29,345.53 268.32,339.35 270.77,333.86Z" style="fill:rgb(252,253,222);fill-rule:nonzero;"/>
        </g>
        <g transform="matrix(4.166667,0,0,4.166667,0,0)">
            <path d="M291.88,331.51C293.5,330.57 295.1,329.61 296.69,328.61C300.99,331.18 306.27,332 310.83,329.56C312.93,331.47 316.13,332.97 316.47,336.12C317.95,344.08 316.91,352.22 315.72,360.15C314.82,365.47 311.67,370.19 307.57,373.6C301.63,377.79 294.14,378.64 287.06,378.37C288.36,376.88 289.67,375.41 290.97,373.92C293.84,375.32 297.16,376.24 300.34,375.34C304.86,373.21 307.53,367.34 305.26,362.69C303.3,360.07 299.7,360.74 297.01,361.6C304.75,357.76 309.52,347.46 305.5,339.38C303.16,334.21 297.46,331.22 291.88,331.51Z" style="fill:rgb(252,253,222);fill-rule:nonzero;"/>
        </g>
        <g transform="matrix(4.166667,0,0,4.166667,0,0)">
            <path d="M289.41,337.5C292.5,337.02 296.23,336.85 298.55,339.37C301.13,341.55 302.29,345.23 301.42,348.5C299.73,356.74 287.54,360.94 281.87,354.15C277.6,347.83 282.61,339.24 289.41,337.5M286.61,341.6C284.36,344.69 283.56,349.55 286.37,352.57C288.41,355.88 295.22,355.5 295.2,350.92C295.69,347.87 291.42,348.88 289.59,348.85C289.49,346.47 291.75,345.1 292.33,342.99C292.39,340.13 288.07,339.57 286.61,341.6Z" style="fill:rgb(252,253,222);fill-rule:nonzero;"/>
        </g>
        <g transform="matrix(4.166667,0,0,4.166667,0,0)">
            <path d="M292.92,398.27C298.75,397.32 304.49,395.96 310.29,394.81C312.41,397.64 314.31,400.64 316.7,403.27L317.32,403.97C305.56,404.04 293.81,403.98 282.05,404C284.42,400.29 288.88,399.14 292.92,398.27Z" style="fill:rgb(252,253,222);fill-rule:nonzero;"/>
        </g>
        <g transform="matrix(4.166667,0,0,4.166667,0,0)">
            <path d="M297.01,361.6C299.7,360.74 303.3,360.07 305.26,362.69C307.53,367.34 304.86,373.21 300.34,375.34C297.16,376.24 293.84,375.32 290.97,373.92C291.5,372.31 292.24,370.72 292.34,369.01C292.21,367.47 290.72,366.58 289.93,365.4C290.57,364.67 291.2,363.94 291.83,363.21C293.54,362.63 295.26,362.06 297.01,361.6Z" style="fill:rgb(236,28,52);fill-rule:nonzero;"/>
        </g>
    </g>
</svg>
