<?xml version="1.0" encoding="UTF-8" standalone="no"?>
<!DOCTYPE svg PUBLIC "-//W3C//DTD SVG 1.1//EN" "http://www.w3.org/Graphics/SVG/1.1/DTD/svg11.dtd">
<svg width="100%" height="100%" viewBox="0 0 630 638" version="1.1" xmlns="http://www.w3.org/2000/svg" xmlns:xlink="http://www.w3.org/1999/xlink" xml:space="preserve" xmlns:serif="http://www.serif.com/" style="fill-rule:evenodd;clip-rule:evenodd;stroke-linejoin:round;stroke-miterlimit:2;">
    <g transform="matrix(1,0,0,1,-934.671806,-3234.672181)">
        <g transform="matrix(4.166667,0,0,4.166667,0,0)">
            <path d="M319.87,787.79C323.07,785.95 325.82,789.95 325.08,792.9C323.95,805.92 325.88,818.98 324.84,832.01C323.86,842.14 324.21,852.35 323.17,862.49C322.24,872.29 322.6,882.52 318.69,891.76C315.84,896.93 311.52,901.27 306.29,904.04C309.72,907.47 313.97,910.36 315.95,914.97C317.35,918.17 319.61,920.87 321.29,923.91C322.03,926.43 319.76,929.04 317.36,927.28C314.66,924.65 312.91,921.27 310.45,918.46C304.82,918.69 299.46,920.8 293.87,921.43C290.08,922.3 285.55,922.93 283.06,926.22C282.13,927.36 281.15,928.48 279.94,929.35C277.95,929.14 276.98,927.26 275.77,925.96C276.95,919.21 280.47,913.19 284.82,908C277.85,907.48 272.05,902.52 265,902.66C260.66,902.8 255.85,901.46 253.31,897.71C250.48,893.15 250.02,887.11 252.45,882.29C253.88,878.86 258.13,878.07 259.99,874.99C261.65,872.48 261.81,869.41 262.28,866.55C258.16,867.49 254,868.38 250.06,869.95C248.23,870.44 246.18,871.55 244.35,870.52C241.84,869.63 242.1,865.23 244.97,865.06C255.61,863.04 263.05,854.43 272.06,849.15C285.41,839.81 295.64,825.72 298.97,809.63C300.43,809.82 301.87,810.17 303.31,810.5C303.72,814.97 303.84,819.55 305.51,823.79C312.08,812.56 315.73,800.02 319.87,787.79M307.78,831.76C306.32,834.18 303.37,834.07 301,833.39C300.99,830.46 300.79,827.54 300.17,824.69C301.22,822.3 297.15,823.99 299.45,825.11C297.51,827.18 297.2,830.25 295.34,832.4C291.9,836.32 289.12,840.78 285.4,844.45C281.59,848.65 276.7,851.69 272.91,855.91C278.35,854.14 283.11,850.85 288.08,848.08C291.49,846.42 293.56,841.69 297.96,842.86C297.83,844.57 297.99,846.45 296.97,847.96C294.35,852.54 291.34,856.87 288.67,861.42C298.27,859.54 306.74,854.45 315.29,849.96C316.35,849.67 317.44,849.49 318.55,849.43C318.59,847.58 318.68,845.75 318.62,843.93C318.66,843.48 318.72,842.59 318.76,842.14C319.17,830.97 319.52,819.78 318.99,808.61C315.08,816.25 312.09,824.35 307.78,831.76M309.26,859.65C311.51,860.95 315.1,860.36 316.08,863.31C316.63,862.87 317.19,862.44 317.75,862.02C318.04,859.34 318.27,856.65 318.57,853.98C315.71,856.26 312.5,857.99 309.26,859.65M285.03,856.36C279.6,859.33 274.05,862.1 268.21,864.18C267.04,868.64 266.94,873.47 264.68,877.6C263.25,880.17 260.68,881.67 258.5,883.51C255.29,886.61 255.42,892.26 258.78,895.22C261.33,897.47 264.96,896.81 268.08,897.22C272.28,897.32 276.05,899.42 280.12,900.22C285.19,898.41 285.85,892.15 289.78,889.08C290.4,889.56 291.64,890.52 292.26,890.99C292.28,891.78 292.31,893.36 292.33,894.15C290.98,896.96 289.24,899.56 287.01,901.76C294.26,901.95 301.96,901.1 307.96,896.65C312.26,892.92 315.31,887.73 315.98,882.03C316.7,876.12 317.47,870.19 317.57,864.24C316.61,864.98 315.65,865.73 314.68,866.48C310.62,867.12 306.96,865.13 304.7,861.83C296.94,865.17 288.73,867.33 280.84,870.34C278.44,871.33 277.06,867.69 278.22,866.04C280.46,862.79 283.04,859.78 285.03,856.36Z" style="fill:rgb(61,37,97);fill-rule:nonzero;"/>
        </g>
        <g transform="matrix(4.166667,0,0,4.166667,0,0)">
            <path d="M279.43,875.76C287.06,873.79 294.5,871.17 302.05,868.9C303.52,868.3 305.09,868.67 306.6,868.92C306.65,870.9 306.73,872.89 306.82,874.9C304.52,878.46 304.21,883.6 299.91,885.53C298.88,885.97 297.86,886.41 296.83,886.86C291,889.33 281.52,888.81 279.35,881.65C276.76,880.77 273.62,879.1 273.64,875.95C272.83,873.9 275.76,871.99 277.2,873.68C277.96,874.34 278.7,875.03 279.43,875.76M296.94,876.4C296.78,878.02 296.76,879.7 295.99,881.21C293.67,882.08 292.25,879.99 291.05,878.42C288.71,878.99 286.37,879.58 284.09,880.38C289.46,884.66 299.42,882.64 300.67,875.16C299.42,875.55 298.17,875.96 296.94,876.4Z" style="fill:rgb(61,37,97);fill-rule:nonzero;"/>
        </g>
        <g transform="matrix(4.166667,0,0,4.166667,0,0)">
            <path d="M224.34,776.33C274.68,776.39 325.03,776.23 375.37,776.41C375.28,826.72 375.37,877.03 375.32,927.33C357.46,927.36 339.59,927.26 321.72,927.39C321.69,926.2 321.54,925.04 321.29,923.91C319.61,920.87 317.35,918.17 315.95,914.97C313.97,910.36 309.72,907.47 306.29,904.04C311.52,901.27 315.84,896.93 318.69,891.76C322.6,882.52 322.24,872.29 323.17,862.49C324.21,852.35 323.86,842.14 324.84,832.01C325.88,818.98 323.95,805.92 325.08,792.9C325.82,789.95 323.07,785.95 319.87,787.79C315.73,800.02 312.08,812.56 305.51,823.79C303.84,819.55 303.72,814.97 303.31,810.5C301.87,810.17 300.43,809.82 298.97,809.63C295.64,825.72 285.41,839.81 272.06,849.15C263.05,854.43 255.61,863.04 244.97,865.06C242.1,865.23 241.84,869.63 244.35,870.52C246.18,871.55 248.23,870.44 250.06,869.95C254,868.38 258.16,867.49 262.28,866.55C261.81,869.41 261.65,872.48 259.99,874.99C258.13,878.07 253.88,878.86 252.45,882.29C250.02,887.11 250.48,893.15 253.31,897.71C255.85,901.46 260.66,902.8 265,902.66C272.05,902.52 277.85,907.48 284.82,908C280.47,913.19 276.95,919.21 275.77,925.96L275.48,927.31C258.46,927.38 241.44,927.26 224.42,927.37C224.23,877.03 224.38,826.68 224.34,776.33Z" style="fill:rgb(252,253,222);fill-rule:nonzero;"/>
        </g>
        <g transform="matrix(4.166667,0,0,4.166667,0,0)">
            <path d="M285.03,856.36C283.04,859.78 280.46,862.79 278.22,866.04C277.06,867.69 278.44,871.33 280.84,870.34C288.73,867.33 296.94,865.17 304.7,861.83C306.96,865.13 310.62,867.12 314.68,866.48C315.65,865.73 316.61,864.98 317.57,864.24C317.47,870.19 316.7,876.12 315.98,882.03C315.31,887.73 312.26,892.92 307.96,896.65C301.96,901.1 294.26,901.95 287.01,901.76C289.24,899.56 290.98,896.96 292.33,894.15C292.31,893.36 292.28,891.78 292.26,890.99C291.64,890.52 290.4,889.56 289.78,889.08C285.85,892.15 285.19,898.41 280.12,900.22C276.05,899.42 272.28,897.32 268.08,897.22C264.96,896.81 261.33,897.47 258.78,895.22C255.42,892.26 255.29,886.61 258.5,883.51C260.68,881.67 263.25,880.17 264.68,877.6C266.94,873.47 267.04,868.64 268.21,864.18C274.05,862.1 279.6,859.33 285.03,856.36M279.43,875.76C278.7,875.03 277.96,874.34 277.2,873.68C275.76,871.99 272.83,873.9 273.64,875.95C273.62,879.1 276.76,880.77 279.35,881.65C281.52,888.81 291,889.33 296.83,886.86C294.78,889.6 293.18,893.47 295.26,896.65C296.93,899.28 300.39,897.92 302.91,897.61C306.25,897.39 309.48,894.61 308.95,891.03C309.3,886.44 303.66,884.44 299.91,885.53C304.21,883.6 304.52,878.46 306.82,874.9C306.73,872.89 306.65,870.9 306.6,868.92C305.09,868.67 303.52,868.3 302.05,868.9C294.5,871.17 287.06,873.79 279.43,875.76Z" style="fill:rgb(252,253,222);fill-rule:nonzero;"/>
        </g>
        <g transform="matrix(4.166667,0,0,4.166667,0,0)">
            <path d="M293.87,921.43C299.46,920.8 304.82,918.69 310.45,918.46C312.91,921.27 314.66,924.65 317.36,927.28C306,927.26 294.61,927.56 283.27,927.15L282.92,926.77L283.06,926.22C285.55,922.93 290.08,922.3 293.87,921.43Z" style="fill:rgb(252,253,222);fill-rule:nonzero;"/>
        </g>
        <g transform="matrix(4.166667,0,0,4.166667,0,0)">
            <path d="M307.78,831.76C312.09,824.35 315.08,816.25 318.99,808.61C319.52,819.78 319.17,830.97 318.76,842.14C317.36,842.61 317.32,843.21 318.62,843.93C318.68,845.75 318.59,847.58 318.55,849.43C317.44,849.49 316.35,849.67 315.29,849.96C306.74,854.45 298.27,859.54 288.67,861.42C291.34,856.87 294.35,852.54 296.97,847.96C297.99,846.45 297.83,844.57 297.96,842.86C293.56,841.69 291.49,846.42 288.08,848.08C283.11,850.85 278.35,854.14 272.91,855.91C276.7,851.69 281.59,848.65 285.4,844.45C289.12,840.78 291.9,836.32 295.34,832.4C297.2,830.25 297.51,827.18 299.45,825.11L300.17,824.69C300.79,827.54 300.99,830.46 301,833.39C303.37,834.07 306.32,834.18 307.78,831.76Z" style="fill:rgb(236,28,52);fill-rule:nonzero;"/>
        </g>
        <g transform="matrix(4.166667,0,0,4.166667,0,0)">
            <path d="M296.83,886.86C297.86,886.41 298.88,885.97 299.91,885.53C303.66,884.44 309.3,886.44 308.95,891.03C309.48,894.61 306.25,897.39 302.91,897.61C300.39,897.92 296.93,899.28 295.26,896.65C293.18,893.47 294.78,889.6 296.83,886.86Z" style="fill:rgb(236,28,52);fill-rule:nonzero;"/>
        </g>
        <g transform="matrix(4.166667,0,0,4.166667,0,0)">
            <path d="M309.26,859.65C312.5,857.99 315.71,856.26 318.57,853.98C318.27,856.65 318.04,859.34 317.75,862.02C317.19,862.44 316.63,862.87 316.08,863.31C315.1,860.36 311.51,860.95 309.26,859.65Z" style="fill:rgb(252,253,223);fill-rule:nonzero;"/>
        </g>
        <g transform="matrix(4.166667,0,0,4.166667,0,0)">
            <path d="M299.45,825.11C297.15,823.99 301.22,822.3 300.17,824.69L299.45,825.11Z" style="fill:rgb(177,167,173);fill-rule:nonzero;"/>
        </g>
        <g transform="matrix(4.166667,0,0,4.166667,0,0)">
            <path d="M318.62,843.93C317.32,843.21 317.36,842.61 318.76,842.14C318.72,842.59 318.66,843.48 318.62,843.93Z" style="fill:rgb(187,126,138);fill-rule:nonzero;"/>
        </g>
        <g transform="matrix(4.166667,0,0,4.166667,0,0)">
            <path d="M296.94,876.4C298.17,875.96 299.42,875.55 300.67,875.16C299.42,882.64 289.46,884.66 284.09,880.38C286.37,879.58 288.71,878.99 291.05,878.42C292.25,879.99 293.67,882.08 295.99,881.21C296.76,879.7 296.78,878.02 296.94,876.4Z" style="fill:rgb(251,253,222);fill-rule:nonzero;"/>
        </g>
    </g>
</svg>
