<?xml version="1.0" encoding="UTF-8" standalone="no"?>
<!DOCTYPE svg PUBLIC "-//W3C//DTD SVG 1.1//EN" "http://www.w3.org/Graphics/SVG/1.1/DTD/svg11.dtd">
<svg width="100%" height="100%" viewBox="0 0 630 635" version="1.1" xmlns="http://www.w3.org/2000/svg" xmlns:xlink="http://www.w3.org/1999/xlink" xml:space="preserve" xmlns:serif="http://www.serif.com/" style="fill-rule:evenodd;clip-rule:evenodd;stroke-linejoin:round;stroke-miterlimit:2;">
    <g transform="matrix(1,0,0,1,-219.291667,-2497.153941)">
        <g transform="matrix(4.166667,0,0,4.166667,0,0)">
            <path d="M155.91,612.95C156.43,611.47 156.58,609.67 157.96,608.7C160.21,608.11 161.31,610.33 162.66,611.65C161.21,624.06 162.87,636.52 162.37,648.96C162.25,653.85 161.72,658.73 161.36,663.62C159.58,663.93 157.8,664.2 156.02,664.55C156.65,652.65 156.57,640.74 156.54,628.84C153.21,636.61 149.75,644.36 145.87,651.88C144.77,654.48 141.12,656.54 138.68,654.5C138.14,651.23 137.9,647.9 137.13,644.67C135.33,648.82 133.66,653.13 130.45,656.45C126.14,662.38 121.22,667.88 115.41,672.39C111.31,675.39 108.77,679.86 105.51,683.66C102.83,684.86 100.98,687.12 99.43,689.53C100.19,680.02 107.1,672.78 113.96,666.87C125.14,657.81 133.68,644.99 136.14,630.68C137.58,631.16 139.29,631.21 140.47,632.26C141.33,636.56 141.25,641.02 142.72,645.2C148.76,635.19 152.24,623.97 155.91,612.95Z" style="fill:rgb(61,37,97);fill-rule:nonzero;"/>
        </g>
        <g transform="matrix(4.166667,0,0,4.166667,0,0)">
            <path d="M122.36,696.08C120.93,690.81 125.4,685.02 130.94,685.39C131.47,685.84 132.54,686.74 133.07,687.19C132.87,688.17 132.66,689.16 132.46,690.17C130.99,690.76 129.19,690.91 128.06,692.12C128.25,695.67 134.39,694.13 133.62,697.9C133.83,700.38 130.97,700.72 129.21,701.32C125.83,702.69 122.76,699.17 122.36,696.08Z" style="fill:rgb(61,37,97);fill-rule:nonzero;"/>
        </g>
        <g transform="matrix(4.166667,0,0,4.166667,0,0)">
            <path d="M154.86,691.38C156.6,689.7 158.45,688.15 160.3,686.61C159.46,696.49 159.62,706.99 154.57,715.88C159.62,713.17 164.85,710.77 169.62,707.55C171.1,706.04 172.71,707.82 173.79,708.91C171.04,716.79 165.84,723.49 160.07,729.41C164.8,728.72 169.3,726.96 173.99,726.09C176.5,726.9 175.83,729.94 174.44,731.49C171.42,735.16 168.08,738.56 164.95,742.14C166.33,743.9 167.74,745.64 169.22,747.32C169.11,747.73 168.89,748.54 168.78,748.95C168.12,750.2 166.22,751.36 165.06,750C164.77,749.78 164.18,749.35 163.88,749.13C163.58,749.3 162.97,749.64 162.66,749.82C160.98,750.95 158.87,750.45 156.98,750.52C152.64,750.28 148.39,751.33 144.08,751.59C136.15,752.13 128.28,750.73 120.38,750.44C115.94,750.15 111.43,752.9 107.21,750.42C108.21,745.65 111.83,742.21 114.02,738.03C115.65,734.92 117.67,732.05 119.91,729.36C115.95,727.99 112.13,726.25 108.18,724.87C104.51,723.46 100.45,724.46 96.73,723.3C86.49,720.55 85.07,703.93 94.37,699.17C97.54,697.29 98.92,693.61 99.35,690.12C100.13,693.89 101.19,697.59 102.46,701.23C99.39,702.5 95.6,703.66 94.29,707.09C92.37,710.66 93.9,715.63 97.52,717.47C99.85,718.49 102.47,718.28 104.95,718.55C109.46,718.78 113.7,720.51 117.97,721.81C121.31,719.04 123.7,715.42 125.54,711.53C126.8,711.53 128.06,711.48 129.32,711.37C130.64,716.05 127.32,719.93 124.41,723.14C133.02,723.28 143.09,722.01 148.56,714.51C154.19,708.13 153.35,699.19 154.86,691.38M140.94,743.89C139.39,744.69 137.67,744.01 136.08,743.78C134.91,744.51 133.74,745.27 132.59,746.05C140.6,747.31 148.61,745.54 156.61,745.21C155.19,741.91 153.43,738.63 153.21,734.97C149.56,738.48 145.48,741.61 140.94,743.89Z" style="fill:rgb(61,37,97);fill-rule:nonzero;"/>
        </g>
        <g transform="matrix(4.166667,0,0,4.166667,0,0)">
            <path d="M52.63,599.42C102.97,599.22 153.32,599.38 203.67,599.34C203.59,649.69 203.82,700.05 203.55,750.4C191.84,750.27 180.12,750.34 168.41,750.36L168.78,748.95C168.89,748.54 169.11,747.73 169.22,747.32C167.74,745.64 166.33,743.9 164.95,742.14C168.08,738.56 171.42,735.16 174.44,731.49C175.83,729.94 176.5,726.9 173.99,726.09C169.3,726.96 164.8,728.72 160.07,729.41C165.84,723.49 171.04,716.79 173.79,708.91C172.71,707.82 171.1,706.04 169.62,707.55C164.85,710.77 159.62,713.17 154.57,715.88C159.62,706.99 159.46,696.49 160.3,686.61C160.34,686.22 160.43,685.45 160.48,685.07C165.2,679.11 168.07,671.88 173.33,666.33C175.73,663.74 178.1,661.07 179.62,657.85C178.4,657.5 177.19,657.18 175.98,656.86C171.15,658.25 167.01,661.24 162.55,663.45C162.25,663.49 161.66,663.58 161.36,663.62C161.72,658.73 162.25,653.85 162.37,648.96C162.87,636.52 161.21,624.06 162.66,611.65C161.31,610.33 160.21,608.11 157.96,608.7C156.58,609.67 156.43,611.47 155.91,612.95C152.24,623.97 148.76,635.19 142.72,645.2C141.25,641.02 141.33,636.56 140.47,632.26C139.29,631.21 137.58,631.16 136.14,630.68C133.68,644.99 125.14,657.81 113.96,666.87C107.1,672.78 100.19,680.02 99.43,689.53L99.38,689.9L99.35,690.12C98.92,693.61 97.54,697.29 94.37,699.17C85.07,703.93 86.49,720.55 96.73,723.3C100.45,724.46 104.51,723.46 108.18,724.87C112.13,726.25 115.95,727.99 119.91,729.36C117.67,732.05 115.65,734.92 114.02,738.03C111.83,742.21 108.21,745.65 107.21,750.42C89.03,750.21 70.85,750.4 52.67,750.33C52.64,700.02 52.72,649.72 52.63,599.42Z" style="fill:rgb(252,253,222);fill-rule:nonzero;"/>
        </g>
        <g transform="matrix(4.166667,0,0,4.166667,0,0)">
            <path d="M145.87,651.88C149.75,644.36 153.21,636.61 156.54,628.84C156.57,640.74 156.65,652.65 156.02,664.55C156.01,665.02 155.97,665.96 155.96,666.43C144.47,670.68 132.18,672.6 121.2,678.2C117.19,680.37 112.71,681.48 108.78,683.81C107.96,683.77 106.33,683.7 105.51,683.66C108.77,679.86 111.31,675.39 115.41,672.39C121.22,667.88 126.14,662.38 130.45,656.45C133.66,653.13 135.33,648.82 137.13,644.67C137.9,647.9 138.14,651.23 138.68,654.5C141.12,656.54 144.77,654.48 145.87,651.88Z" style="fill:rgb(252,253,222);fill-rule:nonzero;"/>
        </g>
        <g transform="matrix(4.166667,0,0,4.166667,0,0)">
            <path d="M118.29,690.6C122.66,687.07 127.54,684.2 133.09,683.03C135.8,683.82 138.71,685.51 139.56,688.38C141.5,693.15 139.51,698.61 136.58,702.52C130.95,705.34 121.98,705.56 118.88,699.04C117.15,696.49 117.71,693.4 118.29,690.6M122.36,696.08C122.76,699.17 125.83,702.69 129.21,701.32C130.97,700.72 133.83,700.38 133.62,697.9C134.39,694.13 128.25,695.67 128.06,692.12C129.19,690.91 130.99,690.76 132.46,690.17C132.66,689.16 132.87,688.17 133.07,687.19C132.54,686.74 131.47,685.84 130.94,685.39C125.4,685.02 120.93,690.81 122.36,696.08Z" style="fill:rgb(252,253,222);fill-rule:nonzero;"/>
        </g>
        <g transform="matrix(4.166667,0,0,4.166667,0,0)">
            <path d="M147.16,699.18C150.03,696.88 152.48,694.15 154.86,691.38C153.35,699.19 154.19,708.13 148.56,714.51C143.09,722.01 133.02,723.28 124.41,723.14C127.32,719.93 130.64,716.05 129.32,711.37C132.49,710.3 135.78,709.39 138.65,707.65C141.82,705.17 144,701.66 147.16,699.18Z" style="fill:rgb(252,253,222);fill-rule:nonzero;"/>
        </g>
        <g transform="matrix(4.166667,0,0,4.166667,0,0)">
            <path d="M102.46,701.23C103.73,700.67 104.97,700.05 106.22,699.48C108.4,702.35 110.7,705.37 114.09,706.87C117.87,708.52 121.69,710.06 125.54,711.53C123.7,715.42 121.31,719.04 117.97,721.81C113.7,720.51 109.46,718.78 104.95,718.55C102.47,718.28 99.85,718.49 97.52,717.47C93.9,715.63 92.37,710.66 94.29,707.09C95.6,703.66 99.39,702.5 102.46,701.23Z" style="fill:rgb(252,253,222);fill-rule:nonzero;"/>
        </g>
        <g transform="matrix(4.166667,0,0,4.166667,0,0)">
            <path d="M140.94,743.89C145.48,741.61 149.56,738.48 153.21,734.97C153.43,738.63 155.19,741.91 156.61,745.21C148.61,745.54 140.6,747.31 132.59,746.05C133.74,745.27 134.91,744.51 136.08,743.78C137.67,744.01 139.39,744.69 140.94,743.89Z" style="fill:rgb(252,253,222);fill-rule:nonzero;"/>
        </g>
        <g transform="matrix(4.166667,0,0,4.166667,0,0)">
            <path d="M162.55,663.45C167.01,661.24 171.15,658.25 175.98,656.86C177.19,657.18 178.4,657.5 179.62,657.85C178.1,661.07 175.73,663.74 173.33,666.33C168.07,671.88 165.2,679.11 160.48,685.07C160.43,685.45 160.34,686.22 160.3,686.61C158.45,688.15 156.6,689.7 154.86,691.38C152.48,694.15 150.03,696.88 147.16,699.18C144,701.66 141.82,705.17 138.65,707.65C135.78,709.39 132.49,710.3 129.32,711.37C128.06,711.48 126.8,711.53 125.54,711.53C121.69,710.06 117.87,708.52 114.09,706.87C110.7,705.37 108.4,702.35 106.22,699.48C104.97,700.05 103.73,700.67 102.46,701.23C101.19,697.59 100.13,693.89 99.35,690.12L99.38,689.9L99.43,689.53C100.98,687.12 102.83,684.86 105.51,683.66C106.33,683.7 107.96,683.77 108.78,683.81C112.71,681.48 117.19,680.37 121.2,678.2C132.18,672.6 144.47,670.68 155.96,666.43C155.97,665.96 156.01,665.02 156.02,664.55C157.8,664.2 159.58,663.93 161.36,663.62C161.66,663.58 162.25,663.49 162.55,663.45M118.29,690.6C117.71,693.4 117.15,696.49 118.88,699.04C121.98,705.56 130.95,705.34 136.58,702.52C139.51,698.61 141.5,693.15 139.56,688.38C138.71,685.51 135.8,683.82 133.09,683.03C127.54,684.2 122.66,687.07 118.29,690.6Z" style="fill:rgb(236,28,52);fill-rule:nonzero;"/>
        </g>
        <g transform="matrix(4.166667,0,0,4.166667,0,0)">
            <path d="M162.66,749.82C162.97,749.64 163.58,749.3 163.88,749.13C164.18,749.35 164.77,749.78 165.06,750C164.18,751.37 163.38,751.31 162.66,749.82Z" style="fill:rgb(147,139,149);fill-rule:nonzero;"/>
        </g>
    </g>
</svg>
