<?xml version="1.0" encoding="UTF-8" standalone="no"?>
<!DOCTYPE svg PUBLIC "-//W3C//DTD SVG 1.1//EN" "http://www.w3.org/Graphics/SVG/1.1/DTD/svg11.dtd">
<svg width="100%" height="100%" viewBox="0 0 630 631" version="1.1" xmlns="http://www.w3.org/2000/svg" xmlns:xlink="http://www.w3.org/1999/xlink" xml:space="preserve" xmlns:serif="http://www.serif.com/" style="fill-rule:evenodd;clip-rule:evenodd;stroke-linejoin:round;stroke-miterlimit:2;">
    <g transform="matrix(1,0,0,1,-1670.812328,-3234.541667)">
        <g transform="matrix(4.166667,0,0,4.166667,0,0)">
            <path d="M466.74,841.77C475.63,840.81 485.15,840.42 493.38,844.57C497.14,845.83 499.47,849.16 501.77,852.16C503.96,854.95 505.26,858.3 507.24,861.23C506.8,868.97 506.32,876.72 505.18,884.39C509.35,882.87 514.4,882.93 517.62,886.38C522.32,892.55 522.08,900.95 520.01,908.08C517.36,914.17 511.52,918.2 505.42,920.32C505.58,920.97 505.92,922.25 506.09,922.9C506.38,924.43 506.77,927.21 504.66,927.57C503.28,928.12 501.98,927.08 501.07,926.18C499.16,921.98 497.69,917.57 495.36,913.57C493.72,911.63 495.39,908.5 497.96,908.94C500.43,910.09 501.14,912.97 502.39,915.17C507.36,914.06 512.15,911.28 514.85,906.87C516.71,901.73 516.93,895.58 514.18,890.72C511.46,887.49 506.98,889.94 503.56,890.34C502.96,891.79 502.34,893.23 501.74,894.69C505,893.33 508.22,891.63 511.83,891.49C511.88,893 511.93,894.52 511.98,896.05C506.26,899.67 499.54,900.99 493.33,903.49C489.16,904.95 486.25,908.5 482.34,910.44C477.76,912.69 474.31,917.17 468.91,917.54C467.7,920.48 466.69,923.53 465.08,926.3C463.8,926.73 462.32,926.85 461.14,926.11L460.48,925.06C462.35,919.52 464.93,914.23 466.18,908.49C461.42,907.06 457.01,904.51 452.13,903.52C447.37,903.28 441.86,903.44 438.33,899.65C434.38,895.06 433.83,887.92 436.63,882.61C438.14,879.49 442.03,878.71 443.86,875.86C446.17,872.37 445.76,867.97 447.09,864.12C448.45,858.54 452.62,854.41 455.86,849.88C459.16,846.82 462.79,843.9 466.74,841.77M466.55,848.55C461.13,851.97 456.27,856.51 453.21,862.21C450.91,867.23 451.43,873.09 448.82,878.01C447.37,880.77 444.59,882.35 442.33,884.36C439.41,887.39 439.45,892.57 442.45,895.56C444.61,897.92 448.03,897.57 450.93,897.8C455.74,897.82 460.14,899.98 464.74,901.08C467.84,898.5 470.09,895.21 471.78,891.58C472.75,889.23 475.22,890.61 476.67,891.63C476.09,893.44 475.72,895.32 475.28,897.18C474.02,899.04 472.54,900.72 471.01,902.37C476.14,902.39 481.46,902.4 486.25,900.32C494.07,897.76 499.28,889.94 500.09,881.94C500.72,875.66 501.76,869.37 501.63,863.04C500.74,858.73 497.05,855.87 494.95,852.16C487.03,845.94 475.84,845.44 466.55,848.55Z" style="fill:rgb(61,37,97);fill-rule:nonzero;"/>
        </g>
        <g transform="matrix(4.166667,0,0,4.166667,0,0)">
            <path d="M470.44,858.6C474.17,857.95 478.31,857.03 481.87,858.87C485.12,860.52 489.04,862.04 490.22,865.88C491.87,870.83 491.94,876.43 490.44,881.42C487.55,886.01 482.02,888.05 477,889.31C471.15,888.01 464.42,886.01 461.99,879.89C460.72,874.96 460.67,869.1 464.12,865C466.13,862.78 468.18,860.56 470.44,858.6M469.37,867.32C466.7,869.81 465.48,873.73 466.8,877.22C468.2,881.14 472.67,882.24 476.17,883.54C479.83,883.43 483.19,881.26 485.72,878.74C486.98,875.95 486.21,872.76 485.84,869.86C485.35,864.85 479.15,863.59 475.02,863.37C473.56,865.26 471.42,866.25 469.37,867.32Z" style="fill:rgb(61,37,97);fill-rule:nonzero;"/>
        </g>
        <g transform="matrix(4.166667,0,0,4.166667,0,0)">
            <path d="M469.96,874.06C468.98,870.13 473.07,867.86 476.05,866.57C479.99,867.07 479.44,871.8 476.89,873.67C478.54,873.79 480.32,873.43 481.89,874.18C484.12,877.22 480.26,880.93 477.09,880.31C473.75,880.07 469.77,877.9 469.96,874.06Z" style="fill:rgb(61,37,97);fill-rule:nonzero;"/>
        </g>
        <g transform="matrix(4.166667,0,0,4.166667,0,0)">
            <path d="M401.07,776.29C451.36,776.37 501.66,776.35 551.95,776.3C552.06,826.64 551.97,876.98 552,927.33C536.86,927.38 521.73,927.24 506.6,927.4C506.5,925.87 506.52,924.35 506.09,922.9C505.92,922.25 505.58,920.97 505.42,920.32C511.52,918.2 517.36,914.17 520.01,908.08C522.08,900.95 522.32,892.55 517.62,886.38C514.4,882.93 509.35,882.87 505.18,884.39C506.32,876.72 506.8,868.97 507.24,861.23C505.26,858.3 503.96,854.95 501.77,852.16C499.47,849.16 497.14,845.83 493.38,844.57C485.15,840.42 475.63,840.81 466.74,841.77C462.79,843.9 459.16,846.82 455.86,849.88C452.62,854.41 448.45,858.54 447.09,864.12C445.76,867.97 446.17,872.37 443.86,875.86C442.03,878.71 438.14,879.49 436.63,882.61C433.83,887.92 434.38,895.06 438.33,899.65C441.86,903.44 447.37,903.28 452.13,903.52C457.01,904.51 461.42,907.06 466.18,908.49C464.93,914.23 462.35,919.52 460.48,925.06L461.14,926.11L461.92,927.35C441.61,927.3 421.31,927.35 401,927.33C401.05,876.98 400.92,826.63 401.07,776.29Z" style="fill:rgb(252,253,222);fill-rule:nonzero;"/>
        </g>
        <g transform="matrix(4.166667,0,0,4.166667,0,0)">
            <path d="M466.55,848.55C475.84,845.44 487.03,845.94 494.95,852.16C497.05,855.87 500.74,858.73 501.63,863.04C501.76,869.37 500.72,875.66 500.09,881.94C499.28,889.94 494.07,897.76 486.25,900.32C481.46,902.4 476.14,902.39 471.01,902.37C472.54,900.72 474.02,899.04 475.28,897.18C477.07,899.05 479.11,901.12 481.95,900.92C486.89,901.11 488.82,894.25 486.25,890.77C484.07,887.29 478.58,888.5 476.67,891.63C475.22,890.61 472.75,889.23 471.78,891.58C470.09,895.21 467.84,898.5 464.74,901.08C460.14,899.98 455.74,897.82 450.93,897.8C448.03,897.57 444.61,897.92 442.45,895.56C439.45,892.57 439.41,887.39 442.33,884.36C444.59,882.35 447.37,880.77 448.82,878.01C451.43,873.09 450.91,867.23 453.21,862.21C456.27,856.51 461.13,851.97 466.55,848.55M470.44,858.6C468.18,860.56 466.13,862.78 464.12,865C460.67,869.1 460.72,874.96 461.99,879.89C464.42,886.01 471.15,888.01 477,889.31C482.02,888.05 487.55,886.01 490.44,881.42C491.94,876.43 491.87,870.83 490.22,865.88C489.04,862.04 485.12,860.52 481.87,858.87C478.31,857.03 474.17,857.95 470.44,858.6Z" style="fill:rgb(252,253,222);fill-rule:nonzero;"/>
        </g>
        <g transform="matrix(4.166667,0,0,4.166667,0,0)">
            <path d="M469.37,867.32C471.42,866.25 473.56,865.26 475.02,863.37C479.15,863.59 485.35,864.85 485.84,869.86C486.21,872.76 486.98,875.95 485.72,878.74C483.19,881.26 479.83,883.43 476.17,883.54C472.67,882.24 468.2,881.14 466.8,877.22C465.48,873.73 466.7,869.81 469.37,867.32M469.96,874.06C469.77,877.9 473.75,880.07 477.09,880.31C480.26,880.93 484.12,877.22 481.89,874.18C480.32,873.43 478.54,873.79 476.89,873.67C479.44,871.8 479.99,867.07 476.05,866.57C473.07,867.86 468.98,870.13 469.96,874.06Z" style="fill:rgb(252,253,222);fill-rule:nonzero;"/>
        </g>
        <g transform="matrix(4.166667,0,0,4.166667,0,0)">
            <path d="M503.56,890.34C506.98,889.94 511.46,887.49 514.18,890.72C516.93,895.58 516.71,901.73 514.85,906.87C512.15,911.28 507.36,914.06 502.39,915.17C501.14,912.97 500.43,910.09 497.96,908.94C495.39,908.5 493.72,911.63 495.36,913.57C497.69,917.57 499.16,921.98 501.07,926.18L501.61,927.36C489.22,927.35 476.83,927.23 464.44,927.42L465.08,926.3C466.69,923.53 467.7,920.48 468.91,917.54C474.31,917.17 477.76,912.69 482.34,910.44C486.25,908.5 489.16,904.95 493.33,903.49C499.54,900.99 506.26,899.67 511.98,896.05C511.93,894.52 511.88,893 511.83,891.49C508.22,891.63 505,893.33 501.74,894.69C502.34,893.23 502.96,891.79 503.56,890.34Z" style="fill:rgb(252,253,222);fill-rule:nonzero;"/>
        </g>
        <g transform="matrix(4.166667,0,0,4.166667,0,0)">
            <path d="M476.67,891.63C478.58,888.5 484.07,887.29 486.25,890.77C488.82,894.25 486.89,901.11 481.95,900.92C479.11,901.12 477.07,899.05 475.28,897.18C475.72,895.32 476.09,893.44 476.67,891.63Z" style="fill:rgb(236,28,52);fill-rule:nonzero;"/>
        </g>
    </g>
</svg>
