<?xml version="1.0" encoding="UTF-8" standalone="no"?>
<!DOCTYPE svg PUBLIC "-//W3C//DTD SVG 1.1//EN" "http://www.w3.org/Graphics/SVG/1.1/DTD/svg11.dtd">
<svg width="100%" height="100%" viewBox="0 0 630 630" version="1.1" xmlns="http://www.w3.org/2000/svg" xmlns:xlink="http://www.w3.org/1999/xlink" xml:space="preserve" xmlns:serif="http://www.serif.com/" style="fill-rule:evenodd;clip-rule:evenodd;stroke-linejoin:round;stroke-miterlimit:2;">
    <g transform="matrix(1,0,0,1,-3119.431122,-1062.463735)">
        <g transform="matrix(4.166667,0,0,4.166667,0,0)">
            <path d="M805.22,292.25C806.62,289.06 806.17,283.12 810.95,283.19C813.26,284.3 812.94,287.45 813.89,289.52C817.34,299.29 819.63,309.4 821.44,319.59C823.45,319.73 825.47,319.88 827.5,320.02C828.87,317.15 830.32,314.31 831.22,311.25C833.76,302.93 838.39,295.49 841.7,287.49C842.64,285.7 843.38,283.15 845.84,283.16C847.02,283.77 848.14,284.72 848.49,286.07C850.35,291.75 850.7,297.77 852.19,303.55C854.95,313.22 852.73,323.28 852.12,333.08C852.17,334.78 852.85,336.37 853.38,337.98C852.75,342.58 853.35,347.24 852.98,351.85C851.05,359.35 851.01,367.92 845.22,373.78C847.62,378.83 845.09,384.56 847.35,389.6C849.12,394.18 852.02,398.83 850.89,403.95C850.59,406.36 846.65,405.85 846.39,403.64C844.88,396.72 841.01,390.34 841.6,383.03C834.92,388.29 827.23,392.23 821.1,398.18C819.99,399.67 818.09,398.77 816.59,398.83C816.13,400.95 815.68,403.08 814.98,405.14C813.9,405.53 812.73,405.58 811.62,405.49C810.87,404.42 810.61,403.25 810.82,402C811.57,396.22 812.91,390.52 814.68,384.97C809.97,384.47 805.72,382.34 801.34,380.73C797.2,378.98 792.49,380.33 788.36,378.54C783.41,376.67 777.28,375.17 775.07,369.74C772.99,364.46 772.95,356.84 778.52,353.67C781.37,352.82 784.13,354.66 786.94,355.02C791.12,352.69 791.72,347.51 792.36,343.26C792.73,340.12 794.85,337.7 796.28,335.01C796.59,332.99 795.87,331 795.81,328.99C796.43,316.23 800.77,304.09 805.22,292.25M844.9,293.53C840.98,302.18 836.14,310.51 833.94,319.82C836.75,316.84 837.92,312.72 840.61,309.63C842.04,308.05 844.85,308.81 844.94,311.04C846.91,316.23 843.74,322.56 847.37,327.1C848.26,323.07 847.79,318.92 848.36,314.86C849.03,309.37 846.31,304.3 845.94,298.92C845.8,297.08 845.36,295.3 844.9,293.53M809.99,294.91C806.23,305.29 801.91,315.7 801.2,326.85C801.89,326.3 802.59,325.75 803.3,325.21C804.19,320.79 805.04,316.35 806.21,311.99C806.71,310.17 809.13,309.51 810.68,310.5C812.44,313.56 812.98,317.1 813.26,320.57C813.98,320.45 815.44,320.22 816.16,320.1C814.67,311.59 813.06,303.02 809.99,294.91M825.97,323.72C825.83,327.81 820.74,328.84 818.73,331.97C825.7,330.8 834.33,332.38 837.81,339.26C841.01,344.43 839.96,350.79 837.58,356.04C833.93,359.74 829.75,363.06 824.52,364.09C821.66,363.99 818.73,364.11 816.03,363.05C811.17,361.8 807.81,357.44 806.23,352.88C804.39,345.7 808.19,338.05 814.24,334.09C812.35,330.75 815.2,327.97 816.84,325.29C812.5,326.93 808.08,328.61 804.3,331.34C801.4,333.55 801.63,337.68 799.4,340.33C796.68,343.22 797.41,347.53 796.14,351.05C795.41,354.35 793.07,356.87 790.7,359.12C791.27,363.79 791.51,368.72 789.34,373.04C793.09,374.22 797.06,373.95 800.9,374.54C804.03,375.3 807.01,376.56 810.17,377.24C814.37,375.44 816.01,370.81 818.28,367.19C819.4,365.65 821.08,367.3 822.33,367.74C822.32,368.6 822.31,370.33 822.3,371.19C820.96,374 819.22,376.57 816.99,378.74C822.19,378.7 827.58,378.75 832.44,376.6C840.31,373.98 845.24,366.03 846.19,358.07C844.35,359.51 842.34,360.78 839.9,360.55C839.71,358.88 839.39,357.22 839.13,355.57L839.46,355.48C841.34,352.36 843.65,349.47 847.19,348.17C847.42,343.06 848.15,336.82 844.23,332.85C841.66,329.97 839.32,326.46 835.43,325.29C832.46,323.91 829.17,323.86 825.97,323.72M818.32,338.4C815.37,339.77 812.67,341.94 811.76,345.19C809.51,349.82 812.3,355.87 817.05,357.58C824.98,361.13 835.97,354.23 834.53,345.13C833.13,338.13 824.26,335.47 818.32,338.4Z" style="fill:rgb(61,37,97);fill-rule:nonzero;"/>
        </g>
        <g transform="matrix(4.166667,0,0,4.166667,0,0)">
            <path d="M815.79,346C817.45,342.63 821.2,339.46 825.17,340.73C825.06,342.05 824.95,343.37 824.86,344.7C823.53,345.85 822.42,347.19 821.6,348.74C823.98,348.51 827.51,346.94 828.76,349.96C828.96,354.07 823.41,356.55 819.98,354.91C816.23,354 814.66,349.39 815.79,346Z" style="fill:rgb(61,37,97);fill-rule:nonzero;"/>
        </g>
        <g transform="matrix(4.166667,0,0,4.166667,0,0)">
            <path d="M748.68,255C799.02,255.03 849.35,254.94 899.69,255.04C899.65,305.34 899.64,355.65 899.7,405.95C871.37,406.09 843.04,405.92 814.7,406L814.98,405.14C815.68,403.08 816.13,400.95 816.59,398.83C818.09,398.77 819.99,399.67 821.1,398.18C827.23,392.23 834.92,388.29 841.6,383.03C841.01,390.34 844.88,396.72 846.39,403.64C846.65,405.85 850.59,406.36 850.89,403.95C852.02,398.83 849.12,394.18 847.35,389.6C845.09,384.56 847.62,378.83 845.22,373.78C851.01,367.92 851.05,359.35 852.98,351.85C853.35,347.24 852.75,342.58 853.38,337.98C852.85,336.37 852.17,334.78 852.12,333.08C852.73,323.28 854.95,313.22 852.19,303.55C850.7,297.77 850.35,291.75 848.49,286.07C848.14,284.72 847.02,283.77 845.84,283.16C843.38,283.15 842.64,285.7 841.7,287.49C838.39,295.49 833.76,302.93 831.22,311.25C830.32,314.31 828.87,317.15 827.5,320.02C825.47,319.88 823.45,319.73 821.44,319.59C819.63,309.4 817.34,299.29 813.89,289.52C812.94,287.45 813.26,284.3 810.95,283.19C806.17,283.12 806.62,289.06 805.22,292.25C800.77,304.09 796.43,316.23 795.81,328.99C795.87,331 796.59,332.99 796.28,335.01C794.85,337.7 792.73,340.12 792.36,343.26C791.72,347.51 791.12,352.69 786.94,355.02C784.13,354.66 781.37,352.82 778.52,353.67C772.95,356.84 772.99,364.46 775.07,369.74C777.28,375.17 783.41,376.67 788.36,378.54C792.49,380.33 797.2,378.98 801.34,380.73C805.72,382.34 809.97,384.47 814.68,384.97C812.91,390.52 811.57,396.22 810.82,402C810.61,403.25 810.87,404.42 811.62,405.49L811.89,406.04C790.81,405.95 769.74,406.04 748.67,406C748.67,355.67 748.65,305.33 748.68,255Z" style="fill:rgb(252,253,222);fill-rule:nonzero;"/>
        </g>
        <g transform="matrix(4.166667,0,0,4.166667,0,0)">
            <path d="M844.9,293.53C845.36,295.3 845.8,297.08 845.94,298.92C846.31,304.3 849.03,309.37 848.36,314.86C847.79,318.92 848.26,323.07 847.37,327.1C843.74,322.56 846.91,316.23 844.94,311.04C844.85,308.81 842.04,308.05 840.61,309.63C837.92,312.72 836.75,316.84 833.94,319.82C836.14,310.51 840.98,302.18 844.9,293.53Z" style="fill:rgb(252,253,222);fill-rule:nonzero;"/>
        </g>
        <g transform="matrix(4.166667,0,0,4.166667,0,0)">
            <path d="M809.99,294.91C813.06,303.02 814.67,311.59 816.16,320.1C815.44,320.22 813.98,320.45 813.26,320.57C812.98,317.1 812.44,313.56 810.68,310.5C809.13,309.51 806.71,310.17 806.21,311.99C805.04,316.35 804.19,320.79 803.3,325.21C802.59,325.75 801.89,326.3 801.2,326.85C801.91,315.7 806.23,305.29 809.99,294.91Z" style="fill:rgb(252,253,222);fill-rule:nonzero;"/>
        </g>
        <g transform="matrix(4.166667,0,0,4.166667,0,0)">
            <path d="M825.97,323.72C829.17,323.86 832.46,323.91 835.43,325.29C839.32,326.46 841.66,329.97 844.23,332.85C848.15,336.82 847.42,343.06 847.19,348.17C843.65,349.47 841.34,352.36 839.46,355.48L839.13,355.57C838.74,355.69 837.97,355.93 837.58,356.04C839.96,350.79 841.01,344.43 837.81,339.26C834.33,332.38 825.7,330.8 818.73,331.97C820.74,328.84 825.83,327.81 825.97,323.72Z" style="fill:rgb(252,253,222);fill-rule:nonzero;"/>
        </g>
        <g transform="matrix(4.166667,0,0,4.166667,0,0)">
            <path d="M804.3,331.34C808.08,328.61 812.5,326.93 816.84,325.29C815.2,327.97 812.35,330.75 814.24,334.09C808.19,338.05 804.39,345.7 806.23,352.88C807.81,357.44 811.17,361.8 816.03,363.05C818.73,364.11 821.66,363.99 824.52,364.09C825.39,367.26 827.36,370.71 831.06,370.9C836.63,371.42 840.04,365.5 839.9,360.55C842.34,360.78 844.35,359.51 846.19,358.07C845.24,366.03 840.31,373.98 832.44,376.6C827.58,378.75 822.19,378.7 816.99,378.74C819.22,376.57 820.96,374 822.3,371.19C822.31,370.33 822.32,368.6 822.33,367.74C821.08,367.3 819.4,365.65 818.28,367.19C816.01,370.81 814.37,375.44 810.17,377.24C807.01,376.56 804.03,375.3 800.9,374.54C797.06,373.95 793.09,374.22 789.34,373.04C791.51,368.72 791.27,363.79 790.7,359.12C793.07,356.87 795.41,354.35 796.14,351.05C797.41,347.53 796.68,343.22 799.4,340.33C801.63,337.68 801.4,333.55 804.3,331.34Z" style="fill:rgb(252,253,222);fill-rule:nonzero;"/>
        </g>
        <g transform="matrix(4.166667,0,0,4.166667,0,0)">
            <path d="M818.32,338.4C824.26,335.47 833.13,338.13 834.53,345.13C835.97,354.23 824.98,361.13 817.05,357.58C812.3,355.87 809.51,349.82 811.76,345.19C812.67,341.94 815.37,339.77 818.32,338.4M815.79,346C814.66,349.39 816.23,354 819.98,354.91C823.41,356.55 828.96,354.07 828.76,349.96C827.51,346.94 823.98,348.51 821.6,348.74C822.42,347.19 823.53,345.85 824.86,344.7C824.95,343.37 825.06,342.05 825.17,340.73C821.2,339.46 817.45,342.63 815.79,346Z" style="fill:rgb(252,253,222);fill-rule:nonzero;"/>
        </g>
        <g transform="matrix(4.166667,0,0,4.166667,0,0)">
            <path d="M837.58,356.04C837.97,355.93 838.74,355.69 839.13,355.57C839.39,357.22 839.71,358.88 839.9,360.55C840.04,365.5 836.63,371.42 831.06,370.9C827.36,370.71 825.39,367.26 824.52,364.09C829.75,363.06 833.93,359.74 837.58,356.04Z" style="fill:rgb(236,28,52);fill-rule:nonzero;"/>
        </g>
    </g>
</svg>
