<?xml version="1.0" encoding="UTF-8" standalone="no"?>
<!DOCTYPE svg PUBLIC "-//W3C//DTD SVG 1.1//EN" "http://www.w3.org/Graphics/SVG/1.1/DTD/svg11.dtd">
<svg width="100%" height="100%" viewBox="0 0 630 635" version="1.1" xmlns="http://www.w3.org/2000/svg" xmlns:xlink="http://www.w3.org/1999/xlink" xml:space="preserve" xmlns:serif="http://www.serif.com/" style="fill-rule:evenodd;clip-rule:evenodd;stroke-linejoin:round;stroke-miterlimit:2;">
    <g transform="matrix(1,0,0,1,-1670.818159,-3977.773148)">
        <g transform="matrix(4.166667,0,0,4.166667,0,0)">
            <path d="M496.76,964.92C498.7,963.93 501.23,962.03 503.27,963.91C506.3,967.03 505.9,971.89 508.33,975.41C512.63,972.71 516.73,969.59 521.4,967.54C523.23,966.4 525.67,968.08 525.92,970.06C526.21,972.21 525.86,974.41 525.4,976.53C521.88,988.87 519.2,1001.47 514.78,1013.55C519.56,1018.08 524.59,1022.32 530.06,1026.01C531.92,1027 531.39,1029.13 530.69,1030.7C524.04,1031.71 518.03,1028.38 512.24,1025.65C512.57,1030.84 512.05,1036.02 511.48,1041.18C516.68,1040.31 521.79,1038.84 527.04,1038.31C528.69,1037.99 530.48,1039.19 530.46,1040.96C530.64,1046.45 528.66,1051.69 527.07,1056.87C525.07,1062.4 523.93,1068.18 522.42,1073.87C521.93,1075.65 521.88,1077.55 522.49,1079.34C524.3,1085.71 526.92,1091.92 530.87,1097.27C530.95,1099.56 531.02,1101.87 531.1,1104.19C529.66,1104.42 528.22,1104.65 526.78,1104.86C526.38,1098.5 521.64,1093.87 519.9,1087.98C518.67,1084.04 516.76,1080.16 516.81,1075.98C518.45,1065.15 522.29,1054.87 525.32,1044.39C520.5,1044.96 515.8,1046.13 511.06,1047.08C510.71,1047.92 510.36,1048.77 510.03,1049.64C512.56,1048.77 515.24,1046.44 517.96,1047.91C519.07,1049.86 517.99,1052.27 515.98,1053.06C501.2,1060.35 485.01,1064.17 470.16,1071.27C464.05,1074.43 457.02,1075.49 451.36,1079.53C456.35,1080.69 461.36,1082.44 466.53,1082.33C475.56,1078.37 483.93,1072.88 493.2,1069.39C494.48,1069.67 495.67,1070.16 496.91,1070.63C496.13,1071.87 496.03,1073.74 494.64,1074.54C489.71,1077.52 484.09,1079.13 479.16,1082.13C476.02,1084.04 472.61,1085.48 469.44,1087.34C464.32,1092.14 460.03,1098.02 458.02,1104.82C457.35,1107.97 454.31,1107.07 452.3,1105.82C453.7,1099.04 457.4,1093.04 461.58,1087.63C455.54,1085.91 449.37,1084.78 443.14,1084.11C441.04,1083.64 441.56,1081.15 441.1,1079.58C446.89,1074.89 453.63,1071.61 460.5,1068.84C455.31,1067.35 449.24,1068.95 444.76,1065.3C439.35,1060.64 438.76,1051.57 442.88,1045.89C445.6,1043.33 449.65,1041.72 450.53,1037.68C451.57,1031.82 452.93,1025.97 455.49,1020.56C457.21,1017.33 460.16,1015.06 462.77,1012.6C457.8,1011.12 452.94,1009.3 447.94,1007.91C444.4,1007.06 441.44,1004.87 438.4,1002.98C438.93,1001.55 438.87,999.77 440.03,998.68C443.99,998.3 447.98,998.64 451.95,998.72C457.8,998.83 463.74,1000.75 469.54,999.33C473.09,997.18 474.48,993 476.73,989.72C480.1,983.92 485.01,979.3 489.1,974.06C491.57,970.95 492.89,966.65 496.76,964.92M491.17,980.12C486.17,985.58 481.63,991.44 478.03,997.93C476.8,1000.49 475.06,1002.76 472.85,1004.56C470,1004.93 467.19,1005.74 464.27,1005.39C475.42,1010.27 487.59,1012.05 498.9,1016.44C504.04,1017.61 509.07,1019.21 514.13,1020.7C512.1,1018.72 510.01,1016.81 507.98,1014.85C508.22,1013.82 508.47,1012.8 508.72,1011.79C509.14,1011.44 509.99,1010.75 510.42,1010.4C510.61,1009.51 510.81,1008.64 511.03,1007.78C515.28,996.93 517.23,985.32 520.53,974.16C517.22,975.87 514.27,978.15 511.18,980.21C509.43,981.7 506.98,981.21 505.43,979.71C501.76,977.41 501.68,972.77 500.42,969.08C495.9,971.39 494.55,976.65 491.17,980.12M454.51,1041.98C452.79,1046.6 446.63,1047.72 445.71,1052.76C444.92,1055.33 445.97,1058.24 447.73,1060.17C449.84,1062.44 453.15,1062.32 456,1062.46C460.84,1062.45 465.32,1064.49 469.93,1065.75C471.4,1064.31 473.02,1063.01 474.28,1061.38C476.05,1058.8 476.63,1054.89 480.33,1054.39C480.89,1056.13 481.43,1057.89 482.15,1059.6C479.59,1059.52 482.36,1062.94 482.53,1060.3C485.77,1058.79 489.19,1057.7 492.65,1056.79C496.44,1055.51 500.13,1053.97 503.94,1052.74C506.32,1044.04 507.22,1034.81 506.27,1025.83C501.37,1025.48 496.92,1023.19 492.15,1022.24C496.71,1025.16 499.42,1030.58 499.19,1035.98C499.09,1040.58 496.64,1044.82 493.39,1047.96C489.77,1050.56 485.64,1052.35 481.15,1052.61C476.95,1051.88 472.17,1051.16 469.33,1047.62C465.46,1043.58 463.76,1037.34 466.18,1032.13C464.71,1031.81 461.77,1031.36 462.56,1029.15C462.76,1025.41 467.08,1025.87 469.74,1025.54C471.74,1023.96 473.8,1022.44 475.9,1021C471.65,1020.58 467.32,1020.31 463.08,1020.83C456.5,1026.01 457.3,1034.9 454.51,1041.98M484.32,1028.87C484.3,1030.21 484.27,1031.56 484.25,1032.93C482.98,1034.2 481.76,1035.52 480.62,1036.91C482.68,1036.98 484.95,1035.84 486.89,1036.84C489.09,1038.02 488.06,1041.17 486.16,1042.11C482.47,1045.59 475.39,1043.16 474.89,1038C473.94,1034.75 476.45,1032.25 478.33,1029.99C476.29,1030.33 474.21,1030.56 472.26,1031.27C469.59,1034.74 469.66,1040.04 472.72,1043.28C474.4,1045.62 477.36,1046.1 479.87,1047.1C483.91,1046.39 488.61,1045.83 491.17,1042.18C494.83,1038.38 494.78,1032.15 491.2,1028.32C488.91,1028.5 486.61,1028.64 484.32,1028.87Z" style="fill:rgb(61,37,97);fill-rule:nonzero;"/>
        </g>
        <g transform="matrix(4.166667,0,0,4.166667,0,0)">
            <path d="M489.6,1083.47C491.08,1081.82 492.42,1079.2 495.06,1079.68C498.03,1079.2 498.37,1082.7 499.3,1084.69C500.67,1089.35 503.32,1093.47 504.85,1098.07C505.84,1100.08 504.34,1102.9 502.02,1102.91C496.37,1103.7 490.62,1103.89 484.96,1103.22C482.92,1102.78 480.97,1103.53 479.06,1104.1C475.51,1102.75 471.7,1103.83 468.07,1103.27C465.36,1102.68 465.94,1099.9 466.02,1097.84C470.18,1097.17 474.38,1097.89 478.57,1097.55C482.09,1092.74 486,1088.22 489.6,1083.47M486.22,1097.44C490.37,1098.06 494.59,1097.99 498.77,1097.66C497.35,1093.98 495.81,1090.35 494.04,1086.83C491.57,1090.42 487.73,1093.36 486.22,1097.44Z" style="fill:rgb(61,37,97);fill-rule:nonzero;"/>
        </g>
        <g transform="matrix(4.166667,0,0,4.166667,0,0)">
            <path d="M401,954.67C451.33,954.67 501.67,954.66 552,954.67C551.96,1005.02 552.08,1055.36 551.94,1105.71C520.53,1105.6 489.11,1105.7 457.7,1105.65L458.02,1104.82C460.03,1098.02 464.32,1092.14 469.44,1087.34C472.61,1085.48 476.02,1084.04 479.16,1082.13C484.09,1079.13 489.71,1077.52 494.64,1074.54C496.03,1073.74 496.13,1071.87 496.91,1070.63C495.67,1070.16 494.48,1069.67 493.2,1069.39C483.93,1072.88 475.56,1078.37 466.53,1082.33C461.36,1082.44 456.35,1080.69 451.36,1079.53C457.02,1075.49 464.05,1074.43 470.16,1071.27C485.01,1064.17 501.2,1060.35 515.98,1053.06C517.99,1052.27 519.07,1049.86 517.96,1047.91C515.24,1046.44 512.56,1048.77 510.03,1049.64C510.36,1048.77 510.71,1047.92 511.06,1047.08C515.8,1046.13 520.5,1044.96 525.32,1044.39C522.29,1054.87 518.45,1065.15 516.81,1075.98C516.76,1080.16 518.67,1084.04 519.9,1087.98C521.64,1093.87 526.38,1098.5 526.78,1104.86C528.22,1104.65 529.66,1104.42 531.1,1104.19C531.02,1101.87 530.95,1099.56 530.87,1097.27C526.92,1091.92 524.3,1085.71 522.49,1079.34C521.88,1077.55 521.93,1075.65 522.42,1073.87C523.93,1068.18 525.07,1062.4 527.07,1056.87C528.66,1051.69 530.64,1046.45 530.46,1040.96C530.48,1039.19 528.69,1037.99 527.04,1038.31C521.79,1038.84 516.68,1040.31 511.48,1041.18C512.05,1036.02 512.57,1030.84 512.24,1025.65C518.03,1028.38 524.04,1031.71 530.69,1030.7C531.39,1029.13 531.92,1027 530.06,1026.01C524.59,1022.32 519.56,1018.08 514.78,1013.55C519.2,1001.47 521.88,988.87 525.4,976.53C525.86,974.41 526.21,972.21 525.92,970.06C525.67,968.08 523.23,966.4 521.4,967.54C516.73,969.59 512.63,972.71 508.33,975.41C505.9,971.89 506.3,967.03 503.27,963.91C501.23,962.03 498.7,963.93 496.76,964.92C492.89,966.65 491.57,970.95 489.1,974.06C485.01,979.3 480.1,983.92 476.73,989.72C474.48,993 473.09,997.18 469.54,999.33C463.74,1000.75 457.8,998.83 451.95,998.72C447.98,998.64 443.99,998.3 440.03,998.68C438.87,999.77 438.93,1001.55 438.4,1002.98C441.44,1004.87 444.4,1007.06 447.94,1007.91C452.94,1009.3 457.8,1011.12 462.77,1012.6C460.16,1015.06 457.21,1017.33 455.49,1020.56C452.93,1025.97 451.57,1031.82 450.53,1037.68C449.65,1041.72 445.6,1043.33 442.88,1045.89C438.76,1051.57 439.35,1060.64 444.76,1065.3C449.24,1068.95 455.31,1067.35 460.5,1068.84C453.63,1071.61 446.89,1074.89 441.1,1079.58C441.56,1081.15 441.04,1083.64 443.14,1084.11C449.37,1084.78 455.54,1085.91 461.58,1087.63C457.4,1093.04 453.7,1099.04 452.3,1105.82C435.22,1105.48 418.13,1105.72 401.05,1105.7C400.94,1055.36 401.04,1005.01 401,954.67M489.6,1083.47C486,1088.22 482.09,1092.74 478.57,1097.55C474.38,1097.89 470.18,1097.17 466.02,1097.84C465.94,1099.9 465.36,1102.68 468.07,1103.27C471.7,1103.83 475.51,1102.75 479.06,1104.1C480.97,1103.53 482.92,1102.78 484.96,1103.22C490.62,1103.89 496.37,1103.7 502.02,1102.91C504.34,1102.9 505.84,1100.08 504.85,1098.07C503.32,1093.47 500.67,1089.35 499.3,1084.69C498.37,1082.7 498.03,1079.2 495.06,1079.68C492.42,1079.2 491.08,1081.82 489.6,1083.47Z" style="fill:rgb(252,253,222);fill-rule:nonzero;"/>
        </g>
        <g transform="matrix(4.166667,0,0,4.166667,0,0)">
            <path d="M491.17,980.12C494.55,976.65 495.9,971.39 500.42,969.08C501.68,972.77 501.76,977.41 505.43,979.71C506.98,981.21 509.43,981.7 511.18,980.21C514.27,978.15 517.22,975.87 520.53,974.16C517.23,985.32 515.28,996.93 511.03,1007.78C499.81,1005.23 489.06,1001.12 478.03,997.93C481.63,991.44 486.17,985.58 491.17,980.12Z" style="fill:rgb(252,253,222);fill-rule:nonzero;"/>
        </g>
        <g transform="matrix(4.166667,0,0,4.166667,0,0)">
            <path d="M464.27,1005.39C467.19,1005.74 470,1004.93 472.85,1004.56C484.58,1007.92 496.07,1012.11 507.98,1014.85C510.01,1016.81 512.1,1018.72 514.13,1020.7C509.07,1019.21 504.04,1017.61 498.9,1016.44C487.59,1012.05 475.42,1010.27 464.27,1005.39Z" style="fill:rgb(252,253,222);fill-rule:nonzero;"/>
        </g>
        <g transform="matrix(4.166667,0,0,4.166667,0,0)">
            <path d="M454.51,1041.98C457.3,1034.9 456.5,1026.01 463.08,1020.83C467.32,1020.31 471.65,1020.58 475.9,1021C473.8,1022.44 471.74,1023.96 469.74,1025.54C467.08,1025.87 462.76,1025.41 462.56,1029.15C461.77,1031.36 464.71,1031.81 466.18,1032.13C463.76,1037.34 465.46,1043.58 469.33,1047.62C472.17,1051.16 476.95,1051.88 481.15,1052.61C480.87,1053.19 480.59,1053.78 480.33,1054.39C476.63,1054.89 476.05,1058.8 474.28,1061.38C473.02,1063.01 471.4,1064.31 469.93,1065.75C465.32,1064.49 460.84,1062.45 456,1062.46C453.15,1062.32 449.84,1062.44 447.73,1060.17C445.97,1058.24 444.92,1055.33 445.71,1052.76C446.63,1047.72 452.79,1046.6 454.51,1041.98Z" style="fill:rgb(252,253,222);fill-rule:nonzero;"/>
        </g>
        <g transform="matrix(4.166667,0,0,4.166667,0,0)">
            <path d="M492.15,1022.24C496.92,1023.19 501.37,1025.48 506.27,1025.83C507.22,1034.81 506.32,1044.04 503.94,1052.74C500.13,1053.97 496.44,1055.51 492.65,1056.79C493.2,1053.87 493.55,1050.92 493.39,1047.96C496.64,1044.82 499.09,1040.58 499.19,1035.98C499.42,1030.58 496.71,1025.16 492.15,1022.24Z" style="fill:rgb(252,253,222);fill-rule:nonzero;"/>
        </g>
        <g transform="matrix(4.166667,0,0,4.166667,0,0)">
            <path d="M484.32,1028.87C486.61,1028.64 488.91,1028.5 491.2,1028.32C494.78,1032.15 494.83,1038.38 491.17,1042.18C488.61,1045.83 483.91,1046.39 479.87,1047.1C477.36,1046.1 474.4,1045.62 472.72,1043.28C469.66,1040.04 469.59,1034.74 472.26,1031.27C474.21,1030.56 476.29,1030.33 478.33,1029.99C476.45,1032.25 473.94,1034.75 474.89,1038C475.39,1043.16 482.47,1045.59 486.16,1042.11C488.06,1041.17 489.09,1038.02 486.89,1036.84C484.95,1035.84 482.68,1036.98 480.62,1036.91C481.76,1035.52 482.98,1034.2 484.25,1032.93C484.27,1031.56 484.3,1030.21 484.32,1028.87Z" style="fill:rgb(252,253,222);fill-rule:nonzero;"/>
        </g>
        <g transform="matrix(4.166667,0,0,4.166667,0,0)">
            <path d="M482.53,1060.3C482.36,1062.94 479.59,1059.52 482.15,1059.6L482.53,1060.3Z" style="fill:rgb(252,253,222);fill-rule:nonzero;"/>
        </g>
        <g transform="matrix(4.166667,0,0,4.166667,0,0)">
            <path d="M472.85,1004.56C475.06,1002.76 476.8,1000.49 478.03,997.93C489.06,1001.12 499.81,1005.23 511.03,1007.78C510.81,1008.64 510.61,1009.51 510.42,1010.4C509.99,1010.75 509.14,1011.44 508.72,1011.79C508.47,1012.8 508.22,1013.82 507.98,1014.85C496.07,1012.11 484.58,1007.92 472.85,1004.56Z" style="fill:rgb(236,28,52);fill-rule:nonzero;"/>
        </g>
        <g transform="matrix(4.166667,0,0,4.166667,0,0)">
            <path d="M481.15,1052.61C485.64,1052.35 489.77,1050.56 493.39,1047.96C493.55,1050.92 493.2,1053.87 492.65,1056.79C489.19,1057.7 485.77,1058.79 482.53,1060.3L482.15,1059.6C481.43,1057.89 480.89,1056.13 480.33,1054.39C480.59,1053.78 480.87,1053.19 481.15,1052.61Z" style="fill:rgb(236,28,52);fill-rule:nonzero;"/>
        </g>
        <g transform="matrix(4.166667,0,0,4.166667,0,0)">
            <path d="M486.22,1097.44C487.73,1093.36 491.57,1090.42 494.04,1086.83C495.81,1090.35 497.35,1093.98 498.77,1097.66C494.59,1097.99 490.37,1098.06 486.22,1097.44Z" style="fill:rgb(236,28,52);fill-rule:nonzero;"/>
        </g>
    </g>
</svg>
