<?xml version="1.0" encoding="UTF-8" standalone="no"?>
<!DOCTYPE svg PUBLIC "-//W3C//DTD SVG 1.1//EN" "http://www.w3.org/Graphics/SVG/1.1/DTD/svg11.dtd">
<svg width="100%" height="100%" viewBox="0 0 630 630" version="1.1" xmlns="http://www.w3.org/2000/svg" xmlns:xlink="http://www.w3.org/1999/xlink" xml:space="preserve" xmlns:serif="http://www.serif.com/" style="fill-rule:evenodd;clip-rule:evenodd;stroke-linejoin:round;stroke-miterlimit:2;">
    <g transform="matrix(1,0,0,1,-1670.833333,-316.666667)">
        <g transform="matrix(4.166667,0,0,4.166667,0,0)">
            <path d="M499.14,89.25C499.76,87.83 501.43,88.22 502.67,88.03C503.38,89.01 504.12,89.99 504.87,90.95C503.51,105.26 505.59,119.6 504.41,133.91C503.47,143.62 503.9,153.4 502.82,163.1C501.9,173.11 502.27,183.61 498.11,192.98C495.19,197.37 491.77,201.74 486.88,204.03C490.99,210.24 494.97,216.59 499.93,222.18C499.35,223.32 498.73,224.45 498.07,225.55C496.41,225.4 494.59,224.98 493.52,223.6C489.37,217.99 485.9,211.91 481.58,206.42C477.73,207.99 473.62,208.89 469.45,208.72C466.36,214.4 463.56,220.24 461,226.17C459.51,226.82 457.56,226.63 456.83,224.99C457.45,218.97 461.07,213.83 463.59,208.48C458.02,207.96 453.29,204.64 447.91,203.46C443.37,203.34 438.31,203.53 434.68,200.3C429.94,195.81 429.37,187.99 432.42,182.4C433.74,179.41 437.54,178.9 439.26,176.25C442.04,172.33 441.6,167.29 442.88,162.85C438.38,164.42 433.91,167.09 428.96,165.96C422.85,164.89 415.18,161.21 415.34,154C416.02,148.21 419.45,142.36 424.92,139.89C429.84,137.27 435.25,135.85 440.74,135.03C442,129.98 444.09,124.76 448.69,121.86C446.11,118.36 446.75,113.98 445.92,109.96C444.76,104.2 446.04,97.49 450.36,93.3C453.48,91 456.79,87.85 461.01,88.49C465.92,89.66 470.65,92.4 473.1,96.99C477.11,104.11 475.54,112.49 475.58,120.27C477.12,117.16 477.82,113.75 478.31,110.34C479.88,110.58 482.26,110.11 482.93,112.03C483.84,116.09 483.13,120.55 485.35,124.25C491.58,113.29 495.39,101.21 499.14,89.25M452.89,98C450.9,100.54 450.77,103.87 450.85,106.96C451.31,110.21 451.9,113.44 452.23,116.71C453,117.87 453.76,119.03 454.53,120.21C455.16,120.16 456.42,120.06 457.05,120C457.53,116.56 457.34,112.92 458.58,109.64C459.7,107.94 461.85,108.92 462.8,110.26C463.43,113.86 462.4,117.47 461.94,121.03C463.2,121.88 464.44,122.75 465.7,123.62C466.56,124.4 467.25,125.48 468.42,125.85C469.78,122.74 470.58,119.39 470.63,115.99C470.65,113.82 470.58,111.65 470.36,109.49C471.52,102.4 466.48,94.49 459.03,94.07C456.87,95.17 454.8,96.51 452.89,98M488.33,131.05C487.17,133.84 483.65,135.69 480.89,133.97C480.55,130.54 480.38,127.09 479.58,123.73C478.35,126.28 477.16,128.85 476.31,131.55C475.05,133.02 473.79,134.48 472.53,135.95C480.89,139.3 489.77,140.99 498.39,143.51C498.85,131.89 499.13,120.25 498.69,108.62C495.47,116.2 492.01,123.68 488.33,131.05M445.5,136.53C444.72,139.51 447.54,141.68 449.81,143.01C452.4,144.58 455.52,143.49 458.34,143.35C460.43,141.81 462.7,140.47 464.55,138.63C465.1,134.89 464.61,130.75 461.97,127.86C459.91,125.78 456.71,125.2 453.95,125.99C448.89,126.74 446.69,132.18 445.5,136.53M427.93,144.65C425.1,146.07 422.19,148.05 421.24,151.25C420.71,152.93 419.91,155.16 421.53,156.51C424.19,159.25 428.26,160.29 431.94,160.69C437.29,159.53 442.6,157.53 446.82,153.94L446.34,154.18C446.76,153.59 447.58,152.4 448,151.81C449.17,152.75 450.91,150.95 450.95,149.71C450.47,148.43 449.72,148.25 448.67,149.16C443.74,144.58 440.56,156.1 435.67,152.06C435.12,148.02 439.44,146.03 441.93,143.66C441.32,142.62 440.71,141.58 440.11,140.54C436,141.72 431.58,142.25 427.93,144.65M466.76,143.44C472.01,143.83 476.85,146.05 481.97,147.09C486.98,148.27 491.73,150.36 496.71,151.69C496.66,151 496.58,149.62 496.53,148.93C491.28,147.24 485.96,145.77 480.57,144.62C476.64,143.85 473.13,141.55 469.1,141.31C467.98,141.51 467.54,142.76 466.76,143.44M450.5,159.57C446.01,165.1 447.8,173.07 443.92,178.88C442.49,181.11 440.19,182.49 438.21,184.15C435.04,187.18 435,192.73 438.29,195.71C440.85,198.23 444.71,197.49 447.95,197.9C452.16,198.06 455.94,200.19 460.03,200.95C463.8,198.9 465.67,194.96 467.58,191.36C468.66,188.95 472.33,190.72 472,192.98C471.96,196.73 469.18,199.7 466.75,202.27C471.9,202.52 477.21,202.31 482.03,200.31C489.12,197.93 494.13,191.13 495.43,183.92C496.87,175.19 497.12,166.33 497.94,157.53C490.75,156.39 484.18,152.96 477.04,151.61C472.33,150.22 467.51,149.24 462.85,147.71C458.2,151.04 453.66,154.73 450.5,159.57Z" style="fill:rgb(61,37,97);fill-rule:nonzero;"/>
        </g>
        <g transform="matrix(4.166667,0,0,4.166667,0,0)">
            <path d="M463.17,161.15C470.48,157.49 480.34,161.28 482.95,169.12C485.66,174.52 483.36,180.66 479.99,185.16C479.29,185.73 478.59,186.29 477.88,186.84C471.31,191.72 460.49,189.76 456.63,182.33C452.08,175.21 455.54,164.59 463.17,161.15M463.32,167.13C461.97,168.9 459.96,170.5 459.94,172.92C458.6,179.48 465.67,185.73 472.01,183.58C479.46,182.33 481.28,170.85 474.7,167.21C471.36,164.39 466.9,165.49 463.32,167.13Z" style="fill:rgb(61,37,97);fill-rule:nonzero;"/>
        </g>
        <g transform="matrix(4.166667,0,0,4.166667,0,0)">
            <path d="M466.36,168.5C467.81,167.4 469.81,167.94 470.88,169.32C470.71,171.21 469.79,172.93 469.24,174.73C470.94,175.96 474.45,176.29 473.41,179.12C472.24,182.49 467.47,181.73 465.9,179.07C462.86,176.16 463.61,171.27 466.36,168.5Z" style="fill:rgb(61,37,97);fill-rule:nonzero;"/>
        </g>
        <g transform="matrix(4.166667,0,0,4.166667,0,0)">
            <path d="M401,76L552,76L552,227C501.67,227 451.33,226.98 401,227C401.01,176.66 401,126.33 401,76M499.14,89.25C495.39,101.21 491.58,113.29 485.35,124.25C483.13,120.55 483.84,116.09 482.93,112.03C482.26,110.11 479.88,110.58 478.31,110.34C477.82,113.75 477.12,117.16 475.58,120.27C475.54,112.49 477.11,104.11 473.1,96.99C470.65,92.4 465.92,89.66 461.01,88.49C456.79,87.85 453.48,91 450.36,93.3C446.04,97.49 444.76,104.2 445.92,109.96C446.75,113.98 446.11,118.36 448.69,121.86C444.09,124.76 442,129.98 440.74,135.03C435.25,135.85 429.84,137.27 424.92,139.89C419.45,142.36 416.02,148.21 415.34,154C415.18,161.21 422.85,164.89 428.96,165.96C433.91,167.09 438.38,164.42 442.88,162.85C441.6,167.29 442.04,172.33 439.26,176.25C437.54,178.9 433.74,179.41 432.42,182.4C429.37,187.99 429.94,195.81 434.68,200.3C438.31,203.53 443.37,203.34 447.91,203.46C453.29,204.64 458.02,207.96 463.59,208.48C461.07,213.83 457.45,218.97 456.83,224.99C457.56,226.63 459.51,226.82 461,226.17C463.56,220.24 466.36,214.4 469.45,208.72C473.62,208.89 477.73,207.99 481.58,206.42C485.9,211.91 489.37,217.99 493.52,223.6C494.59,224.98 496.41,225.4 498.07,225.55C498.73,224.45 499.35,223.32 499.93,222.18C494.97,216.59 490.99,210.24 486.88,204.03C491.77,201.74 495.19,197.37 498.11,192.98C502.27,183.61 501.9,173.11 502.82,163.1C503.9,153.4 503.47,143.62 504.41,133.91C505.59,119.6 503.51,105.26 504.87,90.95C504.12,89.99 503.38,89.01 502.67,88.03C501.43,88.22 499.76,87.83 499.14,89.25Z" style="fill:rgb(252,253,222);fill-rule:nonzero;"/>
        </g>
        <g transform="matrix(4.166667,0,0,4.166667,0,0)">
            <path d="M452.89,98C454.8,96.51 456.87,95.17 459.03,94.07C466.48,94.49 471.52,102.4 470.36,109.49C469.58,105.98 469.07,102.23 467,99.19C465.58,96.97 462.51,95.59 460.02,96.81C455.6,98.61 452.77,102.78 450.85,106.96C450.77,103.87 450.9,100.54 452.89,98Z" style="fill:rgb(252,253,222);fill-rule:nonzero;"/>
        </g>
        <g transform="matrix(4.166667,0,0,4.166667,0,0)">
            <path d="M488.33,131.05C492.01,123.68 495.47,116.2 498.69,108.62C499.13,120.25 498.85,131.89 498.39,143.51C489.77,140.99 480.89,139.3 472.53,135.95C473.79,134.48 475.05,133.02 476.31,131.55C477.16,128.85 478.35,126.28 479.58,123.73C480.38,127.09 480.55,130.54 480.89,133.97C483.65,135.69 487.17,133.84 488.33,131.05Z" style="fill:rgb(252,253,222);fill-rule:nonzero;"/>
        </g>
        <g transform="matrix(4.166667,0,0,4.166667,0,0)">
            <path d="M470.63,115.99C470.58,119.39 469.78,122.74 468.42,125.85C467.25,125.48 466.56,124.4 465.7,123.62C467.58,121.24 469.39,118.77 470.63,115.99Z" style="fill:rgb(252,253,222);fill-rule:nonzero;"/>
        </g>
        <g transform="matrix(4.166667,0,0,4.166667,0,0)">
            <path d="M421.24,151.25C422.19,148.05 425.1,146.07 427.93,144.65C426.49,147.25 425.05,149.97 424.75,152.98C424.6,155.85 427.46,157.9 430.04,158.31C435.81,159.21 441.3,156.64 446.34,154.18L446.82,153.94C442.6,157.53 437.29,159.53 431.94,160.69C428.26,160.29 424.19,159.25 421.53,156.51C419.91,155.16 420.71,152.93 421.24,151.25Z" style="fill:rgb(252,253,222);fill-rule:nonzero;"/>
        </g>
        <g transform="matrix(4.166667,0,0,4.166667,0,0)">
            <path d="M450.5,159.57C453.66,154.73 458.2,151.04 462.85,147.71C467.51,149.24 472.33,150.22 477.04,151.61C484.18,152.96 490.75,156.39 497.94,157.53C497.12,166.33 496.87,175.19 495.43,183.92C494.13,191.13 489.12,197.93 482.03,200.31C477.21,202.31 471.9,202.52 466.75,202.27C469.18,199.7 471.96,196.73 472,192.98C472.33,190.72 468.66,188.95 467.58,191.36C465.67,194.96 463.8,198.9 460.03,200.95C455.94,200.19 452.16,198.06 447.95,197.9C444.71,197.49 440.85,198.23 438.29,195.71C435,192.73 435.04,187.18 438.21,184.15C440.19,182.49 442.49,181.11 443.92,178.88C447.8,173.07 446.01,165.1 450.5,159.57M463.17,161.15C455.54,164.59 452.08,175.21 456.63,182.33C460.49,189.76 471.31,191.72 477.88,186.84C477.9,189.58 476.68,192.91 478.92,195.11C481.54,197.48 485.72,196.39 488.15,194.25C491.29,191.72 491.49,186.22 488.24,183.71C485.53,181.94 482.17,183.13 479.99,185.16C483.36,180.66 485.66,174.52 482.95,169.12C480.34,161.28 470.48,157.49 463.17,161.15Z" style="fill:rgb(252,253,222);fill-rule:nonzero;"/>
        </g>
        <g transform="matrix(4.166667,0,0,4.166667,0,0)">
            <path d="M448.67,149.16C449.72,148.25 450.47,148.43 450.95,149.71C450.91,150.95 449.17,152.75 448,151.81C448.17,151.15 448.5,149.82 448.67,149.16Z" style="fill:rgb(252,253,222);fill-rule:nonzero;"/>
        </g>
        <g transform="matrix(4.166667,0,0,4.166667,0,0)">
            <path d="M463.32,167.13C466.9,165.49 471.36,164.39 474.7,167.21C481.28,170.85 479.46,182.33 472.01,183.58C465.67,185.73 458.6,179.48 459.94,172.92C459.96,170.5 461.97,168.9 463.32,167.13M466.36,168.5C463.61,171.27 462.86,176.16 465.9,179.07C467.47,181.73 472.24,182.49 473.41,179.12C474.45,176.29 470.94,175.96 469.24,174.73C469.79,172.93 470.71,171.21 470.88,169.32C469.81,167.94 467.81,167.4 466.36,168.5Z" style="fill:rgb(252,253,222);fill-rule:nonzero;"/>
        </g>
        <g transform="matrix(4.166667,0,0,4.166667,0,0)">
            <path d="M450.85,106.96C452.77,102.78 455.6,98.61 460.02,96.81C462.51,95.59 465.58,96.97 467,99.19C469.07,102.23 469.58,105.98 470.36,109.49C470.58,111.65 470.65,113.82 470.63,115.99C469.39,118.77 467.58,121.24 465.7,123.62C464.44,122.75 463.2,121.88 461.94,121.03C462.4,117.47 463.43,113.86 462.8,110.26C461.85,108.92 459.7,107.94 458.58,109.64C457.34,112.92 457.53,116.56 457.05,120C456.42,120.06 455.16,120.16 454.53,120.21C453.76,119.03 453,117.87 452.23,116.71C451.9,113.44 451.31,110.21 450.85,106.96Z" style="fill:rgb(236,28,52);fill-rule:nonzero;"/>
        </g>
        <g transform="matrix(4.166667,0,0,4.166667,0,0)">
            <path d="M451.41,130.56C454.25,129.52 457.52,130.27 459.89,132.06C460.99,133.55 461.37,135.43 462.11,137.1C461.3,143.07 453.86,145.13 449.24,142C444.82,139.32 446.51,131.55 451.41,130.56Z" style="fill:rgb(236,28,52);fill-rule:nonzero;"/>
        </g>
        <g transform="matrix(4.166667,0,0,4.166667,0,0)">
            <path d="M427.93,144.65C431.58,142.25 436,141.72 440.11,140.54C440.71,141.58 441.32,142.62 441.93,143.66C439.44,146.03 435.12,148.02 435.67,152.06C440.56,156.1 443.74,144.58 448.67,149.16C448.5,149.82 448.17,151.15 448,151.81C447.58,152.4 446.76,153.59 446.34,154.18C441.3,156.64 435.81,159.21 430.04,158.31C427.46,157.9 424.6,155.85 424.75,152.98C425.05,149.97 426.49,147.25 427.93,144.65Z" style="fill:rgb(236,28,52);fill-rule:nonzero;"/>
        </g>
        <g transform="matrix(4.166667,0,0,4.166667,0,0)">
            <path d="M479.99,185.16C482.17,183.13 485.53,181.94 488.24,183.71C491.49,186.22 491.29,191.72 488.15,194.25C485.72,196.39 481.54,197.48 478.92,195.11C476.68,192.91 477.9,189.58 477.88,186.84C478.59,186.29 479.29,185.73 479.99,185.16Z" style="fill:rgb(236,28,52);fill-rule:nonzero;"/>
        </g>
        <g transform="matrix(4.166667,0,0,4.166667,0,0)">
            <path d="M445.5,136.53C446.69,132.18 448.89,126.74 453.95,125.99C456.71,125.2 459.91,125.78 461.97,127.86C464.61,130.75 465.1,134.89 464.55,138.63C462.7,140.47 460.43,141.81 458.34,143.35C455.52,143.49 452.4,144.58 449.81,143.01C447.54,141.68 444.72,139.51 445.5,136.53M451.41,130.56C446.51,131.55 444.82,139.32 449.24,142C453.86,145.13 461.3,143.07 462.11,137.1C461.37,135.43 460.99,133.55 459.89,132.06C457.52,130.27 454.25,129.52 451.41,130.56Z" style="fill:rgb(251,252,222);fill-rule:nonzero;"/>
        </g>
        <g transform="matrix(4.166667,0,0,4.166667,0,0)">
            <path d="M466.76,143.44C467.54,142.76 467.98,141.51 469.1,141.31C473.13,141.55 476.64,143.85 480.57,144.62C485.96,145.77 491.28,147.24 496.53,148.93C496.58,149.62 496.66,151 496.71,151.69C491.73,150.36 486.98,148.27 481.97,147.09C476.85,146.05 472.01,143.83 466.76,143.44Z" style="fill:rgb(252,253,223);fill-rule:nonzero;"/>
        </g>
    </g>
</svg>
