<?xml version="1.0" encoding="UTF-8" standalone="no"?>
<!DOCTYPE svg PUBLIC "-//W3C//DTD SVG 1.1//EN" "http://www.w3.org/Graphics/SVG/1.1/DTD/svg11.dtd">
<svg width="100%" height="100%" viewBox="0 0 630 637" version="1.1" xmlns="http://www.w3.org/2000/svg" xmlns:xlink="http://www.w3.org/1999/xlink" xml:space="preserve" xmlns:serif="http://www.serif.com/" style="fill-rule:evenodd;clip-rule:evenodd;stroke-linejoin:round;stroke-miterlimit:2;">
    <g transform="matrix(1,0,0,1,-219.439815,-1054.121667)">
        <g transform="matrix(4.166667,0,0,4.166667,0,0)">
            <path d="M112.56,285.59C118.11,280.28 125.52,277.12 132.89,275.35C137.62,273.89 142.46,275.75 146,278.95C149.95,282.68 153.78,286.54 157.77,290.23C160.98,292.86 159.39,297.34 159.9,300.9C160.54,308.35 159.51,315.81 157.4,322.95C159.71,324.34 162.54,325.87 162.75,328.91C165.02,336.99 160.59,344.63 160.33,352.64C159.63,355.8 155.52,354.78 153.2,354.41C152.6,355.98 152.01,357.57 151.36,359.12C150.1,362.37 149.49,365.87 147.89,368.99C145.22,373.21 141.75,377.01 137.41,379.57C139.28,384.04 142.15,388.06 143.52,392.75C144.37,395.55 145.98,398.05 146.85,400.85C146.73,403.44 143.23,404.48 141.89,402.16C138.72,397.05 137.81,390.88 134.34,385.9C127.87,388.06 121.6,390.77 115.21,393.18C113.63,393.98 111.89,393.39 110.28,393.08C108.44,396.3 107.16,399.82 105.14,402.93C104.36,404.04 103.52,405.49 102.04,405.7C101.08,405.21 100.15,404.67 99.24,404.08C101.71,396.8 105.57,390.11 108.81,383.18C105.29,381.73 101.82,380.02 98.07,379.24C93.6,378.82 88.57,379.29 84.9,376.15C79.64,371.45 79.24,362.68 83.1,356.98C85.21,354.77 88.41,353.67 89.92,350.88C91.38,348.45 91.5,345.54 91.86,342.81C89.49,340.83 86.32,338.58 86.87,335.04C87.53,329.65 88.33,324.27 89,318.88C91.02,312.29 95.25,305.73 101.87,303.05C106.57,297.88 107.25,290.28 112.56,285.59M129.88,281.9C125.13,283.86 120.06,285.64 116.4,289.41C114.01,291.74 112.59,294.81 111.39,297.87C110.62,300.13 109.28,302.11 107.53,303.73C107.44,304.18 107.26,305.07 107.17,305.52C110.65,306.19 114.32,306 117.68,307.22C118.39,308.94 118.76,311.91 116.18,312.09C112.54,312.05 108.95,311.25 105.31,311.24C103.15,310.97 100.37,309.58 98.67,311.63C97.04,314.21 95.77,317.03 93.86,319.44C93.73,325.13 92.36,330.78 92.4,336.43C96.97,338.59 102.62,336.36 107.31,338.57C113.53,341.25 120.36,341.44 126.94,342.62C135.9,345.26 144.97,348.88 154.5,348.06C155.7,350.37 157.4,346.11 155.65,345.31C156.79,342.55 157.3,339.6 158.11,336.74C158.31,334.27 158.05,331.8 157.59,329.37C153.21,327.35 148.43,326.21 144.39,323.5C144.59,322.53 145,320.58 145.2,319.61C147.6,320.02 150.02,320.3 152.42,320.71C152.84,319.64 153.23,318.57 153.58,317.48C153.98,314.21 154.43,310.94 155.14,307.72C154.75,303.27 154.37,298.83 154.27,294.37C149.79,290.69 145.97,286.3 141.59,282.53C138.25,279.86 133.59,280.37 129.88,281.9M114.11,347.16C112.75,349.32 114.57,351.51 115.58,353.38C117.65,356.93 122.42,357.1 126.05,356.85C129.46,355.48 131.02,351.91 132.97,349.06C130.24,348.69 127.52,348.34 124.82,347.83C125.13,349.74 126.31,351.74 125.49,353.68C123.42,355.87 119.88,354.98 118.1,352.88C116.32,351.19 116.99,348.53 116.95,346.37C116.24,346.57 114.82,346.96 114.11,347.16M95.86,351.64C94.01,354.15 92.42,356.99 89.66,358.65C85.67,361 84.52,366.9 87.5,370.51C89.42,373.31 93.08,373.37 96.13,373.45C101.02,373.41 105.56,375.4 110.16,376.81C112.11,374.91 114.47,373.25 115.6,370.69C116.61,368.51 117.72,366.23 120.11,365.3C122.34,367.31 122.13,370.15 121.07,372.71C119.71,374.54 118.28,376.33 116.8,378.08C125.3,378.34 135.24,377.01 140.71,369.73C145.19,364.77 145.93,357.85 146.41,351.49C143.59,351.14 140.82,350.57 138.01,350.2C136.28,353.59 134.42,356.95 131.87,359.81C129.05,362.16 125.51,363.04 121.88,362.76L121.17,362.95L121.22,362.44C118.38,361.66 115.14,361.21 112.96,359.04C110.45,355.65 107.77,351.99 108.18,347.51C104.24,349.37 99.78,349.78 95.86,351.64Z" style="fill:rgb(61,37,97);fill-rule:nonzero;"/>
        </g>
        <g transform="matrix(4.166667,0,0,4.166667,0,0)">
            <path d="M105.79,321.47C107.06,318.89 110.42,318.61 111.25,321.65C110.03,326.01 109.18,330.5 107.6,334.75C106.46,336.07 104.54,335.83 103.31,334.81C103.22,330.25 104.55,325.82 105.79,321.47Z" style="fill:rgb(61,37,97);fill-rule:nonzero;"/>
        </g>
        <g transform="matrix(4.166667,0,0,4.166667,0,0)">
            <path d="M97.37,323.29C101,322.89 100.7,327.53 99.72,329.81C99.19,331.97 96.69,331.49 95.06,331.36C94.93,328.61 94.45,324.79 97.37,323.29Z" style="fill:rgb(61,37,97);fill-rule:nonzero;"/>
        </g>
        <g transform="matrix(4.166667,0,0,4.166667,0,0)">
            <path d="M121.51,324.28C122.93,324.56 124.36,324.88 125.77,325.24C125.47,328.39 126.05,332.2 123.71,334.71C122.41,336.01 121.05,335.13 119.97,334.11C119.89,330.76 120.8,327.51 121.51,324.28Z" style="fill:rgb(61,37,97);fill-rule:nonzero;"/>
        </g>
        <g transform="matrix(4.166667,0,0,4.166667,0,0)">
            <path d="M141.47,329.7C142.49,329.18 143.52,328.68 144.55,328.18C145.17,329.39 145.85,330.58 146.57,331.75C145.63,336.46 144.6,341.16 143.58,345.85C142.25,346.04 140.92,346.23 139.59,346.41C138.61,340.74 140.83,335.27 141.47,329.7Z" style="fill:rgb(61,37,97);fill-rule:nonzero;"/>
        </g>
        <g transform="matrix(4.166667,0,0,4.166667,0,0)">
            <path d="M52.67,253C103.02,253.03 153.36,252.93 203.7,253.05C203.65,303.34 203.62,353.64 203.72,403.93C170.65,404.06 137.59,404.01 104.53,403.94L105.14,402.93C107.16,399.82 108.44,396.3 110.28,393.08C111.89,393.39 113.63,393.98 115.21,393.18C121.6,390.77 127.87,388.06 134.34,385.9C137.81,390.88 138.72,397.05 141.89,402.16C143.23,404.48 146.73,403.44 146.85,400.85C145.98,398.05 144.37,395.55 143.52,392.75C142.15,388.06 139.28,384.04 137.41,379.57C141.75,377.01 145.22,373.21 147.89,368.99C149.49,365.87 150.1,362.37 151.36,359.12C152.01,357.57 152.6,355.98 153.2,354.41C155.52,354.78 159.63,355.8 160.33,352.64C160.59,344.63 165.02,336.99 162.75,328.91C162.54,325.87 159.71,324.34 157.4,322.95C159.51,315.81 160.54,308.35 159.9,300.9C159.39,297.34 160.98,292.86 157.77,290.23C153.78,286.54 149.95,282.68 146,278.95C142.46,275.75 137.62,273.89 132.89,275.35C125.52,277.12 118.11,280.28 112.56,285.59C107.25,290.28 106.57,297.88 101.87,303.05C95.25,305.73 91.02,312.29 89,318.88C88.33,324.27 87.53,329.65 86.87,335.04C86.32,338.58 89.49,340.83 91.86,342.81C91.5,345.54 91.38,348.45 89.92,350.88C88.41,353.67 85.21,354.77 83.1,356.98C79.24,362.68 79.64,371.45 84.9,376.15C88.57,379.29 93.6,378.82 98.07,379.24C101.82,380.02 105.29,381.73 108.81,383.18C105.57,390.11 101.71,396.8 99.24,404.08C83.72,403.9 68.19,404.05 52.67,404C52.67,353.67 52.66,303.33 52.67,253Z" style="fill:rgb(252,253,222);fill-rule:nonzero;"/>
        </g>
        <g transform="matrix(4.166667,0,0,4.166667,0,0)">
            <path d="M111.39,297.87C117.85,297.84 124.39,297.7 130.74,299.16C137.89,300.32 144.01,304.41 150.48,307.38C151.94,308.06 153.59,307.69 155.14,307.72C154.43,310.94 153.98,314.21 153.58,317.48C145.2,314.64 137.17,310.79 128.52,308.79C121.48,307.26 114.67,304.78 107.53,303.73C109.28,302.11 110.62,300.13 111.39,297.87Z" style="fill:rgb(252,253,222);fill-rule:nonzero;"/>
        </g>
        <g transform="matrix(4.166667,0,0,4.166667,0,0)">
            <path d="M98.67,311.63C100.37,309.58 103.15,310.97 105.31,311.24C112.03,312.46 118.38,315.15 125.13,316.22C131.91,317.51 138.36,320.18 144.39,323.5C148.43,326.21 153.21,327.35 157.59,329.37C158.05,331.8 158.31,334.27 158.11,336.74C154.31,334.97 150.47,333.27 146.57,331.75C145.85,330.58 145.17,329.39 144.55,328.18C143.52,328.68 142.49,329.18 141.47,329.7C136.26,328.11 131.02,326.64 125.77,325.24C124.36,324.88 122.93,324.56 121.51,324.28C118.04,323.63 114.66,322.57 111.25,321.65C110.42,318.61 107.06,318.89 105.79,321.47C101.86,320.53 97.89,319.78 93.86,319.44C95.77,317.03 97.04,314.21 98.67,311.63Z" style="fill:rgb(252,253,222);fill-rule:nonzero;"/>
        </g>
        <g transform="matrix(4.166667,0,0,4.166667,0,0)">
            <path d="M154.5,348.06C154.81,347.11 155.2,346.2 155.65,345.31C157.4,346.11 155.7,350.37 154.5,348.06Z" style="fill:rgb(252,253,222);fill-rule:nonzero;"/>
        </g>
        <g transform="matrix(4.166667,0,0,4.166667,0,0)">
            <path d="M114.11,347.16C114.82,346.96 116.24,346.57 116.95,346.37C116.99,348.53 116.32,351.19 118.1,352.88C119.88,354.98 123.42,355.87 125.49,353.68C126.31,351.74 125.13,349.74 124.82,347.83C127.52,348.34 130.24,348.69 132.97,349.06C131.02,351.91 129.46,355.48 126.05,356.85C122.42,357.1 117.65,356.93 115.58,353.38C114.57,351.51 112.75,349.32 114.11,347.16Z" style="fill:rgb(252,253,222);fill-rule:nonzero;"/>
        </g>
        <g transform="matrix(4.166667,0,0,4.166667,0,0)">
            <path d="M95.86,351.64C99.78,349.78 104.24,349.37 108.18,347.51C107.77,351.99 110.45,355.65 112.96,359.04C115.14,361.21 118.38,361.66 121.22,362.44L121.17,362.95C120.81,363.72 120.46,364.51 120.11,365.3C117.72,366.23 116.61,368.51 115.6,370.69C114.47,373.25 112.11,374.91 110.16,376.81C105.56,375.4 101.02,373.41 96.13,373.45C93.08,373.37 89.42,373.31 87.5,370.51C84.52,366.9 85.67,361 89.66,358.65C92.42,356.99 94.01,354.15 95.86,351.64Z" style="fill:rgb(252,253,222);fill-rule:nonzero;"/>
        </g>
        <g transform="matrix(4.166667,0,0,4.166667,0,0)">
            <path d="M131.87,359.81C134.42,356.95 136.28,353.59 138.01,350.2C140.82,350.57 143.59,351.14 146.41,351.49C145.93,357.85 145.19,364.77 140.71,369.73C135.24,377.01 125.3,378.34 116.8,378.08C118.28,376.33 119.71,374.54 121.07,372.71C123.71,374.75 127.08,376.51 130.5,375.68C134.74,373.89 136.79,368.63 135.54,364.33C134.69,362.56 133.17,361.24 131.87,359.81Z" style="fill:rgb(252,253,222);fill-rule:nonzero;"/>
        </g>
        <g transform="matrix(4.166667,0,0,4.166667,0,0)">
            <path d="M129.88,281.9C133.59,280.37 138.25,279.86 141.59,282.53C145.97,286.3 149.79,290.69 154.27,294.37C154.37,298.83 154.75,303.27 155.14,307.72C153.59,307.69 151.94,308.06 150.48,307.38C144.01,304.41 137.89,300.32 130.74,299.16C124.39,297.7 117.85,297.84 111.39,297.87C112.59,294.81 114.01,291.74 116.4,289.41C120.06,285.64 125.13,283.86 129.88,281.9Z" style="fill:rgb(236,28,52);fill-rule:nonzero;"/>
        </g>
        <g transform="matrix(4.166667,0,0,4.166667,0,0)">
            <path d="M107.17,305.52C107.26,305.07 107.44,304.18 107.53,303.73C114.67,304.78 121.48,307.26 128.52,308.79C137.17,310.79 145.2,314.64 153.58,317.48C153.23,318.57 152.84,319.64 152.42,320.71C150.02,320.3 147.6,320.02 145.2,319.61C145,320.58 144.59,322.53 144.39,323.5C138.36,320.18 131.91,317.51 125.13,316.22C118.38,315.15 112.03,312.46 105.31,311.24C108.95,311.25 112.54,312.05 116.18,312.09C118.76,311.91 118.39,308.94 117.68,307.22C114.32,306 110.65,306.19 107.17,305.52Z" style="fill:rgb(236,28,52);fill-rule:nonzero;"/>
        </g>
        <g transform="matrix(4.166667,0,0,4.166667,0,0)">
            <path d="M92.4,336.43C92.36,330.78 93.73,325.13 93.86,319.44C97.89,319.78 101.86,320.53 105.79,321.47C104.55,325.82 103.22,330.25 103.31,334.81C104.54,335.83 106.46,336.07 107.6,334.75C109.18,330.5 110.03,326.01 111.25,321.65C114.66,322.57 118.04,323.63 121.51,324.28C120.8,327.51 119.89,330.76 119.97,334.11C121.05,335.13 122.41,336.01 123.71,334.71C126.05,332.2 125.47,328.39 125.77,325.24C131.02,326.64 136.26,328.11 141.47,329.7C140.83,335.27 138.61,340.74 139.59,346.41C140.92,346.23 142.25,346.04 143.58,345.85C144.6,341.16 145.63,336.46 146.57,331.75C150.47,333.27 154.31,334.97 158.11,336.74C157.3,339.6 156.79,342.55 155.65,345.31C155.2,346.2 154.81,347.11 154.5,348.06C144.97,348.88 135.9,345.26 126.94,342.62C120.36,341.44 113.53,341.25 107.31,338.57C102.62,336.36 96.97,338.59 92.4,336.43M97.37,323.29C94.45,324.79 94.93,328.61 95.06,331.36C96.69,331.49 99.19,331.97 99.72,329.81C100.7,327.53 101,322.89 97.37,323.29Z" style="fill:rgb(236,28,52);fill-rule:nonzero;"/>
        </g>
        <g transform="matrix(4.166667,0,0,4.166667,0,0)">
            <path d="M121.88,362.76C125.51,363.04 129.05,362.16 131.87,359.81C133.17,361.24 134.69,362.56 135.54,364.33C136.79,368.63 134.74,373.89 130.5,375.68C127.08,376.51 123.71,374.75 121.07,372.71C122.13,370.15 122.34,367.31 120.11,365.3C120.46,364.51 120.81,363.72 121.17,362.95L121.88,362.76Z" style="fill:rgb(236,28,52);fill-rule:nonzero;"/>
        </g>
    </g>
</svg>
