<?xml version="1.0" encoding="UTF-8" standalone="no"?>
<!DOCTYPE svg PUBLIC "-//W3C//DTD SVG 1.1//EN" "http://www.w3.org/Graphics/SVG/1.1/DTD/svg11.dtd">
<svg width="100%" height="100%" viewBox="0 0 630 636" version="1.1" xmlns="http://www.w3.org/2000/svg" xmlns:xlink="http://www.w3.org/1999/xlink" xml:space="preserve" xmlns:serif="http://www.serif.com/" style="fill-rule:evenodd;clip-rule:evenodd;stroke-linejoin:round;stroke-miterlimit:2;">
    <g transform="matrix(1,0,0,1,-1670.833333,-1054.148148)">
        <g transform="matrix(4.166667,0,0,4.166667,0,0)">
            <path d="M499.89,277.1C501.6,276.04 503.53,276.02 505.44,276.46C505.31,277.88 505.18,279.31 505.06,280.75C506.31,280.02 507.49,279.07 508.94,278.74C509.76,279.57 510.54,280.44 511.31,281.34C513.13,280.9 515.39,279.38 517.03,281.08C518.42,283.27 516.87,285.34 515.32,286.86C516.26,288.11 518.07,289.07 517.91,290.87C517.32,292.22 516.26,293.29 515.4,294.46C515.54,295.56 515.7,296.65 515.76,297.77C515.3,299.53 513.26,299.39 511.94,300.06C513.45,301.7 514.96,303.45 515.45,305.7C517.59,312.79 518.23,320.69 515.94,327.82C515.01,331.23 511.47,334.07 512.44,337.83C513.84,344.46 516.59,351.19 514.84,358.05C514.35,361.99 510.84,364.28 508.02,366.59C509.12,372.24 509.55,377.99 509.61,383.75C512.37,383.47 515.62,382.15 518.09,384.01C520.85,386.44 519.93,390.72 518.74,393.73C515.14,399.2 507.57,399.02 502.06,396.98C500.77,396.51 499.84,395.44 499.99,394.01C499.49,390.73 502.37,388.6 504.57,386.76C504.62,380.39 504.31,374.01 502.87,367.78C501.9,370.89 500.85,374.1 498.54,376.51C496.13,379.79 491.95,380.67 488.42,382.22C490.88,389.32 492.72,396.62 494.13,404.01C493.02,405.95 489.84,406.14 488.94,403.95C487.08,398.18 486.55,392.02 484.07,386.44C479.36,387.38 474.62,388.14 469.86,388.77C468.6,393.79 467.46,398.83 466.83,403.97L466.69,404.95C465.48,405.02 464.27,405.1 463.06,405.18C462.72,403.7 462.34,402.24 462.15,400.74C462.37,395.35 464.32,390.22 465.34,384.96C460.92,383.38 456.71,381.08 452.08,380.19C447.61,379.89 442.56,380.19 438.99,376.94C434.14,372.22 433.59,363.85 437.26,358.26C439.76,355.47 443.97,354.11 445.05,350.15C446.15,345.45 446.79,340.61 448.72,336.13C444.72,333.32 444.84,327.53 447.41,323.79C449.28,319.72 453.22,317.09 457.63,316.52C460.48,311.76 461.99,306.38 464.54,301.49C468.32,295.59 475.63,294.36 481.48,291.44C484.3,290.05 487.46,289.62 490.54,289.14C489.95,285.32 487.13,280.11 491.68,277.72C492.49,278.38 493.3,279.04 494.12,279.7C495.21,277.34 497.31,276.04 499.89,277.1M481.94,297.46C477.73,298.88 473.6,300.66 469.95,303.24C468.46,305.34 467.42,307.7 466.45,310.07C465.55,312.35 464.57,314.59 463.51,316.8C463.28,317.06 462.83,317.6 462.6,317.86C462.92,319.32 465.93,319.46 465.9,317.79C473.03,319.33 480.83,319.26 487.48,322.78C487.49,323.72 487.52,325.62 487.53,326.57C485.97,326.9 484.38,327.07 482.83,326.64C476.29,325.33 469.77,323.5 463.03,323.85C460.26,324.13 457.77,322.25 455.03,322.71C453.69,324.01 452.71,325.6 451.65,327.13C455.4,327.06 459.29,325.9 462.94,327.25C470.96,330.53 479.74,332.35 488.39,332.26C489.96,332.83 491.71,333.05 493.12,333.99C494.74,335.73 494.5,338.27 494.87,340.46C495.34,343.32 495.82,346.18 496.51,349.01C496.95,351.63 496.82,354.47 497.9,356.94C498.32,358.25 498.77,359.56 499.21,360.87C500.2,361.2 501.19,361.54 502.19,361.88C502.62,361.2 503.49,359.84 503.92,359.16C505.28,359.34 506.63,359.56 507.99,359.82L508.18,359.4C510.48,357.72 510.02,354.45 510.52,351.97C509.77,349.32 509.17,346.63 508.66,343.93L508.33,343.93C507.85,341.31 507.32,338.71 506.88,336.09C505.2,332.18 500.23,332.77 497.67,330.2C497.9,329.2 498.37,327.19 498.6,326.19C502.42,326.68 506.24,327.49 509.36,329.94C510.34,327.72 511.23,325.47 511.99,323.17C512,321.45 512.05,319.74 512.12,318.03C511.99,314.38 511.32,310.8 510.61,307.23C508.38,303.83 505.18,301.25 502,298.78C499.67,298.86 497.53,298.22 496.27,296.12C491.6,294.77 486.06,294.39 481.94,297.46M453.43,338.44C450.85,343.57 451.52,349.69 448.77,354.75C447.28,357.53 444.46,359.11 442.19,361.15C439.36,364.27 439.49,369.52 442.64,372.4C445.16,374.84 448.98,374.19 452.17,374.55C456.48,374.68 460.34,376.9 464.54,377.61C468.17,375.38 470.06,371.53 472,367.92C473.27,365.41 476.95,367.8 476.48,370.01C475.9,373.61 473.48,376.58 470.94,379.06C477.08,379.21 483.44,378.78 488.96,375.8C493.1,374.06 495.51,370.1 497.98,366.58C492.38,363.07 492.33,355.79 491.5,349.96C491.46,354.14 491.33,358.91 487.47,361.49C484.33,363.5 480.88,364.89 477.4,366.17C472.97,364.65 467.77,364.13 464.53,360.38C462.56,358.58 461.82,355.97 461.21,353.47C456.66,351.94 455.54,346.04 457.39,342.07C458.6,342.29 460.08,342 461.04,342.94C461.69,344.5 462,346.18 462.47,347.81C468.41,348.68 472.81,344.08 478.02,342.25C481.98,341.62 486,341.52 489.98,341.05C489.71,340.5 489.19,339.41 488.93,338.87C483.78,337.41 478.32,337.52 473.1,336.34C467.85,335.54 463.21,332.42 457.82,332.28C456.34,334.32 454.66,336.23 453.43,338.44M479.38,347.64C478.47,348.47 477.55,349.29 476.65,350.14C478.44,350.43 480.47,350.06 482.09,351.07C483.58,353.55 481.34,356.2 478.97,356.91C475.36,357.5 471.72,355.62 469.85,352.54C468.98,352.7 467.24,353.03 466.37,353.19C467.84,357.39 472.22,358.92 476.08,360.18C479.69,360.14 483.03,358.05 485.56,355.58C487.12,352.98 486.05,349.75 485.98,346.91C483.77,347.15 481.58,347.43 479.38,347.64Z" style="fill:rgb(61,37,97);fill-rule:nonzero;"/>
        </g>
        <g transform="matrix(4.166667,0,0,4.166667,0,0)">
            <path d="M401,253C451.33,252.99 501.67,253 552,253L552,404C532.71,404 513.42,403.99 494.13,404.01C492.72,396.62 490.88,389.32 488.42,382.22C491.95,380.67 496.13,379.79 498.54,376.51C500.85,374.1 501.9,370.89 502.87,367.78C504.31,374.01 504.62,380.39 504.57,386.76C502.37,388.6 499.49,390.73 499.99,394.01C499.84,395.44 500.77,396.51 502.06,396.98C507.57,399.02 515.14,399.2 518.74,393.73C519.93,390.72 520.85,386.44 518.09,384.01C515.62,382.15 512.37,383.47 509.61,383.75C509.55,377.99 509.12,372.24 508.02,366.59C510.84,364.28 514.35,361.99 514.84,358.05C516.59,351.19 513.84,344.46 512.44,337.83C511.47,334.07 515.01,331.23 515.94,327.82C518.23,320.69 517.59,312.79 515.45,305.7C514.96,303.45 513.45,301.7 511.94,300.06C513.26,299.39 515.3,299.53 515.76,297.77C515.7,296.65 515.54,295.56 515.4,294.46C516.26,293.29 517.32,292.22 517.91,290.87C518.07,289.07 516.26,288.11 515.32,286.86C516.87,285.34 518.42,283.27 517.03,281.08C515.39,279.38 513.13,280.9 511.31,281.34C510.54,280.44 509.76,279.57 508.94,278.74C507.49,279.07 506.31,280.02 505.06,280.75C505.18,279.31 505.31,277.88 505.44,276.46C503.53,276.02 501.6,276.04 499.89,277.1C497.31,276.04 495.21,277.34 494.12,279.7C493.3,279.04 492.49,278.38 491.68,277.72C487.13,280.11 489.95,285.32 490.54,289.14C487.46,289.62 484.3,290.05 481.48,291.44C475.63,294.36 468.32,295.59 464.54,301.49C461.99,306.38 460.48,311.76 457.63,316.52C453.22,317.09 449.28,319.72 447.41,323.79C444.84,327.53 444.72,333.32 448.72,336.13C446.79,340.61 446.15,345.45 445.05,350.15C443.97,354.11 439.76,355.47 437.26,358.26C433.59,363.85 434.14,372.22 438.99,376.94C442.56,380.19 447.61,379.89 452.08,380.19C456.71,381.08 460.92,383.38 465.34,384.96C464.32,390.22 462.37,395.35 462.15,400.74C462.14,401.56 462.13,403.19 462.13,404L401,404C401,353.67 401.01,303.34 401,253Z" style="fill:rgb(252,253,222);fill-rule:nonzero;"/>
        </g>
        <g transform="matrix(4.166667,0,0,4.166667,0,0)">
            <path d="M481.94,297.46C486.06,294.39 491.6,294.77 496.27,296.12C497.53,298.22 499.67,298.86 502,298.78C505.18,301.25 508.38,303.83 510.61,307.23C501.63,302.51 491.76,299.82 481.94,297.46Z" style="fill:rgb(252,253,222);fill-rule:nonzero;"/>
        </g>
        <g transform="matrix(4.166667,0,0,4.166667,0,0)">
            <path d="M466.45,310.07C467.42,307.7 468.46,305.34 469.95,303.24C473.36,306.18 478.03,304.98 482.11,305.87C487.57,306.99 492.79,309.04 498.15,310.59C503.3,312.04 507.55,315.4 512.12,318.03C512.05,319.74 512,321.45 511.99,323.17C503.94,318.02 494.17,316.94 485.29,313.84C479.27,311.52 472.78,311 466.45,310.07Z" style="fill:rgb(252,253,222);fill-rule:nonzero;"/>
        </g>
        <g transform="matrix(4.166667,0,0,4.166667,0,0)">
            <path d="M462.6,317.86C462.83,317.6 463.28,317.06 463.51,316.8C464.11,317.04 465.3,317.54 465.9,317.79C465.93,319.46 462.92,319.32 462.6,317.86Z" style="fill:rgb(252,253,222);fill-rule:nonzero;"/>
        </g>
        <g transform="matrix(4.166667,0,0,4.166667,0,0)">
            <path d="M451.65,327.13C452.71,325.6 453.69,324.01 455.03,322.71C457.77,322.25 460.26,324.13 463.03,323.85C469.77,323.5 476.29,325.33 482.83,326.64C484.38,327.07 485.97,326.9 487.53,326.57C487.52,325.62 487.49,323.72 487.48,322.78C491.04,324.33 494.86,325.18 498.6,326.19C498.37,327.19 497.9,329.2 497.67,330.2C500.23,332.77 505.2,332.18 506.88,336.09C500.82,334.43 494.88,331.01 488.39,332.26C479.74,332.35 470.96,330.53 462.94,327.25C459.29,325.9 455.4,327.06 451.65,327.13Z" style="fill:rgb(252,253,222);fill-rule:nonzero;"/>
        </g>
        <g transform="matrix(4.166667,0,0,4.166667,0,0)">
            <path d="M453.43,338.44C454.66,336.23 456.34,334.32 457.82,332.28C463.21,332.42 467.85,335.54 473.1,336.34C478.32,337.52 483.78,337.41 488.93,338.87C489.19,339.41 489.71,340.5 489.98,341.05C486,341.52 481.98,341.62 478.02,342.25C472.81,344.08 468.41,348.68 462.47,347.81C462,346.18 461.69,344.5 461.04,342.94C460.08,342 458.6,342.29 457.39,342.07C455.54,346.04 456.66,351.94 461.21,353.47C461.82,355.97 462.56,358.58 464.53,360.38C467.77,364.13 472.97,364.65 477.4,366.17C477.25,368.45 476.04,371.21 478,373.08C480.48,375.13 484.03,374.51 486.98,374.16C491.05,373.76 493.47,369.11 492.54,365.37C491.61,363.3 489.28,362.54 487.47,361.49C491.33,358.91 491.46,354.14 491.5,349.96C492.33,355.79 492.38,363.07 497.98,366.58C495.51,370.1 493.1,374.06 488.96,375.8C483.44,378.78 477.08,379.21 470.94,379.06C473.48,376.58 475.9,373.61 476.48,370.01C476.95,367.8 473.27,365.41 472,367.92C470.06,371.53 468.17,375.38 464.54,377.61C460.34,376.9 456.48,374.68 452.17,374.55C448.98,374.19 445.16,374.84 442.64,372.4C439.49,369.52 439.36,364.27 442.19,361.15C444.46,359.11 447.28,357.53 448.77,354.75C451.52,349.69 450.85,343.57 453.43,338.44Z" style="fill:rgb(252,253,222);fill-rule:nonzero;"/>
        </g>
        <g transform="matrix(4.166667,0,0,4.166667,0,0)">
            <path d="M494.87,340.46C499.2,342.12 503.52,344.47 508.33,343.93L508.66,343.93C509.17,346.63 509.77,349.32 510.52,351.97C505.99,350.44 501.37,348.82 496.51,349.01C495.82,346.18 495.34,343.32 494.87,340.46Z" style="fill:rgb(252,253,222);fill-rule:nonzero;"/>
        </g>
        <g transform="matrix(4.166667,0,0,4.166667,0,0)">
            <path d="M479.38,347.64C481.58,347.43 483.77,347.15 485.98,346.91C486.05,349.75 487.12,352.98 485.56,355.58C483.03,358.05 479.69,360.14 476.08,360.18C472.22,358.92 467.84,357.39 466.37,353.19C467.24,353.03 468.98,352.7 469.85,352.54C471.72,355.62 475.36,357.5 478.97,356.91C481.34,356.2 483.58,353.55 482.09,351.07C480.47,350.06 478.44,350.43 476.65,350.14C477.55,349.29 478.47,348.47 479.38,347.64Z" style="fill:rgb(252,253,222);fill-rule:nonzero;"/>
        </g>
        <g transform="matrix(4.166667,0,0,4.166667,0,0)">
            <path d="M469.86,388.77C474.62,388.14 479.36,387.38 484.07,386.44C486.55,392.02 487.08,398.18 488.94,403.95C481.57,404.04 474.2,404.01 466.83,403.97C467.46,398.83 468.6,393.79 469.86,388.77Z" style="fill:rgb(252,253,222);fill-rule:nonzero;"/>
        </g>
        <g transform="matrix(4.166667,0,0,4.166667,0,0)">
            <path d="M469.95,303.24C473.6,300.66 477.73,298.88 481.94,297.46C491.76,299.82 501.63,302.51 510.61,307.23C511.32,310.8 511.99,314.38 512.12,318.03C507.55,315.4 503.3,312.04 498.15,310.59C492.79,309.04 487.57,306.99 482.11,305.87C478.03,304.98 473.36,306.18 469.95,303.24Z" style="fill:rgb(236,28,52);fill-rule:nonzero;"/>
        </g>
        <g transform="matrix(4.166667,0,0,4.166667,0,0)">
            <path d="M463.51,316.8C464.57,314.59 465.55,312.35 466.45,310.07C472.78,311 479.27,311.52 485.29,313.84C494.17,316.94 503.94,318.02 511.99,323.17C511.23,325.47 510.34,327.72 509.36,329.94C506.24,327.49 502.42,326.68 498.6,326.19C494.86,325.18 491.04,324.33 487.48,322.78C480.83,319.26 473.03,319.33 465.9,317.79C465.3,317.54 464.11,317.04 463.51,316.8Z" style="fill:rgb(236,28,52);fill-rule:nonzero;"/>
        </g>
        <g transform="matrix(4.166667,0,0,4.166667,0,0)">
            <path d="M488.39,332.26C494.88,331.01 500.82,334.43 506.88,336.09C507.32,338.71 507.85,341.31 508.33,343.93C503.52,344.47 499.2,342.12 494.87,340.46C494.5,338.27 494.74,335.73 493.12,333.99C491.71,333.05 489.96,332.83 488.39,332.26Z" style="fill:rgb(236,28,52);fill-rule:nonzero;"/>
        </g>
        <g transform="matrix(4.166667,0,0,4.166667,0,0)">
            <path d="M496.51,349.01C501.37,348.82 505.99,350.44 510.52,351.97C510.02,354.45 510.48,357.72 508.18,359.4C504.69,358.83 501.27,357.95 497.9,356.94C496.82,354.47 496.95,351.63 496.51,349.01Z" style="fill:rgb(236,28,52);fill-rule:nonzero;"/>
        </g>
        <g transform="matrix(4.166667,0,0,4.166667,0,0)">
            <path d="M477.4,366.17C480.88,364.89 484.33,363.5 487.47,361.49C489.28,362.54 491.61,363.3 492.54,365.37C493.47,369.11 491.05,373.76 486.98,374.16C484.03,374.51 480.48,375.13 478,373.08C476.04,371.21 477.25,368.45 477.4,366.17Z" style="fill:rgb(236,28,52);fill-rule:nonzero;"/>
        </g>
        <g transform="matrix(4.166667,0,0,4.166667,0,0)">
            <path d="M497.9,356.94C501.27,357.95 504.69,358.83 508.18,359.4L507.99,359.82C506.63,359.56 505.28,359.34 503.92,359.16C503.49,359.84 502.62,361.2 502.19,361.88C501.19,361.54 500.2,361.2 499.21,360.87C498.77,359.56 498.32,358.25 497.9,356.94Z" style="fill:rgb(252,252,222);fill-rule:nonzero;"/>
        </g>
    </g>
</svg>
