<?xml version="1.0" encoding="UTF-8" standalone="no"?>
<!DOCTYPE svg PUBLIC "-//W3C//DTD SVG 1.1//EN" "http://www.w3.org/Graphics/SVG/1.1/DTD/svg11.dtd">
<svg width="100%" height="100%" viewBox="0 0 630 640" version="1.1" xmlns="http://www.w3.org/2000/svg" xmlns:xlink="http://www.w3.org/1999/xlink" xml:space="preserve" xmlns:serif="http://www.serif.com/" style="fill-rule:evenodd;clip-rule:evenodd;stroke-linejoin:round;stroke-miterlimit:2;">
    <g transform="matrix(1,0,0,1,-2379.166667,-2500)">
        <g transform="matrix(4.166667,0,0,4.166667,0,0)">
            <path d="M666.06,603.04C670.71,602.89 675.39,603.42 680.06,603.1C686.12,602.66 692.11,604.14 697.71,606.36C698.96,606.91 700.3,607.7 700.84,609.05C701.26,611.17 699.53,612.86 698.27,614.32C694.74,617.79 689.24,617.64 685.53,620.75C683.79,621.89 684.54,624.19 684.41,625.92C685.07,634.6 685.42,643.32 684.68,652.02C684.78,658.24 684.91,664.47 684.35,670.68C686.68,674.78 691.23,677.25 693.13,681.7C695.14,686.63 698.09,691.5 697.89,697.01C697.88,700.41 697.38,703.84 696.15,707.03C694.56,711.95 690.71,715.62 687.27,719.3C683.04,723.67 677.29,725.94 671.99,728.69C674.21,732.71 676.89,736.57 680.59,739.37C684.5,742.2 687.29,746.42 688.67,751.03C687.19,751.81 685.49,751.82 683.89,752.04L683.81,750.98C683.68,750.62 683.4,749.9 683.27,749.55C679.72,744.83 674.64,741.61 671.03,736.94C668.23,737.82 665.38,738.53 662.63,739.57C659.95,740.57 657.72,742.49 655,743.39C653.41,743.31 652.07,741.68 652.76,740.15C654.69,737.29 657.71,735.47 660.31,733.29C664.24,730.23 666.97,725.88 671.1,723.05C673.74,721.36 676.62,720.08 679.37,718.57L679.5,718.51L679.6,718.42C679.96,718.09 680.69,717.43 681.05,717.11C681.6,716.83 682.71,716.28 683.26,716.01C686.06,712.62 689.27,709.46 691.18,705.46C692.38,702.26 692.92,698.75 692.62,695.35C691.86,691.75 690.29,688.39 688.73,685.09C686.4,680.32 681.66,677.4 678.96,672.93C678.51,669.62 679.72,666.36 679.69,663.06C679.31,652.07 680.66,641.09 679.57,630.11C679.51,626.19 678.42,621.88 680.19,618.21C683.66,614.23 689.06,613.07 693.64,610.86C689.25,609.33 684.63,608.36 679.97,608.64C675.36,608.87 670.56,608.62 666.2,610.35C660.05,613.02 653.83,616.24 649.74,621.76C645.23,627.57 640.05,632.79 635.36,638.45C632.12,642.17 630.38,647.23 626.16,650.03C618.85,654.35 613.05,660.7 606.08,665.5C608.35,668.93 610.4,672.54 613.1,675.67C613.84,676.36 614.61,677.02 615.46,677.61C617,677.06 617.85,675.47 619.02,674.43C617.25,672.04 614.94,670.18 612.61,668.38C611.16,667.43 611.42,665.38 611.91,663.99C616.59,662.27 619.98,667.15 622.21,670.53C622.66,670.46 623.56,670.31 624,670.24C624.4,671.37 624.79,672.49 625.21,673.64C629.37,676.63 631.41,681.47 634.8,685.17C638.42,689.07 640.69,693.94 643.93,698.13C648.51,704 650.81,711.18 654.16,717.74C657.26,723.56 655.67,730.46 653.23,736.2C652.69,737.41 651.46,738.29 650.1,738.19C646.34,738.69 643.98,735.29 641.43,733.18C636.78,738.5 632.65,744.36 629.71,750.81C628.9,753.57 623.67,755.17 624.17,751.02C626.89,743.74 631.7,737.61 636.18,731.37C630.54,731.02 625.29,729.06 620.14,726.89C615.61,724.78 610.28,726.6 605.84,724.21C599.42,721.24 597.88,712.54 600.28,706.45C601.68,701.48 608.29,700.73 609.46,695.6C610.42,691.21 610.99,686.7 612.85,682.57C608.58,678.95 605.8,673.99 602.59,669.5C600.76,667.07 600.83,663.3 603.28,661.32C607.57,657.57 612.29,654.33 616.51,650.49C619.49,646.85 625.08,646.37 626.99,641.75C630.81,635.78 635.33,630.29 640.22,625.17C644.29,620.92 647.22,615.55 652.15,612.17C656.69,609.02 660.79,604.97 666.06,603.04M622.3,677.77C620.14,680.84 617.33,683.66 616.53,687.46C615.09,692.52 615.3,698.44 611.53,702.54C609.62,704.91 606.2,705.98 605.17,709.04C603.15,713 605.54,718.69 609.98,719.66C613.65,720.35 617.52,719.81 621.1,721.05C623.71,721.86 626.33,722.65 628.95,723.46C632.5,720.78 634.49,716.87 636.81,713.21C636.87,712.44 636.93,711.68 636.98,710.94C630.49,709.13 624.5,703.3 625.53,696.05C624.07,693.64 622.41,690.57 623.79,687.78C626.81,685.62 628.11,689.97 628.98,692.07C630.61,692.12 632.24,692.15 633.89,692.15C631.87,688.93 628.67,686.62 626.98,683.19C625.86,681.03 624.14,679.3 622.3,677.77M630.06,697.37C630.81,702.52 635.81,704.82 639.96,706.89C641.1,706.36 642.26,705.84 643.41,705.31C641.13,705.62 638.52,706.03 636.82,704.09C634.4,702.61 635.04,699.58 634.87,697.19C633.26,697.25 631.66,697.31 630.06,697.37M638.54,711.81C639.55,713.34 641.27,714.81 640.59,716.87C639.68,719.98 637.56,722.53 635.19,724.67C640.45,724.85 645.77,724.52 650.79,722.82C649.79,719.96 648.51,717.23 647.26,714.48C646.54,713.11 645.89,711.7 645.25,710.31C643.15,711.31 640.89,711.97 638.54,711.81Z" style="fill:rgb(61,37,97);fill-rule:nonzero;"/>
        </g>
        <g transform="matrix(4.166667,0,0,4.166667,0,0)">
            <path d="M571,600L722,600L722,751C710.89,751.02 699.77,750.95 688.67,751.03C687.29,746.42 684.5,742.2 680.59,739.37C676.89,736.57 674.21,732.71 671.99,728.69C677.29,725.94 683.04,723.67 687.27,719.3C690.71,715.62 694.56,711.95 696.15,707.03C697.38,703.84 697.88,700.41 697.89,697.01C698.09,691.5 695.14,686.63 693.13,681.7C691.23,677.25 686.68,674.78 684.35,670.68C684.91,664.47 684.78,658.24 684.68,652.02C685.42,643.32 685.07,634.6 684.41,625.92C684.54,624.19 683.79,621.89 685.53,620.75C689.24,617.64 694.74,617.79 698.27,614.32C699.53,612.86 701.26,611.17 700.84,609.05C700.3,607.7 698.96,606.91 697.71,606.36C692.11,604.14 686.12,602.66 680.06,603.1C675.39,603.42 670.71,602.89 666.06,603.04C660.79,604.97 656.69,609.02 652.15,612.17C647.22,615.55 644.29,620.92 640.22,625.17C635.33,630.29 630.81,635.78 626.99,641.75C625.08,646.37 619.49,646.85 616.51,650.49C612.29,654.33 607.57,657.57 603.28,661.32C600.83,663.3 600.76,667.07 602.59,669.5C605.8,673.99 608.58,678.95 612.85,682.57C610.99,686.7 610.42,691.21 609.46,695.6C608.29,700.73 601.68,701.48 600.28,706.45C597.88,712.54 599.42,721.24 605.84,724.21C610.28,726.6 615.61,724.78 620.14,726.89C625.29,729.06 630.54,731.02 636.18,731.37C631.7,737.61 626.89,743.74 624.17,751.02C606.45,750.97 588.72,751.01 571,751L571,600Z" style="fill:rgb(252,253,222);fill-rule:nonzero;"/>
        </g>
        <g transform="matrix(4.166667,0,0,4.166667,0,0)">
            <path d="M613.1,675.67C615.09,675.34 617.05,674.87 619.02,674.43C617.85,675.47 617,677.06 615.46,677.61C614.61,677.02 613.84,676.36 613.1,675.67Z" style="fill:rgb(252,253,222);fill-rule:nonzero;"/>
        </g>
        <g transform="matrix(4.166667,0,0,4.166667,0,0)">
            <path d="M622.3,677.77C624.14,679.3 625.86,681.03 626.98,683.19C628.67,686.62 631.87,688.93 633.89,692.15C632.24,692.15 630.61,692.12 628.98,692.07C628.11,689.97 626.81,685.62 623.79,687.78C622.41,690.57 624.07,693.64 625.53,696.05C624.5,703.3 630.49,709.13 636.98,710.94C636.93,711.68 636.87,712.44 636.81,713.21C634.49,716.87 632.5,720.78 628.95,723.46C626.33,722.65 623.71,721.86 621.1,721.05C617.52,719.81 613.65,720.35 609.98,719.66C605.54,718.69 603.15,713 605.17,709.04C606.2,705.98 609.62,704.91 611.53,702.54C615.3,698.44 615.09,692.52 616.53,687.46C617.33,683.66 620.14,680.84 622.3,677.77Z" style="fill:rgb(252,253,222);fill-rule:nonzero;"/>
        </g>
        <g transform="matrix(4.166667,0,0,4.166667,0,0)">
            <path d="M630.06,697.37C631.66,697.31 633.26,697.25 634.87,697.19C635.04,699.58 634.4,702.61 636.82,704.09C638.52,706.03 641.13,705.62 643.41,705.31C642.26,705.84 641.1,706.36 639.96,706.89C635.81,704.82 630.81,702.52 630.06,697.37Z" style="fill:rgb(252,253,222);fill-rule:nonzero;"/>
        </g>
        <g transform="matrix(4.166667,0,0,4.166667,0,0)">
            <path d="M638.54,711.81C640.89,711.97 643.15,711.31 645.25,710.31C645.89,711.7 646.54,713.11 647.26,714.48C648.51,717.23 649.79,719.96 650.79,722.82C645.77,724.52 640.45,724.85 635.19,724.67C637.56,722.53 639.68,719.98 640.59,716.87C641.27,714.81 639.55,713.34 638.54,711.81Z" style="fill:rgb(252,253,222);fill-rule:nonzero;"/>
        </g>
        <g transform="matrix(4.166667,0,0,4.166667,0,0)">
            <path d="M666.2,610.35C670.56,608.62 675.36,608.87 679.97,608.64C684.63,608.36 689.25,609.33 693.64,610.86C689.06,613.07 683.66,614.23 680.19,618.21C678.42,621.88 679.51,626.19 679.57,630.11C680.66,641.09 679.31,652.07 679.69,663.06C679.72,666.36 678.51,669.62 678.96,672.93C681.66,677.4 686.4,680.32 688.73,685.09C690.29,688.39 691.86,691.75 692.62,695.35C692.92,698.75 692.38,702.26 691.18,705.46C689.27,709.46 686.06,712.62 683.26,716.01C682.71,716.28 681.6,716.83 681.05,717.11C680.69,717.43 679.96,718.09 679.6,718.42L679.48,718.51L679.37,718.57C676.62,720.08 673.74,721.36 671.1,723.05C666.97,725.88 664.24,730.23 660.31,733.29C657.71,735.47 654.69,737.29 652.76,740.15C652.07,741.68 653.41,743.31 655,743.39C657.72,742.49 659.95,740.57 662.63,739.57C665.38,738.53 668.23,737.82 671.03,736.94C674.64,741.61 679.72,744.83 683.27,749.55C683.01,749.84 682.48,750.42 682.22,750.71C679.62,753.05 675.33,751.76 672.05,752.1C663.66,752.63 655.32,751.45 646.96,751.23C641.04,752.11 635.09,753.13 629.11,752.07L629.71,750.81C632.65,744.36 636.78,738.5 641.43,733.18C643.98,735.29 646.34,738.69 650.1,738.19C651.46,738.29 652.69,737.41 653.23,736.2C655.67,730.46 657.26,723.56 654.16,717.74C650.81,711.18 648.51,704 643.93,698.13C640.69,693.94 638.42,689.07 634.8,685.17C631.41,681.47 629.37,676.63 625.21,673.64C624.79,672.49 624.4,671.37 624,670.24C623.56,670.31 622.66,670.46 622.21,670.53C619.98,667.15 616.59,662.27 611.91,663.99C611.42,665.38 611.16,667.43 612.61,668.38C614.94,670.18 617.25,672.04 619.02,674.43C617.05,674.87 615.09,675.34 613.1,675.67C610.4,672.54 608.35,668.93 606.08,665.5C613.05,660.7 618.85,654.35 626.16,650.03C630.38,647.23 632.12,642.17 635.36,638.45C640.05,632.79 645.23,627.57 649.74,621.76C653.83,616.24 660.05,613.02 666.2,610.35Z" style="fill:rgb(236,28,52);fill-rule:nonzero;"/>
        </g>
        <g transform="matrix(4.166667,0,0,4.166667,0,0)">
            <path d="M681.05,717.11C681.6,716.83 682.71,716.28 683.26,716.01C682.71,716.28 681.6,716.83 681.05,717.11Z" style="fill:rgb(195,112,125);fill-rule:nonzero;"/>
        </g>
        <g transform="matrix(4.166667,0,0,4.166667,0,0)">
            <path d="M679.48,718.51L679.6,718.42L679.5,718.51L679.37,718.57L679.48,718.51Z" style="fill:rgb(193,147,156);fill-rule:nonzero;"/>
        </g>
        <g transform="matrix(4.166667,0,0,4.166667,0,0)">
            <path d="M682.22,750.71C682.48,750.42 683.01,749.84 683.27,749.55C683.4,749.9 683.68,750.62 683.81,750.98C683.41,750.91 682.62,750.77 682.22,750.71Z" style="fill:rgb(213,151,155);fill-rule:nonzero;"/>
        </g>
    </g>
</svg>
