<?xml version="1.0" encoding="UTF-8" standalone="no"?>
<!DOCTYPE svg PUBLIC "-//W3C//DTD SVG 1.1//EN" "http://www.w3.org/Graphics/SVG/1.1/DTD/svg11.dtd">
<svg width="100%" height="100%" viewBox="0 0 630 635" version="1.1" xmlns="http://www.w3.org/2000/svg" xmlns:xlink="http://www.w3.org/1999/xlink" xml:space="preserve" xmlns:serif="http://www.serif.com/" style="fill-rule:evenodd;clip-rule:evenodd;stroke-linejoin:round;stroke-miterlimit:2;">
    <g transform="matrix(1,0,0,1,-2379.166667,-3237.5)">
        <g transform="matrix(4.166667,0,0,4.166667,0,0)">
            <path d="M619.98,803.99C623.72,800.96 628.39,799.03 633.03,797.87C640.41,797.42 648.26,800.22 653.1,805.97C655.28,808.49 657.82,811.01 658.48,814.43C659.73,820.4 660.26,826.74 658.51,832.66C657.51,836.25 655.59,839.47 653.99,842.81C655.79,844.08 657.56,845.37 659.31,846.72C665.42,841.01 670.89,833.94 679.14,831.26C686.27,829.54 694.43,830.16 700.5,834.6C704.66,837.73 708.93,841.57 709.97,846.93C711.63,855.96 710.79,866.23 704.68,873.53C701.4,877.25 698.49,881.73 693.72,883.69C685.86,887.29 676.87,886.13 668.7,884.34C667.78,887.48 667.16,890.76 665.71,893.72C663.83,896.88 661.2,899.5 658.8,902.26C662.94,904.58 666.66,907.61 669.51,911.44C672.25,915.12 676.74,916.86 679.6,920.41C681.53,922.77 683.62,925.08 684.68,928.01C682.88,929.62 679.93,929.63 678.23,927.89C676.24,925.21 674.35,922.34 671.4,920.62C665.7,917.03 662.85,910.11 656.38,907.57C651.18,904.76 645.87,908.87 640.66,909.56C638.44,911.36 635.71,912.87 634.67,915.71C632.99,919.67 631.52,923.74 630.27,927.87L629.9,929.09C628.67,928.86 627.49,928.51 626.37,928.02C626.1,926.07 625.7,924.02 626.46,922.14C628,917.7 629.7,913.27 632.09,909.21C626.32,908.91 621.42,905.53 615.91,904.25C611.02,903.84 605.28,904.29 601.65,900.28C596.48,894.32 596.82,883.03 604.4,879.15C609.88,875.94 608.75,868.89 610.75,863.74C612.33,857.94 617.37,854.19 620.12,849.04C621.29,848.34 622.46,847.65 623.64,846.98C618.23,841.56 613.46,834.82 612.87,826.95C611.66,818.64 615.27,810.59 619.98,803.99M624.32,807.41C620.94,812.57 617.08,818.34 617.84,824.85C617.96,832.5 623.07,838.98 628.57,843.81C629.19,843.5 629.81,843.2 630.45,842.91C632.06,839.54 635.48,837.61 638.01,834.99C643.96,831.01 648.95,825.82 654.64,821.49C653.84,812.69 646.8,804.87 637.95,803.74C633.09,802.56 628.55,805.44 624.32,807.41M672.58,841.44C669.29,844.9 665.48,847.84 662.41,851.51C661,852.39 659.6,853.28 658.21,854.2C655.21,849.89 650.64,846 645.07,846.35C640.04,846.74 634.71,846.74 630.15,849.16C625.58,852.11 621.18,855.56 618.2,860.2C613.41,866.1 615.7,874.91 610.7,880.69C608.65,883.28 604.84,884.41 603.99,887.9C602.66,890.92 603.88,894.68 606.37,896.74C608.49,898.49 611.41,898.29 613.99,898.46C618.85,898.45 623.34,900.49 627.94,901.78C631.68,898.87 634.09,894.81 635.89,890.5C637.14,891.27 639.67,891.15 639.61,893.16C639.87,894.89 639,896.52 638.53,898.15C637.19,899.82 635.81,901.46 634.41,903.08C642.8,903.31 652.6,902.11 658.12,895.03C662.14,890.73 663.36,884.76 663.87,879.09C666.61,878.94 669.4,878.65 672.11,879.33C679.35,880.78 687.65,881.46 694.04,877.03C696.67,874.58 698.9,871.74 701.22,869.02C706.49,862.61 706.19,853.46 704.24,845.85C702.26,843.2 699.74,840.96 697.14,838.95C689.61,834.15 678.98,835.16 672.58,841.44Z" style="fill:rgb(61,37,97);fill-rule:nonzero;"/>
        </g>
        <g transform="matrix(4.166667,0,0,4.166667,0,0)">
            <path d="M677.61,846.69C680.73,844.75 684.56,844.72 688.11,844.89C692.42,846.65 697.53,849.73 697.27,855.09C697.79,857.92 695.84,860.81 692.78,860.41C691.38,858.23 689.68,856.28 687.99,854.35C678.01,854.21 670.13,861.06 662.34,866.34C660.26,865.05 659.1,862.79 660.52,860.51C666.03,855.68 671.52,850.79 677.61,846.69Z" style="fill:rgb(61,37,97);fill-rule:nonzero;"/>
        </g>
        <g transform="matrix(4.166667,0,0,4.166667,0,0)">
            <path d="M632.46,858.33C637.01,856.61 642.39,855.8 646.89,858.16C651.19,860.27 653.47,864.87 654.75,869.28C655.75,874.95 652.89,880.46 649.27,884.65C645.81,887.23 641.41,888.23 637.15,887.71C632.21,885.92 627,883 625.28,877.69C623.48,870.67 625.58,861.86 632.46,858.33M632.85,864.81C630.42,867.26 630.1,870.86 629.53,874.08C630.55,876.05 631.2,878.51 633.34,879.62C636.43,881.36 640.12,883.28 643.68,881.62C647.87,879.82 649.08,875.05 650.13,871.05C648.96,868.85 647.98,866.5 646.31,864.63C644.47,862.7 641.66,862.58 639.21,862.07C637.09,862.96 634.67,863.33 632.85,864.81Z" style="fill:rgb(61,37,97);fill-rule:nonzero;"/>
        </g>
        <g transform="matrix(4.166667,0,0,4.166667,0,0)">
            <path d="M636.96,879.12C630.8,876.83 632.48,865.87 638.91,865.16C641.06,864.34 641.52,867.01 641.78,868.49C640.76,869.83 639.78,871.21 638.81,872.6C640.76,872.61 642.72,872.75 644.52,873.61C644.52,874.53 644.51,876.38 644.5,877.31C642.14,878.18 639.52,880.53 636.96,879.12Z" style="fill:rgb(61,37,97);fill-rule:nonzero;"/>
        </g>
        <g transform="matrix(4.166667,0,0,4.166667,0,0)">
            <path d="M571,777C621.33,777.01 671.67,777 722,777L722,928C709.56,928 697.12,927.99 684.68,928.01C683.62,925.08 681.53,922.77 679.6,920.41C676.74,916.86 672.25,915.12 669.51,911.44C666.66,907.61 662.94,904.58 658.8,902.26C661.2,899.5 663.83,896.88 665.71,893.72C667.16,890.76 667.78,887.48 668.7,884.34C676.87,886.13 685.86,887.29 693.72,883.69C698.49,881.73 701.4,877.25 704.68,873.53C710.79,866.23 711.63,855.96 709.97,846.93C708.93,841.57 704.66,837.73 700.5,834.6C694.43,830.16 686.27,829.54 679.14,831.26C670.89,833.94 665.42,841.01 659.31,846.72C657.56,845.37 655.79,844.08 653.99,842.81C655.59,839.47 657.51,836.25 658.51,832.66C660.26,826.74 659.73,820.4 658.48,814.43C657.82,811.01 655.28,808.49 653.1,805.97C648.26,800.22 640.41,797.42 633.03,797.87C628.39,799.03 623.72,800.96 619.98,803.99C615.27,810.59 611.66,818.64 612.87,826.95C613.46,834.82 618.23,841.56 623.64,846.98C622.46,847.65 621.29,848.34 620.12,849.04C617.37,854.19 612.33,857.94 610.75,863.74C608.75,868.89 609.88,875.94 604.4,879.15C596.82,883.03 596.48,894.32 601.65,900.28C605.28,904.29 611.02,903.84 615.91,904.25C621.42,905.53 626.32,908.91 632.09,909.21C629.7,913.27 628,917.7 626.46,922.14C625.7,924.02 626.1,926.07 626.37,928.02C607.91,927.97 589.46,928.01 571,928L571,777Z" style="fill:rgb(252,253,222);fill-rule:nonzero;"/>
        </g>
        <g transform="matrix(4.166667,0,0,4.166667,0,0)">
            <path d="M624.32,807.41C628.55,805.44 633.09,802.56 637.95,803.74C646.8,804.87 653.84,812.69 654.64,821.49C648.95,825.82 643.96,831.01 638.01,834.99C635.48,837.61 632.06,839.54 630.45,842.91C629.81,843.2 629.19,843.5 628.57,843.81C623.07,838.98 617.96,832.5 617.84,824.85C617.08,818.34 620.94,812.57 624.32,807.41Z" style="fill:rgb(252,253,222);fill-rule:nonzero;"/>
        </g>
        <g transform="matrix(4.166667,0,0,4.166667,0,0)">
            <path d="M672.58,841.44C678.98,835.16 689.61,834.15 697.14,838.95C699.74,840.96 702.26,843.2 704.24,845.85C706.19,853.46 706.49,862.61 701.22,869.02C698.9,871.74 696.67,874.58 694.04,877.03C687.65,881.46 679.35,880.78 672.11,879.33C669.4,878.65 666.61,878.94 663.87,879.09C663.36,884.76 662.14,890.73 658.12,895.03C652.6,902.11 642.8,903.31 634.41,903.08C635.81,901.46 637.19,899.82 638.53,898.15C641.47,898.39 644.78,899.21 647.4,897.36C650.47,895.71 652.29,892.27 652.23,888.82C651.55,887.22 650.33,885.97 649.27,884.65C652.89,880.46 655.75,874.95 654.75,869.28C653.47,864.87 651.19,860.27 646.89,858.16C642.39,855.8 637.01,856.61 632.46,858.33C625.58,861.86 623.48,870.67 625.28,877.69C627,883 632.21,885.92 637.15,887.71C636.72,888.63 636.3,889.56 635.89,890.5C634.09,894.81 631.68,898.87 627.94,901.78C623.34,900.49 618.85,898.45 613.99,898.46C611.41,898.29 608.49,898.49 606.37,896.74C603.88,894.68 602.66,890.92 603.99,887.9C604.84,884.41 608.65,883.28 610.7,880.69C615.7,874.91 613.41,866.1 618.2,860.2C621.18,855.56 625.58,852.11 630.15,849.16C634.71,846.74 640.04,846.74 645.07,846.35C650.64,846 655.21,849.89 658.21,854.2C659.6,853.28 661,852.39 662.41,851.51C665.48,847.84 669.29,844.9 672.58,841.44M677.61,846.69C671.52,850.79 666.03,855.68 660.52,860.51C659.1,862.79 660.26,865.05 662.34,866.34C663.67,869.41 665.28,873.29 669.1,873.76C674.55,874.17 680.34,873.75 685.3,871.26C688.89,868.69 692.9,865.24 692.78,860.41C695.84,860.81 697.79,857.92 697.27,855.09C697.53,849.73 692.42,846.65 688.11,844.89C684.56,844.72 680.73,844.75 677.61,846.69Z" style="fill:rgb(252,253,222);fill-rule:nonzero;"/>
        </g>
        <g transform="matrix(4.166667,0,0,4.166667,0,0)">
            <path d="M632.85,864.81C634.67,863.33 637.09,862.96 639.21,862.07C641.66,862.58 644.47,862.7 646.31,864.63C647.98,866.5 648.96,868.85 650.13,871.05C649.08,875.05 647.87,879.82 643.68,881.62C640.12,883.28 636.43,881.36 633.34,879.62C631.2,878.51 630.55,876.05 629.53,874.08C630.1,870.86 630.42,867.26 632.85,864.81M636.96,879.12C639.52,880.53 642.14,878.18 644.5,877.31C644.51,876.38 644.52,874.53 644.52,873.61C642.72,872.75 640.76,872.61 638.81,872.6C639.78,871.21 640.76,869.83 641.78,868.49C641.52,867.01 641.06,864.34 638.91,865.16C632.48,865.87 630.8,876.83 636.96,879.12Z" style="fill:rgb(252,253,222);fill-rule:nonzero;"/>
        </g>
        <g transform="matrix(4.166667,0,0,4.166667,0,0)">
            <path d="M640.66,909.56C645.87,908.87 651.18,904.76 656.38,907.57C662.85,910.11 665.7,917.03 671.4,920.62C674.35,922.34 676.24,925.21 678.23,927.89C662.25,928.05 646.25,928.1 630.27,927.87C631.52,923.74 632.99,919.67 634.67,915.71C635.71,912.87 638.44,911.36 640.66,909.56Z" style="fill:rgb(252,253,222);fill-rule:nonzero;"/>
        </g>
        <g transform="matrix(4.166667,0,0,4.166667,0,0)">
            <path d="M662.34,866.34C670.13,861.06 678.01,854.21 687.99,854.35C689.68,856.28 691.38,858.23 692.78,860.41C692.9,865.24 688.89,868.69 685.3,871.26C680.34,873.75 674.55,874.17 669.1,873.76C665.28,873.29 663.67,869.41 662.34,866.34Z" style="fill:rgb(236,28,52);fill-rule:nonzero;"/>
        </g>
        <g transform="matrix(4.166667,0,0,4.166667,0,0)">
            <path d="M637.15,887.71C641.41,888.23 645.81,887.23 649.27,884.65C650.33,885.97 651.55,887.22 652.23,888.82C652.29,892.27 650.47,895.71 647.4,897.36C644.78,899.21 641.47,898.39 638.53,898.15C639,896.52 639.87,894.89 639.61,893.16C639.67,891.15 637.14,891.27 635.89,890.5C636.3,889.56 636.72,888.63 637.15,887.71Z" style="fill:rgb(236,28,52);fill-rule:nonzero;"/>
        </g>
    </g>
</svg>
