<?xml version="1.0" encoding="UTF-8" standalone="no"?>
<!DOCTYPE svg PUBLIC "-//W3C//DTD SVG 1.1//EN" "http://www.w3.org/Graphics/SVG/1.1/DTD/svg11.dtd">
<svg width="100%" height="100%" viewBox="0 0 630 634" version="1.1" xmlns="http://www.w3.org/2000/svg" xmlns:xlink="http://www.w3.org/1999/xlink" xml:space="preserve" xmlns:serif="http://www.serif.com/" style="fill-rule:evenodd;clip-rule:evenodd;stroke-linejoin:round;stroke-miterlimit:2;">
    <g transform="matrix(1,0,0,1,-219.25,-1797.145301)">
        <g transform="matrix(4.166667,0,0,4.166667,0,0)">
            <path d="M135.46,440.91C135.37,438.38 136.33,433.99 139.79,435.1C142.67,437.31 144.56,440.53 146.22,443.71C148.27,448.03 150.71,452.16 152.77,456.49C156.77,453.85 160.42,450.39 165.14,449.06C170.1,447.74 175.4,447.24 180.44,448.45C182.48,448.79 184.84,450.87 183.13,452.95C177.77,461.02 170.62,467.69 164.66,475.29C169.95,477.24 174.23,481.1 177.23,485.82C179.22,488.6 183.45,492.48 179.72,495.63C177.13,495.5 174.62,494.75 172.03,494.63C167.3,494.29 162.65,495.5 158.15,496.77C157.26,503.55 158.84,510.23 159.6,516.92C159.33,523.12 157.46,529.14 155.64,535.04C156.09,535.5 157,536.41 157.45,536.87C155.88,542.06 155.77,547.5 155.09,552.85C157.32,554.58 160.13,555.99 161.21,558.78C162.73,561.97 162.61,565.58 163.06,569.02C163.43,573 164.51,577.1 163.34,581.05C162.09,582.98 160.06,583.44 157.93,582.81C158,582.41 158.15,581.61 158.23,581.21C158.72,575.31 157.88,569.39 157.17,563.54C156.43,559.3 151.46,558.1 149.5,554.69C149.68,550.05 150.89,545.51 151.29,540.89C146.39,541.05 140.89,540.67 136.69,543.63C133.54,547.24 134.4,552.48 132.6,556.68C131.08,558.77 128.99,560.4 127.7,562.67C124.12,569.21 120.84,575.96 116.67,582.15L115.69,582.29C112.04,582.82 108.19,582.83 104.78,581.27C104.61,580.95 104.27,580.3 104.11,579.97C104.16,574.79 106.84,570.06 108.86,565.41C107.12,561.86 104.55,558.83 101.42,556.44C99.86,555.51 99.96,553.63 100.19,552.07C103,549.86 106.38,548.54 109.5,546.84C104.49,544.24 98.39,546.48 93.55,543.4C87.67,539.77 86.57,531.21 89.3,525.28C90.78,521.25 96.04,520.61 97.57,516.6C99.27,512.65 99.72,508.2 99.26,503.95C98.97,500.52 100.87,497.44 101.83,494.27C97.79,495.7 93.92,497.59 89.83,498.87C87.49,499.61 86.12,496.16 87.61,494.6C92.32,488.18 98.07,482.61 104.22,477.57C94.18,473.84 84.01,470.49 73.9,466.99C71.81,466.29 73.07,463.88 72.92,462.3C81.5,460.83 90.32,459.57 98.98,461.08C104.32,461.99 109.68,462.66 115.06,463.28C112.82,457.98 107.69,454.81 102.56,452.78C97.21,450.85 91.06,452.25 86.03,449.23C87.01,447.48 87.68,445.06 90.05,444.81C95.91,443.26 101.83,441.25 107.96,441.41C115,441.91 122.58,443.15 127.9,448.2C130.96,451.51 132.16,455.98 133.88,460.04C134.95,453.72 135.82,447.33 135.46,440.91M104.22,447.04C107.96,449.62 112.64,450.74 115.75,454.23C119.19,457.09 120.32,461.7 120.01,466.01C119.57,468.26 117.2,469.59 115.01,469.37C106.46,468.04 97.93,465.62 89.23,466.13C95.14,468.38 101.15,470.41 107.1,472.58C109.45,473.46 112.7,475.8 110.45,478.49C107.14,483 102.33,486.16 98.15,489.81C101.33,488.46 104.54,487.17 107.9,486.32C109.5,487.24 111.2,488.11 113.1,488.16C119.79,488.67 126.49,489.22 133.08,490.54C139.83,491.02 146.48,492.43 152.84,494.72C157.57,489 165.68,489.5 172.39,488.87C170.32,485.62 167.67,482.56 163.99,481.13C161.99,480.98 159.99,481.28 157.99,481.17C156.49,480.57 156.46,478.9 156.1,477.59C158.31,474.94 160.48,472.25 162.47,469.43C166.64,463.78 172.39,459.44 176.17,453.5C171.71,453.46 166.94,453.6 163.01,455.96C159.47,458.43 156.04,461.06 152.63,463.71C151.04,465.19 147.43,464.39 147.54,461.94C147.66,455.98 143.67,451.26 141.07,446.24C139.51,454.26 139.41,462.53 137.38,470.46C137.05,472.88 132.44,472.52 132.34,470.03C131.96,467.33 130.8,464.88 129.29,462.65C127.22,459.51 126.88,455.47 124.41,452.57C119.21,447.3 111.14,447.08 104.22,447.04M106.25,496.91C105.46,498.96 104.67,501.03 103.93,503.11C107.57,503.84 111.31,503.27 114.96,503.96C118,504.44 121.18,505.14 124.2,504.2C124.7,502.65 126.24,500.78 125.07,499.22C118.77,498.71 112.56,497.36 106.25,496.91M104.49,510.53C103.63,514.56 103.18,519.07 100.22,522.21C98.25,524.58 94.79,525.68 93.81,528.83C92.3,531.93 93.44,535.8 95.95,538.02C98.17,539.91 101.24,539.57 103.94,539.81C108.74,539.82 113.13,541.95 117.72,543.09C118.95,541.85 120.24,540.66 121.41,539.36C123.33,537.2 123.82,534.03 126.1,532.16C128.8,531.77 129.58,534.74 129.44,536.86C127.95,539.56 126.3,542.19 124.07,544.38C126.03,544.37 127.99,544.33 129.95,544.27C131.84,541.37 134.09,538.72 136.75,536.5C135.26,534.86 133.82,533.18 132.54,531.36C133.35,530.27 134.15,529.17 134.95,528.08C138.74,529.36 141.19,532.69 143.61,535.67C145.42,535.4 147.23,535.18 149.04,534.97C151,532.15 152.12,528.89 152.88,525.58C149.81,524.94 146.65,524.48 143.73,523.25C141.93,521.41 143.72,518.46 146.01,518.26C148.58,518.53 151.05,519.38 153.57,519.95C153.73,518 153.87,516.06 153.98,514.12C150.64,513.36 147.21,513.37 143.81,513.4C143.67,519.75 138.66,526.32 132.04,526.79C125.98,527.54 119.49,525.09 115.83,520.12C114.14,517.28 114.14,513.86 114,510.67C110.83,510.55 107.66,510.6 104.49,510.53M119.01,511.61C119.48,513.94 119.37,516.98 121.7,518.37C124.94,520.61 129.14,522.46 133.04,520.79C136.72,519.97 138.26,516.21 139.18,512.96C136.81,512.75 134.44,512.59 132.07,512.4C131.71,514.15 132.22,516.42 130.7,517.74C129.69,519.21 127.96,517.64 126.76,517.32C126.67,515.69 126.57,514.08 126.47,512.47C123.98,512.17 121.5,511.86 119.01,511.61Z" style="fill:rgb(61,37,97);fill-rule:nonzero;"/>
        </g>
        <g transform="matrix(4.166667,0,0,4.166667,0,0)">
            <path d="M138.39,528.01C138.43,526.3 140.21,524.42 142.05,525.02C144.7,525.64 147.27,526.84 149.04,528.98C147.9,530.17 147.09,532.78 144.94,532.01C142.54,531.21 139.56,530.5 138.39,528.01Z" style="fill:rgb(61,37,97);fill-rule:nonzero;"/>
        </g>
        <g transform="matrix(4.166667,0,0,4.166667,0,0)">
            <path d="M52.62,431.42C102.97,431.21 153.32,431.39 203.66,431.33C203.61,481.68 203.79,532.03 203.57,582.38C190.05,582.27 176.54,582.37 163.02,582.33L163.34,581.05C164.51,577.1 163.43,573 163.06,569.02C162.61,565.58 162.73,561.97 161.21,558.78C160.13,555.99 157.32,554.58 155.09,552.85C155.77,547.5 155.88,542.06 157.45,536.87C157,536.41 156.09,535.5 155.64,535.04C157.46,529.14 159.33,523.12 159.6,516.92C158.84,510.23 157.26,503.55 158.15,496.77C162.65,495.5 167.3,494.29 172.03,494.63C174.62,494.75 177.13,495.5 179.72,495.63C183.45,492.48 179.22,488.6 177.23,485.82C174.23,481.1 169.95,477.24 164.66,475.29C170.62,467.69 177.77,461.02 183.13,452.95C184.84,450.87 182.48,448.79 180.44,448.45C175.4,447.24 170.1,447.74 165.14,449.06C160.42,450.39 156.77,453.85 152.77,456.49C150.71,452.16 148.27,448.03 146.22,443.71C144.56,440.53 142.67,437.31 139.79,435.1C136.33,433.99 135.37,438.38 135.46,440.91C135.82,447.33 134.95,453.72 133.88,460.04C132.16,455.98 130.96,451.51 127.9,448.2C122.58,443.15 115,441.91 107.96,441.41C101.83,441.25 95.91,443.26 90.05,444.81C87.68,445.06 87.01,447.48 86.03,449.23C91.06,452.25 97.21,450.85 102.56,452.78C107.69,454.81 112.82,457.98 115.06,463.28C109.68,462.66 104.32,461.99 98.98,461.08C90.32,459.57 81.5,460.83 72.92,462.3C73.07,463.88 71.81,466.29 73.9,466.99C84.01,470.49 94.18,473.84 104.22,477.57C98.07,482.61 92.32,488.18 87.61,494.6C86.12,496.16 87.49,499.61 89.83,498.87C93.92,497.59 97.79,495.7 101.83,494.27C100.87,497.44 98.97,500.52 99.26,503.95C99.72,508.2 99.27,512.65 97.57,516.6C96.04,520.61 90.78,521.25 89.3,525.28C86.57,531.21 87.67,539.77 93.55,543.4C98.39,546.48 104.49,544.24 109.5,546.84C106.38,548.54 103,549.86 100.19,552.07C99.96,553.63 99.86,555.51 101.42,556.44C104.55,558.83 107.12,561.86 108.86,565.41C106.84,570.06 104.16,574.79 104.11,579.97C104.27,580.3 104.61,580.95 104.78,581.27L105.45,582.43C87.86,582.21 70.27,582.4 52.68,582.33C52.63,532.03 52.73,481.72 52.62,431.42Z" style="fill:rgb(252,253,222);fill-rule:nonzero;"/>
        </g>
        <g transform="matrix(4.166667,0,0,4.166667,0,0)">
            <path d="M104.22,447.04C111.14,447.08 119.21,447.3 124.41,452.57C126.88,455.47 127.22,459.51 129.29,462.65C130.8,464.88 131.96,467.33 132.34,470.03C132.44,472.52 137.05,472.88 137.38,470.46C139.41,462.53 139.51,454.26 141.07,446.24C143.67,451.26 147.66,455.98 147.54,461.94C147.43,464.39 151.04,465.19 152.63,463.71C156.04,461.06 159.47,458.43 163.01,455.96C166.94,453.6 171.71,453.46 176.17,453.5C172.39,459.44 166.64,463.78 162.47,469.43C160.48,472.25 158.31,474.94 156.1,477.59C156.46,478.9 156.49,480.57 157.99,481.17C159.99,481.28 161.99,480.98 163.99,481.13C167.67,482.56 170.32,485.62 172.39,488.87C165.68,489.5 157.57,489 152.84,494.72C146.48,492.43 139.83,491.02 133.08,490.54C126.49,489.22 119.79,488.67 113.1,488.16C111.2,488.11 109.5,487.24 107.9,486.32C104.54,487.17 101.33,488.46 98.15,489.81C102.33,486.16 107.14,483 110.45,478.49C112.7,475.8 109.45,473.46 107.1,472.58C101.15,470.41 95.14,468.38 89.23,466.13C97.93,465.62 106.46,468.04 115.01,469.37C117.2,469.59 119.57,468.26 120.01,466.01C120.32,461.7 119.19,457.09 115.75,454.23C112.64,450.74 107.96,449.62 104.22,447.04Z" style="fill:rgb(252,253,222);fill-rule:nonzero;"/>
        </g>
        <g transform="matrix(4.166667,0,0,4.166667,0,0)">
            <path d="M106.25,496.91C112.56,497.36 118.77,498.71 125.07,499.22C126.24,500.78 124.7,502.65 124.2,504.2C121.18,505.14 118,504.44 114.96,503.96C111.31,503.27 107.57,503.84 103.93,503.11C104.67,501.03 105.46,498.96 106.25,496.91Z" style="fill:rgb(252,253,222);fill-rule:nonzero;"/>
        </g>
        <g transform="matrix(4.166667,0,0,4.166667,0,0)">
            <path d="M104.49,510.53C107.66,510.6 110.83,510.55 114,510.67C114.14,513.86 114.14,517.28 115.83,520.12C119.49,525.09 125.98,527.54 132.04,526.79C138.66,526.32 143.67,519.75 143.81,513.4C147.21,513.37 150.64,513.36 153.98,514.12C153.87,516.06 153.73,518 153.57,519.95C151.05,519.38 148.58,518.53 146.01,518.26C143.72,518.46 141.93,521.41 143.73,523.25C146.65,524.48 149.81,524.94 152.88,525.58C152.12,528.89 151,532.15 149.04,534.97C147.23,535.18 145.42,535.4 143.61,535.67C141.19,532.69 138.74,529.36 134.95,528.08C134.15,529.17 133.35,530.27 132.54,531.36C133.82,533.18 135.26,534.86 136.75,536.5C134.09,538.72 131.84,541.37 129.95,544.27C127.99,544.33 126.03,544.37 124.07,544.38C126.3,542.19 127.95,539.56 129.44,536.86C129.58,534.74 128.8,531.77 126.1,532.16C123.82,534.03 123.33,537.2 121.41,539.36C120.24,540.66 118.95,541.85 117.72,543.09C113.13,541.95 108.74,539.82 103.94,539.81C101.24,539.57 98.17,539.91 95.95,538.02C93.44,535.8 92.3,531.93 93.81,528.83C94.79,525.68 98.25,524.58 100.22,522.21C103.18,519.07 103.63,514.56 104.49,510.53M100.34,525.46C96.91,526.95 94.24,531.24 95.91,534.88C97.62,539.51 105.27,539.83 107.59,535.61C108.62,533.64 110.22,531.33 109.04,529.09C107.66,525.77 103.63,524.43 100.34,525.46M138.39,528.01C139.56,530.5 142.54,531.21 144.94,532.01C147.09,532.78 147.9,530.17 149.04,528.98C147.27,526.84 144.7,525.64 142.05,525.02C140.21,524.42 138.43,526.3 138.39,528.01Z" style="fill:rgb(252,253,222);fill-rule:nonzero;"/>
        </g>
        <g transform="matrix(4.166667,0,0,4.166667,0,0)">
            <path d="M119.01,511.61C121.5,511.86 123.98,512.17 126.47,512.47C126.57,514.08 126.67,515.69 126.76,517.32C127.96,517.64 129.69,519.21 130.7,517.74C132.22,516.42 131.71,514.15 132.07,512.4C134.44,512.59 136.81,512.75 139.18,512.96C138.26,516.21 136.72,519.97 133.04,520.79C129.14,522.46 124.94,520.61 121.7,518.37C119.37,516.98 119.48,513.94 119.01,511.61Z" style="fill:rgb(252,253,222);fill-rule:nonzero;"/>
        </g>
        <g transform="matrix(4.166667,0,0,4.166667,0,0)">
            <path d="M116.67,582.15C121.85,581.63 127.06,581.95 132.25,582.23C126.73,582.44 121.21,582.32 115.69,582.29L116.67,582.15Z" style="fill:rgb(252,253,222);fill-rule:nonzero;"/>
        </g>
        <g transform="matrix(4.166667,0,0,4.166667,0,0)">
            <path d="M100.34,525.46C103.63,524.43 107.66,525.77 109.04,529.09C110.22,531.33 108.62,533.64 107.59,535.61C105.27,539.83 97.62,539.51 95.91,534.88C94.24,531.24 96.91,526.95 100.34,525.46Z" style="fill:rgb(236,28,52);fill-rule:nonzero;"/>
        </g>
        <g transform="matrix(4.166667,0,0,4.166667,0,0)">
            <path d="M136.69,543.63C140.89,540.67 146.39,541.05 151.29,540.89C150.89,545.51 149.68,550.05 149.5,554.69C151.46,558.1 156.43,559.3 157.17,563.54C157.88,569.39 158.72,575.31 158.23,581.21C156.76,580.92 155.47,581.82 154.23,582.46C147.03,583.81 139.56,581.99 132.25,582.23C127.06,581.95 121.85,581.63 116.67,582.15C120.84,575.96 124.12,569.21 127.7,562.67C128.99,560.4 131.08,558.77 132.6,556.68C134.4,552.48 133.54,547.24 136.69,543.63Z" style="fill:rgb(236,28,52);fill-rule:nonzero;"/>
        </g>
        <g transform="matrix(4.166667,0,0,4.166667,0,0)">
            <path d="M154.23,582.46C155.47,581.82 156.76,580.92 158.23,581.21C158.15,581.61 158,582.41 157.93,582.81C156.63,583.75 155.39,583.63 154.23,582.46Z" style="fill:rgb(174,94,108);fill-rule:nonzero;"/>
        </g>
    </g>
</svg>
