<?xml version="1.0" encoding="UTF-8" standalone="no"?>
<!DOCTYPE svg PUBLIC "-//W3C//DTD SVG 1.1//EN" "http://www.w3.org/Graphics/SVG/1.1/DTD/svg11.dtd">
<svg width="100%" height="100%" viewBox="0 0 630 631" version="1.1" xmlns="http://www.w3.org/2000/svg" xmlns:xlink="http://www.w3.org/1999/xlink" xml:space="preserve" xmlns:serif="http://www.serif.com/" style="fill-rule:evenodd;clip-rule:evenodd;stroke-linejoin:round;stroke-miterlimit:2;">
    <g transform="matrix(1,0,0,1,-3119.25,-1805.472664)">
        <g transform="matrix(4.166667,0,0,4.166667,0,0)">
            <path d="M851.28,443.43C852.48,444.15 853.82,444.75 854.78,445.83C854.05,448.63 852.36,451.01 850.79,453.38C854.15,451.47 857.58,447.87 861.79,449.31C863.67,449.64 863.26,451.62 863.31,453.04C861.15,454.96 858.05,455.24 855.48,456.39C858.29,456.92 861.32,456.8 863.99,457.96C865.94,458.91 864.58,461.32 864.76,462.99C862.19,462.84 859.63,462.57 857.1,462.24C863.27,468.48 865.37,477.51 864.57,486.05C863.72,495.33 864.22,504.93 861.06,513.83C859.84,517.49 858.88,521.22 857.73,524.9C856.51,528.93 853.24,531.82 850.7,535.03C851.63,541.01 850.92,547.34 847.28,552.35C849.25,559.92 853.88,566.3 856.67,573.53C858.02,576.66 860.93,579.33 860.86,582.92C860.29,585.59 857.37,584.87 856.09,583.2C852.71,578.75 850.85,573.5 848.37,568.57C845.86,564.69 844.78,560.14 842.63,556.08C833.83,559.43 824.56,561.81 816.22,566.22C814.2,571.85 814.67,578.12 812.16,583.62C811.05,583.52 809.96,583.45 808.88,583.28C808.72,582.91 808.41,582.19 808.25,581.83C808.92,572.79 811.72,564.03 812.81,555.03C813.44,552.24 811.16,550.12 809.96,547.87C810.51,545.05 811.16,542.25 811.88,539.47C807.49,537.31 802.55,538.02 797.93,537.04C789.01,534.78 786.83,522.54 791.76,515.71C794.36,513.04 798.49,511.58 799.46,507.6C800.43,502.93 801.14,498.17 803.14,493.78C797.78,493.49 792.48,492.65 787.17,491.93C784.97,491.15 781.3,491.05 781.1,488.06C781.18,484.76 783.04,481.38 786.48,480.68C793.05,479.15 799.87,480.37 806.54,480.43C808.97,474.59 812.31,469.14 816.13,464.12C820.89,459.68 827.54,458.26 833.38,455.78C833.71,453.34 834.28,450.83 836.73,449.71C837.63,450.18 838.55,450.65 839.47,451.14C840.43,449.06 840.85,444.88 844.03,445.5C846.51,445.87 845.68,448.91 846.32,450.65C847.85,448.16 849.56,445.79 851.28,443.43M829.95,462.84C825.98,464.67 821.59,466.09 818.61,469.46C832.29,473.61 846.88,475.73 859.31,483.19C860.24,474.93 855.58,466.5 847.95,463.19C842.1,462.02 835.67,460.24 829.95,462.84M811.74,481.08C815.79,481.7 819.89,481.85 823.99,481.99C831.96,483.4 840.04,486.29 845.71,492.33C847.96,495.24 848.62,499.09 851.05,501.92C853.51,504.67 853.28,508.63 853.14,512.08C851.78,520.98 846.2,528.54 840.13,534.91C844.38,533.23 849.05,530.68 850.37,525.95C851.3,522.4 852.72,518.98 854.78,515.93C858.86,507.62 858.38,498.1 859.34,489.12C854.94,487.48 850.98,484.87 846.56,483.3C840.6,480.94 834.23,479.92 828.21,477.77C823.96,476.29 819.5,475.63 815.18,474.45C813.98,476.63 812.84,478.84 811.74,481.08M787.54,486.45C796.71,487.13 805.88,488.12 814.82,490.37C823.3,491.44 831.66,493.28 840.08,494.75C834.37,490.01 826.95,487.47 819.55,487.59C808.95,486.71 798.13,484.31 787.54,486.45M808.23,495.24C805.03,500.59 806.08,507.43 802.86,512.79C801.39,515.29 798.84,516.77 796.73,518.64C793.42,521.83 793.84,527.77 797.51,530.52C799.65,532.19 802.51,531.87 805.06,532.12C809.91,532.1 814.35,534.24 818.96,535.46C820.84,533.54 823.1,531.85 824.26,529.36C825.15,527.84 825.66,526.01 827.03,524.83C828.35,523.73 829.92,525.23 830.63,526.34C831.14,530.55 828.02,534.02 825.18,536.7C828.65,537.17 832.19,536.29 834.4,533.41C840.17,526.13 848.88,518.92 847.78,508.66C845.53,518.3 834.27,524.45 824.93,521.24C819.27,519.93 815.15,514.59 814.22,509.04C813.32,504.7 815.7,500.78 817.12,496.86C814.3,496.11 811.01,494.3 808.23,495.24M819.24,507.03C819.54,510.9 822.15,514.75 826,515.79C834.16,519 844.98,511.34 842.68,502.24C840.33,499.78 836.72,499.87 833.63,499.22C833.67,502.29 831.58,504.48 829.68,506.61C832.18,506.62 835.84,504.86 837.15,508.01C837.48,510.67 834.87,512.12 832.88,513.14C828.79,514.41 823.93,511.49 823.79,507.04C823.1,502.91 826.89,500.34 829.88,498.41C828.13,498.12 826.39,497.8 824.68,497.49C821.32,499.45 819.44,503.23 819.24,507.03M830.95,543.01C826.2,543.49 821.44,542.84 816.81,541.78C816.53,542.69 816.25,543.61 815.99,544.53C817.39,545.43 818.78,546.35 820.19,547.27C821.43,547.3 822.69,547.33 823.95,547.37C824.48,546.83 825.54,545.76 826.07,545.22C828.75,547.67 832.19,548.6 835.79,548.14C836.24,545.98 836.11,542.83 839.05,542.56C841.49,543.27 840.96,546.21 841.57,548.15C846.08,547.46 845.85,542.18 846.03,538.69C841.07,540.31 836.25,542.72 830.95,543.01Z" style="fill:rgb(61,37,97);fill-rule:nonzero;"/>
        </g>
        <g transform="matrix(4.166667,0,0,4.166667,0,0)">
            <path d="M748.62,433.44C798.96,433.19 849.31,433.4 899.66,433.33C899.59,483.69 899.82,534.04 899.55,584.39C886.66,584.26 873.77,584.36 860.88,584.34L860.86,582.92C860.93,579.33 858.02,576.66 856.67,573.53C853.88,566.3 849.25,559.92 847.28,552.35C850.92,547.34 851.63,541.01 850.7,535.03C853.24,531.82 856.51,528.93 857.73,524.9C858.88,521.22 859.84,517.49 861.06,513.83C864.22,504.93 863.72,495.33 864.57,486.05C865.37,477.51 863.27,468.48 857.1,462.24C859.63,462.57 862.19,462.84 864.76,462.99C864.58,461.32 865.94,458.91 863.99,457.96C861.32,456.8 858.29,456.92 855.48,456.39C858.05,455.24 861.15,454.96 863.31,453.04C863.26,451.62 863.67,449.64 861.79,449.31C857.58,447.87 854.15,451.47 850.79,453.38C852.36,451.01 854.05,448.63 854.78,445.83C853.82,444.75 852.48,444.15 851.28,443.43C849.56,445.79 847.85,448.16 846.32,450.65C845.68,448.91 846.51,445.87 844.03,445.5C840.85,444.88 840.43,449.06 839.47,451.14C838.55,450.65 837.63,450.18 836.73,449.71C834.28,450.83 833.71,453.34 833.38,455.78C827.54,458.26 820.89,459.68 816.13,464.12C812.31,469.14 808.97,474.59 806.54,480.43C799.87,480.37 793.05,479.15 786.48,480.68C783.04,481.38 781.18,484.76 781.1,488.06C781.3,491.05 784.97,491.15 787.17,491.93C792.48,492.65 797.78,493.49 803.14,493.78C801.14,498.17 800.43,502.93 799.46,507.6C798.49,511.58 794.36,513.04 791.76,515.71C786.83,522.54 789.01,534.78 797.93,537.04C802.55,538.02 807.49,537.31 811.88,539.47C811.16,542.25 810.51,545.05 809.96,547.87C811.16,550.12 813.44,552.24 812.81,555.03C811.72,564.03 808.92,572.79 808.25,581.83C808.41,582.19 808.72,582.91 808.88,583.28L809.43,584.43C789.18,584.2 768.93,584.4 748.68,584.33C748.62,534.03 748.74,483.74 748.62,433.44Z" style="fill:rgb(252,253,222);fill-rule:nonzero;"/>
        </g>
        <g transform="matrix(4.166667,0,0,4.166667,0,0)">
            <path d="M811.74,481.08C812.84,478.84 813.98,476.63 815.18,474.45C819.5,475.63 823.96,476.29 828.21,477.77C834.23,479.92 840.6,480.94 846.56,483.3C850.98,484.87 854.94,487.48 859.34,489.12C858.38,498.1 858.86,507.62 854.78,515.93C852.72,518.98 851.3,522.4 850.37,525.95C849.05,530.68 844.38,533.23 840.13,534.91C846.2,528.54 851.78,520.98 853.14,512.08C853.28,508.63 853.51,504.67 851.05,501.92C848.62,499.09 847.96,495.24 845.71,492.33C840.04,486.29 831.96,483.4 823.99,481.99C819.89,481.85 815.79,481.7 811.74,481.08Z" style="fill:rgb(252,253,222);fill-rule:nonzero;"/>
        </g>
        <g transform="matrix(4.166667,0,0,4.166667,0,0)">
            <path d="M808.23,495.24C811.01,494.3 814.3,496.11 817.12,496.86C815.7,500.78 813.32,504.7 814.22,509.04C815.15,514.59 819.27,519.93 824.93,521.24C834.27,524.45 845.53,518.3 847.78,508.66C848.88,518.92 840.17,526.13 834.4,533.41C832.19,536.29 828.65,537.17 825.18,536.7C828.02,534.02 831.14,530.55 830.63,526.34C829.92,525.23 828.35,523.73 827.03,524.83C825.66,526.01 825.15,527.84 824.26,529.36C823.1,531.85 820.84,533.54 818.96,535.46C814.35,534.24 809.91,532.1 805.06,532.12C802.51,531.87 799.65,532.19 797.51,530.52C793.84,527.77 793.42,521.83 796.73,518.64C798.84,516.77 801.39,515.29 802.86,512.79C806.08,507.43 805.03,500.59 808.23,495.24Z" style="fill:rgb(252,253,222);fill-rule:nonzero;"/>
        </g>
        <g transform="matrix(4.166667,0,0,4.166667,0,0)">
            <path d="M819.24,507.03C819.44,503.23 821.32,499.45 824.68,497.49C826.39,497.8 828.13,498.12 829.88,498.41C826.89,500.34 823.1,502.91 823.79,507.04C823.93,511.49 828.79,514.41 832.88,513.14C834.87,512.12 837.48,510.67 837.15,508.01C835.84,504.86 832.18,506.62 829.68,506.61C831.58,504.48 833.67,502.29 833.63,499.22C836.72,499.87 840.33,499.78 842.68,502.24C844.98,511.34 834.16,519 826,515.79C822.15,514.75 819.54,510.9 819.24,507.03Z" style="fill:rgb(252,253,222);fill-rule:nonzero;"/>
        </g>
        <g transform="matrix(4.166667,0,0,4.166667,0,0)">
            <path d="M816.22,566.22C824.56,561.81 833.83,559.43 842.63,556.08C844.78,560.14 845.86,564.69 848.37,568.57C850.85,573.5 852.71,578.75 856.09,583.2L856.86,584.34C841.85,584.42 826.84,584.15 811.83,584.48L812.16,583.62C814.67,578.12 814.2,571.85 816.22,566.22Z" style="fill:rgb(252,253,222);fill-rule:nonzero;"/>
        </g>
        <g transform="matrix(4.166667,0,0,4.166667,0,0)">
            <path d="M829.95,462.84C835.67,460.24 842.1,462.02 847.95,463.19C855.58,466.5 860.24,474.93 859.31,483.19C846.88,475.73 832.29,473.61 818.61,469.46C821.59,466.09 825.98,464.67 829.95,462.84Z" style="fill:rgb(236,28,52);fill-rule:nonzero;"/>
        </g>
        <g transform="matrix(4.166667,0,0,4.166667,0,0)">
            <path d="M787.54,486.45C798.13,484.31 808.95,486.71 819.55,487.59C826.95,487.47 834.37,490.01 840.08,494.75C831.66,493.28 823.3,491.44 814.82,490.37C805.88,488.12 796.71,487.13 787.54,486.45Z" style="fill:rgb(236,28,52);fill-rule:nonzero;"/>
        </g>
        <g transform="matrix(4.166667,0,0,4.166667,0,0)">
            <path d="M830.95,543.01C836.25,542.72 841.07,540.31 846.03,538.69C845.85,542.18 846.08,547.46 841.57,548.15C840.96,546.21 841.49,543.27 839.05,542.56C836.11,542.83 836.24,545.98 835.79,548.14C832.19,548.6 828.75,547.67 826.07,545.22C825.54,545.76 824.48,546.83 823.95,547.37C822.69,547.33 821.43,547.3 820.19,547.27C818.78,546.35 817.39,545.43 815.99,544.53C816.25,543.61 816.53,542.69 816.81,541.78C821.44,542.84 826.2,543.49 830.95,543.01Z" style="fill:rgb(236,28,52);fill-rule:nonzero;"/>
        </g>
    </g>
</svg>
