<?xml version="1.0" encoding="UTF-8" standalone="no"?>
<!DOCTYPE svg PUBLIC "-//W3C//DTD SVG 1.1//EN" "http://www.w3.org/Graphics/SVG/1.1/DTD/svg11.dtd">
<svg width="100%" height="100%" viewBox="0 0 630 645" version="1.1" xmlns="http://www.w3.org/2000/svg" xmlns:xlink="http://www.w3.org/1999/xlink" xml:space="preserve" xmlns:serif="http://www.serif.com/" style="fill-rule:evenodd;clip-rule:evenodd;stroke-linejoin:round;stroke-miterlimit:2;">
    <g transform="matrix(1,0,0,1,-219.25,-3977.722662)">
        <g transform="matrix(4.166667,0,0,4.166667,0,0)">
            <path d="M147.04,1005.83C158.06,1005.56 168.99,1003.77 180.01,1003.58C187.24,1003.47 193.23,1010.92 191.55,1017.94C191.2,1020.67 188.84,1022.38 187.11,1024.28C189.1,1028.19 190.04,1032.96 188.18,1037.12C187.25,1039.85 185.08,1042.43 182.1,1042.88C174.44,1043.9 166.69,1042.97 159.04,1044.17C158.36,1048.78 157.58,1053.46 155.7,1057.77C153.55,1061.76 150.26,1065 146.97,1068.07C150.68,1075.4 154.24,1082.87 156.78,1090.7C161.83,1090.16 167.28,1089.61 171.94,1092.12C176.46,1095.05 179.42,1100.28 179.16,1105.73C179.43,1108.19 176.6,1110.54 174.67,1108.35C174.49,1107.68 174.14,1106.32 173.96,1105.64C173.48,1101.88 171.71,1097.78 167.89,1096.43C163.27,1094.84 158.63,1097.01 154.01,1097.23C151.35,1093.6 150.85,1089.01 148.99,1085.01C147.11,1081.01 145.65,1076.83 143.54,1072.95C137.28,1076.87 131.39,1081.42 124.72,1084.66C122.46,1091.42 118.4,1097.61 117.78,1104.87C117.43,1107.33 113.78,1107.78 112.55,1105.75C113.07,1101.31 113.69,1096.79 115.66,1092.73C118.56,1086.73 120.74,1080.42 122.73,1074.07C115.1,1073.78 108.78,1068.21 101.07,1068.62C96.78,1068.69 92.12,1066.95 89.92,1063.08C87.48,1058.6 87.11,1052.93 89.43,1048.34C90.83,1044.86 95.12,1044.09 96.99,1040.99C98.92,1037.95 98.77,1034.21 99.74,1030.86C100.72,1027.53 101.73,1024.18 103.21,1021.05C107.82,1013.45 116.52,1009.5 124.97,1008.01C132.31,1007.14 139.62,1005.7 147.04,1005.83M150.03,1011.19C145.29,1011.13 140.72,1012.84 135.98,1012.8C128.83,1012.76 121.53,1013.84 115.06,1017.01C111.91,1019.2 109.68,1022.41 107.43,1025.45C103.45,1031.02 104.99,1038.6 101.25,1044.27C99.82,1046.5 97.46,1047.81 95.5,1049.52C91.71,1053.08 92.69,1060.22 97.55,1062.33C101.3,1063.52 105.39,1062.7 109.16,1063.86C112.03,1064.75 114.91,1065.64 117.84,1066.38C119.91,1064.2 122.31,1062.21 123.45,1059.35C124.23,1057.36 125.58,1055.7 127.63,1054.97C130.12,1057.38 129.15,1060.6 127.88,1063.34C126.59,1064.8 125.3,1066.26 124.01,1067.74C132.62,1068.03 142.74,1066.67 148.2,1059.2C153.12,1053.66 153.27,1045.9 154.01,1038.94C154.34,1033.74 154.5,1028.42 153.1,1023.36C158.42,1022.17 163.94,1022.73 169.22,1021.38C173.86,1020.22 178.84,1021.26 183.36,1019.49C184.94,1018.89 186.42,1017.61 186.81,1015.91C186.36,1012.94 184.44,1009.54 181.11,1009.37C170.7,1008.85 160.43,1011.19 150.03,1011.19M172.2,1028.21C170.1,1029.51 173.41,1030.06 174.11,1031.03C174.28,1031.91 174.62,1033.66 174.79,1034.54C169.78,1037.15 162.93,1033.75 158.87,1038.34C165.95,1038.08 173.05,1037.9 180.13,1037.52C183.97,1037.61 183.74,1032.65 184.2,1030C183.51,1029.19 182.82,1028.39 182.14,1027.6C178.83,1027.77 175.46,1027.5 172.2,1028.21Z" style="fill:rgb(61,37,97);fill-rule:nonzero;"/>
        </g>
        <g transform="matrix(4.166667,0,0,4.166667,0,0)">
            <path d="M151.53,1015.4C160.04,1014.66 168.52,1013.31 177.05,1012.86C179.9,1012.39 180.69,1016.38 178.65,1017.79C176.32,1018.59 173.86,1018.93 171.45,1019.46C166.72,1020.82 161.78,1020.33 156.93,1020.82C154.88,1021.04 152.86,1020.65 150.9,1020.09C151.03,1018.51 151.16,1016.96 151.32,1015.42L151.53,1015.4Z" style="fill:rgb(61,37,97);fill-rule:nonzero;"/>
        </g>
        <g transform="matrix(4.166667,0,0,4.166667,0,0)">
            <path d="M115.15,1045.89C108.94,1036.82 115.77,1023.55 125.91,1021.14C130.36,1020.33 135.21,1020.36 139.22,1022.71C146.1,1026.22 148.71,1035.56 145.51,1042.41C144.14,1046.02 141.1,1048.58 137.98,1050.68C135.07,1052.26 131.79,1052.99 128.5,1053.23C123.3,1052.71 117.82,1050.7 115.15,1045.89M125.36,1027.38C119.55,1029.54 115.85,1037.14 119.39,1042.65C123.64,1049.69 134.89,1048.54 139.31,1042.28C142.02,1039.01 142.59,1033.72 139.78,1030.34C136.44,1026.06 130.12,1025.26 125.36,1027.38Z" style="fill:rgb(61,37,97);fill-rule:nonzero;"/>
        </g>
        <g transform="matrix(4.166667,0,0,4.166667,0,0)">
            <path d="M123.14,1034.28C124.99,1031.27 128.44,1028.54 132.16,1029.71C132.06,1031.03 131.96,1032.36 131.86,1033.7C130.54,1034.84 129.43,1036.18 128.61,1037.73C131,1037.5 134.67,1035.9 135.78,1039.08C135.83,1043.1 130.44,1045.51 127.03,1043.93C123.01,1042.98 121.37,1037.73 123.14,1034.28Z" style="fill:rgb(61,37,97);fill-rule:nonzero;"/>
        </g>
        <g transform="matrix(4.166667,0,0,4.166667,0,0)">
            <path d="M52.68,954.67C103.02,954.71 153.36,954.57 203.69,954.74C203.63,1005.04 203.69,1055.35 203.66,1105.66C195.49,1105.7 187.32,1105.58 179.16,1105.73C179.42,1100.28 176.46,1095.05 171.94,1092.12C167.28,1089.61 161.83,1090.16 156.78,1090.7C154.24,1082.87 150.68,1075.4 146.97,1068.07C150.26,1065 153.55,1061.76 155.7,1057.77C157.58,1053.46 158.36,1048.78 159.04,1044.17C166.69,1042.97 174.44,1043.9 182.1,1042.88C185.08,1042.43 187.25,1039.85 188.18,1037.12C190.04,1032.96 189.1,1028.19 187.11,1024.28C188.84,1022.38 191.2,1020.67 191.55,1017.94C193.23,1010.92 187.24,1003.47 180.01,1003.58C168.99,1003.77 158.06,1005.56 147.04,1005.83C139.62,1005.7 132.31,1007.14 124.97,1008.01C116.52,1009.5 107.82,1013.45 103.21,1021.05C101.73,1024.18 100.72,1027.53 99.74,1030.86C98.77,1034.21 98.92,1037.95 96.99,1040.99C95.12,1044.09 90.83,1044.86 89.43,1048.34C87.11,1052.93 87.48,1058.6 89.92,1063.08C92.12,1066.95 96.78,1068.69 101.07,1068.62C108.78,1068.21 115.1,1073.78 122.73,1074.07C120.74,1080.42 118.56,1086.73 115.66,1092.73C113.69,1096.79 113.07,1101.31 112.55,1105.75C92.58,1105.49 72.6,1105.84 52.62,1105.57C52.73,1055.27 52.62,1004.97 52.68,954.67Z" style="fill:rgb(252,253,222);fill-rule:nonzero;"/>
        </g>
        <g transform="matrix(4.166667,0,0,4.166667,0,0)">
            <path d="M150.03,1011.19C160.43,1011.19 170.7,1008.85 181.11,1009.37C184.44,1009.54 186.36,1012.94 186.81,1015.91C186.42,1017.61 184.94,1018.89 183.36,1019.49C178.84,1021.26 173.86,1020.22 169.22,1021.38C163.94,1022.73 158.42,1022.17 153.1,1023.36C154.5,1028.42 154.34,1033.74 154.01,1038.94C153.27,1045.9 153.12,1053.66 148.2,1059.2C142.74,1066.67 132.62,1068.03 124.01,1067.74C125.3,1066.26 126.59,1064.8 127.88,1063.34C131.7,1065.83 136.71,1064.9 140.03,1062C142.82,1058.34 141.89,1053.11 137.98,1050.68C141.1,1048.58 144.14,1046.02 145.51,1042.41C148.71,1035.56 146.1,1026.22 139.22,1022.71C135.21,1020.36 130.36,1020.33 125.91,1021.14C115.77,1023.55 108.94,1036.82 115.15,1045.89C117.82,1050.7 123.3,1052.71 128.5,1053.23C128.29,1053.66 127.85,1054.53 127.63,1054.97C125.58,1055.7 124.23,1057.36 123.45,1059.35C122.31,1062.21 119.91,1064.2 117.84,1066.38C114.91,1065.64 112.03,1064.75 109.16,1063.86C105.39,1062.7 101.3,1063.52 97.55,1062.33C92.69,1060.22 91.71,1053.08 95.5,1049.52C97.46,1047.81 99.82,1046.5 101.25,1044.27C104.99,1038.6 103.45,1031.02 107.43,1025.45C109.68,1022.41 111.91,1019.2 115.06,1017.01C121.53,1013.84 128.83,1012.76 135.98,1012.8C140.72,1012.84 145.29,1011.13 150.03,1011.19M158.94,1013.22C156.39,1013.58 153.02,1012.62 151.53,1015.4L151.32,1015.42C151.16,1016.96 151.03,1018.51 150.9,1020.09C152.86,1020.65 154.88,1021.04 156.93,1020.82C161.78,1020.33 166.72,1020.82 171.45,1019.46C174.51,1019.4 178.7,1020.73 180.8,1017.76C182.46,1015.87 181.56,1012.33 179,1011.83C172.25,1011 165.68,1013.33 158.94,1013.22Z" style="fill:rgb(252,253,222);fill-rule:nonzero;"/>
        </g>
        <g transform="matrix(4.166667,0,0,4.166667,0,0)">
            <path d="M125.36,1027.38C130.12,1025.26 136.44,1026.06 139.78,1030.34C142.59,1033.72 142.02,1039.01 139.31,1042.28C134.89,1048.54 123.64,1049.69 119.39,1042.65C115.85,1037.14 119.55,1029.54 125.36,1027.38M123.14,1034.28C121.37,1037.73 123.01,1042.98 127.03,1043.93C130.44,1045.51 135.83,1043.1 135.78,1039.08C134.67,1035.9 131,1037.5 128.61,1037.73C129.43,1036.18 130.54,1034.84 131.86,1033.7C131.96,1032.36 132.06,1031.03 132.16,1029.71C128.44,1028.54 124.99,1031.27 123.14,1034.28Z" style="fill:rgb(252,253,222);fill-rule:nonzero;"/>
        </g>
        <g transform="matrix(4.166667,0,0,4.166667,0,0)">
            <path d="M172.2,1028.21C175.46,1027.5 178.83,1027.77 182.14,1027.6C182.82,1028.39 183.51,1029.19 184.2,1030C183.74,1032.65 183.97,1037.61 180.13,1037.52C173.05,1037.9 165.95,1038.08 158.87,1038.34C162.93,1033.75 169.78,1037.15 174.79,1034.54C174.62,1033.66 174.28,1031.91 174.11,1031.03C173.41,1030.06 170.1,1029.51 172.2,1028.21Z" style="fill:rgb(252,253,222);fill-rule:nonzero;"/>
        </g>
        <g transform="matrix(4.166667,0,0,4.166667,0,0)">
            <path d="M124.72,1084.66C131.39,1081.42 137.28,1076.87 143.54,1072.95C145.65,1076.83 147.11,1081.01 148.99,1085.01C150.85,1089.01 151.35,1093.6 154.01,1097.23C158.63,1097.01 163.27,1094.84 167.89,1096.43C171.71,1097.78 173.48,1101.88 173.96,1105.64C155.19,1105.7 136.41,1105.64 117.64,1105.67L117.78,1104.87C118.4,1097.61 122.46,1091.42 124.72,1084.66Z" style="fill:rgb(252,253,222);fill-rule:nonzero;"/>
        </g>
        <g transform="matrix(4.166667,0,0,4.166667,0,0)">
            <path d="M158.94,1013.22C165.68,1013.33 172.25,1011 179,1011.83C181.56,1012.33 182.46,1015.87 180.8,1017.76C178.7,1020.73 174.51,1019.4 171.45,1019.46C173.86,1018.93 176.32,1018.59 178.65,1017.79C180.69,1016.38 179.9,1012.39 177.05,1012.86C168.52,1013.31 160.04,1014.66 151.53,1015.4C153.02,1012.62 156.39,1013.58 158.94,1013.22Z" style="fill:rgb(236,28,52);fill-rule:nonzero;"/>
        </g>
        <g transform="matrix(4.166667,0,0,4.166667,0,0)">
            <path d="M128.5,1053.23C131.79,1052.99 135.07,1052.26 137.98,1050.68C141.89,1053.11 142.82,1058.34 140.03,1062C136.71,1064.9 131.7,1065.83 127.88,1063.34C129.15,1060.6 130.12,1057.38 127.63,1054.97C127.85,1054.53 128.29,1053.66 128.5,1053.23Z" style="fill:rgb(236,28,52);fill-rule:nonzero;"/>
        </g>
    </g>
</svg>
