<?xml version="1.0" encoding="UTF-8" standalone="no"?>
<!DOCTYPE svg PUBLIC "-//W3C//DTD SVG 1.1//EN" "http://www.w3.org/Graphics/SVG/1.1/DTD/svg11.dtd">
<svg width="100%" height="100%" viewBox="0 0 630 633" version="1.1" xmlns="http://www.w3.org/2000/svg" xmlns:xlink="http://www.w3.org/1999/xlink" xml:space="preserve" xmlns:serif="http://www.serif.com/" style="fill-rule:evenodd;clip-rule:evenodd;stroke-linejoin:round;stroke-miterlimit:2;">
    <g transform="matrix(1,0,0,1,-2379.121667,-319.427083)">
        <g transform="matrix(4.166667,0,0,4.166667,0,0)">
            <path d="M644.37,126.43C646.38,125.84 648.31,126.9 650.19,127.48C659.35,126.48 668.4,129.84 675.46,135.53C682.72,144.61 684.76,156.67 684.12,168.02C683.82,170.37 683.73,173.12 681.77,174.79C679.83,176.66 677.08,177.13 674.61,177.9C673.63,184.57 672.24,191.7 667.13,196.54C671.36,198.41 676.1,199.91 679.23,203.51C681.53,207.19 683.83,210.94 685.35,215.03C685.93,218.66 684.57,222.26 684.04,225.84C683.36,226.84 682.94,228.89 681.35,228.49C680.46,228.08 679.61,227.63 678.78,227.15C679.06,223.72 680.03,220.39 680.35,216.98C679.24,213.46 676.87,210.53 675.35,207.19C671.41,204.44 666.99,201.46 661.95,201.91C658.63,202.67 655.7,204.57 652.45,205.54C647.48,207.36 642.11,207.15 636.92,207.1C636.54,207.37 635.8,207.91 635.43,208.18C630.48,209.32 626.74,213.98 626.13,218.94C625.68,221.89 625.22,224.86 624.3,227.71C623.64,227.7 622.33,227.68 621.67,227.67C618.88,224.29 620.51,219.72 621.23,215.91C622.22,211.23 625.64,207.66 628.88,204.37C625.03,203.1 621.19,201.46 617.05,201.63C612.73,201.72 607.98,200.12 605.68,196.24C602.78,191.28 602.79,184.68 605.95,179.84C607.63,177.84 610.02,176.66 612.1,175.14C610.44,171.41 611.99,167.67 613.71,164.31C609.84,161.42 610.41,156.28 610.97,152.07C613.87,144.33 617.18,136.04 624.43,131.35C630.5,127.9 637.68,127.81 644.37,126.43M627.47,135.72C621.57,140.35 618.59,147.4 615.79,154.14C615.89,155.74 616.02,157.35 616.17,158.95C618.08,159.63 619.97,160.35 621.85,161.1C623.4,162.69 625.16,164.06 627.02,165.29C631.99,165.73 636.97,166.22 641.97,166.32C646.43,166.57 650.76,164.51 655.23,165.52C656.94,163.45 658.47,160.94 661.1,159.96C664.31,158.38 667.58,160.57 670.67,161.44C671.9,163.5 673.24,165.5 674.64,167.46C674.63,169.1 674.62,170.75 674.66,172.39C675.97,171.3 678.48,170.94 678.63,168.9C679.8,159.16 678.6,148.5 672.53,140.47C668.31,136.6 662.83,133.41 656.97,133.34C653.42,132.97 649.62,133.89 646.36,132.07C639.94,132.73 633.62,133.77 627.47,135.72M659.35,176.83C660.73,177.7 662.08,179.55 663.95,178.81C666.58,178.32 668.19,175.6 668.11,173.05C668.38,169.85 666.27,167.23 664.72,164.66C659.37,166.03 657.67,172.02 659.35,176.83M617.15,170.07C619.62,172.51 621.6,175.69 625,176.95C634.27,180.41 644.43,179.4 653.83,176.98C653.82,174.87 653.82,172.75 653.83,170.64C644.63,172.69 635.25,171.54 625.99,170.72C623.07,170.01 621.61,166.93 618.96,165.69C618.27,167.11 617.69,168.59 617.15,170.07M616.61,177.67C614.5,180.57 610.47,181.85 609.36,185.47C607.63,189.3 609.96,194.52 614.07,195.61C616.37,196.07 618.73,196.02 621.06,196.24C625.22,196.43 628.97,198.51 633.02,199.29C635.45,197.74 637.6,195.61 638.8,192.95C639.71,191.36 640.28,189.36 642,188.41C643.09,188.88 644.17,189.39 645.25,189.93C645.21,194.22 642.58,197.73 639.84,200.77C641.77,200.74 643.73,200.82 645.66,200.48C647.58,197.28 651.12,194.19 650.27,190.12C649.92,187.93 649.2,185.83 648.51,183.74C644.12,185.04 639.48,185 634.96,184.59C628.41,184.09 621.19,182.84 616.61,177.67M653.87,182.59C655.61,188.07 656.88,194.55 653.18,199.54C660.57,197.18 666.3,191.06 668.29,183.58C665.39,184.12 662.12,185.53 659.43,183.56C657.77,182.33 655.82,182.22 653.87,182.59Z" style="fill:rgb(61,37,97);fill-rule:nonzero;"/>
        </g>
        <g transform="matrix(4.166667,0,0,4.166667,0,0)">
            <path d="M652.46,223.6C646.92,218.37 650.85,207.91 658.08,206.64C660.61,205.91 662.65,208.13 665.13,208.28C669.65,211.11 672.11,218.11 668.57,222.54C664.35,226.22 656.89,227.62 652.46,223.6M658.18,212.31C656.22,213.32 654.58,215.73 655.07,217.97C656.43,220.77 660.26,220.8 662.78,219.72C663.74,219.21 665.72,218.54 664.97,217.07C664.33,214.17 661.45,210.45 658.18,212.31Z" style="fill:rgb(61,37,97);fill-rule:nonzero;"/>
        </g>
        <g transform="matrix(4.166667,0,0,4.166667,0,0)">
            <path d="M571,76.67C621.33,76.66 671.67,76.66 722,76.67C721.97,127.02 722.06,177.36 721.95,227.7C709.22,227.63 696.48,227.66 683.75,227.69C683.82,227.22 683.97,226.3 684.04,225.84C684.57,222.26 685.93,218.66 685.35,215.03C683.83,210.94 681.53,207.19 679.23,203.51C676.1,199.91 671.36,198.41 667.13,196.54C672.24,191.7 673.63,184.57 674.61,177.9C677.08,177.13 679.83,176.66 681.77,174.79C683.73,173.12 683.82,170.37 684.12,168.02C684.76,156.67 682.72,144.61 675.46,135.53C668.4,129.84 659.35,126.48 650.19,127.48C648.31,126.9 646.38,125.84 644.37,126.43C637.68,127.81 630.5,127.9 624.43,131.35C617.18,136.04 613.87,144.33 610.97,152.07C610.41,156.28 609.84,161.42 613.71,164.31C611.99,167.67 610.44,171.41 612.1,175.14C610.02,176.66 607.63,177.84 605.95,179.84C602.79,184.68 602.78,191.28 605.68,196.24C607.98,200.12 612.73,201.72 617.05,201.63C621.19,201.46 625.03,203.1 628.88,204.37C625.64,207.66 622.22,211.23 621.23,215.91C620.51,219.72 618.88,224.29 621.67,227.67C604.8,227.69 587.92,227.62 571.05,227.7C570.93,177.36 571.03,127.02 571,76.67Z" style="fill:rgb(252,253,222);fill-rule:nonzero;"/>
        </g>
        <g transform="matrix(4.166667,0,0,4.166667,0,0)">
            <path d="M627.47,135.72C633.62,133.77 639.94,132.73 646.36,132.07C636.84,135.79 629.34,143.38 623.59,151.63C622.05,153.34 622.77,155.18 624.07,156.79C627.76,152.58 630.72,147.71 635.08,144.09C640.86,138.1 648.91,134.82 656.97,133.34C662.83,133.41 668.31,136.6 672.53,140.47C678.6,148.5 679.8,159.16 678.63,168.9C678.48,170.94 675.97,171.3 674.66,172.39C674.62,170.75 674.63,169.1 674.64,167.46C673.24,165.5 671.9,163.5 670.67,161.44C667.58,160.57 664.31,158.38 661.1,159.96C658.47,160.94 656.94,163.45 655.23,165.52C650.76,164.51 646.43,166.57 641.97,166.32C636.97,166.22 631.99,165.73 627.02,165.29C625.16,164.06 623.4,162.69 621.85,161.1C619.97,160.35 618.08,159.63 616.17,158.95C616.02,157.35 615.89,155.74 615.79,154.14C618.59,147.4 621.57,140.35 627.47,135.72Z" style="fill:rgb(252,253,222);fill-rule:nonzero;"/>
        </g>
        <g transform="matrix(4.166667,0,0,4.166667,0,0)">
            <path d="M659.35,176.83C657.67,172.02 659.37,166.03 664.72,164.66C666.27,167.23 668.38,169.85 668.11,173.05C668.19,175.6 666.58,178.32 663.95,178.81C662.08,179.55 660.73,177.7 659.35,176.83Z" style="fill:rgb(252,253,222);fill-rule:nonzero;"/>
        </g>
        <g transform="matrix(4.166667,0,0,4.166667,0,0)">
            <path d="M616.61,177.67C621.19,182.84 628.41,184.09 634.96,184.59C639.48,185 644.12,185.04 648.51,183.74C649.2,185.83 649.92,187.93 650.27,190.12C651.12,194.19 647.58,197.28 645.66,200.48C643.73,200.82 641.77,200.74 639.84,200.77C642.58,197.73 645.21,194.22 645.25,189.93C644.17,189.39 643.09,188.88 642,188.41C640.28,189.36 639.71,191.36 638.8,192.95C637.6,195.61 635.45,197.74 633.02,199.29C628.97,198.51 625.22,196.43 621.06,196.24C618.73,196.02 616.37,196.07 614.07,195.61C609.96,194.52 607.63,189.3 609.36,185.47C610.47,181.85 614.5,180.57 616.61,177.67Z" style="fill:rgb(252,253,222);fill-rule:nonzero;"/>
        </g>
        <g transform="matrix(4.166667,0,0,4.166667,0,0)">
            <path d="M653.87,182.59C655.82,182.22 657.77,182.33 659.43,183.56C662.12,185.53 665.39,184.12 668.29,183.58C666.3,191.06 660.57,197.18 653.18,199.54C656.88,194.55 655.61,188.07 653.87,182.59Z" style="fill:rgb(252,253,222);fill-rule:nonzero;"/>
        </g>
        <g transform="matrix(4.166667,0,0,4.166667,0,0)">
            <path d="M652.45,205.54C655.7,204.57 658.63,202.67 661.95,201.91C666.99,201.46 671.41,204.44 675.35,207.19C676.87,210.53 679.24,213.46 680.35,216.98C680.03,220.39 679.06,223.72 678.78,227.15L678.71,227.71C660.57,227.64 642.43,227.63 624.3,227.71C625.22,224.86 625.68,221.89 626.13,218.94C626.74,213.98 630.48,209.32 635.43,208.18C635.8,207.91 636.54,207.37 636.92,207.1C642.11,207.15 647.48,207.36 652.45,205.54M652.46,223.6C656.89,227.62 664.35,226.22 668.57,222.54C672.11,218.11 669.65,211.11 665.13,208.28C662.65,208.13 660.61,205.91 658.08,206.64C650.85,207.91 646.92,218.37 652.46,223.6Z" style="fill:rgb(252,253,222);fill-rule:nonzero;"/>
        </g>
        <g transform="matrix(4.166667,0,0,4.166667,0,0)">
            <path d="M646.36,132.07C649.62,133.89 653.42,132.97 656.97,133.34C648.91,134.82 640.86,138.1 635.08,144.09C630.72,147.71 627.76,152.58 624.07,156.79C622.77,155.18 622.05,153.34 623.59,151.63C629.34,143.38 636.84,135.79 646.36,132.07Z" style="fill:rgb(236,28,52);fill-rule:nonzero;"/>
        </g>
        <g transform="matrix(4.166667,0,0,4.166667,0,0)">
            <path d="M617.15,170.07C617.69,168.59 618.27,167.11 618.96,165.69C621.61,166.93 623.07,170.01 625.99,170.72C635.25,171.54 644.63,172.69 653.83,170.64C653.82,172.75 653.82,174.87 653.83,176.98C644.43,179.4 634.27,180.41 625,176.95C621.6,175.69 619.62,172.51 617.15,170.07Z" style="fill:rgb(236,28,52);fill-rule:nonzero;"/>
        </g>
        <g transform="matrix(4.166667,0,0,4.166667,0,0)">
            <path d="M658.18,212.31C661.45,210.45 664.33,214.17 664.97,217.07C665.72,218.54 663.74,219.21 662.78,219.72C660.26,220.8 656.43,220.77 655.07,217.97C654.58,215.73 656.22,213.32 658.18,212.31Z" style="fill:rgb(236,28,52);fill-rule:nonzero;"/>
        </g>
    </g>
</svg>
