<?xml version="1.0" encoding="UTF-8" standalone="no"?>
<!DOCTYPE svg PUBLIC "-//W3C//DTD SVG 1.1//EN" "http://www.w3.org/Graphics/SVG/1.1/DTD/svg11.dtd">
<svg width="100%" height="100%" viewBox="0 0 630 638" version="1.1" xmlns="http://www.w3.org/2000/svg" xmlns:xlink="http://www.w3.org/1999/xlink" xml:space="preserve" xmlns:serif="http://www.serif.com/" style="fill-rule:evenodd;clip-rule:evenodd;stroke-linejoin:round;stroke-miterlimit:2;">
    <g transform="matrix(1,0,0,1,-2379.166667,-1800)">
        <g transform="matrix(4.166667,0,0,4.166667,0,0)">
            <path d="M657.17,453.33C658.23,447.26 662.18,441.45 668.09,439.28C673.12,438.93 678.9,439.69 682.62,443.45C684.99,445.58 684.2,449.13 684.22,451.96C684.09,456.85 681.55,461.7 677.18,464.07C679.63,469.35 680.08,475.33 679.16,481.02C681.65,483.23 683.63,485.92 685.31,488.79C682.73,496.18 681.02,504.63 674.88,510C674.01,515.07 672.62,520.03 670.74,524.81C673.97,527.52 674.39,531.87 674.18,535.81C676.65,539.23 676.53,544.35 673.16,547.14C671.21,548.13 669,548.36 666.91,548.89C668.48,552.17 670.24,555.4 671.08,558.96C672.28,564.07 674.93,568.65 676.66,573.58C677.57,576.28 679.51,579.12 678.16,582.02C677.07,582.44 675.98,582.82 674.88,583.16C672.56,578.62 671.19,573.67 668.87,569.13C666.09,564.02 666.1,557.86 662.57,553.09C654.18,556.06 646.08,559.79 638.25,563.98C637.78,570.01 638.13,576.48 634.75,581.8C634.31,582.1 633.42,582.7 632.98,583.01C631.33,584.61 626.98,586.3 626.41,582.98C626.33,582.24 626.17,580.77 626.09,580.04C623.71,579.5 619.99,580.81 618.81,578.04C618.66,574.66 619.51,571.34 620.03,568.03C620.99,562.86 621.25,557.55 622.97,552.54C621.05,550.8 618.12,549.1 618.37,546.12C618.59,542.13 618.58,538.14 618.41,534.15C614.11,534.05 609.24,533.26 606.42,529.64C602.81,524.8 602.63,517.78 605.67,512.61C607.28,510.2 610.36,509.33 612.09,507.01C613.16,505.5 613.86,503.78 614.66,502.13C613.66,501.06 612.61,500.06 611.74,498.9C611.45,495.16 612.87,491.59 613.77,488.03C615.68,481.61 616.72,474.84 620.23,469.01C624.36,466.8 629.01,465.95 633.66,465.74C636.74,462.16 639.6,458.03 644.1,456.1C648.13,453.98 652.74,453.84 657.17,453.33M663.77,449.42C668.95,450.37 674.48,450.56 679.1,453.37C678.86,450.87 679.88,447.33 676.93,446.1C672.33,443.31 666.48,444.8 663.77,449.42M650.17,459.41C657.46,462.04 665.12,463.55 672.25,466.65C671.11,464.88 669.92,463.14 668.73,461.41C662.76,459.32 656.45,458.58 650.17,459.41M639.67,466.67C643.07,467.9 646.48,469.09 649.98,470.02C658.26,472.24 666.09,475.8 674.08,478.86C674.27,477.57 674.47,476.3 674.67,475.03C671.65,472.63 668.27,470.67 664.54,469.63C657.3,467.73 650.32,464.89 642.89,463.78C641.81,464.73 640.73,465.7 639.67,466.67M624.2,473.17C622.45,474.71 622.02,477.14 621.19,479.21C626.55,479.58 631.83,480.59 637.19,481C640.77,481.81 644.65,481.03 648,482.78C653.76,485.6 660.29,486.18 666.14,488.76C670.3,490.54 674.72,491.72 678.67,493.98C678.87,491.93 679.75,489.58 678.06,487.91C673.18,483.81 666.74,482.39 661.11,479.62C655.22,477.4 649.23,475.49 643.18,473.78C637.17,471.5 630.26,470.53 624.2,473.17M620.06,484.79C619.49,487.77 617.51,490.92 618.25,493.88C621.29,494.69 624.53,494.31 627.67,494.43C627.99,492.22 628.83,488.68 631.89,489.52C634.3,490.6 633.04,493.19 632.98,495.17C635.64,495.87 638.35,496.38 641.09,496.75C641.59,495.1 641.12,492.69 643.07,491.87C644.66,490.65 647.03,492.02 646.9,493.96C646.73,495.16 646.42,496.34 646.17,497.54C648.12,497.93 650.08,498.33 652.04,498.73C652.51,496.99 653.03,495.26 653.54,493.54C654.22,493.34 655.57,492.96 656.25,492.77C658.26,494.54 657.76,497.07 657.21,499.4C659.68,499.86 662.14,500.45 664.6,501.02C665.15,499.21 665.4,496.21 668.09,496.63C670.46,497.68 669.69,500.65 670.42,502.69C671.49,503.29 672.65,503.67 673.8,504.11C674.6,502.47 675.38,500.83 676.15,499.19C672.89,496.46 668.56,495.99 664.85,494.19C658.14,490.88 650.3,490.82 643.83,486.9C635.84,487.11 627.99,485.42 620.06,484.79M620.08,499.88C619.16,503.7 618.7,507.95 615.85,510.91C613.89,513.3 610.4,514.34 609.46,517.53C607.39,521.71 610.27,527.62 615.03,528.15C621.51,528.52 627.93,529.94 634.39,528.51C637.04,524.11 641.57,521.5 646.16,519.56C648.3,518.84 650.77,519.29 652.65,520.5C654.62,521.57 653.47,525.41 651.16,524.85C648.1,524.56 645.31,525.54 643.01,527.54C649.76,526.85 656.48,525.89 663.24,525.28C667.7,520.61 668.85,514.02 669.32,507.83C666.85,507.17 664.38,506.5 661.86,506.13C660.02,512.03 654.81,516.19 649.04,517.9C642.78,519.35 635.61,517.54 631.38,512.55C628.97,508.85 627.92,504.39 628.6,500.02C625.76,499.88 622.92,499.86 620.08,499.88M633.38,501.54C633.7,503.82 633.95,506.19 635.14,508.23C636.72,508.27 638.3,508.15 639.9,508.12C638.99,506.09 638.24,504.01 637.72,501.86C636.27,501.74 634.82,501.63 633.38,501.54M651.61,504.19C651.14,505.66 650.64,507.12 650.17,508.6C652.62,508.17 655.36,507.86 656.75,505.49C655.13,504.72 653.35,504.49 651.61,504.19M623.14,535.66C623.39,538.63 625.82,540.51 627.91,542.35C627.85,543.45 627.79,544.57 627.74,545.69C626.43,546.02 625.14,546.36 623.85,546.71C631.17,548.6 638.64,546.88 645.98,546.14C653.81,546.48 661.36,544.28 668.93,542.64C672.03,544.07 670.95,537.34 668.78,540.14C663.79,540.44 658.9,541.53 654.03,542.57C651.97,543.12 649.9,542.81 647.93,542.15C648.16,540.67 648.42,539.2 648.67,537.74C655.49,536.69 662.21,535.15 669.06,534.29C668.88,532.93 668.72,531.57 668.56,530.22C653.41,531.97 638.25,533.6 623.14,535.66M628.04,553.12C626,560.05 625.24,567.27 624.34,574.41C625.74,574.35 627.16,574.29 628.58,574.25C629.7,574.23 630.84,574.21 631.98,574.2C632.1,573.6 632.35,572.4 632.47,571.81C632.52,565.44 634.16,559.24 634.44,552.9C632.3,552.98 630.17,553.05 628.04,553.12Z" style="fill:rgb(61,37,97);fill-rule:nonzero;"/>
        </g>
        <g transform="matrix(4.166667,0,0,4.166667,0,0)">
            <path d="M571,432L722,432L722,583C707.28,583.02 692.56,582.94 677.84,583.04L678.16,582.02C679.51,579.12 677.57,576.28 676.66,573.58C674.93,568.65 672.28,564.07 671.08,558.96C670.24,555.4 668.48,552.17 666.91,548.89C669,548.36 671.21,548.13 673.16,547.14C676.53,544.35 676.65,539.23 674.18,535.81C674.39,531.87 673.97,527.52 670.74,524.81C672.62,520.03 674.01,515.07 674.88,510C681.02,504.63 682.73,496.18 685.31,488.79C683.63,485.92 681.65,483.23 679.16,481.02C680.08,475.33 679.63,469.35 677.18,464.07C681.55,461.7 684.09,456.85 684.22,451.96C684.2,449.13 684.99,445.58 682.62,443.45C678.9,439.69 673.12,438.93 668.09,439.28C662.18,441.45 658.23,447.26 657.17,453.33C652.74,453.84 648.13,453.98 644.1,456.1C639.6,458.03 636.74,462.16 633.66,465.74C629.01,465.95 624.36,466.8 620.23,469.01C616.72,474.84 615.68,481.61 613.77,488.03C612.87,491.59 611.45,495.16 611.74,498.9C612.61,500.06 613.66,501.06 614.66,502.13C613.86,503.78 613.16,505.5 612.09,507.01C610.36,509.33 607.28,510.2 605.67,512.61C602.63,517.78 602.81,524.8 606.42,529.64C609.24,533.26 614.11,534.05 618.41,534.15C618.58,538.14 618.59,542.13 618.37,546.12C618.12,549.1 621.05,550.8 622.97,552.54C621.25,557.55 620.99,562.86 620.03,568.03C619.51,571.34 618.66,574.66 618.81,578.04C619.99,580.81 623.71,579.5 626.09,580.04C626.17,580.77 626.33,582.24 626.41,582.98C607.94,583.02 589.47,582.98 571,583L571,432Z" style="fill:rgb(252,253,222);fill-rule:nonzero;"/>
        </g>
        <g transform="matrix(4.166667,0,0,4.166667,0,0)">
            <path d="M663.77,449.42C666.48,444.8 672.33,443.31 676.93,446.1C679.88,447.33 678.86,450.87 679.1,453.37C674.48,450.56 668.95,450.37 663.77,449.42Z" style="fill:rgb(252,253,222);fill-rule:nonzero;"/>
        </g>
        <g transform="matrix(4.166667,0,0,4.166667,0,0)">
            <path d="M650.17,459.41C656.45,458.58 662.76,459.32 668.73,461.41C669.92,463.14 671.11,464.88 672.25,466.65C665.12,463.55 657.46,462.04 650.17,459.41Z" style="fill:rgb(252,253,222);fill-rule:nonzero;"/>
        </g>
        <g transform="matrix(4.166667,0,0,4.166667,0,0)">
            <path d="M639.67,466.67C640.73,465.7 641.81,464.73 642.89,463.78C650.32,464.89 657.3,467.73 664.54,469.63C668.27,470.67 671.65,472.63 674.67,475.03C674.47,476.3 674.27,477.57 674.08,478.86C666.09,475.8 658.26,472.24 649.98,470.02C646.48,469.09 643.07,467.9 639.67,466.67Z" style="fill:rgb(252,253,222);fill-rule:nonzero;"/>
        </g>
        <g transform="matrix(4.166667,0,0,4.166667,0,0)">
            <path d="M624.2,473.17C630.26,470.53 637.17,471.5 643.18,473.78C649.23,475.49 655.22,477.4 661.11,479.62C666.74,482.39 673.18,483.81 678.06,487.91C679.75,489.58 678.87,491.93 678.67,493.98C674.72,491.72 670.3,490.54 666.14,488.76C660.29,486.18 653.76,485.6 648,482.78C644.65,481.03 640.77,481.81 637.19,481C631.83,480.59 626.55,479.58 621.19,479.21C622.02,477.14 622.45,474.71 624.2,473.17Z" style="fill:rgb(252,253,222);fill-rule:nonzero;"/>
        </g>
        <g transform="matrix(4.166667,0,0,4.166667,0,0)">
            <path d="M620.06,484.79C627.99,485.42 635.84,487.11 643.83,486.9C650.3,490.82 658.14,490.88 664.85,494.19C668.56,495.99 672.89,496.46 676.15,499.19C675.38,500.83 674.6,502.47 673.8,504.11C672.65,503.67 671.49,503.29 670.42,502.69C669.69,500.65 670.46,497.68 668.09,496.63C665.4,496.21 665.15,499.21 664.6,501.02C662.14,500.45 659.68,499.86 657.21,499.4C657.76,497.07 658.26,494.54 656.25,492.77C655.57,492.96 654.22,493.34 653.54,493.54C653.03,495.26 652.51,496.99 652.04,498.73C650.08,498.33 648.12,497.93 646.17,497.54C646.42,496.34 646.73,495.16 646.9,493.96C647.03,492.02 644.66,490.65 643.07,491.87C641.12,492.69 641.59,495.1 641.09,496.75C638.35,496.38 635.64,495.87 632.98,495.17C633.04,493.19 634.3,490.6 631.89,489.52C628.83,488.68 627.99,492.22 627.67,494.43C624.53,494.31 621.29,494.69 618.25,493.88C617.51,490.92 619.49,487.77 620.06,484.79Z" style="fill:rgb(252,253,222);fill-rule:nonzero;"/>
        </g>
        <g transform="matrix(4.166667,0,0,4.166667,0,0)">
            <path d="M620.08,499.88C622.92,499.86 625.76,499.88 628.6,500.02C627.92,504.39 628.97,508.85 631.38,512.55C635.61,517.54 642.78,519.35 649.04,517.9C654.81,516.19 660.02,512.03 661.86,506.13C664.38,506.5 666.85,507.17 669.32,507.83C668.85,514.02 667.7,520.61 663.24,525.28C656.48,525.89 649.76,526.85 643.01,527.54C645.31,525.54 648.1,524.56 651.16,524.85C653.47,525.41 654.62,521.57 652.65,520.5C650.77,519.29 648.3,518.84 646.16,519.56C641.57,521.5 637.04,524.11 634.39,528.51C627.93,529.94 621.51,528.52 615.03,528.15C610.27,527.62 607.39,521.71 609.46,517.53C610.4,514.34 613.89,513.3 615.85,510.91C618.7,507.95 619.16,503.7 620.08,499.88Z" style="fill:rgb(252,253,222);fill-rule:nonzero;"/>
        </g>
        <g transform="matrix(4.166667,0,0,4.166667,0,0)">
            <path d="M633.38,501.54C634.82,501.63 636.27,501.74 637.72,501.86C638.24,504.01 638.99,506.09 639.9,508.12C638.3,508.15 636.72,508.27 635.14,508.23C633.95,506.19 633.7,503.82 633.38,501.54Z" style="fill:rgb(252,253,222);fill-rule:nonzero;"/>
        </g>
        <g transform="matrix(4.166667,0,0,4.166667,0,0)">
            <path d="M668.78,540.14C670.95,537.34 672.03,544.07 668.93,542.64C668.89,542.01 668.81,540.76 668.78,540.14Z" style="fill:rgb(252,253,222);fill-rule:nonzero;"/>
        </g>
        <g transform="matrix(4.166667,0,0,4.166667,0,0)">
            <path d="M638.25,563.98C646.08,559.79 654.18,556.06 662.57,553.09C666.1,557.86 666.09,564.02 668.87,569.13C671.19,573.67 672.56,578.62 674.88,583.16C660.92,582.79 646.95,583.09 632.98,583.01C633.42,582.7 634.31,582.1 634.75,581.8C638.13,576.48 637.78,570.01 638.25,563.98Z" style="fill:rgb(252,253,222);fill-rule:nonzero;"/>
        </g>
        <g transform="matrix(4.166667,0,0,4.166667,0,0)">
            <path d="M628.58,574.25C629.86,573.42 631.16,572.61 632.47,571.81C632.35,572.4 632.1,573.6 631.98,574.2C630.84,574.21 629.7,574.23 628.58,574.25Z" style="fill:rgb(252,253,222);fill-rule:nonzero;"/>
        </g>
        <g transform="matrix(4.166667,0,0,4.166667,0,0)">
            <path d="M623.14,535.66C638.25,533.6 653.41,531.97 668.56,530.22C668.72,531.57 668.88,532.93 669.06,534.29C662.21,535.15 655.49,536.69 648.67,537.74C648.42,539.2 648.16,540.67 647.93,542.15C649.9,542.81 651.97,543.12 654.03,542.57C658.9,541.53 663.79,540.44 668.78,540.14C668.81,540.76 668.89,542.01 668.93,542.64C661.36,544.28 653.81,546.48 645.98,546.14C638.64,546.88 631.17,548.6 623.85,546.71C625.14,546.36 626.43,546.02 627.74,545.69C627.79,544.57 627.85,543.45 627.91,542.35C625.82,540.51 623.39,538.63 623.14,535.66Z" style="fill:rgb(236,28,52);fill-rule:nonzero;"/>
        </g>
        <g transform="matrix(4.166667,0,0,4.166667,0,0)">
            <path d="M628.04,553.12C630.17,553.05 632.3,552.98 634.44,552.9C634.16,559.24 632.52,565.44 632.47,571.81C631.16,572.61 629.86,573.42 628.58,574.25C627.16,574.29 625.74,574.35 624.34,574.41C625.24,567.27 626,560.05 628.04,553.12Z" style="fill:rgb(236,28,52);fill-rule:nonzero;"/>
        </g>
        <g transform="matrix(4.166667,0,0,4.166667,0,0)">
            <path d="M651.61,504.19C653.35,504.49 655.13,504.72 656.75,505.49C655.36,507.86 652.62,508.17 650.17,508.6C650.64,507.12 651.14,505.66 651.61,504.19Z" style="fill:rgb(252,252,223);fill-rule:nonzero;"/>
        </g>
    </g>
</svg>
