<?xml version="1.0" encoding="UTF-8" standalone="no"?>
<!DOCTYPE svg PUBLIC "-//W3C//DTD SVG 1.1//EN" "http://www.w3.org/Graphics/SVG/1.1/DTD/svg11.dtd">
<svg width="100%" height="100%" viewBox="0 0 630 630" version="1.1" xmlns="http://www.w3.org/2000/svg" xmlns:xlink="http://www.w3.org/1999/xlink" xml:space="preserve" xmlns:serif="http://www.serif.com/" style="fill-rule:evenodd;clip-rule:evenodd;stroke-linejoin:round;stroke-miterlimit:2;">
    <g transform="matrix(1,0,0,1,-2379.139603,-3980.416667)">
        <g transform="matrix(4.166667,0,0,4.166667,0,0)">
            <path d="M571.05,955.3C621.35,955.37 671.66,955.34 721.97,955.31C722.05,1005.65 721.98,1055.98 722,1106.32C710.54,1106.38 699.08,1106.26 687.63,1106.39L687.83,1104.94C688.75,1101.82 687.03,1098.95 685.52,1096.38C685.95,1094.31 686.67,1092.22 686.3,1090.11C686.08,1087.1 683.78,1084.96 682.06,1082.72C680.98,1079.76 679,1077.17 676.01,1075.98C671.3,1074.08 666.13,1073.02 661.05,1073.53C652.39,1074 643.28,1075.01 635.79,1079.72C630.64,1082.94 629.48,1090.62 633.71,1095.05C631.33,1098.11 630.65,1102.66 634,1105.35L634.88,1106.35C613.59,1106.3 592.29,1106.35 571,1106.33C571.03,1055.98 570.94,1005.64 571.05,955.3M631.23,1011.15C627.07,1016.02 622.93,1021.43 622.01,1027.97C621.39,1032.96 620.88,1038.01 621.2,1043.05C621.98,1050.14 616.73,1056.75 619.32,1063.84C621.79,1068.53 627.63,1068.53 632.16,1069.55C634.59,1069.67 636.1,1071.76 638.07,1072.9C645.18,1075.07 652.7,1073.97 659.81,1072.34C665.87,1071.86 670.2,1066.95 673.96,1062.67C675.96,1058.3 678.17,1053.89 678.76,1049.06C681.12,1037.62 683.59,1025.44 679.98,1014C676.69,1011 673.86,1007.25 669.64,1005.52C666.77,1004.42 663.83,1003.5 660.9,1002.61C656.01,1001.59 651.01,1002.04 646.07,1002.24C640.58,1004.13 635.12,1006.71 631.23,1011.15Z" style="fill:rgb(252,253,222);fill-rule:nonzero;"/>
        </g>
        <g transform="matrix(4.166667,0,0,4.166667,0,0)">
            <path d="M627.59,1026.83C630.78,1018.53 637.13,1010.94 645.86,1008.28C654.04,1006.36 662.71,1008.02 670,1011.99C672.98,1014.64 676.77,1017.62 676.54,1022.06C676.43,1027.06 676.19,1032.07 675.89,1037.07C674.55,1037.54 672.39,1037.23 672.11,1039.09C671.39,1042.23 672.06,1045.96 669.63,1048.51C668.13,1049.02 666.22,1049.69 664.73,1048.97C663.33,1048.04 661.97,1047.09 660.6,1046.15C664.47,1044.8 665.86,1040.64 667.04,1037.12C668,1031.57 667.97,1024.67 663.29,1020.73C660,1018.12 656.6,1014.49 651.97,1015.19C641.95,1014.56 633.99,1024.43 634.02,1033.92C633.25,1039.01 636.16,1043.9 640.26,1046.7C644.46,1049.25 649.65,1049.29 654.36,1048.49C654.06,1048.93 653.46,1049.82 653.16,1050.26C651.44,1050.96 650.14,1052.25 648.85,1053.54C647.02,1053.6 644.78,1052.59 643.47,1054.4C642.49,1056.03 642.93,1058.09 642.69,1059.93C640.81,1059.55 638.94,1059.02 637.03,1058.94C635.21,1059.66 635.8,1062.18 635.29,1063.74C631.67,1063.96 627.49,1063.91 624.53,1061.61C622.52,1057.88 625.03,1053.8 625.9,1050.1C627.02,1042.39 625.72,1034.45 627.59,1026.83M628.57,1047.32C628,1049.69 627.5,1052.1 627.45,1054.57C626.11,1056.35 625.35,1059.51 627.9,1060.64C630.76,1060.9 633.01,1059.11 634.7,1057.02C634.38,1054 633.96,1050.95 632.74,1048.16C632.02,1046.48 629.92,1047.37 628.57,1047.32Z" style="fill:rgb(252,253,222);fill-rule:nonzero;"/>
        </g>
        <g transform="matrix(4.166667,0,0,4.166667,0,0)">
            <path d="M650.27,1024.2C652.25,1023.36 655.12,1023.37 656.48,1025.31C657.49,1026.57 656.73,1028.28 656.43,1029.7C654.98,1030.78 652.63,1029.9 651.36,1031.21C650.16,1034.42 654.49,1032.82 656.17,1032.93C659.06,1032.34 659.26,1035.76 658.72,1037.73C655.59,1040.6 650.09,1041.48 646.86,1038.33C641.71,1034.58 644.5,1025.69 650.27,1024.2Z" style="fill:rgb(252,253,222);fill-rule:nonzero;"/>
        </g>
        <g transform="matrix(4.166667,0,0,4.166667,0,0)">
            <path d="M666.09,1054.86C668.09,1054.55 670.09,1054.28 672.11,1054.08C670.33,1059.19 666.57,1063.48 661.85,1066.08C654.39,1067.94 646.24,1069.76 638.75,1067.07C640.28,1065.1 642.8,1065.49 644.97,1065.11C646.57,1063.83 647.32,1061.87 648.05,1060.04C649.78,1059.62 651.49,1058.8 653.3,1058.81C655.52,1059.11 657.76,1059.31 660.01,1059.39C660.98,1060.08 661.7,1061.3 663.04,1061.35C665.5,1060.19 665.37,1057.1 666.09,1054.86Z" style="fill:rgb(252,253,222);fill-rule:nonzero;"/>
        </g>
        <g transform="matrix(4.166667,0,0,4.166667,0,0)">
            <path d="M648.52,1080.75C653.84,1079.16 659.5,1079.58 664.97,1078.87C668.84,1079.68 672.88,1080.13 676.32,1082.27C674.39,1084.68 672.63,1087.31 670.17,1089.24C667.76,1090.85 664.9,1091.56 662.18,1092.46C661.95,1092.1 661.47,1091.36 661.24,1090.99C663.44,1090.16 665.71,1089.52 667.87,1088.59C668.77,1087.11 669.1,1084.58 666.86,1084.23C659.16,1084.21 650.55,1081.05 643.54,1085.68C643.97,1087.72 644.44,1089.78 644.92,1091.83C642.23,1091.47 639.04,1091.85 636.88,1089.92C635.31,1087.76 637.38,1085.36 638.99,1083.97C641.9,1082.21 645.48,1082.25 648.52,1080.75Z" style="fill:rgb(252,253,222);fill-rule:nonzero;"/>
        </g>
        <g transform="matrix(4.166667,0,0,4.166667,0,0)">
            <path d="M672.55,1094.54C675,1092.47 677.06,1089.99 679.38,1087.78C680.19,1088.9 681.01,1090.03 681.85,1091.16C680.87,1093.59 679.18,1095.64 676.88,1096.91C674.49,1098.89 671.18,1097.34 668.56,1098.62C664.91,1100.33 660.82,1101.03 656.85,1100.18C659.2,1097.55 662.9,1098.16 665.96,1097.11C668.19,1096.37 670.5,1095.72 672.55,1094.54Z" style="fill:rgb(252,253,222);fill-rule:nonzero;"/>
        </g>
    </g>
</svg>
