<?xml version="1.0" encoding="UTF-8" standalone="no"?>
<!DOCTYPE svg PUBLIC "-//W3C//DTD SVG 1.1//EN" "http://www.w3.org/Graphics/SVG/1.1/DTD/svg11.dtd">
<svg width="100%" height="100%" viewBox="0 0 630 631" version="1.1" xmlns="http://www.w3.org/2000/svg" xmlns:xlink="http://www.w3.org/1999/xlink" xml:space="preserve" xmlns:serif="http://www.serif.com/" style="fill-rule:evenodd;clip-rule:evenodd;stroke-linejoin:round;stroke-miterlimit:2;">
    <g transform="matrix(1,0,0,1,-3119.291667,-3985.958333)">
        <g transform="matrix(4.166667,0,0,4.166667,0,0)">
            <path d="M748.67,956.68C798.97,956.63 849.28,956.73 899.58,956.63C899.78,1006.97 899.62,1057.32 899.66,1107.67C889.99,1107.7 880.33,1107.59 870.67,1107.73C869.87,1102.62 865.76,1098.98 864.32,1094.11C862.25,1087.93 858.39,1082.65 854.99,1077.18C859.95,1074.56 863.05,1069.61 867.97,1066.95C871.89,1064.65 875.14,1061.37 877.94,1057.83C879.62,1055.78 877.82,1052.08 875.02,1052.87C867.18,1053.83 859.55,1056.01 851.76,1057.26C853.97,1054.35 856.77,1051.69 857.81,1048.08C860.37,1040.98 860.45,1033.36 861.29,1025.95C861.53,1020.52 860.39,1014.6 856.64,1010.47C852.93,1006.29 849.17,1001.57 843.4,1000.36C843.64,996.46 843.58,992.55 843.81,988.67C847.85,987.32 853.07,986.07 854.28,981.31C855.61,975.3 854.67,967.52 848.96,964.02C844.9,961.16 839.6,961.47 834.92,962.12C829.83,962.77 824.23,964.89 821.88,969.82C819.21,974.28 819.26,980 821.39,984.65C823.08,987.41 826.55,987.8 829.23,989.12C829.01,992.39 828.47,995.65 827.65,998.82C823.83,1000.88 819.19,1001.05 815.59,1003.64C811.79,1006.36 807.43,1008.92 805.26,1013.23C802.88,1018.63 800.4,1024.07 799.7,1029.99C799.08,1034.37 794.83,1036.25 791.89,1038.86C787.1,1045.33 789.04,1054.89 795.06,1059.89C791.08,1059 787.09,1057.76 782.98,1057.88C780.5,1058.1 779.87,1061.77 781.51,1063.33C788.38,1070.3 798.4,1072.69 805.71,1079.04C803.72,1088.53 803.48,1098.27 802.63,1107.91C784.64,1107.29 766.62,1107.94 748.63,1107.58C748.72,1057.28 748.64,1006.98 748.67,956.68Z" style="fill:rgb(252,253,222);fill-rule:nonzero;"/>
        </g>
        <g transform="matrix(4.166667,0,0,4.166667,0,0)">
            <path d="M832.31,1003.58C834.36,1003.81 836.41,1004.07 838.48,1004.31C839.91,1005.01 841.29,1005.73 842.72,1006.51C840.97,1007.53 839.25,1009.11 837.07,1008.74C833,1008.49 828.87,1007.85 825.25,1005.87C827.62,1005.18 830.01,1004.53 832.31,1003.58Z" style="fill:rgb(252,253,222);fill-rule:nonzero;"/>
        </g>
        <g transform="matrix(4.166667,0,0,4.166667,0,0)">
            <path d="M808.62,1018.71C809.9,1014.74 813.23,1012.14 816.38,1009.67C819.5,1011.57 822.67,1013.4 825.96,1015.02C821.23,1017.12 816.8,1020.52 814.66,1025.35C813.3,1028.68 811.75,1032.04 811.36,1035.66C811.29,1039.42 814.88,1041.76 818.1,1042.73C824.66,1044.36 831.22,1042.01 837.47,1040.22C840.61,1039.39 841.76,1035.98 843.5,1033.6C845.56,1029.72 849.02,1025.74 847.83,1021.03C847.26,1018.23 844.42,1016.94 842.26,1015.56C844.38,1014.87 846.52,1014.21 848.66,1013.58C849.07,1013.01 849.89,1011.89 850.3,1011.32C852.28,1013.78 854.88,1016.13 855.29,1019.43C855.71,1022.9 855.94,1026.43 855.49,1029.92C854.76,1035.69 854.77,1041.72 852.38,1047.15C850.82,1050.37 848.33,1053.01 845.8,1055.5C846.38,1051.67 847.43,1047.25 845.08,1043.83C839.93,1039.44 832.26,1042.44 828.66,1047.39C828.11,1047.66 827,1048.22 826.45,1048.49C824.73,1052.45 822.37,1056.07 818.97,1058.78C814.73,1057.63 810.64,1055.74 806.21,1055.54C808.44,1053.07 811.57,1050.65 811.61,1047.01C811.96,1044.26 810.76,1041.15 808.18,1039.91C805.78,1039.08 803.18,1039.2 800.69,1039.17C805.88,1033.48 805.03,1025.2 808.62,1018.71Z" style="fill:rgb(252,253,222);fill-rule:nonzero;"/>
        </g>
        <g transform="matrix(4.166667,0,0,4.166667,0,0)">
            <path d="M818.53,1029.55C821.71,1019.81 835.12,1016.48 843,1022.57C841.35,1026.77 839.39,1030.99 836.38,1034.41C830.86,1036.62 824.78,1038.66 818.78,1037.31C815.38,1035.81 817.97,1032.01 818.53,1029.55M827.24,1021.07C826.28,1025.62 825.47,1030.31 825.92,1034.99C827.25,1036.1 829.83,1036.8 830.71,1034.77C831.68,1031.66 831.36,1028.3 831.72,1025.09C831.75,1023.53 832.08,1021.05 829.99,1020.69C829.3,1020.78 827.93,1020.97 827.24,1021.07Z" style="fill:rgb(252,253,222);fill-rule:nonzero;"/>
        </g>
        <g transform="matrix(4.166667,0,0,4.166667,0,0)">
            <path d="M794.92,1049.76C793.91,1047.34 794.88,1044.93 795.86,1042.71C795.49,1045.04 795.19,1047.4 794.92,1049.76Z" style="fill:rgb(252,253,222);fill-rule:nonzero;"/>
        </g>
        <g transform="matrix(4.166667,0,0,4.166667,0,0)">
            <path d="M825.16,1059.87C826.38,1058.73 827.61,1057.61 828.84,1056.5C829.27,1057.71 829.77,1058.9 830.29,1060.12C828.56,1060.01 826.86,1059.94 825.16,1059.87Z" style="fill:rgb(252,253,222);fill-rule:nonzero;"/>
        </g>
        <g transform="matrix(4.166667,0,0,4.166667,0,0)">
            <path d="M858.48,1061.54C861.73,1060.86 865.03,1060.4 868.34,1060.09C864.75,1062.58 860.85,1064.69 857.88,1067.96C855.16,1071.3 849.28,1071.58 848.85,1076.61C851.91,1083.58 857.21,1089.33 859.64,1096.61C860.97,1100.22 862.87,1103.59 864.93,1106.84L865.41,1107.62C860.2,1107.71 854.98,1107.62 849.77,1107.69C849.68,1107.4 849.49,1106.81 849.39,1106.52C851.16,1106.77 852.92,1106.88 854.72,1107.11C854.08,1104.16 852.85,1101.39 851.07,1098.96C848.21,1094.95 846.08,1090.52 843.74,1086.21C841.7,1082.48 838.31,1079.82 835.07,1077.2C841.05,1072.23 848.77,1070.39 855.08,1065.98C856.73,1064.96 857.55,1063.14 858.48,1061.54Z" style="fill:rgb(252,253,222);fill-rule:nonzero;"/>
        </g>
        <g transform="matrix(4.166667,0,0,4.166667,0,0)">
            <path d="M807.96,1105.32C809.1,1106.05 810.24,1106.79 811.44,1107.5C809.96,1107.56 808.5,1107.62 807.05,1107.69C807.37,1106.89 807.67,1106.1 807.96,1105.32Z" style="fill:rgb(252,253,222);fill-rule:nonzero;"/>
        </g>
    </g>
</svg>
