<?xml version="1.0" encoding="UTF-8" standalone="no"?>
<!DOCTYPE svg PUBLIC "-//W3C//DTD SVG 1.1//EN" "http://www.w3.org/Graphics/SVG/1.1/DTD/svg11.dtd">
<svg width="100%" height="100%" viewBox="0 0 630 641" version="1.1" xmlns="http://www.w3.org/2000/svg" xmlns:xlink="http://www.w3.org/1999/xlink" xml:space="preserve" xmlns:serif="http://www.serif.com/" style="fill-rule:evenodd;clip-rule:evenodd;stroke-linejoin:round;stroke-miterlimit:2;">
    <g transform="matrix(1,0,0,1,-1670.809327,-1797.041667)">
        <g transform="matrix(4.166667,0,0,4.166667,0,0)">
            <path d="M499.95,452.04C505.75,448.5 510.89,443.3 517.87,442.24C519.7,441.64 521.63,443.17 521.59,445.08C521.7,448.8 520.96,452.49 520.13,456.1C519.02,460.63 518.66,465.43 516.33,469.56C517.59,472.05 518.75,474.59 519.96,477.11C525.31,476.63 530.53,475.09 535.93,475.04C536.07,476.91 536.79,478.94 535.92,480.75C534.2,484.25 530.67,486.23 528.06,488.97C525.51,491.37 524.14,495.08 520.5,496.1C519.92,499.88 519.65,503.78 518.22,507.36C517.01,509.56 514.33,508.41 512.41,508.18C511.01,514.95 512.81,521.79 511.71,528.58C516.74,530.15 521.77,532.84 524.47,537.57C527.81,543.39 531.14,550.82 527.26,557.22C524.85,562.83 519.18,565.63 513.55,566.98C513.91,572.1 514.38,577.23 514.33,582.38C512.84,581.98 511.35,581.67 509.92,581.14C508.51,578.24 509.06,574.9 508.86,571.8C505.04,573.52 501.26,575.34 497.3,576.73C497.42,578.62 497.56,580.52 497.72,582.43C495.78,584.02 493.28,583.32 491.01,583.27C483.3,582.93 475.64,584.02 468.01,584.92C463.21,585.69 458.73,582.95 453.94,583.72C452.55,584.01 451.18,583.46 450.43,582.26C449.84,578.19 449.79,574.07 449.69,569.98C447.62,568.9 445.19,567.86 444.5,565.4C441.49,558.2 443.7,550.19 447.55,543.78C439.82,540.21 438.06,529.27 442.8,522.66C444.56,520.76 447.04,519.7 448.77,517.76C450.46,515.76 450.87,513.08 451.36,510.6C447.16,512.47 443.87,515.85 439.72,517.77C437.95,518.74 436.06,517.66 435.28,515.99C435.12,511.4 440.53,510.82 443.27,508.35C446.64,505.02 449.9,501.57 452.94,497.94C445.94,500.2 438.58,502.31 431.16,501.46C426.39,500.33 421.74,497.79 418.61,493.99C418.82,493.31 419.25,491.94 419.47,491.26C420.91,489.69 423.05,490.95 424.79,491.12C429.8,492.51 434.94,491.07 439.82,489.89C437.35,487.44 434.13,484.94 434.22,481.09C433.79,478.75 435.09,475.22 437.94,475.51C439.5,477.1 440.71,479.02 442.42,480.48C444.65,481.92 447.31,482.49 449.77,483.44C451.97,478.09 456.68,474.56 460.87,470.86C463.75,464.49 464.93,457.51 467.04,450.87C467.66,449.15 468.49,446.49 470.84,446.89C476.62,447.99 477.67,454.6 481.62,458.05C485.02,456.98 488.57,456.67 492.11,456.42C495.26,456.27 497.36,453.49 499.95,452.04M500.6,458.08C505.11,460.04 508.99,463.01 512.81,466.05C513.88,460.09 515.33,454.22 516.49,448.27C510.61,450.53 506.05,455.06 500.6,458.08M468.96,463.41C471.06,462.13 473.18,460.88 475.32,459.67C474.13,457.64 472.92,455.62 471.53,453.73C470.44,456.89 469.81,460.18 468.96,463.41M469.79,469.56C472.26,470.17 475.16,472.16 477.58,470.48C479.87,469.17 482.2,467.68 484.91,467.49C492.87,466.29 501.79,467.46 507.99,472.99C511.12,477.35 514.76,481.55 516.24,486.83L516.74,486.73C515.55,482.8 514.92,478.65 513.07,474.96C508.67,469.01 502.45,464.1 495.15,462.39C486.2,461.1 477.02,464.4 469.79,469.56M483.56,473.32C491.62,476.25 499.92,478.5 507.8,481.93C506.24,479.92 505,477.58 502.84,476.13C497.38,472.04 489.98,472.4 483.56,473.32M465.29,474.19C462.88,476.46 460.39,478.64 457.8,480.69C465.3,484.32 473.4,486.47 480.96,489.97C483.09,490.82 485.62,491.24 486.76,493.51C495.78,496.85 505.29,498.39 514.55,500.9C515.13,498.47 515.53,496 515.73,493.51C512.77,491.38 510.08,488.72 506.54,487.58C499.26,484.78 492,481.92 484.56,479.58C477.96,478.47 471.8,475.73 465.29,474.19M520.89,482.76C521.18,484.09 521.52,485.43 521.89,486.76C524.22,485.87 525.67,483.42 527.6,481.86C525.35,482.12 523.12,482.42 520.89,482.76M469.31,497.43C466.23,499.2 463.7,501.76 460.91,503.93C459.39,505.41 457.13,506.61 456.94,508.95C456.02,513.27 455.72,518.12 452.55,521.52C450.63,523.9 447.21,524.98 446.17,528.05C444.14,532.04 446.57,537.77 451.06,538.67C454.68,539.34 458.49,538.81 462.02,540.02C464.65,540.84 467.29,541.64 469.94,542.42C472.38,540 475.7,537.75 475.9,533.97C477.17,533.25 478.3,530.66 479.92,531.76C482.33,532.46 481.27,535.33 481.76,537.12C485.54,535.73 489.28,534.2 493.22,533.3C496.73,531.97 500.23,530.64 503.82,529.51C505.8,524.54 505.78,519.14 506.46,513.91C506.83,511.15 506.78,508.36 506.52,505.6C503.27,503.94 499.76,502.97 496.17,502.43C497.57,505.09 499.09,507.84 499.16,510.94C499.69,516.97 496.3,522.72 491.4,526.04C487.08,528.81 481.87,529.57 476.86,528.64C468.45,526.82 462.39,516.82 466.24,508.74C464.84,508.48 461.86,508.12 462.56,506.03C462.54,502.11 467.19,502.51 469.91,502.16C471.92,500.52 473.99,498.95 476.05,497.37C473.8,497.33 471.54,497.14 469.31,497.43M484.45,505.42C484.36,506.85 484.27,508.28 484.18,509.72C482.87,510.89 481.71,512.2 480.74,513.65C482.48,513.46 484.23,513.15 485.99,513.08C487.7,513.56 488.72,515.37 487.87,517.05C486.09,519.36 483.02,521.25 480.05,520.12C475.71,519.53 473.58,514.09 475.39,510.4C476.26,509.06 477.37,507.9 478.42,506.69C476.43,506.99 474.45,507.3 472.47,507.57C469.9,511.09 469.42,516.17 472.41,519.6C478.49,527.35 492.87,522.64 493.86,513C494.55,509.99 492.88,507.34 491.19,505.04C488.94,505.18 486.69,505.28 484.45,505.42M506.68,534.5C505.09,537.2 501.65,536.74 499.21,538.15C496.43,539.57 493.54,541.03 491.43,543.38C489.11,546.79 488.08,550.96 487.64,555.01C487.94,556.95 487.85,559.87 489.94,560.81C496.62,561.48 503.37,560.78 510.07,561.29C515.33,561.9 520.99,559.03 522.95,553.97C525.37,549.56 522.2,544.81 520.07,540.98C517.67,536.12 511.95,533.54 506.68,534.5M481.12,537.26C481.66,537.76 481.66,537.76 481.12,537.26M465.7,549.87C465.29,549.72 464.48,549.42 464.07,549.27C463.13,550.33 462.3,551.48 461.43,552.6C461.02,559.39 461.03,566.21 460.32,572.98C464.85,572.91 469.4,572.74 473.84,571.73C480.05,571.78 486.23,570.77 492.45,570.93C492.32,569.46 492.19,568 492.06,566.55C489.71,566.32 487.4,565.9 485.18,565.11C484.1,561.84 482.16,558.64 482.57,555.08C482.65,550.17 484.13,545.41 486.55,541.17C479.38,543.55 472.66,546.97 465.7,549.87M451.28,548.29C448.32,552.75 447.44,558.62 449.4,563.66C451.02,564.07 452.69,564.23 454.35,564.49C455.31,558.5 454.62,552.04 457.52,546.54C458.1,546.2 459.28,545.52 459.87,545.18C456.99,546.15 453.36,545.7 451.28,548.29Z" style="fill:rgb(61,37,97);fill-rule:nonzero;"/>
        </g>
        <g transform="matrix(4.166667,0,0,4.166667,0,0)">
            <path d="M469.78,483.01C468.79,480.64 472.17,478.22 474.11,479.8C475.95,480.85 475.56,483.15 475.82,484.92C473.76,485.66 469.91,486.04 469.78,483.01Z" style="fill:rgb(61,37,97);fill-rule:nonzero;"/>
        </g>
        <g transform="matrix(4.166667,0,0,4.166667,0,0)">
            <path d="M486.3,485.35C487.52,484.35 489.49,484.02 490.69,485.25C492.67,487.61 491.16,492.13 487.9,492.34C484.57,492.11 483.95,487.07 486.3,485.35Z" style="fill:rgb(61,37,97);fill-rule:nonzero;"/>
        </g>
        <g transform="matrix(4.166667,0,0,4.166667,0,0)">
            <path d="M508.41,536.43C510.1,535.05 512.62,535.77 514.16,537.07C514.9,540.61 514.53,544.29 514.51,547.89C514.68,551.03 512.48,554.52 509.12,554.66C506.24,554.65 502.42,555.22 500.55,552.45C499.37,550.49 498.27,548.33 498.14,546.01C498.51,544.03 500.1,542.62 501.78,541.7C504.25,540.29 506.16,538.14 508.41,536.43M503.72,548.68C505.48,548.9 507.26,549.11 509.04,549.28C509.23,547.42 509.44,545.57 509.62,543.71C507.36,544.95 504.25,545.75 503.72,548.68Z" style="fill:rgb(61,37,97);fill-rule:nonzero;"/>
        </g>
        <g transform="matrix(4.166667,0,0,4.166667,0,0)">
            <path d="M401.06,431.29C451.35,431.36 501.65,431.36 551.94,431.29C552.08,481.64 551.96,531.98 552,582.33C539.44,582.37 526.89,582.28 514.33,582.38C514.38,577.23 513.91,572.1 513.55,566.98C519.18,565.63 524.85,562.83 527.26,557.22C531.14,550.82 527.81,543.39 524.47,537.57C521.77,532.84 516.74,530.15 511.71,528.58C512.81,521.79 511.01,514.95 512.41,508.18C514.33,508.41 517.01,509.56 518.22,507.36C519.65,503.78 519.92,499.88 520.5,496.1C524.14,495.08 525.51,491.37 528.06,488.97C530.67,486.23 534.2,484.25 535.92,480.75C536.79,478.94 536.07,476.91 535.93,475.04C530.53,475.09 525.31,476.63 519.96,477.11C518.75,474.59 517.59,472.05 516.33,469.56C518.66,465.43 519.02,460.63 520.13,456.1C520.96,452.49 521.7,448.8 521.59,445.08C521.63,443.17 519.7,441.64 517.87,442.24C510.89,443.3 505.75,448.5 499.95,452.04C497.36,453.49 495.26,456.27 492.11,456.42C488.57,456.67 485.02,456.98 481.62,458.05C477.67,454.6 476.62,447.99 470.84,446.89C468.49,446.49 467.66,449.15 467.04,450.87C464.93,457.51 463.75,464.49 460.87,470.86C456.68,474.56 451.97,478.09 449.77,483.44C447.31,482.49 444.65,481.92 442.42,480.48C440.71,479.02 439.5,477.1 437.94,475.51C435.09,475.22 433.79,478.75 434.22,481.09C434.13,484.94 437.35,487.44 439.82,489.89C434.94,491.07 429.8,492.51 424.79,491.12C423.05,490.95 420.91,489.69 419.47,491.26C419.25,491.94 418.82,493.31 418.61,493.99C421.74,497.79 426.39,500.33 431.16,501.46C438.58,502.31 445.94,500.2 452.94,497.94C449.9,501.57 446.64,505.02 443.27,508.35C440.53,510.82 435.12,511.4 435.28,515.99C436.06,517.66 437.95,518.74 439.72,517.77C443.87,515.85 447.16,512.47 451.36,510.6C450.87,513.08 450.46,515.76 448.77,517.76C447.04,519.7 444.56,520.76 442.8,522.66C438.06,529.27 439.82,540.21 447.55,543.78C443.7,550.19 441.49,558.2 444.5,565.4C445.19,567.86 447.62,568.9 449.69,569.98C449.79,574.07 449.84,578.19 450.43,582.26C433.96,582.43 417.48,582.3 401,582.33C401.04,531.98 400.93,481.64 401.06,431.29M528.14,507.05C528.45,510.36 531.06,505.39 528.14,507.05Z" style="fill:rgb(252,253,222);fill-rule:nonzero;"/>
        </g>
        <g transform="matrix(4.166667,0,0,4.166667,0,0)">
            <path d="M500.6,458.08C506.05,455.06 510.61,450.53 516.49,448.27C515.33,454.22 513.88,460.09 512.81,466.05C508.99,463.01 505.11,460.04 500.6,458.08Z" style="fill:rgb(252,253,222);fill-rule:nonzero;"/>
        </g>
        <g transform="matrix(4.166667,0,0,4.166667,0,0)">
            <path d="M469.79,469.56C477.02,464.4 486.2,461.1 495.15,462.39C502.45,464.1 508.67,469.01 513.07,474.96C514.92,478.65 515.55,482.8 516.74,486.73L516.24,486.83C514.76,481.55 511.12,477.35 507.99,472.99C501.79,467.46 492.87,466.29 484.91,467.49C482.2,467.68 479.87,469.17 477.58,470.48C475.16,472.16 472.26,470.17 469.79,469.56Z" style="fill:rgb(252,253,222);fill-rule:nonzero;"/>
        </g>
        <g transform="matrix(4.166667,0,0,4.166667,0,0)">
            <path d="M465.29,474.19C471.8,475.73 477.96,478.47 484.56,479.58C492,481.92 499.26,484.78 506.54,487.58C510.08,488.72 512.77,491.38 515.73,493.51C515.53,496 515.13,498.47 514.55,500.9C505.29,498.39 495.78,496.85 486.76,493.51C485.62,491.24 483.09,490.82 480.96,489.97C473.4,486.47 465.3,484.32 457.8,480.69C460.39,478.64 462.88,476.46 465.29,474.19M469.78,483.01C469.91,486.04 473.76,485.66 475.82,484.92C475.56,483.15 475.95,480.85 474.11,479.8C472.17,478.22 468.79,480.64 469.78,483.01M486.3,485.35C483.95,487.07 484.57,492.11 487.9,492.34C491.16,492.13 492.67,487.61 490.69,485.25C489.49,484.02 487.52,484.35 486.3,485.35M501.74,490.49C501.58,491.64 501.48,492.81 501.44,493.98C501.62,495.86 503.92,495.38 505.24,495.74C505.54,494.37 505.85,493.01 506.17,491.66C504.82,490.86 503.29,490.55 501.74,490.49Z" style="fill:rgb(252,253,222);fill-rule:nonzero;"/>
        </g>
        <g transform="matrix(4.166667,0,0,4.166667,0,0)">
            <path d="M469.31,497.43C471.54,497.14 473.8,497.33 476.05,497.37C473.99,498.95 471.92,500.52 469.91,502.16C467.19,502.51 462.54,502.11 462.56,506.03C461.86,508.12 464.84,508.48 466.24,508.74C462.39,516.82 468.45,526.82 476.86,528.64C476.51,530.41 476.21,532.19 475.9,533.97C475.7,537.75 472.38,540 469.94,542.42C467.29,541.64 464.65,540.84 462.02,540.02C458.49,538.81 454.68,539.34 451.06,538.67C446.57,537.77 444.14,532.04 446.17,528.05C447.21,524.98 450.63,523.9 452.55,521.52C455.72,518.12 456.02,513.27 456.94,508.95C457.13,506.61 459.39,505.41 460.91,503.93C463.7,501.76 466.23,499.2 469.31,497.43Z" style="fill:rgb(252,253,222);fill-rule:nonzero;"/>
        </g>
        <g transform="matrix(4.166667,0,0,4.166667,0,0)">
            <path d="M496.17,502.43C499.76,502.97 503.27,503.94 506.52,505.6C506.78,508.36 506.83,511.15 506.46,513.91C505.78,519.14 505.8,524.54 503.82,529.51C500.23,530.64 496.73,531.97 493.22,533.3C493.83,530.63 493.76,527.86 491.4,526.04C496.3,522.72 499.69,516.97 499.16,510.94C499.09,507.84 497.57,505.09 496.17,502.43Z" style="fill:rgb(252,253,222);fill-rule:nonzero;"/>
        </g>
        <g transform="matrix(4.166667,0,0,4.166667,0,0)">
            <path d="M484.45,505.42C486.69,505.28 488.94,505.18 491.19,505.04C492.88,507.34 494.55,509.99 493.86,513C492.87,522.64 478.49,527.35 472.41,519.6C469.42,516.17 469.9,511.09 472.47,507.57C474.45,507.3 476.43,506.99 478.42,506.69C477.37,507.9 476.26,509.06 475.39,510.4C473.58,514.09 475.71,519.53 480.05,520.12C483.02,521.25 486.09,519.36 487.87,517.05C488.72,515.37 487.7,513.56 485.99,513.08C484.23,513.15 482.48,513.46 480.74,513.65C481.71,512.2 482.87,510.89 484.18,509.72C484.27,508.28 484.36,506.85 484.45,505.42Z" style="fill:rgb(252,253,222);fill-rule:nonzero;"/>
        </g>
        <g transform="matrix(4.166667,0,0,4.166667,0,0)">
            <path d="M506.68,534.5C511.95,533.54 517.67,536.12 520.07,540.98C522.2,544.81 525.37,549.56 522.95,553.97C520.99,559.03 515.33,561.9 510.07,561.29C503.37,560.78 496.62,561.48 489.94,560.81C487.85,559.87 487.94,556.95 487.64,555.01C488.08,550.96 489.11,546.79 491.43,543.38C493.54,541.03 496.43,539.57 499.21,538.15C501.65,536.74 505.09,537.2 506.68,534.5M508.41,536.43C506.16,538.14 504.25,540.29 501.78,541.7C500.1,542.62 498.51,544.03 498.14,546.01C498.27,548.33 499.37,550.49 500.55,552.45C502.42,555.22 506.24,554.65 509.12,554.66C512.48,554.52 514.68,551.03 514.51,547.89C514.53,544.29 514.9,540.61 514.16,537.07C512.62,535.77 510.1,535.05 508.41,536.43Z" style="fill:rgb(252,253,222);fill-rule:nonzero;"/>
        </g>
        <g transform="matrix(4.166667,0,0,4.166667,0,0)">
            <path d="M465.7,549.87C472.66,546.97 479.38,543.55 486.55,541.17C484.13,545.41 482.65,550.17 482.57,555.08C482.16,558.64 484.1,561.84 485.18,565.11C487.4,565.9 489.71,566.32 492.06,566.55C492.19,568 492.32,569.46 492.45,570.93C486.23,570.77 480.05,571.78 473.84,571.73C472.83,570.75 471.87,569.76 470.9,568.77C472.63,567.9 474.48,567.2 476.04,566.04C476.78,564.33 477.11,562.48 477.63,560.71C474.95,558.19 471.42,558.83 468.16,559.59C468.47,557.06 470.79,553.8 468.23,551.77C466.16,549.93 463.51,551.77 461.43,552.6C462.3,551.48 463.13,550.33 464.07,549.27C464.48,549.42 465.29,549.72 465.7,549.87Z" style="fill:rgb(252,253,222);fill-rule:nonzero;"/>
        </g>
        <g transform="matrix(4.166667,0,0,4.166667,0,0)">
            <path d="M451.28,548.29C453.36,545.7 456.99,546.15 459.87,545.18C459.28,545.52 458.1,546.2 457.52,546.54C454.62,552.04 455.31,558.5 454.35,564.49C452.69,564.23 451.02,564.07 449.4,563.66C447.44,558.62 448.32,552.75 451.28,548.29Z" style="fill:rgb(252,253,222);fill-rule:nonzero;"/>
        </g>
        <g transform="matrix(4.166667,0,0,4.166667,0,0)">
            <path d="M497.3,576.73C501.26,575.34 505.04,573.52 508.86,571.8C509.06,574.9 508.51,578.24 509.92,581.14L510.52,582.44C506.25,582.31 501.98,582.24 497.72,582.43C497.56,580.52 497.42,578.62 497.3,576.73Z" style="fill:rgb(252,253,222);fill-rule:nonzero;"/>
        </g>
        <g transform="matrix(4.166667,0,0,4.166667,0,0)">
            <path d="M476.86,528.64C481.87,529.57 487.08,528.81 491.4,526.04C493.76,527.86 493.83,530.63 493.22,533.3C489.28,534.2 485.54,535.73 481.76,537.12C481.27,535.33 482.33,532.46 479.92,531.76C478.3,530.66 477.17,533.25 475.9,533.97C476.21,532.19 476.51,530.41 476.86,528.64Z" style="fill:rgb(236,28,52);fill-rule:nonzero;"/>
        </g>
        <g transform="matrix(4.166667,0,0,4.166667,0,0)">
            <path d="M461.43,552.6C463.51,551.77 466.16,549.93 468.23,551.77C470.79,553.8 468.47,557.06 468.16,559.59C471.42,558.83 474.95,558.19 477.63,560.71C477.11,562.48 476.78,564.33 476.04,566.04C474.48,567.2 472.63,567.9 470.9,568.77C471.87,569.76 472.83,570.75 473.84,571.73C469.4,572.74 464.85,572.91 460.32,572.98C461.03,566.21 461.02,559.39 461.43,552.6Z" style="fill:rgb(236,28,52);fill-rule:nonzero;"/>
        </g>
        <g transform="matrix(4.166667,0,0,4.166667,0,0)">
            <path d="M483.56,473.32C489.98,472.4 497.38,472.04 502.84,476.13C505,477.58 506.24,479.92 507.8,481.93C499.92,478.5 491.62,476.25 483.56,473.32Z" style="fill:rgb(252,252,222);fill-rule:nonzero;"/>
        </g>
        <g transform="matrix(4.166667,0,0,4.166667,0,0)">
            <path d="M503.72,548.68C504.25,545.75 507.36,544.95 509.62,543.71C509.44,545.57 509.23,547.42 509.04,549.28C507.26,549.11 505.48,548.9 503.72,548.68Z" style="fill:rgb(252,252,222);fill-rule:nonzero;"/>
        </g>
        <g transform="matrix(4.166667,0,0,4.166667,0,0)">
            <path d="M468.96,463.41C469.81,460.18 470.44,456.89 471.53,453.73C472.92,455.62 474.13,457.64 475.32,459.67C473.18,460.88 471.06,462.13 468.96,463.41Z" style="fill:rgb(252,252,223);fill-rule:nonzero;"/>
        </g>
        <g transform="matrix(4.166667,0,0,4.166667,0,0)">
            <path d="M520.89,482.76C523.12,482.42 525.35,482.12 527.6,481.86C525.67,483.42 524.22,485.87 521.89,486.76C521.52,485.43 521.18,484.09 520.89,482.76Z" style="fill:rgb(252,253,224);fill-rule:nonzero;"/>
        </g>
        <g transform="matrix(4.166667,0,0,4.166667,0,0)">
            <path d="M501.74,490.49C503.29,490.55 504.82,490.86 506.17,491.66C505.85,493.01 505.54,494.37 505.24,495.74C503.92,495.38 501.62,495.86 501.44,493.98C501.48,492.81 501.58,491.64 501.74,490.49Z" style="fill:rgb(63,39,98);fill-rule:nonzero;"/>
        </g>
        <g transform="matrix(4.166667,0,0,4.166667,0,0)">
            <path d="M528.14,507.05C531.06,505.39 528.45,510.36 528.14,507.05Z" style="fill:rgb(128,114,139);fill-rule:nonzero;"/>
        </g>
        <g transform="matrix(4.166667,0,0,4.166667,0,0)">
            <path d="M481.12,537.26C481.66,537.76 481.66,537.76 481.12,537.26Z" style="fill:rgb(167,133,147);fill-rule:nonzero;"/>
        </g>
    </g>
</svg>
