<?xml version="1.0" encoding="UTF-8" standalone="no"?>
<!DOCTYPE svg PUBLIC "-//W3C//DTD SVG 1.1//EN" "http://www.w3.org/Graphics/SVG/1.1/DTD/svg11.dtd">
<svg width="100%" height="100%" viewBox="0 0 332 332" version="1.1" xmlns="http://www.w3.org/2000/svg" xmlns:xlink="http://www.w3.org/1999/xlink" xml:space="preserve" xmlns:serif="http://www.serif.com/" style="fill-rule:evenodd;clip-rule:evenodd;stroke-linejoin:round;stroke-miterlimit:2;">
    <g transform="matrix(1,0,0,1,-849.918667,-156.586891)">
        <path d="M1084.59,309.47C1086.31,307.36 1088.04,305.21 1090.11,303.43C1092.07,302.74 1094.1,304.04 1096.1,304.22C1102.29,304.79 1108.58,304.34 1114.71,305.35C1114.22,309.89 1114.74,314.47 1113.94,318.98C1113.75,325.14 1112.34,331.19 1112.38,337.36C1112.24,338.88 1112.81,340.6 1111.91,341.96C1110.44,344.38 1109.34,347.2 1107.14,349.05C1097.71,353.64 1089.82,360.74 1080.74,365.91C1076.8,368.59 1073.49,372.2 1069.01,374.04C1061.93,377.2 1056.91,383.4 1050.27,387.24C1047.21,389.11 1043.65,387.56 1040.99,385.75L1040.5,385.44C1041.71,381.09 1041.07,376.44 1042.07,371.99C1042.31,360.02 1043.62,348.09 1044.37,336.13C1053.6,331.93 1062.48,327.03 1071.45,322.34C1074.8,320.5 1077.34,317.59 1080.45,315.4C1082.66,314.08 1082.92,311.27 1084.59,309.47Z" style="fill:white;fill-rule:nonzero;"/>
        <path d="M1101.25,368.21C1103.46,365.37 1107.26,365.76 1110.47,365.59C1109.42,371.68 1109.41,377.87 1109.13,384.03C1107.59,398.02 1107.34,412.1 1106.22,426.15C1099.85,424.9 1093.28,425.83 1086.92,424.55C1083.34,423.6 1079.68,424.77 1076.07,424.3C1068.76,423.26 1061.36,423.01 1054.01,422.44C1050.12,422.98 1045.24,420.67 1042.43,424.52C1041.28,421.73 1040.46,418.23 1042.83,415.81C1048.12,408.36 1057.54,406.11 1063.7,399.68C1068.46,395.4 1074,392.1 1078.78,387.84C1085.95,380.93 1094.58,375.67 1101.25,368.21Z" style="fill:white;fill-rule:nonzero;"/>
        <path d="M886.43,157.63C891.15,156.33 896.11,156.64 900.97,156.59C979.64,156.62 1058.32,156.62 1136.99,156.59C1144.64,156.47 1151.85,159.84 1158.2,163.82C1169.05,170.49 1176.92,181.47 1180.46,193.63C1181.7,197.96 1181.41,202.5 1181.41,206.95C1181.37,285.96 1181.38,364.97 1181.4,443.98C1181.14,453.43 1176.43,462.22 1170.61,469.44C1164.42,477.36 1155.75,483.15 1146.3,486.42C1141.04,488.25 1135.41,488 1129.95,487.96C1052.98,488 976.01,487.94 899.04,488C891.43,488.44 883.69,486.72 877.09,482.88C864.63,476.29 854.8,464.62 850.91,451.01C850.16,448.42 849.98,445.71 849.93,443.03C849.98,362.37 849.98,281.7 849.93,201.03C849.7,193.9 853.01,187.36 856.3,181.25C863.03,170.06 873.84,161.33 886.43,157.63M1105.9,192.75C1099.28,194.58 1094.75,200.18 1091.91,206.12C1091.14,208.58 1090.44,211.06 1089.47,213.45C1090.08,220.09 1090.94,226.84 1093.76,232.96C1095.61,236.7 1094.81,241.55 1098.44,244.36C1099.71,247.93 1102.37,250.82 1103.34,254.53C1104.52,258.69 1107.83,261.67 1109.64,265.53C1114.38,267.73 1119.29,265.14 1124.12,264.66C1126.75,264.45 1129.35,262.64 1130.18,260.11C1130.31,250.92 1125.56,242.7 1123.61,234.02C1126.94,231.07 1132.16,229.28 1132.93,224.3C1134.82,218.01 1131.12,211.84 1128.9,206.11C1127.41,201.64 1123.8,198.5 1120.34,195.54C1115.75,193.68 1110.83,192.83 1105.9,192.75M996.68,211.74C992.39,213.55 987.74,214.99 984.38,218.39C981.48,221.36 976.98,222.09 974.33,225.38C972.14,228.77 971.07,232.75 969.21,236.26C964.77,239.91 960.77,244.08 956.09,247.44C954.46,244.71 952.97,241.9 951.89,238.91C950.48,235.04 947.43,231.96 946.46,227.91C945.86,224.98 943.36,223.04 942.22,220.36C940.5,219.41 938.43,218.16 936.6,219.61C932.66,221.52 933.51,226.59 933.84,230.14C934.36,231.41 934.75,232.72 935.12,234.06C937.91,236.03 937.87,239.7 939.71,242.32C941.42,245.3 942.76,248.49 944.6,251.4C944.58,252.48 944.58,253.57 944.6,254.66C937.12,256.27 929.77,258.72 922.07,258.92C914.75,260.53 907.15,260.85 900.06,263.4C893.52,265.51 887.06,269.84 884.82,276.63C882.29,279.42 880.19,282.53 878.76,286.04C878.08,290.49 875.93,294.56 875.14,298.99C872.16,310.08 873.56,321.66 874.07,332.98C875.49,340.95 875.2,349.06 876.08,357.09C877.44,362.39 879.48,367.65 883.3,371.69C883.46,372.14 883.76,373.04 883.92,373.49C887.2,376.85 888.64,381.68 892.55,384.48C895.74,388.39 899.76,391.51 903.84,394.44C907.16,396.92 911.57,396.26 915.26,397.85C916.93,398.69 918.8,398.49 920.61,398.22C930.23,401.06 940.32,397.7 948.54,392.59C952.9,389.42 954.91,384.33 958.11,380.19C959.22,379.06 958.81,377.4 959.02,375.99C961.57,372.74 962.08,368.52 963.9,364.9C967.47,355.83 972.51,347.45 976.9,338.77C978.67,336.23 980.92,334.03 982.47,331.31C984.3,328.07 988.11,327.07 990.97,325C999.14,319.6 1009.46,319.27 1018.81,320.96C1019.1,322.61 1019.42,324.3 1019.06,325.98C1017.83,333.84 1018.79,341.86 1017.51,349.72C1016.56,357.49 1017.27,365.35 1015.86,373.07C1015.18,388.71 1013.96,404.34 1012.45,419.91C1012.97,424.01 1013.29,428.29 1011.53,432.16C1012.46,436.41 1010.36,440.83 1012.21,444.92C1013.3,449.02 1018.44,449.1 1021.86,449.72C1030.95,449.23 1039.87,452.27 1048.99,451.12C1055.83,452.91 1062.94,452.27 1069.93,452.78C1077.27,453.05 1084.51,454.91 1091.88,453.82C1098.09,455.82 1104.77,454.84 1111.17,455.82C1116.92,456.04 1123.13,457.74 1128.3,454.28C1129.75,447.28 1129.45,440.06 1130.76,433.05C1131.47,429.05 1130.85,424.97 1131.31,420.96C1131.97,415.6 1131.25,410.13 1132.48,404.84C1133.23,395.09 1133.44,385.26 1134.68,375.53C1135.25,363.72 1135.75,351.91 1136.75,340.12C1137.48,334.72 1136.93,329.23 1138.05,323.88C1138.79,316.59 1138.5,309.22 1139.35,301.93C1139.71,295.7 1141.39,289.35 1139.46,283.22C1136.42,282.06 1133.38,280.44 1130.04,280.62C1125.65,280.95 1121.39,279.58 1117.01,279.6C1111.08,279.59 1105.2,278.08 1099.28,278.74C1097.84,278.38 1096.39,278.03 1094.97,277.69C1094.92,270.87 1092.33,264.19 1088.34,258.72C1087.08,257.64 1085.1,256.99 1085.05,255.07C1084.54,251.52 1082.48,248.37 1079.49,246.4C1078.02,243.59 1075.62,241.54 1073.12,239.69C1067.23,233.73 1059.44,230.17 1052.88,225.1C1050.25,221.72 1046.67,219.31 1043.54,216.45C1038.07,212.9 1031.42,212.13 1025.1,211.38C1021.97,211.16 1019.21,209.36 1016.04,209.48C1009.57,209.09 1002.65,208.79 996.68,211.74M968.91,380.24C962.86,385.05 960.72,392.93 958.45,399.97C957.22,402.93 958.4,406 958.85,408.99C960.84,412.72 964.96,414.19 967.9,416.96C965.73,426.05 960.5,434.62 961.47,444.27C965.43,448.61 971.77,447.74 976.97,449.32C981.65,450.26 983.27,445.45 985.52,442.5C987.95,439.27 988.5,435.09 990.71,431.75C991.62,430.32 992.35,428.79 992.98,427.21C994.24,425.66 995.89,424.16 995.99,422.02C996.45,416.99 999.42,412.7 1000.41,407.79C1000.72,403.03 1002.92,398.06 1000.91,393.41C998.96,385.5 993.36,377.52 985.06,375.58C979.51,376.04 973.23,376.25 968.91,380.24M904.81,427.06C903.95,430.64 905.26,434.25 905.89,437.77C909.85,440.82 914.61,444.51 919.94,442.77C923.21,441.51 926.75,439.81 928.8,436.86C929.36,433.21 928.96,429.49 929.46,425.82C926.76,420.25 920,416.02 913.82,418.33C909.54,419.4 906.26,422.99 904.81,427.06Z" style="fill:rgb(255,238,195);fill-rule:nonzero;"/>
        <path d="M992.42,226.36C1000.13,220.37 1010.56,219.61 1019.83,221.6C1024.32,223.08 1029.27,222.25 1033.62,224.32C1040.98,226.67 1044.58,234.31 1051.15,237.9C1054.86,240.24 1058.8,242.22 1062.49,244.59C1064.59,246.83 1066.8,248.96 1069.3,250.78C1070.88,251.86 1070.6,253.99 1069.72,255.45C1074.09,258.46 1075.77,264.02 1080.52,266.66C1080.78,267.09 1081.31,267.97 1081.57,268.4C1083.79,269.91 1083.69,272.63 1084.13,274.99C1085.64,282.17 1083.17,289.06 1081.46,295.92C1079.37,299.85 1075.69,302.53 1072.32,305.29C1067.08,309.95 1060.13,313.38 1052.95,312.64C1049.58,312.82 1046.39,311.48 1043.04,311.41C1038.98,310.94 1034.88,311.48 1030.86,310.62C1021.89,311.02 1012.96,307.48 1003.98,309.24C999.06,309.12 994.23,310.47 989.99,312.91C985.03,314.95 980.4,317.78 976.42,321.36C973.5,323.92 972.03,327.63 969.44,330.47C967.23,333.16 965.67,336.3 964.67,339.62C957.48,348.26 954.79,359.44 950.51,369.59C949.47,374 946.64,377.6 944.55,381.54C939.98,385.72 933.77,387.44 927.8,388.44C924.67,387.38 921.39,387.34 918.16,387.29C913.9,386 909.25,385.3 905.68,382.45C904.17,381.17 902.01,380.25 901.97,377.97C898.85,374.74 896.25,371.07 893.21,367.77C891.51,365.19 890.13,362.4 888.27,359.92C887.09,356.66 885.9,353.33 885.45,349.89C886.06,344.5 885.26,339.13 884.6,333.79C884.71,329.57 884.51,325.34 883.79,321.17C883.48,315.38 884.22,309.62 884.56,303.86C885.62,299.09 887.46,294.53 889.18,289.97C890.75,285.14 894.44,281.48 897.39,277.48C904.26,272.72 912.87,271.91 920.87,270.31C926.33,270.87 931.53,268.87 936.91,268.41C939.42,268.22 941.47,266.6 943.85,265.97C950.56,265.56 957.78,263.63 962.36,258.39C967.41,253.01 973.26,248.52 978.75,243.61C984.95,239.26 986.24,230.76 992.42,226.36M997.99,229.83C995.48,231.51 993.03,233.29 990.15,234.27C989.73,235.14 989.32,236.01 988.92,236.88C988.06,237.34 987.22,237.79 986.38,238.25C984.54,240.85 982.55,243.34 980.82,246.01C981.49,249.88 978.83,253.17 978.98,257.01C979.11,259.31 976.49,259.99 974.97,261.07C968.77,263.79 963.28,267.81 957.78,271.68C954.94,272.09 951.95,270.95 949.22,272.13C941.63,275.36 933.3,277.26 925.04,276.85C920.77,277.57 916.65,279.02 912.36,279.66C903.54,283.12 897.23,291.05 893.62,299.57C892.68,307.52 893.58,315.61 892.3,323.54C893.46,325.17 894.62,326.81 895.81,328.43C895.32,330.18 897.1,331 898.25,331.86C898.6,334.34 899.3,336.9 898.55,339.38C897.22,344.49 897.7,349.85 899.17,354.86C900.03,359.58 901.14,364.74 904.9,368.07C908.19,370.09 911.49,372.2 915.08,373.69C920.32,375.21 926.5,376.56 931.45,373.46C934.74,371.55 938.57,370.02 940.67,366.64C942.59,363.83 944.62,361.1 946.5,358.26C945.52,350.8 948.58,343.66 949.29,336.33C954.69,336.16 957.84,331.35 959.84,326.92C960.88,324.1 963.58,322.55 965.72,320.64C968.66,318.29 971.03,315.33 973.97,312.98C976.54,310.83 979.51,309.22 982.02,306.98C982.6,306.57 983.16,306.12 983.68,305.61C986.46,304.74 989.09,303.4 991.99,302.92C995.31,302.62 997.8,300.04 1001.08,299.58C1007.3,298.31 1013.54,296.84 1019.92,296.61C1022.82,297.32 1025,299.66 1027.89,300.45C1030.78,301.26 1033.6,302.31 1036.29,303.66C1043.33,307.56 1051.99,306.74 1059.48,304.66C1063.89,303.74 1066.89,300.09 1071.06,298.6C1071.04,297.38 1071.04,296.17 1071.05,294.96C1072.41,292.51 1075,290.09 1073.72,287.05C1072.92,284.94 1074.22,283.03 1074.72,281.04C1073.64,272.87 1070.79,264.26 1063.95,259.11C1060.95,257.11 1057.77,255.22 1055.74,252.14C1053.32,248.58 1049.39,246.59 1046.45,243.6C1043.3,238.72 1038.64,234.9 1033.39,232.5C1029.01,229.79 1024.27,226.95 1018.97,226.95C1011.9,227.01 1004.65,227.27 997.99,229.83Z" style="fill:rgb(255,238,195);fill-rule:nonzero;"/>
        <path d="M1107.14,349.05C1109.34,347.2 1110.44,344.38 1111.91,341.96C1112.63,349.86 1110.2,357.67 1110.47,365.59C1107.26,365.76 1103.46,365.37 1101.25,368.21C1094.58,375.67 1085.95,380.93 1078.78,387.84C1074,392.1 1068.46,395.4 1063.7,399.68C1057.54,406.11 1048.12,408.36 1042.83,415.81C1040.46,418.23 1041.28,421.73 1042.43,424.52L1042.85,425.67C1042.2,427.73 1042.06,429.86 1043.29,431.78C1039.68,432.41 1035.96,432.62 1032.45,431.43C1038.13,430.91 1038.21,424.22 1038.6,419.91C1038.09,413.53 1039.77,407.26 1039.58,400.88C1040.46,395.87 1040.15,390.76 1040.99,385.75C1043.65,387.56 1047.21,389.11 1050.27,387.24C1056.91,383.4 1061.93,377.2 1069.01,374.04C1073.49,372.2 1076.8,368.59 1080.74,365.91C1089.82,360.74 1097.71,353.64 1107.14,349.05Z" style="fill:rgb(255,238,195);fill-rule:nonzero;"/>
        <path d="M903.69,297.45C905.3,296.98 907.21,295.8 908.81,297C912.48,299.67 915.44,303.23 917.79,307.1C922.92,304.15 927.79,300.73 933.3,298.48C935.38,298.87 937.36,299.68 939.29,300.57C939.12,301.88 938.97,303.2 938.85,304.52C938.77,305.37 938.62,307.06 938.54,307.91C934,311.35 928.66,313.48 923.9,316.57C924.27,318.23 924.41,320.05 925.49,321.46C927.89,324.79 929.81,328.43 932,331.91C931.81,333.8 931.65,335.69 931.52,337.59C930.41,338.66 929.23,339.67 927.93,340.47C924.97,340.44 922.53,338.63 921.01,336.22C918.84,332.01 916.44,327.93 914.48,323.63C912.01,328.05 907.25,330.07 903.07,332.48C901.44,332.38 899.83,332.17 898.25,331.86C897.1,331 895.32,330.18 895.81,328.43C895.88,326.63 896.01,324.83 896.01,323.03C901.14,321.14 905.51,317.85 909.22,313.88C907.95,310.87 905.73,308.49 902.91,306.88C902.61,304.38 902.29,301.87 901.95,299.38C902.5,298.72 903.08,298.08 903.69,297.45Z" style="fill:rgb(1,1,1);fill-rule:nonzero;"/>
        <path d="M996.68,211.74C1002.65,208.79 1009.57,209.09 1016.04,209.48C1019.21,209.36 1021.97,211.16 1025.1,211.38C1031.42,212.13 1038.07,212.9 1043.54,216.45C1046.67,219.31 1050.25,221.72 1052.88,225.1C1059.44,230.17 1067.23,233.73 1073.12,239.69C1075.62,241.54 1078.02,243.59 1079.49,246.4C1082.48,248.37 1084.54,251.52 1085.05,255.07C1085.1,256.99 1087.08,257.64 1088.34,258.72C1092.33,264.19 1094.92,270.87 1094.97,277.69C1096.39,278.03 1097.84,278.38 1099.28,278.74C1105.2,278.08 1111.08,279.59 1117.01,279.6C1121.39,279.58 1125.65,280.95 1130.04,280.62C1133.38,280.44 1136.42,282.06 1139.46,283.22C1141.39,289.35 1139.71,295.7 1139.35,301.93C1138.5,309.22 1138.79,316.59 1138.05,323.88C1136.93,329.23 1137.48,334.72 1136.75,340.12C1135.75,351.91 1135.25,363.72 1134.68,375.53C1133.44,385.26 1133.23,395.09 1132.48,404.84C1131.25,410.13 1131.97,415.6 1131.31,420.96C1130.85,424.97 1131.47,429.05 1130.76,433.05C1129.45,440.06 1129.75,447.28 1128.3,454.28C1123.13,457.74 1116.92,456.04 1111.17,455.82C1104.77,454.84 1098.09,455.82 1091.88,453.82C1084.51,454.91 1077.27,453.05 1069.93,452.78C1062.94,452.27 1055.83,452.91 1048.99,451.12C1039.87,452.27 1030.95,449.23 1021.86,449.72C1018.44,449.1 1013.3,449.02 1012.21,444.92C1010.36,440.83 1012.46,436.41 1011.53,432.16C1013.29,428.29 1012.97,424.01 1012.45,419.91C1013.96,404.34 1015.18,388.71 1015.86,373.07C1017.27,365.35 1016.56,357.49 1017.51,349.72C1018.79,341.86 1017.83,333.84 1019.06,325.98C1019.42,324.3 1019.1,322.61 1018.81,320.96C1009.46,319.27 999.14,319.6 990.97,325C988.11,327.07 984.3,328.07 982.47,331.31C980.92,334.03 978.67,336.23 976.9,338.77C972.51,347.45 967.47,355.83 963.9,364.9C962.08,368.52 961.57,372.74 959.02,375.99C958.81,377.4 959.22,379.06 958.11,380.19C954.91,384.33 952.9,389.42 948.54,392.59C940.32,397.7 930.23,401.06 920.61,398.22C918.8,398.49 916.93,398.69 915.26,397.85C911.57,396.26 907.16,396.92 903.84,394.44C899.76,391.51 895.74,388.39 892.55,384.48C888.64,381.68 887.2,376.85 883.92,373.49C883.76,373.04 883.46,372.14 883.3,371.69C879.48,367.65 877.44,362.39 876.08,357.09C875.2,349.06 875.49,340.95 874.07,332.98C873.56,321.66 872.16,310.08 875.14,298.99C875.93,294.56 878.08,290.49 878.76,286.04C880.19,282.53 882.29,279.42 884.82,276.63C887.06,269.84 893.52,265.51 900.06,263.4C907.15,260.85 914.75,260.53 922.07,258.92C929.77,258.72 937.12,256.27 944.6,254.66C944.58,253.57 944.58,252.48 944.6,251.4C942.76,248.49 941.42,245.3 939.71,242.32C937.87,239.7 937.91,236.03 935.12,234.06C934.75,232.72 934.36,231.41 933.84,230.14C933.51,226.59 932.66,221.52 936.6,219.61C938.43,218.16 940.5,219.41 942.22,220.36C943.36,223.04 945.86,224.98 946.46,227.91C947.43,231.96 950.48,235.04 951.89,238.91C952.97,241.9 954.46,244.71 956.09,247.44C960.77,244.08 964.77,239.91 969.21,236.26C971.07,232.75 972.14,228.77 974.33,225.38C976.98,222.09 981.48,221.36 984.38,218.39C987.74,214.99 992.39,213.55 996.68,211.74M992.42,226.36C986.24,230.76 984.95,239.26 978.75,243.61C973.26,248.52 967.41,253.01 962.36,258.39C957.78,263.63 950.56,265.56 943.85,265.97C941.47,266.6 939.42,268.22 936.91,268.41C931.53,268.87 926.33,270.87 920.87,270.31C912.87,271.91 904.26,272.72 897.39,277.48C894.44,281.48 890.75,285.14 889.18,289.97C887.46,294.53 885.62,299.09 884.56,303.86C884.22,309.62 883.48,315.38 883.79,321.17C884.51,325.34 884.71,329.57 884.6,333.79C885.26,339.13 886.06,344.5 885.45,349.89C885.9,353.33 887.09,356.66 888.27,359.92C890.13,362.4 891.51,365.19 893.21,367.77C896.25,371.07 898.85,374.74 901.97,377.97C902.01,380.25 904.17,381.17 905.68,382.45C909.25,385.3 913.9,386 918.16,387.29C921.39,387.34 924.67,387.38 927.8,388.44C933.77,387.44 939.98,385.72 944.55,381.54C946.64,377.6 949.47,374 950.51,369.59C954.79,359.44 957.48,348.26 964.67,339.62C965.67,336.3 967.23,333.16 969.44,330.47C972.03,327.63 973.5,323.92 976.42,321.36C980.4,317.78 985.03,314.95 989.99,312.91C994.23,310.47 999.06,309.12 1003.98,309.24C1012.96,307.48 1021.89,311.02 1030.86,310.62C1034.88,311.48 1038.98,310.94 1043.04,311.41C1046.39,311.48 1049.58,312.82 1052.95,312.64C1060.13,313.38 1067.08,309.95 1072.32,305.29C1075.69,302.53 1079.37,299.85 1081.46,295.92C1083.17,289.06 1085.64,282.17 1084.13,274.99C1083.69,272.63 1083.79,269.91 1081.57,268.4C1081.31,267.97 1080.78,267.09 1080.52,266.66C1075.77,264.02 1074.09,258.46 1069.72,255.45C1070.6,253.99 1070.88,251.86 1069.3,250.78C1066.8,248.96 1064.59,246.83 1062.49,244.59C1058.8,242.22 1054.86,240.24 1051.15,237.9C1044.58,234.31 1040.98,226.67 1033.62,224.32C1029.27,222.25 1024.32,223.08 1019.83,221.6C1010.56,219.61 1000.13,220.37 992.42,226.36M1093.06,292.38C1102.94,292.85 1112.76,294.01 1122.64,294.54C1123.88,295.81 1125.85,296.91 1125.53,299C1126.31,304.71 1124.22,310.26 1124.69,315.97C1124.83,319.81 1123.67,323.52 1123.47,327.34C1123.99,338.95 1121.57,350.45 1121.43,362.04C1119.58,372.42 1120.81,383.1 1118.72,393.45C1117.98,397.6 1118.67,401.84 1117.99,405.98C1117.12,410.75 1118.16,415.64 1117.08,420.4C1115.89,425.97 1117.27,432.18 1114.34,437.32C1111.84,439.16 1108.7,437.8 1105.94,437.59C1098.69,436.15 1091.26,436.76 1083.98,435.59C1074.98,435.89 1065.96,435.06 1057.04,433.88C1052.5,432.28 1047.18,435.25 1043.29,431.78C1042.06,429.86 1042.2,427.73 1042.85,425.67L1042.43,424.52C1045.24,420.67 1050.12,422.98 1054.01,422.44C1061.36,423.01 1068.76,423.26 1076.07,424.3C1079.68,424.77 1083.34,423.6 1086.92,424.55C1093.28,425.83 1099.85,424.9 1106.22,426.15C1107.34,412.1 1107.59,398.02 1109.13,384.03C1109.41,377.87 1109.42,371.68 1110.47,365.59C1110.2,357.67 1112.63,349.86 1111.91,341.96C1112.81,340.6 1112.24,338.88 1112.38,337.36C1112.34,331.19 1113.75,325.14 1113.94,318.98C1114.74,314.47 1114.22,309.89 1114.71,305.35C1108.58,304.34 1102.29,304.79 1096.1,304.22C1094.1,304.04 1092.07,302.74 1090.11,303.43C1088.04,305.21 1086.31,307.36 1084.59,309.47C1082.92,311.27 1082.66,314.08 1080.45,315.4C1077.34,317.59 1074.8,320.5 1071.45,322.34C1062.48,327.03 1053.6,331.93 1044.37,336.13C1043.62,348.09 1042.31,360.02 1042.07,371.99C1041.07,376.44 1041.71,381.09 1040.5,385.44L1040.99,385.75C1040.15,390.76 1040.46,395.87 1039.58,400.88C1039.77,407.26 1038.09,413.53 1038.6,419.91C1038.21,424.22 1038.13,430.91 1032.45,431.43C1030.77,430.64 1028.51,430.04 1027.78,428.16C1026.69,423.39 1028.98,418.72 1028.37,413.92C1027.74,404.89 1030.26,396.02 1029.91,386.99C1030.78,371.86 1032.92,356.79 1033.22,341.63C1031.56,342.58 1029.93,343.59 1028.31,344.58C1027.21,362.75 1026.25,380.92 1024.6,399.05C1023.58,411.39 1023.81,423.86 1021.57,436.06C1020.73,437.77 1022.72,438.36 1023.94,438.34C1034.28,439.7 1044.74,439.43 1055.11,440.61C1071.41,441.8 1087.71,442.76 1104.03,443.75C1109.12,443.57 1114.08,445.05 1119.18,444.84C1119.76,434.68 1120.51,424.53 1121.05,414.36C1121.21,408.9 1122.54,403.54 1122.37,398.07C1122.29,393.68 1123.66,389.41 1123.37,385.02C1124.2,366.34 1126.02,347.73 1126.89,329.06C1127.44,323.02 1128.48,317.02 1128.42,310.93C1128.47,304.69 1129.78,298.55 1129.79,292.32C1124.27,290.72 1118.53,291.74 1112.93,290.97C1106.85,290.26 1100.71,290.35 1094.67,289.36C1094.11,290.36 1093.59,291.37 1093.06,292.38Z" style="fill-rule:nonzero;"/>
        <path d="M1023.69,248.39C1025.75,245.48 1029.43,244.05 1032.94,244.33C1035.22,245.37 1037.07,247.28 1037.08,249.94C1037.27,251.69 1037.43,253.44 1037.62,255.2C1035.87,256.65 1034.23,258.37 1032.07,259.2C1028.97,260 1025.82,258.21 1023.94,255.85C1022.78,253.56 1023.05,250.79 1023.69,248.39Z" style="fill-rule:nonzero;"/>
        <path d="M980.51,270.65C982.98,268.27 987.63,268.49 989.33,271.7C992.53,277.6 991.81,284.65 991.09,291.08C990.77,295.26 988.28,298.75 986.38,302.35C985.48,303.44 984.57,304.52 983.68,305.61C983.16,306.12 982.6,306.57 982.02,306.98C977.27,308.95 972.24,310.92 967,310.29C958.38,309.75 950.77,305.31 943.5,301.06C943.21,298.23 942.87,294.44 946.25,293.3C949.73,290.85 953.43,293.74 956.48,295.46C962.19,298.83 969.99,301.02 975.92,296.93C980.04,294.84 980.91,289.87 981.52,285.73C981.2,280.72 979.21,275.68 980.51,270.65Z" style="fill-rule:nonzero;"/>
        <path d="M968.91,380.24C973.23,376.25 979.51,376.04 985.06,375.58C993.36,377.52 998.96,385.5 1000.91,393.41C1002.92,398.06 1000.72,403.03 1000.41,407.79C999.42,412.7 996.45,416.99 995.99,422.02C995.89,424.16 994.24,425.66 992.98,427.21C992.35,428.79 991.62,430.32 990.71,431.75C988.5,435.09 987.95,439.27 985.52,442.5C983.27,445.45 981.65,450.26 976.97,449.32C971.77,447.74 965.43,448.61 961.47,444.27C960.5,434.62 965.73,426.05 967.9,416.96C964.96,414.19 960.84,412.72 958.85,408.99C958.4,406 957.22,402.93 958.45,399.97C960.72,392.93 962.86,385.05 968.91,380.24M977.07,387.72C972.16,391.62 969.37,397.61 969,403.82C973.21,406.85 979.03,408.12 981.71,412.91C980.95,415.18 980.08,417.42 979.5,419.74C975.97,425.06 973.5,431.28 973.2,437.68C974.46,437.26 976.07,437.2 976.79,435.88C979.61,431.8 981.14,426.99 983.81,422.81C985.89,419.74 986.17,415.95 987.58,412.6C988.92,409.23 990.39,405.82 990.68,402.15C991.2,398.8 989.8,395.6 989.26,392.35C987.58,390.25 985.92,387.6 983.05,387.15C981.03,387.09 979.05,387.47 977.07,387.72Z" style="fill-rule:nonzero;"/>
        <path d="M1105.9,192.75C1110.83,192.83 1115.75,193.68 1120.34,195.54C1123.8,198.5 1127.41,201.64 1128.9,206.11C1131.12,211.84 1134.82,218.01 1132.93,224.3C1132.16,229.28 1126.94,231.07 1123.61,234.02C1125.56,242.7 1130.31,250.92 1130.18,260.11C1129.35,262.64 1126.75,264.45 1124.12,264.66C1119.29,265.14 1114.38,267.73 1109.64,265.53C1107.83,261.67 1104.52,258.69 1103.34,254.53C1102.37,250.82 1099.71,247.93 1098.44,244.36C1094.81,241.55 1095.61,236.7 1093.76,232.96C1090.94,226.84 1090.08,220.09 1089.47,213.45C1090.44,211.06 1091.14,208.58 1091.91,206.12C1094.75,200.18 1099.28,194.58 1105.9,192.75M1101.7,211.88C1099.03,218.18 1101.75,224.86 1104.19,230.75C1105.47,234.72 1106.29,238.99 1109.11,242.25C1109.27,242.77 1109.61,243.8 1109.77,244.32C1112.53,247.83 1113.06,254.77 1118.7,254.58C1117.38,249.46 1116.34,244.1 1113.48,239.57C1111.6,236.58 1111.08,233.01 1109.46,229.9C1112.76,225.32 1118.5,223.99 1122.74,220.56C1121.24,214.43 1119.14,206.22 1112.14,204.52C1107.09,202.77 1102.56,207.18 1101.7,211.88Z" style="fill:rgb(0,0,1);fill-rule:nonzero;"/>
        <path d="M1101.7,211.88C1102.56,207.18 1107.09,202.77 1112.14,204.52C1119.14,206.22 1121.24,214.43 1122.74,220.56C1118.5,223.99 1112.76,225.32 1109.46,229.9C1111.08,233.01 1111.6,236.58 1113.48,239.57C1116.34,244.1 1117.38,249.46 1118.7,254.58C1113.06,254.77 1112.53,247.83 1109.77,244.32C1109.61,243.8 1109.27,242.77 1109.11,242.25C1106.29,238.99 1105.47,234.72 1104.19,230.75C1101.75,224.86 1099.03,218.18 1101.7,211.88Z" style="fill:rgb(235,52,36);fill-rule:nonzero;"/>
        <path d="M914.48,323.63C916.44,327.93 918.84,332.01 921.01,336.22C915.76,339.24 909.84,336.95 904.57,335.32C904.05,334.37 903.55,333.42 903.07,332.48C907.25,330.07 912.01,328.05 914.48,323.63Z" style="fill:rgb(235,52,36);fill-rule:nonzero;"/>
        <path d="M977.07,387.72C979.05,387.47 981.03,387.09 983.05,387.15C985.92,387.6 987.58,390.25 989.26,392.35C989.8,395.6 991.2,398.8 990.68,402.15C990.39,405.82 988.92,409.23 987.58,412.6C986.17,415.95 985.89,419.74 983.81,422.81C981.14,426.99 979.61,431.8 976.79,435.88C976.07,437.2 974.46,437.26 973.2,437.68C973.5,431.28 975.97,425.06 979.5,419.74C980.08,417.42 980.95,415.18 981.71,412.91C979.03,408.12 973.21,406.85 969,403.82C969.37,397.61 972.16,391.62 977.07,387.72Z" style="fill:rgb(235,52,36);fill-rule:nonzero;"/>
        <path d="M904.81,427.06C906.26,422.99 909.54,419.4 913.82,418.33C920,416.02 926.76,420.25 929.46,425.82C928.96,429.49 929.36,433.21 928.8,436.86C926.75,439.81 923.21,441.51 919.94,442.77C914.61,444.51 909.85,440.82 905.89,437.77C905.26,434.25 903.95,430.64 904.81,427.06Z" style="fill:rgb(235,52,36);fill-rule:nonzero;"/>
        <path d="M997.99,229.83C1004.65,227.27 1011.9,227.01 1018.97,226.95C1024.27,226.95 1029.01,229.79 1033.39,232.5C1038.64,234.9 1043.3,238.72 1046.45,243.6C1049.39,246.59 1053.32,248.58 1055.74,252.14C1057.77,255.22 1060.95,257.11 1063.95,259.11C1070.79,264.26 1073.64,272.87 1074.72,281.04C1074.22,283.03 1072.92,284.94 1073.72,287.05C1075,290.09 1072.41,292.51 1071.05,294.96C1071.04,296.17 1071.04,297.38 1071.06,298.6C1066.89,300.09 1063.89,303.74 1059.48,304.66C1051.99,306.74 1043.33,307.56 1036.29,303.66C1033.6,302.31 1030.78,301.26 1027.89,300.45C1025,299.66 1022.82,297.32 1019.92,296.61C1013.54,296.84 1007.3,298.31 1001.08,299.58C997.8,300.04 995.31,302.62 991.99,302.92C989.09,303.4 986.46,304.74 983.68,305.61C984.57,304.52 985.48,303.44 986.38,302.35C988.28,298.75 990.77,295.26 991.09,291.08C991.81,284.65 992.53,277.6 989.33,271.7C987.63,268.49 982.98,268.27 980.51,270.65C979.21,275.68 981.2,280.72 981.52,285.73C980.91,289.87 980.04,294.84 975.92,296.93C969.99,301.02 962.19,298.83 956.48,295.46C953.43,293.74 949.73,290.85 946.25,293.3C942.87,294.44 943.21,298.23 943.5,301.06C950.77,305.31 958.38,309.75 967,310.29C972.24,310.92 977.27,308.95 982.02,306.98C979.51,309.22 976.54,310.83 973.97,312.98C971.03,315.33 968.66,318.29 965.72,320.64C963.58,322.55 960.88,324.1 959.84,326.92C957.84,331.35 954.69,336.16 949.29,336.33C948.58,343.66 945.52,350.8 946.5,358.26C944.62,361.1 942.59,363.83 940.67,366.64C938.57,370.02 934.74,371.55 931.45,373.46C926.5,376.56 920.32,375.21 915.08,373.69C911.49,372.2 908.19,370.09 904.9,368.07C901.14,364.74 900.03,359.58 899.17,354.86C897.7,349.85 897.22,344.49 898.55,339.38C899.3,336.9 898.6,334.34 898.25,331.86C899.83,332.17 901.44,332.38 903.07,332.48C903.55,333.42 904.05,334.37 904.57,335.32C906.33,339.52 910.88,341.01 914.89,342.23C919.27,343.5 923.72,341.61 927.93,340.47C929.23,339.67 930.41,338.66 931.52,337.59C935.75,333.08 938.87,327.61 940.97,321.82C941.81,319.42 942.94,316.96 942.61,314.36C942.2,310.81 940.48,307.63 938.85,304.52C938.97,303.2 939.12,301.88 939.29,300.57C937.36,299.68 935.38,298.87 933.3,298.48C928.31,294.74 921.99,293.93 916.02,292.97C911.46,292 906.72,294.08 903.69,297.45C903.08,298.08 902.5,298.72 901.95,299.38C898.02,303.23 897.12,308.84 896.09,313.99C895.44,316.97 895.8,320.02 896.01,323.03C896.01,324.83 895.88,326.63 895.81,328.43C894.62,326.81 893.46,325.17 892.3,323.54C893.58,315.61 892.68,307.52 893.62,299.57C897.23,291.05 903.54,283.12 912.36,279.66C916.65,279.02 920.77,277.57 925.04,276.85C933.3,277.26 941.63,275.36 949.22,272.13C951.95,270.95 954.94,272.09 957.78,271.68C963.28,267.81 968.77,263.79 974.97,261.07C976.49,259.99 979.11,259.31 978.98,257.01C978.83,253.17 981.49,249.88 980.82,246.01C982.55,243.34 984.54,240.85 986.38,238.25C987.22,237.79 988.06,237.34 988.92,236.88C989.32,236.01 989.73,235.14 990.15,234.27C993.03,233.29 995.48,231.51 997.99,229.83M995.84,244.03C993.62,248.38 992.02,253.07 991.62,257.95C992.11,261.54 993.36,264.97 994.34,268.45C995.75,274.97 1002.3,278.51 1008.11,280.49C1011.88,280.71 1015.72,280.71 1019.48,280.27C1022.64,278.89 1025.51,276.93 1028.62,275.42C1032.63,273.55 1034.84,269.47 1037,265.83C1038.46,260.68 1037.91,255.16 1037.08,249.94C1037.07,247.28 1035.22,245.37 1032.94,244.33C1031.4,240.63 1028.13,238.22 1024.89,236.11C1015.82,228.46 1000,233.04 995.84,244.03Z" style="fill:rgb(125,145,134);fill-rule:nonzero;"/>
        <path d="M995.84,244.03C1000,233.04 1015.82,228.46 1024.89,236.11C1028.13,238.22 1031.4,240.63 1032.94,244.33C1029.43,244.05 1025.75,245.48 1023.69,248.39C1023.05,250.79 1022.78,253.56 1023.94,255.85C1025.82,258.21 1028.97,260 1032.07,259.2C1034.23,258.37 1035.87,256.65 1037.62,255.2C1037.43,253.44 1037.27,251.69 1037.08,249.94C1037.91,255.16 1038.46,260.68 1037,265.83C1034.84,269.47 1032.63,273.55 1028.62,275.42C1025.51,276.93 1022.64,278.89 1019.48,280.27C1015.72,280.71 1011.88,280.71 1008.11,280.49C1002.3,278.51 995.75,274.97 994.34,268.45C993.36,264.97 992.11,261.54 991.62,257.95C992.02,253.07 993.62,248.38 995.84,244.03M1004.72,238.76C1001.96,243.12 1005.08,248.84 1009.97,249.61C1012.48,248.31 1015.15,247.13 1017.15,245.06C1017.93,242.42 1016.74,239.75 1016.42,237.14C1012.64,235.61 1007.18,234.59 1004.72,238.76M999.26,256.3C996.64,257.36 996.35,260.53 996.58,262.97C997.02,267.4 1002.41,269.76 1006.3,268.3C1009.67,266.77 1010.13,262.16 1008.95,259.07C1007.56,255.31 1002.43,255.32 999.26,256.3M1018.23,264.17C1013.97,264.88 1014.21,269.68 1014.59,272.98C1016.85,277.5 1024.05,278.28 1026.89,273.83C1029.89,268.76 1023.94,261.23 1018.23,264.17Z" style="fill:rgb(235,52,37);fill-rule:nonzero;"/>
        <path d="M903.69,297.45C906.72,294.08 911.46,292 916.02,292.97C921.99,293.93 928.31,294.74 933.3,298.48C927.79,300.73 922.92,304.15 917.79,307.1C915.44,303.23 912.48,299.67 908.81,297C907.21,295.8 905.3,296.98 903.69,297.45Z" style="fill:rgb(235,52,37);fill-rule:nonzero;"/>
        <path d="M1004.72,238.76C1007.18,234.59 1012.64,235.61 1016.42,237.14C1016.74,239.75 1017.93,242.42 1017.15,245.06C1015.15,247.13 1012.48,248.31 1009.97,249.61C1005.08,248.84 1001.96,243.12 1004.72,238.76Z" style="fill:rgb(2,1,1);fill-rule:nonzero;"/>
        <path d="M1018.23,264.17C1023.94,261.23 1029.89,268.76 1026.89,273.83C1024.05,278.28 1016.85,277.5 1014.59,272.98C1014.21,269.68 1013.97,264.88 1018.23,264.17Z" style="fill:rgb(2,1,1);fill-rule:nonzero;"/>
        <path d="M999.26,256.3C1002.43,255.32 1007.56,255.31 1008.95,259.07C1010.13,262.16 1009.67,266.77 1006.3,268.3C1002.41,269.76 997.02,267.4 996.58,262.97C996.35,260.53 996.64,257.36 999.26,256.3Z" style="fill:rgb(1,1,2);fill-rule:nonzero;"/>
        <path d="M1093.06,292.38C1093.59,291.37 1094.11,290.36 1094.67,289.36C1100.71,290.35 1106.85,290.26 1112.93,290.97C1118.53,291.74 1124.27,290.72 1129.79,292.32C1129.78,298.55 1128.47,304.69 1128.42,310.93C1128.48,317.02 1127.44,323.02 1126.89,329.06C1126.02,347.73 1124.2,366.34 1123.37,385.02C1123.66,389.41 1122.29,393.68 1122.37,398.07C1122.54,403.54 1121.21,408.9 1121.05,414.36C1120.51,424.53 1119.76,434.68 1119.18,444.84C1114.08,445.05 1109.12,443.57 1104.03,443.75C1087.71,442.76 1071.41,441.8 1055.11,440.61C1044.74,439.43 1034.28,439.7 1023.94,438.34C1022.72,438.36 1020.73,437.77 1021.57,436.06C1023.81,423.86 1023.58,411.39 1024.6,399.05C1026.25,380.92 1027.21,362.75 1028.31,344.58C1029.93,343.59 1031.56,342.58 1033.22,341.63C1032.92,356.79 1030.78,371.86 1029.91,386.99C1030.26,396.02 1027.74,404.89 1028.37,413.92C1028.98,418.72 1026.69,423.39 1027.78,428.16C1028.51,430.04 1030.77,430.64 1032.45,431.43C1035.96,432.62 1039.68,432.41 1043.29,431.78C1047.18,435.25 1052.5,432.28 1057.04,433.88C1065.96,435.06 1074.98,435.89 1083.98,435.59C1091.26,436.76 1098.69,436.15 1105.94,437.59C1108.7,437.8 1111.84,439.16 1114.34,437.32C1117.27,432.18 1115.89,425.97 1117.08,420.4C1118.16,415.64 1117.12,410.75 1117.99,405.98C1118.67,401.84 1117.98,397.6 1118.72,393.45C1120.81,383.1 1119.58,372.42 1121.43,362.04C1121.57,350.45 1123.99,338.95 1123.47,327.34C1123.67,323.52 1124.83,319.81 1124.69,315.97C1124.22,310.26 1126.31,304.71 1125.53,299C1125.85,296.91 1123.88,295.81 1122.64,294.54C1112.76,294.01 1102.94,292.85 1093.06,292.38Z" style="fill:rgb(103,82,160);fill-rule:nonzero;"/>
        <path d="M896.09,313.99C897.12,308.84 898.02,303.23 901.95,299.38C902.29,301.87 902.61,304.38 902.91,306.88C905.73,308.49 907.95,310.87 909.22,313.88C905.51,317.85 901.14,321.14 896.01,323.03C895.8,320.02 895.44,316.97 896.09,313.99Z" style="fill:rgb(235,53,36);fill-rule:nonzero;"/>
        <path d="M938.85,304.52C940.48,307.63 942.2,310.81 942.61,314.36C942.94,316.96 941.81,319.42 940.97,321.82C938.87,327.61 935.75,333.08 931.52,337.59C931.65,335.69 931.81,333.8 932,331.91C929.81,328.43 927.89,324.79 925.49,321.46C924.41,320.05 924.27,318.23 923.9,316.57C928.66,313.48 934,311.35 938.54,307.91C938.62,307.06 938.77,305.37 938.85,304.52Z" style="fill:rgb(235,53,37);fill-rule:nonzero;"/>
        <path d="M904.57,335.32C909.84,336.95 915.76,339.24 921.01,336.22C922.53,338.63 924.97,340.44 927.93,340.47C923.72,341.61 919.27,343.5 914.89,342.23C910.88,341.01 906.33,339.52 904.57,335.32Z" style="fill:rgb(202,62,63);fill-rule:nonzero;"/>
    </g>
</svg>
