<?xml version="1.0" encoding="UTF-8" standalone="no"?>
<!DOCTYPE svg PUBLIC "-//W3C//DTD SVG 1.1//EN" "http://www.w3.org/Graphics/SVG/1.1/DTD/svg11.dtd">
<svg width="100%" height="100%" viewBox="0 0 332 332" version="1.1" xmlns="http://www.w3.org/2000/svg" xmlns:xlink="http://www.w3.org/1999/xlink" xml:space="preserve" xmlns:serif="http://www.serif.com/" style="fill-rule:evenodd;clip-rule:evenodd;stroke-linejoin:round;stroke-miterlimit:2;">
    <g transform="matrix(1,0,0,1,-70.279517,-545.514921)">
        <path d="M333.13,763.74C332.45,758.95 335.17,754.19 339.01,751.49C342.31,751.22 345.77,751.66 348.56,753.59C349.66,754.3 349.4,755.67 349.32,756.79C348.86,760.91 348.51,765.07 347.37,769.08C349.37,770.44 351.85,772.88 354.44,771.3C356.16,769.51 357.45,767.25 359.9,766.31C363.36,767.38 365.95,770.31 366.17,774C365.79,777.87 365.54,782.1 363.26,785.38C361.25,786.08 359,785.66 356.91,785.91C353.15,785.96 350.48,782.87 347.01,782.13C343.71,782.52 342.28,785.93 340.07,787.95C337.36,790.29 334.53,792.49 331.73,794.73C329.43,796.49 328.87,799.75 326.42,801.35C325.22,802.2 324,803.02 322.8,803.87C322.69,805.79 322.2,807.72 322.41,809.67C323.25,811.31 325.04,811.99 326.63,812.73C326.65,814.63 326.88,816.56 326.67,818.47C324.48,821.68 321.27,823.93 317.84,825.66C316.06,825.48 314.16,826.01 312.46,825.44C310.79,824.09 309.13,822.7 307.72,821.08C307.56,818.65 307.75,816.08 308.79,813.86C310.04,812.05 311.78,810.66 313.08,808.91C313.87,807.05 313.23,804.95 313.34,803.02C311.42,802.17 309.21,800.79 307.2,802.26C302.88,805.13 301.3,810.33 298.87,814.65C296.43,811.98 295.63,808.27 293.23,805.56C292.61,800.37 294.45,793.92 299.74,791.87C303.06,791.06 306.6,790.5 310.02,790.92C313.32,792.58 316.58,796.37 320.56,794.02C322.69,788.55 325.86,783.31 330.67,779.8C333.07,778.13 335.17,776.09 337.17,773.98C338.4,771.84 338.46,769.26 338.86,766.89C337.51,765.02 335.17,764.47 333.13,763.74Z" style="fill:white;fill-rule:nonzero;"/>
        <path d="M108.37,546.43C113.84,545.07 119.51,545.74 125.07,545.63C201.37,545.58 277.67,545.66 353.97,545.59C365.33,544.82 376.29,550.06 384.76,557.3C394.94,566.19 402.77,579.17 402.07,593.07C402.04,673.04 402.07,753.01 402.05,832.98C401.6,842.86 396.62,852.02 390.45,859.52C381.22,870.75 366.69,878.07 352,877.06C273,877.04 194.01,876.95 115.02,877.07C102.69,876.53 91.65,869.42 83.24,860.81C75.2,851.98 69.58,840.15 70.35,828.01C70.47,748.31 70.28,668.61 70.43,588.91C72.66,568.77 88.94,551.44 108.37,546.43M318.64,589.62C318.46,590.17 318.09,591.27 317.91,591.82C313.42,593.47 314.16,599.04 314.98,602.8C317.48,605.58 319.67,609.72 323.98,609.59C328.06,608.92 332.55,607.73 335.06,604.15C338.22,601.58 338.31,597.35 338.31,593.62C336.19,590.39 333.02,587.66 329.13,586.93C325.42,585.81 321.85,588.03 318.64,589.62M209.5,589.66C205.4,590.81 201.04,590.89 197.03,592.42C190.88,594.77 184.24,597.23 180.13,602.66C172.64,600.44 164.6,601.52 157.15,603.12C151.95,606.31 146.15,609.33 142.65,614.49C140.98,618.19 137.86,620.98 136.3,624.73C133.49,625.56 130.57,625.94 127.77,626.79C124.2,627.82 122,631.08 120.15,634.06C118.87,638.6 118.99,643.4 119.13,648.08C120.15,654 124.27,658.62 127.5,663.46C129.38,666.08 132.52,667.4 135.69,667.46C136.14,669.05 136.6,670.66 137.06,672.27C131.54,672.83 126.18,678.11 127.37,683.9C127.88,686.63 130.43,688.32 132.9,689.12C137.48,688.81 142.41,687.96 146.19,685.24C149.25,681.02 154.79,680.58 158.91,677.9C162.22,675.85 166.22,674.88 169.05,672.09C171.58,669.92 173.55,667.2 176.09,665.05C182.66,668.38 190.75,665.48 195.04,659.89C196.1,657.54 197.02,654.78 196.04,652.25C194.77,650.98 192.93,649.72 191.06,650.5C188.66,651.19 187.59,653.7 186.3,655.6C185.8,655.67 184.82,655.8 184.32,655.86C184.82,654.72 185.29,653.56 185.88,652.48C189.59,647.73 191.04,641.74 192.67,636.06C193.15,631.16 194.92,626.51 195.44,621.63C202.34,623.92 208.7,617.5 208.74,610.76C207.23,608.96 205.54,606.69 202.99,606.58C201.09,606.38 199.63,607.77 198.16,608.72C198.21,610.21 198.23,611.72 198.22,613.23C196.37,612.87 194.32,612.52 193.09,610.94C191.76,609.4 191.23,605.22 188.91,608.52C188.96,607.62 188.6,606.14 189.8,605.85C193,604.57 195.95,602.77 199.05,601.29C203.42,600.61 207.8,599.9 212.1,598.82C218.6,597 225.28,599.3 231.86,598.42C236.69,600.63 242.19,600.82 246.9,603.27C250.07,606.67 253.48,609.89 257.31,612.56C259.27,613.93 261.46,612.69 263.33,611.84C263.67,610.15 264.04,608.47 264.47,606.81C262.81,604.61 260.37,603.3 258.15,601.77C256.11,600.49 255.16,598.12 253.32,596.64C248.82,593.42 243.42,591.94 238.1,590.73C232.95,588.69 227.34,589.4 221.95,588.79C217.8,588.29 213.54,588.53 209.5,589.66M291.81,601.93C291.65,603.94 291.15,606.02 291.87,608C292.83,610.01 295.6,610.46 297.37,609.26C300.25,607.95 298.67,604.22 298.84,601.81C296.63,600.1 294.06,600.57 291.81,601.93M219.92,615.12C217.3,620.25 217.16,626.41 218.6,631.91C217.39,642.23 217.85,652.64 216.85,662.98C210.74,665.15 204.47,668.29 200.91,673.94C197.59,677.47 196.57,682.3 195.41,686.84C190.56,685.94 185.84,684.43 181.14,682.93C179.37,682.84 178.04,684.21 176.55,684.97C176.66,687.77 175.99,691.52 179.2,692.88C184.32,693.95 189.47,694.98 194.49,696.48C193.94,698.88 194.15,701.35 194.37,703.78C188.73,704.15 182.65,701.93 177.4,704.62C176.63,707.36 175.8,711.31 179.37,712.4C184.37,713.33 189.52,713.09 194.59,713.42C195.13,717.24 195.36,721.25 197.7,724.5C199.44,727.01 199.87,729.95 199.64,732.94C203.29,736.51 207.5,739.42 211.81,742.13C218.53,748.66 228.12,750.36 236.87,752.47C241.15,754.22 246.05,753.72 250.08,756.23C266.74,755.49 283.58,759.51 300.08,755.7C303.53,755.21 306.55,753.26 310,752.78C314.38,751.9 317.32,748.19 321.06,746.05C326.97,740.1 333.43,734.2 336.37,726.12C335.57,722.18 336.61,718.29 337.61,714.5C341.43,714.02 345.16,712.82 349.04,713.04C351.63,712.86 355.59,712.42 355.71,709.04C356.46,706.3 354.17,704.51 351.93,703.61C347.43,703.58 342.9,703.76 338.48,704.62C338.57,700.67 337.84,696.8 337.29,692.92C339.39,690.96 342.38,690.62 344.93,689.5C348.74,687.72 351.9,684.65 353.53,680.73C352.29,679.15 350.9,677.7 349.34,676.45C348.49,676.57 346.79,676.79 345.94,676.91C342.88,680.62 338.23,682.33 333.8,683.81C329.57,678.88 324.55,674.75 319.68,670.54C317.84,665.22 319.49,659.36 317.54,654.02C319.44,649.95 318.84,645.31 318.73,640.97C317.22,635.02 320.02,628.94 319.14,623C319.02,620.08 316.23,618.83 314.08,617.53C311.92,618.45 309.81,619.51 307.87,620.84C304.57,622.9 303.1,626.74 300.26,629.3C297.78,633.61 295.14,638.2 290.57,640.6C285.63,643.37 284.2,649.45 279.96,652.96C278.49,654.17 277.24,655.62 276.2,657.23C272.89,657.14 269.59,656.77 266.35,656.14C268.99,652.67 270.3,648.48 272.95,645.04C274.94,641.79 273.62,637.8 270.11,636.42C269.32,636.54 267.76,636.79 266.97,636.91C262.73,642.91 261.11,650.45 255.86,655.8C252.4,650.19 248.95,644.55 244.15,639.95C238.62,632.05 235.91,622.09 228.54,615.5C226.23,613.18 222.54,613.49 219.92,615.12M335.38,619.4C332.16,623.51 331.86,628.87 332.98,633.8C336.7,638.28 342.04,642.37 348.1,642C356.24,640.83 361.33,632.05 359.94,624.28C356.65,621.43 352.83,619.34 349.46,616.6C344.85,612.87 339.83,617.89 335.38,619.4M146.28,704C143.99,709.18 147.14,714.65 145.65,719.95C144.76,723.84 144.9,728.09 142.77,731.61C141.18,732.79 139.38,733.64 137.79,734.81C134.38,737.54 132.37,741.48 130.08,745.09C127.34,748.94 126.78,753.79 126.03,758.33C123.39,764.07 122.9,770.5 120.6,776.36C120.27,778.6 119.72,780.82 118.78,782.89C116.25,788.33 114.28,794.06 113,799.92C112.93,803.4 110.78,806.47 111.06,809.99C111.18,813.5 110.95,817.24 112.73,820.43C114.38,826.1 120.39,829.05 125.89,829.64C131.48,830.76 137.15,828.09 141.2,824.39C144.58,822.59 147.1,819.67 149.22,816.56C151.31,818.13 153.23,819.96 155.48,821.33C158.38,822.53 161.43,823.44 163.99,825.32C170.28,827.97 177.33,826.87 183.87,828.43C188.83,829.68 193.96,830 198.98,830.91C206.95,831.75 214.79,833.72 222.86,833.61C235.28,833.33 247.89,833.17 259.97,829.99C264.22,829.28 267.56,826.43 270.72,823.72C273.23,821.66 274.01,818.33 276.01,815.86C276.68,811.88 277.52,807.94 278.42,804.02C278.45,800.3 276.47,796.9 276.19,793.23C277.67,791.89 280.04,791.29 280.48,789.1C281.57,786.14 282.95,783.14 282.84,779.92C283.36,775.7 280.03,772.32 276.77,770.2C273.4,767.76 269,768.92 265.14,768.77C260.23,769.97 254.96,772.62 253.46,777.86C249.28,777.24 245.16,776.32 241.09,775.22C238.42,774.31 235.54,775.06 232.9,774.11C224.51,771.76 214.71,775.49 207.34,769.72C199.83,762.89 202.56,750.66 195.11,743.82C192,740.23 189.91,735.69 185.54,733.35C180.74,728.56 173.86,727.41 167.4,726.89C167.47,723.9 167.31,720.91 167.47,717.93C167.74,713.51 166.75,708.94 168.44,704.7C167.83,703.29 167.39,701.68 166.01,700.8C164.24,699.26 161.83,700.2 159.82,700.63C159.48,702.37 158.22,704.1 158.77,705.95C159.83,709.22 158.1,712.53 158.49,715.85C158.8,718.99 158.87,722.15 158.85,725.32C157.1,725.39 155.36,725.52 153.62,725.69C155.41,717.99 154.13,710.12 154.5,702.33C152.19,699.29 147.01,700.09 146.28,704M333.24,744.13C324.9,750 321.28,762.54 326.88,771.45C321.91,773.88 318.83,778.59 315.8,783.01C310.99,781.71 305.83,780.57 300.92,782.06C294.26,783.62 287.15,787.83 285.55,794.97C282.26,803.26 285.81,812.32 290.62,819.2C292.9,821.62 295.28,824.28 298.9,824.32C300.63,828.59 304.73,831.04 307.96,834.07C311.69,836.12 316,834.54 319.97,834.28C324.52,833.5 327.76,830.08 331.4,827.56C336.04,821.78 336.58,813.62 334.52,806.75C337.37,800.94 343.54,798.02 347.46,793.1C353.3,795.4 359.79,795.99 365.94,794.76C371.05,793.16 372.61,787.68 373.98,783.12C374.45,777.7 375.97,771.91 373.43,766.77C371.69,760.23 364.45,757.03 358.15,757.11C359.48,750.69 354.3,745.13 348.6,743.17C343.75,740.63 337.84,741.43 333.24,744.13Z" style="fill:rgb(255,238,195);fill-rule:nonzero;"/>
        <path d="M161.54,611.79C165.63,611.1 169.81,611.28 173.9,610.55C177.39,611.41 180.77,612.69 183.36,615.28C176.47,618.67 169.08,621.96 164.23,628.17C160.78,632.33 156.7,635.88 152.7,639.49C148.82,643.18 147.32,648.48 144.43,652.86C143.55,650.74 142.67,648.62 141.91,646.46C142.05,638.67 141.5,629.39 147.53,623.47C150.93,618.33 155.69,613.91 161.54,611.79Z" style="fill:rgb(255,238,195);fill-rule:nonzero;"/>
        <path d="M279.19,700.98C280.34,697.29 284.01,694.72 287.89,695.11C288.89,696.81 289.54,698.68 290.37,700.48C286.95,704.9 287.25,710.71 288.27,715.9C284,717.74 279.18,719.57 274.51,718.19C271.94,717.47 269.48,716.46 267.04,715.42C270.49,712.41 271.28,707.93 271.9,703.65C271.3,702.92 270.69,702.21 270.08,701.52C270.63,700.83 271.16,700.14 271.69,699.45C273.97,700.9 276.49,702.4 279.19,700.98Z" style="fill:rgb(255,238,195);fill-rule:nonzero;"/>
        <path d="M163.18,736.28C170.63,735.56 178.55,738.28 183.74,743.78C180.13,744.31 176.32,744.25 173.01,746C169.84,747.63 165.98,747.86 163.27,750.34C160.8,752.32 158.94,754.9 157.11,757.45C155.65,757.48 154.2,757.53 152.74,757.59C150.03,762.12 146.22,766.06 144.44,771.11C141.43,781.24 137.26,791.06 132.06,800.26C129.19,805.63 124.27,809.49 121.29,814.8C121.85,816.34 122.39,817.89 122.91,819.46C119.82,816.56 119.9,811.89 119.62,807.98C121.15,803.07 121.71,797.85 123.99,793.2C128.93,782.73 130.9,771.24 134.35,760.27C135.64,756.78 134.98,752.03 138.58,749.85C139.55,747.13 140.96,744.63 142.55,742.24C144.93,741.03 147.35,739.85 149.94,739.16C151.81,740.17 153.45,742.62 155.87,741.35C159.09,740.96 161.31,738.71 163.18,736.28Z" style="fill:rgb(255,238,195);fill-rule:nonzero;"/>
        <path d="M186.04,779.05C190.86,778.15 193.78,773.62 195.21,769.29C197.43,771.93 199.32,774.83 201.43,777.56C203.77,780.43 207.67,780.6 210.98,781.43C216.57,782.9 222.39,782.29 228.09,782.67C235.27,784.72 242.99,784.56 249.99,787.35C248.6,789.81 247.5,792.59 248.17,795.46C248.71,800.49 253.07,803.81 257.15,806.13C253.92,805.63 250.58,805.21 247.58,803.84C240.84,799.6 233.64,795.96 225.91,793.94C219.97,792.01 213.46,798.84 215.36,804.72C217.51,809.03 221.66,812.01 226.09,813.68C220.23,811.55 214.03,812.82 207.98,812.64C204.6,812.54 201.32,813.41 197.98,813.75C191.81,814.32 185.84,812.21 179.74,811.75C182.13,806.61 184.66,800.83 183.05,795.08C181.02,789.14 175.82,783.24 168.98,783.87C164.93,783.26 161.93,786.19 159.62,789.08C159.55,789.94 159.46,790.82 159.34,791.72C158.85,789.12 160.42,786.84 161.12,784.44C161.93,781.52 162.36,778.52 163.02,775.57C165.03,776.68 167.02,777.84 169.08,778.87C174.33,781.76 180.51,780.12 186.04,779.05Z" style="fill:rgb(255,238,195);fill-rule:nonzero;"/>
        <path d="M335.38,619.4C339.83,617.89 344.85,612.87 349.46,616.6C352.83,619.34 356.65,621.43 359.94,624.28C361.33,632.05 356.24,640.83 348.1,642C342.04,642.37 336.7,638.28 332.98,633.8C331.86,628.87 332.16,623.51 335.38,619.4M341.39,626.06C341.27,626.82 341.03,628.33 340.91,629.09C342.86,630.43 344.62,632.27 347.01,632.82C349.22,633 349.92,630.4 351.06,629.04C348.24,626.89 345.11,624.17 341.39,626.06Z" style="fill:rgb(1,1,1);fill-rule:nonzero;"/>
        <path d="M224.64,684.91C228.17,681.49 232.77,678.36 237.94,679.66C241.83,681.68 246.01,684.4 247.39,688.81C248.52,691.76 247.02,694.78 246.57,697.71C244.59,697.54 241.96,698.47 240.66,696.47C239.22,693.7 238.31,690.58 235.7,688.62C234.18,689.34 232.68,690.1 231.21,690.92C230.95,692.04 230.71,693.18 230.41,694.31C228.69,697.12 225.44,697.24 222.95,695.48C222.45,694.06 221.94,692.66 221.42,691.26C223.29,689.64 223.58,687.02 224.64,684.91Z" style="fill:rgb(1,1,1);fill-rule:nonzero;"/>
        <path d="M146.28,704C147.01,700.09 152.19,699.29 154.5,702.33C154.13,710.12 155.41,717.99 153.62,725.69C155.36,725.52 157.1,725.39 158.85,725.32C158.87,722.15 158.8,718.99 158.49,715.85C158.1,712.53 159.83,709.22 158.77,705.95C158.22,704.1 159.48,702.37 159.82,700.63C161.83,700.2 164.24,699.26 166.01,700.8C167.39,701.68 167.83,703.29 168.44,704.7C166.75,708.94 167.74,713.51 167.47,717.93C167.31,720.91 167.47,723.9 167.4,726.89C173.86,727.41 180.74,728.56 185.54,733.35C189.91,735.69 192,740.23 195.11,743.82C202.56,750.66 199.83,762.89 207.34,769.72C214.71,775.49 224.51,771.76 232.9,774.11C235.54,775.06 238.42,774.31 241.09,775.22C245.16,776.32 249.28,777.24 253.46,777.86C254.96,772.62 260.23,769.97 265.14,768.77C269,768.92 273.4,767.76 276.77,770.2C280.03,772.32 283.36,775.7 282.84,779.92C282.95,783.14 281.57,786.14 280.48,789.1C280.04,791.29 277.67,791.89 276.19,793.23C276.47,796.9 278.45,800.3 278.42,804.02C277.52,807.94 276.68,811.88 276.01,815.86C274.01,818.33 273.23,821.66 270.72,823.72C267.56,826.43 264.22,829.28 259.97,829.99C247.89,833.17 235.28,833.33 222.86,833.61C214.79,833.72 206.95,831.75 198.98,830.91C193.96,830 188.83,829.68 183.87,828.43C177.33,826.87 170.28,827.97 163.99,825.32C161.43,823.44 158.38,822.53 155.48,821.33C153.23,819.96 151.31,818.13 149.22,816.56C147.1,819.67 144.58,822.59 141.2,824.39C137.15,828.09 131.48,830.76 125.89,829.64C120.39,829.05 114.38,826.1 112.73,820.43C110.95,817.24 111.18,813.5 111.06,809.99C110.78,806.47 112.93,803.4 113,799.92C114.28,794.06 116.25,788.33 118.78,782.89C119.72,780.82 120.27,778.6 120.6,776.36C122.9,770.5 123.39,764.07 126.03,758.33C126.78,753.79 127.34,748.94 130.08,745.09C132.37,741.48 134.38,737.54 137.79,734.81C139.38,733.64 141.18,732.79 142.77,731.61C144.9,728.09 144.76,723.84 145.65,719.95C147.14,714.65 143.99,709.18 146.28,704M163.18,736.28C161.31,738.71 159.09,740.96 155.87,741.35C153.45,742.62 151.81,740.17 149.94,739.16C147.35,739.85 144.93,741.03 142.55,742.24C140.96,744.63 139.55,747.13 138.58,749.85C134.98,752.03 135.64,756.78 134.35,760.27C130.9,771.24 128.93,782.73 123.99,793.2C121.71,797.85 121.15,803.07 119.62,807.98C119.9,811.89 119.82,816.56 122.91,819.46L122.95,819.58C125,820.03 127.04,820.55 129.07,821.12C132.21,819.2 135.27,817.14 138.64,815.64C141.84,811.01 145.04,806.25 146.75,800.85C147.59,798.12 148.83,795.56 149.92,792.95C152.07,784.79 153.7,776.49 155.34,768.22C156.92,764.86 161.84,765.08 164.01,767.78C163.61,770.37 163.33,772.97 163.02,775.57C162.36,778.52 161.93,781.52 161.12,784.44C160.42,786.84 158.85,789.12 159.34,791.72L159.3,791.97C158.36,794.26 157.65,796.66 156.61,798.92C155.77,802.4 153.15,806.22 155.55,809.66C160.65,814.58 168.05,814.93 174.04,818.2C176.51,818.41 179.02,818.21 181.48,818.64C190.64,820.42 199.96,821.12 209.12,822.93C216.75,823.66 224.45,824.88 232.11,823.95C240.75,823.28 249.56,823.36 257.92,820.81C261.19,819.89 263.49,817.23 266.07,815.21C259.52,816.39 252.86,815.46 246.56,813.48C238.21,812.04 229.54,809.65 223.13,803.8C222.02,802.11 223.16,799.85 223.1,797.95C225.14,797.59 227.41,796.44 229.38,797.64C235,800.74 241.19,803.1 247.58,803.84C250.58,805.21 253.92,805.63 257.15,806.13C261.32,806.77 265.42,805.83 269.45,804.85C269.28,801.51 268.3,798.33 266.75,795.4C263.35,794.94 259.83,794.67 256.66,793.26C254.05,791.79 251.96,789.57 249.99,787.35C242.99,784.56 235.27,784.72 228.09,782.67C222.39,782.29 216.57,782.9 210.98,781.43C207.67,780.6 203.77,780.43 201.43,777.56C199.32,774.83 197.43,771.93 195.21,769.29C194.7,766.13 193.28,763.22 192.71,760.09C191.93,756.9 191.78,753.23 189.29,750.8C187.25,748.63 185.08,746.51 183.81,743.77L183.74,743.78C178.55,738.28 170.63,735.56 163.18,736.28M261.73,780.65C265.25,781.84 268.31,784.02 271.78,785.35C272.77,783.86 273.78,782.39 274.78,780.91C273.85,780.02 272.94,779.16 272.01,778.3C268.51,778.73 263.84,776.81 261.73,780.65Z" style="fill-rule:nonzero;"/>
        <path d="M318.64,589.62C321.85,588.03 325.42,585.81 329.13,586.93C333.02,587.66 336.19,590.39 338.31,593.62C338.31,597.35 338.22,601.58 335.06,604.15C332.55,607.73 328.06,608.92 323.98,609.59C319.67,609.72 317.48,605.58 314.98,602.8C314.16,599.04 313.42,593.47 317.91,591.82C318.09,591.27 318.46,590.17 318.64,589.62M324.92,596.9C323.7,597.49 322.95,600.51 325.18,599.81C327.22,599.74 328.52,598.07 329.13,596.3C327.71,596.16 326.03,595.72 324.92,596.9Z" style="fill:rgb(0,0,1);fill-rule:nonzero;"/>
        <path d="M209.5,589.66C213.54,588.53 217.8,588.29 221.95,588.79C227.34,589.4 232.95,588.69 238.1,590.73C243.42,591.94 248.82,593.42 253.32,596.64C255.16,598.12 256.11,600.49 258.15,601.77C260.37,603.3 262.81,604.61 264.47,606.81C264.04,608.47 263.67,610.15 263.33,611.84C261.46,612.69 259.27,613.93 257.31,612.56C253.48,609.89 250.07,606.67 246.9,603.27C242.19,600.82 236.69,600.63 231.86,598.42C225.28,599.3 218.6,597 212.1,598.82C207.8,599.9 203.42,600.61 199.05,601.29C195.95,602.77 193,604.57 189.8,605.85C188.6,606.14 188.96,607.62 188.91,608.52C191.23,605.22 191.76,609.4 193.09,610.94C194.32,612.52 196.37,612.87 198.22,613.23C198.23,611.72 198.21,610.21 198.16,608.72C199.63,607.77 201.09,606.38 202.99,606.58C205.54,606.69 207.23,608.96 208.74,610.76C208.7,617.5 202.34,623.92 195.44,621.63C194.92,626.51 193.15,631.16 192.67,636.06C191.04,641.74 189.59,647.73 185.88,652.48C185.29,653.56 184.82,654.72 184.32,655.86C184.82,655.8 185.8,655.67 186.3,655.6C187.59,653.7 188.66,651.19 191.06,650.5C192.93,649.72 194.77,650.98 196.04,652.25C197.02,654.78 196.1,657.54 195.04,659.89C190.75,665.48 182.66,668.38 176.09,665.05C173.55,667.2 171.58,669.92 169.05,672.09C166.22,674.88 162.22,675.85 158.91,677.9C154.79,680.58 149.25,681.02 146.19,685.24C142.41,687.96 137.48,688.81 132.9,689.12C130.43,688.32 127.88,686.63 127.37,683.9C126.18,678.11 131.54,672.83 137.06,672.27C136.6,670.66 136.14,669.05 135.69,667.46C132.52,667.4 129.38,666.08 127.5,663.46C124.27,658.62 120.15,654 119.13,648.08C118.99,643.4 118.87,638.6 120.15,634.06C122,631.08 124.2,627.82 127.77,626.79C130.57,625.94 133.49,625.56 136.3,624.73C137.86,620.98 140.98,618.19 142.65,614.49C146.15,609.33 151.95,606.31 157.15,603.12C164.6,601.52 172.64,600.44 180.13,602.66C184.24,597.23 190.88,594.77 197.03,592.42C201.04,590.89 205.4,590.81 209.5,589.66M161.54,611.79C155.69,613.91 150.93,618.33 147.53,623.47C141.5,629.39 142.05,638.67 141.91,646.46C140.82,650.38 142.18,654.33 143.29,658.08C143.37,656.7 143.47,655.33 143.6,653.97C144.59,652.21 146.9,651.19 148.87,651.79C151.5,653.13 151.42,656.45 152.76,658.76C152.93,653.74 159.46,654.02 161.23,657.78L160.34,658.33C160.11,659.99 159.87,661.64 159.6,663.31C158.61,663.61 157.63,663.93 156.65,664.27C153.99,663.46 152.63,661.08 152.41,658.41C152.01,658.64 151.22,659.11 150.83,659.35C149.87,663.22 144.97,661.82 143.12,659.42C143.78,664.13 145.49,668.55 147.27,672.94C151.96,671.1 156.21,668.31 160.93,666.57L160.9,666.49C164.55,663.87 167.56,660.51 170.73,657.37C170.95,657.19 171.4,656.85 171.62,656.68C178.65,651.05 181.19,642.24 184.17,634.15C178.5,633.31 172.66,635.89 169.32,640.45C168.41,644.2 169.14,648.22 167.82,651.95C166.2,652.44 164.56,652.9 162.93,653.37C162.14,652.85 161.35,652.35 160.56,651.86C159.49,645.93 159.01,639.13 162.85,634.03C165.01,630.7 168.77,629.16 171.77,626.77C176.35,625.1 181.5,623.74 186.27,625.47C186.59,621.8 185.94,618.14 183.97,615L183.36,615.28C180.77,612.69 177.39,611.41 173.9,610.55C169.81,611.28 165.63,611.1 161.54,611.79M127.69,637.81C128.07,640.71 128.12,643.65 127.77,646.56C129.39,649.91 131.35,653.07 133.47,656.12C132.76,650.41 132.67,644.67 132.84,638.92C132.99,638.05 133.3,636.31 133.46,635.43C131.16,635.12 129.3,636.35 127.69,637.81Z" style="fill:rgb(0,0,1);fill-rule:nonzero;"/>
        <path d="M243.85,706.83C241.99,703.86 244.52,700.49 246.94,698.78C252.65,698.74 258.35,699.4 264.06,699.19C266.36,698.94 268.34,700.18 270.08,701.52C270.69,702.21 271.3,702.92 271.9,703.65C271.28,707.93 270.49,712.41 267.04,715.42C269.48,716.46 271.94,717.47 274.51,718.19C279.18,719.57 284,717.74 288.27,715.9C289.55,714.44 290.68,712.86 291.83,711.31C293.74,711.38 296.12,710.74 297.54,712.45C298.16,714.97 297.65,717.57 297.35,720.11C291.37,725.06 283.83,728.71 275.86,727.69C269.22,727.75 263.69,723.75 258.21,720.55C252.69,724.12 245.53,725.84 239.16,723.65C234.8,722.41 231.04,719.76 227.51,717.01C226.06,715.57 224.13,714.2 223.86,712.03C223.64,709.32 224.82,705.87 227.99,705.68C230.16,706.06 231.67,707.87 233.35,709.15C236.17,711.66 239.33,713.94 243.03,714.92C245.82,715.34 248.61,714.53 251.36,714.06C248.89,711.61 246.04,709.54 243.85,706.83Z" style="fill:rgb(0,0,1);fill-rule:nonzero;"/>
        <path d="M333.24,744.13C337.84,741.43 343.75,740.63 348.6,743.17C354.3,745.13 359.48,750.69 358.15,757.11C364.45,757.03 371.69,760.23 373.43,766.77C375.97,771.91 374.45,777.7 373.98,783.12C372.61,787.68 371.05,793.16 365.94,794.76C359.79,795.99 353.3,795.4 347.46,793.1C343.54,798.02 337.37,800.94 334.52,806.75C336.58,813.62 336.04,821.78 331.4,827.56C327.76,830.08 324.52,833.5 319.97,834.28C316,834.54 311.69,836.12 307.96,834.07C304.73,831.04 300.63,828.59 298.9,824.32C295.28,824.28 292.9,821.62 290.62,819.2C285.81,812.32 282.26,803.26 285.55,794.97C287.15,787.83 294.26,783.62 300.92,782.06C305.83,780.57 310.99,781.71 315.8,783.01C318.83,778.59 321.91,773.88 326.88,771.45C321.28,762.54 324.9,750 333.24,744.13M333.13,763.74C335.17,764.47 337.51,765.02 338.86,766.89C338.46,769.26 338.4,771.84 337.17,773.98C335.17,776.09 333.07,778.13 330.67,779.8C325.86,783.31 322.69,788.55 320.56,794.02C316.58,796.37 313.32,792.58 310.02,790.92C306.6,790.5 303.06,791.06 299.74,791.87C294.45,793.92 292.61,800.37 293.23,805.56C295.63,808.27 296.43,811.98 298.87,814.65C301.3,810.33 302.88,805.13 307.2,802.26C309.21,800.79 311.42,802.17 313.34,803.02C313.23,804.95 313.87,807.05 313.08,808.91C311.78,810.66 310.04,812.05 308.79,813.86C307.75,816.08 307.56,818.65 307.72,821.08C309.13,822.7 310.79,824.09 312.46,825.44C314.16,826.01 316.06,825.48 317.84,825.66C321.27,823.93 324.48,821.68 326.67,818.47C326.88,816.56 326.65,814.63 326.63,812.73C325.04,811.99 323.25,811.31 322.41,809.67C322.2,807.72 322.69,805.79 322.8,803.87C324,803.02 325.22,802.2 326.42,801.35C328.87,799.75 329.43,796.49 331.73,794.73C334.53,792.49 337.36,790.29 340.07,787.95C342.28,785.93 343.71,782.52 347.01,782.13C350.48,782.87 353.15,785.96 356.91,785.91C359,785.66 361.25,786.08 363.26,785.38C365.54,782.1 365.79,777.87 366.17,774C365.95,770.31 363.36,767.38 359.9,766.31C357.45,767.25 356.16,769.51 354.44,771.3C351.85,772.88 349.37,770.44 347.37,769.08C348.51,765.07 348.86,760.91 349.32,756.79C349.4,755.67 349.66,754.3 348.56,753.59C345.77,751.66 342.31,751.22 339.01,751.49C335.17,754.19 332.45,758.95 333.13,763.74Z" style="fill:rgb(0,0,1);fill-rule:nonzero;"/>
        <path d="M226.24,652.44C226.5,644.98 226.41,637.31 227.6,629.87C229.31,631.6 230.67,633.65 231.3,636.04C234.36,643.04 239.35,648.9 244.52,654.44C245.14,656.76 246.29,658.87 247.63,660.86C245.29,660.51 242.94,660.2 240.58,660.1C238.28,657.34 239.3,651.87 235.04,651.17C233.61,650.83 232.02,650.95 230.78,651.78C228.33,655.09 229.92,659.32 231.24,662.76C232.14,664.92 230.92,668.22 233.64,669.28C236.06,671.03 239.31,668.43 241.57,670.4C243.58,672.18 246.26,672.33 248.82,672.41C248.58,674.96 248.13,677.53 248.47,680.11C249.93,682.95 253.37,681.91 255.68,680.92C256.45,677.73 256.86,674.47 257.01,671.2C259.61,671.42 262.2,671.77 264.75,672.32C264.58,675.23 264.32,678.15 264.36,681.07C263.91,684.58 269.11,686.6 271.65,684.65C273.85,681.31 273.16,677.16 273.26,673.4C276.66,673.81 280.1,673.92 283.5,673.43C287.79,672.83 292.14,674.33 296.39,673.54C299.86,672.48 299.19,668.36 299.67,665.58C302.31,662.91 303.29,659.35 303.63,655.71C301.92,654.81 300.21,652.79 298.13,653.96C293.38,655.24 292,660.38 290.74,664.51C288.33,664.27 285.92,664 283.52,663.71C284.11,660.65 286.92,658.99 288.63,656.62C290.28,654.58 291.47,652.16 293.32,650.29C296.14,648.12 299.56,646.59 301.56,643.51C303.61,640.19 306.7,637.57 308.01,633.81C308.37,633.67 309.09,633.4 309.45,633.26C309.52,636.82 309.48,640.39 310,643.93C310.59,648.16 308.9,652.35 309.58,656.59C310.11,660.7 309.47,664.89 310.37,668.97C310.98,671.64 311.36,674.36 311.27,677.12C316.51,679.74 320.92,683.52 324.9,687.78C321.73,690.5 317.78,692 314.27,694.21C309.15,688.88 301.31,687.81 294.38,686.56L294.92,687.5C288.17,683.01 279.81,686.7 274.15,691.21C271.8,693.25 271.99,696.62 271.69,699.45C271.16,700.14 270.63,700.83 270.08,701.52C268.34,700.18 266.36,698.94 264.06,699.19C258.35,699.4 252.65,698.74 246.94,698.78L246.57,697.71C247.02,694.78 248.52,691.76 247.39,688.81C246.01,684.4 241.83,681.68 237.94,679.66C232.77,678.36 228.17,681.49 224.64,684.91C221.96,685.5 219.12,685.58 216.59,686.72C214.14,688.09 212.41,690.37 210.54,692.4C208.51,691.11 206.39,689.95 204.16,689.03C203.68,686.13 205.53,683.82 206.54,681.29C209.34,677.07 213.56,674.04 218.4,672.6C220.48,672.24 222.81,672.84 224.66,671.57C226.86,668.58 225.14,664.73 225.97,661.39C226.67,658.45 227.11,655.39 226.24,652.44Z" style="fill:rgb(226,154,34);fill-rule:nonzero;"/>
        <path d="M320.95,715.61C323.41,715.77 325.88,715.87 328.36,715.8C327.23,720.73 325.95,725.78 323.04,730C319.49,735.16 314.26,738.85 308.82,741.82C302.47,745.89 294.46,748.15 287.1,745.63C282.03,744.95 278.58,740.99 274.81,737.97C273.6,736.92 271.88,737.3 270.42,737.15C269.5,738.98 267.65,740.73 268.19,742.97C269.26,744.83 270.8,746.36 272.07,748.08C269.01,747.11 266.27,745.25 263.93,743.11C262.71,740.84 262.09,738.3 260.84,736.04C269.15,734.25 277.69,734.51 286.07,733.5C292.75,731.61 299.74,731.48 306.45,729.76C308.87,729.26 311.35,729.21 313.78,728.76C317.38,725.19 319.41,720.36 320.95,715.61Z" style="fill:rgb(226,154,34);fill-rule:nonzero;"/>
        <path d="M210.91,694.65C214.19,692.91 217.66,691.44 221.42,691.26C221.94,692.66 222.45,694.06 222.95,695.48C225.44,697.24 228.69,697.12 230.41,694.31C234.46,697.96 236.27,704.24 233.35,709.15C231.67,707.87 230.16,706.06 227.99,705.68C224.82,705.87 223.64,709.32 223.86,712.03C224.13,714.2 226.06,715.57 227.51,717.01C221.12,718.74 213.53,718.17 208.98,712.82C208.8,712.49 208.46,711.85 208.28,711.52C209.73,709.63 210.27,707.3 210.6,705C209.7,704.2 208.8,703.41 207.9,702.62C208.16,702.19 208.68,701.34 208.95,700.92C209.48,700.11 209.83,699.24 210,698.3C210.29,697.08 210.59,695.86 210.91,694.65Z" style="fill:rgb(235,52,36);fill-rule:nonzero;"/>
        <path d="M298.12,695.54C300.63,695.39 303.17,694.95 305.69,695.27C307.76,695.96 309.48,697.39 311.27,698.61C311.65,700.57 312.37,702.43 314.28,703.43C316.36,705.47 315.41,708.43 314.97,710.97L314.66,712.24C312.55,716.64 307.76,718.62 303.49,720.29C301.49,721.14 299.36,720.58 297.35,720.11C297.65,717.57 298.16,714.97 297.54,712.45C296.12,710.74 293.74,711.38 291.83,711.31C290.68,712.86 289.55,714.44 288.27,715.9C287.25,710.71 286.95,704.9 290.37,700.48C291.96,701.92 294.11,703.61 296.35,702.38C299.07,701.32 298.75,697.83 298.12,695.54Z" style="fill:rgb(235,52,36);fill-rule:nonzero;"/>
        <path d="M159.62,789.08C161.93,786.19 164.93,783.26 168.98,783.87C175.82,783.24 181.02,789.14 183.05,795.08C184.66,800.83 182.13,806.61 179.74,811.75C171.31,811.29 163.41,807.45 157.29,801.74C157.12,801.04 156.78,799.62 156.61,798.92C157.65,796.66 158.36,794.26 159.3,791.97L159.34,791.72C159.46,790.82 159.55,789.94 159.62,789.08Z" style="fill:rgb(235,52,36);fill-rule:nonzero;"/>
        <path d="M183.74,743.78L183.81,743.77C185.08,746.51 187.25,748.63 189.29,750.8C191.78,753.23 191.93,756.9 192.71,760.09C193.28,763.22 194.7,766.13 195.21,769.29C193.78,773.62 190.86,778.15 186.04,779.05C180.51,780.12 174.33,781.76 169.08,778.87C167.02,777.84 165.03,776.68 163.02,775.57C163.33,772.97 163.61,770.37 164.01,767.78C161.84,765.08 156.92,764.86 155.34,768.22C153.7,776.49 152.07,784.79 149.92,792.95C148.83,795.56 147.59,798.12 146.75,800.85C145.04,806.25 141.84,811.01 138.64,815.64C135.27,817.14 132.21,819.2 129.07,821.12C127.04,820.55 125,820.03 122.95,819.58L122.91,819.46C122.39,817.89 121.85,816.34 121.29,814.8C124.27,809.49 129.19,805.63 132.06,800.26C137.26,791.06 141.43,781.24 144.44,771.11C146.22,766.06 150.03,762.12 152.74,757.59C154.2,757.53 155.65,757.48 157.11,757.45C158.94,754.9 160.8,752.32 163.27,750.34C165.98,747.86 169.84,747.63 173.01,746C176.32,744.25 180.13,744.31 183.74,743.78M180.96,754.95C180.35,760.92 181.69,766.96 183.51,772.63C184.97,774.6 187.54,774.3 189.65,773.82C191.19,769.68 191.03,765.15 189.81,760.96C188.83,757.89 189.67,753.5 186,752.1C183.83,750.65 181.08,752.54 180.96,754.95M171.23,755.32C167.37,756.67 168.8,761.85 169.27,764.91C170.35,768.19 169.87,772.67 173.26,774.66C175.29,775.96 179.33,774.99 179.16,772.09C179.51,767.98 178.24,763.96 177.85,759.9C177.46,757.04 174.24,753.67 171.23,755.32Z" style="fill:rgb(125,145,134);fill-rule:nonzero;"/>
        <path d="M215.36,804.72C213.46,798.84 219.97,792.01 225.91,793.94C233.64,795.96 240.84,799.6 247.58,803.84C241.19,803.1 235,800.74 229.38,797.64C227.41,796.44 225.14,797.59 223.1,797.95C223.16,799.85 222.02,802.11 223.13,803.8C229.54,809.65 238.21,812.04 246.56,813.48C252.86,815.46 259.52,816.39 266.07,815.21C263.49,817.23 261.19,819.89 257.92,820.81C249.56,823.36 240.75,823.28 232.11,823.95C224.45,824.88 216.75,823.66 209.12,822.93C199.96,821.12 190.64,820.42 181.48,818.64C179.02,818.21 176.51,818.41 174.04,818.2C168.05,814.93 160.65,814.58 155.55,809.66C153.15,806.22 155.77,802.4 156.61,798.92C156.78,799.62 157.12,801.04 157.29,801.74C163.41,807.45 171.31,811.29 179.74,811.75C185.84,812.21 191.81,814.32 197.98,813.75C201.32,813.41 204.6,812.54 207.98,812.64C214.03,812.82 220.23,811.55 226.09,813.68C221.66,812.01 217.51,809.03 215.36,804.72Z" style="fill:rgb(125,145,134);fill-rule:nonzero;"/>
        <path d="M183.36,615.28L183.97,615C185.94,618.14 186.59,621.8 186.27,625.47C181.5,623.74 176.35,625.1 171.77,626.77C168.77,629.16 165.01,630.7 162.85,634.03C159.01,639.13 159.49,645.93 160.56,651.86C161.35,652.35 162.14,652.85 162.93,653.37C164.56,652.9 166.2,652.44 167.82,651.95C169.14,648.22 168.41,644.2 169.32,640.45C172.66,635.89 178.5,633.31 184.17,634.15C181.19,642.24 178.65,651.05 171.62,656.68C171.4,656.85 170.95,657.19 170.73,657.37C170.12,656.29 169.48,655.21 168.61,654.35C165.89,654.8 163.54,656.37 161.23,657.78C159.46,654.02 152.93,653.74 152.76,658.76C151.42,656.45 151.5,653.13 148.87,651.79C146.9,651.19 144.59,652.21 143.6,653.97C143.47,655.33 143.37,656.7 143.29,658.08C142.18,654.33 140.82,650.38 141.91,646.46C142.67,648.62 143.55,650.74 144.43,652.86C147.32,648.48 148.82,643.18 152.7,639.49C156.7,635.88 160.78,632.33 164.23,628.17C169.08,621.96 176.47,618.67 183.36,615.28Z" style="fill:rgb(166,206,206);fill-rule:nonzero;"/>
        <path d="M147.27,672.94C145.49,668.55 143.78,664.13 143.12,659.42C144.97,661.82 149.87,663.22 150.83,659.35C151.22,659.11 152.01,658.64 152.41,658.41C152.63,661.08 153.99,663.46 156.65,664.27C157.63,663.93 158.61,663.61 159.6,663.31C160.03,664.36 160.46,665.42 160.9,666.49L160.93,666.57C156.21,668.31 151.96,671.1 147.27,672.94Z" style="fill:rgb(166,206,206);fill-rule:nonzero;"/>
        <path d="M261.73,780.65C263.84,776.81 268.51,778.73 272.01,778.3C272.94,779.16 273.85,780.02 274.78,780.91C273.78,782.39 272.77,783.86 271.78,785.35C268.31,784.02 265.25,781.84 261.73,780.65Z" style="fill:rgb(166,206,206);fill-rule:nonzero;"/>
        <path d="M249.99,787.35C251.96,789.57 254.05,791.79 256.66,793.26C259.83,794.67 263.35,794.94 266.75,795.4C268.3,798.33 269.28,801.51 269.45,804.85C265.42,805.83 261.32,806.77 257.15,806.13C253.07,803.81 248.71,800.49 248.17,795.46C247.5,792.59 248.6,789.81 249.99,787.35Z" style="fill:rgb(235,52,37);fill-rule:nonzero;"/>
        <path d="M291.81,601.93C294.06,600.57 296.63,600.1 298.84,601.81C298.67,604.22 300.25,607.95 297.37,609.26C295.6,610.46 292.83,610.01 291.87,608C291.15,606.02 291.65,603.94 291.81,601.93Z" style="fill:rgb(1,1,2);fill-rule:nonzero;"/>
        <path d="M274.15,691.21C279.81,686.7 288.17,683.01 294.92,687.5C295.68,688.76 296.42,690.04 297.19,691.32C297.47,692.73 297.78,694.14 298.12,695.54C298.75,697.83 299.07,701.32 296.35,702.38C294.11,703.61 291.96,701.92 290.37,700.48C289.54,698.68 288.89,696.81 287.89,695.11C284.01,694.72 280.34,697.29 279.19,700.98C276.49,702.4 273.97,700.9 271.69,699.45C271.99,696.62 271.8,693.25 274.15,691.21Z" style="fill:rgb(1,1,2);fill-rule:nonzero;"/>
        <path d="M203.58,713.58C205.14,712.87 206.7,712.17 208.28,711.52C208.46,711.85 208.8,712.49 208.98,712.82C212.01,719.98 219.15,724 225.88,727.12C231.18,730.28 237.26,731.51 243.14,733.11C239.79,735.67 240.52,740.23 240.26,743.95C233.97,743.22 227.82,741.36 222.02,738.88C217.91,736.06 214.05,732.85 209.65,730.46C208.42,728.67 206.88,727.09 205.85,725.17C205.03,721.32 204.81,717.34 203.58,713.58Z" style="fill:rgb(226,154,35);fill-rule:nonzero;"/>
        <path d="M324.92,596.9C326.03,595.72 327.71,596.16 329.13,596.3C328.52,598.07 327.22,599.74 325.18,599.81C322.95,600.51 323.7,597.49 324.92,596.9Z" style="fill:rgb(254,238,195);fill-rule:nonzero;"/>
        <path d="M226.24,652.44C227.11,655.39 226.67,658.45 225.97,661.39C225.74,658.4 226.15,655.41 226.24,652.44Z" style="fill:rgb(254,238,195);fill-rule:nonzero;"/>
        <path d="M231.21,690.92C232.68,690.1 234.18,689.34 235.7,688.62C238.31,690.58 239.22,693.7 240.66,696.47C241.96,698.47 244.59,697.54 246.57,697.71L246.94,698.78C244.52,700.49 241.99,703.86 243.85,706.83C246.04,709.54 248.89,711.61 251.36,714.06C248.61,714.53 245.82,715.34 243.03,714.92C239.33,713.94 236.17,711.66 233.35,709.15C236.27,704.24 234.46,697.96 230.41,694.31C230.71,693.18 230.95,692.04 231.21,690.92Z" style="fill:rgb(254,238,195);fill-rule:nonzero;"/>
        <path d="M303.49,720.29C307.76,718.62 312.55,716.64 314.66,712.24C318.32,715.99 323.72,714.89 328.36,715.8C325.88,715.87 323.41,715.77 320.95,715.61C319.41,720.36 317.38,725.19 313.78,728.76C311.35,729.21 308.87,729.26 306.45,729.76C299.74,731.48 292.75,731.61 286.07,733.5C277.69,734.51 269.15,734.25 260.84,736.04C259.11,734.91 257.18,734.34 255.12,734.72C252.74,734.79 250.35,734.72 247.99,734.45C246.36,734.04 244.77,733.49 243.14,733.11C237.26,731.51 231.18,730.28 225.88,727.12C219.15,724 212.01,719.98 208.98,712.82C213.53,718.17 221.12,718.74 227.51,717.01C231.04,719.76 234.8,722.41 239.16,723.65C245.53,725.84 252.69,724.12 258.21,720.55C263.69,723.75 269.22,727.75 275.86,727.69C283.83,728.71 291.37,725.06 297.35,720.11C299.36,720.58 301.49,721.14 303.49,720.29Z" style="fill:rgb(254,238,195);fill-rule:nonzero;"/>
        <path d="M219.92,615.12C222.54,613.49 226.23,613.18 228.54,615.5C235.91,622.09 238.62,632.05 244.15,639.95C248.95,644.55 252.4,650.19 255.86,655.8C261.11,650.45 262.73,642.91 266.97,636.91C267.76,636.79 269.32,636.54 270.11,636.42C273.62,637.8 274.94,641.79 272.95,645.04C270.3,648.48 268.99,652.67 266.35,656.14C269.59,656.77 272.89,657.14 276.2,657.23C277.24,655.62 278.49,654.17 279.96,652.96C284.2,649.45 285.63,643.37 290.57,640.6C295.14,638.2 297.78,633.61 300.26,629.3C303.1,626.74 304.57,622.9 307.87,620.84C309.81,619.51 311.92,618.45 314.08,617.53C316.23,618.83 319.02,620.08 319.14,623C320.02,628.94 317.22,635.02 318.73,640.97C318.84,645.31 319.44,649.95 317.54,654.02C319.49,659.36 317.84,665.22 319.68,670.54C324.55,674.75 329.57,678.88 333.8,683.81C338.23,682.33 342.88,680.62 345.94,676.91C346.79,676.79 348.49,676.57 349.34,676.45C350.9,677.7 352.29,679.15 353.53,680.73C351.9,684.65 348.74,687.72 344.93,689.5C342.38,690.62 339.39,690.96 337.29,692.92C337.84,696.8 338.57,700.67 338.48,704.62C342.9,703.76 347.43,703.58 351.93,703.61C354.17,704.51 356.46,706.3 355.71,709.04C355.59,712.42 351.63,712.86 349.04,713.04C345.16,712.82 341.43,714.02 337.61,714.5C336.61,718.29 335.57,722.18 336.37,726.12C333.43,734.2 326.97,740.1 321.06,746.05C317.32,748.19 314.38,751.9 310,752.78C306.55,753.26 303.53,755.21 300.08,755.7C283.58,759.51 266.74,755.49 250.08,756.23C246.05,753.72 241.15,754.22 236.87,752.47C228.12,750.36 218.53,748.66 211.81,742.13C207.5,739.42 203.29,736.51 199.64,732.94C199.87,729.95 199.44,727.01 197.7,724.5C195.36,721.25 195.13,717.24 194.59,713.42C189.52,713.09 184.37,713.33 179.37,712.4C175.8,711.31 176.63,707.36 177.4,704.62C182.65,701.93 188.73,704.15 194.37,703.78C194.15,701.35 193.94,698.88 194.49,696.48C189.47,694.98 184.32,693.95 179.2,692.88C175.99,691.52 176.66,687.77 176.55,684.97C178.04,684.21 179.37,682.84 181.14,682.93C185.84,684.43 190.56,685.94 195.41,686.84C196.57,682.3 197.59,677.47 200.91,673.94C204.47,668.29 210.74,665.15 216.85,662.98C217.85,652.64 217.39,642.23 218.6,631.91C217.16,626.41 217.3,620.25 219.92,615.12M226.23,628.03C226.36,631.36 229.22,626.5 226.23,628.03M226.24,652.44C226.15,655.41 225.74,658.4 225.97,661.39C225.14,664.73 226.86,668.58 224.66,671.57C222.81,672.84 220.48,672.24 218.4,672.6C213.56,674.04 209.34,677.07 206.54,681.29C205.53,683.82 203.68,686.13 204.16,689.03C206.39,689.95 208.51,691.11 210.54,692.4C210.49,693.03 210.4,694.29 210.35,694.92L210.91,694.65C210.59,695.86 210.29,697.08 210,698.3C208.51,698.06 207.76,698.74 207.75,700.34C207.06,700.27 205.67,700.11 204.98,700.03C204.5,699.83 203.54,699.44 203.06,699.24C202.99,700.76 202.92,702.29 202.86,703.84C204.53,703.39 206.21,702.97 207.9,702.62C208.8,703.41 209.7,704.2 210.6,705C210.27,707.3 209.73,709.63 208.28,711.52C206.7,712.17 205.14,712.87 203.58,713.58C204.81,717.34 205.03,721.32 205.85,725.17C206.88,727.09 208.42,728.67 209.65,730.46C214.05,732.85 217.91,736.06 222.02,738.88C227.82,741.36 233.97,743.22 240.26,743.95C240.52,740.23 239.79,735.67 243.14,733.11C244.77,733.49 246.36,734.04 247.99,734.45C248.72,738.56 249.45,742.8 251.95,746.27C252.87,746.39 254.72,746.63 255.64,746.75C254.78,744.75 253.86,742.75 253.39,740.62C252.71,738.47 254.46,736.63 255.12,734.72C257.18,734.34 259.11,734.91 260.84,736.04C262.09,738.3 262.71,740.84 263.93,743.11C266.27,745.25 269.01,747.11 272.07,748.08C270.8,746.36 269.26,744.83 268.19,742.97C267.65,740.73 269.5,738.98 270.42,737.15C271.88,737.3 273.6,736.92 274.81,737.97C278.58,740.99 282.03,744.95 287.1,745.63C294.46,748.15 302.47,745.89 308.82,741.82C314.26,738.85 319.49,735.16 323.04,730C325.95,725.78 327.23,720.73 328.36,715.8C323.72,714.89 318.32,715.99 314.66,712.24L314.97,710.97C315.66,709.23 315.7,706.56 318.01,706.24C320.5,705.23 323.14,705.88 325.66,706.33C326.81,706.2 327.95,706.04 329.1,705.86C329.41,703.58 328.96,701.29 328.67,699.04C328.92,698.53 329.42,697.49 329.67,696.98C327.6,697.46 325.62,698.28 323.93,699.61C320.72,700.88 317.92,703.81 314.28,703.43C312.37,702.43 311.65,700.57 311.27,698.61C312.11,697.03 313.1,695.56 314.27,694.21C317.78,692 321.73,690.5 324.9,687.78C320.92,683.52 316.51,679.74 311.27,677.12C311.36,674.36 310.98,671.64 310.37,668.97C309.47,664.89 310.11,660.7 309.58,656.59C308.9,652.35 310.59,648.16 310,643.93C309.48,640.39 309.52,636.82 309.45,633.26C309.09,633.4 308.37,633.67 308.01,633.81C306.7,637.57 303.61,640.19 301.56,643.51C299.56,646.59 296.14,648.12 293.32,650.29C291.47,652.16 290.28,654.58 288.63,656.62C286.92,658.99 284.11,660.65 283.52,663.71C285.92,664 288.33,664.27 290.74,664.51C292,660.38 293.38,655.24 298.13,653.96C300.21,652.79 301.92,654.81 303.63,655.71C303.29,659.35 302.31,662.91 299.67,665.58C299.19,668.36 299.86,672.48 296.39,673.54C292.14,674.33 287.79,672.83 283.5,673.43C280.1,673.92 276.66,673.81 273.26,673.4C273.16,677.16 273.85,681.31 271.65,684.65C269.11,686.6 263.91,684.58 264.36,681.07C264.32,678.15 264.58,675.23 264.75,672.32C262.2,671.77 259.61,671.42 257.01,671.2C256.86,674.47 256.45,677.73 255.68,680.92C253.37,681.91 249.93,682.95 248.47,680.11C248.13,677.53 248.58,674.96 248.82,672.41C246.26,672.33 243.58,672.18 241.57,670.4C239.31,668.43 236.06,671.03 233.64,669.28C230.92,668.22 232.14,664.92 231.24,662.76C229.92,659.32 228.33,655.09 230.78,651.78C232.02,650.95 233.61,650.83 235.04,651.17C239.3,651.87 238.28,657.34 240.58,660.1C242.94,660.2 245.29,660.51 247.63,660.86C246.29,658.87 245.14,656.76 244.52,654.44C239.35,648.9 234.36,643.04 231.3,636.04C230.67,633.65 229.31,631.6 227.6,629.87C226.41,637.31 226.5,644.98 226.24,652.44Z" style="fill:rgb(1,0,1);fill-rule:nonzero;"/>
        <path d="M171.23,755.32C174.24,753.67 177.46,757.04 177.85,759.9C178.24,763.96 179.51,767.98 179.16,772.09C179.33,774.99 175.29,775.96 173.26,774.66C169.87,772.67 170.35,768.19 169.27,764.91C168.8,761.85 167.37,756.67 171.23,755.32Z" style="fill:rgb(1,0,1);fill-rule:nonzero;"/>
        <path d="M341.39,626.06C345.11,624.17 348.24,626.89 351.06,629.04C349.92,630.4 349.22,633 347.01,632.82C344.62,632.27 342.86,630.43 340.91,629.09C341.03,628.33 341.27,626.82 341.39,626.06Z" style="fill:rgb(166,206,207);fill-rule:nonzero;"/>
        <path d="M226.23,628.03C229.22,626.5 226.36,631.36 226.23,628.03Z" style="fill:rgb(57,53,45);fill-rule:nonzero;"/>
        <path d="M127.69,637.81C129.3,636.35 131.16,635.12 133.46,635.43C133.3,636.31 132.99,638.05 132.84,638.92C131.69,641.42 130.51,643.91 129.46,646.46C129.04,646.49 128.19,646.54 127.77,646.56C128.12,643.65 128.07,640.71 127.69,637.81Z" style="fill:rgb(255,237,194);fill-rule:nonzero;"/>
        <path d="M129.46,646.46C130.51,643.91 131.69,641.42 132.84,638.92C132.67,644.67 132.76,650.41 133.47,656.12C131.35,653.07 129.39,649.91 127.77,646.56C128.19,646.54 129.04,646.49 129.46,646.46Z" style="fill:rgb(167,206,205);fill-rule:nonzero;"/>
        <path d="M161.23,657.78C163.54,656.37 165.89,654.8 168.61,654.35C169.48,655.21 170.12,656.29 170.73,657.37C167.56,660.51 164.55,663.87 160.9,666.49C160.46,665.42 160.03,664.36 159.6,663.31C159.87,661.64 160.11,659.99 160.34,658.33L161.23,657.78Z" style="fill:rgb(234,53,36);fill-rule:nonzero;"/>
        <path d="M216.59,686.72C219.12,685.58 221.96,685.5 224.64,684.91C223.58,687.02 223.29,689.64 221.42,691.26C217.66,691.44 214.19,692.91 210.91,694.65L210.35,694.92C210.4,694.29 210.49,693.03 210.54,692.4C212.41,690.37 214.14,688.09 216.59,686.72Z" style="fill:rgb(253,237,194);fill-rule:nonzero;"/>
        <path d="M294.38,686.56C301.31,687.81 309.15,688.88 314.27,694.21C313.1,695.56 312.11,697.03 311.27,698.61C309.48,697.39 307.76,695.96 305.69,695.27C303.17,694.95 300.63,695.39 298.12,695.54C297.78,694.14 297.47,692.73 297.19,691.32C296.42,690.04 295.68,688.76 294.92,687.5L294.38,686.56Z" style="fill:rgb(254,238,196);fill-rule:nonzero;"/>
        <path d="M323.93,699.61C325.62,698.28 327.6,697.46 329.67,696.98C329.42,697.49 328.92,698.53 328.67,699.04C328.96,701.29 329.41,703.58 329.1,705.86C327.95,706.04 326.81,706.2 325.66,706.33C325.21,704.05 324.66,701.81 323.93,699.61Z" style="fill:rgb(225,154,37);fill-rule:nonzero;"/>
        <path d="M207.75,700.34C207.76,698.74 208.51,698.06 210,698.3C209.83,699.24 209.48,700.11 208.95,700.92C208.65,700.77 208.05,700.49 207.75,700.34Z" style="fill:rgb(219,157,123);fill-rule:nonzero;"/>
        <path d="M203.06,699.24C203.54,699.44 204.5,699.83 204.98,700.03C205.67,700.11 207.06,700.27 207.75,700.34C208.05,700.49 208.65,700.77 208.95,700.92C208.68,701.34 208.16,702.19 207.9,702.62C206.21,702.97 204.53,703.39 202.86,703.84C202.92,702.29 202.99,700.76 203.06,699.24Z" style="fill:rgb(224,155,35);fill-rule:nonzero;"/>
        <path d="M314.28,703.43C317.92,703.81 320.72,700.88 323.93,699.61C324.66,701.81 325.21,704.05 325.66,706.33C323.14,705.88 320.5,705.23 318.01,706.24C315.7,706.56 315.66,709.23 314.97,710.97C315.41,708.43 316.36,705.47 314.28,703.43Z" style="fill:rgb(253,237,199);fill-rule:nonzero;"/>
        <path d="M247.99,734.45C250.35,734.72 252.74,734.79 255.12,734.72C254.46,736.63 252.71,738.47 253.39,740.62C253.86,742.75 254.78,744.75 255.64,746.75C254.72,746.63 252.87,746.39 251.95,746.27C249.45,742.8 248.72,738.56 247.99,734.45Z" style="fill:rgb(226,155,36);fill-rule:nonzero;"/>
        <path d="M180.96,754.95C181.08,752.54 183.83,750.65 186,752.1C189.67,753.5 188.83,757.89 189.81,760.96C191.03,765.15 191.19,769.68 189.65,773.82C187.54,774.3 184.97,774.6 183.51,772.63C181.69,766.96 180.35,760.92 180.96,754.95Z" style="fill:rgb(1,0,0);fill-rule:nonzero;"/>
    </g>
</svg>
