<?xml version="1.0" encoding="UTF-8" standalone="no"?>
<!DOCTYPE svg PUBLIC "-//W3C//DTD SVG 1.1//EN" "http://www.w3.org/Graphics/SVG/1.1/DTD/svg11.dtd">
<svg width="100%" height="100%" viewBox="0 0 332 332" version="1.1" xmlns="http://www.w3.org/2000/svg" xmlns:xlink="http://www.w3.org/1999/xlink" xml:space="preserve" xmlns:serif="http://www.serif.com/" style="fill-rule:evenodd;clip-rule:evenodd;stroke-linejoin:round;stroke-miterlimit:2;">
    <g transform="matrix(1,0,0,1,-463.033561,-156.536915)">
        <path d="M500.31,157.57C506.06,156 512.08,156.72 517.97,156.6C595.32,156.6 672.68,156.63 750.03,156.59C760.14,156.77 769.39,161.86 777.08,168.07C782.71,172.55 786.99,178.54 790.21,184.93C792.1,189.44 794.42,194 794.39,199.01C794.37,277.66 794.39,356.31 794.39,434.96C794.3,441.21 795.18,447.74 792.69,453.67C787.99,467.19 777.49,478.43 764.55,484.45C759.95,486.51 754.98,487.79 749.94,487.98C670.64,488.02 591.34,487.92 512.04,488.03C500.06,488.75 488.22,483.55 479.67,475.34C475.44,471.23 471.01,467.07 468.47,461.65C465.73,455.78 462.88,449.63 463.04,443.01C463.07,362.36 463.06,281.7 463.04,201.05C463.15,192.28 467.38,184.24 472.11,177.09C479.08,167.78 488.99,160.56 500.31,157.57M648.56,182.63C645.26,185.3 642.28,188.61 640.9,192.68C637.93,199.68 632.02,205.24 630.26,212.75C630.8,214 631.31,215.26 631.8,216.54C633.43,217.27 635.18,217.66 636.96,217.83C640.56,218.13 643.7,220.14 646.65,222.07C653.26,227.1 661.19,229.89 668.76,233.12C674.76,234.51 680.13,237.96 686.28,238.73C692.66,243.58 699.5,247.73 706.57,251.49C710.89,252.44 715.03,254.05 719.11,255.74C720.95,257.49 723.06,258.99 725.76,258.77C726.14,258.36 726.9,257.54 727.28,257.13C727.4,254.32 727.95,250.66 725.02,249.03C719.71,246.13 713.83,244.5 708.06,242.8C703.05,239.56 697.91,236.49 693.02,233.07C699.02,226.61 700.01,217.44 700.7,209.06C702.13,200.35 702.34,190.52 697.05,182.98C695.84,179.05 691.98,177.13 688.7,175.16C682.38,172.78 675.53,174.29 668.97,173.86C661.22,173.81 654.6,178.29 648.56,182.63M609.51,190.95C606.83,198.97 603.83,206.88 600.4,214.6C598.63,218.03 596.71,221.37 594.47,224.52C591.28,230.36 589.29,236.75 586.75,242.87C583.58,248.33 580.88,254.1 579.02,260.14C577.8,262.59 576.63,265.06 575.3,267.46C572.26,271.84 568.55,275.98 567.08,281.23C563.94,288.58 559.62,295.37 555.16,301.97C550.93,310.25 548.52,320.02 540.84,325.98C536.42,329 531.25,330.67 526.92,333.84C522.7,336.82 516.67,336.17 513.15,340.22C511.77,343.19 513.16,347.28 515.77,349.13C521.84,351.61 528.57,351.65 535.02,351.44C537.62,351.98 540.25,351.96 542.86,351.48C551.87,351.18 561.04,351.57 569.85,349.3C573.79,348.23 577.87,347.79 581.92,347.28C580.56,350.62 578.67,353.7 577.18,356.98C573.08,362.5 570.68,369.04 567.07,374.86C565.81,377.08 564.65,380.21 566.64,382.37C569.09,383.97 571.94,384.79 574.47,386.27C577.99,387.84 579.88,391.4 582.62,393.93C581.54,398.02 579.61,401.83 578.65,405.96C580.62,407.9 581.91,411.1 584.99,411.45C589.95,412.08 594.93,412.92 599.95,412.59C603.34,412.33 606.59,413.61 609.96,413.68C618.02,413.55 625.89,415.73 633.9,416.29C638.02,416.12 642.05,417.15 646.09,417.82C654.1,418.93 662.28,418.72 670.13,416.69C680.13,416.54 689.57,412.71 699.53,412.22C709.22,408.37 719.41,405.95 729.11,402.09C729.64,400.09 731.08,398.05 730.22,395.94C729.52,394.86 728.67,393.9 727.87,392.92C727.33,389.55 725.67,386.55 724.39,383.44C722.48,378.31 718,374.47 716.93,368.97C714.77,362.86 712.17,356.91 710.12,350.77C708.88,346.18 705.16,343.02 703.27,338.76C705.7,338.36 708.78,338.52 710.35,336.25C712.17,332.85 712.81,328.92 712.39,325.11C710.6,316.61 706.86,307.96 699.36,303.01C702.61,296.44 699.92,288.57 696.55,282.55C694.51,279.39 695.08,275.52 694.22,272.03C691.41,265.64 689.6,258.59 684.66,253.38C681.8,250.04 677.01,250.79 673.18,249.62C666.51,247.72 660.46,251.63 654.18,253.13C649.99,254.42 646.25,256.79 642.1,258.15C637.04,259.8 632.11,261.85 627.78,264.97C624.42,266.52 622.68,269.92 619.76,272.03C619.46,266.65 619.1,261.28 618.56,255.92C618.95,247.64 618.69,239.35 618.62,231.05C619.37,226.73 619.71,222.28 618.92,217.94C618.55,215.95 617.81,213.97 618.3,211.93C619.12,206.95 618.8,201.87 618.6,196.86C618.57,194.4 617.25,192.13 615.44,190.55C613.54,189.49 611.39,190.37 609.51,190.95M522.98,359.62C520.76,359.46 518.55,360.94 517.81,363.02C517.38,367.74 517.9,372.57 519.61,377.01C519.74,383.63 519.05,390.23 519.37,396.86C518.89,402.92 518.41,409.01 519.36,415.07C517.62,424.82 520.39,434.71 524.38,443.54C525.69,446.63 529.16,447.43 531.58,449.39C533.9,450.96 535.86,453.15 538.48,454.24C542.71,454.84 546.84,456.14 551.12,456.5C559.11,456.89 567.41,457.12 574.79,460.52C581.27,461.86 588.14,461.83 594.46,459.73C601.95,458.15 609.29,453.46 612.14,446.12C612.47,443.29 613.57,440.64 614.13,437.87C614.15,434.41 613.14,431.02 611.95,427.81C611.63,426.62 610.85,425.68 609.7,425.25C604.2,422.22 597.66,422.2 592.01,419.59C586.86,417.58 581.14,417.76 576.09,415.46C570.5,413.61 562.87,414.2 559.7,408.23C558.87,398.51 558.36,388.76 557.72,379.04C557.78,372.93 558.02,366.76 556.23,360.86C552.5,358.67 548.05,359.31 543.94,359.56C536.97,360.44 529.97,359.29 522.98,359.62M716.06,420.18C710.34,420.78 704.55,420.09 698.86,421.13C691.88,422 684.55,421.75 678.03,424.8C670.86,426.6 663.53,428.35 657.05,432.07C652.4,432.46 647.74,432.93 643.07,432.58C636.31,432.33 628.63,433.61 624.01,439C620.85,441.68 618.27,444.98 616.55,448.74C615.92,453.59 617.36,458.35 619.29,462.75C622.09,467.98 628.36,469.82 633.94,469.73C640.6,469.37 647.26,469.28 653.93,469.33C669.25,468.05 684.65,469.74 699.96,468.25C702.4,468.53 704.28,470.78 706.88,470.75C715.61,470.35 724.44,470.01 732.88,467.5C735.84,466.57 739.58,466.35 741.43,463.5C744.36,457.52 745.56,450.68 744.58,444.08C744.81,437.4 742.6,431.02 742.27,424.38C738.63,419.65 734.76,413.16 728.04,413.13C723.05,412.65 719.21,416.88 716.06,420.18Z" style="fill:rgb(255,238,195);fill-rule:nonzero;"/>
        <path d="M648.56,182.63C654.6,178.29 661.22,173.81 668.97,173.86C675.53,174.29 682.38,172.78 688.7,175.16C691.98,177.13 695.84,179.05 697.05,182.98C702.34,190.52 702.13,200.35 700.7,209.06C700.01,217.44 699.02,226.61 693.02,233.07C697.91,236.49 703.05,239.56 708.06,242.8C713.83,244.5 719.71,246.13 725.02,249.03C727.95,250.66 727.4,254.32 727.28,257.13C726.9,257.54 726.14,258.36 725.76,258.77C723.06,258.99 720.95,257.49 719.11,255.74C715.03,254.05 710.89,252.44 706.57,251.49C699.5,247.73 692.66,243.58 686.28,238.73C680.13,237.96 674.76,234.51 668.76,233.12C661.19,229.89 653.26,227.1 646.65,222.07C643.7,220.14 640.56,218.13 636.96,217.83C635.18,217.66 633.43,217.27 631.8,216.54C631.31,215.26 630.8,214 630.26,212.75C632.02,205.24 637.93,199.68 640.9,192.68C642.28,188.61 645.26,185.3 648.56,182.63M656.94,187.56C661.12,190 665.43,192.2 669.78,194.32C669.61,196.29 669.84,198.34 669.21,200.24C667.93,202.54 665.32,203.79 664.3,206.27C663.1,208.99 661.3,211.93 658.04,212.27C652.57,211.53 647.66,208.84 642.87,206.26C642.22,207.46 641.58,208.67 640.95,209.89C643.86,210.89 646.97,211.62 649.44,213.58C654.04,216.99 659.08,219.76 664.48,221.7C670.72,225.08 677.74,226.54 684.21,229.42C687.33,226.39 690.19,222.78 691.2,218.47C692.4,214.06 692.05,209.42 693.26,205C693.19,199.8 694.1,194.2 691.42,189.46C689.81,185.31 685.48,182.49 681.05,182.62C675.68,182.7 670.17,181.72 664.92,183.29C661.94,184.02 659.47,185.91 656.94,187.56M649.98,194.9C649.3,196.27 648.62,197.64 647.95,199C650.56,200.96 653.5,202.47 656.76,202.94C657.49,201.65 658.22,200.36 658.97,199.08C656.36,196.94 653.43,195.12 649.98,194.9Z" style="fill:rgb(1,1,1);fill-rule:nonzero;"/>
        <path d="M609.51,190.95C611.39,190.37 613.54,189.49 615.44,190.55C617.25,192.13 618.57,194.4 618.6,196.86C618.8,201.87 619.12,206.95 618.3,211.93C617.81,213.97 618.55,215.95 618.92,217.94C619.71,222.28 619.37,226.73 618.62,231.05C618.69,239.35 618.95,247.64 618.56,255.92C619.1,261.28 619.46,266.65 619.76,272.03C622.68,269.92 624.42,266.52 627.78,264.97C632.11,261.85 637.04,259.8 642.1,258.15C646.25,256.79 649.99,254.42 654.18,253.13C660.46,251.63 666.51,247.72 673.18,249.62C677.01,250.79 681.8,250.04 684.66,253.38C689.6,258.59 691.41,265.64 694.22,272.03C695.08,275.52 694.51,279.39 696.55,282.55C699.92,288.57 702.61,296.44 699.36,303.01C706.86,307.96 710.6,316.61 712.39,325.11C712.81,328.92 712.17,332.85 710.35,336.25C708.78,338.52 705.7,338.36 703.27,338.76C705.16,343.02 708.88,346.18 710.12,350.77C712.17,356.91 714.77,362.86 716.93,368.97C718,374.47 722.48,378.31 724.39,383.44C725.67,386.55 727.33,389.55 727.87,392.92C728.67,393.9 729.52,394.86 730.22,395.94C731.08,398.05 729.64,400.09 729.11,402.09C719.41,405.95 709.22,408.37 699.53,412.22C689.57,412.71 680.13,416.54 670.13,416.69C662.28,418.72 654.1,418.93 646.09,417.82C642.05,417.15 638.02,416.12 633.9,416.29C625.89,415.73 618.02,413.55 609.96,413.68C606.59,413.61 603.34,412.33 599.95,412.59C594.93,412.92 589.95,412.08 584.99,411.45C581.91,411.1 580.62,407.9 578.65,405.96C579.61,401.83 581.54,398.02 582.62,393.93C579.88,391.4 577.99,387.84 574.47,386.27C571.94,384.79 569.09,383.97 566.64,382.37C564.65,380.21 565.81,377.08 567.07,374.86C570.68,369.04 573.08,362.5 577.18,356.98C578.67,353.7 580.56,350.62 581.92,347.28C577.87,347.79 573.79,348.23 569.85,349.3C561.04,351.57 551.87,351.18 542.86,351.48C540.25,351.96 537.62,351.98 535.02,351.44C528.57,351.65 521.84,351.61 515.77,349.13C513.16,347.28 511.77,343.19 513.15,340.22C516.67,336.17 522.7,336.82 526.92,333.84C531.25,330.67 536.42,329 540.84,325.98C548.52,320.02 550.93,310.25 555.16,301.97C559.62,295.37 563.94,288.58 567.08,281.23C568.55,275.98 572.26,271.84 575.3,267.46C576.63,265.06 577.8,262.59 579.02,260.14C580.88,254.1 583.58,248.33 586.75,242.87C589.29,236.75 591.28,230.36 594.47,224.52C596.71,221.37 598.63,218.03 600.4,214.6C603.83,206.88 606.83,198.97 609.51,190.95M609.68,212.94C608.82,217.32 606.2,220.94 604.18,224.83C600.18,231.4 597.28,238.57 594.74,245.81C591.45,251.74 588.28,257.81 586.3,264.32C583.45,271.35 578.3,277.11 574.92,283.86C572.7,288.59 571,293.68 567.7,297.81C567.55,298.29 567.25,299.26 567.1,299.75C560.05,307.34 558.89,318.37 552.19,326.18C549.54,329.18 546.86,332.2 543.77,334.74C538.8,337.64 532.9,339.01 528.57,342.97C538.33,343.89 547.99,341.81 557.75,342.59C562.56,342.16 567.23,340.73 572.04,340.15C577.33,339.62 582.13,337.09 587.38,336.42C591.44,329.99 593.88,322.62 598.73,316.7C603.12,310.29 602.67,302.15 603.77,294.78C604.21,290.78 607.25,287.83 608.35,284.05C608.94,282.01 610.31,280.37 611.76,278.88C611.33,265.92 610.38,252.99 610.76,240.02C610.1,230.99 612.81,221.71 609.68,212.94M659.82,257.94C656.74,259.09 653.24,259.56 650.8,261.96C648.24,262.99 645.96,264.59 643.45,265.72C639.91,267.46 635.97,268.43 632.72,270.74C628.25,274.04 622.92,276.34 619.59,280.98L619.6,281.49C613.72,288.47 608.45,297.55 610.41,307.02C610.56,308.94 610.6,310.98 609.77,312.77C607.47,317.58 604.73,322.22 601.14,326.19L601.78,326.58C594.27,337.04 589.8,349.29 583.57,360.51C580.14,365.91 576.85,371.44 574.16,377.25C578.29,379.1 581.84,381.93 585.15,384.98C586.32,381.95 587.2,378.72 589.03,376C591.29,374.36 593.78,376.29 595.84,377.29C595.29,381.1 593.13,384.34 592.03,387.96C591.31,393.32 589.9,398.66 587.38,403.47C593.79,405.42 600.52,404.2 607.03,405.44C612.83,406.3 618.76,405.95 624.48,407.4C632.42,409.07 640.79,407.34 648.52,410.18C659.09,411.73 669.74,409.5 680.17,407.87C684.86,407.39 689.26,405.45 693.98,405.17C699.3,404.83 703.82,401.67 708.94,400.53C713.06,399.65 717.02,398.19 720.83,396.42C720.68,395.51 720.37,393.7 720.22,392.79C718.22,385.7 712.93,380.25 710.41,373.41C708.14,366.56 705.37,359.89 702.87,353.13C699.12,346.05 694.35,338.31 686.24,335.84C679.4,332.38 671.69,331.59 664.49,329.24C664.41,327.56 664.34,325.88 664.29,324.2C667.99,321.98 672.19,323.52 676.05,324.33C685.68,326.42 695.06,329.58 704.87,330.67C705.82,328.04 705.11,325.2 704.47,322.59L703.98,322.6C702.84,319.92 701.81,317.18 700.35,314.66C698.65,312.38 696.46,310.54 694.44,308.58C689.61,309.38 684.76,310.07 679.92,310.72C678.32,310.91 675.89,310.84 675.47,308.94C674.38,305.69 678.42,304.73 680.19,302.88C684.68,302.26 689.14,301.2 693.71,301.28C693.36,297.66 693.16,294 692.24,290.48C691.09,287.45 688.53,285.07 687.97,281.82C687.68,278.94 687.82,275.96 686.56,273.29C684.52,268.53 683.21,263.23 679.52,259.42C673.71,255.59 666.23,256.02 659.82,257.94Z" style="fill:rgb(1,1,1);fill-rule:nonzero;"/>
        <path d="M716.06,420.18C719.21,416.88 723.05,412.65 728.04,413.13C734.76,413.16 738.63,419.65 742.27,424.38C742.6,431.02 744.81,437.4 744.58,444.08C745.56,450.68 744.36,457.52 741.43,463.5C739.58,466.35 735.84,466.57 732.88,467.5C724.44,470.01 715.61,470.35 706.88,470.75C704.28,470.78 702.4,468.53 699.96,468.25C684.65,469.74 669.25,468.05 653.93,469.33C647.26,469.28 640.6,469.37 633.94,469.73C628.36,469.82 622.09,467.98 619.29,462.75C617.36,458.35 615.92,453.59 616.55,448.74C618.27,444.98 620.85,441.68 624.01,439C628.63,433.61 636.31,432.33 643.07,432.58C647.74,432.93 652.4,432.46 657.05,432.07C663.53,428.35 670.86,426.6 678.03,424.8C684.55,421.75 691.88,422 698.86,421.13C704.55,420.09 710.34,420.78 716.06,420.18M723.95,424.15C725.39,428.29 726.97,432.89 724.73,437.07C724.09,437.75 723.46,438.44 722.85,439.14C718.82,441.2 714.17,441.56 709.82,440.34C704.52,438.3 700.32,434.51 696.95,430.03C694.73,429.68 692.51,430.26 690.31,430.52C693.31,434.12 695.32,438.42 694.86,443.22C693.17,446.12 689.57,446.21 687.51,443.67C686.89,439.54 684.31,436.24 681.99,432.93C679.41,433.35 676.82,433.73 674.23,434.09C675.31,437.48 676.17,440.92 677.03,444.37C676.87,445.75 676.79,447.15 676.53,448.53C673.99,450.67 670.18,449.26 669.3,446.19C668.76,443.03 667.56,440.03 666.06,437.22C664.35,438.12 662.66,439.05 660.98,439.99C661.71,441.38 662.45,442.76 663.11,444.19C663.62,447.42 662.57,450.84 659.02,451.57C657.97,451 656.92,450.44 655.88,449.89C655.84,449.05 655.82,448.22 655.82,447.4C654.6,445.4 653.33,443.44 652.06,441.48C645.52,441.91 638.29,439.92 632.32,443.37C628.48,446.24 623.21,450.42 625.29,455.86C626.05,457.3 626.22,459.35 627.92,460.08C630.67,461.49 633.9,460.41 636.86,460.79C644.89,461.62 652.9,460.12 660.94,460.43C672.27,460.2 683.61,460.57 694.94,460.22C698.17,460.25 701.01,458.62 704.04,457.79C706.12,458.17 707.16,459.97 707.72,461.85C712.81,461.66 717.98,461.99 722.97,460.72C727.1,459.6 731.62,459.71 735.34,457.34C736.64,453.39 737.16,449.23 736.5,445.11C736.32,439.33 735.73,433.6 734.57,427.93C732.7,425.4 730.62,423 728.03,421.19C726.66,422.17 725.31,423.16 723.95,424.15Z" style="fill:rgb(1,1,1);fill-rule:nonzero;"/>
        <path d="M656.94,187.56C659.47,185.91 661.94,184.02 664.92,183.29C670.17,181.72 675.68,182.7 681.05,182.62C685.48,182.49 689.81,185.31 691.42,189.46C694.1,194.2 693.19,199.8 693.26,205C692.05,209.42 692.4,214.06 691.2,218.47C690.19,222.78 687.33,226.39 684.21,229.42C677.74,226.54 670.72,225.08 664.48,221.7C659.08,219.76 654.04,216.99 649.44,213.58C646.97,211.62 643.86,210.89 640.95,209.89C641.58,208.67 642.22,207.46 642.87,206.26C647.66,208.84 652.57,211.53 658.04,212.27C661.3,211.93 663.1,208.99 664.3,206.27C665.32,203.79 667.93,202.54 669.21,200.24C669.84,198.34 669.61,196.29 669.78,194.32C665.43,192.2 661.12,190 656.94,187.56Z" style="fill:rgb(249,136,218);fill-rule:nonzero;"/>
        <path d="M654.4,269.38C660.06,265.99 666.64,264.79 673.16,265.69C674.46,270.35 675.52,275.45 674.06,280.18C671.13,284.7 666.5,287.96 661.76,290.37C647.74,295.88 633.82,301.79 621.13,309.97C620.08,306.5 618.52,302.88 619.45,299.19C621.02,293.08 624.33,287.36 628.93,283.04C634.9,278.73 641.74,275.78 648.64,273.29C648.22,275.21 647.8,277.14 647.36,279.06C649.99,277.67 652.61,276.28 655.27,274.93C654.93,273.08 654.5,271.25 654.4,269.38Z" style="fill-rule:nonzero;"/>
        <path d="M522.98,359.62C529.97,359.29 536.97,360.44 543.94,359.56C548.05,359.31 552.5,358.67 556.23,360.86C558.02,366.76 557.78,372.93 557.72,379.04C558.36,388.76 558.87,398.51 559.7,408.23C562.87,414.2 570.5,413.61 576.09,415.46C581.14,417.76 586.86,417.58 592.01,419.59C597.66,422.2 604.2,422.22 609.7,425.25C610.85,425.68 611.63,426.62 611.95,427.81C613.14,431.02 614.15,434.41 614.13,437.87C613.57,440.64 612.47,443.29 612.14,446.12C609.29,453.46 601.95,458.15 594.46,459.73C588.14,461.83 581.27,461.86 574.79,460.52C567.41,457.12 559.11,456.89 551.12,456.5C546.84,456.14 542.71,454.84 538.48,454.24C535.86,453.15 533.9,450.96 531.58,449.39C529.16,447.43 525.69,446.63 524.38,443.54C520.39,434.71 517.62,424.82 519.36,415.07C518.41,409.01 518.89,402.92 519.37,396.86C519.05,390.23 519.74,383.63 519.61,377.01C517.9,372.57 517.38,367.74 517.81,363.02C518.55,360.94 520.76,359.46 522.98,359.62M526.9,368.22C527.28,369.52 527.67,370.83 528.08,372.13C527.43,379.84 527.55,387.56 527.33,395.29C535.14,395.69 542.89,393.97 550.69,394.72C550.79,390.78 550.21,386.89 549.78,382.99C549.67,378.03 549.63,373.07 549.41,368.11C548.42,368.13 547.44,368.15 546.47,368.18C546.44,370.67 546.1,373.14 545.56,375.58C543.66,376.31 541.03,377.57 539.45,375.57C538.19,373.36 538.34,370.63 537.73,368.19C537.21,374.3 539.22,380.48 537.44,386.47C535.16,387.69 532.74,387.09 530.54,386.06C530.13,380.86 530.03,375.64 529.48,370.45C529.38,369.94 529.18,368.91 529.08,368.39C528.54,368.35 527.45,368.26 526.9,368.22M545.02,403.28C541.26,403.43 537.51,403.66 533.76,403.82C531.62,403.75 529.49,403.57 527.37,403.33C527.09,406.88 526.7,410.42 526.76,413.98C526.71,417.84 527.02,421.69 527.3,425.54C534.49,423.46 540.63,429.04 544.7,434.27C547.88,438.01 548.57,442.98 549.59,447.61C550.79,447.69 552,447.77 553.21,447.85C555.04,447.85 556.87,447.94 558.71,448.11L558.59,448.63C561.51,448.52 564.44,448.69 567.31,449.3C567.69,444.02 568.87,438.82 570.73,433.87C571.98,430.37 574.83,427.82 577.11,425C575.08,424.42 573.03,423.36 570.99,423.24C568.35,422.45 565.7,421.75 563.07,421C559.77,419.94 556.8,418.11 554.4,415.61C552.37,411.81 550.92,407.64 551.46,403.28C549.31,403.2 547.16,403.16 545.02,403.28Z" style="fill-rule:nonzero;"/>
        <path d="M649.98,194.9C653.43,195.12 656.36,196.94 658.97,199.08C658.22,200.36 657.49,201.65 656.76,202.94C653.5,202.47 650.56,200.96 647.95,199C648.62,197.64 649.3,196.27 649.98,194.9Z" style="fill:rgb(105,11,1);fill-rule:nonzero;"/>
        <path d="M609.68,212.94C612.81,221.71 610.1,230.99 610.76,240.02C610.38,252.99 611.33,265.92 611.76,278.88C610.31,280.37 608.94,282.01 608.35,284.05C607.25,287.83 604.21,290.78 603.77,294.78C602.67,302.15 603.12,310.29 598.73,316.7C593.88,322.62 591.44,329.99 587.38,336.42C582.13,337.09 577.33,339.62 572.04,340.15C567.23,340.73 562.56,342.16 557.75,342.59C547.99,341.81 538.33,343.89 528.57,342.97C532.9,339.01 538.8,337.64 543.77,334.74C546.86,332.2 549.54,329.18 552.19,326.18C558.89,318.37 560.05,307.34 567.1,299.75C567.25,299.26 567.55,298.29 567.7,297.81C571,293.68 572.7,288.59 574.92,283.86C578.3,277.11 583.45,271.35 586.3,264.32C588.28,257.81 591.45,251.74 594.74,245.81C597.28,238.57 600.18,231.4 604.18,224.83C606.2,220.94 608.82,217.32 609.68,212.94M590.66,272.74C590.66,273.48 590.65,274.95 590.65,275.68C588.74,279.33 586.8,283.02 585.67,287C584.48,290.35 588.23,294.39 591.58,292.45C594.75,288.07 596.25,282.75 598.63,277.94C598.34,275.94 598.84,273.29 596.7,272.16C594.81,270.61 592.53,271.9 590.66,272.74M586.8,308.84C584.32,311.52 580.91,313.12 578.5,315.86C577.57,319.05 579.77,323.86 583.64,322.49C588.43,319.41 592.11,314.91 596.74,311.59C596.42,309.36 596.89,306.01 593.99,305.41C590.9,304.13 588.75,306.99 586.8,308.84Z" style="fill:rgb(235,52,36);fill-rule:nonzero;"/>
        <path d="M590.66,272.74C592.53,271.9 594.81,270.61 596.7,272.16C598.84,273.29 598.34,275.94 598.63,277.94C596.25,282.75 594.75,288.07 591.58,292.45C588.23,294.39 584.48,290.35 585.67,287C586.8,283.02 588.74,279.33 590.65,275.68C590.65,274.95 590.66,273.48 590.66,272.74Z" style="fill:rgb(2,1,1);fill-rule:nonzero;"/>
        <path d="M586.8,308.84C588.75,306.99 590.9,304.13 593.99,305.41C596.89,306.01 596.42,309.36 596.74,311.59C592.11,314.91 588.43,319.41 583.64,322.49C579.77,323.86 577.57,319.05 578.5,315.86C580.91,313.12 584.32,311.52 586.8,308.84Z" style="fill:rgb(2,1,1);fill-rule:nonzero;"/>
        <path d="M659.82,257.94C666.23,256.02 673.71,255.59 679.52,259.42C683.21,263.23 684.52,268.53 686.56,273.29C687.82,275.96 687.68,278.94 687.97,281.82C688.53,285.07 691.09,287.45 692.24,290.48C693.16,294 693.36,297.66 693.71,301.28C689.14,301.2 684.68,302.26 680.19,302.88C678.42,304.73 674.38,305.69 675.47,308.94C675.89,310.84 678.32,310.91 679.92,310.72C684.76,310.07 689.61,309.38 694.44,308.58C696.46,310.54 698.65,312.38 700.35,314.66C701.81,317.18 702.84,319.92 703.98,322.6C698.51,323.06 693.38,320.84 688.08,319.96C683.19,318.99 678.17,318.99 673.32,317.83C669.7,317.08 666.04,315.87 662.32,316.4C659.35,316.97 656.81,318.7 654.23,320.15C654.05,322.37 653.87,324.59 653.69,326.81C660.61,334.17 669.5,339.23 678.72,343.16C684.44,345.43 688.19,350.61 691.35,355.64C696.16,364.09 697.89,373.9 702.63,382.38C704.47,385.44 706.73,388.23 708.49,391.34C709.53,393.05 710.63,395.35 713.03,395.19C715.54,394.82 717.87,393.71 720.22,392.79C720.37,393.7 720.68,395.51 720.83,396.42C717.02,398.19 713.06,399.65 708.94,400.53C703.82,401.67 699.3,404.83 693.98,405.17C689.26,405.45 684.86,407.39 680.17,407.87C669.74,409.5 659.09,411.73 648.52,410.18C640.79,407.34 632.42,409.07 624.48,407.4C618.76,405.95 612.83,406.3 607.03,405.44C600.52,404.2 593.79,405.42 587.38,403.47C589.9,398.66 591.31,393.32 592.03,387.96C593.13,384.34 595.29,381.1 595.84,377.29C596.37,374.97 596.78,372.62 597.23,370.28C599.61,368.5 600,365.68 599.92,362.9C601.27,352.66 606.28,343.36 607.63,333.13C607.73,329.72 604.18,328.17 601.78,326.58L601.14,326.19C604.73,322.22 607.47,317.58 609.77,312.77C610.6,310.98 610.56,308.94 610.41,307.02C608.45,297.55 613.72,288.47 619.6,281.49C619.61,282.24 619.64,283.74 619.65,284.49C614.41,289.84 613.26,297.91 614.01,305.06C614.36,308.51 618.03,310.11 621.13,309.97C633.82,301.79 647.74,295.88 661.76,290.37C666.5,287.96 671.13,284.7 674.06,280.18C675.52,275.45 674.46,270.35 673.16,265.69C671.43,262.95 667.95,262.52 665.12,261.6C660.43,260.09 655.5,261.14 650.8,261.96C653.24,259.56 656.74,259.09 659.82,257.94Z" style="fill:rgb(145,96,221);fill-rule:nonzero;"/>
        <path d="M650.8,261.96C655.5,261.14 660.43,260.09 665.12,261.6C667.95,262.52 671.43,262.95 673.16,265.69C666.64,264.79 660.06,265.99 654.4,269.38C654.5,271.25 654.93,273.08 655.27,274.93C652.61,276.28 649.99,277.67 647.36,279.06C647.8,277.14 648.22,275.21 648.64,273.29C641.74,275.78 634.9,278.73 628.93,283.04C624.33,287.36 621.02,293.08 619.45,299.19C618.52,302.88 620.08,306.5 621.13,309.97C618.03,310.11 614.36,308.51 614.01,305.06C613.26,297.91 614.41,289.84 619.65,284.49C619.64,283.74 619.61,282.24 619.6,281.49L619.59,280.98C622.92,276.34 628.25,274.04 632.72,270.74C635.97,268.43 639.91,267.46 643.45,265.72C645.96,264.59 648.24,262.99 650.8,261.96Z" style="fill:rgb(98,100,201);fill-rule:nonzero;"/>
        <path d="M662.32,316.4C666.04,315.87 669.7,317.08 673.32,317.83C678.17,318.99 683.19,318.99 688.08,319.96C693.38,320.84 698.51,323.06 703.98,322.6L704.47,322.59C705.11,325.2 705.82,328.04 704.87,330.67C695.06,329.58 685.68,326.42 676.05,324.33C672.19,323.52 667.99,321.98 664.29,324.2C664.34,325.88 664.41,327.56 664.49,329.24C671.69,331.59 679.4,332.38 686.24,335.84C694.35,338.31 699.12,346.05 702.87,353.13C705.37,359.89 708.14,366.56 710.41,373.41C712.93,380.25 718.22,385.7 720.22,392.79C717.87,393.71 715.54,394.82 713.03,395.19C710.63,395.35 709.53,393.05 708.49,391.34C706.73,388.23 704.47,385.44 702.63,382.38C697.89,373.9 696.16,364.09 691.35,355.64C688.19,350.61 684.44,345.43 678.72,343.16C669.5,339.23 660.61,334.17 653.69,326.81C653.87,324.59 654.05,322.37 654.23,320.15C656.81,318.7 659.35,316.97 662.32,316.4Z" style="fill:rgb(98,100,201);fill-rule:nonzero;"/>
        <path d="M601.78,326.58C604.18,328.17 607.73,329.72 607.63,333.13C606.28,343.36 601.27,352.66 599.92,362.9C597.61,362.76 594.21,361.23 592.77,363.85C592.67,364.68 592.47,366.35 592.37,367.18C593.28,369 595.61,369.32 597.23,370.28C596.78,372.62 596.37,374.97 595.84,377.29C593.78,376.29 591.29,374.36 589.03,376C587.2,378.72 586.32,381.95 585.15,384.98C581.84,381.93 578.29,379.1 574.16,377.25C576.85,371.44 580.14,365.91 583.57,360.51C589.8,349.29 594.27,337.04 601.78,326.58Z" style="fill:rgb(98,100,201);fill-rule:nonzero;"/>
        <path d="M592.77,363.85C594.21,361.23 597.61,362.76 599.92,362.9C600,365.68 599.61,368.5 597.23,370.28C595.61,369.32 593.28,369 592.37,367.18C592.47,366.35 592.67,364.68 592.77,363.85Z" style="fill:rgb(1,1,3);fill-rule:nonzero;"/>
        <path d="M526.9,368.22C527.45,368.26 528.54,368.35 529.08,368.39C529.18,368.91 529.38,369.94 529.48,370.45C529.13,370.87 528.43,371.71 528.08,372.13C527.67,370.83 527.28,369.52 526.9,368.22Z" style="fill:rgb(198,203,101);fill-rule:nonzero;"/>
        <path d="M537.73,368.19C538.34,370.63 538.19,373.36 539.45,375.57C541.03,377.57 543.66,376.31 545.56,375.58C546.1,373.14 546.44,370.67 546.47,368.18C547.44,368.15 548.42,368.13 549.41,368.11C549.63,373.07 549.67,378.03 549.78,382.99C550.21,386.89 550.79,390.78 550.69,394.72C542.89,393.97 535.14,395.69 527.33,395.29C527.55,387.56 527.43,379.84 528.08,372.13C528.43,371.71 529.13,370.87 529.48,370.45C530.03,375.64 530.13,380.86 530.54,386.06C532.74,387.09 535.16,387.69 537.44,386.47C539.22,380.48 537.21,374.3 537.73,368.19Z" style="fill:rgb(235,110,21);fill-rule:nonzero;"/>
        <path d="M570.99,423.24C573.03,423.36 575.08,424.42 577.11,425C574.83,427.82 571.98,430.37 570.73,433.87C568.87,438.82 567.69,444.02 567.31,449.3C564.44,448.69 561.51,448.52 558.59,448.63L558.71,448.11C559.86,443.49 559.73,438.52 562.03,434.25C563.86,429.77 567.14,426.1 570.99,423.24Z" style="fill:rgb(235,110,21);fill-rule:nonzero;"/>
        <path d="M545.02,403.28C547.16,403.16 549.31,403.2 551.46,403.28C550.92,407.64 552.37,411.81 554.4,415.61C552.95,418.82 552.3,422.3 552.09,425.81C554.25,426.52 556.59,428.31 558.92,427.03C561.38,426.03 561.91,423.11 563.07,421C565.7,421.75 568.35,422.45 570.99,423.24C567.14,426.1 563.86,429.77 562.03,434.25C559.73,438.52 559.86,443.49 558.71,448.11C556.87,447.94 555.04,447.85 553.21,447.85C553.34,441.27 550.9,435.11 549.53,428.79C548.74,424.56 545.27,421.38 541.63,419.44C536.83,417.23 531.93,415.14 526.76,413.98C526.7,410.42 527.09,406.88 527.37,403.33C529.49,403.57 531.62,403.75 533.76,403.82C534.36,405.96 534.49,408.37 535.8,410.24C537.86,412.48 541.57,411.66 543.23,409.38C544.09,407.43 544.48,405.32 545.02,403.28Z" style="fill:rgb(243,178,14);fill-rule:nonzero;"/>
        <path d="M533.76,403.82C537.51,403.66 541.26,403.43 545.02,403.28C544.48,405.32 544.09,407.43 543.23,409.38C541.57,411.66 537.86,412.48 535.8,410.24C534.49,408.37 534.36,405.96 533.76,403.82Z" style="fill:rgb(235,110,20);fill-rule:nonzero;"/>
        <path d="M526.76,413.98C531.93,415.14 536.83,417.23 541.63,419.44C545.27,421.38 548.74,424.56 549.53,428.79C550.9,435.11 553.34,441.27 553.21,447.85C552,447.77 550.79,447.69 549.59,447.61C548.57,442.98 547.88,438.01 544.7,434.27C540.63,429.04 534.49,423.46 527.3,425.54C527.02,421.69 526.71,417.84 526.76,413.98Z" style="fill:rgb(235,110,20);fill-rule:nonzero;"/>
        <path d="M552.09,425.81C552.3,422.3 552.95,418.82 554.4,415.61C556.8,418.11 559.77,419.94 563.07,421C561.91,423.11 561.38,426.03 558.92,427.03C556.59,428.31 554.25,426.52 552.09,425.81Z" style="fill:rgb(236,110,20);fill-rule:nonzero;"/>
        <path d="M723.95,424.15C725.31,423.16 726.66,422.17 728.03,421.19C730.62,423 732.7,425.4 734.57,427.93C731.81,431.43 729.9,436.83 724.73,437.07C726.97,432.89 725.39,428.29 723.95,424.15Z" style="fill:rgb(83,200,130);fill-rule:nonzero;"/>
        <path d="M690.31,430.52C692.51,430.26 694.73,429.68 696.95,430.03C700.32,434.51 704.52,438.3 709.82,440.34C705.12,442.51 699.81,442.06 694.86,443.22C695.32,438.42 693.31,434.12 690.31,430.52Z" style="fill:rgb(83,200,130);fill-rule:nonzero;"/>
        <path d="M660.98,439.99C662.66,439.05 664.35,438.12 666.06,437.22C667.56,440.03 668.76,443.03 669.3,446.19C667.71,446.71 666.14,447.24 664.58,447.78C664.08,446.57 663.62,445.37 663.11,444.19C662.45,442.76 661.71,441.38 660.98,439.99Z" style="fill:rgb(83,200,130);fill-rule:nonzero;"/>
        <path d="M632.32,443.37C638.29,439.92 645.52,441.91 652.06,441.48C653.33,443.44 654.6,445.4 655.82,447.4C654.14,448.59 652.42,449.81 650.4,450.34C642.15,452.74 633.36,452.75 625.29,455.86C623.21,450.42 628.48,446.24 632.32,443.37Z" style="fill:rgb(83,200,130);fill-rule:nonzero;"/>
        <path d="M734.57,427.93C735.73,433.6 736.32,439.33 736.5,445.11C737.16,449.23 736.64,453.39 735.34,457.34C731.62,459.71 727.1,459.6 722.97,460.72C717.98,461.99 712.81,461.66 707.72,461.85C707.16,459.97 706.12,458.17 704.04,457.79C701.01,458.62 698.17,460.25 694.94,460.22C683.61,460.57 672.27,460.2 660.94,460.43C652.9,460.12 644.89,461.62 636.86,460.79C633.9,460.41 630.67,461.49 627.92,460.08C626.22,459.35 626.05,457.3 625.29,455.86C633.36,452.75 642.15,452.74 650.4,450.34C652.42,449.81 654.14,448.59 655.82,447.4C655.82,448.22 655.84,449.05 655.88,449.89C656.92,450.44 657.97,451 659.02,451.57C662.57,450.84 663.62,447.42 663.11,444.19C663.62,445.37 664.08,446.57 664.58,447.78C666.14,447.24 667.71,446.71 669.3,446.19C670.18,449.26 673.99,450.67 676.53,448.53C676.79,447.15 676.87,445.75 677.03,444.37C680.54,445.14 684.14,444.95 687.51,443.67C689.57,446.21 693.17,446.12 694.86,443.22C699.81,442.06 705.12,442.51 709.82,440.34C714.17,441.56 718.82,441.2 722.85,439.14C723.46,438.44 724.09,437.75 724.73,437.07C729.9,436.83 731.81,431.43 734.57,427.93Z" style="fill:rgb(80,169,123);fill-rule:nonzero;"/>
        <path d="M674.23,434.09C676.82,433.73 679.41,433.35 681.99,432.93C684.31,436.24 686.89,439.54 687.51,443.67C684.14,444.95 680.54,445.14 677.03,444.37C676.17,440.92 675.31,437.48 674.23,434.09Z" style="fill:rgb(84,200,130);fill-rule:nonzero;"/>
    </g>
</svg>
