<?xml version="1.0" encoding="UTF-8" standalone="no"?>
<!DOCTYPE svg PUBLIC "-//W3C//DTD SVG 1.1//EN" "http://www.w3.org/Graphics/SVG/1.1/DTD/svg11.dtd">
<svg width="100%" height="100%" viewBox="0 0 332 332" version="1.1" xmlns="http://www.w3.org/2000/svg" xmlns:xlink="http://www.w3.org/1999/xlink" xml:space="preserve" xmlns:serif="http://www.serif.com/" style="fill-rule:evenodd;clip-rule:evenodd;stroke-linejoin:round;stroke-miterlimit:2;">
    <g transform="matrix(1,0,0,1,-82.887344,-158.268779)">
        <path d="M210.81,233.76C227.33,229.87 244.32,229.08 260.99,226.05C257.96,229.66 254.65,233 251.67,236.65C247.84,241.09 242.95,244.54 239.49,249.32C236.84,251.87 236.39,256.05 232.91,257.84C220.9,263.87 206.9,261.66 194.26,265.2C184.76,266.78 175.16,268.3 165.51,268.04C167.29,265.67 169.46,263.63 171.76,261.77C179.18,255.72 183.14,246.22 191.6,241.31C194.67,239.75 196.58,236.49 199.96,235.47C203.4,234.02 207.27,234.81 210.81,233.76M200.69,246.7C199.77,249.12 201.08,251.64 201.44,254.04C202.91,254.73 204.36,255.7 206.05,255.68C210.49,254.23 214.89,252.5 218.1,248.93C217.1,246.43 217.4,242.54 214.15,241.82C209.07,239.8 203.82,242.75 200.69,246.7Z" style="fill:white;fill-rule:nonzero;"/>
        <path d="M234.85,267.66C238.42,266.58 240.63,263.37 243.17,260.86C241.95,265.63 240.15,270.27 239.33,275.14C239.16,278.68 239.78,282.22 240.53,285.67C241.73,289.14 243.97,292.12 245.62,295.39C243.01,297.85 243.39,301.76 244.44,304.86C246.82,309.36 248.59,314.16 249.9,319.07C247.21,319.63 244.57,320.38 241.9,321.02C235.22,322.21 228.81,324.74 222.02,324.93C217.15,326.48 212.05,326.27 207.04,326.84C199.8,328.17 192.34,327.75 185.1,326.59C183.29,325.25 182.1,323.17 180.51,321.55C178.83,317.72 178.81,313.25 176.19,309.83C170.94,300.11 166.87,289.56 165.7,278.52C167.05,277.84 168.46,277.09 170.03,277.43C175.44,278.1 180.77,276.68 186.15,276.45C195.75,275.21 205.12,271.8 214.93,272.49C221.67,271.35 228.5,270.37 234.85,267.66M209.64,288.43C211.58,291.81 215.97,291.65 219.17,290.38C219.71,286.88 219.95,283.21 217.34,280.43C212.52,277.86 208.08,284.07 209.64,288.43M180.74,290.97C180.93,295.19 185.98,294.88 188.93,294.04C191.53,292.82 191.92,289.66 191.74,287.12C190.53,285.98 189.36,284.8 188.23,283.58C187.66,283.31 186.51,282.78 185.94,282.51C182.67,283.89 179.44,287.12 180.74,290.97M198.27,302.21C199.1,303.24 199.89,304.32 200.87,305.24C203.06,306.96 206.12,305.76 208.26,304.51C211.6,301.32 208.27,295.2 203.9,295.46C200.25,295.31 199.65,299.72 198.27,302.21M219.56,310.43C218.65,312.58 218.38,314.9 218.32,317.22C220.4,319.73 223.52,319.65 226.27,318.35C226.8,316.37 228.03,314.37 227.68,312.29C225.99,309.38 222.38,308.91 219.56,310.43M192.47,312.61C191.28,313.47 190.35,314.63 189.53,315.83C188.56,321.59 196.44,324.55 200.66,321.74C202.86,319.84 203.92,315.64 201.16,313.78C198.91,311.47 195.29,311.93 192.47,312.61Z" style="fill:white;fill-rule:nonzero;"/>
        <path d="M123.46,158.71C124.08,158.63 125.33,158.47 125.95,158.39C205.97,158.38 286,158.44 366.03,158.36C374.19,157.67 382.01,161 389.04,164.78C400.58,171.23 409.11,182.25 413.32,194.7C414.86,199.64 414.3,204.88 414.38,209.98C414.43,287.97 414.32,365.96 414.43,443.94C415.2,453.3 410.81,462.12 405.56,469.56C398.22,479.61 387.32,487.1 375.11,489.71C365.09,490.53 355.03,489.68 344.99,490.02C276.66,489.96 208.32,490.02 139.99,490.01C132.02,489.79 123.63,491.1 116.09,487.83C98.74,481.2 84.42,464.92 83.01,446C82.92,366.67 83.09,287.34 82.96,208C81.95,191.8 91.59,176.64 104.4,167.41C110.06,163.23 116.81,160.84 123.46,158.71M303.21,202.31C301.03,204.51 300.25,207.83 297.7,209.74C294.59,211.84 293.32,215.51 290.91,218.25C288.76,225 286.32,232.05 287.53,239.23C289.01,246.08 288.72,253.38 292.3,259.63C294.77,264.42 299.68,267.43 301.7,272.52C301.02,273.39 300.26,274.19 299.52,275C298.79,280.03 295.47,284.89 297.32,290.07C297.9,293.54 300.86,295.68 302.89,298.31C300.64,309.79 299.43,321.42 297.61,332.97C294.72,335.14 291.88,337.39 288.9,339.44C282.78,336.24 275.73,336.85 269.16,335.36C258.91,333.07 248.43,331.95 237.92,332.42C246.16,329.8 254.8,328.23 262.57,324.3C268.52,320.43 272.64,314.55 277.74,309.75C281.87,306.26 285.95,302.6 289.14,298.21C290.21,295.59 291.03,292.77 293.23,290.82C294.03,285.67 291.78,280.75 290.61,275.84C290.12,269.75 287.79,264.02 286.95,257.98C284.65,250.07 284.64,241.53 280.99,234.04C279.89,231.36 279.28,228.5 278.12,225.84C276.24,222.85 273.31,220.77 270.68,218.5C266.62,213.83 260.16,217.79 254.96,216.94C251.09,218.88 246.66,218.01 242.55,218.91C237.41,220.02 232.11,219.85 226.92,220.61C216.12,223.54 204.8,224.09 193.98,227C190.5,228.29 188.81,231.97 185.63,233.73C180.04,236.98 176.31,242.37 172.29,247.29C167.71,253.58 160.36,257.46 156.52,264.35C156.15,268.82 156.58,273.32 156.28,277.8C157.53,284 158.53,290.24 159.82,296.44C162.26,302.74 166.32,308.34 168.16,314.89C170.15,317.34 170.56,320.56 171.79,323.4C167.22,325.83 167.68,331.59 166.1,335.87C164.16,337.9 163.13,340.54 161.84,342.99C159.17,347.91 156.52,352.92 155.25,358.42C153.01,360.91 150.84,363.49 149.36,366.52C147.47,368.58 145.92,370.92 143.94,372.89C140.97,375.6 139.94,379.61 138.23,383.1C136.68,386.39 133.99,389 132.6,392.38C131.71,394.54 131.89,397.13 130.36,399.03C128.05,401.94 125.24,404.69 124.6,408.52C124.09,411.53 120.16,411.39 119.01,413.96C116.83,417.91 115.44,422.25 112.99,426.06C111.09,429.03 110.93,432.62 110.5,436.01C111.87,437.02 113.05,438.69 114.89,438.81C118.85,438.99 122.78,439.49 126.72,439.96C123.88,441.58 121.62,444.14 120.18,447.05C119.98,449.05 120.17,451.06 120.16,453.07C121.62,454.17 122.95,455.86 125,455.5C129.18,455.34 133.44,455.48 137.53,454.44C143.95,453.23 150.53,453.43 157,454.12C161.69,453.93 166.35,454.36 171,454.83C175.33,454.45 179.67,454.33 183.98,454.93C191.67,454.89 199.31,453.42 207.02,453.72C216.01,452.94 225.27,455.19 234.09,452.67C246.56,450.25 259.32,449.58 271.98,449.96C278.81,451.03 285.84,451.36 292.68,450.44C301.39,452.13 310.38,450.8 318.99,452.86C325.39,452.39 332.24,456.27 338.06,452C339.74,446.73 341.63,441.53 342.91,436.15C343.59,433.85 345.9,432.37 346.19,429.88C349.57,421.27 352.72,412.51 357.4,404.5C361.35,403.27 365.61,403.73 369.57,402.53C374.45,400.87 380.05,401.65 384.57,398.85C385.23,396.9 386.8,395.15 386.73,393.02C387.21,388.52 382.25,386.66 379.37,384.28C381.33,382.29 383.4,380.37 385.92,379.11C385.59,378.72 384.95,377.94 384.62,377.55C385.45,376.05 386.24,374.53 387.03,373.02C386.5,369.58 384.65,366.44 384.64,362.93C384.42,359.56 384.44,356.04 383.17,352.87C380.6,350.78 377.88,348.79 376.1,345.94C374.48,343 370.92,342.4 368.34,340.61C362.86,336.48 356.8,333.12 350.77,330.05C350.55,325.36 351.14,320.58 349.81,316C348.88,310.88 348.37,305.7 347.03,300.67C347.56,300.38 348.61,299.81 349.14,299.53C351.7,296.35 354.94,293.77 357.39,290.5C359.75,287.54 359.49,283.54 360.18,280.02C359.16,277.23 357.4,274.8 355.82,272.32C358.21,270.62 360.39,268.65 362.35,266.47C370.81,259.01 374.83,246.76 372.21,235.79C372.12,230.08 368.82,225.16 366.89,219.96C366.13,217.7 363.7,216.33 363.48,213.85C363.2,211.74 361.77,210.07 360.42,208.54C355.27,202.96 349.07,198.46 342.45,194.8C336.27,192.42 329.45,193.06 322.96,193.17C315.83,194.67 308.91,197.72 303.21,202.31Z" style="fill:rgb(255,238,195);fill-rule:nonzero;"/>
        <path d="M261.28,253.59C262.67,252.37 264.21,251.34 265.89,250.55C266.57,250.8 267.92,251.29 268.6,251.54C269.45,253.82 270.9,256.74 268.8,258.81C267.43,261.03 264.45,261.01 262.56,259.48C261.28,257.8 261.65,255.55 261.28,253.59Z" style="fill:rgb(1,1,1);fill-rule:nonzero;"/>
        <path d="M209.64,288.43C208.08,284.07 212.52,277.86 217.34,280.43C219.95,283.21 219.71,286.88 219.17,290.38C215.97,291.65 211.58,291.81 209.64,288.43Z" style="fill:rgb(1,1,1);fill-rule:nonzero;"/>
        <path d="M180.74,290.97C179.44,287.12 182.67,283.89 185.94,282.51C186.51,282.78 187.66,283.31 188.23,283.58C189.36,284.8 190.53,285.98 191.74,287.12C191.92,289.66 191.53,292.82 188.93,294.04C185.98,294.88 180.93,295.19 180.74,290.97Z" style="fill:rgb(1,1,1);fill-rule:nonzero;"/>
        <path d="M219.56,310.43C222.38,308.91 225.99,309.38 227.68,312.29C228.03,314.37 226.8,316.37 226.27,318.35C223.52,319.65 220.4,319.73 218.32,317.22C218.38,314.9 218.65,312.58 219.56,310.43Z" style="fill:rgb(1,1,1);fill-rule:nonzero;"/>
        <path d="M192.47,312.61C195.29,311.93 198.91,311.47 201.16,313.78C203.92,315.64 202.86,319.84 200.66,321.74C196.44,324.55 188.56,321.59 189.53,315.83C190.35,314.63 191.28,313.47 192.47,312.61Z" style="fill:rgb(1,1,1);fill-rule:nonzero;"/>
        <path d="M303.21,202.31C308.91,197.72 315.83,194.67 322.96,193.17C329.45,193.06 336.27,192.42 342.45,194.8C349.07,198.46 355.27,202.96 360.42,208.54C361.77,210.07 363.2,211.74 363.48,213.85C363.7,216.33 366.13,217.7 366.89,219.96C368.82,225.16 372.12,230.08 372.21,235.79C374.83,246.76 370.81,259.01 362.35,266.47C360.39,268.65 358.21,270.62 355.82,272.32C357.4,274.8 359.16,277.23 360.18,280.02C359.49,283.54 359.75,287.54 357.39,290.5C354.94,293.77 351.7,296.35 349.14,299.53C348.61,299.81 347.56,300.38 347.03,300.67C348.37,305.7 348.88,310.88 349.81,316C351.14,320.58 350.55,325.36 350.77,330.05C356.8,333.12 362.86,336.48 368.34,340.61C370.92,342.4 374.48,343 376.1,345.94C377.88,348.79 380.6,350.78 383.17,352.87C384.44,356.04 384.42,359.56 384.64,362.93C384.65,366.44 386.5,369.58 387.03,373.02C386.24,374.53 385.45,376.05 384.62,377.55C384.95,377.94 385.59,378.72 385.92,379.11C383.4,380.37 381.33,382.29 379.37,384.28C382.25,386.66 387.21,388.52 386.73,393.02C386.8,395.15 385.23,396.9 384.57,398.85C380.05,401.65 374.45,400.87 369.57,402.53C365.61,403.73 361.35,403.27 357.4,404.5C352.72,412.51 349.57,421.27 346.19,429.88C345.9,432.37 343.59,433.85 342.91,436.15C341.63,441.53 339.74,446.73 338.06,452C332.24,456.27 325.39,452.39 318.99,452.86C310.38,450.8 301.39,452.13 292.68,450.44C285.84,451.36 278.81,451.03 271.98,449.96C259.32,449.58 246.56,450.25 234.09,452.67C225.27,455.19 216.01,452.94 207.02,453.72C199.31,453.42 191.67,454.89 183.98,454.93C179.67,454.33 175.33,454.45 171,454.83C166.35,454.36 161.69,453.93 157,454.12C150.53,453.43 143.95,453.23 137.53,454.44C133.44,455.48 129.18,455.34 125,455.5C122.95,455.86 121.62,454.17 120.16,453.07C120.17,451.06 119.98,449.05 120.18,447.05C121.62,444.14 123.88,441.58 126.72,439.96C122.78,439.49 118.85,438.99 114.89,438.81C113.05,438.69 111.87,437.02 110.5,436.01C110.93,432.62 111.09,429.03 112.99,426.06C115.44,422.25 116.83,417.91 119.01,413.96C120.16,411.39 124.09,411.53 124.6,408.52C125.24,404.69 128.05,401.94 130.36,399.03C131.89,397.13 131.71,394.54 132.6,392.38C133.99,389 136.68,386.39 138.23,383.1C139.94,379.61 140.97,375.6 143.94,372.89C145.92,370.92 147.47,368.58 149.36,366.52C150.84,363.49 153.01,360.91 155.25,358.42C156.52,352.92 159.17,347.91 161.84,342.99C163.13,340.54 164.16,337.9 166.1,335.87C167.68,331.59 167.22,325.83 171.79,323.4C170.56,320.56 170.15,317.34 168.16,314.89C166.32,308.34 162.26,302.74 159.82,296.44C158.53,290.24 157.53,284 156.28,277.8C156.58,273.32 156.15,268.82 156.52,264.35C160.36,257.46 167.71,253.58 172.29,247.29C176.31,242.37 180.04,236.98 185.63,233.73C188.81,231.97 190.5,228.29 193.98,227C204.8,224.09 216.12,223.54 226.92,220.61C232.11,219.85 237.41,220.02 242.55,218.91C246.66,218.01 251.09,218.88 254.96,216.94C260.16,217.79 266.62,213.83 270.68,218.5C273.31,220.77 276.24,222.85 278.12,225.84C279.28,228.5 279.89,231.36 280.99,234.04C284.64,241.53 284.65,250.07 286.95,257.98C287.79,264.02 290.12,269.75 290.61,275.84C291.78,280.75 294.03,285.67 293.23,290.82C291.03,292.77 290.21,295.59 289.14,298.21C285.95,302.6 281.87,306.26 277.74,309.75C272.64,314.55 268.52,320.43 262.57,324.3C254.8,328.23 246.16,329.8 237.92,332.42C248.43,331.95 258.91,333.07 269.16,335.36C275.73,336.85 282.78,336.24 288.9,339.44C291.88,337.39 294.72,335.14 297.61,332.97C299.43,321.42 300.64,309.79 302.89,298.31C300.86,295.68 297.9,293.54 297.32,290.07C295.47,284.89 298.79,280.03 299.52,275C300.26,274.19 301.02,273.39 301.7,272.52C299.68,267.43 294.77,264.42 292.3,259.63C288.72,253.38 289.01,246.08 287.53,239.23C286.32,232.05 288.76,225 290.91,218.25C293.32,215.51 294.59,211.84 297.7,209.74C300.25,207.83 301.03,204.51 303.21,202.31M311.23,208.36C306.67,213.43 301.67,218.3 298.49,224.42C297.15,227.84 296.88,231.56 295.83,235.07C298.14,242.63 298.76,250.87 303.23,257.6C308.53,262.18 314.09,266.86 320.94,268.88C326.09,271.24 331.71,269.36 337.04,268.85C341.26,268.6 345.05,266.64 348.76,264.81C353.36,262.8 357.94,259.48 359.55,254.53C360.04,254.25 361,253.7 361.48,253.43C367.14,240.25 360.62,225.83 353.05,214.91C348.84,210.41 343.68,206.74 338.34,203.69C329.24,201.72 318.9,202.66 311.23,208.36M210.81,233.76C207.27,234.81 203.4,234.02 199.96,235.47C196.58,236.49 194.67,239.75 191.6,241.31C183.14,246.22 179.18,255.72 171.76,261.77C169.46,263.63 167.29,265.67 165.51,268.04C175.16,268.3 184.76,266.78 194.26,265.2C206.9,261.66 220.9,263.87 232.91,257.84C236.39,256.05 236.84,251.87 239.49,249.32C242.95,244.54 247.84,241.09 251.67,236.65C254.65,233 257.96,229.66 260.99,226.05C244.32,229.08 227.33,229.87 210.81,233.76M255.56,246.54C250.33,250.31 246.75,255.61 243.17,260.86C240.63,263.37 238.42,266.58 234.85,267.66C228.5,270.37 221.67,271.35 214.93,272.49C205.12,271.8 195.75,275.21 186.15,276.45C180.77,276.68 175.44,278.1 170.03,277.43C168.46,277.09 167.05,277.84 165.7,278.52C166.87,289.56 170.94,300.11 176.19,309.83C178.81,313.25 178.83,317.72 180.51,321.55C182.1,323.17 183.29,325.25 185.1,326.59C192.34,327.75 199.8,328.17 207.04,326.84C212.05,326.27 217.15,326.48 222.02,324.93C228.81,324.74 235.22,322.21 241.9,321.02C244.57,320.38 247.21,319.63 249.9,319.07C248.59,314.16 246.82,309.36 244.44,304.86C243.39,301.76 243.01,297.85 245.62,295.39C247.57,295.46 249.49,295.81 251.33,296.48C253,303.05 257.1,308.74 258.14,315.52C261.34,312.97 264.32,310.14 267.16,307.2C271.25,302.26 276.17,298.12 280.88,293.81C281.64,291.42 282.91,289.27 284.21,287.16C281.96,276.74 278.81,266.48 277.51,255.88C275.7,247.4 273.92,238.87 270.31,230.94C264.86,235.63 260.16,241.06 255.56,246.54M323.34,285.01C320.06,285.88 316.76,286.64 313.46,287.4C310.89,287.13 308.34,286.79 305.77,286.57C307.32,289.6 310.59,290.83 313.64,291.78C316.94,292.76 320.31,293.65 323.8,293.26C326.49,293.83 329.24,294.42 332,293.89C336.23,293.22 341.03,293.46 344.51,290.54C346.72,288.84 349.04,287.04 350.33,284.51C351.69,281.49 348.73,278.55 346.09,277.6C337.94,277.92 331.24,283.53 323.34,285.01M324.07,311.08C323.14,311.61 321.33,311.73 321.25,313.05C317.71,313.49 314.15,313.67 310.63,314.23C310.43,313.9 310.01,313.25 309.81,312.92C307.79,319.71 307.87,326.89 306.58,333.8C305.17,336.86 303.24,339.78 303.05,343.25C298.44,342.84 295.32,346.51 291.73,348.7C288.77,353.76 282.9,355.79 278.73,359.65C282.14,361.41 286.22,361.48 289.47,363.55C291.45,365.13 290.82,367.75 290.42,369.89C289.84,370.31 288.68,371.16 288.1,371.58C283.59,371.69 279.27,370.35 274.97,369.16C275.11,371.15 275.3,373.14 275.55,375.13C275.03,376.05 274.51,376.98 273.99,377.91C283.77,382.65 294.36,385.35 305,387.31C309.89,387.72 314.8,388.08 319.61,389.11C328.04,390.63 336.45,388.87 344.78,387.65C353.18,385.78 360.96,381.96 369.03,379.08C372.45,378.15 374.92,375.52 377.36,373.12C376.71,370.35 375.91,367.63 374.98,364.95C371.17,367.27 367.76,370.5 363.34,371.62C356.24,373.42 349.49,377.56 341.89,376.55C337.91,375.97 333.34,377.63 329.82,375.15C327.52,373.09 329.25,369.73 330.93,367.89C336.03,365.89 341.65,366.85 346.99,366.68C352.88,365.89 357.96,362.25 363.91,361.62C366.62,359.53 369.29,357.39 371.96,355.24C367.32,349.93 360.69,347.05 354.98,343.1C352.52,341.23 349.4,340.82 346.5,340.07C345.13,342.35 342.38,342.18 340.25,343.22C337.06,344.82 333.45,345.21 329.96,345.65C327.26,345.23 323.58,345.05 322.51,342C321.55,339.74 323.61,337.92 324.84,336.29C330.71,335.88 336.66,335.37 341.87,332.38C342.01,323.7 340.33,315.17 339.11,306.61C337.7,306.57 336.28,306.53 334.87,306.49C331.47,308.47 327.79,309.85 324.07,311.08M245.67,347.18C238.95,349.22 232.57,352.23 225.95,354.55C219.77,354.15 213.83,356.41 208.42,359.2C203.2,361.66 197.41,362.04 191.88,363.49C188.75,364.19 185.73,362.51 183.15,360.93C180.37,359.41 179.78,356.05 179.05,353.26C178.2,350.98 178.39,347.77 176.52,346.15C174.9,347.96 173.58,350.04 172.86,352.37C169.25,354.69 167.93,359 165.14,362.06C163.15,364.27 160.82,366.14 158.77,368.3L158.65,368.3C154.64,374.66 149.28,380.17 146.21,387.12C145.18,389.6 143.46,391.7 142.3,394.11C141.14,399.23 139.06,404.38 135.15,408.02C132.37,410.87 132.38,415.53 129.22,418.06C125.31,420.19 123.88,424.7 122.03,428.47L121.34,428.91L121.43,429.82C121.81,429.8 122.57,429.76 122.96,429.74C128.73,430.58 134.54,429.34 140.31,429.03L140.27,429.62C145.61,428.9 151.01,429 156.34,428.29C161.97,427.36 167.6,427.89 173.15,429.07C168.99,425.45 166.68,420.35 163.12,416.23L163.16,416.17C158.39,413.39 154.99,408.97 151.16,405.12C149.98,402.87 147.89,400.68 148.42,397.95C149.27,395.97 150.37,393.19 152.97,393.32C154.81,393.01 156.01,394.61 157.22,395.68C159.37,400.55 163.67,403.91 167.34,407.59C168.27,408.27 169.04,409.53 170.25,409.68C173.16,413.78 176.23,417.76 179.2,421.82C181.36,424.75 185.86,426.11 185.98,430.26C195.92,432.84 206.22,433.71 216.4,434.78C217.33,428.44 220.86,422.97 222.73,416.92C224,412.48 226.94,408.8 228.72,404.59L229.08,404.93C230.23,399.46 233.09,394.66 235.56,389.73C237.08,385.79 239.82,382.51 241.53,378.67C245.87,370.44 249.55,361.87 253.16,353.3C254.96,350.2 255.59,346.63 256.93,343.33C255.3,343.03 253.68,342.73 252.07,342.44C251.43,345.58 248.68,347.06 245.67,347.18M265.83,345.02C264.19,348.51 263.39,352.33 261.79,355.84C260.16,360.33 257.14,364.4 257.14,369.34C255.25,371.3 253.94,373.72 253.17,376.32C251.29,379.96 249.67,383.78 247.14,387.04C244.67,390.18 243.8,394.16 241.83,397.58C240.21,400.48 238.86,403.52 237.89,406.71C233.18,415.77 228.16,424.77 225.44,434.69C227.6,434.92 229.77,435.2 231.95,435.02C240.92,434.23 249.95,435.43 258.74,437.23C263.24,437.64 267.68,438.47 272.15,439.11L272.94,438.89L272.95,439.55C279.24,440.52 285.71,439.82 292.03,440.78C300.39,441.77 308.84,441.54 317.19,442.63C321.71,444.06 326.65,443.54 331.34,444.38C331.97,441.18 333.26,438.17 334.07,435.02C335.11,430.26 338.76,426.64 339.92,421.93C341.59,415.92 344.26,410.26 346.73,404.56C341.9,403.96 337.08,403.01 332.2,403.28C326.04,403.78 320.02,401.74 313.88,401.63C311.4,401.91 310.47,399.35 309.41,397.64C306.31,397.22 303.19,396.95 300.11,396.41C292.51,394.22 284.49,393.31 277.33,389.72C274.52,388.07 271.23,387.89 268.22,386.87C265.97,384.13 263.76,380.61 264.42,376.91C265.2,371.6 266.26,366.23 265.35,360.85C266.57,358.31 268.25,355.92 270.89,354.72C272.67,350.8 277.55,349.72 280.18,346.39C275.36,346.34 270.57,345.82 265.83,345.02Z" style="fill-rule:nonzero;"/>
        <path d="M200.69,246.7C203.82,242.75 209.07,239.8 214.15,241.82C217.4,242.54 217.1,246.43 218.1,248.93C214.89,252.5 210.49,254.23 206.05,255.68C204.36,255.7 202.91,254.73 201.44,254.04C201.08,251.64 199.77,249.12 200.69,246.7Z" style="fill-rule:nonzero;"/>
        <path d="M198.27,302.21C199.65,299.72 200.25,295.31 203.9,295.46C208.27,295.2 211.6,301.32 208.26,304.51C206.12,305.76 203.06,306.96 200.87,305.24C199.89,304.32 199.1,303.24 198.27,302.21Z" style="fill-rule:nonzero;"/>
        <path d="M311.23,208.36C318.9,202.66 329.24,201.72 338.34,203.69C343.68,206.74 348.84,210.41 353.05,214.91C360.62,225.83 367.14,240.25 361.48,253.43C361,253.7 360.04,254.25 359.55,254.53C357.94,259.48 353.36,262.8 348.76,264.81C345.05,266.64 341.26,268.6 337.04,268.85C331.71,269.36 326.09,271.24 320.94,268.88C314.09,266.86 308.53,262.18 303.23,257.6C298.76,250.87 298.14,242.63 295.83,235.07C296.88,231.56 297.15,227.84 298.49,224.42C301.67,218.3 306.67,213.43 311.23,208.36M317.99,211.85C313.54,212.55 310.17,216.08 307.71,219.61C305.01,225.67 304.54,232.48 304.74,239.03C305.75,241.79 308.36,243.67 310.67,245.37C312.93,247.22 316.55,246.31 318.57,244.57C321.01,239.92 322.33,234.76 323.89,229.77C325.25,225.57 328.56,222.49 331.51,219.38C332.69,218.36 332.7,216.71 333.1,215.32C331.71,213.87 330.38,212.38 329.08,210.86C325.37,210.82 321.61,210.89 317.99,211.85Z" style="fill:rgb(226,154,34);fill-rule:nonzero;"/>
        <path d="M324.07,311.08C327.79,309.85 331.47,308.47 334.87,306.49C336.28,306.53 337.7,306.57 339.11,306.61C340.33,315.17 342.01,323.7 341.87,332.38C336.66,335.37 330.71,335.88 324.84,336.29C323.61,337.92 321.55,339.74 322.51,342C323.58,345.05 327.26,345.23 329.96,345.65C333.45,345.21 337.06,344.82 340.25,343.22C342.38,342.18 345.13,342.35 346.5,340.07C349.4,340.82 352.52,341.23 354.98,343.1C360.69,347.05 367.32,349.93 371.96,355.24C369.29,357.39 366.62,359.53 363.91,361.62C357.96,362.25 352.88,365.89 346.99,366.68C341.65,366.85 336.03,365.89 330.93,367.89C329.25,369.73 327.52,373.09 329.82,375.15C333.34,377.63 337.91,375.97 341.89,376.55C349.49,377.56 356.24,373.42 363.34,371.62C367.76,370.5 371.17,367.27 374.98,364.95C375.91,367.63 376.71,370.35 377.36,373.12C374.92,375.52 372.45,378.15 369.03,379.08C360.96,381.96 353.18,385.78 344.78,387.65C336.45,388.87 328.04,390.63 319.61,389.11C314.8,388.08 309.89,387.72 305,387.31C294.36,385.35 283.77,382.65 273.99,377.91C274.51,376.98 275.03,376.05 275.55,375.13C275.3,373.14 275.11,371.15 274.97,369.16C279.27,370.35 283.59,371.69 288.1,371.58C288.68,371.16 289.84,370.31 290.42,369.89C290.82,367.75 291.45,365.13 289.47,363.55C286.22,361.48 282.14,361.41 278.73,359.65C282.9,355.79 288.77,353.76 291.73,348.7C295.32,346.51 298.44,342.84 303.05,343.25C300.03,346.83 296.88,350.33 293.17,353.21C291.5,354.7 289.08,356.38 289.68,358.97C289.61,363.1 295.11,365.67 298.32,363.26C303.71,359.84 307.21,354.21 312.42,350.56C314.22,349.05 316.97,348 317.23,345.33C318.94,334.62 320.14,323.83 321.25,313.05C321.33,311.73 323.14,311.61 324.07,311.08M304.21,369.89C304.71,372.62 307.61,373.96 310.18,373.64C311.91,372.59 312.48,370.42 313.6,368.83C312.46,366.41 310.35,364.93 307.75,364.45C306.17,365.9 303.56,367.33 304.21,369.89Z" style="fill:rgb(226,154,34);fill-rule:nonzero;"/>
        <path d="M245.67,347.18C248.68,347.06 251.43,345.58 252.07,342.44C253.68,342.73 255.3,343.03 256.93,343.33C255.59,346.63 254.96,350.2 253.16,353.3C249.55,361.87 245.87,370.44 241.53,378.67C239.82,382.51 237.08,385.79 235.56,389.73C233.09,394.66 230.23,399.46 229.08,404.93L228.72,404.59C226.48,402.51 223.59,399.9 224.6,396.48C226.57,390.71 229.59,385.37 232.02,379.79C225.82,378.96 219.66,377.83 213.56,376.44C212.82,384.25 208.74,391.04 206.31,398.36C205.01,401.96 202.28,404.79 199.47,407.3C197.57,409.36 194.54,409.22 191.97,409.51C184.73,409.71 177.48,409.17 170.25,409.68C169.04,409.53 168.27,408.27 167.34,407.59C163.67,403.91 159.37,400.55 157.22,395.68C158.37,395.35 159.53,395.03 160.69,394.71C170.91,393.65 181.16,393.06 191.43,393.26C191.56,393.03 191.83,392.57 191.96,392.34C194.19,386.94 196.97,381.69 198.05,375.9C189.07,373.48 179.56,374.69 170.63,372.2C168.3,371.82 166.88,369.88 165.48,368.19C163.24,368.2 161.01,368.26 158.77,368.3C160.82,366.14 163.15,364.27 165.14,362.06C167.93,359 169.25,354.69 172.86,352.37C174.94,352.48 177.01,352.82 179.05,353.26C179.78,356.05 180.37,359.41 183.15,360.93C185.73,362.51 188.75,364.19 191.88,363.49C197.41,362.04 203.2,361.66 208.42,359.2C218.02,359.61 227.3,362.54 236.93,362.57C241.16,358.26 242.63,352.25 245.67,347.18Z" style="fill:rgb(235,52,36);fill-rule:nonzero;"/>
        <path d="M247.14,387.04C249.67,383.78 251.29,379.96 253.17,376.32C251.71,381.83 248.56,386.69 247.11,392.2C252.29,394.65 258.19,393.85 263.54,395.66C267.2,396.8 271.09,396.8 274.83,397.62C280.58,398.65 286.05,401.2 291.96,401.26C304.98,402.23 317.57,406.09 330.47,407.74C331.04,406.25 331.62,404.76 332.2,403.28C337.08,403.01 341.9,403.96 346.73,404.56C344.26,410.26 341.59,415.92 339.92,421.93C338.76,426.64 335.11,430.26 334.07,435.02C333.26,438.17 331.97,441.18 331.34,444.38C326.65,443.54 321.71,444.06 317.19,442.63C319.93,437.35 322.08,431.81 322.85,425.88C323.15,424.96 323.55,424.08 323.69,423.13C316.95,421.32 309.9,421.23 303.12,419.63C295.76,417.68 288.09,417.47 280.67,415.83C279.59,420.26 278.26,424.66 277.75,429.22C277.74,433.06 274.32,435.53 272.94,438.89L272.15,439.11C267.68,438.47 263.24,437.64 258.74,437.23C257.32,432.52 259.37,428.03 260.96,423.69C261.73,420.06 262.32,416.39 263.52,412.88C258.81,411.26 254.02,409.67 248.99,409.61C245.09,409.63 241.41,408.24 237.89,406.71C238.86,403.52 240.21,400.48 241.83,397.58C243.8,394.16 244.67,390.18 247.14,387.04Z" style="fill:rgb(235,52,36);fill-rule:nonzero;"/>
        <path d="M151.16,405.12C154.99,408.97 158.39,413.39 163.16,416.17L163.12,416.23C160.41,419.98 158.39,424.16 156.34,428.29C151.01,429 145.61,428.9 140.27,429.62L140.31,429.03C140.35,428.54 140.43,427.56 140.46,427.07C142.56,423.1 143.12,418.41 145.88,414.79C148.14,411.85 149.47,408.38 151.16,405.12Z" style="fill:rgb(235,52,36);fill-rule:nonzero;"/>
        <path d="M317.99,211.85C321.61,210.89 325.37,210.82 329.08,210.86C330.38,212.38 331.71,213.87 333.1,215.32C332.7,216.71 332.69,218.36 331.51,219.38C328.56,222.49 325.25,225.57 323.89,229.77C322.33,234.76 321.01,239.92 318.57,244.57C316.55,246.31 312.93,247.22 310.67,245.37C308.36,243.67 305.75,241.79 304.74,239.03C304.54,232.48 305.01,225.67 307.71,219.61C310.17,216.08 313.54,212.55 317.99,211.85Z" style="fill:rgb(253,247,215);fill-rule:nonzero;"/>
        <path d="M313.46,287.4C316.76,286.64 320.06,285.88 323.34,285.01C323.49,287.76 323.66,290.51 323.8,293.26C320.31,293.65 316.94,292.76 313.64,291.78C313.57,290.32 313.51,288.86 313.46,287.4Z" style="fill:rgb(253,247,215);fill-rule:nonzero;"/>
        <path d="M310.63,314.23C314.15,313.67 317.71,313.49 321.25,313.05C320.14,323.83 318.94,334.62 317.23,345.33C316.97,348 314.22,349.05 312.42,350.56C307.21,354.21 303.71,359.84 298.32,363.26C295.11,365.67 289.61,363.1 289.68,358.97C289.08,356.38 291.5,354.7 293.17,353.21C296.88,350.33 300.03,346.83 303.05,343.25C304.56,342.07 306.13,340.97 307.69,339.86C309.08,331.37 310.09,322.8 310.63,314.23Z" style="fill:rgb(253,247,215);fill-rule:nonzero;"/>
        <path d="M255.56,246.54C260.16,241.06 264.86,235.63 270.31,230.94C273.92,238.87 275.7,247.4 277.51,255.88C278.81,266.48 281.96,276.74 284.21,287.16C282.91,289.27 281.64,291.42 280.88,293.81C276.17,298.12 271.25,302.26 267.16,307.2C264.32,310.14 261.34,312.97 258.14,315.52C257.1,308.74 253,303.05 251.33,296.48C249.49,295.81 247.57,295.46 245.62,295.39C243.97,292.12 241.73,289.14 240.53,285.67C239.78,282.22 239.16,278.68 239.33,275.14C240.15,270.27 241.95,265.63 243.17,260.86C246.75,255.61 250.33,250.31 255.56,246.54M261.28,253.59C261.65,255.55 261.28,257.8 262.56,259.48C264.45,261.01 267.43,261.03 268.8,258.81C270.9,256.74 269.45,253.82 268.6,251.54C267.92,251.29 266.57,250.8 265.89,250.55C264.21,251.34 262.67,252.37 261.28,253.59M262.58,272.63C260.65,273.82 261.73,276.34 261.7,278.15C263.52,281.21 267.43,280.56 269.58,278.22C269.57,276.23 269.28,274.26 268.61,272.39C266.63,271.98 264.2,270.76 262.58,272.63M262.16,293.2C258.57,294.9 259.77,301.66 263.94,301.59C265.79,301.88 266.96,300.2 268.26,299.22C267.71,297.43 267.43,295.57 267.26,293.72C265.61,293.46 263.68,291.96 262.16,293.2Z" style="fill:rgb(166,206,206);fill-rule:nonzero;"/>
        <path d="M262.58,272.63C264.2,270.76 266.63,271.98 268.61,272.39C269.28,274.26 269.57,276.23 269.58,278.22C267.43,280.56 263.52,281.21 261.7,278.15C261.73,276.34 260.65,273.82 262.58,272.63Z" style="fill:rgb(2,1,2);fill-rule:nonzero;"/>
        <path d="M323.34,285.01C331.24,283.53 337.94,277.92 346.09,277.6C348.73,278.55 351.69,281.49 350.33,284.51C349.04,287.04 346.72,288.84 344.51,290.54C341.03,293.46 336.23,293.22 332,293.89C329.24,294.42 326.49,293.83 323.8,293.26C323.66,290.51 323.49,287.76 323.34,285.01Z" style="fill:rgb(226,154,35);fill-rule:nonzero;"/>
        <path d="M305.77,286.57C308.34,286.79 310.89,287.13 313.46,287.4C313.51,288.86 313.57,290.32 313.64,291.78C310.59,290.83 307.32,289.6 305.77,286.57Z" style="fill:rgb(223,155,41);fill-rule:nonzero;"/>
        <path d="M262.16,293.2C263.68,291.96 265.61,293.46 267.26,293.72C267.43,295.57 267.71,297.43 268.26,299.22C266.96,300.2 265.79,301.88 263.94,301.59C259.77,301.66 258.57,294.9 262.16,293.2Z" style="fill:rgb(3,1,2);fill-rule:nonzero;"/>
        <path d="M309.81,312.92C310.01,313.25 310.43,313.9 310.63,314.23C310.09,322.8 309.08,331.37 307.69,339.86C306.13,340.97 304.56,342.07 303.05,343.25C303.24,339.78 305.17,336.86 306.58,333.8C307.87,326.89 307.79,319.71 309.81,312.92Z" style="fill:rgb(221,155,38);fill-rule:nonzero;"/>
        <path d="M265.83,345.02C270.57,345.82 275.36,346.34 280.18,346.39C277.55,349.72 272.67,350.8 270.89,354.72C268.25,355.92 266.57,358.31 265.35,360.85C266.26,366.23 265.2,371.6 264.42,376.91C263.76,380.61 265.97,384.13 268.22,386.87C271.23,387.89 274.52,388.07 277.33,389.72C284.49,393.31 292.51,394.22 300.11,396.41C303.19,396.95 306.31,397.22 309.41,397.64C310.47,399.35 311.4,401.91 313.88,401.63C320.02,401.74 326.04,403.78 332.2,403.28C331.62,404.76 331.04,406.25 330.47,407.74C317.57,406.09 304.98,402.23 291.96,401.26C286.05,401.2 280.58,398.65 274.83,397.62C271.09,396.8 267.2,396.8 263.54,395.66C258.19,393.85 252.29,394.65 247.11,392.2C248.56,386.69 251.71,381.83 253.17,376.32C253.94,373.72 255.25,371.3 257.14,369.34C257.14,364.4 260.16,360.33 261.79,355.84C263.39,352.33 264.19,348.51 265.83,345.02Z" style="fill:rgb(11,137,198);fill-rule:nonzero;"/>
        <path d="M225.95,354.55C232.57,352.23 238.95,349.22 245.67,347.18C242.63,352.25 241.16,358.26 236.93,362.57C227.3,362.54 218.02,359.61 208.42,359.2C213.83,356.41 219.77,354.15 225.95,354.55Z" style="fill:rgb(11,137,198);fill-rule:nonzero;"/>
        <path d="M158.65,368.3L158.77,368.3C161.01,368.26 163.24,368.2 165.48,368.19C166.88,369.88 168.3,371.82 170.63,372.2C179.56,374.69 189.07,373.48 198.05,375.9C196.97,381.69 194.19,386.94 191.96,392.34C181.56,393.2 170.88,391.86 160.69,394.71C159.53,395.03 158.37,395.35 157.22,395.68C156.01,394.61 154.81,393.01 152.97,393.32C150.37,393.19 149.27,395.97 148.42,397.95C147.89,400.68 149.98,402.87 151.16,405.12C149.47,408.38 148.14,411.85 145.88,414.79C143.12,418.41 142.56,423.1 140.46,427.07C140.43,427.56 140.35,428.54 140.31,429.03C134.54,429.34 128.73,430.58 122.96,429.74C122.72,429.42 122.26,428.79 122.03,428.47C123.88,424.7 125.31,420.19 129.22,418.06C132.38,415.53 132.37,410.87 135.15,408.02C139.06,404.38 141.14,399.23 142.3,394.11C143.46,391.7 145.18,389.6 146.21,387.12C149.28,380.17 154.64,374.66 158.65,368.3Z" style="fill:rgb(11,137,198);fill-rule:nonzero;"/>
        <path d="M213.56,376.44C219.66,377.83 225.82,378.96 232.02,379.79C229.59,385.37 226.57,390.71 224.6,396.48C223.59,399.9 226.48,402.51 228.72,404.59C226.94,408.8 224,412.48 222.73,416.92C220.86,422.97 217.33,428.44 216.4,434.78C206.22,433.71 195.92,432.84 185.98,430.26C185.86,426.11 181.36,424.75 179.2,421.82C176.23,417.76 173.16,413.78 170.25,409.68C177.48,409.17 184.73,409.71 191.97,409.51C194.54,409.22 197.57,409.36 199.47,407.3C202.28,404.79 205.01,401.96 206.31,398.36C208.74,391.04 212.82,384.25 213.56,376.44Z" style="fill:rgb(11,137,198);fill-rule:nonzero;"/>
        <path d="M225.44,434.69C228.16,424.77 233.18,415.77 237.89,406.71C241.41,408.24 245.09,409.63 248.99,409.61C254.02,409.67 258.81,411.26 263.52,412.88C262.32,416.39 261.73,420.06 260.96,423.69C259.37,428.03 257.32,432.52 258.74,437.23C249.95,435.43 240.92,434.23 231.95,435.02C229.77,435.2 227.6,434.92 225.44,434.69Z" style="fill:rgb(11,137,198);fill-rule:nonzero;"/>
        <path d="M280.67,415.83C288.09,417.47 295.76,417.68 303.12,419.63C309.9,421.23 316.95,421.32 323.69,423.13C323.55,424.08 323.15,424.96 322.85,425.88C322.08,431.81 319.93,437.35 317.19,442.63C308.84,441.54 300.39,441.77 292.03,440.78C285.71,439.82 279.24,440.52 272.95,439.55L272.94,438.89C274.32,435.53 277.74,433.06 277.75,429.22C278.26,424.66 279.59,420.26 280.67,415.83Z" style="fill:rgb(11,137,198);fill-rule:nonzero;"/>
        <path d="M176.52,346.15C178.39,347.77 178.2,350.98 179.05,353.26C177.01,352.82 174.94,352.48 172.86,352.37C173.58,350.04 174.9,347.96 176.52,346.15Z" style="fill:rgb(14,136,198);fill-rule:nonzero;"/>
        <path d="M304.21,369.89C303.56,367.33 306.17,365.9 307.75,364.45C310.35,364.93 312.46,366.41 313.6,368.83C312.48,370.42 311.91,372.59 310.18,373.64C307.61,373.96 304.71,372.62 304.21,369.89Z" style="fill:rgb(3,2,2);fill-rule:nonzero;"/>
        <path d="M160.69,394.71C170.88,391.86 181.56,393.2 191.96,392.34C191.83,392.57 191.56,393.03 191.43,393.26C181.16,393.06 170.91,393.65 160.69,394.71Z" style="fill:rgb(130,93,114);fill-rule:nonzero;"/>
        <path d="M156.34,428.29C158.39,424.16 160.41,419.98 163.12,416.23C166.68,420.35 168.99,425.45 173.15,429.07C167.6,427.89 161.97,427.36 156.34,428.29Z" style="fill:rgb(11,137,197);fill-rule:nonzero;"/>
        <path d="M121.34,428.91L122.03,428.47C122.26,428.79 122.72,429.42 122.96,429.74C122.57,429.76 121.81,429.8 121.43,429.82L121.34,428.91Z" style="fill:rgb(138,157,149);fill-rule:nonzero;"/>
    </g>
</svg>
