<?xml version="1.0" encoding="UTF-8" standalone="no"?>
<!DOCTYPE svg PUBLIC "-//W3C//DTD SVG 1.1//EN" "http://www.w3.org/Graphics/SVG/1.1/DTD/svg11.dtd">
<svg width="100%" height="100%" viewBox="0 0 362 882" version="1.1" xmlns="http://www.w3.org/2000/svg" xmlns:xlink="http://www.w3.org/1999/xlink" xml:space="preserve" xmlns:serif="http://www.serif.com/" style="fill-rule:evenodd;clip-rule:evenodd;stroke-linejoin:round;stroke-miterlimit:2;">
    <g transform="matrix(1,0,0,1,-2797.25,-2124.958333)">
        <g transform="matrix(4.166667,0,0,4.166667,0,0)">
            <path d="M708.63,511.14C708.99,510.86 709.71,510.28 710.07,509.99L711.2,510.66C711.06,516.51 712.52,522.2 713.13,527.98C714.34,540.89 718.81,553.17 720.88,565.93C721.79,571.66 723.28,577.29 725.09,582.8C728.13,594.07 728.13,605.99 731.9,617.09C733.73,622.54 734.94,628.25 737.68,633.36C739.07,636.32 741.35,638.73 743,641.54C743.26,643.25 741.58,643.84 740.36,644.46C737.42,645.94 734.02,645.7 730.84,645.9C735.99,650.28 743.88,646.69 749.39,650.61C758.11,654.06 760.78,666.22 755.46,673.58C753.49,675.74 750.75,677.13 747.96,677.94C740.45,679.48 732.71,680.11 725.05,679.51C729.19,693.45 732.25,707.69 736.6,721.58C735.78,721.59 734.14,721.6 733.32,721.61C728.96,707.64 725.86,693.33 721.76,679.3C721.28,679.28 720.31,679.23 719.83,679.2C718.78,679.15 717.74,679.13 716.71,679.13C703.05,678.51 689.44,680.45 675.77,680.36C679.52,685.83 681.96,693.34 688.92,695.52C691.27,695.11 693.23,693.61 695.12,692.24C699.51,688.76 703.77,685.12 708.42,681.99C709.66,683.14 709.78,684.31 708.78,685.49C704.06,689.89 697.64,692.67 694.56,698.63C689.11,705.83 685,713.89 680.29,721.56C679.65,721.58 678.37,721.62 677.74,721.64C678.02,718.54 680.08,716.07 681.49,713.43C684.52,708.62 687,703.45 690.55,698.98C684.99,699.05 680.67,694.65 677.88,690.28C675.81,686.79 673.67,683.35 671.34,680.02C671.45,677.53 674.35,677.73 676.13,677.2C681.9,676.75 687.72,676.76 693.49,677.29C690.84,676.18 688.66,674.37 686.58,672.45C684.65,672.08 682.66,672.36 680.72,672.22C680.43,669.01 681.87,666.07 682.8,663.09C684.38,658.54 684.95,653.73 686.09,649.07C682.9,648.94 679.86,647.97 676.85,647.02C676.76,644.21 678.68,641.95 679.51,639.4C681.17,634.78 682.13,629.9 684.51,625.56C687.1,620.69 688.32,615.3 690.05,610.11C691.49,605.68 694.2,601.74 695.12,597.13C696.94,589.06 700.9,581.62 702.26,573.43C704.8,559.14 706.56,544.71 707.25,530.21C707.69,523.86 707.58,517.43 708.63,511.14M709.42,544.84C708.01,555.92 706.87,567.04 704.53,577.97C702.71,584.74 699.77,591.17 698.13,598.01C697.26,601.85 695.53,605.4 693.9,608.97C692.11,612.83 691.37,617.05 689.89,621.03C688.32,625.51 685.71,629.56 684.41,634.15C683.63,636.9 682.72,639.62 681.73,642.31C681.33,643.14 680.93,643.97 680.54,644.82C689.89,646.93 699.57,646.46 709.07,645.92C717.29,644.79 725.45,643.13 733.72,642.26L734.22,641.77L734.23,641.01C734.43,641.27 734.83,641.79 735.03,642.06C736.41,642.29 737.83,642.18 739.28,641.71C732.92,634.14 731.11,624.25 727.93,615.18C724.78,603.08 724.76,590.3 720.55,578.45C717.46,566.53 715.71,554.29 712.34,542.43C711.1,538.24 710.71,533.86 710.47,529.52C710.12,534.62 709.63,539.74 709.42,544.84M723.35,646.99C723.09,649.7 723.28,652.71 721.42,654.94C720.6,655 718.95,655.12 718.12,655.18C718.67,652.71 719.09,650.17 718.84,647.64C716.63,648.01 714.44,648.44 712.25,648.91C712.52,651.1 712.17,653.26 711.35,655.31C710.54,655.48 709.74,655.69 708.97,655.93C708.63,655.74 707.94,655.34 707.6,655.15C708.08,653.25 708.21,651.3 708.11,649.36C705.78,649.48 703.45,649.65 701.12,649.73C700.95,651.18 700.77,652.63 700.58,654.09C698.22,660.31 696.7,668.39 689.75,671.1C693.14,673.84 697.44,675.02 701.66,675.7C717.03,676.32 732.62,677.78 747.81,674.61C751.56,673.89 754.19,670.86 754.88,667.19C746.49,667.25 738.32,664.59 730.93,660.77C731.49,659.93 732.02,659.06 732.52,658.18C739.75,661.31 747.37,663.93 755.34,664C751.17,660.97 745.79,660.27 741.54,657.34C741.3,656.79 740.83,655.69 740.59,655.14C741.13,654.98 742.22,654.68 742.76,654.53C746.53,655.79 749.93,658.07 753.81,659.14C751.33,654.46 746.12,651.79 740.91,651.86C736.31,651.27 730.21,651.85 727.84,646.87L727.75,646.34C726.28,646.56 724.81,646.78 723.35,646.99M689.18,649.6C688.84,650.99 688.54,652.42 688.25,653.83C687.78,656.75 687.17,659.65 686.14,662.43C685.48,664.73 684.72,667 683.99,669.29C685.02,668.51 686.04,667.71 687.04,666.89C687.36,667.23 687.98,667.92 688.29,668.26C693.89,666.42 694.8,659.98 697.05,655.35C697.43,653.5 697.78,651.64 698.12,649.79C695.14,649.64 692.16,649.59 689.18,649.6Z" style="fill-rule:nonzero;"/>
        </g>
        <g transform="matrix(4.166667,0,0,4.166667,0,0)">
            <path d="M709.42,544.84C709.63,539.74 710.12,534.62 710.47,529.52C710.71,533.86 711.1,538.24 712.34,542.43C715.71,554.29 717.46,566.53 720.55,578.45C724.76,590.3 724.78,603.08 727.93,615.18C731.11,624.25 732.92,634.14 739.28,641.71C737.83,642.18 736.41,642.29 735.03,642.06C734.83,641.79 734.43,641.27 734.23,641.01C731.47,634.05 728.52,627.17 726.14,620.06C722.39,606.45 718.8,592.79 715.76,579C713.9,567.56 711.23,556.28 709.42,544.84Z" style="fill:rgb(255,252,228);fill-rule:nonzero;"/>
        </g>
        <g transform="matrix(4.166667,0,0,4.166667,0,0)">
            <path d="M727.84,646.87C730.21,651.85 736.31,651.27 740.91,651.86C746.12,651.79 751.33,654.46 753.81,659.14C749.93,658.07 746.53,655.79 742.76,654.53C742.22,654.68 741.13,654.98 740.59,655.14C738.02,654.09 735.35,653.32 732.63,652.88C731.13,651.8 729.7,650.67 728.28,649.52C728.17,648.85 727.95,647.53 727.84,646.87Z" style="fill:rgb(255,252,228);fill-rule:nonzero;"/>
        </g>
        <g transform="matrix(4.166667,0,0,4.166667,0,0)">
            <path d="M704.53,577.97C706.87,567.04 708.01,555.92 709.42,544.84C711.23,556.28 713.9,567.56 715.76,579C718.8,592.79 722.39,606.45 726.14,620.06C724.12,615.38 723.65,609.62 718.71,606.92C717.68,607.98 716.28,609.04 716.56,610.72C717.09,617.38 720.06,623.53 721.67,629.96C716.12,626.41 712.07,620.96 706.37,617.67C704.8,616.48 701.82,616.43 701.71,618.95C702.49,624.99 704.38,630.84 705.38,636.85C700.9,634.16 696.64,630.75 691.44,629.57C689.42,628.96 687.69,630.99 688.01,632.95C688.94,636.34 690.69,639.44 691.98,642.71C688.56,642.75 685.14,642.58 681.73,642.31C682.72,639.62 683.63,636.9 684.41,634.15C685.71,629.56 688.32,625.51 689.89,621.03C691.37,617.05 692.11,612.83 693.9,608.97C695.53,605.4 697.26,601.85 698.13,598.01C699.77,591.17 702.71,584.74 704.53,577.97Z" style="fill:rgb(237,53,37);fill-rule:nonzero;"/>
        </g>
        <g transform="matrix(4.166667,0,0,4.166667,0,0)">
            <path d="M716.56,610.72C716.28,609.04 717.68,607.98 718.71,606.92C723.65,609.62 724.12,615.38 726.14,620.06C728.52,627.17 731.47,634.05 734.23,641.01L734.22,641.77L733.72,642.26C725.45,643.13 717.29,644.79 709.07,645.92C699.57,646.46 689.89,646.93 680.54,644.82C680.93,643.97 681.33,643.14 681.73,642.31C685.14,642.58 688.56,642.75 691.98,642.71C690.69,639.44 688.94,636.34 688.01,632.95C687.69,630.99 689.42,628.96 691.44,629.57C696.64,630.75 700.9,634.16 705.38,636.85C704.38,630.84 702.49,624.99 701.71,618.95C701.82,616.43 704.8,616.48 706.37,617.67C712.07,620.96 716.12,626.41 721.67,629.96C720.06,623.53 717.09,617.38 716.56,610.72Z" style="fill:rgb(167,32,20);fill-rule:nonzero;"/>
        </g>
        <g transform="matrix(4.166667,0,0,4.166667,0,0)">
            <path d="M723.35,646.99C724.81,646.78 726.28,646.56 727.75,646.34L727.84,646.87C727.95,647.53 728.17,648.85 728.28,649.52C729.7,650.67 731.13,651.8 732.63,652.88C728.84,653.25 725.1,653.98 721.42,654.94C723.28,652.71 723.09,649.7 723.35,646.99Z" style="fill:rgb(133,119,153);fill-rule:nonzero;"/>
        </g>
        <g transform="matrix(4.166667,0,0,4.166667,0,0)">
            <path d="M712.25,648.91C714.44,648.44 716.63,648.01 718.84,647.64C719.09,650.17 718.67,652.71 718.12,655.18C715.86,655.13 713.59,655.15 711.35,655.31C712.17,653.26 712.52,651.1 712.25,648.91Z" style="fill:rgb(133,119,153);fill-rule:nonzero;"/>
        </g>
        <g transform="matrix(4.166667,0,0,4.166667,0,0)">
            <path d="M689.18,649.6C692.16,649.59 695.14,649.64 698.12,649.79C697.78,651.64 697.43,653.5 697.05,655.35C694.06,655.22 691.08,654.82 688.25,653.83C688.54,652.42 688.84,650.99 689.18,649.6Z" style="fill:rgb(133,119,153);fill-rule:nonzero;"/>
        </g>
        <g transform="matrix(4.166667,0,0,4.166667,0,0)">
            <path d="M701.12,649.73C703.45,649.65 705.78,649.48 708.11,649.36C708.21,651.3 708.08,653.25 707.6,655.15C705.3,654.55 702.93,654.33 700.58,654.09C700.77,652.63 700.95,651.18 701.12,649.73Z" style="fill:rgb(133,119,153);fill-rule:nonzero;"/>
        </g>
        <g transform="matrix(4.166667,0,0,4.166667,0,0)">
            <path d="M732.63,652.88C735.35,653.32 738.02,654.09 740.59,655.14C740.83,655.69 741.3,656.79 741.54,657.34C745.79,660.27 751.17,660.97 755.34,664C747.37,663.93 739.75,661.31 732.52,658.18C732.02,659.06 731.49,659.93 730.93,660.77C738.32,664.59 746.49,667.25 754.88,667.19C754.19,670.86 751.56,673.89 747.81,674.61C732.62,677.78 717.03,676.32 701.66,675.7C697.44,675.02 693.14,673.84 689.75,671.1C696.7,668.39 698.22,660.31 700.58,654.09C702.93,654.33 705.3,654.55 707.6,655.15C707.94,655.34 708.63,655.74 708.97,655.93C709.74,655.69 710.54,655.48 711.35,655.31C713.59,655.15 715.86,655.13 718.12,655.18C718.95,655.12 720.6,655 721.42,654.94C725.1,653.98 728.84,653.25 732.63,652.88M706.25,656.46C701.48,656.95 697.81,662.6 699.76,667.08C702,671.4 708.3,671.5 711.91,668.94C713.99,667.07 715.73,663.67 713.93,661.06C712.52,658.15 709.5,656.27 706.25,656.46Z" style="fill:rgb(251,225,166);fill-rule:nonzero;"/>
        </g>
        <g transform="matrix(4.166667,0,0,4.166667,0,0)">
            <path d="M688.25,653.83C691.08,654.82 694.06,655.22 697.05,655.35C694.8,659.98 693.89,666.42 688.29,668.26C690.3,665.32 695.22,661.23 691.12,657.86C689.43,659.35 687.76,660.87 686.14,662.43C687.17,659.65 687.78,656.75 688.25,653.83Z" style="fill:rgb(251,225,166);fill-rule:nonzero;"/>
        </g>
        <g transform="matrix(4.166667,0,0,4.166667,0,0)">
            <path d="M706.25,656.46C709.5,656.27 712.52,658.15 713.93,661.06C715.73,663.67 713.99,667.07 711.91,668.94C708.3,671.5 702,671.4 699.76,667.08C697.81,662.6 701.48,656.95 706.25,656.46Z" style="fill:rgb(247,143,139);fill-rule:nonzero;"/>
        </g>
        <g transform="matrix(4.166667,0,0,4.166667,0,0)">
            <path d="M686.14,662.43C687.76,660.87 689.43,659.35 691.12,657.86C695.22,661.23 690.3,665.32 688.29,668.26C687.98,667.92 687.36,667.23 687.04,666.89C686.04,667.71 685.02,668.51 683.99,669.29C684.72,667 685.48,664.73 686.14,662.43Z" style="fill:rgb(247,143,139);fill-rule:nonzero;"/>
        </g>
        <g transform="matrix(4.166667,0,0,4.166667,0,0)">
            <path d="M675.77,680.36C689.44,680.45 703.05,678.51 716.71,679.13C712.98,685.28 708.51,691.02 705.73,697.72C702.34,705.76 698.07,713.41 695.02,721.6C690.11,721.57 685.2,721.65 680.29,721.56C685,713.89 689.11,705.83 694.56,698.63C697.64,692.67 704.06,689.89 708.78,685.49C709.78,684.31 709.66,683.14 708.42,681.99C703.77,685.12 699.51,688.76 695.12,692.24C693.23,693.61 691.27,695.11 688.92,695.52C681.96,693.34 679.52,685.83 675.77,680.36M688.57,684.35C690.01,686.41 691.78,688.24 693.94,689.58C697.79,687.21 701.48,684.58 705.12,681.9C699.49,681.64 693.98,682.99 688.57,684.35Z" style="fill:rgb(199,112,29);fill-rule:nonzero;"/>
        </g>
        <g transform="matrix(4.166667,0,0,4.166667,0,0)">
            <path d="M716.71,679.13C717.74,679.13 718.78,679.15 719.83,679.2C723.01,693.39 726.03,707.63 730.13,721.6L695.02,721.6C698.07,713.41 702.34,705.76 705.73,697.72C708.51,691.02 712.98,685.28 716.71,679.13Z" style="fill:rgb(252,178,63);fill-rule:nonzero;"/>
        </g>
        <g transform="matrix(4.166667,0,0,4.166667,0,0)">
            <path d="M688.57,684.35C693.98,682.99 699.49,681.64 705.12,681.9C701.48,684.58 697.79,687.21 693.94,689.58C691.78,688.24 690.01,686.41 688.57,684.35Z" style="fill:rgb(252,178,63);fill-rule:nonzero;"/>
        </g>
        <g transform="matrix(4.166667,0,0,4.166667,0,0)">
            <path d="M719.83,679.2C720.31,679.23 721.28,679.28 721.76,679.3C725.86,693.33 728.96,707.64 733.32,721.61C732.52,721.61 730.93,721.6 730.13,721.6C726.03,707.63 723.01,693.39 719.83,679.2Z" style="fill:rgb(255,246,182);fill-rule:nonzero;"/>
        </g>
    </g>
</svg>
