<?xml version="1.0" encoding="UTF-8" standalone="no"?>
<!DOCTYPE svg PUBLIC "-//W3C//DTD SVG 1.1//EN" "http://www.w3.org/Graphics/SVG/1.1/DTD/svg11.dtd">
<svg width="100%" height="100%" viewBox="0 0 118 115" version="1.1" xmlns="http://www.w3.org/2000/svg" xmlns:xlink="http://www.w3.org/1999/xlink" xml:space="preserve" xmlns:serif="http://www.serif.com/" style="fill-rule:evenodd;clip-rule:evenodd;stroke-linecap:round;stroke-linejoin:round;stroke-miterlimit:1.5;">
    <g transform="matrix(1,0,0,1,-829.137383,-181.1378)">
        <g transform="matrix(1,0,0,1,-119.501,0.6798)">
            <path d="M981.504,224.05L1060.58,224.05" style="fill:none;fill-rule:nonzero;stroke:black;stroke-width:6.38px;"/>
        </g>
        <g transform="matrix(1,0,0,1,-119.501,0.6798)">
            <path d="M981.484,225.627C980.646,252.839 977.436,266.936 998.908,276.557C1009.98,281.52 1035.85,283.685 1048.98,273.847C1057.7,267.322 1064.57,261.286 1062.47,225.615" style="fill:none;fill-rule:nonzero;stroke:black;stroke-width:6.38px;"/>
        </g>
        <g transform="matrix(1,0,0,1,-119.501,0.6798)">
            <path d="M979.784,229.581C961.155,231.037 950.088,230.916 952.053,255.987C953.366,272.729 971.2,272.36 989.732,271.982" style="fill:none;fill-rule:nonzero;stroke:black;stroke-width:6.38px;"/>
        </g>
        <g transform="matrix(1,0,0,1,-119.501,0.6798)">
            <path d="M979.434,241.921C974.518,241.931 965.876,241.175 965.384,251.795C964.934,261.505 975.718,259.842 981.182,259.348" style="fill:none;fill-rule:nonzero;stroke:black;stroke-width:6.38px;"/>
        </g>
        <g transform="matrix(1,0,0,1,-119.501,0.6798)">
            <path d="M1007.89,280.879C1005.2,285.267 1003.64,287.351 1000.7,291.407L1047.47,291.407L1036.74,280.677" style="fill:none;fill-rule:nonzero;stroke:black;stroke-width:6.38px;"/>
        </g>
        <g transform="matrix(1,0,0,1,-119.501,0.6798)">
            <path d="M1021.34,183.964C1020.64,187.169 1018.52,209.893 989.077,221.721" style="fill:none;fill-rule:nonzero;stroke:black;stroke-width:6.38px;"/>
        </g>
        <g transform="matrix(1,0,0,1,-119.501,0.6798)">
            <path d="M1022.11,183.648C1023.07,192.617 1027.63,202.695 1031.78,207.504C1035.21,211.472 1039.68,215.959 1054.8,222.089" style="fill:none;fill-rule:nonzero;stroke:black;stroke-width:6.38px;"/>
        </g>
        <g transform="matrix(1,0,0,1,-119.501,0.6798)">
            <g transform="matrix(1.00904,0,0,1,-3.89114,-2.99503)">
                <path d="M1021.24,245.105C1016.21,244.64 1014.26,246.635 1013.91,250.525C1013.64,253.449 1014.52,257.623 1021.42,257.155" style="fill:none;fill-rule:nonzero;stroke:black;stroke-width:7.04px;"/>
            </g>
        </g>
        <g transform="matrix(1,0,0,1,-119.501,0.6798)">
            <path d="M1036.46,263.185C1038.87,270.002 1045.16,271.435 1050.5,271.465" style="fill:none;fill-rule:nonzero;stroke:black;stroke-width:6.38px;"/>
        </g>
    </g>
</svg>
