<?xml version="1.0" encoding="UTF-8" standalone="no"?>
<!DOCTYPE svg PUBLIC "-//W3C//DTD SVG 1.1//EN" "http://www.w3.org/Graphics/SVG/1.1/DTD/svg11.dtd">
<svg width="100%" height="100%" viewBox="0 0 110 109" version="1.1" xmlns="http://www.w3.org/2000/svg" xmlns:xlink="http://www.w3.org/1999/xlink" xml:space="preserve" xmlns:serif="http://www.serif.com/" style="fill-rule:evenodd;clip-rule:evenodd;stroke-linecap:round;stroke-linejoin:round;stroke-miterlimit:1.5;">
    <g transform="matrix(1,0,0,1,-283.624805,-198.113606)">
        <g transform="matrix(1.02073,0,0,1.02144,-329.539,0.721414)">
            <path d="M648.55,205.66C650.237,205.452 651.955,205.345 653.698,205.345C676.778,205.345 695.516,224.084 695.516,247.164C695.516,252.598 694.477,257.792 692.588,262.557M658.911,288.66C657.203,288.873 655.463,288.982 653.698,288.982C630.618,288.982 611.879,270.244 611.879,247.164C611.879,234.037 617.941,222.314 627.415,214.645M667.464,286.271L668.084,285.929M695.499,276.317C686.251,288.568 670.568,297.236 654.05,297.236C626.097,297.236 603.402,274.541 603.402,246.587C603.402,218.633 626.097,195.938 654.05,195.938M668.407,218.835C665.477,251.121 667.803,251.542 663.597,263.546C660.887,271.278 652.084,273.602 646.628,271.196C642.273,269.277 642.327,269.049 637.618,268.5C633.109,267.975 629.924,261.77 635.907,257.606C641.746,253.542 637.849,247.838 647.844,241.806C652.514,238.988 653.286,235.719 656.809,226.768C658.624,230.17 658.565,230.968 658.385,240.393C660.034,237.785 661.257,235.549 668.407,218.835ZM650.816,266.399C650.373,267.101 649.752,268.192 647.644,270.239M652.849,252.27C649.643,250.68 648.482,253.643 648.299,255.427C648.031,258.033 650.395,260.171 652.004,258.975" style="fill:none;stroke:black;stroke-width:5.38px;"/>
        </g>
        <g transform="matrix(1.12182,0,0,1.12981,-52.3403,-39.9637)">
            <path d="M354.451,213.373C359.183,213.863 363.701,215.079 367.891,216.907M367.891,216.907C383.99,223.932 395.254,239.996 395.254,258.671C395.254,266.125 393.459,273.163 390.279,279.377" style="fill:none;stroke:black;stroke-width:4.23px;"/>
        </g>
    </g>
</svg>
