<?xml version="1.0" encoding="UTF-8" standalone="no"?>
<!DOCTYPE svg PUBLIC "-//W3C//DTD SVG 1.1//EN" "http://www.w3.org/Graphics/SVG/1.1/DTD/svg11.dtd">
<svg width="100%" height="100%" viewBox="0 0 66 101" version="1.1" xmlns="http://www.w3.org/2000/svg" xmlns:xlink="http://www.w3.org/1999/xlink" xml:space="preserve" xmlns:serif="http://www.serif.com/" style="fill-rule:evenodd;clip-rule:evenodd;stroke-linecap:round;stroke-linejoin:round;stroke-miterlimit:1.5;">
    <g transform="matrix(1,0,0,1,-1546.339528,-196.541956)">
        <g transform="matrix(0.893275,0,0,0.893275,-178.383,56.5223)">
            <g transform="matrix(0.771176,0.382527,-0.593805,1.19711,887.93,-696.154)">
                <path d="M1604.68,268.385L1572.1,266.933L1576.9,232.668L1608.93,232.774L1604.68,268.385C1603.04,271.485 1597.01,277.005 1594.52,281.653C1589.76,290.55 1585.67,298.258 1585.67,297.229C1585.67,295.397 1582.39,284.566 1577.19,276.308" style="fill:white;stroke:black;stroke-width:6.13px;"/>
            </g>
        </g>
        <g transform="matrix(0.893275,0,0,0.893275,-178.383,56.5223)">
            <g transform="matrix(1.24732,0,0,1.24732,-1.46837,-104.898)">
                <path d="M1573.2,241.617C1581.69,245.538 1581.5,245.852 1590.06,249.707" style="fill:none;fill-rule:nonzero;stroke:black;stroke-width:5.53px;"/>
            </g>
        </g>
        <g transform="matrix(0.893275,0,0,0.893275,-178.383,56.5223)">
            <g transform="matrix(1.37448,0,0,1.58319,-185.966,-218.074)">
                <path d="M1569.36,250.096C1570.61,250.66 1581.42,255.526 1585.06,257.102" style="fill:none;fill-rule:nonzero;stroke:black;stroke-width:4.65px;"/>
            </g>
        </g>
        <g transform="matrix(0.893275,0,0,0.893275,-178.383,56.5223)">
            <g transform="matrix(1.24732,0,0,1.24732,-4.5584,-99.8024)">
                <path d="M1594.25,265.933C1605.88,248.415 1609.13,244.7 1598.93,238.901" style="fill:none;fill-rule:nonzero;stroke:black;stroke-width:5.53px;"/>
            </g>
        </g>
        <g transform="matrix(0.893275,0,0,0.893275,-178.383,56.5223)">
            <g transform="matrix(1.00173,0.506462,-0.562789,1.11314,483.877,-856.84)">
                <path d="M1620.79,202.419L1597.66,202.419C1596.49,200.389 1595.87,198.085 1595.87,195.74C1595.87,188.368 1601.85,182.383 1609.23,182.383C1616.6,182.383 1622.58,188.368 1622.58,195.74C1622.58,198.085 1621.97,200.389 1620.79,202.419Z" style="fill:none;stroke:black;stroke-width:5.01px;"/>
            </g>
        </g>
        <g transform="matrix(0.893275,0,0,0.893275,-178.383,56.5223)">
            <g transform="matrix(1.21632,0.276353,-0.364707,1.6052,100.543,-574.572)">
                <path d="M1597.73,217.633C1591.65,217.005 1591.26,222.611 1596.99,223.678" style="fill:none;fill-rule:nonzero;stroke:black;stroke-width:4.07px;"/>
            </g>
        </g>
    </g>
</svg>
