<?xml version="1.0" encoding="UTF-8" standalone="no"?>
<!DOCTYPE svg PUBLIC "-//W3C//DTD SVG 1.1//EN" "http://www.w3.org/Graphics/SVG/1.1/DTD/svg11.dtd">
<svg width="100%" height="100%" viewBox="0 0 91 102" version="1.1" xmlns="http://www.w3.org/2000/svg" xmlns:xlink="http://www.w3.org/1999/xlink" xml:space="preserve" xmlns:serif="http://www.serif.com/" style="fill-rule:evenodd;clip-rule:evenodd;stroke-linecap:round;stroke-linejoin:round;stroke-miterlimit:1.5;">
    <g transform="matrix(1,0,0,1,-952.555475,-193.846865)">
        <g transform="matrix(1,0,0,1,-150.643,2.40858)">
            <path d="M1190.31,236.965L1190.31,272.368C1190.31,282.138 1182.38,290.07 1172.61,290.07L1137.21,290.07C1115.19,290.07 1095.67,285.958 1113.11,265.523L1119.01,258.613L1119.5,236.965C1119.5,217.569 1127.44,219.263 1137.21,219.263L1172.61,219.263C1182.38,219.263 1190.31,217.857 1190.31,236.965ZM1119.57,248.475L1187.54,248.475M1156.36,221.585C1155.71,238.766 1156.11,244.111 1155.18,258.186L1155.18,288.195M1143.56,258.086C1135.75,257.665 1135.26,267.16 1143.28,267.216M1144.67,279.274C1144.02,282.19 1139.64,288.493 1135.06,289.651M1155.18,219.562C1154.13,219.492 1134.25,220.188 1131.9,207.062C1129.85,195.634 1155.4,184.216 1156.01,211.369C1156.03,212.326 1156.01,212.31 1155.92,216.731C1162.33,182.413 1184.48,196.045 1182.17,206.916C1182.06,207.441 1180.52,212.87 1173.49,216.636C1166.6,220.334 1156.66,219.662 1155.18,219.562Z" style="fill:none;stroke:black;stroke-width:6.38px;"/>
        </g>
    </g>
</svg>
