<?xml version="1.0" encoding="UTF-8" standalone="no"?>
<!DOCTYPE svg PUBLIC "-//W3C//DTD SVG 1.1//EN" "http://www.w3.org/Graphics/SVG/1.1/DTD/svg11.dtd">
<svg width="100%" height="100%" viewBox="0 0 75 102" version="1.1" xmlns="http://www.w3.org/2000/svg" xmlns:xlink="http://www.w3.org/1999/xlink" xml:space="preserve" xmlns:serif="http://www.serif.com/" style="fill-rule:evenodd;clip-rule:evenodd;stroke-linecap:round;stroke-linejoin:round;stroke-miterlimit:1.5;">
    <g transform="matrix(1,0,0,1,-1218.878542,-194.458749)">
        <g transform="matrix(-0.879545,-0,0,-0.879545,2554.78,454.559)">
            <g id="Layer8">
                <path d="M1437.66,261.068C1437.6,246.606 1449.87,233.983 1467.32,230.545L1480.45,183.289L1488.72,231.224C1504.56,235.437 1515.26,247.33 1515.32,260.767C1515.38,278.024 1498.04,292.103 1476.61,292.186C1455.18,292.269 1437.73,278.325 1437.66,261.068ZM1477.67,241.191C1477.56,243.973 1477.67,241.191 1477.67,241.191L1477.67,258.358M1475.39,266.505C1479.63,266.147 1482.59,268.219 1482.51,270.442C1482.4,273.076 1480.96,276.107 1475.05,275.506" style="fill:none;stroke:black;stroke-width:7.07px;"/>
            </g>
        </g>
    </g>
</svg>
