<?xml version="1.0" encoding="UTF-8" standalone="no"?>
<!DOCTYPE svg PUBLIC "-//W3C//DTD SVG 1.1//EN" "http://www.w3.org/Graphics/SVG/1.1/DTD/svg11.dtd">
<svg width="100%" height="100%" viewBox="0 0 86 95" version="1.1" xmlns="http://www.w3.org/2000/svg" xmlns:xlink="http://www.w3.org/1999/xlink" xml:space="preserve" xmlns:serif="http://www.serif.com/" style="fill-rule:evenodd;clip-rule:evenodd;stroke-linecap:round;stroke-linejoin:round;stroke-miterlimit:1.5;">
    <g transform="matrix(1,0,0,1,-1047.855455,-200.7524)">
        <g transform="matrix(0.889181,0,0,0.889181,-104.492,33.7402)">
            <g transform="matrix(1,0,0,1,0.090579,-3.13693)">
                <path d="M1373.83,209.452L1373.83,278.144C1373.83,286.44 1367.09,293.176 1358.8,293.176L1313.7,293.176L1313.7,224.484C1313.7,216.188 1320.44,209.452 1328.73,209.452L1373.83,209.452Z" style="fill:none;stroke:black;stroke-width:7.07px;"/>
            </g>
        </g>
        <g transform="matrix(0.889181,0,0,0.889181,-104.492,33.7402)">
            <path d="M1346.89,218.782C1340,218.713 1338.72,229.335 1346.79,229.416" style="fill:none;fill-rule:nonzero;stroke:black;stroke-width:7.07px;"/>
        </g>
        <g transform="matrix(0.889181,0,0,0.889181,-104.492,33.7402)">
            <path d="M1326.69,240.844L1328.29,240.9" style="fill:none;fill-rule:nonzero;stroke:black;stroke-width:7.07px;"/>
        </g>
        <g transform="matrix(0.889181,0,0,0.889181,-104.492,33.7402)">
            <g transform="matrix(1,0,0,1,-0.233155,11.4091)">
                <path d="M1326.69,240.844L1328.29,240.9" style="fill:none;fill-rule:nonzero;stroke:black;stroke-width:7.07px;"/>
            </g>
        </g>
        <g transform="matrix(0.889181,0,0,0.889181,-104.492,33.7402)">
            <g transform="matrix(1,0,0,1,-0.233155,22.4064)">
                <path d="M1326.69,240.844L1328.29,240.9" style="fill:none;fill-rule:nonzero;stroke:black;stroke-width:7.07px;"/>
            </g>
        </g>
        <g transform="matrix(0.889181,0,0,0.889181,-104.492,33.7402)">
            <g transform="matrix(1,0,0,1,-0.233155,33.4038)">
                <path d="M1326.69,240.844L1328.29,240.9" style="fill:none;fill-rule:nonzero;stroke:black;stroke-width:7.07px;"/>
            </g>
        </g>
        <g transform="matrix(0.889181,0,0,0.889181,-104.492,33.7402)">
            <path d="M1338.22,241.297L1338.44,241.309L1359.87,241.309" style="fill:none;fill-rule:nonzero;stroke:black;stroke-width:7.07px;"/>
        </g>
        <g transform="matrix(0.889181,0,0,0.889181,-104.492,33.7402)">
            <g transform="matrix(1,0,0,1,-0.233155,11.4091)">
                <path d="M1338.22,241.297L1338.44,241.309L1359.87,241.309" style="fill:none;fill-rule:nonzero;stroke:black;stroke-width:7.07px;"/>
            </g>
        </g>
        <g transform="matrix(0.889181,0,0,0.889181,-104.492,33.7402)">
            <g transform="matrix(1,0,0,1,-0.233155,22.4064)">
                <path d="M1338.22,241.297L1338.44,241.309L1359.87,241.309" style="fill:none;fill-rule:nonzero;stroke:black;stroke-width:7.07px;"/>
            </g>
        </g>
        <g transform="matrix(0.889181,0,0,0.889181,-104.492,33.7402)">
            <g transform="matrix(1,0,0,1,-0.233155,33.4038)">
                <path d="M1338.22,241.297L1338.44,241.309L1359.87,241.309" style="fill:none;fill-rule:nonzero;stroke:black;stroke-width:7.07px;"/>
            </g>
        </g>
        <g transform="matrix(0.889181,0,0,0.889181,-104.492,33.7402)">
            <path d="M1376.18,222.76C1390.98,217.233 1390.98,200.475 1382.32,191.362" style="fill:none;fill-rule:nonzero;stroke:black;stroke-width:7.07px;"/>
        </g>
        <g transform="matrix(0.889181,0,0,0.889181,-104.492,33.7402)">
            <path d="M1329.97,204.328C1332.05,198.187 1331.67,195.146 1327.96,192.642" style="fill:none;fill-rule:nonzero;stroke:black;stroke-width:7.07px;"/>
        </g>
        <g transform="matrix(0.889181,0,0,0.889181,-104.492,33.7402)">
            <path d="M1328.55,191.514L1328.79,191.542L1379.81,191.542" style="fill:none;fill-rule:nonzero;stroke:black;stroke-width:7.07px;"/>
        </g>
        <g transform="matrix(0.889181,0,0,0.889181,-104.492,33.7402)">
            <path d="M1335.01,289.981C1330.89,289.756 1330.92,289.833 1326.81,289.974L1299.5,289.974" style="fill:none;fill-rule:nonzero;stroke:black;stroke-width:7.07px;"/>
        </g>
        <g transform="matrix(0.889181,0,0,0.889181,-104.492,33.7402)">
            <path d="M1373.75,206.764C1375.63,207.295 1382.35,208.338 1382.25,218.271" style="fill:none;fill-rule:nonzero;stroke:black;stroke-width:7.07px;"/>
        </g>
    </g>
</svg>
