<?xml version="1.0" encoding="UTF-8" standalone="no"?>
<!DOCTYPE svg PUBLIC "-//W3C//DTD SVG 1.1//EN" "http://www.w3.org/Graphics/SVG/1.1/DTD/svg11.dtd">
<svg width="100%" height="100%" viewBox="0 0 69 95" version="1.1" xmlns="http://www.w3.org/2000/svg" xmlns:xlink="http://www.w3.org/1999/xlink" xml:space="preserve" xmlns:serif="http://www.serif.com/" style="fill-rule:evenodd;clip-rule:evenodd;stroke-linecap:round;stroke-linejoin:round;stroke-miterlimit:1.5;">
    <g transform="matrix(1,0,0,1,-1141.764359,-201.057388)">
        <g transform="matrix(0.964987,0,0,0.969246,-700.885,3.4378)">
            <path d="M1947.55,251.697C1949.91,251.697 1951.84,253.626 1951.84,256.002C1951.84,258.379 1949.91,260.308 1947.55,260.308C1945.18,260.308 1943.26,258.379 1943.26,256.002C1943.26,253.626 1945.18,251.697 1947.55,251.697ZM1977.08,219.434L1977.08,285.893C1977.08,292.047 1972.09,297.043 1965.93,297.043L1943.63,297.043C1937.48,297.043 1932.48,292.047 1932.48,285.893L1932.48,219.434C1932.48,213.28 1937.48,208.285 1943.63,208.285L1965.93,208.285C1972.09,208.285 1977.08,213.28 1977.08,219.434ZM1976.27,216.127L1976.27,288.856C1976.27,293.597 1972.42,297.446 1967.68,297.446L1921.76,297.446C1917.02,297.446 1913.17,293.597 1913.17,288.856L1913.17,216.127C1913.17,211.386 1917.02,207.537 1921.76,207.537L1967.68,207.537C1972.42,207.537 1976.27,211.386 1976.27,216.127Z" style="fill:none;stroke:black;stroke-width:7.31px;"/>
        </g>
    </g>
</svg>
