<?xml version="1.0" encoding="UTF-8" standalone="no"?>
<!DOCTYPE svg PUBLIC "-//W3C//DTD SVG 1.1//EN" "http://www.w3.org/Graphics/SVG/1.1/DTD/svg11.dtd">
<svg width="100%" height="100%" viewBox="0 0 92 119" version="1.1" xmlns="http://www.w3.org/2000/svg" xmlns:xlink="http://www.w3.org/1999/xlink" xml:space="preserve" xmlns:serif="http://www.serif.com/" style="fill-rule:evenodd;clip-rule:evenodd;stroke-linecap:round;stroke-linejoin:round;stroke-miterlimit:1.5;">
    <g transform="matrix(1,0,0,1,-192.021756,-189.631699)">
        <g transform="matrix(0.952052,0,0,0.952052,-579.644,58.5627)">
            <path d="M870.488,190.85C877.507,192.152 883.765,194.731 888.881,198.281C897.781,204.457 903.228,213.575 903.228,224.039C903.228,243.421 883.174,259.157 858.474,259.157C833.773,259.157 813.719,243.421 813.719,224.039C813.719,208.574 827.352,196.048 845.411,191.616M867.618,194.915C867.66,194.511 868.895,192.825 870.488,190.85C872.79,187.996 875.836,184.538 877.099,183.472C879.794,181.198 885.282,179.181 886.036,178.904C852.341,169.758 857.321,144.566 858.054,140.86M847.384,194.551C847.277,193.522 840.175,185.151 838.184,183.472C835.489,181.198 830.001,179.181 829.248,178.904C862.942,169.758 857.962,144.566 857.23,140.86" style="fill:none;stroke:black;stroke-width:6.38px;"/>
        </g>
        <g transform="matrix(0.952052,0,0,0.952052,-579.644,58.5627)">
            <path d="M846.521,236.299C848.597,234.428 860.793,223.432 879.336,224.302C891.977,224.894 886.662,239.198 861.26,245.062C850.345,247.581 845.996,244.726 844.9,244.006C840.468,241.098 846.229,236.591 846.521,236.299Z" style="fill:none;stroke:black;stroke-width:6.38px;"/>
        </g>
        <g transform="matrix(0.952052,0,0,0.952052,-579.644,58.5627)">
            <path d="M845.964,207.759C846.347,208.206 848.715,212.662 857.093,213.491C864.267,214.2 867.7,209.838 869.415,207.126" style="fill:none;stroke:black;stroke-width:6.38px;"/>
        </g>
    </g>
</svg>
