<?xml version="1.0" encoding="UTF-8" standalone="no"?>
<!DOCTYPE svg PUBLIC "-//W3C//DTD SVG 1.1//EN" "http://www.w3.org/Graphics/SVG/1.1/DTD/svg11.dtd">
<svg width="100%" height="100%" viewBox="0 0 69 110" version="1.1" xmlns="http://www.w3.org/2000/svg" xmlns:xlink="http://www.w3.org/1999/xlink" xml:space="preserve" xmlns:serif="http://www.serif.com/" style="fill-rule:evenodd;clip-rule:evenodd;stroke-linecap:round;stroke-linejoin:round;stroke-miterlimit:1.5;">
    <g transform="matrix(1,0,0,1,-1293.515945,-186.108745)">
        <g transform="matrix(0.836982,0,0,0.836982,-18.9987,46.8776)">
            <g transform="matrix(-0.756158,0.078835,-0.097675,-1.02063,2830.09,329.262)">
                <path d="M1553.26,210.884C1553.1,209.969 1557.29,210.021 1557.29,209.096C1557.29,204.168 1558.72,199.112 1561.53,194.601C1566.43,186.721 1575.52,180.504 1588.46,179.542C1605.1,178.304 1615.92,184.339 1615.92,184.339C1615.92,184.339 1632.01,185.623 1632.01,194.448C1632.01,201.631 1623.43,200.22 1621.47,203.722C1617.69,210.469 1618.21,215.554 1618.21,215.554M1636.14,217.26C1629.8,216.144 1627.42,216.098 1623.66,217.483C1620.87,218.512 1604.84,228.311 1599.95,234.061C1587.64,248.519 1578.66,266.383 1575.81,277.872C1577.8,256.203 1567.1,211.347 1538.77,210.163L1553.72,210.908C1553,209.396 1621.74,216.94 1621.47,215.369" style="fill:none;stroke:black;stroke-width:7.87px;"/>
            </g>
        </g>
        <g transform="matrix(0.836982,0,0,0.836982,-18.9987,46.8776)">
            <g transform="matrix(0.982719,0,0,1.02571,29.539,-8.48612)">
                <path d="M1602.29,263.8C1600.36,268.301 1599.41,269.116 1595.84,271.042" style="fill:none;fill-rule:nonzero;stroke:black;stroke-width:7.04px;"/>
            </g>
        </g>
        <g transform="matrix(0.836982,0,0,0.836982,-18.9987,46.8776)">
            <g transform="matrix(0.982719,0,0,1.02571,29.539,-8.48612)">
                <path d="M1603.91,246.081C1599.14,248.71 1600.35,254.534 1606.34,254.967" style="fill:none;fill-rule:nonzero;stroke:black;stroke-width:7.04px;"/>
            </g>
        </g>
        <g transform="matrix(0.836982,0,0,0.836982,-18.9987,46.8776)">
            <path d="M1605.85,280.881C1616.4,281.094 1625.33,285.097 1629.38,293.13" style="fill:none;fill-rule:nonzero;stroke:black;stroke-width:7.07px;"/>
        </g>
        <g transform="matrix(0.836982,0,0,0.836982,-18.9987,46.8776)">
            <path d="M1629.05,294.052C1616.89,293.533 1615.02,293.558 1613.8,293.574L1582.03,293.574" style="fill:none;fill-rule:nonzero;stroke:black;stroke-width:7.07px;"/>
        </g>
        <g transform="matrix(0.836982,0,0,0.836982,-18.9987,46.8776)">
            <path d="M1581.45,292.61C1582.78,290.756 1580.07,294.401 1581.45,292.61C1586.27,284.23 1594.01,279.966 1605.29,280.7" style="fill:none;fill-rule:nonzero;stroke:black;stroke-width:7.07px;"/>
        </g>
    </g>
</svg>
