<?xml version="1.0" encoding="UTF-8" standalone="no"?>
<!DOCTYPE svg PUBLIC "-//W3C//DTD SVG 1.1//EN" "http://www.w3.org/Graphics/SVG/1.1/DTD/svg11.dtd">
<svg width="100%" height="100%" viewBox="0 0 96 119" version="1.1" xmlns="http://www.w3.org/2000/svg" xmlns:xlink="http://www.w3.org/1999/xlink" xml:space="preserve" xmlns:serif="http://www.serif.com/" style="fill-rule:evenodd;clip-rule:evenodd;stroke-linecap:round;stroke-linejoin:round;stroke-miterlimit:1.5;">
    <g transform="matrix(1,0,0,1,-93.079154,-191.170717)">
        <g transform="matrix(0.952052,0,0,0.952052,-674.152,60.1398)">
            <path d="M873.993,191.622C881.012,192.924 883.765,194.731 888.881,198.281C897.781,204.457 903.228,213.575 903.228,224.039C903.228,243.421 883.174,259.157 858.474,259.157C833.773,259.157 813.719,243.421 813.719,224.039C813.719,208.574 824.53,197.13 842.588,192.698M872.669,195.949C872.711,195.545 872.855,192.772 873.258,190.267C873.945,185.988 875.836,184.538 877.099,183.472C879.794,181.198 885.282,179.181 886.036,178.904C852.341,169.758 857.321,144.566 858.054,140.86M843.874,196.479C843.767,195.45 841.087,188.186 838.481,185.223C836.152,182.575 830.001,179.181 829.248,178.904C862.942,169.758 857.962,144.566 857.23,140.86" style="fill:none;stroke:black;stroke-width:6.46px;"/>
        </g>
        <g transform="matrix(0.952052,0,0,0.952052,-674.152,60.1398)">
            <g transform="matrix(1.05036,0,0,1.05036,-56.1697,-350.098)">
                <path d="M861.208,507.276C863.334,510.061 865.907,513.119 869.191,521.555C871.845,517.586 872.737,511.352 878.855,507.024" style="fill:none;fill-rule:nonzero;stroke:black;stroke-width:6.15px;"/>
            </g>
        </g>
        <g transform="matrix(0.952052,0,0,0.952052,-674.152,60.1398)">
            <g transform="matrix(1.05036,0,0,1.05036,-56.1697,-350.098)">
                <path d="M824.611,505.784C824.233,474.606 872.921,471.197 869.777,515.129" style="fill:none;stroke:black;stroke-width:6.15px;"/>
            </g>
        </g>
        <g transform="matrix(0.952052,0,0,0.952052,-674.152,60.1398)">
            <g transform="matrix(1.05036,0,0,1.05036,-56.1697,-350.098)">
                <path d="M823.901,513.56C823.91,513.488 823.918,513.417 823.927,513.345" style="fill:none;stroke:black;stroke-width:6.15px;"/>
            </g>
        </g>
        <g transform="matrix(0.952052,0,0,0.952052,-674.152,60.1398)">
            <g transform="matrix(1.05036,0,0,1.05036,-56.1697,-350.098)">
                <path d="M823.901,513.56C823.859,511.261 823.662,515.591 823.901,513.56Z" style="fill:none;stroke:black;stroke-width:6.15px;"/>
            </g>
        </g>
        <g transform="matrix(0.952052,0,0,0.952052,-674.152,60.1398)">
            <path d="M846.521,236.299C848.597,234.428 860.793,223.432 879.336,224.302C891.977,224.894 886.662,239.198 861.26,245.062C850.345,247.581 845.996,244.726 844.9,244.006C840.468,241.098 846.229,236.591 846.521,236.299Z" style="fill:none;stroke:black;stroke-width:6.38px;"/>
        </g>
        <g transform="matrix(0.952052,0,0,0.952052,-674.152,60.1398)">
            <path d="M845.964,207.759C846.347,208.206 848.715,212.662 857.093,213.491C864.267,214.2 867.7,209.838 869.415,207.126" style="fill:none;stroke:black;stroke-width:6.38px;"/>
        </g>
    </g>
</svg>
