<?xml version="1.0" encoding="UTF-8" standalone="no"?>
<!DOCTYPE svg PUBLIC "-//W3C//DTD SVG 1.1//EN" "http://www.w3.org/Graphics/SVG/1.1/DTD/svg11.dtd">
<svg width="100%" height="100%" viewBox="0 0 101 101" version="1.1" xmlns="http://www.w3.org/2000/svg" xmlns:xlink="http://www.w3.org/1999/xlink" xml:space="preserve" xmlns:serif="http://www.serif.com/" style="fill-rule:evenodd;clip-rule:evenodd;stroke-linecap:round;stroke-linejoin:round;stroke-miterlimit:1.5;">
    <g transform="matrix(1,0,0,1,-1363.942138,-199.672132)">
        <g transform="matrix(1.13277,0,0,1.13277,-572.885,-38.145)">
            <path d="M1754.39,212.786C1756.51,212.805 1758.32,214.301 1758.75,216.375C1759.08,217.915 1759.38,219.4 1759.38,219.4C1761.93,219.791 1764.44,220.461 1766.84,221.399C1766.84,221.399 1767.9,220.211 1768.97,219.005C1770.33,217.471 1772.58,217.093 1774.37,218.096C1774.59,218.234 1774.82,218.365 1775.05,218.499C1776.87,219.574 1777.7,221.778 1777.03,223.787C1776.54,225.284 1776.06,226.723 1776.06,226.723C1778.08,228.337 1779.91,230.169 1781.52,232.184C1781.52,232.184 1783.03,231.683 1784.56,231.174C1786.51,230.526 1788.64,231.322 1789.69,233.085C1789.82,233.317 1789.95,233.545 1790.08,233.775C1791.12,235.618 1790.74,237.939 1789.15,239.346C1787.98,240.398 1786.85,241.405 1786.85,241.405C1787.79,243.811 1788.45,246.312 1788.85,248.865C1788.85,248.865 1790.4,249.185 1791.98,249.51C1793.99,249.922 1795.44,251.678 1795.47,253.729C1795.46,253.993 1795.46,254.256 1795.46,254.52C1795.44,256.638 1793.95,258.455 1791.87,258.881C1790.33,259.207 1788.85,259.512 1788.85,259.512C1788.45,262.064 1787.79,264.566 1786.85,266.972C1786.85,266.972 1788.04,268.028 1789.24,269.099C1790.78,270.461 1791.15,272.707 1790.15,274.495C1790.01,274.721 1789.88,274.95 1789.75,275.177C1788.67,277.001 1786.47,277.827 1784.46,277.159C1782.96,276.671 1781.52,276.193 1781.52,276.193C1779.91,278.208 1778.08,280.04 1776.06,281.654C1776.06,281.654 1776.56,283.162 1777.07,284.693C1777.72,286.639 1776.92,288.773 1775.16,289.821C1774.93,289.947 1774.7,290.08 1774.47,290.21C1772.63,291.252 1770.31,290.866 1768.9,289.282C1767.85,288.111 1766.84,286.978 1766.84,286.978C1764.44,287.916 1761.93,288.586 1759.38,288.977C1759.38,288.977 1759.06,290.533 1758.74,292.114C1758.33,294.123 1756.57,295.573 1754.52,295.599C1754.25,295.592 1753.99,295.593 1753.73,295.591C1751.61,295.572 1749.79,294.076 1749.37,292.002C1749.04,290.462 1748.74,288.977 1748.74,288.977C1746.18,288.586 1743.68,287.916 1741.27,286.978C1741.27,286.978 1740.22,288.166 1739.15,289.372C1737.79,290.906 1735.54,291.284 1733.75,290.281C1733.53,290.143 1733.3,290.012 1733.07,289.878C1731.25,288.803 1730.42,286.599 1731.09,284.59C1731.58,283.093 1732.05,281.654 1732.05,281.654C1730.04,280.04 1728.21,278.208 1726.59,276.193C1726.59,276.193 1725.08,276.694 1723.55,277.203C1721.61,277.851 1719.47,277.055 1718.42,275.292C1718.3,275.06 1718.17,274.832 1718.04,274.602C1716.99,272.759 1717.38,270.438 1718.96,269.031C1720.13,267.979 1721.27,266.972 1721.27,266.972C1720.33,264.566 1719.66,262.064 1719.27,259.512C1719.27,259.512 1717.71,259.192 1716.13,258.867C1714.12,258.455 1712.67,256.699 1712.65,254.648C1712.65,254.384 1712.65,254.121 1712.66,253.857C1712.67,251.739 1714.17,249.922 1716.25,249.496C1717.79,249.17 1719.27,248.865 1719.27,248.865C1719.66,246.312 1720.33,243.811 1721.27,241.405C1721.27,241.405 1720.08,240.349 1718.87,239.278C1717.34,237.916 1716.96,235.67 1717.97,233.881C1718.1,233.656 1718.24,233.427 1718.37,233.2C1719.44,231.375 1721.65,230.55 1723.66,231.218C1725.15,231.706 1726.59,232.184 1726.59,232.184C1728.21,230.169 1730.04,228.337 1732.05,226.723C1732.05,226.723 1731.55,225.215 1731.04,223.684C1730.4,221.738 1731.19,219.603 1732.95,218.556C1733.19,218.429 1733.41,218.297 1733.64,218.167C1735.49,217.125 1737.81,217.511 1739.22,219.095C1740.27,220.266 1741.27,221.399 1741.27,221.399C1743.68,220.461 1746.18,219.791 1748.74,219.4C1748.74,219.4 1749.05,217.844 1749.38,216.263C1749.79,214.254 1751.55,212.804 1753.6,212.778C1753.86,212.784 1754.13,212.784 1754.39,212.786ZM1768.77,245.15C1770.39,247.78 1771.33,250.876 1771.33,254.188C1771.33,263.719 1763.59,271.456 1754.06,271.456C1744.53,271.456 1736.79,263.719 1736.79,254.188C1736.79,244.658 1744.53,236.921 1754.06,236.921" style="fill:none;stroke:black;stroke-width:5.67px;"/>
        </g>
        <g transform="matrix(1.12624,0.121423,-0.121423,1.12624,-141.354,-208.791)">
            <path d="M1409.28,250.404C1408.39,250.77 1408.4,250.726 1407.55,251.179C1404.29,252.906 1403.06,260.396 1411.08,259.25" style="fill:none;fill-rule:nonzero;stroke:black;stroke-width:6.15px;"/>
        </g>
    </g>
</svg>
