<?xml version="1.0" encoding="UTF-8" standalone="no"?>
<!DOCTYPE svg PUBLIC "-//W3C//DTD SVG 1.1//EN" "http://www.w3.org/Graphics/SVG/1.1/DTD/svg11.dtd">
<svg width="100%" height="100%" viewBox="0 0 61 101" version="1.1" xmlns="http://www.w3.org/2000/svg" xmlns:xlink="http://www.w3.org/1999/xlink" xml:space="preserve" xmlns:serif="http://www.serif.com/" style="fill-rule:evenodd;clip-rule:evenodd;stroke-linecap:round;stroke-linejoin:round;stroke-miterlimit:1.5;">
    <g transform="matrix(1,0,0,1,-1474.11788,-195.919785)">
        <g transform="matrix(1.01072,0,0,1.01072,-18.8419,13.0602)">
            <path d="M1480.2,225.512L1494.35,240.499M1534.25,225.773L1534.25,277.145L1480.2,277.145L1480.2,225.512M1520.08,241.053L1534.25,225.773" style="fill:none;stroke:black;stroke-width:6.15px;"/>
        </g>
        <g transform="matrix(0.879663,0,0,0.879663,185.644,25.7595)">
            <path d="M1499.53,274.669C1499.5,274.598 1499.3,274.205 1499.47,273.693L1499.47,216.935" style="fill:none;fill-rule:nonzero;stroke:black;stroke-width:7.32px;"/>
        </g>
        <g transform="matrix(1.01072,0,0,1.01072,-10.8658,-2.67167)">
            <path d="M1498.67,217.057C1498.2,218.278 1497.66,219.629 1497.07,221.135C1493.09,231.163 1484.14,236.996 1483.86,237.187C1482.75,237.952 1481.59,237.728 1481.39,237.689C1481.37,237.686 1479.28,236.303 1479.28,236.294C1479.11,235.474 1478.62,234.655 1478.78,233.834C1479.12,232.079 1479.49,232.247 1480.93,231.185C1482.11,230.309 1488.15,225.721 1490.94,218.684C1496.01,205.894 1496.08,205.499 1495.85,200.482C1495.85,200.44 1495.54,198.59 1496.87,197.352C1498.62,195.721 1502.04,196.356 1502.41,199.559C1502.67,201.81 1502.37,207.108 1503.04,210.003C1503.95,213.915 1508.56,222.051 1513.04,227.071C1516.17,230.58 1518.61,232.017 1518.66,232.083C1519.13,232.771 1519.87,233.366 1520.03,234.189C1520.03,234.205 1519.52,236.663 1519.52,236.668C1517.25,238.154 1516.98,238.948 1514.75,237.407C1513.05,236.226 1505.48,230.989 1498.67,217.057Z"/>
        </g>
        <g transform="matrix(1.11783,0,0,1.11783,-168.159,-33.7751)">
            <path d="M1497.8,276.733C1492.1,276.308 1492.42,284.248 1497.98,283.489" style="fill:white;fill-rule:nonzero;"/>
            <path d="M1500.07,283.204C1500.19,284.044 1500.17,284.085 1499.65,284.76C1498.64,286.09 1496.2,285.57 1495.9,285.507C1490.07,284.263 1490.09,275.705 1496.23,274.701C1496.8,274.608 1497.35,274.6 1497.77,274.622C1499.52,274.716 1499.35,275.222 1499.9,276.88C1499.9,276.888 1499.18,278.31 1499.17,278.32C1498.36,279.021 1498.24,278.761 1497.17,278.827C1495.28,278.943 1495.47,281.004 1496.65,281.356C1497.14,281.501 1497.7,281.401 1497.7,281.402C1499.13,281.785 1499.15,281.742 1499.25,281.82C1499.92,282.331 1499.94,282.37 1500.07,283.204Z"/>
        </g>
    </g>
</svg>
