<?xml version="1.0" encoding="UTF-8" standalone="no"?>
<!DOCTYPE svg PUBLIC "-//W3C//DTD SVG 1.1//EN" "http://www.w3.org/Graphics/SVG/1.1/DTD/svg11.dtd">
<svg width="100%" height="100%" viewBox="0 0 104 91" version="1.1" xmlns="http://www.w3.org/2000/svg" xmlns:xlink="http://www.w3.org/1999/xlink" xml:space="preserve" xmlns:serif="http://www.serif.com/" style="fill-rule:evenodd;clip-rule:evenodd;stroke-linejoin:round;stroke-miterlimit:2;">
    <g transform="matrix(1,0,0,1,-713.597515,-205.846402)">
        <g transform="matrix(1.19567,0,0,1.152,-107.682,-40.4961)">
            <path d="M772.437,232.757C772.986,233.008 773.713,233.66 773.715,234.719C773.718,236.141 773.746,250.605 773.672,252.499C773.201,264.519 769.552,270.753 768.378,272.779C757.679,291.241 734.7,293.885 721.371,291.198C704.306,287.759 693.133,275.395 688.615,264.236C686.349,258.642 686.95,252.024 686.951,246.134C686.953,234.558 686.917,234.555 686.982,234.173C687.111,233.416 687.592,232.996 687.678,232.922C687.763,232.847 687.853,232.784 687.947,232.729C688.071,232.513 688.245,232.288 688.482,232.107C689.539,231.305 689.726,231.704 714.18,231.611C714.637,226.832 716.709,216.638 728.17,214.261C732.451,213.373 737.408,214.043 739.052,214.832C747.905,219.085 749.079,227.464 749.459,231.479C756.482,231.451 763.505,231.425 770.528,231.403C771.562,231.4 772.201,232.182 772.437,232.757ZM718.337,235.867L692.422,237.368C692.417,244.236 692.449,244.233 692.347,251.098C692.239,258.263 692.759,260.857 695.462,265.782C701.322,276.46 713.696,286.768 731.5,286.395C750.207,286.004 763.853,276.388 767.193,260.635C767.85,257.536 768.244,253.883 768.245,250.301C768.247,237.303 768.22,237.302 768.245,237.09C768.323,236.412 768.496,235.971 768.711,235.634C732.028,235.774 721.652,235.973 718.337,235.867ZM736.681,219.953C732.183,218.967 724.537,219.096 721.301,225.766C720.299,227.831 719.882,229.952 719.689,231.591C727.783,231.565 735.877,231.533 743.971,231.501C743.778,229.688 743.361,227.21 742.193,225.069C740.479,221.926 738.098,220.65 736.681,219.953ZM708.366,247.871C708.859,247.544 709.311,247.155 709.804,246.827C709.876,246.779 711.29,246.111 712.338,247.479C712.65,247.885 719.668,258.903 731.859,258.988C737.833,259.03 744.649,256.019 749.099,248.113C749.133,248.052 749.588,246.931 750.698,246.718C751.404,246.583 751.97,246.901 752.068,246.956C752.189,247.024 753.305,247.651 753.554,247.857C754.114,248.319 754.659,249.377 754.056,250.555C754.026,250.614 752.585,253.357 750.434,255.857C738.867,269.298 719.478,267.124 708.065,251.033C708.055,251.019 707.399,250.264 707.552,249.252C707.612,248.853 707.849,248.42 707.915,248.339C708.053,248.172 708.228,248.039 708.366,247.871Z"/>
        </g>
    </g>
</svg>
