<?xml version="1.0" encoding="UTF-8" standalone="no"?>
<!DOCTYPE svg PUBLIC "-//W3C//DTD SVG 1.1//EN" "http://www.w3.org/Graphics/SVG/1.1/DTD/svg11.dtd">
<svg width="100%" height="100%" viewBox="0 0 2959 5871" version="1.1" xmlns="http://www.w3.org/2000/svg" xmlns:xlink="http://www.w3.org/1999/xlink" xml:space="preserve" xmlns:serif="http://www.serif.com/" style="fill-rule:evenodd;clip-rule:evenodd;stroke-linejoin:round;stroke-miterlimit:2;">
    <g id="_-9060ddff" serif:id="#9060ddff" transform="matrix(4.166667,0,0,4.166667,0,0)">
        <path d="M493.38,393.71C494.75,405.1 495.24,416.58 496.12,428.01C496.54,439.49 497.37,451.06 495.69,462.48C495.17,473.63 494.31,484.78 494.61,495.95C494.27,508.4 493.83,520.85 493.46,533.29C494.13,544.2 493.04,555.14 494.3,566.02C494.61,571.95 494.66,577.91 495.42,583.82C495.26,590.9 496.39,598.14 494.46,605.09C493.11,609.32 494.83,613.71 494.06,618.02C492.56,629.21 492.94,640.59 490.78,651.7C490.29,659.27 490.79,666.89 489.58,674.43C489.26,674.58 488.62,674.88 488.3,675.02C486.83,665.73 488.31,656.3 487.09,646.98C486.15,641.36 487.19,635.61 486.02,630.02C485.31,627 485.75,623.92 486.1,620.89C486.75,614.86 483.89,609.05 484.72,603.03C485.72,596.63 484.66,590.18 484.24,583.78C484.09,571.85 484.41,559.92 484.82,548C486.2,532.36 484.95,516.65 485.99,501.01C488,488.04 489.37,474.96 490.69,461.9C492.56,449.01 493.4,435.97 493.44,422.95C493.91,413.2 492.89,403.46 493.38,393.71Z" style="fill:rgb(144,96,221);fill-rule:nonzero;"/>
        <path d="M240.61,644.54C246.93,636.38 252.94,627.92 260.15,620.51C261.07,622.29 261.82,624.15 262.3,626.12C260.68,627.93 258.9,629.59 257.27,631.41C253.75,635.14 252,640.08 249.09,644.24C245.61,649.2 244.2,655.19 241.42,660.52C238.81,665.38 238.94,671.02 237.44,676.21C235.71,681.28 235.59,686.63 235.04,691.9C234.22,696.43 234.05,701.05 233.62,705.63C229.19,708.91 224.86,712.4 221.42,716.75C211.08,724.57 201.5,734.74 198.2,747.63C195.14,753.59 190.86,759.23 190.07,766.07C189.26,763.98 188.96,761.66 189.73,759.52C191.33,754.8 192.07,749.81 194.18,745.27C197.66,737.28 202.1,729.54 208.44,723.46C213.01,717.69 218.77,713.08 224.11,708.07C225.85,706.46 227.32,704.37 227.49,701.93C228.07,694.32 228.35,686.7 228.86,679.08C229.03,674.56 231.3,670.47 231.64,665.97C232.24,658.1 235.8,650.7 240.61,644.54Z" style="fill:rgb(144,96,221);fill-rule:nonzero;"/>
        <path d="M195.66,797.71C204.61,806.84 215.88,814.27 228.59,816.8C231.12,817.33 233.72,817.44 236.3,817.65C241.62,821.76 248.66,822.04 254.9,823.91C262.6,825.57 269.4,829.75 276.88,832.06C280.46,833.21 283.83,834.9 287.03,836.86C292.5,840.34 299.07,841.27 304.83,844.12C312.31,847.81 320.7,848.76 328.46,851.63C321.67,851.66 315.23,849.12 308.78,847.32C300.56,844.61 291.91,842.92 284.29,838.65C276.39,834.28 267.83,831.23 259.05,829.18C242.16,826.5 225.4,821.8 210.24,813.77C203.75,810.34 197.47,805.15 195.66,797.71Z" style="fill:rgb(144,96,221);fill-rule:nonzero;"/>
        <path d="M488.7,1023.43C489.73,1021.06 491.06,1018.86 492.28,1016.6C492.5,1019.64 491.38,1023.63 494.33,1025.71C496.37,1027.8 499.39,1027.2 501.99,1027.01L502.57,1027.12L502.74,1027.44C502.1,1027.59 500.83,1027.9 500.2,1028.05C498.39,1028.85 497.83,1031.45 495.66,1031.59C491.37,1032.32 487.13,1027.65 488.7,1023.43Z" style="fill:rgb(255,0,0);fill-rule:nonzero;"/>
    </g>
    <g id="_-5c3896ff" serif:id="#5c3896ff">
    </g>
    <g id="_-493994ff" serif:id="#493994ff" transform="matrix(4.166667,0,0,4.166667,0,0)">
        <path d="M474,339.99C478.89,337.38 485.13,337.3 489.99,340.05C493.18,341.87 496.64,343.21 499.76,345.14C502.73,347.35 502.38,351.47 503.59,354.61C505.18,357.02 507.64,358.99 508.09,362.01C510.47,372.19 507.56,382.78 509.79,392.99C509.97,396.94 508.89,400.88 509.7,404.85C508.23,409.77 508.03,414.85 507.76,419.94C506.25,428.11 507.67,436.45 506.58,444.66C506.18,447.79 505.18,450.84 505.02,454.01C505.08,457.03 506.13,460.07 505.34,463.08C503,472.96 505.41,483.41 502.31,493.14C501.34,498.03 502.52,503.05 501.8,507.98C500.84,514.25 500.58,520.62 500.91,526.96C500.88,534.67 498.48,542.21 498.93,549.96C499.39,554.78 497,559.37 497.65,564.17C498.06,568.45 497.3,572.72 497.16,576.99C496.91,579.64 497.24,582.55 495.61,584.86L495.42,583.82C494.66,577.91 494.61,571.95 494.3,566.02C493.04,555.14 494.13,544.2 493.46,533.29C493.83,520.85 494.27,508.4 494.61,495.95C494.31,484.78 495.17,473.63 495.69,462.48C497.37,451.06 496.54,439.49 496.12,428.01C495.24,416.58 494.75,405.1 493.38,393.71C492.57,386.83 492.66,379.36 488.71,373.36C487.27,371.19 485.94,368.77 483.74,367.28C478.7,365.6 473.23,367.02 468.9,369.85C460.62,374.19 457.95,383.79 453.02,391.04C448.12,397.79 449.3,406.73 446.05,414.13C442.04,422.24 439.8,431.04 436.28,439.36C432.03,448.8 427.71,458.22 424.13,467.95C422.54,474.74 418.11,480.27 415.46,486.63C413.46,477.95 412.97,468.85 409.51,460.54C407.62,456.09 404.01,452.68 400.29,449.73C396.87,446.88 392.15,448.88 388.73,450.68C385.06,452.33 383.58,456.25 381.18,459.19C373.1,467.95 372.28,480.54 366.72,490.7C363.87,495.72 361.92,501.16 360.12,506.63C357.99,510.61 355.99,514.65 354.1,518.75C352.47,516.79 353.62,514.41 354.33,512.36C358.8,501.61 362.79,490.68 366.73,479.74C369.07,474.07 370.55,468.06 373.41,462.61C375.41,458.78 376.33,454.42 378.86,450.87C381.5,447.22 383.85,443.3 387.22,440.25C389.93,438.12 390.07,433.78 393.6,432.58C398.51,430.48 403.64,433.8 407.7,436.37C410.62,437.95 411.86,441.12 413.05,444.02C415.84,450.09 416.28,457.2 420.38,462.64C421.28,464.09 422.61,461.76 422.85,460.9C425.66,454.1 427.3,446.92 429.84,440.04C430.82,433.97 434.39,428.84 436.06,423.01C440.44,411.83 442.21,399.89 445.53,388.39C447.03,385.29 449.35,382.63 450.51,379.35C454.31,370.51 454.78,360.05 461.81,352.85C466.15,348.82 469.01,343.32 474,339.99Z" style="fill:rgb(73,57,148);fill-rule:nonzero;"/>
    </g>
    <g id="_-d12e82ff" serif:id="#d12e82ff" transform="matrix(4.166667,0,0,4.166667,0,0)">
        <path d="M468.9,369.85C473.23,367.02 478.7,365.6 483.74,367.28C485.94,368.77 487.27,371.19 488.71,373.36C492.66,379.36 492.57,386.83 493.38,393.71C492.89,403.46 493.91,413.2 493.44,422.95C493.4,435.97 492.56,449.01 490.69,461.9C489.37,474.96 488,488.04 485.99,501.01C484.95,516.65 486.2,532.36 484.82,548C484.41,559.92 484.09,571.85 484.24,583.78L483.15,585.39C483.67,581.37 482.03,577.44 482.7,573.45C483.91,566.68 482.78,559.77 483.76,552.98C485.02,544.42 483.53,535.78 484.36,527.2C485.12,521.54 483.72,515.83 484.69,510.19C486.05,500.9 484.84,491.46 486.27,482.19C486.79,478.48 484.95,474.86 485.81,471.17C487,463.51 487.23,455.75 486.49,448.05C487.35,437.44 488.06,426.83 487.95,416.22C484.95,406.36 488.22,395.8 484.97,385.99C484.22,382.99 482.1,380.04 478.95,379.35C475.94,378.96 472.7,379.54 470.11,381.16C467.58,383.5 466.54,386.91 464.83,389.82C463.51,391.98 461.18,393.55 460.65,396.16C459.66,399.83 459.12,403.74 456.98,406.97C453.03,413.05 451.25,420.18 450.01,427.24C448.1,434.13 445.53,440.85 442.49,447.32C441.34,450.26 442.03,453.64 440.6,456.5C436.65,464.26 431.45,471.34 428.07,479.39C426.4,483.44 424.29,487.28 421.93,490.96C421.73,495.93 418.41,499.94 416.29,504.24C412.75,508.11 409.94,512.64 405.96,516.11C405.46,517.15 404.97,518.22 404.47,519.28C404.71,506.82 402.07,494.56 401.46,482.14C401.33,478.11 398.87,474.65 396.17,471.86C392.77,468.76 387.61,471.13 384.85,473.95C382.23,477.34 378.27,480.99 379.84,485.72C376.65,492.01 373.15,498.25 371.91,505.29C368.67,512.09 367.16,519.61 363.44,526.21C360.52,531.25 359.23,537.11 355.91,541.94C353.79,545 352.41,548.46 350.88,551.83C344.59,560.18 337.26,567.64 330.8,575.85C328.87,578.28 326.58,580.45 323.83,581.92C315.59,586.64 308.89,593.55 300.71,598.35C304.53,592.13 310.24,587.46 315.26,582.27C317.83,579.52 322.09,578.55 323.68,574.91C325.72,570.71 329.47,567.74 331.77,563.71C338.98,552.13 346.98,540.92 352.01,528.16C354.7,520.98 358.65,514.21 360.12,506.63C361.92,501.16 363.87,495.72 366.72,490.7C372.28,480.54 373.1,467.95 381.18,459.19C383.58,456.25 385.06,452.33 388.73,450.68C392.15,448.88 396.87,446.88 400.29,449.73C404.01,452.68 407.62,456.09 409.51,460.54C412.97,468.85 413.46,477.95 415.46,486.63C418.11,480.27 422.54,474.74 424.13,467.95C427.71,458.22 432.03,448.8 436.28,439.36C439.8,431.04 442.04,422.24 446.05,414.13C449.3,406.73 448.12,397.79 453.02,391.04C457.95,383.79 460.62,374.19 468.9,369.85Z" style="fill:rgb(209,46,130);fill-rule:nonzero;"/>
        <path d="M488.3,675.02C488.62,674.88 489.26,674.58 489.58,674.43C489.94,683.62 489.28,692.82 489.59,702.01C489.56,708.67 490.51,715.3 490.34,721.96C490.08,726.46 492.02,731.59 488.59,735.34C489.02,741.25 487.64,747.11 488.1,753.03C488.59,757.27 485.96,760.89 485.53,764.98C485.02,769.82 483.06,774.32 481.84,779C478.77,786.24 473.54,792.31 470.01,799.32C458.84,810.45 445.3,818.85 431.67,826.63C415.75,835.4 397.96,840.35 379.95,842.35C374.2,842.46 368.41,842.68 362.7,841.94C369.47,840.7 376.45,841.06 383.12,839.25C390.48,837.38 397.82,835.42 405.04,833.05C408.63,832.01 411.04,828.82 414.56,827.62C419.82,825.76 424.3,822.25 429.64,820.57C438.2,816.7 445.07,809.98 453.03,805.06C456.87,802.62 459.53,798.89 462.62,795.64C468.09,790.48 470.89,783.34 475.42,777.44C479.71,771.97 481.64,765.17 483.42,758.57C484.78,751.43 487.04,744.32 486.48,736.97C486.89,723.31 487.01,709.64 486.46,695.97C487.29,689.01 487.04,681.93 488.3,675.02Z" style="fill:rgb(209,46,130);fill-rule:nonzero;"/>
    </g>
    <g id="_-fcfcdeff" serif:id="#fcfcdeff" transform="matrix(4.166667,0,0,4.166667,0,0)">
        <path d="M470.11,381.16C472.7,379.54 475.94,378.96 478.95,379.35C482.1,380.04 484.22,382.99 484.97,385.99C488.22,395.8 484.95,406.36 487.95,416.22C488.06,426.83 487.35,437.44 486.49,448.05C487.23,455.75 487,463.51 485.81,471.17C484.95,474.86 486.79,478.48 486.27,482.19C484.84,491.46 486.05,500.9 484.69,510.19C483.72,515.83 485.12,521.54 484.36,527.2C483.53,535.78 485.02,544.42 483.76,552.98C482.78,559.77 483.91,566.68 482.7,573.45C482.03,577.44 483.67,581.37 483.15,585.39C482.6,589.6 482.52,593.87 481.7,598.06C480.76,603.06 482.8,608.04 481.99,613.05C481.57,616.28 480.48,619.47 480.89,622.77C481.27,626.16 481.57,629.57 481.12,632.97C480.04,641.53 481.38,650.2 480.1,658.75C479.06,664.82 480.99,670.92 480.18,677.02C478.93,686.32 479.6,695.72 478.96,705.06C479.26,711.4 477.95,717.67 478.41,724.01C478.67,726.07 476.69,727.24 475.58,728.66C475.75,731.42 475.66,734.2 475,736.91C473.74,742.15 474.82,747.82 472.48,752.81C470.21,756.94 470.56,761.9 467.99,765.9C465.36,775.2 458.72,782.52 453.12,790.17C449.03,796 443.1,800.1 437.93,804.89C432.3,810.14 426,814.63 419.29,818.39C411.73,823.65 403.2,827.25 394.75,830.79C386.21,834.05 377.15,835.56 368.2,837.2C358.84,838.78 349.32,838.47 339.88,839.14C334.91,838.69 329.57,838.58 325.26,835.74C323.55,834.63 322.76,832.05 324.94,830.96C330.93,827.43 335,821.7 339.49,816.56C342.72,811.72 346.62,807.3 349.08,801.98C350.52,799.09 352.9,796.76 354.2,793.81C353.67,790.45 351.99,787.09 353.4,783.72C352.66,782.68 351.92,781.63 351.2,780.6C347.23,779.27 341.91,778.05 338.9,781.88C332.78,788.89 329.17,797.88 322.15,804.16C316.45,809.11 311.65,815.13 305.26,819.26C301.83,821.51 298.44,823.84 294.98,826.06C292.51,827.92 289.65,825.82 287.29,824.84C279.58,820.54 270.31,820.59 261.73,820.31C254.27,819.72 247.07,817.7 239.72,816.46L239.03,816.31C230.97,812.72 223.91,807.3 217.02,801.88C216.67,801.34 215.96,800.26 215.61,799.73C215.54,799.62 215.4,799.41 215.33,799.3C213.43,796.54 211.81,793.6 209.82,790.9C209.72,787.04 208.4,783.43 207.07,779.86C205.17,770.93 207.14,761.78 209.73,753.2C212.02,744.93 218.55,739.03 223.32,732.21C225.82,728.75 228.05,724.6 232.37,723.16C234.69,718.85 239.01,716.53 242.89,713.86C242.41,709 241.01,704.17 241.95,699.27C245.12,692.36 244.04,684.31 245.06,676.91C245.81,672.41 248.33,668.4 248.78,663.82C250.56,660.5 253.49,658.01 255.44,654.84C256.83,650.51 258.64,646.25 261.92,642.99C267.39,637.37 270.51,629.72 276.93,625.02C279.83,622.6 282.01,619.35 285.36,617.47C289.24,615.19 292.61,612.17 295.65,608.88C301.47,605.06 306.32,599.88 312.54,596.66C317.49,594.11 321.63,590.32 326.1,587.05C330.27,582.88 333.64,577.96 337.13,573.23C341.34,565.86 347.52,559.69 350.88,551.83C352.41,548.46 353.79,545 355.91,541.94C359.23,537.11 360.52,531.25 363.44,526.21C367.16,519.61 368.67,512.09 371.91,505.29C373.15,498.25 376.65,492.01 379.84,485.72C378.27,480.99 382.23,477.34 384.85,473.95C387.61,471.13 392.77,468.76 396.17,471.86C398.87,474.65 401.33,478.11 401.46,482.14C402.07,494.56 404.71,506.82 404.47,519.28C404.97,518.22 405.46,517.15 405.96,516.11C409.94,512.64 412.75,508.11 416.29,504.24C418.41,499.94 421.73,495.93 421.93,490.96C424.29,487.28 426.4,483.44 428.07,479.39C431.45,471.34 436.65,464.26 440.6,456.5C442.03,453.64 441.34,450.26 442.49,447.32C445.53,440.85 448.1,434.13 450.01,427.24C451.25,420.18 453.03,413.05 456.98,406.97C459.12,403.74 459.66,399.83 460.65,396.16C461.18,393.55 463.51,391.98 464.83,389.82C466.54,386.91 467.58,383.5 470.11,381.16M347.49,661.5C341.25,664.22 338.51,670.77 335.24,676.26C332.27,681.14 332.58,686.98 331.62,692.42C331.22,696.28 331.76,700.17 331.79,704.05C331.86,707.29 333.8,710.03 335.28,712.79C337.09,715.97 338.13,719.54 340.2,722.58C344.39,728.36 349.09,734.77 356.48,736.42C364.91,737.26 373.53,734.35 380.04,729C384,724.84 386.78,719.38 386.7,713.53C385.12,712.58 383.55,711.63 381.99,710.67C378.78,711.96 375.38,712.74 371.92,712.89C368.44,712.02 364.67,711.62 361.82,709.24C356.75,705.65 357.44,698.5 358.02,693.08C358.63,686.86 364.58,683.45 369.81,681.37C371.01,681.46 372.21,681.55 373.42,681.66C375.84,683.72 378.01,686.6 381.41,686.93C383.89,682.57 386.73,677.75 385.24,672.54C383.66,670.21 381.65,668.2 380.03,665.91C377.07,661.19 371.29,659.33 366.06,658.57C359.8,658.56 352.84,657.44 347.49,661.5Z" style="fill:rgb(252,252,222);fill-rule:nonzero;"/>
        <path d="M317.6,912.61C318.21,912.33 319.41,911.76 320.01,911.47C322.41,912.29 324.46,913.91 326.84,914.73C328.21,913.67 329.42,912.42 330.87,911.47C333.91,911.62 336.42,914.14 337.44,916.89C337.53,919.52 335.26,921.42 334.03,923.55C330.75,924.35 328.21,922.72 326.33,920.17C325.38,921.7 324.44,923.26 323.19,924.59C321.71,924.69 320.24,924.78 318.76,924.86C317.2,923.06 315.17,921.45 314.58,919.04C314.89,916.7 316.4,914.78 317.51,912.77L317.6,912.61Z" style="fill:rgb(252,252,222);fill-rule:nonzero;"/>
        <path d="M406.08,916.86C410.35,915.59 414.76,917.04 418.97,917.89C420.74,918.54 422.6,919.33 423.84,920.83C425.52,923.5 427.47,926.1 428.43,929.15C429.54,933.06 428.07,936.98 427.04,940.74C432.57,940.02 438.26,941.36 443.67,939.83C451.83,939.56 460.14,937.27 468.21,939.49L468.34,939.89C470.29,943.12 469.1,947.15 465.95,949.1C460.21,950.27 454.31,949.39 448.51,949.94C437.74,951.12 426.83,951.42 416.06,950.16C411.87,948.83 408.01,951.48 404.03,952.33C398.8,953.83 393.3,953.26 387.96,953.97C387.57,954.14 386.79,954.48 386.4,954.65C382.23,956.09 379.43,959.53 376.16,962.27C369.87,965.31 362.32,965.2 355.7,963.32C349.37,961.44 344.16,956.2 342.4,949.85C341.62,944.85 345.3,940.78 347.55,936.7C350.29,934.62 352.53,931.63 355.9,930.57C358.57,930.77 361.52,932.88 361.27,935.81C360.46,939.02 358.08,941.53 355.38,943.31C353.71,944.5 351.69,946.74 352.89,948.9C356.99,954.45 364.87,955.07 371.05,953.36C374.57,951.96 376.38,948.18 379.93,946.85C383.8,945.21 387.73,943.32 392.04,943.41C397.72,943.32 403.61,942.86 408.6,939.88L408.73,939.84C412.12,938.91 415.8,938.03 418.39,935.5C419.69,932.9 418.44,930.17 416.15,928.71C414.16,927.16 411.58,926.82 409.2,926.28C409.59,927 410,927.74 410.38,928.5C410.75,929.35 411.49,931.07 411.86,931.93C410.57,933.38 409.35,934.89 408.15,936.43C406.07,936.48 403.99,936.51 401.92,936.57L401.54,936.03C399.87,933.63 397.88,931.08 398.17,927.98C398,922.99 401.73,918.77 406.08,916.86Z" style="fill:rgb(252,252,222);fill-rule:nonzero;"/>
        <path d="M286.31,947.52C288.62,947.06 291.27,947.28 292.84,949.27C295.42,953.11 292.03,958.99 287.31,958.59C285.09,957.42 282.37,955.92 282.26,953.08C283.34,951.03 284.82,949.25 286.31,947.52Z" style="fill:rgb(252,252,222);fill-rule:nonzero;"/>
        <path d="M439.28,955.24C442.47,954.17 445.82,954.62 448.45,956.79C451.02,960.18 448.96,964.16 446.27,966.71C443.47,966.48 439.88,966.53 438.39,963.64C437.71,960.83 438.83,957.99 439.28,955.24Z" style="fill:rgb(252,252,222);fill-rule:nonzero;"/>
        <path d="M427.26,956.07C430.31,954.51 433.53,957.07 435.86,958.94C435.29,961.44 435.67,964.68 433.26,966.33C431.1,968.21 428.24,966.84 425.77,966.56C425.21,964.76 424.06,962.98 424.44,961.05C425,959.19 426.19,957.64 427.26,956.07Z" style="fill:rgb(252,252,222);fill-rule:nonzero;"/>
        <path d="M399.92,960.95C402.54,957.68 406.8,958.7 409.75,960.93C409.37,963.59 408.53,966.17 407.06,968.45C404.48,968.93 400.97,970.64 399.28,967.65C397.38,965.59 398.77,962.94 399.92,960.95Z" style="fill:rgb(252,252,222);fill-rule:nonzero;"/>
        <path d="M361.96,974.03C364.17,970.33 370.44,971.2 371.19,975.59C370.85,978.85 369.87,982.01 369.4,985.26C373.01,984.95 376.3,986.23 378.48,989.17C377.94,991.61 377.2,994.01 376.29,996.35C372.95,996.55 369.61,996.67 366.27,996.6C366.18,997.14 365.99,998.21 365.9,998.74C365.24,1003.5 365.46,1008.34 365.44,1013.14C368.63,1014.19 372.72,1017.01 371.11,1020.92C370.22,1021.92 369.29,1022.9 368.38,1023.9C365.51,1023.66 362.13,1024.31 359.84,1022.16C357.64,1020.24 355.72,1017.86 354.77,1015.08C353.85,1010.34 356.4,1005.55 354.7,1000.89C354.96,1000.28 355.49,999.04 355.75,998.43C355.96,997.82 356.39,996.6 356.6,995.99C354.87,995.5 353.04,995.27 351.45,994.41C350.08,993.11 349.2,991.42 348.26,989.83C349.01,987.56 350.79,985.72 352.91,984.69C354.8,984.45 356.71,984.54 358.62,984.57C359.86,981.06 359.04,976.82 361.96,974.03Z" style="fill:rgb(252,252,222);fill-rule:nonzero;"/>
        <path d="M304.79,984.82C308.51,981.94 314.95,980.8 317.64,985.61C320.18,985.65 323.58,985.27 324.81,988.11C326.39,991.48 328.57,995.02 328.22,998.88C326.13,1006.29 324.7,1014 320.85,1020.78C318.99,1022.75 316.18,1023.71 314.79,1026.2L314.28,1026.33C310.17,1027.07 306.13,1029.13 301.88,1028.45C298.72,1026.71 299.06,1022.86 299.51,1019.84C301.31,1018.7 303.42,1018.28 305.43,1017.64C306.99,1017.16 308.52,1016.58 310.05,1016.03C302.17,1015.64 295.57,1007.89 296.65,1000.02C297.51,994.23 300.56,988.83 304.79,984.82Z" style="fill:rgb(252,252,222);fill-rule:nonzero;"/>
        <path d="M383,990.89C386.34,986.05 392.04,982.62 398.05,983.25C402.72,983.1 407.76,984.4 410.76,988.23C413.2,992.32 414.43,997.55 412.59,1002.12C408.08,1008.09 400.17,1008.65 393.31,1008.84C393.44,1009.19 393.7,1009.89 393.84,1010.24C394.4,1010.31 395.51,1010.47 396.07,1010.55C396.41,1011.04 397.07,1012.03 397.4,1012.53C402.7,1013.18 408.01,1011.87 413.29,1012.53C415.31,1013.4 416.68,1015.12 417.28,1017.22C416.22,1019.09 415.48,1021.76 413.03,1022.2C408.01,1023.71 402.63,1024.12 397.45,1023.32C392.34,1022.35 388.58,1018.48 384.14,1016.07C381.35,1014.62 380.66,1011.3 379.48,1008.67C379.66,1005.43 379.71,1002.2 380,998.99C381.07,996.31 381.99,993.57 383,990.89Z" style="fill:rgb(252,252,222);fill-rule:nonzero;"/>
        <path d="M430.12,983.9C436.45,982.36 444.02,982.69 449.14,987.24C451.77,992 453.75,998.38 450.23,1003.22C445.67,1009.01 437.52,1008.23 431.03,1009.66C432.06,1010.03 433.08,1010.38 434.13,1010.78C434.46,1011.2 435.14,1012.04 435.47,1012.46C442.16,1014.46 449.93,1009.9 455.76,1014.86C455.52,1017.63 455.18,1021.47 451.93,1022.34C444.93,1024.47 437.27,1024.42 430.34,1022.08C429.64,1021.39 428.94,1020.72 428.24,1020.07C427.52,1019.24 426.62,1018.82 425.54,1018.81C424.05,1017.16 422.06,1016.2 419.87,1015.95L420.3,1015.19C420.02,1014.86 419.46,1014.19 419.18,1013.85C419.57,1012.42 419.08,1011.44 417.72,1010.91C415.61,1005.36 417.99,999.38 419.87,994.11C421.47,989.28 425.73,986.06 430.12,983.9Z" style="fill:rgb(252,252,222);fill-rule:nonzero;"/>
        <path d="M284.36,987.9C285.9,983.66 292.27,984.82 293.18,988.96C294.1,997.17 293.06,1005.45 292.41,1013.66C292.08,1015.45 290.27,1016.48 289.14,1017.78C286.66,1016.16 283.51,1014.4 283.53,1011.01C282.99,1003.31 283.27,995.54 284.36,987.9Z" style="fill:rgb(252,252,222);fill-rule:nonzero;"/>
        <path d="M336.77,985.7C337.97,985.69 339.17,985.71 340.37,985.73C341.38,987.08 342.52,988.39 343.13,990C344.35,997.98 342.2,1005.93 342.4,1013.92C342.37,1015.13 341.71,1016.2 341.13,1017.24C339.38,1019.64 335.97,1020.49 334.03,1017.77C332.05,1013.13 332.63,1007.91 333.24,1003.04C333.41,997.78 332.78,992.39 334.53,987.31C335.09,986.91 336.21,986.1 336.77,985.7Z" style="fill:rgb(252,252,222);fill-rule:nonzero;"/>
        <path d="M463.74,987.88C465.41,986 467.74,985.1 470.09,984.42C473.75,985.56 475.2,989.15 474.74,992.75C477.47,990.04 480.89,987.13 485.03,987.69C491.78,987.73 497.61,991.9 501.35,997.28L501.35,997.54C501.33,1007.34 505.66,1017.4 501.99,1027.01C499.39,1027.2 496.37,1027.8 494.33,1025.71C491.38,1023.63 492.5,1019.64 492.28,1016.6C492.05,1010.77 491.78,1004.27 488.26,999.38C485.83,999.43 482.75,998.86 481.56,1001.61C478.67,1007.16 475.57,1012.72 473.98,1018.83C473.3,1020.74 472.81,1023.05 470.91,1024.16C467.87,1025.42 463.78,1024.35 462.88,1020.9C461.95,1013.87 462.83,1006.72 463.83,999.74C464.58,995.79 463.17,991.84 463.74,987.88Z" style="fill:rgb(252,252,222);fill-rule:nonzero;"/>
    </g>
    <g id="_-a14096ff" serif:id="#a14096ff" transform="matrix(4.166667,0,0,4.166667,0,0)">
        <path d="M354.1,518.75C355.99,514.65 357.99,510.61 360.12,506.63C358.65,514.21 354.7,520.98 352.01,528.16C346.98,540.92 338.98,552.13 331.77,563.71C329.47,567.74 325.72,570.71 323.68,574.91C322.09,578.55 317.83,579.52 315.26,582.27C310.24,587.46 304.53,592.13 300.71,598.35C295.03,603.17 287.63,605.18 281.9,609.91C275.19,615.09 267.73,619.47 262.3,626.12C261.82,624.15 261.07,622.29 260.15,620.51C266.15,612.58 275.78,609.31 283.55,603.6C298.1,592.64 313.79,582.68 325.4,568.4C328.59,563.96 331.22,559.08 335.06,555.15C335.97,554.27 336.48,553.12 336.94,551.99C339.4,545.74 344.45,540.83 346.42,534.34C348.13,528.74 351.87,524.12 354.1,518.75Z" style="fill:rgb(161,64,150);fill-rule:nonzero;"/>
    </g>
    <g id="_-f8cf2cff" serif:id="#f8cf2cff" transform="matrix(4.166667,0,0,4.166667,0,0)">
        <path d="M330.8,575.85C337.26,567.64 344.59,560.18 350.88,551.83C347.52,559.69 341.34,565.86 337.13,573.23C333.64,577.96 330.27,582.88 326.1,587.05C321.63,590.32 317.49,594.11 312.54,596.66C306.32,599.88 301.47,605.06 295.65,608.88C292.95,609.51 290.15,610.14 287.94,611.89C281.66,616.68 275,620.95 269.03,626.12C263.75,630.4 258.32,634.86 255.11,640.97C252.58,645.75 248.77,649.83 247.15,655.08C245.3,661.84 241.3,667.71 239.25,674.4C237.28,680.07 236.53,686.09 235.04,691.9C235.59,686.63 235.71,681.28 237.44,676.21C238.94,671.02 238.81,665.38 241.42,660.52C244.2,655.19 245.61,649.2 249.09,644.24C252,640.08 253.75,635.14 257.27,631.41C258.9,629.59 260.68,627.93 262.3,626.12C267.73,619.47 275.19,615.09 281.9,609.91C287.63,605.18 295.03,603.17 300.71,598.35C308.89,593.55 315.59,586.64 323.83,581.92C326.58,580.45 328.87,578.28 330.8,575.85Z" style="fill:rgb(248,207,44);fill-rule:nonzero;"/>
        <path d="M483.15,585.39L484.24,583.78C484.66,590.18 485.72,596.63 484.72,603.03C483.89,609.05 486.75,614.86 486.1,620.89C485.75,623.92 485.31,627 486.02,630.02C487.19,635.61 486.15,641.36 487.09,646.98C488.31,656.3 486.83,665.73 488.3,675.02C487.04,681.93 487.29,689.01 486.46,695.97C487.01,709.64 486.89,723.31 486.48,736.97C487.04,744.32 484.78,751.43 483.42,758.57C481.64,765.17 479.71,771.97 475.42,777.44C470.89,783.34 468.09,790.48 462.62,795.64C459.53,798.89 456.87,802.62 453.03,805.06C445.07,809.98 438.2,816.7 429.64,820.57C424.3,822.25 419.82,825.76 414.56,827.62C411.04,828.82 408.63,832.01 405.04,833.05C397.82,835.42 390.48,837.38 383.12,839.25C376.45,841.06 369.47,840.7 362.7,841.94C355.1,840.92 347.52,839.78 339.88,839.14C349.32,838.47 358.84,838.78 368.2,837.2C377.15,835.56 386.21,834.05 394.75,830.79C403.2,827.25 411.73,823.65 419.29,818.39C426,814.63 432.3,810.14 437.93,804.89C443.1,800.1 449.03,796 453.12,790.17C458.72,782.52 465.36,775.2 467.99,765.9C470.56,761.9 470.21,756.94 472.48,752.81C474.82,747.82 473.74,742.15 475,736.91C475.66,734.2 475.75,731.42 475.58,728.66C476.69,727.24 478.67,726.07 478.41,724.01C477.95,717.67 479.26,711.4 478.96,705.06C479.6,695.72 478.93,686.32 480.18,677.02C480.99,670.92 479.06,664.82 480.1,658.75C481.38,650.2 480.04,641.53 481.12,632.97C481.57,629.57 481.27,626.16 480.89,622.77C480.48,619.47 481.57,616.28 481.99,613.05C482.8,608.04 480.76,603.06 481.7,598.06C482.52,593.87 482.6,589.6 483.15,585.39Z" style="fill:rgb(248,207,44);fill-rule:nonzero;"/>
        <path d="M201.38,743.11C201.89,743.31 202.91,743.73 203.42,743.94C200.91,749.47 198.23,755.01 197.17,761.05C195.25,770.98 195.69,782.03 201.23,790.79C203.83,795.42 205.64,800.62 209.48,804.45C214.6,810.24 221.71,813.58 228.59,816.8C215.88,814.27 204.61,806.84 195.66,797.71C188.93,788.57 190.69,776.68 190.07,766.07C190.86,759.23 195.14,753.59 198.2,747.63C199.23,746.09 200.31,744.6 201.38,743.11Z" style="fill:rgb(248,207,44);fill-rule:nonzero;"/>
    </g>
    <g id="_-ee3227ff" serif:id="#ee3227ff" transform="matrix(4.166667,0,0,4.166667,0,0)">
        <path d="M495.42,583.82L495.61,584.86C497.02,590.14 496.61,595.63 496.51,601.03C496.93,607.03 498.98,613.01 497.91,619.06C496.91,623.09 499,626.98 498.75,631.03C498.22,642.06 501.43,653 499.7,664.02C500.87,670.93 501.8,677.96 501.44,684.99C501.16,692.91 502.31,700.76 502.62,708.65C503.64,713.1 501.91,717.6 502.76,722.07C503,723.69 503.53,725.26 503.59,726.91C503.06,728.47 501.6,729.48 500.61,730.75C501.26,732.72 501.87,734.81 501.31,736.91C500.18,741.69 501.14,746.83 499.08,751.41C494.5,763.2 489.11,774.7 482.29,785.37C478.81,790.53 474.21,794.77 470.01,799.32C473.54,792.31 478.77,786.24 481.84,779C483.06,774.32 485.02,769.82 485.53,764.98C485.96,760.89 488.59,757.27 488.1,753.03C487.64,747.11 489.02,741.25 488.59,735.34C492.02,731.59 490.08,726.46 490.34,721.96C490.51,715.3 489.56,708.67 489.59,702.01C489.28,692.82 489.94,683.62 489.58,674.43C490.79,666.89 490.29,659.27 490.78,651.7C492.94,640.59 492.56,629.21 494.06,618.02C494.83,613.71 493.11,609.32 494.46,605.09C496.39,598.14 495.26,590.9 495.42,583.82Z" style="fill:rgb(238,50,39);fill-rule:nonzero;"/>
        <path d="M287.94,611.89C290.15,610.14 292.95,609.51 295.65,608.88C292.61,612.17 289.24,615.19 285.36,617.47C282.01,619.35 279.83,622.6 276.93,625.02C270.51,629.72 267.39,637.37 261.92,642.99C258.64,646.25 256.83,650.51 255.44,654.84C253.49,658.01 250.56,660.5 248.78,663.82C248.33,668.4 245.81,672.41 245.06,676.91C244.04,684.31 245.12,692.36 241.95,699.27C241.01,704.17 242.41,709 242.89,713.86C239.01,716.53 234.69,718.85 232.37,723.16C228.05,724.6 225.82,728.75 223.32,732.21C218.55,739.03 212.02,744.93 209.73,753.2C207.14,761.78 205.17,770.93 207.07,779.86C208.4,783.43 209.72,787.04 209.82,790.9C211.81,793.6 213.43,796.54 215.33,799.3C215.4,799.41 215.54,799.62 215.61,799.73C215.96,800.26 216.67,801.34 217.02,801.88C219.33,805.83 222.68,809.16 226.93,810.98C231.03,812.63 234.48,815.89 239.03,816.31L239.72,816.46C249.61,819.72 260.15,821.01 269.53,825.74C275.2,828.51 281.55,829.67 286.96,833.01C292.94,837.09 300.22,838.21 306.66,841.32C314.67,844.93 323.52,846.01 331.67,849.23C340.55,853.14 350.51,852.29 359.98,852.5C365.71,852.3 371.46,852.77 377.19,852.28C367.32,854.26 357.07,854.63 347.01,854.3C340.83,853.46 334.38,853.84 328.46,851.63C320.7,848.76 312.31,847.81 304.83,844.12C299.07,841.27 292.5,840.34 287.03,836.86C283.83,834.9 280.46,833.21 276.88,832.06C269.4,829.75 262.6,825.57 254.9,823.91C248.66,822.04 241.62,821.76 236.3,817.65C233.72,817.44 231.12,817.33 228.59,816.8C221.71,813.58 214.6,810.24 209.48,804.45C205.64,800.62 203.83,795.42 201.23,790.79C195.69,782.03 195.25,770.98 197.17,761.05C198.23,755.01 200.91,749.47 203.42,743.94C205.84,737.15 209.19,730.5 214.52,725.53C217.28,722.98 219.75,720.12 221.42,716.75C224.86,712.4 229.19,708.91 233.62,705.63C234.05,701.05 234.22,696.43 235.04,691.9C236.53,686.09 237.28,680.07 239.25,674.4C241.3,667.71 245.3,661.84 247.15,655.08C248.77,649.83 252.58,645.75 255.11,640.97C258.32,634.86 263.75,630.4 269.03,626.12C275,620.95 281.66,616.68 287.94,611.89Z" style="fill:rgb(238,50,39);fill-rule:nonzero;"/>
    </g>
    <g id="_-d23183ff" serif:id="#d23183ff" transform="matrix(4.166667,0,0,4.166667,0,0)">
        <path d="M347.49,661.5C352.84,657.44 359.8,658.56 366.06,658.57C371.29,659.33 377.07,661.19 380.03,665.91C381.65,668.2 383.66,670.21 385.24,672.54C386.73,677.75 383.89,682.57 381.41,686.93C378.01,686.6 375.84,683.72 373.42,681.66C372.21,681.55 371.01,681.46 369.81,681.37C369.06,679.5 368.67,677.35 367.25,675.84C364.25,673.49 360.14,671.58 356.36,673.25C351.5,674.56 348.98,679.45 348.09,684.05C346.96,689.73 344.18,695.43 345.71,701.32C347,706.4 349.12,711.39 352.43,715.5C355.91,718.95 361.42,720.9 366.17,719.17C368.48,717.47 370.06,715.02 371.92,712.89C375.38,712.74 378.78,711.96 381.99,710.67C383.55,711.63 385.12,712.58 386.7,713.53C386.78,719.38 384,724.84 380.04,729C373.53,734.35 364.91,737.26 356.48,736.42C349.09,734.77 344.39,728.36 340.2,722.58C338.13,719.54 337.09,715.97 335.28,712.79C333.8,710.03 331.86,707.29 331.79,704.05C331.76,700.17 331.22,696.28 331.62,692.42C332.58,686.98 332.27,681.14 335.24,676.26C338.51,670.77 341.25,664.22 347.49,661.5Z" style="fill:rgb(210,49,131);fill-rule:nonzero;"/>
    </g>
    <g id="_-75398cff" serif:id="#75398cff" transform="matrix(4.166667,0,0,4.166667,0,0)">
        <path d="M356.36,673.25C360.14,671.58 364.25,673.49 367.25,675.84C368.67,677.35 369.06,679.5 369.81,681.37C364.58,683.45 358.63,686.86 358.02,693.08C357.44,698.5 356.75,705.65 361.82,709.24C364.67,711.62 368.44,712.02 371.92,712.89C370.06,715.02 368.48,717.47 366.17,719.17C361.42,720.9 355.91,718.95 352.43,715.5C349.12,711.39 347,706.4 345.71,701.32C344.18,695.43 346.96,689.73 348.09,684.05C348.98,679.45 351.5,674.56 356.36,673.25Z" style="fill:rgb(117,57,140);fill-rule:nonzero;"/>
    </g>
    <g id="_-f9932cff" serif:id="#f9932cff" transform="matrix(4.166667,0,0,4.166667,0,0)">
        <path d="M198.2,747.63C201.5,734.74 211.08,724.57 221.42,716.75C219.75,720.12 217.28,722.98 214.52,725.53C209.19,730.5 205.84,737.15 203.42,743.94C202.91,743.73 201.89,743.31 201.38,743.11C200.31,744.6 199.23,746.09 198.2,747.63Z" style="fill:rgb(249,147,44);fill-rule:nonzero;"/>
    </g>
    <g id="_-4e3e96ff" serif:id="#4e3e96ff" transform="matrix(4.166667,0,0,4.166667,0,0)">
        <path d="M499.08,751.41C501.54,754.5 497.62,757.59 498.34,760.9C498.54,762.53 498.58,764.21 497.56,765.62C495.17,769.41 495.93,774.36 493.01,777.91C486.18,791.62 476.91,804.32 464.79,813.85C459.14,818.98 453.13,823.76 446.43,827.47C435.51,834.39 423.65,840.08 411.02,843.02C406.32,844.4 402.09,847.04 397.33,848.29C390.7,850 383.96,851.26 377.19,852.28C371.46,852.77 365.71,852.3 359.98,852.5C350.51,852.29 340.55,853.14 331.67,849.23C323.52,846.01 314.67,844.93 306.66,841.32C300.22,838.21 292.94,837.09 286.96,833.01C281.55,829.67 275.2,828.51 269.53,825.74C260.15,821.01 249.61,819.72 239.72,816.46C247.07,817.7 254.27,819.72 261.73,820.31C268.39,820.85 274.51,823.92 281.17,824.38C283.2,824.55 285.25,824.64 287.29,824.84C289.65,825.82 292.51,827.92 294.98,826.06C298.44,823.84 301.83,821.51 305.26,819.26C311.65,815.13 316.45,809.11 322.15,804.16C329.17,797.88 332.78,788.89 338.9,781.88C341.91,778.05 347.23,779.27 351.2,780.6C351.92,781.63 352.66,782.68 353.4,783.72C351.99,787.09 353.67,790.45 354.2,793.81C352.9,796.76 350.52,799.09 349.08,801.98C346.62,807.3 342.72,811.72 339.49,816.56C335,821.7 330.93,827.43 324.94,830.96C322.76,832.05 323.55,834.63 325.26,835.74C329.57,838.58 334.91,838.69 339.88,839.14C347.52,839.78 355.1,840.92 362.7,841.94C368.41,842.68 374.2,842.46 379.95,842.35C397.96,840.35 415.75,835.4 431.67,826.63C445.3,818.85 458.84,810.45 470.01,799.32C474.21,794.77 478.81,790.53 482.29,785.37C489.11,774.7 494.5,763.2 499.08,751.41Z" style="fill:rgb(78,62,150);fill-rule:nonzero;"/>
        <path d="M217.02,801.88C223.91,807.3 230.97,812.72 239.03,816.31C234.48,815.89 231.03,812.63 226.93,810.98C222.68,809.16 219.33,805.83 217.02,801.88Z" style="fill:rgb(78,62,150);fill-rule:nonzero;"/>
    </g>
    <g id="_-a3819fff" serif:id="#a3819fff" transform="matrix(4.166667,0,0,4.166667,0,0)">
        <path d="M215.33,799.3C215.4,799.41 215.54,799.62 215.61,799.73C215.54,799.62 215.4,799.41 215.33,799.3Z" style="fill:rgb(163,129,159);fill-rule:nonzero;"/>
    </g>
    <g id="_-786da7ff" serif:id="#786da7ff" transform="matrix(4.166667,0,0,4.166667,0,0)">
        <path d="M261.73,820.31C270.31,820.59 279.58,820.54 287.29,824.84C285.25,824.64 283.2,824.55 281.17,824.38C274.51,823.92 268.39,820.85 261.73,820.31Z" style="fill:rgb(120,109,167);fill-rule:nonzero;"/>
    </g>
    <g id="_-ee3228ff" serif:id="#ee3228ff" transform="matrix(4.166667,0,0,4.166667,0,0)">
        <path d="M228.17,920.94C230.55,916.01 236.42,914.74 240.95,912.52C241.49,912.84 242.56,913.49 243.1,913.81C239.21,915.66 234.4,916.94 232.39,921.16C228.94,927.15 224.08,933.66 225.78,940.97C226.64,944.17 227.4,947.67 229.68,950.2C232.57,952.49 235.67,954.53 238.74,956.59C236.62,956.52 234.18,956.97 232.5,955.35C229.97,953.22 226.98,951.57 224.78,949.09C221.94,943.99 220.12,937.53 222.47,931.9C224,928.06 226.01,924.45 228.17,920.94Z" style="fill:rgb(238,50,40);fill-rule:nonzero;"/>
        <path d="M223.63,994.45C224.85,992.04 227.65,991.39 230.1,991.09C228.13,992.6 226.09,994.39 225.73,997.02C226.13,1000.63 229.32,1002.85 232.22,1004.51C226.94,1005.65 220.56,999.61 223.63,994.45Z" style="fill:rgb(238,50,40);fill-rule:nonzero;"/>
    </g>
    <g id="_-ba93d1ff" serif:id="#ba93d1ff" transform="matrix(4.166667,0,0,4.166667,0,0)">
        <path d="M243.1,913.81C244.04,913.42 244.98,913.05 245.93,912.7C246.99,913.31 248.05,913.92 249.11,914.54L248.67,914.83C247.56,915.55 246.45,916.27 245.34,917C240.36,915.11 236.8,919.85 232.39,921.16C234.4,916.94 239.21,915.66 243.1,913.81Z" style="fill:rgb(186,147,209);fill-rule:nonzero;"/>
    </g>
    <g id="_-e73632ff" serif:id="#e73632ff" transform="matrix(4.166667,0,0,4.166667,0,0)">
        <path d="M312.33,918.95C312.19,915.95 314.81,913.55 317.51,912.77C316.4,914.78 314.89,916.7 314.58,919.04C315.17,921.45 317.2,923.06 318.76,924.86C320.24,924.78 321.71,924.69 323.19,924.59C321.13,925.05 319.04,925.71 316.91,925.41C314.78,923.89 311.94,921.94 312.33,918.95Z" style="fill:rgb(231,54,50);fill-rule:nonzero;"/>
        <path d="M400.49,954.43C405.74,953.1 411.09,949.51 416.62,951.45C420.37,952.49 424.29,952.16 428.13,952.05C433.33,951.85 438.56,952.43 443.74,951.65C450.47,950.63 457.28,951.81 464.04,951.16C457.57,952.03 451,951 444.57,952.18C436.38,952.89 428.15,952.49 419.95,952.51C416.7,952.67 413.43,950.61 410.3,952.12C407.18,953.49 403.98,954.81 400.49,954.43Z" style="fill:rgb(231,54,50);fill-rule:nonzero;"/>
    </g>
    <g id="_-fcfbdeff" serif:id="#fcfbdeff" transform="matrix(4.166667,0,0,4.166667,0,0)">
        <path d="M245.34,917C246.45,916.27 247.56,915.55 248.67,914.83C251.82,919.6 246.49,923.62 242.59,925.42C235.82,927.94 231.97,937.4 236.6,943.4C237.83,945.26 239.97,946.19 242.03,946.81C244.33,947.44 246.75,947.83 249.12,947.35C252.28,946.69 255.95,946.64 258.26,944.05C260.94,941.33 263.44,938.35 266.89,936.56C272.89,935.21 278.86,933.6 285.05,933.3C291.44,933.08 297.77,930.61 304.17,932.07C306.8,930.62 309.25,928.8 311.04,926.35C315.88,925.84 317.8,930.98 317.56,934.97C316.8,936.54 314.89,938.14 315.75,940.07C317.43,941.51 319.99,942.05 321.91,940.7C327.47,937.33 329.56,930.76 333.72,926.08C335.78,926.4 338.56,926.04 339.6,928.34C341.73,932.04 339.38,936.16 337.15,939.19C333.95,943.04 331.63,947.91 326.96,950.27C323.35,952.82 318.78,953.14 314.52,952.67C309.55,951.36 306.5,946.8 304.7,942.28C298.19,942.36 291.62,942.29 285.17,943.29C280.19,944.65 274.74,943.92 270.07,946.44C265.77,948.12 264.31,953.27 259.98,954.92C256.7,957.07 252.66,956.2 249.05,957.21C245.66,958.08 242.02,957.66 238.74,956.59C235.67,954.53 232.57,952.49 229.68,950.2C227.4,947.67 226.64,944.17 225.78,940.97C224.08,933.66 228.94,927.15 232.39,921.16C236.8,919.85 240.36,915.11 245.34,917Z" style="fill:rgb(252,251,222);fill-rule:nonzero;"/>
        <path d="M461.52,916.56C463.17,916.21 464.87,916.4 466.55,916.45C469.98,920.5 474.7,923.07 478.94,926.17C486.3,931.75 494.88,935.4 503.44,938.71C504.78,941.82 507.9,945.36 505.77,948.82C503.72,952.46 499.85,954.36 496.03,955.56C488.72,958.22 481.86,961.9 474.76,965.03C471.02,966.74 467.18,968.33 463.9,970.88C461.99,972.53 459.38,972.32 457.03,972.48C455.54,970.22 453.19,967.69 454.69,964.82C455.61,961.06 459.61,960.05 462.74,958.8C470.49,954.77 479.18,952.68 486.45,947.75C487.6,946.95 488.73,946.14 489.88,945.34L489.75,945.27C485.09,942.18 479.66,940.43 475.31,936.86C470.49,932.75 464.07,930.94 459.75,926.22C458.22,924.67 458.69,922.29 458.48,920.36C459.35,918.98 460.24,917.58 461.52,916.56Z" style="fill:rgb(252,251,222);fill-rule:nonzero;"/>
    </g>
    <g id="_-eeb258ff" serif:id="#eeb258ff" transform="matrix(4.166667,0,0,4.166667,0,0)">
        <path d="M403.55,916.76C408.54,914.45 414.13,915.97 418.97,917.89C414.76,917.04 410.35,915.59 406.08,916.86C401.73,918.77 398,922.99 398.17,927.98C397.88,931.08 399.87,933.63 401.54,936.03C398.3,935.82 396.44,932.76 395.69,929.95C394.73,924.34 398.91,919.3 403.55,916.76Z" style="fill:rgb(238,178,88);fill-rule:nonzero;"/>
    </g>
    <g id="_-bb8398ff" serif:id="#bb8398ff" transform="matrix(4.166667,0,0,4.166667,0,0)">
        <path d="M423.84,920.83C428.71,923.9 430.84,930.1 430.35,935.63C429.93,936.99 429.43,938.33 428.94,939.69C433.85,939.28 438.77,939.53 443.67,939.83C438.26,941.36 432.57,940.02 427.04,940.74C428.07,936.98 429.54,933.06 428.43,929.15C427.47,926.1 425.52,923.5 423.84,920.83Z" style="fill:rgb(187,131,152);fill-rule:nonzero;"/>
        <path d="M458.88,929.14C456.21,927.01 456.65,922.88 458.48,920.36C458.69,922.29 458.22,924.67 459.75,926.22C464.07,930.94 470.49,932.75 475.31,936.86C479.66,940.43 485.09,942.18 489.75,945.27C481.6,947.6 475.92,940.14 469.52,936.67C468.55,936.18 467.57,935.71 466.6,935.26C464.04,933.2 461.47,931.15 458.88,929.14Z" style="fill:rgb(187,131,152);fill-rule:nonzero;"/>
    </g>
    <g id="_-f05e4fff" serif:id="#f05e4fff" transform="matrix(4.166667,0,0,4.166667,0,0)">
        <path d="M409.2,926.28C411.58,926.82 414.16,927.16 416.15,928.71C416.23,929.25 416.38,930.33 416.45,930.87C414.58,929.72 412.64,928.54 410.38,928.5C410,927.74 409.59,927 409.2,926.28Z" style="fill:rgb(240,94,79);fill-rule:nonzero;"/>
        <path d="M503.44,938.71C506.93,940.88 508.62,945.57 507.3,949.47C504.53,953.87 499.85,956.61 495,958.18C490.47,959.63 486.35,962.06 481.94,963.78C479.59,964.39 477.17,964.71 474.76,965.03C481.86,961.9 488.72,958.22 496.03,955.56C499.85,954.36 503.72,952.46 505.77,948.82C507.9,945.36 504.78,941.82 503.44,938.71Z" style="fill:rgb(240,94,79);fill-rule:nonzero;"/>
        <path d="M468.34,939.89C469.95,941.14 470.75,943.01 471.46,944.88C470.33,946.65 469.26,948.47 468.21,950.31C466.82,950.6 465.43,950.92 464.04,951.16C457.28,951.81 450.47,950.63 443.74,951.65C438.56,952.43 433.33,951.85 428.13,952.05C424.29,952.16 420.37,952.49 416.62,951.45C411.09,949.51 405.74,953.1 400.49,954.43L400.11,954.54C395.54,954.76 390.97,954.74 386.4,954.65C386.79,954.48 387.57,954.14 387.96,953.97C393.3,953.26 398.8,953.83 404.03,952.33C408.01,951.48 411.87,948.83 416.06,950.16C426.83,951.42 437.74,951.12 448.51,949.94C454.31,949.39 460.21,950.27 465.95,949.1C469.1,947.15 470.29,943.12 468.34,939.89Z" style="fill:rgb(240,94,79);fill-rule:nonzero;"/>
        <path d="M455.76,1014.86C457.19,1017.65 457.2,1021.54 454.44,1023.55C451.63,1025.12 448.41,1025.89 445.27,1026.46C440.65,1026.24 435.86,1025.91 431.66,1023.77C431.33,1023.35 430.67,1022.5 430.34,1022.08C437.27,1024.42 444.93,1024.47 451.93,1022.34C455.18,1021.47 455.52,1017.63 455.76,1014.86Z" style="fill:rgb(240,94,79);fill-rule:nonzero;"/>
    </g>
    <g id="_-ed3228ff" serif:id="#ed3228ff" transform="matrix(4.166667,0,0,4.166667,0,0)">
        <path d="M240.98,928.9C242.11,926.73 244.94,927.56 246.92,927.21C245.35,929.57 243.04,931.95 243.4,935.03C243.5,937.17 244.98,938.88 245.99,940.68C244.79,940.63 243.59,940.64 242.41,940.49C238.29,938.28 238.3,932.23 240.98,928.9Z" style="fill:rgb(237,50,40);fill-rule:nonzero;"/>
        <path d="M281.45,968.53C281.78,968.82 282.45,969.4 282.79,969.69C280.05,973.55 281.15,979.79 286.17,981C284.56,981.26 282.93,981.41 281.31,981.57C279.45,979.7 278.15,977.41 277.37,974.91C278.58,972.66 279.79,970.4 281.08,968.2L281.45,968.53Z" style="fill:rgb(237,50,40);fill-rule:nonzero;"/>
    </g>
    <g id="_-f5f2deff" serif:id="#f5f2deff" transform="matrix(4.166667,0,0,4.166667,0,0)">
        <path d="M246.92,927.21C248.79,927.33 250.67,927.42 252.55,927.52C253.63,928.95 254.77,930.35 255.57,931.99C255.19,934.58 254.8,937.32 253.58,939.68C252.23,940.59 250.57,940.86 249.06,941.37C248.03,941.12 247.01,940.89 245.99,940.68C244.98,938.88 243.5,937.17 243.4,935.03C243.04,931.95 245.35,929.57 246.92,927.21Z" style="fill:rgb(245,242,222);fill-rule:nonzero;"/>
    </g>
    <g id="_-c97e9fff" serif:id="#c97e9fff" transform="matrix(4.166667,0,0,4.166667,0,0)">
        <path d="M303.32,930.29C305.86,928.89 308.01,926.69 311.04,926.35C309.25,928.8 306.8,930.62 304.17,932.07C297.77,930.61 291.44,933.08 285.05,933.3C278.86,933.6 272.89,935.21 266.89,936.56C265.25,936.59 263.62,936.6 262,936.71C271.33,932.14 282.03,932.72 292.04,930.92C295.77,930.14 299.59,930.76 303.32,930.29Z" style="fill:rgb(201,126,159);fill-rule:nonzero;"/>
    </g>
    <g id="_-d5ab47ff" serif:id="#d5ab47ff" transform="matrix(4.166667,0,0,4.166667,0,0)">
        <path d="M416.15,928.71C418.44,930.17 419.69,932.9 418.39,935.5C415.8,938.03 412.12,938.91 408.73,939.84C411.09,937.96 414.11,937.09 416.36,935.08C416.65,933.68 416.68,932.28 416.45,930.87C416.38,930.33 416.23,929.25 416.15,928.71Z" style="fill:rgb(213,171,71);fill-rule:nonzero;"/>
    </g>
    <g id="_-eb372fff" serif:id="#eb372fff" transform="matrix(4.166667,0,0,4.166667,0,0)">
        <path d="M262,936.71C263.62,936.6 265.25,936.59 266.89,936.56C263.44,938.35 260.94,941.33 258.26,944.05C255.95,946.64 252.28,946.69 249.12,947.35C246.75,947.83 244.33,947.44 242.03,946.81C242.4,946.8 243.13,946.77 243.49,946.76C246.5,946.54 249.75,946.95 252.46,945.33C255.76,942.59 258.28,938.96 262,936.71Z" style="fill:rgb(235,55,47);fill-rule:nonzero;"/>
        <path d="M328.38,974.9C328.1,971.9 329.22,968.76 331.54,966.8C330.62,969.88 329.39,973.48 331.54,976.38C332.83,979.47 336.02,980.62 339.13,980.85C337.04,981.91 334.7,981.84 332.44,981.56C330.93,979.45 329.04,977.46 328.38,974.9Z" style="fill:rgb(235,55,47);fill-rule:nonzero;"/>
    </g>
    <g id="_-e6403fff" serif:id="#e6403fff" transform="matrix(4.166667,0,0,4.166667,0,0)">
        <path d="M340.59,951.53C339.66,945.83 343.5,940.33 347.55,936.7C345.3,940.78 341.62,944.85 342.4,949.85C344.16,956.2 349.37,961.44 355.7,963.32C362.32,965.2 369.87,965.31 376.16,962.27C379.43,959.53 382.23,956.09 386.4,954.65C390.97,954.74 395.54,954.76 400.11,954.54C397.98,955.86 395.37,955.22 393.02,955.36C387.04,955 381.33,958.04 377.49,962.48C374.62,965.72 369.99,965.82 366.02,966.41C360.76,966.33 355.27,965.74 350.53,963.28C345.87,960.8 342.59,956.32 340.59,951.53Z" style="fill:rgb(230,64,63);fill-rule:nonzero;"/>
        <path d="M474.76,965.03C477.17,964.71 479.59,964.39 481.94,963.78C481.6,964.11 480.92,964.78 480.57,965.12C476.82,965.63 473.72,967.91 470.28,969.3C468.01,970.15 466.21,971.8 464.55,973.53C460.61,973.8 456.72,973.12 452.85,972.51C454.24,972.5 455.63,972.49 457.03,972.48C459.38,972.32 461.99,972.53 463.9,970.88C467.18,968.33 471.02,966.74 474.76,965.03Z" style="fill:rgb(230,64,63);fill-rule:nonzero;"/>
        <path d="M378.98,1011.03C379.11,1010.44 379.36,1009.26 379.48,1008.67C380.66,1011.3 381.35,1014.62 384.14,1016.07C388.58,1018.48 392.34,1022.35 397.45,1023.32C402.63,1024.12 408.01,1023.71 413.03,1022.2C415.48,1021.76 416.22,1019.09 417.28,1017.22C417.41,1017.55 417.66,1018.19 417.79,1018.51C417.7,1020.86 416.04,1022.62 414.65,1024.36C412.19,1024.73 409.78,1025.34 407.34,1025.76C402.33,1025.83 396.83,1026.41 392.4,1023.6C389.66,1021.89 386.93,1020.17 384.14,1018.57C381.29,1017.05 380.35,1013.71 378.98,1011.03Z" style="fill:rgb(230,64,63);fill-rule:nonzero;"/>
    </g>
    <g id="_-cfa56aff" serif:id="#cfa56aff" transform="matrix(4.166667,0,0,4.166667,0,0)">
        <path d="M399.98,941.58C402.85,940.99 405.61,939.77 408.6,939.88C403.61,942.86 397.72,943.32 392.04,943.41C387.73,943.32 383.8,945.21 379.93,946.85C376.38,948.18 374.57,951.96 371.05,953.36C371.85,951.11 372.8,948.57 375.05,947.42C378.23,945.76 381.87,945.04 384.77,942.84C389.84,942.5 394.99,942.7 399.98,941.58Z" style="fill:rgb(207,165,106);fill-rule:nonzero;"/>
        <path d="M453.78,962.65C456.08,960.04 459.49,959.39 462.74,958.8C459.61,960.05 455.61,961.06 454.69,964.82C453.19,967.69 455.54,970.22 457.03,972.48C455.63,972.49 454.24,972.5 452.85,972.51C450.31,969.45 451.58,965.48 453.78,962.65Z" style="fill:rgb(207,165,106);fill-rule:nonzero;"/>
    </g>
    <g id="_-e73430ff" serif:id="#e73430ff" transform="matrix(4.166667,0,0,4.166667,0,0)">
        <path d="M285.17,943.29C291.62,942.29 298.19,942.36 304.7,942.28C306.5,946.8 309.55,951.36 314.52,952.67C318.78,953.14 323.35,952.82 326.96,950.27C323.18,953.9 317.83,953.74 312.94,953.98C308.8,952.82 304.88,949.92 303.26,945.82C302.55,944.52 301.93,942.46 300.04,942.7C295.07,942.58 290.15,943.86 285.17,943.29Z" style="fill:rgb(231,52,48);fill-rule:nonzero;"/>
    </g>
    <g id="_-915fd8ff" serif:id="#915fd8ff" transform="matrix(4.166667,0,0,4.166667,0,0)">
        <path d="M243.49,946.76C246.35,945.65 249.4,945.24 252.46,945.33C249.75,946.95 246.5,946.54 243.49,946.76Z" style="fill:rgb(145,95,216);fill-rule:nonzero;"/>
        <path d="M418.51,992.46C421.49,988.66 425.02,984.53 430.12,983.9C425.73,986.06 421.47,989.28 419.87,994.11C417.99,999.38 415.61,1005.36 417.72,1010.91C417.47,1012.26 417.96,1013.24 419.18,1013.85C419.35,1014.38 419.7,1015.43 419.87,1015.95C421.05,1018.08 423.06,1019.19 425.54,1018.81C425.15,1020.32 426.9,1021.47 428.22,1020.74C428.18,1022.19 428.16,1023.65 428.16,1025.13C424.97,1022.52 421.57,1020.18 417.79,1018.51C417.66,1018.19 417.41,1017.55 417.28,1017.22C416.68,1015.12 415.31,1013.4 413.29,1012.53C413.58,1012.38 414.16,1012.06 414.45,1011.9C413.94,1005.19 415.64,998.48 418.51,992.46Z" style="fill:rgb(145,95,216);fill-rule:nonzero;"/>
    </g>
    <g id="_-4a3994ff" serif:id="#4a3994ff">
    </g>
    <g id="_-e73e38ff" serif:id="#e73e38ff" transform="matrix(4.166667,0,0,4.166667,0,0)">
        <path d="M281.31,949.76C282.83,948.72 284.54,948 286.31,947.52C284.82,949.25 283.34,951.03 282.26,953.08C282.37,955.92 285.09,957.42 287.31,958.59C284.96,958.82 282.6,958.59 280.39,957.73C282.02,955.34 281.97,952.45 281.31,949.76Z" style="fill:rgb(231,62,56);fill-rule:nonzero;"/>
        <path d="M435.86,958.94C436.01,958.29 436.2,957.67 436.43,957.07C436.36,960.18 436.49,963.31 436.59,966.43C432.88,969.9 427.6,968.81 423.19,967.56L423.56,967.41C424.29,967.11 425.03,966.83 425.77,966.56C428.24,966.84 431.1,968.21 433.26,966.33C435.67,964.68 435.29,961.44 435.86,958.94Z" style="fill:rgb(231,62,56);fill-rule:nonzero;"/>
        <path d="M332.14,991.61C332.22,989.84 333.49,988.58 334.53,987.31C332.78,992.39 333.41,997.78 333.24,1003.04C332.63,1007.91 332.05,1013.13 334.03,1017.77C335.97,1020.49 339.38,1019.64 341.13,1017.24C339.91,1019.21 339.01,1022.38 336.01,1021.66C333.79,1021.98 332.72,1019.82 331.5,1018.44C331.93,1009.5 331.94,1000.55 332.14,991.61Z" style="fill:rgb(231,62,56);fill-rule:nonzero;"/>
        <path d="M449.14,987.24C453.5,991.87 455.35,999.95 451.17,1005.24C447.21,1009.85 440.73,1010.21 435.15,1011.16L434.13,1010.78C433.08,1010.38 432.06,1010.03 431.03,1009.66C437.52,1008.23 445.67,1009.01 450.23,1003.22C453.75,998.38 451.77,992 449.14,987.24Z" style="fill:rgb(231,62,56);fill-rule:nonzero;"/>
    </g>
    <g id="_-ee362bff" serif:id="#ee362bff" transform="matrix(4.166667,0,0,4.166667,0,0)">
        <path d="M267.41,953.97C269.03,951.5 270.86,948.82 274.19,948.99L273.59,950C272.75,951.75 270.81,953.58 271.93,955.62C272.65,957.33 274.11,958.56 275.42,959.81C271.35,961.63 268.42,957.34 267.41,953.97Z" style="fill:rgb(238,54,43);fill-rule:nonzero;"/>
    </g>
    <g id="_-fbfadeff" serif:id="#fbfadeff" transform="matrix(4.166667,0,0,4.166667,0,0)">
        <path d="M273.59,950C274.13,949.57 275.22,948.7 275.76,948.27C277.59,948.82 279.43,949.36 281.31,949.76C281.97,952.45 282.02,955.34 280.39,957.73C279.26,959.36 277.34,959.95 275.42,959.81C274.11,958.56 272.65,957.33 271.93,955.62C270.81,953.58 272.75,951.75 273.59,950Z" style="fill:rgb(251,250,222);fill-rule:nonzero;"/>
    </g>
    <g id="_-f8d23eff" serif:id="#f8d23eff" transform="matrix(4.166667,0,0,4.166667,0,0)">
        <path d="M423.56,967.41C419.66,963.72 422.38,957.12 427.26,956.07C426.19,957.64 425,959.19 424.44,961.05C424.06,962.98 425.21,964.76 425.77,966.56C425.03,966.83 424.29,967.11 423.56,967.41Z" style="fill:rgb(248,210,62);fill-rule:nonzero;"/>
    </g>
    <g id="_-f4c248ff" serif:id="#f4c248ff" transform="matrix(4.166667,0,0,4.166667,0,0)">
        <path d="M436.43,957.07C437.14,956.61 438.57,955.7 439.28,955.24C438.83,957.99 437.71,960.83 438.39,963.64C439.88,966.53 443.47,966.48 446.27,966.71C444.37,966.9 442.47,967.16 440.58,967.39C439.21,967.23 437.88,966.91 436.59,966.43C436.49,963.31 436.36,960.18 436.43,957.07Z" style="fill:rgb(244,194,72);fill-rule:nonzero;"/>
        <path d="M395.8,963.99C396.65,961.93 398.31,960.34 400.1,959.08C400.05,959.55 399.97,960.48 399.92,960.95C398.77,962.94 397.38,965.59 399.28,967.65C400.97,970.64 404.48,968.93 407.06,968.45C404.25,969.99 400.98,969.69 397.9,969.77L397.35,969.78C396.59,967.94 394.94,966.08 395.8,963.99Z" style="fill:rgb(244,194,72);fill-rule:nonzero;"/>
    </g>
    <g id="_-e8383aff" serif:id="#e8383aff" transform="matrix(4.166667,0,0,4.166667,0,0)">
        <path d="M448.45,956.79C451.36,959.28 451.83,964.2 448.8,966.8C446.66,969.21 443.19,968.46 440.58,967.39C442.47,967.16 444.37,966.9 446.27,966.71C448.96,964.16 451.02,960.18 448.45,956.79Z" style="fill:rgb(232,56,58);fill-rule:nonzero;"/>
        <path d="M409.75,960.93C409.57,963.69 410.15,966.91 407.92,969.06C405.59,972.17 400.72,972.27 397.9,969.77C400.98,969.69 404.25,969.99 407.06,968.45C408.53,966.17 409.37,963.59 409.75,960.93Z" style="fill:rgb(232,56,58);fill-rule:nonzero;"/>
        <path d="M347.76,988.93L348.26,989.83C349.2,991.42 350.08,993.11 351.45,994.41C353.04,995.27 354.87,995.5 356.6,995.99C356.39,996.6 355.96,997.82 355.75,998.43C353.18,997.36 349.96,997 348.42,994.4C347.06,992.89 347.84,990.72 347.76,988.93Z" style="fill:rgb(232,56,58);fill-rule:nonzero;"/>
        <path d="M481.56,1001.61C482.75,998.86 485.83,999.43 488.26,999.38C486.61,1000.11 484.95,1000.87 483.53,1002.01C479.91,1008.33 476.58,1014.86 474.71,1021.94C474,1025.24 470.62,1026.16 467.79,1026.91C468.05,1026.57 468.58,1025.9 468.84,1025.57C469.52,1025.08 470.21,1024.61 470.91,1024.16C472.81,1023.05 473.3,1020.74 473.98,1018.83C475.57,1012.72 478.67,1007.16 481.56,1001.61Z" style="fill:rgb(232,56,58);fill-rule:nonzero;"/>
        <path d="M353.82,1017.04C353.42,1011.66 354.49,1006.27 354.7,1000.89C356.4,1005.55 353.85,1010.34 354.77,1015.08C355.72,1017.86 357.64,1020.24 359.84,1022.16C362.13,1024.31 365.51,1023.66 368.38,1023.9C369.29,1022.9 370.22,1021.92 371.11,1020.92C370.73,1023.52 369.09,1026.75 366.04,1026.63C360.08,1027.67 355.38,1022.19 353.82,1017.04Z" style="fill:rgb(232,56,58);fill-rule:nonzero;"/>
    </g>
    <g id="_-fafadeff" serif:id="#fafadeff" transform="matrix(4.166667,0,0,4.166667,0,0)">
        <path d="M331.54,966.8C335.65,965.33 341.22,966.13 343.39,970.4C344.68,974.46 341.44,977.91 339.13,980.85C336.02,980.62 332.83,979.47 331.54,976.38C329.39,973.48 330.62,969.88 331.54,966.8Z" style="fill:rgb(250,250,222);fill-rule:nonzero;"/>
        <path d="M283.73,968.47C287.38,966.21 294.09,969.28 292.66,974.1C292.26,977.48 289.74,980.71 286.17,981C281.15,979.79 280.05,973.55 282.79,969.69C282.45,969.4 281.78,968.82 281.45,968.53L281.27,968.36C281.88,968.39 283.11,968.44 283.73,968.47Z" style="fill:rgb(250,250,222);fill-rule:nonzero;"/>
    </g>
    <g id="_-ed3227ff" serif:id="#ed3227ff" transform="matrix(4.166667,0,0,4.166667,0,0)">
        <path d="M226.63,977.01C226.71,973.87 227.33,969.37 231.01,968.56C231.22,968.89 231.64,969.55 231.85,969.87C231.1,972.89 229.15,976.67 231.68,979.38C234.37,982.08 237.74,983.98 241.05,985.83C245.61,988.18 249.42,991.75 254.08,993.92C256.83,995.2 259.65,996.33 262.34,997.74C255.43,1003.44 246.94,1006.55 239.49,1011.4C237.71,1012.6 235.62,1013.15 233.53,1013.53C231.45,1015.77 229.91,1018.6 229.74,1021.7C230.47,1023.89 232.5,1025.25 234.34,1026.47C231.08,1027.26 227.71,1025.17 227.41,1021.76C227.57,1019.15 228.15,1016.08 230.47,1014.53C232.94,1013.31 235.68,1012.65 237.96,1011.06C243.28,1007.53 249.28,1005.22 254.64,1001.79C255.94,1000.78 257.77,999.95 257.97,998.12C256.76,996.82 254.9,996.48 253.36,995.73C246.67,993.13 241.36,988.13 235.07,984.81C231.92,982.67 227.99,980.85 226.63,977.01Z" style="fill:rgb(237,50,39);fill-rule:nonzero;"/>
        <path d="M501.35,997.54C502.83,998.99 502.49,1001.19 502.89,1003.06C504.02,1010.74 505.14,1018.54 504.05,1026.31C503.68,1026.51 502.94,1026.92 502.57,1027.12L501.99,1027.01C505.66,1017.4 501.33,1007.34 501.35,997.54Z" style="fill:rgb(237,50,39);fill-rule:nonzero;"/>
    </g>
    <g id="_-fbfbdeff" serif:id="#fbfbdeff" transform="matrix(4.166667,0,0,4.166667,0,0)">
        <path d="M231.85,969.87C233.07,968.46 235.31,967.9 236.86,969.13C247.02,977.49 258.32,984.69 270.82,989.03C274.77,990.1 277.23,994.09 277.75,997.95C277.38,1003.71 271.81,1007.46 266.62,1008.71C266.32,1009.09 265.72,1009.85 265.42,1010.23C260.53,1011.47 256.55,1014.83 252.19,1017.23C249.03,1017.62 247.01,1020.36 244.15,1021.47C242.01,1022.3 240.13,1023.81 240.07,1026.31C238.16,1026.37 236.25,1026.49 234.34,1026.47C232.5,1025.25 230.47,1023.89 229.74,1021.7C229.91,1018.6 231.45,1015.77 233.53,1013.53C235.62,1013.15 237.71,1012.6 239.49,1011.4C246.94,1006.55 255.43,1003.44 262.34,997.74C259.65,996.33 256.83,995.2 254.08,993.92C249.42,991.75 245.61,988.18 241.05,985.83C237.74,983.98 234.37,982.08 231.68,979.38C229.15,976.67 231.1,972.89 231.85,969.87Z" style="fill:rgb(251,251,222);fill-rule:nonzero;"/>
        <path d="M230.1,991.09C232.86,990.03 235.89,991.26 238.39,992.49C240.33,993.43 242.2,995.7 241.45,997.97C240.8,1002.29 235.98,1004.03 232.22,1004.51C229.32,1002.85 226.13,1000.63 225.73,997.02C226.09,994.39 228.13,992.6 230.1,991.09Z" style="fill:rgb(251,251,222);fill-rule:nonzero;"/>
    </g>
    <g id="_-ec4040ff" serif:id="#ec4040ff" transform="matrix(4.166667,0,0,4.166667,0,0)">
        <path d="M295.59,1009.55C292.06,1000.73 295.9,988.82 304.79,984.82C300.56,988.83 297.51,994.23 296.65,1000.02C295.57,1007.89 302.17,1015.64 310.05,1016.03C308.52,1016.58 306.99,1017.16 305.43,1017.64C301.38,1016.2 298.04,1012.99 295.59,1009.55Z" style="fill:rgb(236,64,64);fill-rule:nonzero;"/>
    </g>
    <g id="_-e73536ff" serif:id="#e73536ff" transform="matrix(4.166667,0,0,4.166667,0,0)">
        <path d="M280.48,1000.03C281.1,995.27 278.93,988.49 284.6,986.11L284.36,987.9C283.27,995.54 282.99,1003.31 283.53,1011.01C283.51,1014.4 286.66,1016.16 289.14,1017.78C287.35,1017.63 285.47,1017.93 283.76,1017.32C278.84,1012.96 280.92,1005.78 280.48,1000.03Z" style="fill:rgb(231,53,54);fill-rule:nonzero;"/>
    </g>
    <g id="_-f4cb31ff" serif:id="#f4cb31ff" transform="matrix(4.166667,0,0,4.166667,0,0)">
        <path d="M461.3,998.04C460.02,994.6 460.12,989.82 463.74,987.88C463.17,991.84 464.58,995.79 463.83,999.74C462.83,1006.72 461.95,1013.87 462.88,1020.9C463.78,1024.35 467.87,1025.42 470.91,1024.16C470.21,1024.61 469.52,1025.08 468.84,1025.57C468.58,1025.9 468.05,1026.57 467.79,1026.91C465.51,1030.35 459.88,1027.61 459.51,1023.97C458.97,1015.29 459.56,1006.53 461.3,998.04Z" style="fill:rgb(244,203,49);fill-rule:nonzero;"/>
    </g>
    <g id="_-eb403eff" serif:id="#eb403eff" transform="matrix(4.166667,0,0,4.166667,0,0)">
        <path d="M378.48,989.17L378.97,989.15C378.92,990.34 378.85,991.55 378.77,992.77C377.7,994.6 376.91,996.62 375.6,998.31C372.4,998.9 369.13,998.72 365.9,998.74C365.99,998.21 366.18,997.14 366.27,996.6C369.61,996.67 372.95,996.55 376.29,996.35C377.2,994.01 377.94,991.61 378.48,989.17Z" style="fill:rgb(235,64,62);fill-rule:nonzero;"/>
    </g>
    <g id="_-8d54b2ff" serif:id="#8d54b2ff" transform="matrix(4.166667,0,0,4.166667,0,0)">
        <path d="M378.26,999.07C379.35,996.1 379.85,992.41 383,990.89C381.99,993.57 381.07,996.31 380,998.99C378.26,1002.73 377.71,1007.04 378.98,1011.03C380.35,1013.71 381.29,1017.05 384.14,1018.57C386.93,1020.17 389.66,1021.89 392.4,1023.6C396.83,1026.41 402.33,1025.83 407.34,1025.76C402.43,1027.62 396.55,1027.28 391.7,1025.32C388.01,1023.02 384.39,1020.6 380.75,1018.25C376.23,1012.99 376.37,1005.38 378.26,999.07Z" style="fill:rgb(141,84,178);fill-rule:nonzero;"/>
    </g>
    <g id="_-ac3b66ff" serif:id="#ac3b66ff" transform="matrix(4.166667,0,0,4.166667,0,0)">
        <path d="M331,1007.01C331.82,1001.9 329.94,996.47 332.14,991.61C331.94,1000.55 331.93,1009.5 331.5,1018.44C330.6,1014.69 330.38,1010.81 331,1007.01Z" style="fill:rgb(172,59,102);fill-rule:nonzero;"/>
    </g>
    <g id="_-c78cb5ff" serif:id="#c78cb5ff" transform="matrix(4.166667,0,0,4.166667,0,0)">
        <path d="M378.98,1011.03C377.71,1007.04 378.26,1002.73 380,998.99C379.71,1002.2 379.66,1005.43 379.48,1008.67C379.36,1009.26 379.11,1010.44 378.98,1011.03Z" style="fill:rgb(199,140,181);fill-rule:nonzero;"/>
    </g>
    <g id="_-f0c638ff" serif:id="#f0c638ff" transform="matrix(4.166667,0,0,4.166667,0,0)">
        <path d="M483.53,1002.01C484.95,1000.87 486.61,1000.11 488.26,999.38C491.78,1004.27 492.05,1010.77 492.28,1016.6C491.06,1018.86 489.73,1021.06 488.7,1023.43C489.03,1017.5 488.27,1011.61 487.07,1005.82C486.63,1004.01 484.76,1003.16 483.53,1002.01Z" style="fill:rgb(240,198,56);fill-rule:nonzero;"/>
    </g>
    <g id="_-ea4842ff" serif:id="#ea4842ff" transform="matrix(4.166667,0,0,4.166667,0,0)">
        <path d="M393.31,1008.84C400.17,1008.65 408.08,1008.09 412.59,1002.12C413.29,1005.18 410.38,1007.01 408.16,1008.34C404.44,1010.1 400.18,1010.95 396.07,1010.55C395.51,1010.47 394.4,1010.31 393.84,1010.24C393.7,1009.89 393.44,1009.19 393.31,1008.84Z" style="fill:rgb(234,72,66);fill-rule:nonzero;"/>
        <path d="M296.36,1025.05C297.15,1023.16 298.17,1021.38 299.51,1019.84C299.06,1022.86 298.72,1026.71 301.88,1028.45C306.13,1029.13 310.17,1027.07 314.28,1026.33C312.24,1028.78 308.97,1029.18 306.07,1029.96C304.06,1030.37 301.82,1030.98 299.85,1030.16C298.2,1028.83 297.4,1026.8 296.36,1025.05Z" style="fill:rgb(234,72,66);fill-rule:nonzero;"/>
    </g>
    <g id="_-c681b0ff" serif:id="#c681b0ff" transform="matrix(4.166667,0,0,4.166667,0,0)">
        <path d="M417.72,1010.91C419.08,1011.44 419.57,1012.42 419.18,1013.85C417.96,1013.24 417.47,1012.26 417.72,1010.91Z" style="fill:rgb(198,129,176);fill-rule:nonzero;"/>
    </g>
    <g id="_-c57dafff" serif:id="#c57dafff" transform="matrix(4.166667,0,0,4.166667,0,0)">
        <path d="M419.18,1013.85C419.46,1014.19 420.02,1014.86 420.3,1015.19L419.87,1015.95C419.7,1015.43 419.35,1014.38 419.18,1013.85Z" style="fill:rgb(197,125,175);fill-rule:nonzero;"/>
    </g>
    <g id="_-d45a75ff" serif:id="#d45a75ff" transform="matrix(4.166667,0,0,4.166667,0,0)">
        <path d="M419.87,1015.95C422.06,1016.2 424.05,1017.16 425.54,1018.81C423.06,1019.19 421.05,1018.08 419.87,1015.95Z" style="fill:rgb(212,90,117);fill-rule:nonzero;"/>
    </g>
    <g id="_-d4536dff" serif:id="#d4536dff" transform="matrix(4.166667,0,0,4.166667,0,0)">
        <path d="M425.54,1018.81C426.62,1018.82 427.52,1019.24 428.24,1020.07L428.22,1020.74C426.9,1021.47 425.15,1020.32 425.54,1018.81Z" style="fill:rgb(212,83,109);fill-rule:nonzero;"/>
    </g>
    <g id="_-cc9f4eff" serif:id="#cc9f4eff" transform="matrix(4.166667,0,0,4.166667,0,0)">
        <path d="M428.24,1020.07C428.94,1020.72 429.64,1021.39 430.34,1022.08C430.67,1022.5 431.33,1023.35 431.66,1023.77C435.86,1025.91 440.65,1026.24 445.27,1026.46C439.72,1028.09 433.28,1028.09 428.16,1025.13C428.16,1023.65 428.18,1022.19 428.22,1020.74L428.24,1020.07Z" style="fill:rgb(204,159,78);fill-rule:nonzero;"/>
    </g>
</svg>
