<?xml version="1.0" encoding="UTF-8" standalone="no"?>
<!DOCTYPE svg PUBLIC "-//W3C//DTD SVG 1.1//EN" "http://www.w3.org/Graphics/SVG/1.1/DTD/svg11.dtd">
<svg width="100%" height="100%" viewBox="0 0 1761 769" version="1.1" xmlns="http://www.w3.org/2000/svg" xmlns:xlink="http://www.w3.org/1999/xlink" xml:space="preserve" xmlns:serif="http://www.serif.com/" style="fill-rule:evenodd;clip-rule:evenodd;stroke-linejoin:round;stroke-miterlimit:2;">
    <g transform="matrix(1,0,0,1,-873.821007,-1369.492871)">
        <g transform="matrix(1.007617,0,0,1.007617,-221.422523,-63.68078)">
            <g transform="matrix(2.220663,0,0,2.220663,-1095.646071,1129.988823)">
                <path d="M1013.73,131.65C1016.8,131.69 1020.1,131.47 1022.82,133.21C1027.69,135.43 1030.45,140.28 1034.77,143.25C1039.66,146.59 1041.96,152.29 1046.31,156.19C1052.47,157.38 1057.72,160.96 1063.09,163.99C1068.55,167.4 1074.91,169.08 1080.16,172.89C1085.11,176.37 1091.3,177.18 1096.46,180.28C1100.53,182.61 1104.88,184.35 1109.25,186.05C1113.75,187.81 1117.19,191.78 1122.09,192.57C1127.62,193.49 1132.82,196.26 1136.85,200.13C1142.81,207.58 1142.35,218.27 1138.56,226.58C1134.68,231.9 1127.57,232.87 1122.32,236.34C1119.05,238.57 1115.7,240.68 1112,242.11C1108.06,243.38 1106.02,247.29 1102.58,249.32C1096.46,253 1090.16,256.37 1084.11,260.16C1079.14,263.26 1073.32,264.97 1068.87,268.88C1063.19,274.15 1055.91,277.13 1049.73,281.74C1042.95,285.37 1039.11,293.43 1031.14,294.91C1025.33,295.58 1019.62,298.93 1013.72,297.14C1009.99,295.21 1005.8,292.56 1004.98,288.09C1003.32,283.16 1005.34,278.13 1006.69,273.41C1009.2,267.73 1015.33,265.07 1020.47,262.28C1020.5,261.68 1020.55,260.47 1020.58,259.87C1024.44,257.82 1028.01,255.25 1031.12,252.16C1041.9,246.11 1051.49,238.19 1062.39,232.34C1071.37,226.89 1081.14,222.7 1089.41,216.14C1084.3,212.71 1078.39,210.92 1072.79,208.51C1068.22,206.6 1064.28,203.57 1060.23,200.79C1053.74,199.45 1048.39,195.39 1042.6,192.43C1035.46,188.78 1027.84,185.64 1021.82,180.21C1015.92,173.42 1010.31,166.36 1004.67,159.35C1000.89,152.8 1002.18,144.39 1006.23,138.27C1006.38,137.78 1006.67,136.82 1006.82,136.33C1009.27,135.01 1011.59,133.45 1013.73,131.65Z" style="fill:rgb(252,252,222);fill-rule:nonzero;"/>
            </g>
            <g transform="matrix(2.220663,0,0,2.220663,-1095.646071,1129.988823)">
                <path d="M1156.45,138.51C1160.35,135.86 1164.76,132.48 1169.79,133.53C1174.26,134.45 1179.05,136.23 1181.85,140.03C1183.85,144.4 1182.95,149.39 1183.99,154C1183.42,158.48 1184.11,163.05 1183.29,167.48C1181.46,173.54 1176.85,180 1169.96,180.3C1166.35,180.39 1162.4,180.71 1159.17,178.86C1154.88,175.38 1150.27,170.94 1150.24,164.99C1149.43,159.07 1153.24,153.91 1153.44,148.1C1153.87,144.81 1153.27,140.63 1156.45,138.51Z" style="fill:rgb(252,252,222);fill-rule:nonzero;"/>
            </g>
            <g transform="matrix(2.220663,0,0,2.220663,-1095.646071,1129.988823)">
                <path d="M1302.67,139.11C1307.16,136.5 1311.34,131.95 1317.07,133.22C1322.38,134.24 1328.71,137.31 1329.35,143.39C1332.53,153.64 1331,164.39 1328.43,174.58C1325.59,178.48 1321.32,182.12 1316.17,181.55C1310.09,180.99 1302.93,178.42 1300.64,172.21C1299.9,170.59 1299.27,168.92 1298.62,167.28C1299.46,163.16 1299.45,158.94 1300.29,154.82C1300.83,149.56 1300.52,144.08 1302.67,139.11Z" style="fill:rgb(252,252,222);fill-rule:nonzero;"/>
            </g>
            <g transform="matrix(2.220663,0,0,2.220663,-1095.646071,1129.988823)">
                <path d="M1257.49,152.87C1260.66,149.93 1263.8,146.51 1268.11,145.32C1273.76,144.18 1278.78,147.81 1282.67,151.46C1282.07,157 1282.12,162.61 1283.05,168.12C1283.58,174.8 1283.79,181.55 1283.08,188.22C1283.9,196.84 1284.15,205.71 1281.81,214.13C1280.89,217.4 1282.86,220.66 1282.18,223.95C1281.51,227.83 1280.44,231.63 1279.67,235.48C1278.9,239.58 1280.45,243.91 1278.93,247.89C1277.79,251.16 1276.69,254.5 1276.57,257.99C1276.45,263.09 1273.24,267.32 1271.77,272.05C1270.45,275.88 1268.12,279.43 1264.61,281.57C1259.94,284.52 1256.76,289.42 1251.65,291.71C1247.51,293.51 1243.39,295.52 1238.9,296.27C1232.94,297.32 1227.2,299.97 1221.03,299.32C1214.79,298.82 1207.72,300.72 1202.32,296.66C1198.47,294.66 1196.26,290.3 1196.63,286.04C1197.23,282.96 1198.25,279.98 1199.28,277.03C1199.32,276.51 1199.41,275.47 1199.45,274.95C1201.25,273.8 1203.03,272.62 1204.79,271.39C1211.4,270.47 1217.98,273.66 1224.5,271.68C1228.56,270.55 1232.87,270.34 1236.86,268.89C1240.78,266.96 1243.84,263.7 1247.45,261.28C1241.88,261.85 1236.07,262.44 1230.77,260.19C1223.24,258.03 1216.04,254.18 1211.06,248.02C1208.74,244.7 1207.57,240.77 1205.71,237.22C1200.73,228.33 1201.6,217.72 1201.73,207.91C1203.88,204.95 1204.89,201.42 1204.78,197.76C1208.5,192.8 1211.13,187 1215.6,182.63C1219.41,179.69 1223.54,177.14 1227.69,174.69C1237.14,170.12 1248.02,169.65 1258.26,171.2C1257.38,168.97 1255.3,166.72 1256.33,164.19C1257.53,160.53 1257.75,156.68 1257.49,152.87M1234.18,202.12C1230.86,206.25 1227.67,210.79 1226.29,215.96C1226.27,219.8 1228.12,223.38 1228.71,227.16C1229.05,227.51 1229.74,228.21 1230.09,228.56C1231.36,230.53 1232.56,232.96 1235.06,233.58C1241.45,235.13 1248.14,234.28 1254.55,233.19C1257.74,222.55 1257.1,211.38 1258.63,200.49C1251.19,196.41 1240.65,196.02 1234.18,202.12Z" style="fill:rgb(252,252,222);fill-rule:nonzero;"/>
            </g>
            <g transform="matrix(2.220663,0,0,2.220663,-1095.646071,1129.988823)">
                <path d="M1374.64,151.45C1377.66,147.99 1382.37,145.51 1387.05,145.94C1390.98,147.07 1394.55,149.37 1397.39,152.3C1397.48,155.9 1398.46,159.43 1398.45,163.04C1398.15,167.2 1396.24,171.15 1396.54,175.37C1396.86,178.89 1395.92,182.3 1395.23,185.71C1403.33,185.42 1412.39,183.79 1419.62,188.41C1423.82,190.84 1425.27,196.41 1423.89,200.88C1422.99,204.01 1423.01,208.16 1419.5,209.62C1415.02,213.14 1409.17,212.09 1403.91,212.63C1400.74,212.95 1397.55,212.88 1394.4,212.65C1395.46,226.88 1391.34,241.19 1394.46,255.3C1394.84,259.81 1394.38,265.5 1398.45,268.54C1402.01,268.53 1405.33,266.3 1409,266.52C1412.51,266.22 1415.3,268.7 1418.25,270.21C1419.92,275.3 1420.42,280.92 1419,286.12C1418.27,289.12 1415.22,290.46 1412.85,291.94C1409.77,293.61 1406.72,295.85 1403.05,295.78C1399.73,295.85 1396.41,295.95 1393.12,295.65C1386.72,294.15 1381.46,289.94 1376.81,285.5C1373.4,280.59 1371.97,274.73 1370.59,269.01C1369.41,263.73 1369.83,258.24 1368.62,252.96C1368.61,247.63 1368.08,242.3 1368.56,236.98C1369.47,229.17 1369.64,221.29 1369.71,213.44C1363.77,213.61 1357.79,213.86 1351.92,212.85C1348.85,212.29 1346.29,210.38 1343.55,209.04C1342.02,202.75 1341.13,195.7 1344.86,189.97C1347.49,188.74 1349.93,186.7 1352.95,186.55C1358.84,186.24 1364.74,186.18 1370.65,186.44C1372.59,180.26 1370.8,173.78 1372.23,167.54C1373.16,162.22 1371.79,156.31 1374.64,151.45Z" style="fill:rgb(252,252,222);fill-rule:nonzero;"/>
            </g>
            <g transform="matrix(2.220663,0,0,2.220663,-1095.646071,1129.988823)">
                <path d="M1467.15,155.25C1473.76,151.72 1480.15,146.91 1487.95,146.68C1495.14,146.39 1502.65,146.29 1509.56,148.57C1516.34,151.92 1524.38,155.52 1526.92,163.31C1529.58,166.77 1532.34,170.47 1532.99,174.92C1533.61,179.45 1535.25,183.95 1534.41,188.58C1533.55,193.72 1534.02,199.43 1530.74,203.82C1530.63,204.33 1530.42,205.34 1530.31,205.85C1528.42,208.71 1526.63,211.89 1523.39,213.41C1517.26,216.56 1511.96,221.26 1505.29,223.32C1501.13,224.94 1496.64,223.99 1492.33,224.41C1488.28,224.82 1484.14,224.74 1480.21,223.64C1474.81,221.93 1469.21,221.09 1463.66,220.1C1461.72,229.25 1463.14,238.69 1465.21,247.68C1467.22,255.64 1471.44,264.61 1479.99,267.05C1490.1,270.51 1501.57,272.38 1511.83,268.45C1515.93,267.01 1519.29,264.02 1523.45,262.69C1527.59,261.45 1531.57,263.93 1534.96,266.05C1537.14,267.25 1537.81,269.72 1538.42,271.96C1540.74,278.16 1537.29,285.52 1531.67,288.69C1527.22,291.16 1522.82,293.97 1517.89,295.32C1511.87,295.91 1506.06,298.37 1499.94,297.67C1490.16,296.52 1479.96,296.6 1470.9,292.21C1464.27,289.71 1457.78,286.33 1452.98,281.01C1451.12,278.8 1449.76,276.24 1448.11,273.89C1445.17,269.86 1443.94,264.96 1441.61,260.61C1441.72,255.65 1439.56,251.01 1439.36,246.08C1439.1,240.71 1437.19,235.45 1437.91,230.05C1438.38,226.7 1437.94,223.34 1437.93,219.99C1438.49,212.24 1440.81,204.74 1441.66,197.02C1444.15,190.79 1444.86,183.63 1449.36,178.38C1452.02,173.87 1453.69,168.82 1456.19,164.24C1459.81,161.21 1462.84,157.37 1467.15,155.25M1477.68,180.69C1477.55,181.16 1477.29,182.12 1477.16,182.6C1473.61,185.25 1471.97,189.39 1470.82,193.5C1476.09,195.15 1481.42,196.73 1486.94,197.29C1492.32,197.71 1498.19,198.32 1502.88,195.06C1506.34,193.65 1508.01,190.21 1509.71,187.13C1507.66,183.49 1505.64,179.79 1504.35,175.8C1499.54,173.77 1494.15,173.59 1489.03,173.92C1484.57,174.75 1481.13,178 1477.68,180.69Z" style="fill:rgb(252,252,222);fill-rule:nonzero;"/>
            </g>
            <g transform="matrix(2.220663,0,0,2.220663,-1095.646071,1129.988823)">
                <path d="M1570.45,155.57C1577.32,151.93 1583.93,146.87 1592.04,146.67C1600.81,146.42 1610.38,146.07 1618.1,150.97C1622.06,153.42 1626.67,155.5 1629.09,159.72C1630.75,162.73 1632.81,165.5 1634.67,168.39C1636.86,171.81 1636.91,176 1637.93,179.83C1639.35,184.52 1637.81,189.36 1637.5,194.09C1637.31,199.27 1634.71,203.87 1632.27,208.29C1630.11,212.55 1625.3,214.1 1621.62,216.66C1615.81,220.61 1609.31,224.69 1602.02,224.3C1596.65,224.02 1591.25,225.41 1585.96,224.02C1579.93,222.39 1573.81,221.12 1567.65,220.09C1565.75,227.84 1566.93,235.8 1568.17,243.54C1569.69,251.45 1572.51,259.8 1579.15,264.89C1586.08,268.76 1594.09,270.03 1601.92,270.61C1606.54,271.17 1611.12,269.93 1615.49,268.54C1619.95,267.06 1623.52,263.61 1628.12,262.49C1633.2,261.7 1637.51,265.23 1641.34,268.05C1642.04,271.84 1644.01,275.74 1642.52,279.61C1641.46,283.91 1638.3,287.38 1634.42,289.38C1629.81,291.72 1625.36,294.89 1620.13,295.6C1615.04,296.17 1610.12,298.17 1604.94,297.73C1594.57,296.59 1583.73,296.69 1574.16,291.94C1565.76,288.84 1557.56,283.82 1553.22,275.71C1549.62,271.3 1548.12,265.78 1545.56,260.8C1545.38,255.78 1543.63,251 1543.24,246.01C1542.84,240.66 1541.14,235.41 1541.69,230.01C1542.11,225.31 1541.24,220.56 1542.22,215.91C1544.19,205.81 1545.34,195.48 1549.16,185.85C1549.99,181.29 1554.25,178.53 1555.26,174.04C1557.17,170.93 1558.28,167.4 1560.07,164.26C1563.54,161.39 1566.4,157.7 1570.45,155.57M1581.66,180.53C1581.5,181.04 1581.18,182.06 1581.02,182.57C1577.62,185.2 1575.39,189.18 1575.16,193.5C1583.35,196.67 1592.28,198.08 1601.05,197.44C1604.49,196.65 1607.42,194.51 1610.48,192.81C1611.45,190.87 1612.47,188.94 1613.52,187.02C1611.51,183.43 1609.48,179.82 1608.27,175.88C1604.15,173.88 1599.43,173.81 1594.95,173.78C1589.66,173.64 1585.62,177.59 1581.66,180.53Z" style="fill:rgb(252,252,222);fill-rule:nonzero;"/>
            </g>
            <g transform="matrix(2.220663,0,0,2.220663,-1095.646071,1129.988823)">
                <path d="M1663.97,151.99C1667.07,150.12 1670.04,147.49 1673.87,147.4C1678.18,146.77 1683,147.6 1686.18,150.8C1688.08,153.44 1687.47,156.9 1687.58,159.95C1687.35,165.05 1687.76,170.26 1686.42,175.24C1685.65,178.13 1685.74,181.14 1685.78,184.11C1686.07,183.42 1686.38,182.73 1686.71,182.04C1690.16,179.07 1693.17,175.56 1697.04,173.08C1704.18,168.49 1711.57,163.76 1720.18,162.61C1729.41,161.66 1739.83,161.48 1747.51,167.56C1750.77,170.6 1753.42,174.27 1756.04,177.87C1760.73,188.61 1763.47,200.24 1763.78,211.98C1763.58,223.67 1764.93,235.39 1763.82,247.07C1763.28,254.41 1764.52,261.83 1763.26,269.12C1762.2,274.39 1764.14,279.84 1762.2,285C1761.48,291.43 1755.84,295.93 1750.03,297.72C1744.53,298.85 1739.89,295.03 1736.32,291.38C1737.26,271.24 1739.32,251.1 1738.49,230.91C1737.85,220.98 1739.72,210.74 1736.51,201.11C1734.7,197.74 1731.62,195.18 1730.1,191.62C1725.9,190.57 1721.29,189.32 1717.12,191.06C1711.31,193.96 1706.45,198.72 1703.53,204.53C1700.55,210.42 1695.47,215.38 1693.9,221.88C1693.82,230.13 1689.97,237.7 1689.76,245.92C1689.67,249.75 1688.82,253.48 1688.31,257.25C1685.18,263.71 1685.22,271.07 1685.16,278.08C1684.14,282.79 1684.8,288.41 1681.06,292.05C1677.81,294.95 1673.37,297.02 1668.95,296.41C1666.38,295.77 1664.21,294.19 1661.91,292.99C1660.46,290.53 1658.27,288.14 1658.62,285.08C1658.58,275.76 1658.04,266.44 1658.21,257.12C1657.69,252.74 1657.27,248.3 1658.04,243.92C1659.11,237.46 1657.66,230.9 1658.61,224.43C1659.41,219.3 1659.47,214.1 1659.88,208.94C1659.5,203.13 1658.79,197.27 1659.78,191.48C1660.86,185.57 1659.84,179.47 1661.37,173.61C1662.37,169.83 1661.11,165.91 1662.04,162.13C1662.81,158.78 1663.57,155.41 1663.97,151.99Z" style="fill:rgb(252,252,222);fill-rule:nonzero;"/>
            </g>
            <g transform="matrix(2.220663,0,0,2.220663,-1095.646071,1129.988823)">
                <path d="M1156.9,199.87C1160.53,196.24 1164.12,190.99 1169.95,191.55C1174.57,191.13 1178.49,194.51 1180.62,198.3C1182.3,202.61 1183.98,207.24 1182.97,211.93C1182.11,216.55 1180.68,221.68 1183.78,225.82C1183.51,231.27 1181.78,236.51 1181.37,241.94C1181.23,249.61 1180.04,257.29 1181.18,264.95C1182.25,273.34 1179.65,281.68 1180.85,290.05C1181.26,295.27 1176.65,299.32 1172.27,301.26C1166.73,303.19 1161.19,300.74 1156.52,297.89C1154.02,293.75 1157.54,289.09 1154.99,284.94C1154.35,278.4 1154.76,271.79 1153.74,265.29C1152.44,257.17 1155.07,249.11 1154.57,240.96C1155.17,233.63 1154.17,226.24 1155.11,218.95C1154.72,214.92 1154.6,210.87 1154.53,206.83C1155.41,204.54 1156.18,202.21 1156.9,199.87Z" style="fill:rgb(252,252,222);fill-rule:nonzero;"/>
            </g>
            <g transform="matrix(2.220663,0,0,2.220663,-1095.646071,1129.988823)">
                <path d="M1309.03,195.01C1312.93,191.06 1319.16,192.21 1323.83,193.94C1327.78,196.8 1328.97,202.32 1328.76,206.96C1328.43,211.78 1330.71,216.22 1331.1,220.94C1329.52,235.24 1332,249.78 1328.93,263.96C1330.55,271.92 1328.08,279.8 1328.23,287.77C1326.94,290.77 1326.55,294.62 1323.48,296.43C1320.32,298.36 1316.76,300.12 1312.99,300.09C1308.28,299.54 1303.28,296.61 1302.03,291.78C1300.26,286.84 1303.7,282.06 1303.38,277.07C1303.23,270.62 1302.02,264.19 1303.2,257.75C1303.98,252.56 1303.42,247.29 1303.85,242.07C1303.98,237.03 1305.27,232.08 1305.22,227.03C1304.89,220.34 1303.86,213.71 1303.54,207.02C1306.79,203.62 1305.26,197.97 1309.03,195.01Z" style="fill:rgb(252,252,222);fill-rule:nonzero;"/>
            </g>
            <g transform="matrix(2.220663,0,0,2.220663,-1095.646071,1129.988823)">
                <path d="M1005.78,195.79C1010.37,194.4 1015.28,194.6 1020.02,194.93C1025.44,195.42 1029.45,199.4 1033.43,202.69C1035.58,205.97 1037.82,209.21 1039.59,212.74C1038.4,218.43 1037.87,224.24 1036.52,229.9C1032.75,233.47 1027.53,234.5 1023.23,237.22C1019.48,239.34 1015.09,241.66 1010.69,240.19C1004.17,237.51 998.19,233.63 993.15,228.7C993.02,221.07 992.84,213.35 994.77,205.9C998.17,202.3 1000.75,197.32 1005.78,195.79Z" style="fill:rgb(252,252,222);fill-rule:nonzero;"/>
            </g>
            <g transform="matrix(2.220663,0,0,2.220663,-1095.646071,1129.988823)">
                <path d="M1221.52,313.31C1226.77,308.07 1234.57,306.06 1241.84,306.32C1247.97,307.52 1252.13,312.58 1255.81,317.22C1257.46,319.35 1257.61,322.12 1258.12,324.68C1258.74,322.68 1259.4,320.7 1260.09,318.73C1260.36,316.65 1259.68,314.01 1261.56,312.53C1265.01,309.42 1269.73,308.39 1274.13,307.38C1280.42,305.74 1287.48,308.53 1291.23,313.79C1295.03,317.89 1293.34,323.96 1291.76,328.67C1289.17,333.68 1286.99,340.22 1280.98,341.96C1276.1,343.28 1270.78,344.65 1265.81,343.11C1262.48,341.11 1260.59,337.49 1257.73,334.94C1257.23,332.11 1256.82,329.26 1256.46,326.41C1255.6,330.08 1255.04,333.82 1254.01,337.45C1252.96,339.46 1251,340.79 1249.39,342.33C1249.19,342.87 1248.78,343.96 1248.58,344.51C1241.6,345.73 1233.89,347.22 1227.33,343.63C1224.77,341.81 1223.28,338.91 1221.14,336.67C1221.17,336.04 1221.23,334.79 1221.26,334.16C1220.13,332.65 1219.02,331.13 1217.94,329.59C1219.65,325.93 1220.54,321.98 1221.58,318.09C1221.48,316.49 1221.33,314.89 1221.52,313.31Z" style="fill:rgb(252,252,222);fill-rule:nonzero;"/>
            </g>
            <g transform="matrix(2.220663,0,0,2.220663,-1095.646071,1129.988823)">
                <path d="M1481.1,316.34C1489.29,314.03 1497.59,311.79 1506.14,311.38C1514.11,312.38 1521.88,315 1528.77,319.18C1534.34,321.65 1537.78,326.89 1542.32,330.73C1547.39,335.06 1547.99,342.12 1549.93,348.09C1550.34,349.83 1551.69,351.07 1552.81,352.4C1552.3,357.12 1552.27,361.92 1551.38,366.59C1549.76,370.81 1548.89,375.27 1549.15,379.8C1559.09,378.76 1569.07,380.1 1579,378.9C1589.6,377.24 1600.33,378.81 1610.96,379.37C1618.6,378.86 1626.25,379.97 1633.9,379.2C1640.99,379.09 1648.62,376.25 1655.34,379.78C1658.82,383.06 1662.84,386.42 1664.28,391.17C1663.82,396.94 1662.55,402.6 1661.32,408.24C1654.01,415.27 1643.21,412.78 1634.08,413.83C1624.71,413.4 1615.37,414.9 1606.03,414.03C1601.11,413.78 1596.21,412.79 1591.3,413.4C1586.55,414.09 1581.73,412.64 1577.06,413.98C1572.72,415.13 1568.26,414.17 1563.87,414.44C1558.27,414.71 1552.69,414.34 1547.1,414.57C1539.37,414.93 1531.73,413.13 1524,413.66C1520.04,414.08 1516.31,412.47 1513.09,410.34C1507.44,410.75 1501.9,411.89 1496.27,412.38C1489.13,412.78 1481.95,413.15 1474.88,414.22C1468.12,413.03 1461.25,412.24 1454.42,413.33C1454.09,413.73 1453.44,414.51 1453.11,414.91C1449.65,416.46 1446.66,418.95 1442.98,419.98C1440.56,420.52 1439.22,422.75 1437.55,424.34C1434.96,429.05 1432.72,433.95 1430.99,439.05C1429.32,444.34 1425.79,448.73 1423.6,453.78C1420.69,458.74 1414.41,459.67 1410.18,463.08C1406.82,465.99 1402.19,466.35 1398.44,468.54C1394.98,470.58 1390.88,470.74 1387,471.2C1380.03,471.76 1373.04,473.03 1366.06,472.18C1360.46,471.39 1354.5,472.46 1349.29,469.78C1343.98,467.02 1338.52,463.95 1335.09,458.88C1332.19,454.52 1328.28,451.01 1325.14,446.86C1321.66,442.27 1321.45,436.29 1320.51,430.82C1320.16,424.04 1319.19,416.74 1322.4,410.45C1325.02,405.66 1323.1,399.66 1326.13,395.05C1328.65,391.08 1330.78,386.88 1332.88,382.68C1335.11,380.36 1336.07,377.29 1336.49,374.16C1339.59,371.35 1343.41,369.22 1345.43,365.39C1348.26,360.06 1355.26,359.37 1358.27,354.24C1361.87,350.96 1366.84,350.29 1371.08,348.15C1375.59,346.57 1380.63,344.96 1385.38,346.55C1389.48,347.63 1392.16,351.21 1394.78,354.3C1396.69,356.37 1395.41,359.24 1394.48,361.44C1392.91,364.71 1393,368.74 1390.37,371.46C1387.64,375.09 1383.99,377.8 1380.1,380.05C1375.24,382.87 1371.48,387.53 1365.92,389.06C1363.42,393.44 1359.71,397.1 1357.96,401.91C1356.64,405.36 1353.96,408.07 1352.65,411.52C1351.41,415.53 1351.31,419.77 1350.75,423.9C1354.05,428.63 1356.76,433.99 1361.24,437.72C1367.26,439.97 1373.82,438.3 1380.02,437.79C1386.16,437.43 1391.49,433.92 1396.55,430.75C1400.63,428.64 1401.26,423.68 1403.37,420.03C1403.84,415.32 1407.46,411.78 1408.19,407.14C1410.55,404.13 1412.69,400.95 1414.79,397.76C1417.7,393.27 1422.63,390.82 1427.05,388.11C1431.82,385.23 1437.42,384.34 1442.84,383.43C1448.21,382.63 1453.52,381.24 1458.98,381.11C1469.27,381.27 1479.64,381.22 1489.84,379.58C1495.02,378.82 1500.4,378.99 1505.45,377.51C1509,375.37 1511.56,371.75 1515.67,370.48C1515.86,369.47 1516.07,368.47 1516.31,367.47C1516.86,367.14 1517.97,366.49 1518.53,366.16C1518.72,361 1517.15,355.91 1514.28,351.65C1509.12,348.12 1502.97,345.17 1496.54,346.3C1496.19,347.32 1495.86,348.35 1495.54,349.38C1493.58,350.77 1491.38,351.93 1489.87,353.83C1488.47,355.92 1487.53,358.26 1486.33,360.46C1486.33,361.82 1486.34,363.19 1486.38,364.57C1481.62,367.82 1475.69,369.36 1469.97,369.03C1465.48,368.83 1462.79,364.92 1459.97,361.99C1456.96,358.91 1457.7,354.22 1457.5,350.3C1457.14,346.77 1459.54,343.89 1460.54,340.68C1461.98,335.12 1465.88,330.75 1468.73,325.9C1473.41,323.38 1475.66,317.58 1481.1,316.34Z" style="fill:rgb(252,252,222);fill-rule:nonzero;"/>
            </g>
            <g transform="matrix(2.220663,0,0,2.220663,-1095.646071,1129.988823)">
                <path d="M1631.44,315.86C1634.57,314.33 1637.26,311.27 1640.99,311.4C1645.86,311.14 1650.4,313.87 1653.74,317.22C1657.04,321.05 1661.3,323.85 1665.29,326.9C1665.4,327.47 1665.6,328.61 1665.7,329.18C1668.31,331.63 1670.35,335.14 1674.05,336.04C1682.49,338.55 1689.45,344.28 1697.67,347.33C1703.56,349.41 1708.3,353.83 1714.33,355.61C1721.27,357.43 1727.13,361.82 1733.96,363.95C1737.75,365.19 1741.18,367.29 1744.52,369.45C1747.7,371.7 1751.8,371.42 1755.32,372.85C1760.61,375.11 1766.28,378.32 1768.09,384.2C1770.55,389.49 1769.27,395.25 1768.56,400.76C1767.49,402.87 1766.76,405.29 1764.97,406.91C1759.81,410.9 1753.12,412.05 1747.83,415.81C1744.74,418.01 1741.2,419.4 1737.75,420.89C1734.68,422.22 1732.88,425.27 1730.07,426.98C1723.52,430.85 1716.67,434.19 1710.18,438.15C1704.66,441.36 1698.25,443.11 1693.47,447.5C1689.36,451.35 1683.95,453.25 1679.38,456.42C1676.05,458.68 1672.43,460.51 1669.35,463.12C1666.48,465.32 1664.3,468.36 1661.1,470.13C1656.45,473.09 1650.7,472.71 1645.66,474.61C1639.83,476.71 1633.68,473.55 1629.92,469.15C1628.21,465.9 1626.98,461.91 1628.23,458.3C1629.4,454.64 1629.7,450.38 1632.64,447.58C1636.03,444.38 1640.24,442.23 1644.46,440.33C1644.52,439.71 1644.62,438.47 1644.68,437.84C1648.99,435.74 1652.61,432.58 1656.51,429.84C1664.91,424.88 1673,419.41 1681.33,414.31C1689.47,409.76 1697.69,405.33 1705.99,401.08C1709.58,399.19 1712.9,396.82 1716.12,394.35C1707.56,389.82 1697.71,387.99 1689.86,382.12C1685.61,378.86 1680.06,378.33 1675.58,375.48C1667,370.47 1657.54,367.14 1649.29,361.57C1645.4,359.21 1643.07,355.17 1640.01,351.96C1636.53,348.38 1633.74,344.22 1630.34,340.59C1627.53,337.82 1626.81,333.72 1626.38,329.98C1626.69,324.9 1628.83,320.16 1631.44,315.86Z" style="fill:rgb(252,252,222);fill-rule:nonzero;"/>
            </g>
            <g transform="matrix(2.220663,0,0,2.220663,-1095.646071,1129.988823)">
                <path d="M1033.27,327.08C1038.29,325.62 1043.76,323.61 1048.89,325.87C1051.99,327.81 1054.28,330.77 1057.16,333.02C1058.37,337.14 1059.35,341.32 1059.99,345.57C1059.46,345.85 1058.39,346.42 1057.86,346.71C1056.58,350.2 1055.35,353.95 1052.68,356.66C1048.23,359.99 1042.26,360.48 1037.84,363.81C1030.41,372.43 1022.77,381.43 1019.22,392.46C1017.19,397.64 1017.06,403.33 1016.93,408.81C1018.44,412.24 1020.87,415.17 1022.88,418.33C1025.76,422.72 1030.36,425.41 1034.01,429.06C1036.32,431.25 1039.62,431.69 1042.51,432.76C1049.6,435.47 1057.47,436.03 1064.91,434.59C1071.62,433.23 1075.22,426.38 1081.61,424.26C1081.75,423.76 1082.04,422.76 1082.19,422.26C1084.5,420.23 1086.8,418.19 1088.99,416.02C1089.65,413.84 1089.59,411.11 1091.5,409.56C1094.21,407.34 1097.39,405.8 1100.45,404.11C1100.57,402.7 1100.69,401.29 1100.84,399.89C1103.23,397.98 1105.62,396.05 1107.79,393.87C1112.14,392.54 1114,387.83 1118.12,386.15C1125.35,383.01 1133.32,382.98 1141.02,381.95C1150.16,380.74 1159.42,381.07 1168.61,381.52C1173.41,381.74 1178.14,380.21 1182.96,380.86C1187.83,381.54 1192.65,380.37 1197.51,380.26C1203.22,379.75 1208.34,376.93 1213.75,375.27C1214.14,374.89 1214.9,374.12 1215.28,373.74C1215.83,373.64 1216.91,373.43 1217.46,373.32C1220.77,368.09 1227.17,366.29 1233.02,366.13C1239.46,366.43 1244.04,371.38 1248.01,375.88C1247.55,379.22 1247.57,382.6 1247.44,385.97C1247.35,389.96 1245.68,393.65 1244.71,397.46C1252.31,396.49 1260.86,396.27 1266.91,390.92C1270.45,388.05 1273.66,384.68 1277.97,382.94C1278.85,381.38 1279.75,379.83 1280.7,378.31C1286.35,375.78 1287.92,368.99 1289.76,363.64C1291.36,360.67 1293.23,357.83 1294.5,354.7C1295.02,352.42 1294.46,350.05 1294.41,347.75C1296.01,345.82 1297.63,343.9 1299.23,341.96C1303.28,341.14 1307.45,338.72 1311.6,340.55C1316.68,342.54 1320.67,346.96 1323.37,351.58C1324.13,356.36 1322.06,361.22 1323.28,366.06C1321.28,370.3 1320.2,374.88 1319.42,379.47C1316.84,383.55 1315.65,388.29 1313.35,392.5C1310.81,396.75 1306.97,399.98 1303.9,403.81C1301.2,406.5 1299.54,410.19 1296.16,412.16C1293.44,413.74 1292.08,416.73 1289.7,418.66C1282.19,423.8 1273.9,427.98 1264.84,429.43C1254.64,431.03 1243.89,433.27 1233.79,429.98C1228.94,428.73 1224.58,426.2 1220.36,423.6C1216.31,421.06 1213.93,416.78 1211.05,413.11C1205.53,414.57 1199.86,415.1 1194.21,415.71C1191.19,416.51 1188.1,416.63 1185.02,416.26C1175.65,416.3 1166.29,416.06 1156.93,416.23C1151.31,416.5 1145.66,416.57 1140.07,415.98C1138.23,415.99 1136.11,415.31 1134.53,416.52C1128.91,420.71 1125.5,427.45 1119.17,430.74C1117.56,434.05 1115.21,436.96 1112.14,439.01C1109.6,440.46 1108.99,443.42 1108.33,446.02C1105.52,449.39 1102.64,453 1098.42,454.64C1098.1,454.98 1097.47,455.67 1097.15,456.02C1091.44,458.22 1087.27,463.01 1081.57,465.23C1076.54,467.1 1071.51,469.6 1066.02,469.52C1060.34,469.56 1054.67,470.31 1049,470.16C1043.45,469.33 1037.82,468.46 1032.64,466.24C1029.44,464.83 1025.88,464.58 1022.73,463.11C1013.91,456.78 1004.05,451.45 997.16,442.82C994.66,439.13 992.5,435.21 990.79,431.11C989.57,428.26 986.79,426.52 985.27,423.89C983.8,419.98 984.25,415.7 983.39,411.66C981.18,401.5 986.71,391.68 985.74,381.52C986.2,377.78 988.36,374.49 989.29,370.86C990.97,363.8 996.78,358.88 999.38,352.24C999.89,352.05 1000.93,351.65 1001.45,351.46C1001.86,350.72 1002.28,349.99 1002.73,349.26C1007.98,344.97 1013.01,340.42 1018.16,336.01C1018.41,335.24 1018.66,334.48 1018.94,333.72C1023.29,332.14 1027,329.07 1031.64,328.23C1032.05,327.94 1032.86,327.37 1033.27,327.08Z" style="fill:rgb(252,252,222);fill-rule:nonzero;"/>
            </g>
            <g transform="matrix(2.220663,0,0,2.220663,-1095.646071,1129.988823)">
                <path d="M1053.85,374.7C1057.2,374.06 1060.53,372.94 1063.97,372.93C1066.91,373.8 1069.7,375.16 1072.41,376.6C1075.33,378.69 1077.29,381.8 1079.47,384.6C1079.45,390.21 1077.04,395.36 1076.6,400.91C1076.21,403.99 1073.94,406.35 1072,408.61C1066.68,409.67 1061.51,411.79 1056.03,411.84C1051.04,411.28 1047.23,407.47 1044.21,403.77C1040.68,399.39 1039.5,392.09 1043.89,387.86C1046.14,385.73 1046.71,382.68 1046.94,379.72C1049.47,378.38 1051.85,376.76 1053.85,374.7Z" style="fill:rgb(252,252,222);fill-rule:nonzero;"/>
            </g>
            <g transform="matrix(2.220663,0,0,2.220663,-1095.646071,1129.988823)">
                <path d="M1461.06,430.9C1466.39,428.68 1472.29,428.44 1477.97,429.08C1489.15,429.32 1499.09,441.06 1495.96,452.16C1496.04,455.81 1496.82,460.18 1493.87,463C1490.2,466.24 1485.63,468.33 1480.92,469.51C1477.85,470.33 1475.33,472.83 1472.03,472.72C1468.57,472.78 1465.09,472.69 1461.7,472.07C1458.31,471.18 1455.64,468.75 1452.67,467.03C1452.31,464.36 1451.75,461.73 1451.05,459.14C1450.38,453.91 1450.72,448.59 1449.7,443.41C1452.48,438.51 1455.71,433.29 1461.06,430.9Z" style="fill:rgb(252,252,222);fill-rule:nonzero;"/>
            </g>
            <g transform="matrix(2.220663,0,0,2.220663,-1095.646071,1129.988823)">
                <path d="M1546.06,437.03C1549.82,436.39 1553.64,436.69 1557.45,436.57C1562.63,436.35 1567.8,437.86 1572.98,436.95C1577.69,436.17 1582.53,436.66 1587.16,437.74C1591.13,438.51 1592.75,442.71 1595.5,445.21C1595.99,447.52 1596.96,449.93 1596.21,452.31C1594.95,457.35 1593.78,462.44 1593.67,467.65C1586.86,472.16 1578.32,470.41 1570.7,471.68C1564.63,472.84 1558.51,470.96 1552.43,471.66C1544.32,472.85 1536.18,471.23 1528.04,471.51C1520.8,472 1514.24,467.1 1510.9,460.99C1510.45,458.39 1510.72,455.73 1510.91,453.13C1511.12,448.73 1513.81,445.04 1514.7,440.8C1518.07,437.77 1522.78,437.59 1527.03,436.77C1530.03,436.22 1533,437.31 1536.02,437.41C1539.36,437.52 1542.7,437.11 1546.06,437.03Z" style="fill:rgb(252,252,222);fill-rule:nonzero;"/>
            </g>
            <g transform="matrix(2.220663,0,0,2.220663,-1095.646071,1129.988823)">
                <path d="M1138.81,438.94C1141.56,438.35 1144.22,437.37 1146.99,436.84C1150.72,436.8 1154.28,438.31 1157.99,438.59C1166.35,439.06 1174.74,438.72 1183.07,437.95C1187.73,437.48 1192.33,438.86 1196.64,440.52C1199.91,441.79 1201.75,444.99 1204.2,447.33C1204.98,448.6 1205.81,449.88 1206.67,451.13C1204.71,456.42 1202.73,462.09 1204.81,467.68C1200.59,471.16 1195.13,472.41 1189.99,473.88C1186.29,474.94 1182.65,473.14 1179.01,472.73C1176.25,472.68 1173.61,473.62 1170.95,474.18C1167.56,475.15 1164.18,473.69 1160.87,473.15C1156.56,471.99 1152.2,474.41 1147.9,473.14C1143.22,471.84 1137.53,471.67 1134.29,467.56C1133,466.19 1131.72,464.82 1130.43,463.48C1130.01,459.17 1129.24,454.65 1130.75,450.46C1131.97,447.75 1133.59,445.25 1134.85,442.56C1136.16,441.35 1137.47,440.14 1138.81,438.94Z" style="fill:rgb(252,252,222);fill-rule:nonzero;"/>
            </g>
        </g>
    </g>
</svg>
