<?xml version="1.0" encoding="UTF-8" standalone="no"?>
<!DOCTYPE svg PUBLIC "-//W3C//DTD SVG 1.1//EN" "http://www.w3.org/Graphics/SVG/1.1/DTD/svg11.dtd">
<svg width="100%" height="100%" viewBox="0 0 359 385" version="1.1" xmlns="http://www.w3.org/2000/svg" xmlns:xlink="http://www.w3.org/1999/xlink" xml:space="preserve" xmlns:serif="http://www.serif.com/" style="fill-rule:evenodd;clip-rule:evenodd;stroke-linejoin:round;stroke-miterlimit:2;">
    <g transform="matrix(1,0,0,1,-797.54731,-63.869861)">
        <path d="M1006.47,76.49C1015.49,67.64 1028.36,63.47 1040.84,63.9C1046.31,63.98 1051.92,66.51 1054.26,71.71C1057.48,79.24 1059.24,87.76 1057.45,95.89C1056.44,102.72 1052.19,108.6 1047.28,113.24C1039.98,118.77 1033.42,125.73 1024.44,128.53C1033.59,128.96 1042.77,128.97 1051.93,128.8C1060.02,129.16 1068.21,127.52 1076.18,129.64C1073.56,132.15 1071.11,134.9 1068.06,136.9C1047.73,136.31 1027.37,137.23 1007.05,136.44C1001.76,137.62 996.81,140.07 991.44,141.02C991.52,142.7 991.61,144.39 991.68,146.08C991.83,151.96 991.71,157.84 992.21,163.71C992.31,171.86 991.17,179.98 991.82,188.14C991.63,199.64 990.9,211.15 991.88,222.63C1002.57,224.08 1013.35,222.6 1024.06,223.66C1036.01,224.83 1048.05,223.94 1060.03,224.67C1063.3,224.89 1066.6,224.95 1069.85,224.34L1071.22,224.16C1073.56,224.31 1075.89,224.61 1078.25,224.78C1079.39,219.21 1079.38,213.51 1080.33,207.91C1081.3,200.97 1080.31,193.95 1081.17,187.01C1081.3,181.66 1082.02,176.34 1081.82,170.99C1081.86,163.27 1080.57,155.61 1080.49,147.89C1083.12,147.94 1085.74,148.36 1088.26,149.12C1089.76,159.24 1089.76,169.57 1089.53,179.78C1088.13,187.77 1089.13,195.89 1088.49,203.94C1088.71,209.75 1086.81,215.33 1086.64,221.12C1086.51,224.68 1085.51,228.11 1084.42,231.48C1080.02,233.19 1075.26,233.23 1070.62,233.13C1070.16,243.41 1071.01,253.73 1069.83,263.99C1069.26,276.65 1067.9,289.26 1067.47,301.93C1067.3,303.75 1065.63,305.1 1063.92,305.4C1059.9,306.13 1055.82,306.27 1051.76,306.55C1052.31,307.72 1052.86,308.89 1053.45,310.06C1053.33,312.27 1053.47,314.59 1052.54,316.66C1050.79,321.31 1046.01,323.56 1042.16,326.19C1039.76,329.82 1035.77,331.78 1032.54,334.55C1026.59,338.9 1020.12,342.59 1014.67,347.61C1010.74,351.39 1005.41,352.96 1000.89,355.81C995.58,359.09 990.13,362.17 985.08,365.84C987.46,369.18 988.73,373.36 992,376.03C995.79,379.25 998.56,383.47 1002.42,386.62C1004.78,388.6 1006.85,390.91 1008.54,393.5C1011.32,397.62 1015.32,400.71 1018.12,404.81C1021.77,410.09 1026.75,414.44 1029.39,420.4C1030.65,423.56 1032.88,426.17 1035.21,428.6C1042.17,425.76 1049.82,427.94 1057.03,428.37C1064.62,430.24 1072.68,429.24 1080.11,431.8C1082.99,432.62 1083.75,435.71 1084.76,438.14C1083.39,439.94 1082.2,441.93 1080.48,443.43C1071.53,446.11 1062.12,444.09 1053.04,443.39C1046,442.82 1039.09,444.63 1032.08,444.45C1023.44,444.68 1014.77,445.2 1006.13,444.55C1000.37,444.08 994.72,445.82 988.97,445.43C983.67,445.08 978.35,445.34 973.07,444.89C967.69,444.46 962.36,445.65 956.99,445.38C948.97,445.42 940.96,444.93 932.96,445.46C923.31,445.23 913.62,445.12 904.01,446.15C897.32,445.94 890.64,445.24 883.95,445.68C879.96,445.52 876.02,446.77 872.06,446.25C869.66,445.58 869.9,442.63 869.07,440.77C870.07,439.57 871,438.3 872.16,437.24C875.03,436.06 878.6,437.72 881.21,435.75C876.53,431.95 869.17,432.6 865.45,427.5C862.62,424.02 858.41,421.73 856.27,417.71C854.1,413.67 856.64,409.22 856.37,405.04C854.7,401.7 850.42,400.02 850.01,396.03C849.56,389.82 850.2,383.15 853.82,377.87C855.9,374.91 857.36,371.51 859.74,368.76C862.19,367.16 864.94,366.08 867.55,364.76C861.85,361.21 854.75,361.47 849.05,357.94C842.85,355.09 836.66,352.22 830.36,349.59C824.55,346.66 818.04,345.51 812.15,342.77C807.21,340.29 802.52,337.28 798.37,333.63C797.94,331.24 796.74,328.49 798.4,326.3C804.92,322.37 812.58,321.46 820.01,320.76C823.49,320.84 827.03,321.74 830.46,320.65C843.74,317.77 857.42,320.07 870.74,317.71C869.04,297.15 868.11,276.53 867.61,255.91C867.96,246.84 866.41,237.81 866.92,228.74C863.79,228.73 860.66,228.45 857.66,227.53C853.96,219.91 854.35,211.16 851.71,203.21C849.37,196.05 849.73,188.45 848.4,181.1C847.59,174.39 846.69,167.7 845.6,161.03C844.85,156.71 845.52,152.33 845.29,147.99C844.72,144.72 848.1,142.7 850.86,142.21C858.63,140.49 866.46,139.04 874.25,137.4C893.61,133.32 913.44,132.63 933.07,130.54C931.6,130.05 930.06,129.73 928.75,128.92C928,128.21 927.12,127.84 926.12,127.82C922.14,126.97 918.78,124.49 915.31,122.51C909.67,118.7 903.25,114.3 902.02,107.07C901.35,101.47 901.36,95.55 903.29,90.16C904.48,87.6 906.45,85.51 908.25,83.36C912.1,78.74 917.99,76.76 923.4,74.62C933.96,72.47 945.63,78 950.97,87.28C953.82,89.4 956.75,91.8 957.86,95.32C958.26,96.7 959.18,97.97 960.63,98.37C960.95,98.51 961.58,98.78 961.9,98.92C966.54,105.77 970.97,112.75 975.47,119.69C977.59,113.81 980.14,107.99 983.92,102.96C990.17,93.17 997.24,83.69 1006.47,76.49M1024.1,75.11C1012.14,80.25 1003.29,90.33 995.73,100.59C990.38,108.18 984.98,115.95 982.16,124.9C988.27,119.66 992.7,112.87 997.69,106.64C1002.77,100.3 1010.4,97.14 1017.24,93.17C1022.21,90.54 1028.68,88.5 1033.65,92.26C1034.24,93.29 1034.84,94.32 1035.46,95.35C1035.51,97.49 1035.58,99.62 1035.64,101.76C1034.05,104.99 1032.6,108.46 1029.59,110.65C1023.84,114.97 1017.86,119 1012.06,123.26C1009.41,124.82 1006.71,126.28 1004.07,127.83C1006.38,126.92 1008.64,125.85 1010.86,124.73C1015.15,123.75 1018.96,121.48 1023.08,120C1029.57,117.31 1034.68,112.34 1040.21,108.14C1044.08,104.98 1047.48,101 1049.32,96.31C1050.11,91.96 1050.23,87.5 1050.13,83.08C1048.47,80.73 1047.88,77.9 1047.34,75.13C1040.37,70.37 1031.42,72.39 1024.1,75.11M912.48,91.38L912.13,91.29C908.99,95.95 908.61,102.17 910.74,107.31C912.65,110.61 916.04,112.63 919.08,114.78C925.66,119.42 933.44,121.81 941.04,124.18C939.64,121.96 938.25,119.73 936.85,117.51C933.47,116.5 930.01,115.1 927.75,112.26C923.27,107.28 922.64,100.24 922.39,93.85C923.8,92.49 924.75,90.09 927.03,90.08C928.13,90.25 929.19,90.58 930.22,91.06C930.54,94.8 930.05,98.65 931.53,102.21C932.47,99.42 933.91,96.43 937.03,95.58C941.82,94.77 945.9,98.01 948.88,101.37C952.61,105.63 956.88,109.36 961.02,113.21C957.37,105.66 951.37,99.5 945.71,93.42C943.41,90.41 940.83,87.54 937.66,85.44C934.1,83.48 930.09,82.65 926.08,82.37C921.16,84.7 915.47,86.45 912.48,91.38M1023.55,100.08C1019.63,100.5 1016.66,103.51 1013.2,105.14C1006.41,108.73 1001.66,114.89 997.29,121.01C1005.03,118.12 1011.51,112.87 1018.36,108.4C1021.79,105.85 1026.07,103.68 1027.65,99.44C1027.21,97.58 1023.04,98.13 1023.55,100.08M944.75,114.46C947.34,119.68 953.51,120.9 958.43,122.97C955.38,118.91 951.5,115.57 947.66,112.3C944.94,109.99 942.81,107.1 940.09,104.81C940.64,108.43 943.17,111.26 944.75,114.46M964.5,135.88C964.66,139.21 964.3,142.54 964.41,145.87C965.88,158.3 964.64,170.83 964.71,183.31C964.97,193.69 965.34,204.08 965.44,214.46C965.65,215.94 965.36,218.18 967.2,218.69C971.08,219.42 975.07,219.67 979.04,219.68C980.4,219.65 982.3,219.19 982.55,217.57C981.74,207.11 983.37,196.62 983.22,186.12C982.96,178.85 983.91,171.63 983.68,164.35C984.14,160.07 984.36,155.58 982.7,151.51C981.47,148.7 981.97,145.62 982.6,142.74C982.92,141.17 983.52,139.08 981.82,138.07C979.27,136.82 976.46,136.22 973.73,135.56C970.7,134.85 967.25,133.9 964.5,135.88M937.15,138.46C924.22,139.67 911.19,139.88 898.34,141.95C886.29,143.09 874.24,144.85 862.56,148.11L862.47,148.29C859.44,148.72 856.42,149.28 853.57,150.37C853.71,151.23 854.01,152.95 854.16,153.81C853.94,154.25 853.49,155.14 853.27,155.58C851.28,154.72 850.97,159.01 853.04,158.6L852.91,159.98C856.02,176.23 856.2,192.97 860.71,208.97L860.93,210.03C861.7,213.62 860.95,218.65 864.73,220.71C874.83,221.68 885.04,220.82 895.16,220.38C895.89,220.35 897.36,220.29 898.09,220.26C898.99,220.35 899.9,220.45 900.82,220.55C906.93,220.46 913.08,220.68 919.19,220.34C920.7,220.53 922.23,220.65 923.77,220.7C931.13,221.43 938.53,221.45 945.92,221.68C949.18,221.94 952.47,222.21 955.75,221.89C955.24,210.6 955.29,199.3 955.47,188C954.87,174.33 954.68,160.66 954.46,146.99C954.64,143.89 954.75,140.78 954.8,137.68C948.91,137.71 943.04,138.42 937.15,138.46M938.26,231.39C931.21,232.18 924.1,231.64 917.06,232.51C907.96,232.77 899.09,235.27 889.98,235.21C884.69,235.19 879.48,236.22 874.37,237.43C874.3,246.48 875.42,255.5 875.21,264.56C875.85,280.47 875.79,296.46 877.99,312.25C896.55,309.64 915.26,307.16 934.05,307.78C945.35,308.07 956.64,307.17 967.89,306.13C964.15,292.73 965.78,278.6 964.38,264.89C963.07,253.71 963.13,242.43 962.05,231.23C954.12,231.52 946.18,230.98 938.26,231.39M987.68,230.27C989.15,244.51 992.03,258.61 991.89,272.99C992.74,283.22 992.93,293.56 994.56,303.7C1003.32,302.64 1012.15,302.81 1020.96,302.62C1031.28,302.89 1041.28,299.74 1051.48,298.84L1051.51,298.52C1054.48,298.44 1057.44,298.08 1060.41,297.88C1060.32,287.91 1061.65,278.02 1062.47,268.1C1062.65,262.08 1062.59,256.04 1063.35,250.06C1062.94,244.5 1063.54,238.96 1063.34,233.41C1062.03,232.66 1060.51,232.4 1059.04,232.45C1051.04,232.49 1043.04,232.22 1035.05,232.09C1019.27,230.99 1003.45,231.43 987.68,230.27M969.11,234.14C967.09,235.3 968.22,237.97 968.32,239.82C971.35,253.7 971.18,267.99 973.48,281.97C973.67,290.11 975.34,298.13 974.95,306.29C976.42,306.63 977.96,307.34 979.46,306.63C982.19,305.4 986.88,305.04 986.27,300.95C984.37,288.77 984.32,276.39 983.37,264.11C981.72,254.52 981.86,244.75 980.82,235.09C977.21,233.11 973,233.24 969.11,234.14M1005.17,310.64C1002.88,313.24 1000.31,315.58 997.89,318.06C1005.33,315.33 1012.97,313.17 1020.4,310.39C1015.34,311.05 1010.25,310.77 1005.17,310.64M1032.06,315.08C1021.88,319.13 1011.42,322.43 1001.08,326.01C994.02,328.65 987.49,332.44 980.52,335.26C974.02,338.48 966.6,339.49 960.44,343.44C955.56,346.64 950.14,348.8 944.82,351.11C943.43,355.65 938.59,356.92 934.84,358.86C925.07,364.06 914.73,368.21 905.53,374.41C899.58,378.42 891.69,378.92 886.88,384.66L886.04,384.62C882.37,387.06 877.68,388.44 873.55,386.24C871.85,384.73 870.42,382.95 868.62,381.56C868.39,379.62 868.25,377.68 868.13,375.74C868.7,375.45 869.85,374.86 870.42,374.56C870.49,374.21 870.62,373.52 870.68,373.17C870.19,373.64 869.2,374.57 868.71,375.03C867.91,374.74 867.13,374.45 866.36,374.16C861.19,378.61 858.55,385.46 857.67,392.08C859.71,396.94 863.98,400.33 868.84,402.15C876.07,405.51 884.3,405.17 891.98,406.77C893.85,406.93 894.93,408.56 896.16,409.77C895.08,411.44 894.02,413.13 892.98,414.82C885.83,414.78 878.76,413.65 871.74,412.38C868.98,411.94 866.53,410.57 864.18,409.15C863.82,410.44 863.48,411.73 863.13,413.03C865.69,415.75 868.38,418.35 870.93,421.09C873.28,423.88 877.06,424.46 880.34,425.57C885.07,427.16 890.3,426.23 894.91,428.33C898.29,427.63 901.65,426.81 904.96,425.82C909.69,424.45 913.51,421.19 917.85,419C924.92,415.98 931,410.66 935.11,404.19C936.59,401.99 938.28,397.19 941.7,399.37C945.24,401.48 943.02,405.96 941.74,408.79C936.18,417.35 930.51,426.34 921.69,431.92C919.23,433.9 916.47,435.45 913.75,437.04C922.55,436.55 931.37,436.83 940.18,436.69C945.9,437.64 951.68,436.04 957.4,437.13C961.63,437.32 965.79,436.22 970.03,436.36C979.88,436.7 989.74,436.98 999.59,436.36C1005.36,435.73 1011.12,436.99 1016.88,436.42C1021.34,436.12 1025.81,436.25 1030.27,435.78C1027.21,432.46 1024.07,429.09 1022.19,424.93C1019.5,419.24 1015.04,414.74 1011.13,409.92C1008.74,405.72 1004.55,403.04 1001.97,398.99C998.91,394.17 994.1,390.92 990.51,386.56C988.29,384.22 985.94,382.02 983.56,379.86C981.29,386.1 978.82,392.56 974.07,397.39C971.91,397.86 969.74,397.02 968.67,395.07C969.07,391.31 971.3,388.14 972.93,384.84C975.22,380.51 976.47,375.75 977.92,371.11C975.01,372.45 972.24,374.06 969.61,375.87C968.51,374.02 967.77,371.99 967.17,369.94C977.79,363.04 988.8,356.67 998.59,348.6C1007.04,343.21 1014.48,336.45 1022.82,330.91C1027.02,328.55 1030.86,325.6 1034.34,322.27C1037.99,318.45 1043.26,316.4 1045.96,311.65C1040.95,310.2 1036.56,313.47 1032.06,315.08M931.53,320.17C929.8,321.16 928.42,322.7 926.57,323.47C924.02,324.01 921.31,324.04 918.87,323.06C915.31,321.44 911.45,322.81 907.75,322.87C906.55,321.49 903.77,323.37 904.86,324.95C902.29,325.77 902.18,328.7 902,330.93C904.93,328.76 908.39,327.61 911.89,326.68C914.71,327.33 917.23,328.75 919.15,330.94C919.28,331.79 919.55,333.49 919.68,334.34C918.37,336 916.72,337.32 914.94,338.44C913.56,337.47 912.23,336.43 910.96,335.33C909.76,336.07 908.01,336.28 907.53,337.8C905.72,340.79 907.45,344.35 907.56,347.56C907.47,348.87 907.39,350.2 907.31,351.52C905.91,351.98 904.48,352.4 903.06,352.75C902.29,352.2 901.52,351.66 900.76,351.13C899.06,347.34 899.48,343.12 899.05,339.08L898.84,339.16C895.38,344.32 894.86,350.69 891.95,356.16C890.33,359.25 889.48,362.67 888.69,366.05C894.09,364.66 899.07,362.14 904.13,359.85L904.11,359.73C909.98,358.53 914.53,354.3 920.21,352.55C925.51,349.88 930.9,347.36 936.02,344.35C934.58,344.62 933.16,344.93 931.77,345.29C929.89,344.67 927.62,344.45 926.42,342.69C925.9,341 925.7,339.24 925.4,337.52C927,336.65 928.69,335.94 930.44,335.37L930.92,336.61C936.24,336.2 941.85,335.82 946.58,333.08C949.04,327.89 947.19,322.11 944.18,317.6C939.91,315.92 934.7,316.72 931.53,320.17M849.04,327.62C840.62,327.17 832.41,329.81 824,329.47C818.88,329.39 813.76,329.77 808.75,330.84C812.85,334.17 817.78,336.25 822.87,337.54C827.71,338.82 831.93,341.64 836.63,343.32C842.57,345.46 848.3,348.15 853.91,351.04C860.15,353.56 867.39,353.88 872.84,358.18C875.32,360.21 878.58,360.55 881.65,360.9C883.24,354.91 886.21,349.4 887.5,343.33C889.37,338.63 892.02,334.23 893.03,329.21C892.63,326.91 892.8,324.6 893.23,322.34C878.69,325.33 863.96,328.16 849.04,327.62Z" style="fill:rgb(11,11,11);fill-rule:nonzero;"/>
        <path d="M1081.55,137.95C1083.64,135.77 1085.55,133.41 1087.53,131.12C1087.99,133.81 1088.38,136.53 1088.63,139.25C1086.27,138.71 1083.91,138.33 1081.55,137.95Z" style="fill:rgb(11,11,11);fill-rule:nonzero;"/>
        <path d="M1091.62,238.5C1095.37,234.72 1100.94,233.21 1106.1,232.59C1109.7,233.45 1113.6,234.91 1115.51,238.34C1118.97,243.1 1118.74,249.47 1116.84,254.79C1115.63,259.16 1110.98,261.36 1106.97,262.51C1101.43,263.09 1095.24,262.85 1090.51,259.59C1088.05,252.83 1087.97,244.83 1091.62,238.5M1098.57,245.47C1096.84,247.62 1097.94,250.38 1098.37,252.77C1101.95,252.94 1105.6,252.65 1108.76,250.77C1108.71,248.49 1108.51,246.22 1108.15,243.97C1104.94,242.09 1101.19,243.08 1098.57,245.47Z" style="fill:rgb(11,11,11);fill-rule:nonzero;"/>
        <path d="M1100.33,284.2C1104.39,282.03 1110.27,281.52 1113.21,285.76C1117.52,289.6 1117.52,295.66 1117.77,300.97C1116.54,306.41 1112.99,310.91 1111.03,316.07C1116.09,316.79 1122.65,317.91 1124.57,323.46C1125.65,326.81 1126.52,330.48 1125.96,333.99C1122.72,342.6 1114.53,347.98 1106.42,351.45C1102.01,352.52 1097.47,352.89 1092.96,353.21C1084.51,353.73 1076.42,350.29 1068,350.63C1062.39,351.13 1056.63,351.27 1051.33,353.38C1047.73,355.04 1042.14,351.12 1043.92,347.03C1044.6,344.12 1048,343.62 1050.06,341.99C1055.49,337.93 1061.04,333.88 1065.54,328.74C1068.78,322.43 1073.32,316.91 1076.72,310.69C1078.45,307.39 1081.57,304.8 1082.19,300.96C1087.02,294.28 1092.39,287.31 1100.33,284.2M1096.63,298.61C1094.2,301.55 1091.62,304.43 1089.85,307.84C1087.38,312.59 1084.1,316.86 1081.48,321.53C1078.71,326.41 1074.85,330.64 1072.73,335.89C1071.35,337.4 1069.97,338.91 1068.65,340.46C1074.64,341.09 1080.7,341.28 1086.6,342.62C1097.36,345.13 1109.44,341.05 1116.25,332.31C1117.93,330.43 1116.3,327.46 1114.13,326.82C1108.51,325.14 1103.12,327.85 1097.9,329.54C1093.8,331.11 1089.83,325.94 1092.37,322.34C1095.18,318.87 1099.53,316.76 1101.62,312.66C1103.16,309.31 1104.77,305.98 1106.85,302.92C1109.07,299.9 1109.24,295.14 1106.38,292.48C1102.96,294.2 1099.12,295.54 1096.63,298.61Z" style="fill:rgb(11,11,11);fill-rule:nonzero;"/>
        <path d="M948.9,370.17C951.01,366.31 953.27,362.32 956.8,359.57C958.73,359.21 960.46,360.37 961.38,362.01C962.08,366.6 958.5,370.31 954.97,372.58C952.49,373.76 950.42,371.87 948.9,370.17Z" style="fill:rgb(11,11,11);fill-rule:nonzero;"/>
        <path d="M976.59,412.07C978.35,407.6 980.02,403.02 982.7,398.99C984.47,399.77 987.07,399.9 987.85,402.03C988.1,407.62 985.85,413.51 981.17,416.8C979.33,415.78 975.96,414.83 976.59,412.07Z" style="fill:rgb(11,11,11);fill-rule:nonzero;"/>
        <path d="M853.21,437.88C855,436.91 857.91,437.11 858.65,439.35C859.63,442.11 857.55,444.8 855.54,446.48C853.41,447.49 851.04,446.2 850.38,444.03C850.48,441.7 851.71,439.59 853.21,437.88Z" style="fill:rgb(11,11,11);fill-rule:nonzero;"/>
        <path d="M829.45,445.01C829.92,443.26 830.8,441.68 831.61,440.08C833.44,440.59 836.08,440.1 837.06,442.2C838.42,443.99 837.01,446.32 835.69,447.69C833.26,448.94 830.39,447.41 829.45,445.01Z" style="fill:rgb(11,11,11);fill-rule:nonzero;"/>
        <path d="M1085.5,72.98C1084.55,69.52 1088.29,66.47 1091.49,67.25C1094.2,67.82 1093.99,70.99 1095.16,72.97C1095.98,79.48 1099.54,85.17 1101.92,91.19C1104.26,96.69 1109.35,100.12 1113.61,104.02C1121.33,108.44 1130.19,110.27 1139,111.14C1142.29,111.41 1145.24,109.64 1148.47,109.29C1150.9,107.73 1153.55,108.12 1155.79,109.9C1155.37,112.3 1154.98,114.72 1154.19,117.03C1148.39,119.46 1141.32,120.35 1137.08,125.48C1133.64,128.21 1128.97,129.82 1127.12,134.09C1123.43,137.91 1122.67,143.41 1121.21,148.29C1120.74,154.25 1119.8,160.34 1121.44,166.21C1121.2,171.58 1122.21,176.92 1123.99,181.98C1124.86,185.06 1121.99,188.13 1118.88,187.37C1116.66,186.36 1114.69,184.63 1113.78,182.35C1113.84,174.41 1112.61,166.58 1111.63,158.72C1111.52,152.63 1112.59,146.64 1113.81,140.7C1114.61,136.68 1117.39,133.47 1118.63,129.61C1121.66,125.83 1124.7,122.02 1128.78,119.28C1122.15,118.16 1115.87,115.81 1109.83,112.94C1106.2,110.65 1103.24,107.43 1099.54,105.25C1096.03,97.97 1092.68,90.63 1088.2,83.88C1087,80.34 1086.5,76.58 1085.5,72.98Z" style="fill:rgb(251,233,117);fill-rule:nonzero;"/>
        <path d="M844.35,123.5C847.07,121.62 850.46,123.24 851.73,126C851.98,128.65 851.03,131.23 850.54,133.81C847.88,135.44 844.23,135.49 841.96,133.14C839.09,130.22 841.04,125.17 844.35,123.5Z" style="fill:rgb(251,233,117);fill-rule:nonzero;"/>
        <path d="M1007.05,136.44C1027.37,137.23 1047.73,136.31 1068.06,136.9C1067.61,137.24 1066.69,137.9 1066.24,138.23C1052.49,137.52 1038.68,136.91 1024.93,137.87C1020.75,138.2 1018.37,142.66 1018.38,146.5C1010.67,146.12 1003.01,147.87 995.33,147.01C994.1,146.72 992.88,146.41 991.68,146.08C991.61,144.39 991.52,142.7 991.44,141.02C996.81,140.07 1001.76,137.62 1007.05,136.44Z" style="fill:rgb(251,233,117);fill-rule:nonzero;"/>
        <path d="M937.15,138.46C943.04,138.42 948.91,137.71 954.8,137.68C954.75,140.78 954.64,143.89 954.46,146.99C952.85,146.93 951.24,146.88 949.65,146.85C946.05,146.91 942.52,147.58 938.98,148.09C940.22,145.85 942.86,143.4 941.29,140.67C940.84,138.77 938.63,138.91 937.15,138.46Z" style="fill:rgb(251,233,117);fill-rule:nonzero;"/>
        <path d="M853.57,150.37C856.42,149.28 859.44,148.72 862.47,148.29C861.64,149.91 860.83,151.54 860.01,153.17C861.24,154.51 862.49,155.84 863.78,157.15L864.25,157.68C860.45,158.35 856.72,159.38 852.91,159.98L853.04,158.6C853.13,157.59 853.21,156.59 853.27,155.58C853.49,155.14 853.94,154.25 854.16,153.81C854.01,152.95 853.71,151.23 853.57,150.37Z" style="fill:rgb(251,233,117);fill-rule:nonzero;"/>
        <path d="M1022.24,151.35C1026.3,155.28 1030.73,159.11 1036.2,160.88C1043.31,163.19 1050.73,164.55 1058.18,165.16C1052.35,166.28 1046.89,168.73 1041.19,170.32C1034.59,172.37 1027.79,173.78 1021.35,176.33C1018.01,177.55 1014.57,179.06 1010.94,178.67C1008.48,178.55 1006.8,176.58 1005.07,175.1C1005.01,172.8 1005.14,170.51 1005.29,168.23C1004.93,167.96 1004.2,167.43 1003.83,167.17C1004.36,164.55 1004.89,161.93 1005.41,159.31C1010.74,156.11 1016.47,153.65 1022.24,151.35Z" style="fill:rgb(251,233,117);fill-rule:nonzero;"/>
        <path d="M899.64,193.69C904.31,191.93 909.77,190.39 914.59,192.51C922.71,197.09 921.83,211.66 912.97,214.96C908.86,216.71 904.63,218.19 900.82,220.55C899.9,220.45 898.99,220.35 898.09,220.26C899.88,216.08 902.24,211.68 901.38,206.99C900.41,203.66 897.62,201.11 894.63,199.56C891.12,198.19 887.25,199.11 883.68,199.72C888.91,197.48 894.37,195.84 899.64,193.69Z" style="fill:rgb(251,233,117);fill-rule:nonzero;"/>
        <path d="M1108.71,195.74C1112.08,193.84 1115.08,197.22 1116.69,199.85C1115.91,201.96 1115.29,204.12 1114.77,206.3C1113.53,206.67 1112.29,207.07 1111.04,207.34C1108.65,207.38 1107.16,205.25 1105.51,203.89C1105.84,201.05 1105.14,196.71 1108.71,195.74Z" style="fill:rgb(251,233,117);fill-rule:nonzero;"/>
        <path d="M1035.21,237.03C1039.08,236.57 1043.09,235.56 1046.97,236.57C1049.49,237.16 1051.21,239.24 1053.02,240.96C1053.17,242.57 1053.42,244.19 1053.62,245.82C1052.31,248.32 1051.4,251.28 1049.07,253.04C1046.25,254.1 1043.18,254.06 1040.29,254.75C1035.36,255.33 1030.24,258.98 1025.38,256.43C1019.57,253.31 1019.17,244.19 1024.07,240.11C1027.32,237.88 1031.44,237.75 1035.21,237.03Z" style="fill:rgb(251,233,117);fill-rule:nonzero;"/>
        <path d="M948.33,256.37C951.08,255.36 953.97,256.32 956.29,257.91C957.83,261.06 957.08,264.69 957.59,268.07C958.29,273.32 958.02,278.63 957.6,283.9C957.32,287.11 955.66,290.07 953.51,292.41C951.92,294.38 949.17,293.93 946.97,294.36C943,295 939.03,295.78 934.99,295.64C933.72,293.98 932.26,292.41 931.49,290.46C930.6,287.65 932.31,284.96 933.46,282.51C937.19,275.51 940.63,268.36 944.12,261.23C945.18,259.4 945.98,256.88 948.33,256.37Z" style="fill:rgb(251,233,117);fill-rule:nonzero;"/>
        <path d="M1024.1,75.11C1031.42,72.39 1040.37,70.37 1047.34,75.13C1045.77,82.74 1039.14,87.44 1033.65,92.26C1028.68,88.5 1022.21,90.54 1017.24,93.17C1010.4,97.14 1002.77,100.3 997.69,106.64C992.7,112.87 988.27,119.66 982.16,124.9C984.98,115.95 990.38,108.18 995.73,100.59C1003.29,90.33 1012.14,80.25 1024.1,75.11Z" style="fill:rgb(162,47,37);fill-rule:nonzero;"/>
        <path d="M912.13,91.29L912.48,91.38C915.7,92.12 918.82,93.22 921.93,94.35C922.04,94.23 922.28,93.97 922.39,93.85C922.64,100.24 923.27,107.28 927.75,112.26C930.01,115.1 933.47,116.5 936.85,117.51C938.25,119.73 939.64,121.96 941.04,124.18C933.44,121.81 925.66,119.42 919.08,114.78C916.04,112.63 912.65,110.61 910.74,107.31C908.61,102.17 908.99,95.95 912.13,91.29Z" style="fill:rgb(162,47,37);fill-rule:nonzero;"/>
        <path d="M964.5,135.88C967.57,135.79 970.64,135.5 973.73,135.56C976.46,136.22 979.27,136.82 981.82,138.07C983.52,139.08 982.92,141.17 982.6,142.74C981.97,145.62 981.47,148.7 982.7,151.51C984.36,155.58 984.14,160.07 983.68,164.35C982.67,169.9 979.14,174.49 975.76,178.82C973.1,182.17 968.65,182.76 964.71,183.31C964.64,170.83 965.88,158.3 964.41,145.87C964.3,142.54 964.66,139.21 964.5,135.88Z" style="fill:rgb(162,47,37);fill-rule:nonzero;"/>
        <path d="M1033.65,92.26C1039.14,87.44 1045.77,82.74 1047.34,75.13C1047.88,77.9 1048.47,80.73 1050.13,83.08C1050.23,87.5 1050.11,91.96 1049.32,96.31C1047.48,101 1044.08,104.98 1040.21,108.14C1034.68,112.34 1029.57,117.31 1023.08,120C1018.96,121.48 1015.15,123.75 1010.86,124.73C1008.64,125.85 1006.38,126.92 1004.07,127.83C1006.71,126.28 1009.41,124.82 1012.06,123.26C1017.86,119 1023.84,114.97 1029.59,110.65C1032.6,108.46 1034.05,104.99 1035.64,101.76C1035.58,99.62 1035.51,97.49 1035.46,95.35C1034.84,94.32 1034.24,93.29 1033.65,92.26Z" style="fill:rgb(253,93,111);fill-rule:nonzero;"/>
        <path d="M912.48,91.38C915.47,86.45 921.16,84.7 926.08,82.37C930.09,82.65 934.1,83.48 937.66,85.44C940.83,87.54 943.41,90.41 945.71,93.42C951.37,99.5 957.37,105.66 961.02,113.21C956.88,109.36 952.61,105.63 948.88,101.37C945.9,98.01 941.82,94.77 937.03,95.58C933.91,96.43 932.47,99.42 931.53,102.21C930.05,98.65 930.54,94.8 930.22,91.06C929.19,90.58 928.13,90.25 927.03,90.08C924.75,90.09 923.8,92.49 922.39,93.85C922.28,93.97 922.04,94.23 921.93,94.35C918.82,93.22 915.7,92.12 912.48,91.38Z" style="fill:rgb(253,93,111);fill-rule:nonzero;"/>
        <path d="M975.76,178.82C979.14,174.49 982.67,169.9 983.68,164.35C983.91,171.63 982.96,178.85 983.22,186.12C983.37,196.62 981.74,207.11 982.55,217.57C982.3,219.19 980.4,219.65 979.04,219.68C975.07,219.67 971.08,219.42 967.2,218.69C965.36,218.18 965.65,215.94 965.44,214.46C965.34,204.08 964.97,193.69 964.71,183.31C968.65,182.76 973.1,182.17 975.76,178.82Z" style="fill:rgb(253,93,111);fill-rule:nonzero;"/>
        <path d="M969.11,234.14C973,233.24 977.21,233.11 980.82,235.09C981.86,244.75 981.72,254.52 983.37,264.11C984.32,276.39 984.37,288.77 986.27,300.95C986.88,305.04 982.19,305.4 979.46,306.63C977.96,307.34 976.42,306.63 974.95,306.29C975.34,298.13 973.67,290.11 973.48,281.97C971.18,267.99 971.35,253.7 968.32,239.82C968.22,237.97 967.09,235.3 969.11,234.14Z" style="fill:rgb(253,93,111);fill-rule:nonzero;"/>
        <path d="M1088.2,83.88C1092.68,90.63 1096.03,97.97 1099.54,105.25C1099.67,109.02 1097.79,112.39 1096.63,115.86C1094.11,121.23 1091.53,126.67 1087.53,131.12C1085.55,133.41 1083.64,135.77 1081.55,137.95C1083.91,138.33 1086.27,138.71 1088.63,139.25C1093.92,141.07 1099.16,143.48 1103.11,147.57C1101.37,152.12 1101.42,157.02 1101.93,161.8C1100.4,157.06 1096.11,154.52 1092.6,151.41C1091.25,150.46 1089.81,149.65 1088.26,149.12C1085.74,148.36 1083.12,147.94 1080.49,147.89C1072.8,147.71 1065.84,151.18 1058.7,153.5C1057.62,152.86 1056.57,152.23 1055.52,151.59C1055.49,149.85 1055.46,148.11 1055.44,146.37C1058.88,143.45 1062.61,140.91 1066.24,138.23C1066.69,137.9 1067.61,137.24 1068.06,136.9C1071.11,134.9 1073.56,132.15 1076.18,129.64C1081.72,125.41 1084.46,118.92 1088.15,113.22C1090.03,108.41 1091.18,103.26 1091.53,98.1C1091,93.24 1088.81,88.74 1088.2,83.88Z" style="fill:rgb(253,210,9);fill-rule:nonzero;"/>
        <path d="M995.33,147.01C1003.01,147.87 1010.67,146.12 1018.38,146.5C1019.55,148.19 1020.83,149.83 1022.24,151.35C1016.47,153.65 1010.74,156.11 1005.41,159.31C1004.89,161.93 1004.36,164.55 1003.83,167.17C1001.48,165.31 998.69,164.07 995.7,163.77C995.76,158.18 995.69,152.59 995.33,147.01Z" style="fill:rgb(253,210,9);fill-rule:nonzero;"/>
        <path d="M888.55,180.53C907.58,171.54 928.38,167.45 947.88,159.69C948.12,160.34 948.6,161.64 948.83,162.29C950.1,168.83 948.82,175.46 949.28,182.04C950.01,190.51 949.38,199.01 949.37,207.5C942.98,209.79 937.39,213.84 930.9,215.85C926.91,217.13 923.06,218.76 919.19,220.34C913.08,220.68 906.93,220.46 900.82,220.55C904.63,218.19 908.86,216.71 912.97,214.96C921.83,211.66 922.71,197.09 914.59,192.51C909.77,190.39 904.31,191.93 899.64,193.69C894.37,195.84 888.91,197.48 883.68,199.72C878.83,201.75 873.95,203.69 869.14,205.78C868.24,200.28 867.39,194.78 866.63,189.26C874.13,186.85 881.1,183.1 888.55,180.53Z" style="fill:rgb(253,210,9);fill-rule:nonzero;"/>
        <path d="M1058.18,165.16C1063.72,164.84 1069.22,163.97 1074.5,162.21C1074.46,163.75 1074.43,165.29 1074.41,166.83C1067.56,168.47 1060.63,170.01 1054.26,173.11C1046.85,175.74 1039.65,179.04 1031.99,180.9C1025.73,182.35 1020.29,186.08 1013.97,187.34C1007.51,188.79 1001.29,191.08 995.11,193.41C994.96,191.53 994.83,189.65 994.71,187.77C998.39,186.44 1001.97,184.49 1004.63,181.55C1006.45,179.81 1005.13,177.22 1005.07,175.1C1006.8,176.58 1008.48,178.55 1010.94,178.67C1014.57,179.06 1018.01,177.55 1021.35,176.33C1027.79,173.78 1034.59,172.37 1041.19,170.32C1046.89,168.73 1052.35,166.28 1058.18,165.16Z" style="fill:rgb(253,210,9);fill-rule:nonzero;"/>
        <path d="M830.3,235.2C832.58,233.04 835.71,234.39 837.36,236.63C837.53,241.2 840.49,245.22 840.15,249.86C842.72,255.01 844.86,260.86 849.84,264.21C852.38,265.34 855.06,266.15 857.58,267.36C860.19,268.6 863.86,268.19 865.39,271.18C866.18,273.85 864.84,276.37 863.38,278.52C861.74,278.57 860.1,278.57 858.49,278.48C853.47,282.03 848.36,285.74 845.1,291.09C841.67,295.65 841.73,301.58 839.5,306.62C836.79,309.26 832.95,307.06 831.45,304.21C831.67,300.94 831.95,297.65 831.76,294.37C823.98,290.86 818.93,283.36 811.07,280.09C810.1,279.46 809.17,278.78 808.28,278.06C808.67,276.26 808.88,274.38 809.68,272.7C811.04,270.73 813.76,271 815.85,270.46C820.26,266.07 825.08,261.09 825.75,254.6C827.11,251.3 826.66,247.58 828.05,244.29C829.6,241.39 827.32,237.47 830.3,235.2M831.41,258.2C828.54,263.86 825.19,269.3 821.12,274.19C820.27,275.37 819.1,276.46 818.84,277.95C820.91,280.7 824.3,281.91 826.85,284.14C830.09,287.03 832.82,290.74 836.99,292.37C840.87,289.39 843.43,285.09 846.27,281.19C847.62,279.48 847.78,277.27 847.86,275.18C847.74,274.3 847.64,273.44 847.55,272.57C843.01,267.66 840.82,260.53 834.72,257.21L834.8,256.98C833.66,257.38 832.53,257.78 831.41,258.2Z" style="fill:rgb(253,210,9);fill-rule:nonzero;"/>
        <path d="M998.35,238.33C1004.22,237.76 1010.12,237.06 1016.04,237.23C1022.42,237.38 1028.84,237.79 1035.21,237.03C1031.44,237.75 1027.32,237.88 1024.07,240.11C1019.17,244.19 1019.57,253.31 1025.38,256.43C1030.24,258.98 1035.36,255.33 1040.29,254.75C1036.25,257.28 1032.27,259.9 1027.99,261.99C1021.55,265.16 1015.86,269.94 1008.86,271.9C1006.23,272.75 1003.48,272.09 1000.86,271.64C998.93,266.37 999.32,260.66 998.38,255.19C997.4,249.61 997.89,243.93 998.35,238.33Z" style="fill:rgb(253,210,9);fill-rule:nonzero;"/>
        <path d="M939.62,260.63C943.76,257.32 946.31,250.73 952.58,251.48C955.35,252.43 956.22,255.25 956.29,257.91C953.97,256.32 951.08,255.36 948.33,256.37C945.98,256.88 945.18,259.4 944.12,261.23C940.63,268.36 937.19,275.51 933.46,282.51C932.31,284.96 930.6,287.65 931.49,290.46C932.26,292.41 933.72,293.98 934.99,295.64C931.3,295.66 927.61,295.8 923.94,295.94C917.54,296.07 911.47,299.05 905.02,298.47C902.71,298.21 901.08,296.05 900.54,293.93C901.24,290.99 902.16,287.54 905.44,286.56C911.9,284.1 916.13,278.43 921.76,274.7C928.05,270.47 933.76,265.44 939.62,260.63Z" style="fill:rgb(253,210,9);fill-rule:nonzero;"/>
        <path d="M831.25,266.25C834.97,270.76 837.49,276.49 842.67,279.6C840.2,281.96 837.5,284.06 834.7,286C831.61,282.92 828.5,279.85 825.42,276.77C827.61,273.41 829.69,269.95 831.25,266.25Z" style="fill:rgb(253,210,9);fill-rule:nonzero;"/>
        <path d="M957.86,95.32C959.34,94.57 961.41,96.93 960.63,98.37C959.18,97.97 958.26,96.7 957.86,95.32Z" style="fill:rgb(35,23,35);fill-opacity:0.75;fill-rule:nonzero;"/>
        <path d="M1023.55,100.08C1023.04,98.13 1027.21,97.58 1027.65,99.44C1026.3,99.81 1024.92,99.95 1023.55,100.08Z" style="fill:rgb(72,41,66);fill-opacity:0.61;fill-rule:nonzero;"/>
        <path d="M1098.57,245.47C1101.19,243.08 1104.94,242.09 1108.15,243.97C1108.51,246.22 1108.71,248.49 1108.76,250.77C1105.6,252.65 1101.95,252.94 1098.37,252.77C1097.94,250.38 1096.84,247.62 1098.57,245.47Z" style="fill:rgb(234,51,35);fill-rule:nonzero;"/>
        <path d="M1096.63,298.61C1099.12,295.54 1102.96,294.2 1106.38,292.48C1109.24,295.14 1109.07,299.9 1106.85,302.92C1104.77,305.98 1103.16,309.31 1101.62,312.66C1099.53,316.76 1095.18,318.87 1092.37,322.34C1089.83,325.94 1093.8,331.11 1097.9,329.54C1103.12,327.85 1108.51,325.14 1114.13,326.82C1116.3,327.46 1117.93,330.43 1116.25,332.31C1109.44,341.05 1097.36,345.13 1086.6,342.62C1080.7,341.28 1074.64,341.09 1068.65,340.46C1069.97,338.91 1071.35,337.4 1072.73,335.89C1074.85,330.64 1078.71,326.41 1081.48,321.53C1084.1,316.86 1087.38,312.59 1089.85,307.84C1091.62,304.43 1094.2,301.55 1096.63,298.61Z" style="fill:rgb(234,51,35);fill-rule:nonzero;"/>
        <path d="M849.04,327.62C863.96,328.16 878.69,325.33 893.23,322.34C892.8,324.6 892.63,326.91 893.03,329.21C892.02,334.23 889.37,338.63 887.5,343.33C886.21,349.4 883.24,354.91 881.65,360.9C878.58,360.55 875.32,360.21 872.84,358.18C867.39,353.88 860.15,353.56 853.91,351.04C848.3,348.15 842.57,345.46 836.63,343.32C831.93,341.64 827.71,338.82 822.87,337.54C817.78,336.25 812.85,334.17 808.75,330.84C813.76,329.77 818.88,329.39 824,329.47C832.41,329.81 840.62,327.17 849.04,327.62Z" style="fill:rgb(234,51,35);fill-rule:nonzero;"/>
        <path d="M926.12,127.82C927.12,127.84 928,128.21 928.75,128.92C927.19,129.96 926.31,129.59 926.12,127.82Z" style="fill:rgb(111,34,28);fill-opacity:0.97;fill-rule:nonzero;"/>
        <path d="M1024.93,137.87C1038.68,136.91 1052.49,137.52 1066.24,138.23C1062.61,140.91 1058.88,143.45 1055.44,146.37C1055.46,148.11 1055.49,149.85 1055.52,151.59C1056.57,152.23 1057.62,152.86 1058.7,153.5C1065.84,151.18 1072.8,147.71 1080.49,147.89C1080.57,155.61 1081.86,163.27 1081.82,170.99C1082.02,176.34 1081.3,181.66 1081.17,187.01C1080.31,193.95 1081.3,200.97 1080.33,207.91C1079.38,213.51 1079.39,219.21 1078.25,224.78C1075.89,224.61 1073.56,224.31 1071.22,224.16L1069.85,224.34C1069.84,221.01 1070.06,217.68 1070.48,214.38C1071.92,198.54 1073.62,182.71 1074.41,166.83C1074.43,165.29 1074.46,163.75 1074.5,162.21C1069.22,163.97 1063.72,164.84 1058.18,165.16C1050.73,164.55 1043.31,163.19 1036.2,160.88C1030.73,159.11 1026.3,155.28 1022.24,151.35C1020.83,149.83 1019.55,148.19 1018.38,146.5C1018.37,142.66 1020.75,138.2 1024.93,137.87Z" style="fill:rgb(253,248,192);fill-rule:nonzero;"/>
        <path d="M898.34,141.95C911.19,139.88 924.22,139.67 937.15,138.46C938.63,138.91 940.84,138.77 941.29,140.67C942.86,143.4 940.22,145.85 938.98,148.09C930.28,148.59 921.76,150.74 913.05,150.93C903.3,151.7 893.73,153.84 883.99,154.65C877.22,155.25 870.61,157.32 863.78,157.15C862.49,155.84 861.24,154.51 860.01,153.17C860.83,151.54 861.64,149.91 862.47,148.29L862.56,148.11C874.24,144.85 886.29,143.09 898.34,141.95Z" style="fill:rgb(253,248,192);fill-rule:nonzero;"/>
        <path d="M992.21,163.71C993.08,163.72 994.83,163.75 995.7,163.77C998.69,164.07 1001.48,165.31 1003.83,167.17C1004.2,167.43 1004.93,167.96 1005.29,168.23C1005.14,170.51 1005.01,172.8 1005.07,175.1C1005.13,177.22 1006.45,179.81 1004.63,181.55C1001.97,184.49 998.39,186.44 994.71,187.77C993.98,187.86 992.54,188.05 991.82,188.14C991.17,179.98 992.31,171.86 992.21,163.71Z" style="fill:rgb(253,248,192);fill-rule:nonzero;"/>
        <path d="M883.68,199.72C887.25,199.11 891.12,198.19 894.63,199.56C897.62,201.11 900.41,203.66 901.38,206.99C902.24,211.68 899.88,216.08 898.09,220.26C897.36,220.29 895.89,220.35 895.16,220.38C887.78,220.33 880.41,220.37 873.05,220.75C870.14,220.73 867.06,221.07 864.34,219.9C861.46,217.54 861.89,213.32 860.93,210.03L860.71,208.97C863.54,207.98 866.39,207 869.14,205.78C873.95,203.69 878.83,201.75 883.68,199.72Z" style="fill:rgb(253,248,192);fill-rule:nonzero;"/>
        <path d="M1054.51,234.65C1057.05,232.71 1060.38,233.36 1063.34,233.41C1063.54,238.96 1062.94,244.5 1063.35,250.06C1062.59,256.04 1062.65,262.08 1062.47,268.1C1061.65,278.02 1060.32,287.91 1060.41,297.88C1057.44,298.08 1054.48,298.44 1051.51,298.52C1051.5,294.97 1051.63,291.42 1051.94,287.88L1052.02,286.93C1053.23,284.81 1053.4,282.36 1052.68,280.06L1052.67,279.82C1053.25,269.33 1054.74,258.82 1053.84,248.32C1053.79,247.69 1053.68,246.44 1053.62,245.82C1053.42,244.19 1053.17,242.57 1053.02,240.96C1052.85,238.82 1052.37,236 1054.51,234.65Z" style="fill:rgb(253,248,192);fill-rule:nonzero;"/>
        <path d="M831.25,266.25C832.48,263.26 833.6,260.23 834.72,257.21C840.82,260.53 843.01,267.66 847.55,272.57C847.64,273.44 847.74,274.3 847.86,275.18C846.07,276.58 844.33,278.05 842.67,279.6C837.49,276.49 834.97,270.76 831.25,266.25Z" style="fill:rgb(253,248,192);fill-rule:nonzero;"/>
        <path d="M991.68,146.08C992.88,146.41 994.1,146.72 995.33,147.01C995.69,152.59 995.76,158.18 995.7,163.77C994.83,163.75 993.08,163.72 992.21,163.71C991.71,157.84 991.83,151.96 991.68,146.08Z" style="fill:rgb(233,122,9);fill-rule:nonzero;"/>
        <path d="M949.65,146.85C951.24,146.88 952.85,146.93 954.46,146.99C954.68,160.66 954.87,174.33 955.47,188C955.29,199.3 955.24,210.6 955.75,221.89C952.47,222.21 949.18,221.94 945.92,221.68C938.53,221.45 931.13,221.43 923.77,220.7C931.89,220.71 939.98,219.9 948,218.75C948.34,214.98 948.9,211.24 949.37,207.5C949.38,199.01 950.01,190.51 949.28,182.04C948.82,175.46 950.1,168.83 948.83,162.29C949.66,157.19 950.02,152.02 949.65,146.85Z" style="fill:rgb(233,122,9);fill-rule:nonzero;"/>
        <path d="M1103.11,147.57C1106.49,150.85 1108.65,155.1 1111.63,158.72C1112.61,166.58 1113.84,174.41 1113.78,182.35C1112.91,178.85 1111.76,175.34 1109.26,172.64C1106.35,169.36 1104.98,165.01 1101.93,161.86L1101.93,161.8C1101.42,157.02 1101.37,152.12 1103.11,147.57Z" style="fill:rgb(233,122,9);fill-rule:nonzero;"/>
        <path d="M852.91,159.98C856.72,159.38 860.45,158.35 864.25,157.68C864.48,158.01 864.95,158.68 865.18,159.01C865.78,169.08 864.97,179.27 866.63,189.26C867.39,194.78 868.24,200.28 869.14,205.78C866.39,207 863.54,207.98 860.71,208.97C856.2,192.97 856.02,176.23 852.91,159.98Z" style="fill:rgb(233,122,9);fill-rule:nonzero;"/>
        <path d="M991.82,188.14C992.54,188.05 993.98,187.86 994.71,187.77C994.83,189.65 994.96,191.53 995.11,193.41C995.89,200.56 994.71,207.74 995.37,214.9C1010.74,214.17 1026.13,214.34 1041.51,214.3C1051.14,214.08 1060.95,212.01 1070.48,214.38C1070.06,217.68 1069.84,221.01 1069.85,224.34C1066.6,224.95 1063.3,224.89 1060.03,224.67C1048.05,223.94 1036.01,224.83 1024.06,223.66C1013.35,222.6 1002.57,224.08 991.88,222.63C990.9,211.15 991.63,199.64 991.82,188.14Z" style="fill:rgb(233,122,9);fill-rule:nonzero;"/>
        <path d="M938.26,231.39C946.18,230.98 954.12,231.52 962.05,231.23C963.13,242.43 963.07,253.71 964.38,264.89C965.78,278.6 964.15,292.73 967.89,306.13C956.64,307.17 945.35,308.07 934.05,307.78C915.26,307.16 896.55,309.64 877.99,312.25C875.79,296.46 875.85,280.47 875.21,264.56C875.42,255.5 874.3,246.48 874.37,237.43C879.48,236.22 884.69,235.19 889.98,235.21C899.09,235.27 907.96,232.77 917.06,232.51C924.1,231.64 931.21,232.18 938.26,231.39M932.41,249.56C925.41,251.31 918.17,251.52 911.05,252.51C904.35,252.26 897.92,254.19 891.36,255.18C890.13,263.75 889.74,272.4 889.48,281.04C888.53,285.64 887.81,290.35 889.15,294.97C892.96,294.79 896.77,294.5 900.54,293.93C901.08,296.05 902.71,298.21 905.02,298.47C911.47,299.05 917.54,296.07 923.94,295.94C927.61,295.8 931.3,295.66 934.99,295.64C939.03,295.78 943,295 946.97,294.36C949.17,293.93 951.92,294.38 953.51,292.41C955.66,290.07 957.32,287.11 957.6,283.9C958.02,278.63 958.29,273.32 957.59,268.07C957.08,264.69 957.83,261.06 956.29,257.91C956.22,255.25 955.35,252.43 952.58,251.48C952.27,250.32 951.95,249.15 951.67,248C945.29,249.02 938.79,248.64 932.41,249.56Z" style="fill:rgb(233,122,9);fill-rule:nonzero;"/>
        <path d="M987.68,230.27C1003.45,231.43 1019.27,230.99 1035.05,232.09C1043.04,232.22 1051.04,232.49 1059.04,232.45C1060.51,232.4 1062.03,232.66 1063.34,233.41C1060.38,233.36 1057.05,232.71 1054.51,234.65C1052.37,236 1052.85,238.82 1053.02,240.96C1051.21,239.24 1049.49,237.16 1046.97,236.57C1043.09,235.56 1039.08,236.57 1035.21,237.03C1028.84,237.79 1022.42,237.38 1016.04,237.23C1010.12,237.06 1004.22,237.76 998.35,238.33C997.89,243.93 997.4,249.61 998.38,255.19C999.32,260.66 998.93,266.37 1000.86,271.64C1003.32,278.17 1002.87,285.25 1004.14,292.02C1020.18,292.3 1036.13,290.39 1051.94,287.88C1051.63,291.42 1051.5,294.97 1051.51,298.52L1051.48,298.84C1041.28,299.74 1031.28,302.89 1020.96,302.62C1012.15,302.81 1003.32,302.64 994.56,303.7C992.93,293.56 992.74,283.22 991.89,272.99C992.03,258.61 989.15,244.51 987.68,230.27M1041.23,291.23C1041.75,291.74 1041.75,291.74 1041.23,291.23Z" style="fill:rgb(233,122,9);fill-rule:nonzero;"/>
        <path d="M1052.02,286.93C1051.16,284.62 1051.33,282.13 1052.68,280.06C1053.4,282.36 1053.23,284.81 1052.02,286.93Z" style="fill:rgb(233,122,9);fill-rule:nonzero;"/>
        <path d="M938.98,148.09C942.52,147.58 946.05,146.91 949.65,146.85C950.02,152.02 949.66,157.19 948.83,162.29C948.6,161.64 948.12,160.34 947.88,159.69C928.38,167.45 907.58,171.54 888.55,180.53C881.1,183.1 874.13,186.85 866.63,189.26C864.97,179.27 865.78,169.08 865.18,159.01C864.95,158.68 864.48,158.01 864.25,157.68L863.78,157.15C870.61,157.32 877.22,155.25 883.99,154.65C893.73,153.84 903.3,151.7 913.05,150.93C921.76,150.74 930.28,148.59 938.98,148.09Z" style="fill:rgb(255,182,32);fill-rule:nonzero;"/>
        <path d="M1054.26,173.11C1060.63,170.01 1067.56,168.47 1074.41,166.83C1073.62,182.71 1071.92,198.54 1070.48,214.38C1060.95,212.01 1051.14,214.08 1041.51,214.3C1026.13,214.34 1010.74,214.17 995.37,214.9C994.71,207.74 995.89,200.56 995.11,193.41C1001.29,191.08 1007.51,188.79 1013.97,187.34C1020.29,186.08 1025.73,182.35 1031.99,180.9C1039.65,179.04 1046.85,175.74 1054.26,173.11Z" style="fill:rgb(255,182,32);fill-rule:nonzero;"/>
        <path d="M930.9,215.85C937.39,213.84 942.98,209.79 949.37,207.5C948.9,211.24 948.34,214.98 948,218.75C939.98,219.9 931.89,220.71 923.77,220.7C922.23,220.65 920.7,220.53 919.19,220.34C923.06,218.76 926.91,217.13 930.9,215.85Z" style="fill:rgb(255,182,32);fill-rule:nonzero;"/>
        <path d="M1049.07,253.04C1051.4,251.28 1052.31,248.32 1053.62,245.82C1053.68,246.44 1053.79,247.69 1053.84,248.32C1053.02,254.88 1050.6,261.28 1051.12,267.98C1051.35,271.95 1052.06,275.88 1052.67,279.82L1052.68,280.06C1051.33,282.13 1051.16,284.62 1052.02,286.93L1051.94,287.88C1036.13,290.39 1020.18,292.3 1004.14,292.02C1002.87,285.25 1003.32,278.17 1000.86,271.64C1003.48,272.09 1006.23,272.75 1008.86,271.9C1015.86,269.94 1021.55,265.16 1027.99,261.99C1032.27,259.9 1036.25,257.28 1040.29,254.75C1043.18,254.06 1046.25,254.1 1049.07,253.04Z" style="fill:rgb(255,182,32);fill-rule:nonzero;"/>
        <path d="M932.41,249.56C938.79,248.64 945.29,249.02 951.67,248C951.95,249.15 952.27,250.32 952.58,251.48C946.31,250.73 943.76,257.32 939.62,260.63C933.76,265.44 928.05,270.47 921.76,274.7C916.13,278.43 911.9,284.1 905.44,286.56C902.16,287.54 901.24,290.99 900.54,293.93C896.77,294.5 892.96,294.79 889.15,294.97C887.81,290.35 888.53,285.64 889.48,281.04C889.74,272.4 890.13,263.75 891.36,255.18C897.92,254.19 904.35,252.26 911.05,252.51C918.17,251.52 925.41,251.31 932.41,249.56Z" style="fill:rgb(255,182,32);fill-rule:nonzero;"/>
        <path d="M831.41,258.2C832.53,257.78 833.66,257.38 834.8,256.98L834.72,257.21C833.6,260.23 832.48,263.26 831.25,266.25C829.69,269.95 827.61,273.41 825.42,276.77C828.5,279.85 831.61,282.92 834.7,286C837.5,284.06 840.2,281.96 842.67,279.6C844.33,278.05 846.07,276.58 847.86,275.18C847.78,277.27 847.62,279.48 846.27,281.19C843.43,285.09 840.87,289.39 836.99,292.37C832.82,290.74 830.09,287.03 826.85,284.14C824.3,281.91 820.91,280.7 818.84,277.95C819.1,276.46 820.27,275.37 821.12,274.19C825.19,269.3 828.54,263.86 831.41,258.2Z" style="fill:rgb(255,182,32);fill-rule:nonzero;"/>
        <path d="M853.04,158.6C850.97,159.01 851.28,154.72 853.27,155.58C853.21,156.59 853.13,157.59 853.04,158.6Z" style="fill:rgb(5,5,5);fill-opacity:0.49;fill-rule:nonzero;"/>
        <path d="M860.93,210.03C861.89,213.32 861.46,217.54 864.34,219.9C867.06,221.07 870.14,220.73 873.05,220.75C880.41,220.37 887.78,220.33 895.16,220.38C885.04,220.82 874.83,221.68 864.73,220.71C860.95,218.65 861.7,213.62 860.93,210.03Z" style="fill:rgb(140,137,107);fill-opacity:0.94;fill-rule:nonzero;"/>
        <path d="M1032.06,315.08C1036.56,313.47 1040.95,310.2 1045.96,311.65C1043.26,316.4 1037.99,318.45 1034.34,322.27C1030.86,325.6 1027.02,328.55 1022.82,330.91C1014.48,336.45 1007.04,343.21 998.59,348.6C988.8,356.67 977.79,363.04 967.17,369.94C967.77,371.99 968.51,374.02 969.61,375.87C972.24,374.06 975.01,372.45 977.92,371.11C976.47,375.75 975.22,380.51 972.93,384.84C971.3,388.14 969.07,391.31 968.67,395.07C969.74,397.02 971.91,397.86 974.07,397.39C978.82,392.56 981.29,386.1 983.56,379.86C985.94,382.02 988.29,384.22 990.51,386.56C990.04,386.65 989.09,386.82 988.62,386.91C989.21,395.83 990.72,404.66 992.47,413.42C993.38,418.02 996.06,421.94 997.86,426.2C999.27,429.39 999.34,432.93 999.59,436.36C989.74,436.98 979.88,436.7 970.03,436.36C965.79,436.22 961.63,437.32 957.4,437.13C955.66,425.43 963.75,415.64 965.69,404.56C964.5,402.99 963.14,401.5 962.34,399.7C961.73,396.38 963.01,393.1 963.99,389.99C965.68,385.5 967.03,380.89 968.1,376.21C961.97,377.09 955.48,377.61 949.59,375.32C946.38,373.91 946.52,369.99 946.34,367.05C937.7,370.36 929.28,374.31 920.35,376.77C916.07,378.16 912.14,380.43 907.79,381.6C900.96,383.35 894.01,385.5 886.88,384.66C891.69,378.92 899.58,378.42 905.53,374.41C914.73,368.21 925.07,364.06 934.84,358.86C938.59,356.92 943.43,355.65 944.82,351.11C950.14,348.8 955.56,346.64 960.44,343.44C966.6,339.49 974.02,338.48 980.52,335.26C987.49,332.44 994.02,328.65 1001.08,326.01C1011.42,322.43 1021.88,319.13 1032.06,315.08M948.9,370.17C950.42,371.87 952.49,373.76 954.97,372.58C958.5,370.31 962.08,366.6 961.38,362.01C960.46,360.37 958.73,359.21 956.8,359.57C953.27,362.32 951.01,366.31 948.9,370.17M976.59,412.07C975.96,414.83 979.33,415.78 981.17,416.8C985.85,413.51 988.1,407.62 987.85,402.03C987.07,399.9 984.47,399.77 982.7,398.99C980.02,403.02 978.35,407.6 976.59,412.07Z" style="fill:rgb(75,77,163);fill-rule:nonzero;"/>
        <path d="M909.25,392.26C911.91,389.51 915.88,388.14 919.67,388.44C922.79,389.23 925.04,393.32 923.24,396.23C919.51,403.27 912.2,407.51 908.52,414.61C913.73,413.36 919.17,412.47 923.97,409.97C929.96,404.59 932.82,396.74 937.42,390.3C940.97,389.31 945.56,388.91 948.6,391.39C952.38,397.7 950.34,405.45 948.31,412.02C946.31,420.47 942.97,428.49 940.18,436.69C931.37,436.83 922.55,436.55 913.75,437.04C916.47,435.45 919.23,433.9 921.69,431.92C930.51,426.34 936.18,417.35 941.74,408.79C943.02,405.96 945.24,401.48 941.7,399.37C938.28,397.19 936.59,401.99 935.11,404.19C931,410.66 924.92,415.98 917.85,419C913.51,421.19 909.69,424.45 904.96,425.82C901.65,426.81 898.29,427.63 894.91,428.33C890.3,426.23 885.07,427.16 880.34,425.57C877.06,424.46 873.28,423.88 870.93,421.09C868.38,418.35 865.69,415.75 863.13,413.03C863.48,411.73 863.82,410.44 864.18,409.15C866.53,410.57 868.98,411.94 871.74,412.38C878.76,413.65 885.83,414.78 892.98,414.82C894.02,413.13 895.08,411.44 896.16,409.77C894.93,408.56 893.85,406.93 891.98,406.77C884.3,405.17 876.07,405.51 868.84,402.15C872.25,402.27 875.69,402.33 879.09,402.81C886.31,403.99 893.47,401.55 900.17,399.09C903.85,397.82 906.58,394.96 909.25,392.26Z" style="fill:rgb(75,77,163);fill-rule:nonzero;"/>
        <path d="M926.57,323.47C928.42,322.7 929.8,321.16 931.53,320.17C932.17,319.96 933.44,319.53 934.08,319.32C933.07,322.96 931.42,326.36 929.8,329.75C928.72,331.58 929.88,333.57 930.44,335.37C928.69,335.94 927,336.65 925.4,337.52C925.7,339.24 925.9,341 926.42,342.69C927.62,344.45 929.89,344.67 931.77,345.29C933.16,344.93 934.58,344.62 936.02,344.35C930.9,347.36 925.51,349.88 920.21,352.55C918.82,350.51 917.88,347.4 915.02,347.1C912.52,346.81 910.03,347.28 907.56,347.56C907.45,344.35 905.72,340.79 907.53,337.8C908.01,336.28 909.76,336.07 910.96,335.33C912.23,336.43 913.56,337.47 914.94,338.44C916.72,337.32 918.37,336 919.68,334.34C919.55,333.49 919.28,331.79 919.15,330.94C917.23,328.75 914.71,327.33 911.89,326.68C908.39,327.61 904.93,328.76 902,330.93C902.18,328.7 902.29,325.77 904.86,324.95C906.01,324.66 907.5,324.24 907.75,322.87C911.45,322.81 915.31,321.44 918.87,323.06C921.31,324.04 924.02,324.01 926.57,323.47Z" style="fill:rgb(255,209,186);fill-rule:nonzero;"/>
        <path d="M898.84,339.16L899.05,339.08C899.48,343.12 899.06,347.34 900.76,351.13C901.52,351.66 902.29,352.2 903.06,352.75C903.37,355.08 903.73,357.4 904.11,359.73L904.13,359.85C899.07,362.14 894.09,364.66 888.69,366.05C889.48,362.67 890.33,359.25 891.95,356.16C894.86,350.69 895.38,344.32 898.84,339.16Z" style="fill:rgb(255,209,186);fill-rule:nonzero;"/>
        <path d="M920.35,376.77C929.28,374.31 937.7,370.36 946.34,367.05C946.52,369.99 946.38,373.91 949.59,375.32C955.48,377.61 961.97,377.09 968.1,376.21C967.03,380.89 965.68,385.5 963.99,389.99C963.01,393.1 961.73,396.38 962.34,399.7C963.14,401.5 964.5,402.99 965.69,404.56C963.75,415.64 955.66,425.43 957.4,437.13C951.68,436.04 945.9,437.64 940.18,436.69C942.97,428.49 946.31,420.47 948.31,412.02C950.34,405.45 952.38,397.7 948.6,391.39C945.56,388.91 940.97,389.31 937.42,390.3C932.82,396.74 929.96,404.59 923.97,409.97C919.17,412.47 913.73,413.36 908.52,414.61C912.2,407.51 919.51,403.27 923.24,396.23C925.04,393.32 922.79,389.23 919.67,388.44C915.88,388.14 911.91,389.51 909.25,392.26C906.58,394.96 903.85,397.82 900.17,399.09C893.47,401.55 886.31,403.99 879.09,402.81C875.69,402.33 872.25,402.27 868.84,402.15C863.98,400.33 859.71,396.94 857.67,392.08C858.55,385.46 861.19,378.61 866.36,374.16C867.13,374.45 867.91,374.74 868.71,375.03C869.2,374.57 870.19,373.64 870.68,373.17C870.62,373.52 870.49,374.21 870.42,374.56C869.85,374.86 868.7,375.45 868.13,375.74C868.25,377.68 868.39,379.62 868.62,381.56C870.42,382.95 871.85,384.73 873.55,386.24C877.68,388.44 882.37,387.06 886.04,384.62L886.88,384.66C894.01,385.5 900.96,383.35 907.79,381.6C912.14,380.43 916.07,378.16 920.35,376.77Z" style="fill:rgb(142,95,218);fill-rule:nonzero;"/>
        <path d="M988.62,386.91C989.09,386.82 990.04,386.65 990.51,386.56C994.1,390.92 998.91,394.17 1001.97,398.99C1004.55,403.04 1008.74,405.72 1011.13,409.92C1015.04,414.74 1019.5,419.24 1022.19,424.93C1024.07,429.09 1027.21,432.46 1030.27,435.78C1025.81,436.25 1021.34,436.12 1016.88,436.42C1011.12,436.99 1005.36,435.73 999.59,436.36C999.34,432.93 999.27,429.39 997.86,426.2C996.06,421.94 993.38,418.02 992.47,413.42C990.72,404.66 989.21,395.83 988.62,386.91Z" style="fill:rgb(142,95,218);fill-rule:nonzero;"/>
        <path d="M934.08,319.32C937.33,318.25 940.7,317.11 944.18,317.6C947.19,322.11 949.04,327.89 946.58,333.08C941.85,335.82 936.24,336.2 930.92,336.61L930.44,335.37C929.88,333.57 928.72,331.58 929.8,329.75C931.42,326.36 933.07,322.96 934.08,319.32Z" style="fill:rgb(249,165,131);fill-rule:nonzero;"/>
        <path d="M907.56,347.56C910.03,347.28 912.52,346.81 915.02,347.1C917.88,347.4 918.82,350.51 920.21,352.55C914.53,354.3 909.98,358.53 904.11,359.73C903.73,357.4 903.37,355.08 903.06,352.75C904.48,352.4 905.91,351.98 907.31,351.52C907.39,350.2 907.47,348.87 907.56,347.56Z" style="fill:rgb(249,165,131);fill-rule:nonzero;"/>
        <path d="M1051.12,267.98C1050.6,261.28 1053.02,254.88 1053.84,248.32C1054.74,258.82 1053.25,269.33 1052.67,279.82C1052.06,275.88 1051.35,271.95 1051.12,267.98Z" style="fill:rgb(235,128,12);fill-rule:nonzero;"/>
        <path d="M1041.23,291.23C1041.75,291.74 1041.75,291.74 1041.23,291.23Z" style="fill:rgb(150,78,6);fill-opacity:0.65;fill-rule:nonzero;"/>
    </g>
</svg>
