<?xml version="1.0" encoding="UTF-8" standalone="no"?>
<!DOCTYPE svg PUBLIC "-//W3C//DTD SVG 1.1//EN" "http://www.w3.org/Graphics/SVG/1.1/DTD/svg11.dtd">
<svg width="100%" height="100%" viewBox="0 0 345 350" version="1.1" xmlns="http://www.w3.org/2000/svg" xmlns:xlink="http://www.w3.org/1999/xlink" xml:space="preserve" xmlns:serif="http://www.serif.com/" style="fill-rule:evenodd;clip-rule:evenodd;stroke-linejoin:round;stroke-miterlimit:2;">
    <g transform="matrix(1,0,0,1,-444.22,-95.481551)">
        <path d="M578.93,101.85C582.48,99.13 586.46,96.73 590.94,95.99C595.29,95.32 599.71,95.94 604.1,95.61C609.25,94.68 613.52,98.97 616.02,102.99C619.16,113 618.52,123.87 615.58,133.87C612.64,143.08 608.02,151.6 604.47,160.58C600.67,167.78 596.14,174.74 590.36,180.51C587.56,182.89 583.62,181.65 581.95,178.58C579.49,177.95 576.96,177.51 574.73,176.28C568.31,172.97 561.19,170.94 555.26,166.73C552.66,164.37 550,162.02 547.68,159.39C544.3,153.4 539.76,147.9 538.08,141.11C536.96,136.51 534.93,131.93 535.58,127.11C536.07,123.3 536.74,119.49 537.8,115.8C539.96,112.44 542.68,108.66 546.94,108.03C552.21,107.26 557.62,107.19 562.93,107.7C566.42,107.99 568.82,110.78 571.47,112.74C574.39,109.38 575.17,104.5 578.93,101.85M588.73,107.71C584.05,109.47 580.97,114.04 580.64,118.96C580.59,123.45 584.35,127.34 583.19,131.9C582.02,135.34 576.56,136.74 574.29,133.62C572.26,130.77 572.39,126.78 569.86,124.26C567.26,121.7 564.41,119.18 560.91,118.01C556.66,116.81 552.26,117.87 547.98,118.21C543.67,124.75 544.92,133.64 548.32,140.33C549.84,145 553.38,148.61 555.13,153.15C559.21,157.18 563.99,160.56 569.21,162.96C574.71,165.83 581.05,166.91 585.97,170.92C588.56,167.21 591.69,163.84 593.74,159.77C596.06,155.01 598.41,150.27 600.48,145.4C603.21,140.74 604.26,135.37 606.56,130.51C608.95,125.37 608.79,119.57 608.41,114.05C608.27,111.01 606.77,108.34 605.22,105.83C599.68,105.81 593.82,104.91 588.73,107.71Z" style="fill:rgb(11,11,11);fill-rule:nonzero;"/>
        <path d="M694.44,106.48C695.88,104.29 698.39,103.36 700.79,102.6C704.05,104.17 707.59,103.57 711.04,103.36C716.05,103.54 719.12,108.54 720.03,112.97C720.19,118.09 718.88,123.5 715.5,127.49C711.35,131.23 705.38,132.08 700.03,131.16C696.26,130.42 693.38,127.73 690.65,125.24C689.82,118.88 689.92,111.53 694.44,106.48M699.88,120.22C702.2,120.72 704.52,121.49 706.94,121.39C709.58,119.74 711.1,116.39 709.6,113.45C706.87,114.08 704.08,114.2 701.37,113.46C700.09,115.5 699.83,117.87 699.88,120.22Z" style="fill:rgb(11,11,11);fill-rule:nonzero;"/>
        <path d="M467.28,124.23C473.22,121.71 480.6,122.26 485.82,126.2C489.06,128.52 492.56,130.7 494.83,134.08C500.69,142.7 510.9,146.67 517.62,154.47C523.16,161.45 532.67,163.82 537.8,171.18C543.31,177.45 550.33,182.05 556.75,187.29C561,190.82 563.81,195.73 568.13,199.19C568.31,199.6 568.67,200.43 568.85,200.84C573.84,203.59 578.94,206.69 582.05,211.64C583.82,213.9 586.01,217.92 589.49,216.39C594.36,214.25 598.8,211.19 603.97,209.68C605.05,210.12 606.14,210.55 607.24,210.99C607.64,212.93 608.86,214.98 608,216.97C605.94,221.92 603.93,227.05 600.23,231.05C602.34,232.37 604.31,234.33 606.94,234.44C610.66,234.96 614.67,233.92 618.14,235.75C621.1,237.29 624.12,239.04 626.28,241.64C630.55,249.06 630.44,258.61 626.88,266.28C631.77,266.86 636.18,264.31 640.98,264C645.66,263.38 650.44,264.52 655.09,263.36C645.46,253.91 637.7,242.84 630.31,231.6C624.93,224.62 621.42,216.43 618.48,208.18C615.75,198.02 613.4,187.04 616.72,176.73C618.92,171.77 621.27,166.81 624.48,162.42C627.33,158.45 632.75,157.35 635.16,152.98C642.36,148.77 650.63,145.86 659.06,146.14C669.45,145.26 680.54,149.88 686.3,158.77C687.94,161.16 688.09,164.16 689.13,166.81C690.74,172.1 694.17,176.66 695.3,182.13C696.2,187.23 698.83,191.85 699.36,197.03C700.33,202.17 698.62,207.37 699.48,212.52C701.15,205.67 702.29,198.65 704.96,192.08C709.58,179.05 716.69,167.03 725.13,156.12C731.31,145.36 743.93,139.54 756.08,139.55C765.67,138.67 776.44,143.24 780.48,152.39C792.04,174.71 790.82,202.16 780.59,224.72C779.2,228.05 778.65,231.71 776.77,234.84C774.38,238.9 772.51,243.63 768.33,246.22C763.28,249.43 758.34,252.81 753.57,256.42C757.03,256.57 760.22,257.96 762.54,260.57C763.2,266.44 763.4,272.35 764.43,278.18C765.47,288.08 764.6,298.04 764.44,307.96C763.77,310.88 762.76,314.94 759.16,315.23C752.62,316.15 746.14,317.61 739.51,317.78C739.98,323.83 740.9,329.85 741.5,335.89C741.95,343.04 744.27,349.92 744.73,357.06C744.75,363.05 745.63,369.01 745.27,375C745.45,382.69 746.14,390.39 745.75,398.09C745.49,400.09 744.22,401.75 743.37,403.54C732.36,407.64 720.35,405.7 709,407.94C703.14,408.16 697.25,408.02 691.48,409.17C673.04,410.72 654.55,412.26 636.04,411.42C632.08,411.32 628.12,411.34 624.17,411.33C624.3,416.14 624.27,420.96 624.21,425.77C629.76,425.74 635.28,426.43 640.82,426.5C654.2,425.49 667.61,428.49 680.98,426.84C687.69,426.73 694.31,428.29 701.01,428.55C707.86,427.35 715,427 721.83,428.59C724.33,429.94 726.53,433.07 725.01,435.93C723.55,438.48 720.66,439.7 718.41,441.41C711.45,443.65 704.15,442.27 697.01,442.3C688.69,441.1 680.15,440.41 671.83,441.97C663.58,443.35 655.24,442.26 647,441.58C635.34,441.74 623.64,441.78 612.05,443.13C605.36,441.38 598.68,444.02 591.94,443.29C585.91,442.84 579.52,441.73 573.89,444.54C562.26,445.37 550.64,443.47 539.01,443.8C532.68,445.16 526.31,443.72 519.96,443.54C507.64,444.01 495.32,443.82 483,443.75C478.34,444.08 473.72,445.06 469.04,444.79C463.96,444.75 459.03,443.13 453.94,443.34C451.77,443.34 449.46,443.57 447.49,442.49C445.65,441.64 445.16,439.48 444.22,437.9C445.99,434.72 448.72,432.01 452.55,431.74C454.98,426.43 459.11,422.2 462.31,417.37C465.84,412.23 471.02,408.57 474.75,403.59C475.16,403.28 475.97,402.67 476.38,402.36C479.35,395.77 484.35,390.44 488.72,384.79C491.12,380.52 495.4,377.57 497.07,372.85C497.73,372.29 498.4,371.73 499.07,371.18C499.32,370.3 499.58,369.41 499.84,368.54C494.4,367.98 490.29,364.09 486.37,360.66C483.4,357.56 479.56,355.24 477.39,351.46C475.8,348.96 474.68,346.18 472.91,343.8C470.02,335.36 471.76,326.12 474.81,317.98C474.71,312.95 472.62,308.09 472.86,302.98C473,295.78 470.88,287.64 475.47,281.35C479.42,276.97 484.85,274.24 490.08,271.71C498.04,270.15 506.06,268.88 513.98,267.12C511.62,258.37 508.32,249.84 507.17,240.81C505.22,234.32 503.29,227.75 500.76,221.47C497.27,217.01 496.46,211.31 493.71,206.46C490.89,200.52 488.58,194.35 486.45,188.13C482.86,178.78 475.69,171.44 471.51,162.39C468.51,158.16 468.59,152.63 465.6,148.41C462.25,143.76 462.57,137.8 460.67,132.6C461.74,129.14 463.8,125.69 467.28,124.23M471,133.58C471.62,136.88 472.16,140.27 473.76,143.27C477.22,149.67 478.91,156.92 482.98,163.01C488.53,171.02 494.08,179.32 496.74,188.8C499.22,195.32 502.57,201.47 504.83,208.07C506.44,212.55 509.2,216.49 510.91,220.93C513.45,228.95 516.03,236.97 517.99,245.16C518.37,250 520.75,254.36 521.51,259.12C522.24,263.21 524.34,266.9 525.12,270.98C525.4,273.43 525.07,275.89 524.94,278.33C528.45,276.54 532.04,274.74 534.96,272.03C541.77,265.79 549.51,260.63 555.99,254.02C561.06,249.01 566.89,244.87 572.42,240.39C574.81,238.45 576.12,235.53 578.48,233.54C580.42,231.9 581.95,229.87 583.09,227.61C580.15,224.99 577.52,222.04 575.24,218.83C571.57,213.71 565.42,211.36 561.04,207C556.43,202.27 552.89,196.39 547.4,192.58C540.95,189 535.61,183.75 530.93,178.11C527.1,173.42 521.49,170.8 516.7,167.26C513.2,164.8 510.89,161.08 507.52,158.47C502.45,153.82 495.92,150.9 491.52,145.5C488.14,141.25 484.56,136.92 479.75,134.23C477.1,132.59 473.9,133.49 471,133.58M746.04,151.03C741.64,153.34 736.71,155.54 734.27,160.15C732.08,164.21 727.78,166.7 726.05,171.05C724.65,174.17 722.75,177.01 720.91,179.86C718.18,184.1 716.51,188.87 714.47,193.44C711.04,201.59 710.23,210.48 708.36,219.05C706.35,232.09 704.12,245.19 703.29,258.34C703.39,258.39 703.6,258.49 703.7,258.54C704.15,258.51 705.07,258.46 705.53,258.43C708.2,253.41 707.3,247.33 708.89,241.96C711.13,234.86 712.38,227.46 715.33,220.59C720.34,207.9 725.77,194.49 736.6,185.6C739.62,182.97 742.21,179.8 745.63,177.66C748.64,175.76 752.34,176.65 755.69,176.69C760.23,177.87 763.14,181.67 765.49,185.46C767.57,191.44 767.37,197.9 765.87,203.99C764.94,214.5 758.78,223.33 753.6,232.15C749.84,241.43 740.25,245.88 733.8,252.94C741.37,251.77 748.54,248.39 754.28,243.31C758.04,240.05 763.23,238.61 766.29,234.52C768.64,230.47 769.76,225.87 771.6,221.59C774.01,216.11 776.21,210.47 777.4,204.58C777.99,198.35 778.56,192.11 779.39,185.91C779.4,179.45 777.51,173.19 776.05,166.96C775.13,162.55 771.79,159.1 771.07,154.64C768.64,152.84 765.98,151.38 763.23,150.16L763.25,149.93C757.53,150.09 751.35,148.1 746.04,151.03M642.94,159.95C638.84,163.52 633.85,166.14 630.6,170.61C627.6,174.49 625.4,179.12 624.78,184.01C623.82,189.02 625.2,194.05 626.29,198.91C627.73,204.69 629.62,210.39 632.23,215.75C635.57,221.6 639.78,226.89 643.4,232.58C648.46,240.63 654.23,248.28 660.96,255.03C663.51,257.49 665.82,260.53 669.39,261.53C665.41,255.26 660.02,249.9 656.98,243.03C653.1,234.44 649.26,225.8 646.13,216.9C644.6,209.7 644.72,202.06 646.81,194.97C647.98,190.38 648.56,184.7 653.27,182.26C656.92,179.62 661.56,180.64 665.72,180.98C668.32,182.32 670.81,183.99 672.81,186.15C675.31,188.82 676.46,192.37 678.54,195.33C680.74,206 683.01,216.68 686.65,226.96C688.03,233.53 690.7,239.92 690.52,246.73C690.73,246.72 691.14,246.69 691.35,246.68C691.44,239.43 690.64,232.22 690.57,224.97C690.55,222.23 691,219.44 690.24,216.76C689.23,212.91 689.63,208.89 690.06,204.99C690.76,200.58 688.93,196.33 687.87,192.13C685.41,183.03 681.77,174.32 678.17,165.62C676.36,161.61 672.42,159.03 668.42,157.55C660.04,154.71 650.76,156.23 642.94,159.95M746.76,189.76C741.11,193.82 736.84,199.33 732.78,204.91C731.44,208.07 730.15,211.29 728.1,214.07C725.94,221.15 722.12,227.64 720.48,234.89C719.3,240.75 716.81,246.38 717.03,252.47C724.63,247.84 731.24,241.75 738.02,236.02C745.03,230.61 748.27,222.07 752.64,214.66C755.58,209.96 755.95,204.31 757.17,199.03C758.23,194.83 756.69,190.56 754.71,186.88C754.48,186.97 754.02,187.14 753.79,187.22C750.89,185.63 748.79,188.08 746.76,189.76M655.54,214.53C657.74,218.59 658.69,223.16 660.74,227.29C662.93,231.82 665.11,236.36 667.07,241.01C668.96,245.5 672.93,248.52 675.69,252.43C677.69,255.09 679.4,258.3 682.78,259.42C682.97,249.13 678.68,239.43 677.53,229.3C674.67,225.37 674.71,220.34 673.09,215.92C670.97,209.98 671.45,203.32 668.32,197.72C666.97,194.67 664.38,192.49 661.94,190.33C660.58,190.51 659.23,190.74 657.9,191C654.2,198.28 653.64,206.65 655.54,214.53M587.4,238.72C587.7,239.79 588.02,240.88 588.35,241.95C594.42,243.18 598.88,247.62 603.27,251.64C603.58,254.49 604.11,257.67 601.47,259.64C600.58,259.94 599.69,260.25 598.82,260.56C595.4,259.39 593.32,256.39 591.25,253.64C589.16,252.95 587.07,252.27 585,251.59C579.69,253.65 575.15,257.25 571.65,261.7C568.92,264.41 568.75,268.44 567.68,271.93C568.07,273.28 568.44,274.64 568.8,276.01C568.62,276.83 568.25,278.46 568.07,279.28C565.78,280.86 563.16,280.64 560.81,279.32C560.3,278.05 559.78,276.78 559.27,275.52L559.69,275.29C559.31,274.31 558.56,272.33 558.18,271.35C558.6,269.24 559.05,267.14 559.49,265.04C552.55,270.06 546.28,275.96 539.86,281.61C542.94,282.1 546.07,282.3 549.16,282.84L549.89,283.29C554.16,285.75 559.41,284.66 564.12,284.65C567.34,285.31 570.64,285.21 573.88,284.67L574.07,285.31C579.91,285.87 585.81,285.26 591.66,284.9C589.19,282.73 586.69,280.36 585.63,277.15C584.41,273.86 581.79,270.66 582.93,266.95C584.65,264.93 587.82,264.47 589.99,266.05C592.25,267.77 592.91,270.68 593.81,273.22C594.93,274.53 596.05,275.85 597.16,277.18C598.43,274.3 599.25,270.8 602.22,269.15C604.15,267.73 606.77,269.03 608.88,268.1C611.27,267.02 613.63,265.68 615.36,263.66C619.56,261.45 620.19,256.08 619.61,251.85C619.3,249.61 618.69,246.74 616.34,245.82C613.33,244.7 610.14,244.17 606.94,244.52C601.14,245.02 596.8,240.61 592.08,238.04L591.36,238.79C590.04,238.76 588.71,238.74 587.4,238.72M718.13,268.49C713.1,268.86 708,268.03 703.02,269.16C703.19,273.9 704.42,278.65 703.37,283.38C702.68,284.48 701.51,285.44 701.44,286.82C701.28,290.57 700.58,294.28 700.71,298.04C700.81,300.98 700.8,303.92 700.9,306.86C703.96,306.6 707.01,306.19 710.07,305.78C715.74,305.05 721.37,306.34 726.97,307.08C733.89,306.68 740.77,305.5 747.71,305.25C750.13,305.33 752.52,305.7 754.96,305.79C755.33,299.02 755.82,292.24 755.38,285.46C755.63,278.97 753.29,272.74 753.22,266.27C746.13,267.48 739.03,265.78 731.93,266.23C727.11,265.38 722.83,268.22 718.13,268.49M646.02,274.06C640.57,273.32 635.46,276.28 629.99,275.89C623.83,275.56 617.6,275.98 611.68,277.8C608.96,289.4 608.56,301.36 607.27,313.16C610.83,313.31 614.41,313.54 617.97,313.11C633.69,310.97 649.61,311.94 665.36,310.26C665.24,308.03 665.15,305.79 665.09,303.56C666.23,295.87 665.06,288.01 666.57,280.35C666.56,277.21 666.59,274.06 667.15,270.96C660.32,272.92 653.21,275.06 646.02,274.06M502.99,279.86C498.37,280.76 493.41,280.75 489.37,283.49L489.2,283.31C486.73,285.17 483.61,286.47 481.86,289.09C482.4,298.59 481.34,308.65 485.49,317.52C486.62,320.1 487.06,322.89 487.63,325.63C485.69,326.91 483.6,327.93 481.42,328.74C481.21,331.79 480.41,334.96 481.39,337.97C484.05,344.91 489.64,350.01 494.88,355.02C498.16,357.54 502.87,360.2 506.88,357.69C512.75,353.4 515.58,346.41 519.99,340.84C520.35,339.93 520.71,339.03 521.08,338.13C524.51,334.77 526.52,330.23 530.07,327.02C532.49,325.78 535.3,325.61 537.92,324.95C532.98,323.7 527.84,323.67 522.89,322.48C519.63,321.67 516.12,322.19 512.95,321.09C510.14,318.52 510.92,312.73 514.9,311.62C519.01,310.75 523.03,312.73 527.15,312.88C533.98,314.67 541.09,314.56 548.04,315.57C554.96,315.96 561.63,317.98 568.14,320.22C569.35,320.72 570.58,321.2 571.82,321.68C574.16,321.04 576.55,320.52 578.99,320.54C583.99,320.52 588.95,319.64 593.96,320.04C594.92,318.9 595.89,317.76 596.88,316.64C597.42,310.82 599.37,305.15 598.76,299.24C594,296.4 588.55,295.51 583.08,296.11C581.08,295.77 579.06,295.78 577.06,295.86C571.43,294.88 565.69,295.47 560.04,294.77C555.36,294.55 550.79,293.43 546.12,293.12C544.81,293.91 543.54,294.77 542.11,295.3C539.72,295.06 537.33,294.19 534.93,294.82C528.42,296.12 521.77,297.17 515.12,296.55C507.94,295.67 500.6,297.78 493.53,295.78C492.34,292.91 491.28,289.93 492.61,286.89C499.63,284.12 507.05,282.53 514.07,279.77C514.36,279.25 514.94,278.2 515.22,277.68C511.11,278.22 507.06,279.11 502.99,279.86M697.11,318.18C697.29,324.53 697.42,330.91 698.25,337.22C703.98,338.13 710.26,339.08 714.39,343.59C718.19,346.53 719.07,351.56 719.47,356.05C719.96,360.93 716.41,365.04 712.94,367.99C707.26,371.05 700.53,371.57 695.01,375.01C695.36,375.89 695.72,376.77 696.08,377.66C696.84,384.3 697.96,390.9 697.65,397.62L696.91,398.3C703.57,397.45 710.29,397.7 716.99,397.21C720.88,396.5 724.83,396.1 728.8,396.2C730.93,395.78 733.15,395.72 735.24,395.08C735.99,394.18 736.01,392.89 736.38,391.81C736.54,390.21 736.7,388.6 736.32,387.03C735.22,381.77 735.78,376.38 735.51,371.06C735.67,360.88 734.24,350.76 732.2,340.82C730.77,333.39 731.18,325.7 729.53,318.33C728.04,318.31 726.56,318.3 725.09,318.28C721.36,318.06 717.63,318.25 713.93,318.59C708.32,319.09 702.71,318.3 697.11,318.18M655.83,324.52C652.09,325.26 648.17,324.75 644.51,325.89C643.92,325.83 642.74,325.72 642.15,325.66C640.88,326.58 640.8,327.5 641.93,328.42C642.3,328.28 643.05,328.01 643.43,327.87C653.64,331.14 664.62,329.22 674.8,332.7C674.87,329.16 674.74,325.62 674.4,322.09C668.18,322.67 661.96,323.3 655.83,324.52M607.39,328.89C607.07,330.1 606.76,331.32 606.45,332.54C601.45,334.71 597.04,331.14 592.34,329.94C585.33,330.44 577.22,329.23 571.37,334.01C567.9,336.25 564.91,339.44 560.75,340.4C558.7,339.35 556.93,337.89 555.94,335.77C549.95,334.91 543.87,334.9 537.85,335.39C536.74,335.63 535.24,335.47 534.54,336.55C529.63,343.08 525.91,350.4 521,356.93C518.91,359.59 519.43,363.55 516.8,365.84C515.5,367.2 514.06,368.42 512.62,369.63C508.08,373.21 505.63,378.62 502.16,383.11C498.34,387.81 494.77,392.69 491.13,397.5C485.81,402.87 483.5,410.61 477.41,415.27C473.11,418.91 469.64,423.49 466.9,428.4C472.91,429.12 478.89,430.06 484.92,430.61C487.73,430.9 491.01,432.58 493.59,430.79C497.14,425.49 501.25,420.54 503.92,414.7C507.34,408.65 510.04,402.05 514.99,397.03C517.28,393.06 519.82,389.15 523.12,385.94C526.73,383.93 530.96,388.35 529.46,391.97C527.82,396.45 524.25,399.85 521.82,403.9C515.42,412.4 511.36,422.31 505.74,431.28C507.49,431.17 509.26,431.06 511.03,430.96C513.84,431.27 516.67,431.46 519.5,431.6C523.54,431.43 527.53,430.72 531.56,430.41C539.95,430.33 548.36,430.47 556.73,429.83C562.98,429.84 569.22,430.14 575.47,430.38C584.64,430.54 593.8,428.89 602.97,429.95C607.63,431.36 610.37,426.15 614.86,426.06C614.27,422.07 614.44,418.04 614.55,414.03C614.67,408.17 612.49,402.58 612.58,396.72C607.29,401.02 602.59,405.97 598.31,411.26C596.88,412.83 595.41,415.04 592.99,414.79C589.88,414.89 588.19,411.86 587.63,409.21C590.46,402.47 591.05,395.11 593.08,388.15C593.9,385.84 594.69,383.2 596.81,381.75C605.96,378.66 615.75,378.48 625.09,376.21C628.21,375.29 630.92,377.36 633.19,379.2C642.78,377.6 651.57,373.07 661.18,371.58C665.94,370.68 670.63,369.44 675.32,368.19C675.43,367.56 675.65,366.3 675.76,365.67C683.3,363.23 691.43,364.31 699.02,362.08C702.49,361.06 706.15,360.16 709.17,358.07C711.33,354.32 707.24,351.37 704.95,348.98C697.1,346.61 688.48,348.7 680.98,345.12C677.17,343.66 673.14,342.97 669.23,341.84C661,339.4 652.16,340.78 643.93,338.36C631.6,335.79 619.79,331.22 607.39,328.89M651.81,384.76C643.95,386.44 636.28,389.47 628.13,389.4C628.84,393.1 627.68,397.19 629.32,400.67C636.42,401.57 643.8,401.61 650.99,401.2C658.86,401.79 666.85,401.21 674.57,399.6C673.02,392.86 673.14,385.89 671.7,379.13C665.22,381.57 658.19,382 651.81,384.76Z" style="fill:rgb(11,11,11);fill-rule:nonzero;"/>
        <path d="M545.11,343.07C547.76,341.28 550.85,343.38 552.6,345.5C552.14,348.1 551.52,350.72 550.02,352.94C548.04,355.94 548.21,360.05 545.49,362.59C543.32,364.68 539.01,365.09 537.39,362.12C536.71,358.85 538.47,355.81 539.66,352.89C541.33,349.56 542.56,345.85 545.11,343.07Z" style="fill:rgb(11,11,11);fill-rule:nonzero;"/>
        <path d="M567.76,384.98C570.25,385.04 573.1,385.21 574.61,387.53C574.08,391.13 572.32,394.43 571.78,398.04C570.56,403.41 570.05,408.98 568.27,414.21C567.59,417.06 564.29,417.41 562.07,418.5C560.93,416.85 558.66,415.44 559.29,413.14C560.24,405.63 562.09,398.26 564.08,390.97C564.53,388.57 566.1,386.68 567.76,384.98Z" style="fill:rgb(11,11,11);fill-rule:nonzero;"/>
        <path d="M746.04,151.03C751.35,148.1 757.53,150.09 763.25,149.93L763.23,150.16C762.57,154.87 762.91,159.78 761.12,164.27C759.45,168.47 757.6,172.59 755.69,176.69C752.34,176.65 748.64,175.76 745.63,177.66C742.21,179.8 739.62,182.97 736.6,185.6C725.77,194.49 720.34,207.9 715.33,220.59C712.38,227.46 711.13,234.86 708.89,241.96C707.3,247.33 708.2,253.41 705.53,258.43C705.07,258.46 704.15,258.51 703.7,258.54C703.6,258.49 703.39,258.39 703.29,258.34C704.12,245.19 706.35,232.09 708.36,219.05C710.23,210.48 711.04,201.59 714.47,193.44C716.51,188.87 718.18,184.1 720.91,179.86C722.75,177.01 724.65,174.17 726.05,171.05C727.78,166.7 732.08,164.21 734.27,160.15C736.71,155.54 741.64,153.34 746.04,151.03Z" style="fill:rgb(162,47,37);fill-rule:nonzero;"/>
        <path d="M638.68,185.76C643.43,183.57 648.32,181.66 653.1,179.54C657.25,177.6 661.72,179.66 665.72,180.98C661.56,180.64 656.92,179.62 653.27,182.26C648.56,184.7 647.98,190.38 646.81,194.97C644.72,202.06 644.6,209.7 646.13,216.9C649.26,225.8 653.1,234.44 656.98,243.03C660.02,249.9 665.41,255.26 669.39,261.53C665.82,260.53 663.51,257.49 660.96,255.03C654.23,248.28 648.46,240.63 643.4,232.58C639.78,226.89 635.57,221.6 632.23,215.75C629.62,210.39 627.73,204.69 626.29,198.91C629.93,194.13 633.05,188.48 638.68,185.76Z" style="fill:rgb(162,47,37);fill-rule:nonzero;"/>
        <path d="M761.12,164.27C762.91,159.78 762.57,154.87 763.23,150.16C765.98,151.38 768.64,152.84 771.07,154.64C771.79,159.1 775.13,162.55 776.05,166.96C777.51,173.19 779.4,179.45 779.39,185.91C778.56,192.11 777.99,198.35 777.4,204.58C776.21,210.47 774.01,216.11 771.6,221.59C769.76,225.87 768.64,230.47 766.29,234.52C763.23,238.61 758.04,240.05 754.28,243.31C748.54,248.39 741.37,251.77 733.8,252.94C740.25,245.88 749.84,241.43 753.6,232.15C758.78,223.33 764.94,214.5 765.87,203.99C767.37,197.9 767.57,191.44 765.49,185.46C763.14,181.67 760.23,177.87 755.69,176.69C757.6,172.59 759.45,168.47 761.12,164.27Z" style="fill:rgb(253,93,111);fill-rule:nonzero;"/>
        <path d="M642.94,159.95C650.76,156.23 660.04,154.71 668.42,157.55C672.42,159.03 676.36,161.61 678.17,165.62C681.77,174.32 685.41,183.03 687.87,192.13C688.93,196.33 690.76,200.58 690.06,204.99C689.63,208.89 689.23,212.91 690.24,216.76C691,219.44 690.55,222.23 690.57,224.97C690.64,232.22 691.44,239.43 691.35,246.68C691.14,246.69 690.73,246.72 690.52,246.73C690.7,239.92 688.03,233.53 686.65,226.96C683.01,216.68 680.74,206 678.54,195.33C676.46,192.37 675.31,188.82 672.81,186.15C670.81,183.99 668.32,182.32 665.72,180.98C661.72,179.66 657.25,177.6 653.1,179.54C648.32,181.66 643.43,183.57 638.68,185.76C633.05,188.48 629.93,194.13 626.29,198.91C625.2,194.05 623.82,189.02 624.78,184.01C625.4,179.12 627.6,174.49 630.6,170.61C633.85,166.14 638.84,163.52 642.94,159.95Z" style="fill:rgb(253,93,111);fill-rule:nonzero;"/>
        <path d="M746.76,189.76C748.79,188.08 750.89,185.63 753.79,187.22C751.47,188.13 749.08,188.86 746.76,189.76Z" style="fill:rgb(253,93,111);fill-rule:nonzero;"/>
        <path d="M588.73,107.71C593.82,104.91 599.68,105.81 605.22,105.83C606.77,108.34 608.27,111.01 608.41,114.05C608.79,119.57 608.95,125.37 606.56,130.51C604.26,135.37 603.21,140.74 600.48,145.4C598.41,150.27 596.06,155.01 593.74,159.77C591.69,163.84 588.56,167.21 585.97,170.92C581.05,166.91 574.71,165.83 569.21,162.96C563.99,160.56 559.21,157.18 555.13,153.15C553.38,148.61 549.84,145 548.32,140.33C544.92,133.64 543.67,124.75 547.98,118.21C552.26,117.87 556.66,116.81 560.91,118.01C564.41,119.18 567.26,121.7 569.86,124.26C572.39,126.78 572.26,130.77 574.29,133.62C576.56,136.74 582.02,135.34 583.19,131.9C584.35,127.34 580.59,123.45 580.64,118.96C580.97,114.04 584.05,109.47 588.73,107.71Z" style="fill:rgb(234,51,35);fill-rule:nonzero;"/>
        <path d="M699.88,120.22C699.83,117.87 700.09,115.5 701.37,113.46C704.08,114.2 706.87,114.08 709.6,113.45C711.1,116.39 709.58,119.74 706.94,121.39C704.52,121.49 702.2,120.72 699.88,120.22Z" style="fill:rgb(234,51,35);fill-rule:nonzero;"/>
        <path d="M471,133.58C473.9,133.49 477.1,132.59 479.75,134.23C484.56,136.92 488.14,141.25 491.52,145.5C495.92,150.9 502.45,153.82 507.52,158.47C510.89,161.08 513.2,164.8 516.7,167.26C521.49,170.8 527.1,173.42 530.93,178.11C535.61,183.75 540.95,189 547.4,192.58C552.89,196.39 556.43,202.27 561.04,207C565.42,211.36 571.57,213.71 575.24,218.83C577.52,222.04 580.15,224.99 583.09,227.61C581.95,229.87 580.42,231.9 578.48,233.54C576.12,235.53 574.81,238.45 572.42,240.39C566.89,244.87 561.06,249.01 555.99,254.02C549.51,260.63 541.77,265.79 534.96,272.03C532.04,274.74 528.45,276.54 524.94,278.33C525.07,275.89 525.4,273.43 525.12,270.98C524.34,266.9 522.24,263.21 521.51,259.12C520.75,254.36 518.37,250 517.99,245.16C516.03,236.97 513.45,228.95 510.91,220.93C509.2,216.49 506.44,212.55 504.83,208.07C502.57,201.47 499.22,195.32 496.74,188.8C494.08,179.32 488.53,171.02 482.98,163.01C478.91,156.92 477.22,149.67 473.76,143.27C472.16,140.27 471.62,136.88 471,133.58Z" style="fill:rgb(234,51,35);fill-rule:nonzero;"/>
        <path d="M731.93,266.23C739.03,265.78 746.13,267.48 753.22,266.27C753.29,272.74 755.63,278.97 755.38,285.46C755.82,292.24 755.33,299.02 754.96,305.79C752.52,305.7 750.13,305.33 747.71,305.25C747.69,301.41 747.71,297.56 747.87,293.72C748.02,290.88 748.32,288.06 748.61,285.24C742.91,286.28 737.87,289.91 732.03,289.96C726.61,289.75 723.98,284.38 722.07,280.08C723.85,276.75 725.07,273.16 725.74,269.44C727.81,268.38 729.87,267.33 731.93,266.23Z" style="fill:rgb(253,248,192);fill-rule:nonzero;"/>
        <path d="M725.09,318.28C726.56,318.3 728.04,318.31 729.53,318.33C731.18,325.7 730.77,333.39 732.2,340.82C734.24,350.76 735.67,360.88 735.51,371.06C735.78,376.38 735.22,381.77 736.32,387.03C736.7,388.6 736.54,390.21 736.38,391.81C736.01,392.89 735.99,394.18 735.24,395.08C733.15,395.72 730.93,395.78 728.8,396.2C728.95,387.26 728.22,378.34 728.18,369.4C728.07,359.05 726.86,348.76 726.36,338.43C725.76,332.48 724.14,326.59 724.45,320.58C724.61,320 724.93,318.85 725.09,318.28Z" style="fill:rgb(253,248,192);fill-rule:nonzero;"/>
        <path d="M646.02,274.06C653.21,275.06 660.32,272.92 667.15,270.96C666.59,274.06 666.56,277.21 666.57,280.35C661.63,281.07 656.63,281.15 651.71,281.91C642.72,283.78 633.99,286.61 625.21,289.22C623.56,295.16 621.91,301.12 620.87,307.2C635.4,304.2 650.24,302.29 665.09,303.56C665.15,305.79 665.24,308.03 665.36,310.26C649.61,311.94 633.69,310.97 617.97,313.11C614.41,313.54 610.83,313.31 607.27,313.16C608.56,301.36 608.96,289.4 611.68,277.8C617.6,275.98 623.83,275.56 629.99,275.89C635.46,276.28 640.57,273.32 646.02,274.06Z" style="fill:rgb(233,122,9);fill-rule:nonzero;"/>
        <path d="M725.05,297.24C732.82,297.33 740.16,294.31 747.87,293.72C747.71,297.56 747.69,301.41 747.71,305.25C740.77,305.5 733.89,306.68 726.97,307.08C721.37,306.34 715.74,305.05 710.07,305.78C707.01,306.19 703.96,306.6 700.9,306.86C700.8,303.92 700.81,300.98 700.71,298.04C708.83,298.04 716.93,297.33 725.05,297.24Z" style="fill:rgb(233,122,9);fill-rule:nonzero;"/>
        <path d="M697.11,318.18C702.71,318.3 708.32,319.09 713.93,318.59C717.63,318.25 721.36,318.06 725.09,318.28C724.93,318.85 724.61,320 724.45,320.58C719.39,320.54 714.33,320.73 709.28,321.04C709.54,323.94 709.97,326.84 710.74,329.67C713.59,329.85 716.64,329.5 719.33,330.67C722.33,332.55 724.42,335.54 726.36,338.43C726.86,348.76 728.07,359.05 728.18,369.4C723.72,375.21 717.35,379.05 712.49,384.48C708.07,389.44 702.47,393.09 697.65,397.62C697.96,390.9 696.84,384.3 696.08,377.66C695.72,376.77 695.36,375.89 695.01,375.01C700.53,371.57 707.26,371.05 712.94,367.99C716.41,365.04 719.96,360.93 719.47,356.05C719.07,351.56 718.19,346.53 714.39,343.59C710.26,339.08 703.98,338.13 698.25,337.22C697.42,330.91 697.29,324.53 697.11,318.18Z" style="fill:rgb(233,122,9);fill-rule:nonzero;"/>
        <path d="M655.83,324.52C661.96,323.3 668.18,322.67 674.4,322.09C674.74,325.62 674.87,329.16 674.8,332.7C664.62,329.22 653.64,331.14 643.43,327.87L643.86,327.08C644.03,326.78 644.35,326.19 644.51,325.89C648.17,324.75 652.09,325.26 655.83,324.52Z" style="fill:rgb(233,122,9);fill-rule:nonzero;"/>
        <path d="M651.81,384.76C658.19,382 665.22,381.57 671.7,379.13C673.14,385.89 673.02,392.86 674.57,399.6C666.85,401.21 658.86,401.79 650.99,401.2C643.8,401.61 636.42,401.57 629.32,400.67C627.68,397.19 628.84,393.1 628.13,389.4C636.28,389.47 643.95,386.44 651.81,384.76Z" style="fill:rgb(233,122,9);fill-rule:nonzero;"/>
        <path d="M587.4,238.72C588.71,238.74 590.04,238.76 591.36,238.79C590.35,239.84 589.35,240.89 588.35,241.95C588.02,240.88 587.7,239.79 587.4,238.72Z" style="fill:rgb(75,77,163);fill-rule:nonzero;"/>
        <path d="M539.86,281.61C546.28,275.96 552.55,270.06 559.49,265.04C559.05,267.14 558.6,269.24 558.18,271.35C555.18,275.01 552.35,278.83 548.93,282.12C548.99,282.3 549.1,282.66 549.16,282.84C546.07,282.3 542.94,282.1 539.86,281.61Z" style="fill:rgb(75,77,163);fill-rule:nonzero;"/>
        <path d="M489.2,283.31L489.37,283.49C490.45,284.62 491.53,285.75 492.61,286.89C491.28,289.93 492.34,292.91 493.53,295.78C495.22,301.04 495.32,306.7 497.37,311.85C500.13,317.59 505.1,322.01 510.59,325.1C508.65,321.53 505.61,318.8 502.34,316.47C502.38,314.23 501.92,311.87 502.66,309.71C504.21,307.4 507.27,306.69 509.88,307.31C515.84,308.46 521.37,311.1 527.15,312.88C523.03,312.73 519.01,310.75 514.9,311.62C510.92,312.73 510.14,318.52 512.95,321.09C516.12,322.19 519.63,321.67 522.89,322.48C527.84,323.67 532.98,323.7 537.92,324.95C535.3,325.61 532.49,325.78 530.07,327.02C526.52,330.23 524.51,334.77 521.08,338.13C520.71,339.03 520.35,339.93 519.99,340.84C515.58,346.41 512.75,353.4 506.88,357.69C502.87,360.2 498.16,357.54 494.88,355.02C489.64,350.01 484.05,344.91 481.39,337.97C480.41,334.96 481.21,331.79 481.42,328.74C483.6,327.93 485.69,326.91 487.63,325.63C487.06,322.89 486.62,320.1 485.49,317.52C481.34,308.65 482.4,298.59 481.86,289.09C483.61,286.47 486.73,285.17 489.2,283.31Z" style="fill:rgb(75,77,163);fill-rule:nonzero;"/>
        <path d="M583.08,296.11C588.55,295.51 594,296.4 598.76,299.24C599.37,305.15 597.42,310.82 596.88,316.64C595.89,317.76 594.92,318.9 593.96,320.04C588.95,319.64 583.99,320.52 578.99,320.54C576.55,320.52 574.16,321.04 571.82,321.68C570.58,321.2 569.35,320.72 568.14,320.22C568.54,320.19 569.36,320.12 569.77,320.09C576.39,312.45 582.22,304.12 589.32,296.91C587.23,296.64 585.16,296.38 583.08,296.11Z" style="fill:rgb(75,77,163);fill-rule:nonzero;"/>
        <path d="M534.54,336.55C535.24,335.47 536.74,335.63 537.85,335.39C543.87,334.9 549.95,334.91 555.94,335.77C556.93,337.89 558.7,339.35 560.75,340.4C557.7,345.42 554.87,350.6 551.46,355.4C549.38,358.29 547.72,361.45 546.35,364.72C542.46,365.8 538.41,365.44 535.45,362.49C535.56,360.91 535.68,359.33 535.8,357.76C532.59,362.35 526.31,363.53 523.7,368.58C520.69,373.81 516.63,378.35 513.78,383.69C511.62,387.87 507.9,391.17 506.26,395.59C509.73,393.38 512.34,390.13 515.5,387.52C519.23,384.41 523.14,381.49 526.4,377.85C528.65,378.28 531.59,377.72 533.13,379.83C534.31,381.24 533.98,383.22 533.57,384.86C527.91,401.09 517.23,414.97 511.03,430.96C509.26,431.06 507.49,431.17 505.74,431.28C511.36,422.31 515.42,412.4 521.82,403.9C524.25,399.85 527.82,396.45 529.46,391.97C530.96,388.35 526.73,383.93 523.12,385.94C519.82,389.15 517.28,393.06 514.99,397.03C510.04,402.05 507.34,408.65 503.92,414.7C501.25,420.54 497.14,425.49 493.59,430.79C491.01,432.58 487.73,430.9 484.92,430.61C478.89,430.06 472.91,429.12 466.9,428.4C469.64,423.49 473.11,418.91 477.41,415.27C483.5,410.61 485.81,402.87 491.13,397.5C494.77,392.69 498.34,387.81 502.16,383.11C505.63,378.62 508.08,373.21 512.62,369.63C514.06,368.42 515.5,367.2 516.8,365.84C519.43,363.55 518.91,359.59 521,356.93C525.91,350.4 529.63,343.08 534.54,336.55M545.11,343.07C542.56,345.85 541.33,349.56 539.66,352.89C538.47,355.81 536.71,358.85 537.39,362.12C539.01,365.09 543.32,364.68 545.49,362.59C548.21,360.05 548.04,355.94 550.02,352.94C551.52,350.72 552.14,348.1 552.6,345.5C550.85,343.38 547.76,341.28 545.11,343.07M496.84,407.2C499.88,404.25 503.29,401.18 504.79,397.16C500.66,398.62 498.61,403.41 496.84,407.2Z" style="fill:rgb(75,77,163);fill-rule:nonzero;"/>
        <path d="M704.95,348.98C707.24,351.37 711.33,354.32 709.17,358.07C706.15,360.16 702.49,361.06 699.02,362.08C691.43,364.31 683.3,363.23 675.76,365.67C675.65,366.3 675.43,367.56 675.32,368.19C670.63,369.44 665.94,370.68 661.18,371.58C651.57,373.07 642.78,377.6 633.19,379.2C630.92,377.36 628.21,375.29 625.09,376.21C615.75,378.48 605.96,378.66 596.81,381.75C594.69,383.2 593.9,385.84 593.08,388.15C591.05,395.11 590.46,402.47 587.63,409.21C588.19,411.86 589.88,414.89 592.99,414.79C595.41,415.04 596.88,412.83 598.31,411.26C602.59,405.97 607.29,401.02 612.58,396.72C612.49,402.58 614.67,408.17 614.55,414.03C614.44,418.04 614.27,422.07 614.86,426.06C610.37,426.15 607.63,431.36 602.97,429.95C593.8,428.89 584.64,430.54 575.47,430.38C575.23,424.39 577.4,418.73 579.1,413.1C581.85,405.28 584.2,397.28 587.96,389.86C590,385.84 591.73,381.67 593.82,377.67C595.66,374.02 600.14,373.45 603.67,372.41C609.91,371 615.72,368.17 621.98,366.82C639.63,362.7 657.39,359 675.32,356.28C685.2,353.94 695.92,354.19 704.95,348.98Z" style="fill:rgb(75,77,163);fill-rule:nonzero;"/>
        <path d="M563.21,385.04C564.72,385.01 566.23,384.97 567.76,384.98C566.1,386.68 564.53,388.57 564.08,390.97C562.09,398.26 560.24,405.63 559.29,413.14C558.66,415.44 560.93,416.85 562.07,418.5C560.22,422.25 558.44,426.02 556.73,429.83C548.36,430.47 539.95,430.33 531.56,430.41C527.53,430.72 523.54,431.43 519.5,431.6C521.65,426.53 526.88,424.23 530.3,420.22C534.76,415.33 539.33,410.55 543.53,405.43C547.29,400.87 552.3,397.6 556.21,393.19C558.6,390.53 560.88,387.76 563.21,385.04Z" style="fill:rgb(75,77,163);fill-rule:nonzero;"/>
        <path d="M591.36,238.79L592.08,238.04C596.8,240.61 601.14,245.02 606.94,244.52C610.14,244.17 613.33,244.7 616.34,245.82C611.29,245.71 606.58,247.87 603.27,251.64C598.88,247.62 594.42,243.18 588.35,241.95C589.35,240.89 590.35,239.84 591.36,238.79Z" style="fill:rgb(255,209,186);fill-rule:nonzero;"/>
        <path d="M571.65,261.7C575.15,257.25 579.69,253.65 585,251.59C587.07,252.27 589.16,252.95 591.25,253.64C593.32,256.39 595.4,259.39 598.82,260.56C599.69,260.25 600.58,259.94 601.47,259.64C602.68,261.01 603.81,262.51 605.35,263.56C608.52,265.41 612.11,262.22 615.36,263.66C613.63,265.68 611.27,267.02 608.88,268.1C606.77,269.03 604.15,267.73 602.22,269.15C599.25,270.8 598.43,274.3 597.16,277.18C596.05,275.85 594.93,274.53 593.81,273.22C592.91,270.68 592.25,267.77 589.99,266.05C587.82,264.47 584.65,264.93 582.93,266.95C581.79,270.66 584.41,273.86 585.63,277.15C586.69,280.36 589.19,282.73 591.66,284.9C585.81,285.26 579.91,285.87 574.07,285.31L573.88,284.67C573.14,281.3 571.26,278.38 568.8,276.01C568.44,274.64 568.07,273.28 567.68,271.93C568.75,268.44 568.92,264.41 571.65,261.7Z" style="fill:rgb(255,209,186);fill-rule:nonzero;"/>
        <path d="M502.99,279.86C507.06,279.11 511.11,278.22 515.22,277.68C514.94,278.2 514.36,279.25 514.07,279.77C507.05,282.53 499.63,284.12 492.61,286.89C491.53,285.75 490.45,284.62 489.37,283.49C493.41,280.75 498.37,280.76 502.99,279.86Z" style="fill:rgb(142,95,218);fill-rule:nonzero;"/>
        <path d="M542.11,295.3C543.54,294.77 544.81,293.91 546.12,293.12C550.79,293.43 555.36,294.55 560.04,294.77C565.69,295.47 571.43,294.88 577.06,295.86C579.06,295.78 581.08,295.77 583.08,296.11C585.16,296.38 587.23,296.64 589.32,296.91C582.22,304.12 576.39,312.45 569.77,320.09C569.36,320.12 568.54,320.19 568.14,320.22C561.63,317.98 554.96,315.96 548.04,315.57C541.09,314.56 533.98,314.67 527.15,312.88C521.37,311.1 515.84,308.46 509.88,307.31C507.27,306.69 504.21,307.4 502.66,309.71C501.92,311.87 502.38,314.23 502.34,316.47C505.61,318.8 508.65,321.53 510.59,325.1C505.1,322.01 500.13,317.59 497.37,311.85C495.32,306.7 495.22,301.04 493.53,295.78C500.6,297.78 507.94,295.67 515.12,296.55C521.77,297.17 528.42,296.12 534.93,294.82C537.33,294.19 539.72,295.06 542.11,295.3Z" style="fill:rgb(142,95,218);fill-rule:nonzero;"/>
        <path d="M607.39,328.89C619.79,331.22 631.6,335.79 643.93,338.36C652.16,340.78 661,339.4 669.23,341.84C673.14,342.97 677.17,343.66 680.98,345.12C688.48,348.7 697.1,346.61 704.95,348.98C695.92,354.19 685.2,353.94 675.32,356.28C657.39,359 639.63,362.7 621.98,366.82C615.72,368.17 609.91,371 603.67,372.41C600.14,373.45 595.66,374.02 593.82,377.67C591.73,381.67 590,385.84 587.96,389.86C584.2,397.28 581.85,405.28 579.1,413.1C577.4,418.73 575.23,424.39 575.47,430.38C569.22,430.14 562.98,429.84 556.73,429.83C558.44,426.02 560.22,422.25 562.07,418.5C564.29,417.41 567.59,417.06 568.27,414.21C570.05,408.98 570.56,403.41 571.78,398.04C572.32,394.43 574.08,391.13 574.61,387.53C573.1,385.21 570.25,385.04 567.76,384.98C566.23,384.97 564.72,385.01 563.21,385.04C560.88,387.76 558.6,390.53 556.21,393.19C552.3,397.6 547.29,400.87 543.53,405.43C539.33,410.55 534.76,415.33 530.3,420.22C526.88,424.23 521.65,426.53 519.5,431.6C516.67,431.46 513.84,431.27 511.03,430.96C517.23,414.97 527.91,401.09 533.57,384.86C533.98,383.22 534.31,381.24 533.13,379.83C531.59,377.72 528.65,378.28 526.4,377.85C523.14,381.49 519.23,384.41 515.5,387.52C512.34,390.13 509.73,393.38 506.26,395.59C507.9,391.17 511.62,387.87 513.78,383.69C516.63,378.35 520.69,373.81 523.7,368.58C526.31,363.53 532.59,362.35 535.8,357.76C535.68,359.33 535.56,360.91 535.45,362.49C538.41,365.44 542.46,365.8 546.35,364.72C547.72,361.45 549.38,358.29 551.46,355.4C554.87,350.6 557.7,345.42 560.75,340.4C564.91,339.44 567.9,336.25 571.37,334.01C577.22,329.23 585.33,330.44 592.34,329.94C597.04,331.14 601.45,334.71 606.45,332.54C606.76,331.32 607.07,330.1 607.39,328.89Z" style="fill:rgb(142,95,218);fill-rule:nonzero;"/>
        <path d="M603.27,251.64C606.58,247.87 611.29,245.71 616.34,245.82C618.69,246.74 619.3,249.61 619.61,251.85C620.19,256.08 619.56,261.45 615.36,263.66C612.11,262.22 608.52,265.41 605.35,263.56C603.81,262.51 602.68,261.01 601.47,259.64C604.11,257.67 603.58,254.49 603.27,251.64Z" style="fill:rgb(249,165,131);fill-rule:nonzero;"/>
        <path d="M554.87,278.16C556.2,277.07 557.77,276.34 559.27,275.52C559.78,276.78 560.3,278.05 560.81,279.32C563.16,280.64 565.78,280.86 568.07,279.28C568.25,278.46 568.62,276.83 568.8,276.01C571.26,278.38 573.14,281.3 573.88,284.67C570.64,285.21 567.34,285.31 564.12,284.65C560.48,284.07 556.68,284.75 553.18,283.39L554.87,282.29C554.83,280.91 554.73,279.53 554.87,278.16Z" style="fill:rgb(249,165,131);fill-rule:nonzero;"/>
        <path d="M703.29,258.34C703.39,258.39 703.6,258.49 703.7,258.54C703.6,258.49 703.39,258.39 703.29,258.34Z" style="fill:rgb(215,80,95);fill-rule:nonzero;"/>
        <path d="M718.13,268.49C722.83,268.22 727.11,265.38 731.93,266.23C729.87,267.33 727.81,268.38 725.74,269.44C725.07,273.16 723.85,276.75 722.07,280.08C723.98,284.38 726.61,289.75 732.03,289.96C737.87,289.91 742.91,286.28 748.61,285.24C748.32,288.06 748.02,290.88 747.87,293.72C740.16,294.31 732.82,297.33 725.05,297.24C716.93,297.33 708.83,298.04 700.71,298.04C700.58,294.28 701.28,290.57 701.44,286.82C701.51,285.44 702.68,284.48 703.37,283.38C704.42,278.65 703.19,273.9 703.02,269.16C708,268.03 713.1,268.86 718.13,268.49Z" style="fill:rgb(255,206,49);fill-rule:nonzero;"/>
        <path d="M651.71,281.91C656.63,281.15 661.63,281.07 666.57,280.35C665.06,288.01 666.23,295.87 665.09,303.56C650.24,302.29 635.4,304.2 620.87,307.2C621.91,301.12 623.56,295.16 625.21,289.22C633.99,286.61 642.72,283.78 651.71,281.91Z" style="fill:rgb(255,206,49);fill-rule:nonzero;"/>
        <path d="M709.28,321.04C714.33,320.73 719.39,320.54 724.45,320.58C724.14,326.59 725.76,332.48 726.36,338.43C724.42,335.54 722.33,332.55 719.33,330.67C716.64,329.5 713.59,329.85 710.74,329.67C709.97,326.84 709.54,323.94 709.28,321.04Z" style="fill:rgb(255,206,49);fill-rule:nonzero;"/>
        <path d="M712.49,384.48C717.35,379.05 723.72,375.21 728.18,369.4C728.22,378.34 728.95,387.26 728.8,396.2C724.83,396.1 720.88,396.5 716.99,397.21C710.29,397.7 703.57,397.45 696.91,398.3L697.65,397.62C702.47,393.09 708.07,389.44 712.49,384.48Z" style="fill:rgb(255,206,49);fill-rule:nonzero;"/>
        <path d="M548.93,282.12C552.35,278.83 555.18,275.01 558.18,271.35C558.56,272.33 559.31,274.31 559.69,275.29L559.27,275.52C557.77,276.34 556.2,277.07 554.87,278.16C554.73,279.53 554.83,280.91 554.87,282.29C553.24,282.81 551.63,283.6 549.89,283.29L549.16,282.84C549.1,282.66 548.99,282.3 548.93,282.12Z" style="fill:rgb(243,199,180);fill-rule:nonzero;"/>
        <path d="M496.84,407.2C498.61,403.41 500.66,398.62 504.79,397.16C503.29,401.18 499.88,404.25 496.84,407.2Z" style="fill:rgb(128,91,206);fill-rule:nonzero;"/>
    </g>
</svg>
