<?xml version="1.0" encoding="UTF-8" standalone="no"?>
<!DOCTYPE svg PUBLIC "-//W3C//DTD SVG 1.1//EN" "http://www.w3.org/Graphics/SVG/1.1/DTD/svg11.dtd">
<svg width="100%" height="100%" viewBox="0 0 345 377" version="1.1" xmlns="http://www.w3.org/2000/svg" xmlns:xlink="http://www.w3.org/1999/xlink" xml:space="preserve" xmlns:serif="http://www.serif.com/" style="fill-rule:evenodd;clip-rule:evenodd;stroke-linejoin:round;stroke-miterlimit:2;">
    <g transform="matrix(1,0,0,1,-73.073281,-75.260824)">
        <g transform="matrix(1.034581,0,0,1.034581,-14.450049,-15.624278)">
            <path d="M256.71,91.58C258.64,89.35 261.7,86.66 264.79,88.41C267.71,90.29 269.32,93.77 270.09,97.06C272.86,109.21 276.61,121.24 282.76,132.14C286.07,138.57 286.25,146.01 288.92,152.66C290.16,157.25 289.87,162.28 292.34,166.51C295.55,172.52 296.3,179.63 300.47,185.15C304.64,197.7 315.4,206.85 318.63,219.82C318.45,223.07 319.57,226.17 320.76,229.13C322.35,231.09 323.83,233.14 325.2,235.26C328.69,234.32 332.29,233.08 335.95,233.73C343.38,235.66 351.58,233.81 358.61,237.44C361.42,238.83 364.97,239.48 366.6,242.48C369,246.39 371.09,250.56 372.24,255.03C373.38,259.35 375.46,263.42 375.88,267.92C376.65,276.85 378.87,286.39 374.56,294.82C375.09,296.78 375.54,298.77 375.96,300.77C374,302.16 371.97,303.48 370.27,305.18C370.23,310.14 371.07,315.09 370.81,320.06C372.6,330.06 369.7,340.01 366.37,349.35C364.28,355 359.37,358.76 355.05,362.66C358.87,365.28 361.55,369.11 364.69,372.45C368.59,377.89 371.48,384.02 375.63,389.29C377.63,391.69 379.23,394.38 381.14,396.85C384.91,401.93 385.9,408.43 389.53,413.59C393.56,419.05 394.69,426.07 394.71,432.71C401.81,433.46 408.73,435.39 415.52,437.52C418.67,438.97 418.19,443.12 416.71,445.63C415,448.76 410.92,448.11 407.94,448.32C399.12,447.9 390.26,448.14 381.47,447.22C374.62,446.69 367.81,447.71 360.98,447.91C352.96,447.57 344.97,448.48 336.96,448.39C327.66,449.13 318.33,448.37 309.02,448.78C301.03,448.76 293.01,447.98 285.05,448.93C279.71,449.82 274.28,449.57 268.9,449.95C264.84,450.21 260.98,448.73 257.02,448.12C249.4,447.25 241.74,448.23 234.11,447.9C227.74,448.47 221.32,449.34 214.94,448.36C209.94,448.26 204.94,447.23 199.95,448.04C197.92,448.43 196.01,447.48 194.05,447.12C184.69,445.9 175.21,446.82 165.92,448.22C162.36,448.04 157.94,447.42 156.01,443.99C155.97,441.84 156.94,439.88 157.67,437.93C163.62,437.77 169.45,436.64 175.25,435.4C184.48,435.1 193.73,436.03 202.97,436.29C207.68,436.01 212.43,436.31 217.04,437.39C216.42,431.49 217.2,425.61 217.93,419.76C212.58,419.77 207.29,418.52 201.95,419.14C196.29,419.14 190.59,419.64 184.95,419.12C181.85,418.03 178.79,416.7 175.99,414.97C175.26,413.62 175.35,412.01 175.04,410.56C168.82,409.89 163.51,406.05 159.75,401.24C156.63,396.03 155.83,389.21 158.41,383.61C159.16,381.83 159.68,379.96 160.05,378.07C160.31,377.63 160.84,376.75 161.1,376.3C159.51,374.73 157.95,372.96 157.57,370.68C156.02,363.28 156.05,355.61 156.4,348.1C157.63,343.74 162.36,342.34 166.24,341.31C163.31,339.55 160.3,337.9 157.09,336.71C152.3,334.93 149.2,330.63 145.22,327.65C145.16,327.01 145.05,325.74 145,325.11C142.94,322.31 142.28,318.86 140.98,315.71C140.14,311.2 139.07,306.57 139.73,301.96C140.89,297.87 142.12,293.34 145.86,290.82C148.85,288.1 152.89,287.31 156.8,287.14C164.18,285.2 171.5,288.88 177.7,292.58C178.71,288.79 179.84,284.63 182.94,281.98C187.47,279.29 192.99,278.85 198.14,279.25C202.73,279.69 206.24,282.93 209.23,286.15C209.35,286.7 209.6,287.78 209.73,288.33C210.33,288.98 210.94,289.64 211.55,290.3C211.92,287.14 212.65,283.98 214.44,281.3C216.57,277.15 221.2,275.44 224.3,272.17C216.92,272.59 209.53,273 202.14,272.58C199.54,272.52 196.84,271.45 195.55,269.06C195.12,266.98 195.9,264.79 196.93,263C200.21,259.27 205.23,257.92 209.26,255.21C212.97,252.67 216.97,250.36 219.99,246.97C221.77,244.52 223.38,241.91 225.79,240.02C226.81,235.86 228.88,232.07 229.97,227.93C231.21,222.27 235.04,217.6 236.17,211.89C238.48,202.41 242.32,193.34 243.7,183.64C243.92,183.24 244.36,182.43 244.58,182.02C245.41,176.47 246.47,170.96 247.53,165.45C249.4,150.69 249.26,135.68 252.47,121.08C253.86,111.24 255.29,101.41 256.71,91.58M263.75,113.44C260.91,128.77 259.34,144.29 257.7,159.78C257.24,169.46 255.27,179 253.14,188.44C249.6,201.41 246.66,214.62 241.41,227.05C238.32,234.94 235,242.74 232.86,250.97C233.69,251.09 235.35,251.32 236.18,251.44C235.16,251.58 234.15,251.73 233.14,251.87C230.54,254.81 227.09,256.76 224.41,259.62C229.58,260.26 234.86,261.09 240.05,260.16C241.96,259.87 243.85,259.24 245.81,259.31C247.57,259.93 249.02,261.49 250.94,261.56C262.3,261.02 273.65,260.36 285.02,260.02C297.95,262.25 309.7,254.88 322.3,253.57C320.38,249.8 318.49,246.02 316.85,242.12C313.61,236.99 309.56,232.01 308.51,225.86C307.03,212.88 296.51,203.77 291.87,192.05C288.24,183.42 283.85,175.02 281.39,165.95C280.98,157.96 277.59,150.66 275.84,142.95C273.75,134.69 267.91,127.89 266.24,119.5C265.69,117.37 264.75,115.38 263.75,113.44M333.77,246.24C335.68,246.73 337.58,247.32 339.44,248C339.68,249.73 339.96,251.46 340.28,253.19C339.21,257.9 335.74,261.29 333.17,265.19C330.15,271.01 326.26,276.31 322.38,281.58C319.21,285.1 315.42,288.12 313.35,292.5C309.51,296.8 307.15,302.16 303.33,306.46C302.65,307.52 301.41,307.69 300.29,307.98C300.35,311.29 298.87,314.22 296.67,316.6L295.85,316.5C294.66,317.75 293.48,319.02 292.31,320.3C287.93,323.98 283.52,327.71 278.18,329.93C275.32,331.71 272.2,332.95 269.03,334.04C262.62,337.25 257.85,342.84 251.97,346.82C247.28,349.34 243.32,352.96 238.97,355.98C233.12,359.39 228.04,363.98 222.01,367.11C217.75,369.3 214.68,373.09 210.7,375.67C208.34,378.63 206.03,381.67 204.29,385.03C203.98,387.1 204.21,389.21 204.31,391.29C204.74,391.65 205.6,392.35 206.03,392.71C207.14,394.78 207.45,398.06 210.12,398.69C221.49,401.69 233.29,402.47 245.01,402.27C253.73,402.76 262.5,401.67 270.97,399.68C278.59,400.99 286.34,401.15 294.01,402.11C300.56,402.9 307.61,401.08 313.71,404.28C313.53,406.67 313.4,409.07 313.37,411.47C311.77,412.48 310.18,414.16 308.1,413.51C300.38,412.39 292.53,413.06 284.84,411.58C288.02,414 291.31,416.34 294.96,418.02C298.67,419.65 303.06,419.29 306.57,421.43C307.27,423.49 307.49,425.68 307.85,427.83C305.5,429.2 303.05,431.18 300.14,430.35C289.83,429.34 281.55,422.49 273.84,416.2C275.31,419.85 277.05,423.39 278.56,427.03C278.75,428.94 279.16,430.84 280.01,432.58C285.69,432.39 291.37,433.22 297.05,432.73C301.34,432.55 305.59,431.4 309.9,431.94C317.04,432.87 323.91,429.73 331.05,430.25C338.83,430.73 346.38,428.71 354.06,428C348.74,420.41 341.95,414.03 336.54,406.51C336.11,404.18 336.32,400.8 338.99,399.9C341.48,398.82 343.94,400.49 346.13,401.52C348.53,405.76 352.25,408.98 355.3,412.73C357.01,414.72 358.49,416.92 360.4,418.74C362.43,420.84 365.5,421.06 368.16,421.86C373.52,423.04 378.56,425.31 383.93,426.48C382.09,421.31 379.04,416.7 377.2,411.53C374.9,407.58 373.63,402.82 369.9,399.91C369.62,399.05 369.34,398.2 369.07,397.36C364.58,393.49 362.36,387.81 358.93,383.09C355.81,376.55 350.14,371.88 344.58,367.48C340.62,364.59 338.72,359.93 336.11,355.95C331.61,348.15 329.38,338.17 321.4,333.02C321.34,332.1 321.29,331.2 321.24,330.29C318.04,330.51 314.89,329.94 311.85,328.99C308.93,327.83 305.97,329.32 303.16,330.09C300.36,328.21 297.61,326.27 295.06,324.07C296.19,321.59 297.44,319.16 298.87,316.84C301.69,317.42 303.71,315.03 305.93,313.76C312.36,312.04 317.2,317.32 322.83,319.24C327.07,320.71 329.27,324.78 332.05,327.97C335.36,331.38 336.92,336.09 340.49,339.3C342.26,342.78 344.23,346.21 345.12,350.05C345.51,351.91 346.88,353.3 347.98,354.78C355.87,349.45 360.14,340.17 361.12,330.91C361.5,324.96 360.92,319.02 360.67,313.08C356,314.92 350.94,316.7 345.87,315.5C343.85,315.21 341.8,313.99 339.77,314.81C336.81,315.72 333.78,316.35 330.71,316.69C329.49,315.44 328.14,314.28 327.26,312.76C327.25,310.58 327.95,308.48 328.43,306.37C331.97,305.61 335.56,305.03 339.01,303.87C345.48,301.51 352.49,301.28 358.98,298.97C360.43,298.07 361.08,296.34 362.02,294.98C363.96,291.13 366.65,287.44 367.09,283.03C367.1,273.39 365.3,263.71 361.11,254.97L361.39,254.71C360.16,252.03 359.52,248.29 356.13,247.58C349.02,244.49 341.22,245.12 333.77,246.24M299.4,270.47C300.47,274.74 301.4,279.08 301.43,283.5C299.98,285.28 298.9,288.36 296.05,287.8C293.7,287.8 292.58,285.31 291.21,283.79C290.82,278.77 285.7,277.1 281.75,275.46C275.95,273.93 269.86,275.37 264.46,277.65C262.11,278.53 261.61,281.21 260.73,283.25L260.69,283.25C260.11,286.21 258.6,289.94 255.08,290.11C252.67,290.66 250.95,288.85 249.47,287.3C249.6,285.85 249.72,284.4 249.83,282.96C251.12,279.19 252.87,275.61 254.59,272.04C248.81,272.54 243,272.85 237.19,272.58C235.89,274.5 234.31,276.21 232.41,277.55C230.94,279.65 229.58,281.93 227.3,283.24L227.28,283.29C223,285.08 221.43,289.63 221.73,293.97C222.88,295.92 223.73,298.04 224.97,299.94C226.17,300.67 227.5,301.18 228.79,301.76L228.98,302.08L229.28,302.03C235.23,302.47 241.58,301.86 247.02,304.83C249.53,305.7 250.63,308.22 251.93,310.31C261.96,305.16 270.23,296.07 272.52,284.82C273.52,284.35 274.51,283.89 275.51,283.42C275.94,282.82 276.8,281.63 277.24,281.03C278.57,281.86 279.9,282.72 281.22,283.61C281.29,289.45 279.84,295.2 277.59,300.56C275.83,304.57 272.61,307.58 269.79,310.83C268.06,312.87 265.07,313.73 263.81,316.13C262.34,314.06 261.39,318.4 263.53,316.91C268.65,317.39 273.84,317.66 278.97,317.09C282.23,316.18 283.47,312.64 285.36,310.19C290.11,304.92 295.94,300.46 299.19,294.01L299.7,294.49C301.7,290.51 304.44,286.99 306.88,283.28C308.96,280.61 311.26,278.12 313.51,275.6C315.54,273.67 315.24,270.62 315.79,268.09C310.32,268.85 304.88,269.82 299.4,270.47M187.93,293.82C186.96,307.35 195.28,318.82 200.36,330.7C200.95,330.76 202.13,330.87 202.72,330.93C205.53,322.15 204.6,312.93 205.03,303.88C204.37,301.41 203.27,299.07 202.97,296.51C200.93,294.08 199.91,289.78 196.07,289.9C193.06,289.74 188.58,290.12 187.93,293.82M153.29,298.2C149.75,300.68 148.44,306.02 150.07,309.98C151.65,314.06 152.98,318.22 154.47,322.33C161.17,327.99 169.61,331.26 178.08,333.17C182.04,333.26 186,333.04 189.96,333.19C186.49,328.33 185.3,322.24 181.52,317.56C177.91,313.48 176.6,308.01 173.29,303.75C170.63,300.67 167.1,297.85 162.86,297.68C159.67,297.38 156.43,297.61 153.29,298.2M214.94,302.17C214.32,311.25 215.5,320.39 213.79,329.39C216.21,328.88 218.66,328.62 221.13,328.5C218.47,325.15 218.82,319.88 222.24,317.2C227.03,314 233.09,315 238.37,313.26C235.57,313.03 232.76,313.04 229.97,312.79C224.7,311.98 219.91,309.41 215.72,306.2C215.45,304.85 215.2,303.51 214.94,302.17M208.75,340.73C207.43,341.81 206.09,342.87 204.72,343.9C204.66,346.23 204.54,348.56 204.55,350.91C204.77,353.32 205.11,355.72 205.56,358.1C210.48,356.72 215.56,356.18 220.58,355.29C222.99,354.23 225.07,352.55 227.26,351.11C228.06,350.69 228.86,350.28 229.66,349.86C229.92,346 229.67,342.13 229.09,338.31C222.31,339.17 215.52,339.86 208.75,340.73M184.17,347.06C178.01,347.28 172.3,349.89 166.83,352.5C164.36,356.21 166.95,360.79 166.88,364.84C168.41,364.69 169.94,364.54 171.47,364.4L171.95,364.74C176.63,363.81 181.43,363.39 185.99,361.94C189.24,361.65 192.5,361.33 195.72,360.8C195.39,358.78 195.06,356.76 194.76,354.74C194.85,351.56 195.05,348.35 194.6,345.19C190.99,344.87 187.72,346.8 184.17,347.06M182.84,374C183.08,378.67 183.38,383.34 183.26,388.01C182.99,394.96 184.76,401.78 184.48,408.73C191.94,407.8 199.39,408.85 206.85,409.03C196.43,404.18 191.17,390.89 195.36,380.2C195.62,379.91 196.15,379.31 196.42,379.01C197.05,375.11 200.46,372.88 202.7,369.95C196.18,371.83 189.39,372.32 182.84,374M171.11,374.54C170.89,377.47 170.89,380.56 169.14,383.07C167.02,386.29 166.8,390.37 167.72,394.03C168.78,396.41 171.26,397.72 173.35,399.06C173.82,393.4 172.92,387.7 173.24,382.02C172.79,379.52 174.21,375.65 171.11,374.54M234.86,412.82C234.77,413.53 234.59,414.97 234.5,415.69C232.29,416.84 230.08,418 227.87,419.15C227.35,424.37 226.96,429.61 227.06,434.86C231.14,434.17 235.27,433.81 239.38,433.39C242.58,433.29 245.76,432.87 248.96,432.61C248.57,430.37 248.25,428.12 248.05,425.86C247.71,421.41 247.33,416.96 247.33,412.49C243.17,412.68 239.02,412.88 234.86,412.82Z" style="fill:rgb(11,11,11);fill-rule:nonzero;"/>
        </g>
        <g transform="matrix(1.034581,0,0,1.034581,-14.450049,-15.624278)">
            <path d="M160.03,166.01C165.54,163.19 171.91,161.59 178.11,162.44C184.04,163.68 187.72,169.19 189.49,174.61C191.12,180.65 189.62,186.87 189.22,192.97C188.68,200.75 186.65,208.3 185.28,215.95C184.34,223.32 183.43,230.7 182.52,238.07C181.36,243.57 181.34,249.31 179.47,254.64C177.83,255.93 175.26,257.21 173.43,255.53C170.78,252.82 168.24,250.01 165.39,247.51C164.75,246.72 163.94,246.23 162.95,246.03C155.8,241.48 148.06,237.07 143.39,229.72C141.79,226.72 140.4,223.58 138.08,221.06C136.81,217.76 134.13,215.3 132.75,212.08C131.34,209.12 129.72,206.25 128.65,203.15C128.18,202.09 127.63,201.06 127.31,199.95C127.61,192.52 127.15,184.27 132.1,178.14C136.01,174.02 141.65,172.72 146.94,171.41C149.49,170.92 152.02,171.69 154.47,172.3C156.54,170.39 158.13,168.06 160.03,166.01M164.65,176.64C161.86,183.85 166.43,191.46 163.7,198.75C161.28,199.46 158.28,200.93 156.14,198.8C151.79,194.16 155.41,185.91 150.03,181.99C145.61,182.27 141.43,184.13 138.25,187.19C137.85,190.09 137.3,193 137.49,195.94C137.81,199.65 140.11,202.67 141.65,205.93C144.26,211.81 148.23,216.92 151.4,222.49C155.52,230.87 165.08,233.75 172.32,238.71C173.76,229.49 174.43,220.15 176.27,210.99C178.58,200.18 180.27,189.08 179.69,178.01C178.48,170.67 168.24,171.99 164.65,176.64Z" style="fill:rgb(11,11,11);fill-rule:nonzero;"/>
        </g>
        <g transform="matrix(1.034581,0,0,1.034581,-14.450049,-15.624278)">
            <path d="M98,232.99C101.97,231.04 106.27,233.14 109.61,235.37C112.76,237.12 113.53,240.9 115.06,243.89C116.61,246.77 116.14,250.07 116.21,253.21C114.14,257.4 110.99,261.79 106.08,262.68C102.27,263.32 98.29,265.19 94.47,263.65C90.99,262.5 87.92,260.31 85.76,257.35C85.46,253.25 83.65,249.08 85.25,245.04C85.51,243.18 87.71,242.86 88.97,241.86C90.68,237.8 94.43,235.29 98,232.99M94.22,248.85C94.94,250.74 95.42,253.44 98,253.48C100.96,253.37 105.42,252.7 106.03,249.15C105.07,246.85 103.49,244.9 102.06,242.89C99.67,245.15 97.25,247.45 94.22,248.85Z" style="fill:rgb(11,11,11);fill-rule:nonzero;"/>
        </g>
        <g transform="matrix(1.034581,0,0,1.034581,-14.450049,-15.624278)">
            <path d="M290.47,360.52C290.93,360.37 291.84,360.08 292.3,359.93C296.55,360.22 300.82,360.27 305.09,360.46C306.8,360.4 308.23,361.48 309.34,362.68C311.49,364.53 310.25,367.94 308.7,369.8C306.33,371.02 303.54,370.68 300.97,370.79C297.39,370.68 293.8,371.06 290.24,370.64C287.7,370.03 287.38,367.17 287.48,365C288.39,363.45 289.45,361.99 290.47,360.52Z" style="fill:rgb(11,11,11);fill-rule:nonzero;"/>
        </g>
        <g transform="matrix(1.034581,0,0,1.034581,-14.450049,-15.624278)">
            <path d="M255.4,372.61C259,371.74 262.57,373.31 265.91,374.49C268.75,375.65 271.76,376.34 274.61,377.5C279.15,379.24 276.8,387.56 271.97,386.99C268.54,386.62 265.33,385.29 261.97,384.6C259.14,383.82 255.81,383.55 253.74,381.22C251.91,378.55 252.68,374.38 255.4,372.61Z" style="fill:rgb(11,11,11);fill-rule:nonzero;"/>
        </g>
        <g transform="matrix(1.034581,0,0,1.034581,-14.450049,-15.624278)">
            <path d="M129.48,442.59C132.75,441.24 136.44,441.01 138.93,443.95C138.26,446.7 138.56,450.65 134.96,451.22C131.84,452.98 129.09,450.51 127.18,448.24C127.96,446.36 128.75,444.48 129.48,442.59Z" style="fill:rgb(11,11,11);fill-rule:nonzero;"/>
        </g>
        <g transform="matrix(1.034581,0,0,1.034581,-14.450049,-15.624278)">
            <path d="M187.93,293.82C188.58,290.12 193.06,289.74 196.07,289.9C199.91,289.78 200.93,294.08 202.97,296.51C203.27,299.07 204.37,301.41 205.03,303.88C204.6,312.93 205.53,322.15 202.72,330.93C202.13,330.87 200.95,330.76 200.36,330.7C195.28,318.82 186.96,307.35 187.93,293.82M192.79,304.84C194.83,308.52 193.79,313.15 196.36,316.61C198.36,319.49 199.53,322.83 201.42,325.78C203.35,320.92 202.27,315.74 203.05,310.73C202.23,306.38 199.75,302.61 198.84,298.3C198.03,296.79 197.23,295.29 196.43,293.78C192.14,295.76 192.24,300.82 192.79,304.84Z" style="fill:rgb(253,93,111);fill-rule:nonzero;"/>
        </g>
        <g transform="matrix(1.034581,0,0,1.034581,-14.450049,-15.624278)">
            <path d="M153.29,298.2C156.43,297.61 159.67,297.38 162.86,297.68C167.1,297.85 170.63,300.67 173.29,303.75C176.6,308.01 177.91,313.48 181.52,317.56C185.3,322.24 186.49,328.33 189.96,333.19C186,333.04 182.04,333.26 178.08,333.17C169.61,331.26 161.17,327.99 154.47,322.33C152.98,318.22 151.65,314.06 150.07,309.98C148.44,306.02 149.75,300.68 153.29,298.2M155.74,312.23C160.79,323.15 172.8,328.45 183.92,330.78C181.72,327.67 180.18,324.14 178.02,321.01C174.65,317.95 172.24,314.02 168.97,310.86C166.51,307.29 162.2,305.77 158.79,303.29C156,305.07 153.15,309.17 155.74,312.23Z" style="fill:rgb(253,93,111);fill-rule:nonzero;"/>
        </g>
        <g transform="matrix(1.034581,0,0,1.034581,-14.450049,-15.624278)">
            <path d="M208.75,340.73C215.52,339.86 222.31,339.17 229.09,338.31C229.67,342.13 229.92,346 229.66,349.86C228.86,350.28 228.06,350.69 227.26,351.11C224.64,348.02 221.6,344.16 217.03,344.74C212.02,344.49 208.11,347.87 204.55,350.91C204.54,348.56 204.66,346.23 204.72,343.9C206.09,342.87 207.43,341.81 208.75,340.73Z" style="fill:rgb(253,210,9);fill-rule:nonzero;"/>
        </g>
        <g transform="matrix(1.034581,0,0,1.034581,-14.450049,-15.624278)">
            <path d="M166.88,364.84C166.95,360.79 164.36,356.21 166.83,352.5C166.71,354.42 166.56,356.35 166.38,358.27C167.95,360.41 169.58,362.52 171.47,364.4C169.94,364.54 168.41,364.69 166.88,364.84Z" style="fill:rgb(253,210,9);fill-rule:nonzero;"/>
        </g>
        <g transform="matrix(1.034581,0,0,1.034581,-14.450049,-15.624278)">
            <path d="M263.75,113.44C264.75,115.38 265.69,117.37 266.24,119.5C267.91,127.89 273.75,134.69 275.84,142.95C277.59,150.66 280.98,157.96 281.39,165.95C283.85,175.02 288.24,183.42 291.87,192.05C296.51,203.77 307.03,212.88 308.51,225.86C309.56,232.01 313.61,236.99 316.85,242.12C318.49,246.02 320.38,249.8 322.3,253.57C309.7,254.88 297.95,262.25 285.02,260.02C273.65,260.36 262.3,261.02 250.94,261.56C249.02,261.49 247.57,259.93 245.81,259.31C243.85,259.24 241.96,259.87 240.05,260.16C234.86,261.09 229.58,260.26 224.41,259.62C227.09,256.76 230.54,254.81 233.14,251.87C234.15,251.73 235.16,251.58 236.18,251.44C235.35,251.32 233.69,251.09 232.86,250.97C235,242.74 238.32,234.94 241.41,227.05C246.66,214.62 249.6,201.41 253.14,188.44C255.27,179 257.24,169.46 257.7,159.78C259.34,144.29 260.91,128.77 263.75,113.44Z" style="fill:rgb(234,51,35);fill-rule:nonzero;"/>
        </g>
        <g transform="matrix(1.034581,0,0,1.034581,-14.450049,-15.624278)">
            <path d="M164.65,176.64C168.24,171.99 178.48,170.67 179.69,178.01C180.27,189.08 178.58,200.18 176.27,210.99C174.43,220.15 173.76,229.49 172.32,238.71C165.08,233.75 155.52,230.87 151.4,222.49C148.23,216.92 144.26,211.81 141.65,205.93C140.11,202.67 137.81,199.65 137.49,195.94C137.3,193 137.85,190.09 138.25,187.19C141.43,184.13 145.61,182.27 150.03,181.99C155.41,185.91 151.79,194.16 156.14,198.8C158.28,200.93 161.28,199.46 163.7,198.75C166.43,191.46 161.86,183.85 164.65,176.64Z" style="fill:rgb(234,51,35);fill-rule:nonzero;"/>
        </g>
        <g transform="matrix(1.034581,0,0,1.034581,-14.450049,-15.624278)">
            <path d="M184.17,347.06C187.72,346.8 190.99,344.87 194.6,345.19C195.05,348.35 194.85,351.56 194.76,354.74C192.75,358.14 190.19,361.38 185.99,361.94C181.43,363.39 176.63,363.81 171.95,364.74L171.47,364.4C169.58,362.52 167.95,360.41 166.38,358.27C166.56,356.35 166.71,354.42 166.83,352.5C172.3,349.89 178.01,347.28 184.17,347.06Z" style="fill:rgb(253,248,192);fill-rule:nonzero;"/>
        </g>
        <g transform="matrix(1.034581,0,0,1.034581,-14.450049,-15.624278)">
            <path d="M204.55,350.91C208.11,347.87 212.02,344.49 217.03,344.74C221.6,344.16 224.64,348.02 227.26,351.11C225.07,352.55 222.99,354.23 220.58,355.29C215.56,356.18 210.48,356.72 205.56,358.1C205.11,355.72 204.77,353.32 204.55,350.91Z" style="fill:rgb(233,122,9);fill-rule:nonzero;"/>
        </g>
        <g transform="matrix(1.034581,0,0,1.034581,-14.450049,-15.624278)">
            <path d="M185.99,361.94C190.19,361.38 192.75,358.14 194.76,354.74C195.06,356.76 195.39,358.78 195.72,360.8C192.5,361.33 189.24,361.65 185.99,361.94Z" style="fill:rgb(233,122,9);fill-rule:nonzero;"/>
        </g>
        <g transform="matrix(1.034581,0,0,1.034581,-14.450049,-15.624278)">
            <path d="M182.84,374C189.39,372.32 196.18,371.83 202.7,369.95C200.46,372.88 197.05,375.11 196.42,379.01C196.15,379.31 195.62,379.91 195.36,380.2C191.17,390.89 196.43,404.18 206.85,409.03C199.39,408.85 191.94,407.8 184.48,408.73C184.76,401.78 182.99,394.96 183.26,388.01C183.38,383.34 183.08,378.67 182.84,374Z" style="fill:rgb(233,122,9);fill-rule:nonzero;"/>
        </g>
        <g transform="matrix(1.034581,0,0,1.034581,-14.450049,-15.624278)">
            <path d="M354.98,270.01C357.7,265.19 355.87,258.27 361.11,254.97C365.3,263.71 367.1,273.39 367.09,283.03C366.65,287.44 363.96,291.13 362.02,294.98C361.08,296.34 360.43,298.07 358.98,298.97C352.49,301.28 345.48,301.51 339.01,303.87C335.56,305.03 331.97,305.61 328.43,306.37C327.95,308.48 327.25,310.58 327.26,312.76C328.14,314.28 329.49,315.44 330.71,316.69C333.78,316.35 336.81,315.72 339.77,314.81C341.8,313.99 343.85,315.21 345.87,315.5C350.94,316.7 356,314.92 360.67,313.08C360.92,319.02 361.5,324.96 361.12,330.91C360.14,340.17 355.87,349.45 347.98,354.78C346.88,353.3 345.51,351.91 345.12,350.05C344.23,346.21 342.26,342.78 340.49,339.3C336.92,336.09 335.36,331.38 332.05,327.97C329.27,324.78 327.07,320.71 322.83,319.24C317.2,317.32 312.36,312.04 305.93,313.76C309.1,312.25 312.53,311.32 315.59,309.57C322.25,305.81 327.71,300.38 333.75,295.77C342.66,288.92 350.63,280.52 354.98,270.01Z" style="fill:rgb(75,77,163);fill-rule:nonzero;"/>
        </g>
        <g transform="matrix(1.034581,0,0,1.034581,-14.450049,-15.624278)">
            <path d="M299.4,270.47C304.88,269.82 310.32,268.85 315.79,268.09C315.24,270.62 315.54,273.67 313.51,275.6C311.26,278.12 308.96,280.61 306.88,283.28C305.06,283.35 303.24,283.43 301.43,283.5C301.4,279.08 300.47,274.74 299.4,270.47Z" style="fill:rgb(75,77,163);fill-rule:nonzero;"/>
        </g>
        <g transform="matrix(1.034581,0,0,1.034581,-14.450049,-15.624278)">
            <path d="M237.19,272.58C243,272.85 248.81,272.54 254.59,272.04C252.87,275.61 251.12,279.19 249.83,282.96C247.7,283.39 245.58,283.87 243.44,284.2C238.65,284.38 235.14,281.03 232.41,277.55C234.31,276.21 235.89,274.5 237.19,272.58Z" style="fill:rgb(75,77,163);fill-rule:nonzero;"/>
        </g>
        <g transform="matrix(1.034581,0,0,1.034581,-14.450049,-15.624278)">
            <path d="M264.46,277.65C269.86,275.37 275.95,273.93 281.75,275.46C285.7,277.1 290.82,278.77 291.21,283.79C287.88,283.72 284.54,283.76 281.22,283.61C279.9,282.72 278.57,281.86 277.24,281.03C276.8,281.63 275.94,282.82 275.51,283.42C270.59,283.11 265.66,283.2 260.73,283.25C261.61,281.21 262.11,278.53 264.46,277.65Z" style="fill:rgb(75,77,163);fill-rule:nonzero;"/>
        </g>
        <g transform="matrix(1.034581,0,0,1.034581,-14.450049,-15.624278)">
            <path d="M295.85,316.5L296.67,316.6C297.22,316.66 298.32,316.78 298.87,316.84C297.44,319.16 296.19,321.59 295.06,324.07C297.61,326.27 300.36,328.21 303.16,330.09C305.97,329.32 308.93,327.83 311.85,328.99C314.89,329.94 318.04,330.51 321.24,330.29C321.29,331.2 321.34,332.1 321.4,333.02C329.38,338.17 331.61,348.15 336.11,355.95C338.72,359.93 340.62,364.59 344.58,367.48C350.14,371.88 355.81,376.55 358.93,383.09C362.36,387.81 364.58,393.49 369.07,397.36C369.34,398.2 369.62,399.05 369.9,399.91C373.63,402.82 374.9,407.58 377.2,411.53C379.04,416.7 382.09,421.31 383.93,426.48C378.56,425.31 373.52,423.04 368.16,421.86C365.5,421.06 362.43,420.84 360.4,418.74C358.49,416.92 357.01,414.72 355.3,412.73C352.25,408.98 348.53,405.76 346.13,401.52C343.94,400.49 341.48,398.82 338.99,399.9C336.32,400.8 336.11,404.18 336.54,406.51C341.95,414.03 348.74,420.41 354.06,428C346.38,428.71 338.83,430.73 331.05,430.25C323.91,429.73 317.04,432.87 309.9,431.94C305.59,431.4 301.34,432.55 297.05,432.73C291.37,433.22 285.69,432.39 280.01,432.58C279.16,430.84 278.75,428.94 278.56,427.03C277.05,423.39 275.31,419.85 273.84,416.2C281.55,422.49 289.83,429.34 300.14,430.35C303.05,431.18 305.5,429.2 307.85,427.83C307.49,425.68 307.27,423.49 306.57,421.43C303.06,419.29 298.67,419.65 294.96,418.02C291.31,416.34 288.02,414 284.84,411.58C292.53,413.06 300.38,412.39 308.1,413.51C310.18,414.16 311.77,412.48 313.37,411.47C313.4,409.07 313.53,406.67 313.71,404.28C307.61,401.08 300.56,402.9 294.01,402.11C286.34,401.15 278.59,400.99 270.97,399.68C262.5,401.67 253.73,402.76 245.01,402.27C233.29,402.47 221.49,401.69 210.12,398.69C207.45,398.06 207.14,394.78 206.03,392.71C213.32,391.35 220.74,392.17 228.09,391.71C237.57,392.03 246.95,390.5 256.39,389.99C253.16,386.09 248.73,382.72 247.37,377.65C247.77,373.96 250.57,370.74 253.41,368.53C258.62,366.84 264.72,367.55 269.15,370.89C272.41,373.42 276.25,374.87 280.18,375.99C292.53,380.71 305.24,384.43 317.59,389.15C309.29,382.34 299.06,378.68 289.25,374.66C285.56,373 285.47,368.01 287.48,365C287.38,367.17 287.7,370.03 290.24,370.64C293.8,371.06 297.39,370.68 300.97,370.79C303.54,370.68 306.33,371.02 308.7,369.8C310.25,367.94 311.49,364.53 309.34,362.68C308.23,361.48 306.8,360.4 305.09,360.46C300.82,360.27 296.55,360.22 292.3,359.93C298.56,357.04 305.53,358.78 311.93,360.2C318.49,361.57 324.59,364.45 331.05,366.18C327.83,359.92 322.9,354.79 319.4,348.71C316.94,344.53 314.2,340.52 311.34,336.61C310.18,335.13 308.95,333.38 306.96,333.07C299.83,331.57 292.66,334.26 285.51,333.4C282.73,333.11 280.43,331.41 278.18,329.93C283.52,327.71 287.93,323.98 292.31,320.3C293.48,319.02 294.66,317.75 295.85,316.5M255.4,372.61C252.68,374.38 251.91,378.55 253.74,381.22C255.81,383.55 259.14,383.82 261.97,384.6C265.33,385.29 268.54,386.62 271.97,386.99C276.8,387.56 279.15,379.24 274.61,377.5C271.76,376.34 268.75,375.65 265.91,374.49C262.57,373.31 259,371.74 255.4,372.61M321.54,392.25C320.71,393.38 322.63,394.84 323.57,393.86C324.39,392.72 322.47,391.26 321.54,392.25Z" style="fill:rgb(75,77,163);fill-rule:nonzero;"/>
        </g>
        <g transform="matrix(1.034581,0,0,1.034581,-14.450049,-15.624278)">
            <path d="M171.11,374.54C174.21,375.65 172.79,379.52 173.24,382.02C172.92,387.7 173.82,393.4 173.35,399.06C171.26,397.72 168.78,396.41 167.72,394.03C166.8,390.37 167.02,386.29 169.14,383.07C170.89,380.56 170.89,377.47 171.11,374.54Z" style="fill:rgb(75,77,163);fill-rule:nonzero;"/>
        </g>
        <g transform="matrix(1.034581,0,0,1.034581,-14.450049,-15.624278)">
            <path d="M234.86,412.82C239.02,412.88 243.17,412.68 247.33,412.49C247.33,416.96 247.71,421.41 248.05,425.86C243.31,427.99 238.59,430.22 234.26,433.13C235.96,433.24 237.67,433.38 239.38,433.39C235.27,433.81 231.14,434.17 227.06,434.86C226.96,429.61 227.35,424.37 227.87,419.15C230.08,418 232.29,416.84 234.5,415.69C234.59,414.97 234.77,413.53 234.86,412.82Z" style="fill:rgb(75,77,163);fill-rule:nonzero;"/>
        </g>
        <g transform="matrix(1.034581,0,0,1.034581,-14.450049,-15.624278)">
            <path d="M243.44,284.2C245.58,283.87 247.7,283.39 249.83,282.96C249.72,284.4 249.6,285.85 249.47,287.3C250.95,288.85 252.67,290.66 255.08,290.11C258.6,289.94 260.11,286.21 260.69,283.25L260.73,283.25C265.66,283.2 270.59,283.11 275.51,283.42C274.51,283.89 273.52,284.35 272.52,284.82C270.23,296.07 261.96,305.16 251.93,310.31C250.63,308.22 249.53,305.7 247.02,304.83C241.58,301.86 235.23,302.47 229.28,302.03C233.03,301.2 237.07,301.3 240.6,299.66C244.65,295.69 244.63,289.39 243.44,284.2Z" style="fill:rgb(255,209,186);fill-rule:nonzero;"/>
        </g>
        <g transform="matrix(1.034581,0,0,1.034581,-14.450049,-15.624278)">
            <path d="M301.43,283.5C303.24,283.43 305.06,283.35 306.88,283.28C304.44,286.99 301.7,290.51 299.7,294.49L299.19,294.01C296.12,290.92 291.98,286.83 287.26,289.23C281.92,292.26 278.76,298.86 279.3,304.92C280.31,307.48 283.3,308.56 285.36,310.19C283.47,312.64 282.23,316.18 278.97,317.09C273.84,317.66 268.65,317.39 263.53,316.91L263.81,316.13C265.07,313.73 268.06,312.87 269.79,310.83C272.61,307.58 275.83,304.57 277.59,300.56C279.84,295.2 281.29,289.45 281.22,283.61C284.54,283.76 287.88,283.72 291.21,283.79C292.58,285.31 293.7,287.8 296.05,287.8C298.9,288.36 299.98,285.28 301.43,283.5Z" style="fill:rgb(255,209,186);fill-rule:nonzero;"/>
        </g>
        <g transform="matrix(1.034581,0,0,1.034581,-14.450049,-15.624278)">
            <path d="M221.73,293.97C221.43,289.63 223,285.08 227.28,283.29C226.42,286.83 225.13,290.41 225.47,294.12C225.67,296.97 227.39,299.37 228.79,301.76C227.5,301.18 226.17,300.67 224.97,299.94C223.73,298.04 222.88,295.92 221.73,293.97Z" style="fill:rgb(255,209,186);fill-rule:nonzero;"/>
        </g>
        <g transform="matrix(1.034581,0,0,1.034581,-14.450049,-15.624278)">
            <path d="M94.22,248.85C97.25,247.45 99.67,245.15 102.06,242.89C103.49,244.9 105.07,246.85 106.03,249.15C105.42,252.7 100.96,253.37 98,253.48C95.42,253.44 94.94,250.74 94.22,248.85Z" style="fill:rgb(229,50,34);fill-opacity:0.98;fill-rule:nonzero;"/>
        </g>
        <g transform="matrix(1.034581,0,0,1.034581,-14.450049,-15.624278)">
            <path d="M333.77,246.24C341.22,245.12 349.02,244.49 356.13,247.58C359.52,248.29 360.16,252.03 361.39,254.71L361.11,254.97C355.87,258.27 357.7,265.19 354.98,270.01C350.63,280.52 342.66,288.92 333.75,295.77C327.71,300.38 322.25,305.81 315.59,309.57C312.53,311.32 309.1,312.25 305.93,313.76C303.71,315.03 301.69,317.42 298.87,316.84C298.32,316.78 297.22,316.66 296.67,316.6C298.87,314.22 300.35,311.29 300.29,307.98C301.41,307.69 302.65,307.52 303.33,306.46C307.15,302.16 309.51,296.8 313.35,292.5C315.42,288.12 319.21,285.1 322.38,281.58C326.26,276.31 330.15,271.01 333.17,265.19C335.74,261.29 339.21,257.9 340.28,253.19C339.96,251.46 339.68,249.73 339.44,248C337.58,247.32 335.68,246.73 333.77,246.24Z" style="fill:rgb(142,95,218);fill-rule:nonzero;"/>
        </g>
        <g transform="matrix(1.034581,0,0,1.034581,-14.450049,-15.624278)">
            <path d="M269.03,334.04C272.2,332.95 275.32,331.71 278.18,329.93C280.43,331.41 282.73,333.11 285.51,333.4C292.66,334.26 299.83,331.57 306.96,333.07C308.95,333.38 310.18,335.13 311.34,336.61C314.2,340.52 316.94,344.53 319.4,348.71C322.9,354.79 327.83,359.92 331.05,366.18C324.59,364.45 318.49,361.57 311.93,360.2C305.53,358.78 298.56,357.04 292.3,359.93C291.84,360.08 290.93,360.37 290.47,360.52C289.45,361.99 288.39,363.45 287.48,365C285.47,368.01 285.56,373 289.25,374.66C299.06,378.68 309.29,382.34 317.59,389.15C305.24,384.43 292.53,380.71 280.18,375.99C276.25,374.87 272.41,373.42 269.15,370.89C264.72,367.55 258.62,366.84 253.41,368.53C250.57,370.74 247.77,373.96 247.37,377.65C248.73,382.72 253.16,386.09 256.39,389.99C246.95,390.5 237.57,392.03 228.09,391.71C220.74,392.17 213.32,391.35 206.03,392.71C205.6,392.35 204.74,391.65 204.31,391.29C204.21,389.21 203.98,387.1 204.29,385.03C206.03,381.67 208.34,378.63 210.7,375.67C214.68,373.09 217.75,369.3 222.01,367.11C228.04,363.98 233.12,359.39 238.97,355.98C243.32,352.96 247.28,349.34 251.97,346.82C257.85,342.84 262.62,337.25 269.03,334.04Z" style="fill:rgb(142,95,218);fill-rule:nonzero;"/>
        </g>
        <g transform="matrix(1.034581,0,0,1.034581,-14.450049,-15.624278)">
            <path d="M234.26,433.13C238.59,430.22 243.31,427.99 248.05,425.86C248.25,428.12 248.57,430.37 248.96,432.61C245.76,432.87 242.58,433.29 239.38,433.39C237.67,433.38 235.96,433.24 234.26,433.13Z" style="fill:rgb(142,95,218);fill-rule:nonzero;"/>
        </g>
        <g transform="matrix(1.034581,0,0,1.034581,-14.450049,-15.624278)">
            <path d="M162.95,246.03C163.94,246.23 164.75,246.72 165.39,247.51C163.74,248.34 162.93,247.85 162.95,246.03Z" style="fill:rgb(50,12,8);fill-opacity:0.31;fill-rule:nonzero;"/>
        </g>
        <g transform="matrix(1.034581,0,0,1.034581,-14.450049,-15.624278)">
            <path d="M227.3,283.24C229.58,281.93 230.94,279.65 232.41,277.55C235.14,281.03 238.65,284.38 243.44,284.2C244.63,289.39 244.65,295.69 240.6,299.66C237.07,301.3 233.03,301.2 229.28,302.03L228.98,302.08L228.79,301.76C227.39,299.37 225.67,296.97 225.47,294.12C225.13,290.41 226.42,286.83 227.28,283.29L227.3,283.24Z" style="fill:rgb(249,165,131);fill-rule:nonzero;"/>
        </g>
        <g transform="matrix(1.034581,0,0,1.034581,-14.450049,-15.624278)">
            <path d="M287.26,289.23C291.98,286.83 296.12,290.92 299.19,294.01C295.94,300.46 290.11,304.92 285.36,310.19C283.3,308.56 280.31,307.48 279.3,304.92C278.76,298.86 281.92,292.26 287.26,289.23Z" style="fill:rgb(249,165,131);fill-rule:nonzero;"/>
        </g>
        <g transform="matrix(1.034581,0,0,1.034581,-14.450049,-15.624278)">
            <path d="M263.53,316.91C261.39,318.4 262.34,314.06 263.81,316.13L263.53,316.91Z" style="fill:rgb(78,65,58);fill-opacity:0.64;fill-rule:nonzero;"/>
        </g>
        <g transform="matrix(1.034581,0,0,1.034581,-14.450049,-15.624278)">
            <path d="M321.54,392.25C322.47,391.26 324.39,392.72 323.57,393.86C322.63,394.84 320.71,393.38 321.54,392.25Z" style="fill:rgb(112,87,193);fill-rule:nonzero;"/>
        </g>
    </g>
</svg>
