<?xml version="1.0" encoding="UTF-8" standalone="no"?>
<!DOCTYPE svg PUBLIC "-//W3C//DTD SVG 1.1//EN" "http://www.w3.org/Graphics/SVG/1.1/DTD/svg11.dtd">
<svg width="100%" height="100%" viewBox="0 0 1288 751" version="1.1" xmlns="http://www.w3.org/2000/svg" xmlns:xlink="http://www.w3.org/1999/xlink" xml:space="preserve" xmlns:serif="http://www.serif.com/" style="fill-rule:evenodd;clip-rule:evenodd;stroke-linejoin:round;stroke-miterlimit:2;">
    <g transform="matrix(1,0,0,1,-98.94016,-3433.754983)">
        <path d="M99.06,3434.03C180.46,3434.14 261.89,3433.65 343.27,3434.27C333.43,3437.24 323.54,3439.98 314.02,3443.93C310.57,3445.71 304,3445.13 302.71,3449.77C302.31,3451.96 299.68,3455.92 302.96,3457.05C309.35,3462.87 318.4,3458.6 325.34,3456.36C334.24,3451.68 344.4,3451.27 353.73,3447.74C354.96,3446.77 355.84,3445.45 356.47,3444.09C358.12,3441.28 358.03,3439.12 356.18,3437.61C354.52,3436.23 352.63,3435.21 350.78,3434.18C451.1,3433.9 551.46,3433.85 651.76,3434.19C659.5,3439.25 663.98,3447.54 668.75,3455.14C669.01,3461.79 678.12,3466.68 683.07,3462.02C686.75,3451.54 678.78,3442.06 672.87,3434.09C740.95,3433.92 809.04,3433.96 877.13,3434.07C876.79,3439.05 874.5,3443.98 875.82,3449.01C875.36,3453.45 871.52,3459.1 876.66,3462.33C878.42,3465.36 882.14,3463.65 884.54,3462.54C887.06,3459.59 889.91,3456.28 889.13,3452C890.06,3446 890.34,3439.89 892.03,3434.07C1005.07,3433.96 1118.12,3433.92 1231.16,3434.09C1230.13,3435.69 1229.07,3437.29 1227.87,3438.82C1225.2,3441.25 1223.53,3446.4 1226.94,3448.98C1230.2,3452.08 1236.78,3452.4 1239.16,3448.17C1243.79,3443.37 1246.84,3436.88 1253.3,3434.3C1297.43,3433.62 1341.76,3434.13 1385.97,3434.05C1386.02,3684.02 1386.03,3933.99 1385.96,4183.96C1231.93,4184 1077.9,4184.07 923.88,4183.93C927.18,4180.98 927.86,4176.51 929.55,4172.65C934.93,4157.4 938.68,4141.31 937.93,4125.06C936.88,4120.95 937.01,4116.24 933.28,4113.7C927.96,4110.03 921.4,4116.46 922.99,4122C922.3,4126.06 923,4130.28 924.75,4134.01C921.95,4145.51 920.66,4157.56 915.44,4168.37C913.34,4173.59 910.84,4178.63 908.81,4183.89C686.48,4184.06 464.13,4184.08 241.8,4183.88C243.91,4179.39 246.45,4175.07 248.65,4170.67C249.96,4165.17 245.66,4158.78 239.19,4161.11C233.58,4167.96 228.85,4175.54 226.01,4183.97C183.69,4184 141.36,4184.02 99.03,4183.96C99.07,4037.08 98.81,3890.18 99.16,3743.3C101.94,3742.59 102.49,3739.73 103.47,3737.49C111.96,3734.64 117.12,3725.94 125.92,3723.87C126.82,3723.51 127.57,3722.97 128.17,3722.24C130.44,3719.76 131.12,3714.6 129.14,3711.96C127.12,3709.55 123.81,3709.08 120.98,3708.17C116.82,3709.47 113.65,3712.63 109.86,3714.74C106.24,3715.97 102.43,3717.1 99.03,3719.01C99,3624.02 98.93,3529.02 99.06,3434.03M450.01,3464.05L449.05,3464.01C449.46,3466.32 447.77,3471.27 450.02,3471.92C451.22,3473.79 454.88,3475.58 457.32,3474.4C458.88,3473.55 460.51,3474.38 462.09,3474.72C468.96,3469.83 465.4,3477.42 467.98,3477.97C468.95,3480.66 471.57,3481.58 474.25,3480.8C475.48,3480.94 476.73,3481.01 478,3481.01L478,3482.01C480.81,3481.94 486.44,3481.81 489.25,3481.74C493.27,3482.32 498.15,3482.46 500.69,3478.76C500.94,3475.92 503.29,3472.56 500.87,3470.16C497.7,3464.85 490.48,3465.93 485.3,3465.75C482.35,3462.65 478.53,3459.49 474.01,3460C472.87,3456.55 464.67,3460.3 461.74,3459.28C457.52,3458.51 451.74,3459.69 450.01,3464.05M132.65,3463.53C128,3463.18 124.05,3465.77 120.65,3468.59C114.7,3470.73 106.16,3472.83 105.14,3480.07C102.68,3485.31 108.64,3487.28 112.22,3488.6C116.74,3488.21 120.11,3484.7 124.32,3483.42C129.17,3482.15 132.62,3477.81 137.98,3477.89C141.15,3477.95 143.53,3474.37 146.71,3475.32C150.74,3476.27 156.45,3474.89 159.06,3471.91C159.81,3472.38 162.38,3460.45 158.22,3461.93C155.52,3458.51 149.7,3460.52 146,3459.99C141.08,3459.22 137.18,3462.52 132.65,3463.53M174.17,3499.09C171.95,3501.55 170.9,3505.82 173.59,3508.39C178.38,3516.59 188.47,3518.28 196,3523.11C195.98,3523.54 195.96,3524.41 195.95,3524.84C189.2,3529.05 181.87,3532.49 175.97,3537.94C172.36,3539.27 171.85,3543.7 173.26,3546.74C175.83,3548.83 178.89,3547.25 181.68,3546.62C190.31,3539.19 200.48,3533.93 210.23,3528.2C213.59,3525.76 213.64,3519.04 209.31,3517.65C200.45,3513.86 191.58,3509.76 183.4,3504.7C181.65,3501.38 178.21,3498.14 174.17,3499.09M219.28,3499.28C212.53,3501.19 213.63,3517 222.82,3512.93C226.5,3508.79 226.85,3497.78 219.28,3499.28M260.34,3500.97C257.34,3503.25 260.1,3507.75 259.16,3510.77C261.12,3513.57 266.67,3515.14 267.71,3510.73C268.15,3507.18 269.1,3501.68 265.79,3499.78C265.07,3498 259.93,3498.35 260.34,3500.97M248.22,3503.11C246.77,3503.9 247.05,3505.51 247.02,3506.98C246.78,3507.24 246.29,3507.75 246.04,3508.01C247.27,3512.53 239.3,3507.02 239.99,3511.03C235.29,3511.56 230.85,3516.34 230.94,3521.14C229.15,3521.94 229.15,3527.01 230.95,3527.86C231.43,3533.42 236.53,3537.14 241.99,3537.19C242.47,3539.41 239.7,3539.42 238.31,3540.32C235.55,3539.88 232.75,3539.85 229.97,3540.09L230.19,3541.11C227.82,3542.52 227.99,3547.67 231.04,3547.98L231.01,3548.94C233.42,3548.51 238.06,3550.19 239.03,3548.02C243.2,3548.04 246.36,3544.79 249.61,3542.58C253.44,3536.49 253.37,3528.89 254,3522.01C257.09,3520.56 253.81,3512.96 254.99,3510.01L254.01,3509.99C254.66,3506.09 254.19,3500.38 248.22,3503.11M279.91,3514.91C278.23,3514.97 274.87,3515.09 273.19,3515.15C270.73,3517.17 271.17,3520.66 273.18,3522.84C275.27,3522.89 279.66,3521.99 279.58,3524.71C278.02,3530.4 279.76,3536.63 280.65,3542.34C282.32,3547.67 290.46,3549.32 293.83,3544.74C296.97,3539.33 290.39,3537.74 287.04,3538.87C286.88,3533.45 286.93,3528.09 287.18,3522.8C289.07,3523.13 292.81,3523.9 293.8,3522.06C296.31,3521.07 296.64,3515.35 292.95,3515.08L293,3514.12C286.8,3516.9 288.34,3512.58 287.71,3509.75C288.55,3507.11 287.96,3503.67 284.95,3503.02C278.89,3501.95 280.27,3511.54 279.91,3514.91M311.98,3503.99C303.52,3505.78 300.23,3516.59 299.95,3524.15C298.16,3524.93 298.16,3530.01 299.95,3530.85C299.19,3538.15 304.21,3544.75 311.04,3546.99L311.01,3547.95C315.34,3548.16 319.66,3547.84 324.01,3547.97L323.96,3547C327.03,3545.86 331.06,3543.33 328.92,3539.18C326.9,3536.93 324.23,3537.01 322.21,3539.18C318.74,3538.9 315.21,3538.77 311.75,3539.22C308.78,3537.06 306.93,3533.68 306.97,3530.01C303.58,3521.16 309.15,3526.68 312.14,3526.06C312.95,3527.8 318.07,3527.84 318.83,3526.02C320.52,3525.36 322.1,3524.49 323.69,3523.65C330.72,3519.15 328.5,3506.63 320.97,3504.02L320.99,3503.05C318.56,3503.81 312.1,3500.47 311.98,3503.99M342.05,3504.02C333.57,3506.09 331.68,3515.73 330.15,3523.07C329.47,3531.94 330.81,3545.46 341.97,3547.01C343.47,3550.07 350.86,3546.66 354.01,3547.97L353.96,3547C356.34,3546.26 358.16,3544.51 359.82,3542.76C361,3538.73 354.79,3535.45 352.22,3539.17C349.08,3538.91 345.89,3538.76 342.77,3539.19C339.62,3538.07 338.63,3535.14 337.68,3532.29C337.78,3530.75 337.98,3527.68 338.08,3526.14C339.46,3525.95 340.84,3525.82 342.23,3525.76L341.97,3526.86C344.34,3526.54 349.18,3528.19 349.96,3526.03C353.03,3524.32 357.14,3522.78 357.93,3518.95C357.92,3515.19 359.39,3510.65 356,3507.98C354.52,3506.3 353.61,3503.56 351.02,3503.99L350.97,3503.04C348.62,3503.81 341.84,3500.48 342.05,3504.02M365.01,3515L364,3515C364.07,3517.81 364.2,3523.44 364.27,3526.26C363.55,3532.35 363.99,3538.48 364.29,3544.7C365.05,3548.66 370.91,3548.71 371.69,3544.73C373.13,3534.88 372.9,3523.15 381.18,3516.14C384,3515.07 386.5,3517.01 387.34,3519.66C386.47,3526.81 387.08,3533.99 387.28,3541.26C387.24,3542.63 387.15,3545.39 387.1,3546.76C391.26,3550.35 396.89,3544.59 394.98,3540C394.59,3530.68 396.48,3521 392.84,3512.18C389.91,3507.66 383.67,3506.22 378.96,3508.98C376.22,3509.59 374.86,3512.87 371.98,3513.07C373.06,3509.6 374.34,3504.16 369.94,3503.01C363.98,3502.88 364.99,3511.2 365.01,3515M172.32,3518.03C168.83,3520.32 166.66,3526.4 170.76,3529.24C174.61,3533.08 182.21,3529.8 182.67,3524.7C183.68,3521.81 181.12,3519.16 178.68,3518.06C178.25,3516.11 172.78,3516.13 172.32,3518.03M217.03,3520.04L216.06,3520.01C215.81,3525.08 216.03,3530.04 216.26,3535.26C215.59,3539.35 217.19,3543.57 217.24,3547.74C218.62,3550.18 221.89,3548.68 223.86,3547.8C224.05,3546.17 224.01,3544.55 224,3543L224.98,3542.98C225.16,3538.52 224.95,3534.02 224.73,3529.75C225.01,3525.74 225.95,3521.04 223.29,3517.72C221.44,3515.72 217.47,3517.43 217.03,3520.04M261.02,3519.98C257.57,3521.05 261.44,3529.17 260.27,3532.26C259.64,3537.07 260.01,3541.79 260.18,3546.74C261.73,3550.4 267.01,3548.46 267.1,3545.02C268.96,3538.51 267.71,3531.55 267.97,3524.99C268.85,3521.49 267.51,3519.51 265.83,3517.09C263.71,3516.49 260.37,3517.02 261.02,3519.98M1031.35,3519.41C1023.57,3521.65 1016.08,3524.89 1009.3,3529.34C1005.21,3535.43 999.64,3540.23 995.36,3546.3C994.55,3549.8 992.22,3553.51 993.76,3557.11C994.29,3560.8 999.53,3561.73 1002.35,3560.41C1007.72,3557.76 1009.21,3551.31 1013.52,3547.5C1018.23,3540.08 1026.71,3535.32 1035.33,3534.34C1040.07,3532.7 1040.8,3527.42 1041,3523.06C1039.57,3519.47 1035.17,3517.33 1031.35,3519.41M1318.3,3525.27C1315.98,3526.58 1313.73,3528.03 1311.49,3529.5C1306.51,3534.64 1299.47,3536.75 1293.45,3540.39C1290.7,3543.73 1285.96,3544.8 1283.62,3548.58C1277,3552.05 1272.68,3560.45 1276.78,3567.26C1279.39,3569.64 1284.53,3569.72 1286.56,3566.62C1288.01,3563.74 1291.27,3562.45 1293.7,3560.7C1296.97,3555.42 1303.57,3553.92 1308.25,3550.27C1311.67,3547.6 1315.96,3546.01 1319.16,3543.18C1320.57,3540.24 1323.85,3539.22 1325.75,3536.74C1325.75,3533.61 1327.45,3531.21 1326.88,3528.21C1324.26,3526.67 1321.88,3523.56 1318.3,3525.27M642.28,3539.19C638.76,3541.9 637.15,3546.09 634.71,3549.71C631.33,3555.66 626.1,3560.76 624.55,3567.64C621.28,3571.09 622.48,3578.28 627.3,3579.72C631.35,3581.05 635.34,3578.38 636.7,3574.72C640.92,3566.77 645.57,3559.09 650.63,3551.67C652.99,3548.8 651.68,3544.58 651.77,3541.38C649.03,3539.43 645.95,3537.45 642.28,3539.19M241.23,3550.42C239.54,3550.85 237.87,3551.43 236.29,3552.24C234.72,3555.66 235.03,3560.62 239.04,3561.98C243.51,3564.28 244.79,3560.42 246.73,3557.97C247.07,3558.56 247.74,3559.75 248.08,3560.34C247.43,3562.92 253.29,3562.78 253.66,3561.09C255.49,3558.9 258.84,3556.83 256.82,3553.26C255.01,3550.14 249.76,3549.5 247.75,3552.78C245.61,3555.6 243.88,3549.61 241.23,3550.42M314.01,3552L313.98,3552.97C310.93,3552.15 309.78,3555.25 308.07,3557.08C306.81,3559.54 304.72,3561.99 305.01,3564.94C306.21,3568.42 310.57,3570.45 313.66,3567.73C313.91,3564.26 318.55,3559.5 321.3,3563.7C325.83,3567.02 320.62,3572.72 316.32,3572.44C311.95,3571.46 307.42,3571.99 303.01,3572.01L302.98,3573C297.44,3573.19 291.84,3576.57 290.14,3582.08C289.58,3585.56 286.9,3587.78 283.96,3589.4C281.83,3588.54 279.12,3588.44 277.03,3589.41C275.07,3587.06 272.56,3583.94 274.96,3581C276.11,3573.45 287.56,3572.89 286.99,3565.06C285.56,3560.05 278.77,3562.02 275.96,3564.96C268.51,3570.6 263.66,3580.22 265.25,3589.7C267.49,3593.25 269.7,3597.73 274.04,3598.98C275.26,3602.08 282.95,3598.67 285.99,3599.99L286.02,3599.01C289.26,3598.54 292,3596.19 294.95,3594.94C297.85,3590.79 297.72,3583.85 303.68,3582.69C308.09,3583.34 312.56,3582.79 317,3583L317,3581.99C319.08,3582.07 321.17,3581.94 323.25,3581.8L322.97,3582.86C335.96,3583.25 348.98,3582.85 361.99,3582.98L362.01,3582.01C366.93,3582.02 367.21,3573.28 362.94,3571.96L363.03,3571.02C353.09,3570.82 343.15,3571.16 333.22,3570.88C333.05,3570.35 332.71,3569.28 332.54,3568.75C334.01,3562.27 330.2,3555.21 323.96,3553.01C321.47,3552.75 316.5,3552.25 314.01,3552M357.17,3552.09C352.21,3557 356.84,3564.3 361.98,3567.03C367.7,3570.52 373.94,3573.21 379.94,3576.15C380.51,3578.63 377.1,3578.42 375.69,3579.66C369.11,3583.91 361.42,3587.35 356.1,3593.11C353.83,3596.18 355.83,3599.82 359.05,3600.99C363.94,3600.58 367.43,3596.84 371.28,3594.28C379.46,3589.43 387.36,3584.23 395.78,3579.83C398.68,3576.08 395.92,3569.71 391.1,3569.78C382.95,3565.83 374.18,3562.6 366.74,3557.26C364.18,3554.68 361.23,3551.04 357.17,3552.09M804.14,3562.07C803.95,3564.32 800.9,3564.4 800.65,3566.68C800.19,3574.19 794.63,3579.81 793.2,3587.07C792.57,3596.68 786.21,3604.73 785.14,3614.09C783.46,3618.68 779.82,3622.37 777.84,3626.9C774.47,3631.27 774.34,3637.39 770.37,3641.33C769.05,3650.65 761.73,3657.09 756.14,3664.2C756.01,3661.47 755.75,3656.02 755.62,3653.3C756.12,3650.52 756.15,3647.7 755.84,3644.96L754.66,3645.29C754.44,3642.46 756.85,3635.7 754,3634.97C754.28,3631.29 750.86,3628.63 748.8,3626.12C742.89,3624.83 739,3630.36 737.04,3635.05C738.17,3637.24 737.05,3638.81 735.39,3640.32C733.24,3646.13 731.26,3652 728.72,3657.71C727.53,3666.05 721.84,3672.62 719.62,3680.67C716.28,3683.75 715.11,3688.22 713.31,3692.3C711.07,3697.18 706.24,3700.47 704.55,3705.64C699.77,3712.03 695.03,3718.83 687.93,3722.89C679.8,3727.39 672.37,3733.2 665.76,3739.72C656.82,3743.92 651.37,3752.95 645.49,3760.48C642.54,3763.19 641.02,3766.94 639.61,3770.67C635.43,3774.7 633.26,3780.39 632.06,3785.98C629.95,3785.55 631.38,3788.77 630.97,3790L630.08,3790.03C629.91,3795.1 629.22,3800.1 629.31,3805.26C627.53,3809.14 628.99,3812.95 629.91,3816.83C619.08,3823.78 611.4,3834.51 604.37,3845.28C603.4,3849.59 601.88,3853.58 601.05,3858.04C600,3868.35 603.7,3878.82 610.08,3886.9C618.49,3894.11 628.53,3900.12 640,3900.01L640,3901.01C642.82,3900.93 648.46,3900.79 651.28,3900.71C656.41,3902.29 662.07,3902.21 666.68,3905.36C669.9,3907.39 672.47,3903.44 675.02,3902.03C683.4,3897.74 688.98,3889.99 695.77,3883.77C699.15,3879.11 701.84,3873.96 705.71,3869.75C708.63,3869.66 712.53,3868.48 714.74,3871.1C713.99,3872.92 713.49,3875.22 715.77,3876.2C716.09,3876.62 716.71,3877.46 717.03,3877.87C714.97,3885.09 709.66,3891.27 705.7,3897.7C701.66,3901.71 698.64,3907.16 693.08,3909.16C691.67,3913.17 697.26,3913.97 699.98,3915.01L700.02,3915.98C705.36,3916.02 710.7,3916.01 716.06,3915.93L715.8,3914.84C718.6,3914.88 724.2,3914.96 727,3914.99L727.01,3913.98C755.87,3910.51 782.41,3893.71 799.71,3870.74C801.3,3868.24 801.61,3864.82 804.61,3863.55C803.66,3858.24 809.87,3855.72 808.48,3850.35C811.71,3844.61 810.89,3837.93 812.45,3831.77C812.38,3830.15 811.29,3827.85 813.67,3827.59C815.94,3825.36 813.58,3822.59 813.99,3820.01L814.97,3820C814.98,3817.25 815.01,3811.75 815.02,3809L815.95,3808.98C816.14,3803.99 816.02,3798.86 815.92,3794.02C816.07,3786.61 816.08,3779.24 815.92,3771.94L816.95,3772.02C817.16,3765.24 817.04,3758.4 816.72,3751.74C817.42,3748 814.99,3744.37 816.91,3740.92L817.95,3741.01C817.96,3738.26 817.98,3732.75 817.99,3730L817.01,3730C817.01,3727.96 816.98,3725.96 816.97,3724C819.57,3723.1 816.97,3716.94 817.75,3714.75C818.23,3711.34 816.79,3708.18 818.07,3704.85C819.78,3703.95 819.84,3698.9 818,3698.15C819.98,3688.21 818.04,3677.91 819.94,3667.99C819.87,3666.58 819.16,3665.37 819.04,3664.07C824.01,3659.74 831.04,3650.26 823.75,3645.14L824,3644.21C820.23,3644.94 821.01,3641.52 820.93,3638.97C820.27,3636.62 823.2,3629.75 820,3630C820,3629.25 819.98,3627.75 819.98,3627.01L820.96,3626.99C821.15,3623.62 820.86,3619.88 820.75,3616.74C821,3615.54 820.97,3614.39 820.65,3613.31C821.1,3610.42 821.17,3607.59 820.85,3604.83L821.95,3605.06C821.9,3602.23 821.81,3596.58 821.76,3593.75C822.56,3585.15 820.49,3576.51 820.49,3568C821.35,3566.12 822.14,3562.03 820.01,3561.13C819.95,3557.71 817.11,3554.89 813.95,3554.01C809.19,3554.31 805.39,3557.47 804.14,3562.07M181.31,3556.29C171.02,3560.77 164.09,3572.03 166.58,3583.33C168.7,3590.2 174.06,3595.88 181.05,3597.98L181.01,3598.95C185.34,3599.16 189.67,3598.83 194.01,3598.97L193.96,3598C201.07,3595.25 205.02,3588.31 209.92,3582.96C210.44,3582.97 211.47,3583 211.98,3583.01L212.01,3583.98C217.34,3584.01 222.67,3584.01 228,3583.99L228,3583.02C229.11,3582.51 232.4,3583.98 231.94,3582.05C234.76,3583.23 236.39,3587.16 239.98,3587L240.03,3587.95C242.44,3587.51 247.07,3589.18 248.03,3587.02C258.39,3584.96 266.94,3574.01 265.87,3563.23C263.97,3560.84 261.09,3559.56 258.27,3561.22C257.52,3567.88 253.39,3573.39 247.65,3576.68C240.09,3579.93 243.91,3575.68 244.01,3572.99C244.19,3569.82 241.09,3567.45 238.06,3568C235.76,3569.34 233.54,3570.83 231.22,3572.18C224.5,3571.71 217.73,3571.97 211,3572.01L211,3572.97C202.01,3572.84 198.18,3583.3 192.03,3588.04C189.25,3587.88 186.45,3587.88 183.69,3588.32C180.13,3586.54 176.59,3582.99 175.97,3579C177.32,3573.02 180.84,3567.07 186.79,3564.8C191.07,3561.66 186.58,3553.25 181.31,3556.29M187.2,3570.14C185.39,3572.67 181.38,3575.71 183.92,3579.04C186.02,3583.85 193.86,3581.78 194.03,3577.02C196.62,3572.12 190.87,3569.26 187.2,3570.14M306.28,3587.2C303.91,3589.39 300.95,3591.58 303.41,3595.65C303.98,3604.37 321.26,3598.5 316.41,3590.65C315.05,3586.25 310.07,3586.31 306.28,3587.2M211.98,3590.02C208.51,3591.16 207.57,3598.14 212.03,3598.91C212.74,3601.27 216.87,3600.29 218.95,3599.97C219.39,3600.16 220.29,3600.55 220.73,3600.75C223.81,3600.03 228.13,3602.29 230.04,3599.01C233.73,3596.84 231.55,3591 227.96,3590.01L227.99,3589.07C223.58,3588.84 219.14,3588.88 214.76,3588.45C213.78,3588.54 211.94,3588.6 211.98,3590.02M329,3588.02L329,3588.99C327.5,3589 324.49,3589.02 322.99,3589.04L323.06,3590.02C320.05,3591.22 320,3598.22 324.04,3598.98L324.01,3599.94C330.33,3600.15 336.66,3599.88 343,3599.98L343,3599.01C343.46,3598.98 344.37,3598.94 344.83,3598.91C345.11,3596.09 348,3590.64 343.96,3590.01C343.72,3589.76 343.25,3589.25 343.01,3589L342.98,3588.05C338.32,3587.85 333.65,3587.85 329,3588.02M1162.3,3600.24C1157.95,3602.76 1154.5,3606.58 1150.07,3609.05C1147.8,3611.49 1144.65,3614.27 1144.97,3617.98C1143.09,3623.56 1149.64,3628.22 1154.64,3625.72C1160.74,3620.45 1168.7,3616.53 1171.43,3608.36C1174.16,3603.26 1166.93,3598 1162.3,3600.24M394.15,3617.2C395.65,3620.56 393.1,3626.19 397.67,3627.36C403.95,3629.06 413.99,3631.96 418.07,3624.95L418.98,3624.99C418.52,3621.54 421.14,3615.16 416.16,3614.84C415.62,3614.62 414.55,3614.2 414.01,3613.99C407.63,3614.63 399.13,3611.94 394.15,3617.2M234.23,3627.24C231.83,3630.89 227.07,3633.57 227.43,3638.64C226.58,3641.55 226.69,3646.96 230.16,3648.04C230.94,3649.82 236.06,3649.82 236.84,3648.04C240.35,3646.62 241.39,3641.67 243.91,3638.94C247.08,3635.31 246.16,3630.39 244.71,3626.3C241.61,3623.81 236.67,3623.88 234.23,3627.24M1010.08,3656.08C1005.66,3657 1009.5,3663.5 1008.1,3666.05L1009.06,3665.75C1011.15,3669.95 1019.49,3671.95 1021.89,3667.97C1022.19,3667.73 1022.78,3667.25 1023.08,3667.01C1027.49,3668.13 1027.16,3662.8 1027.99,3659.99C1028.24,3655.31 1022.51,3653.92 1018.79,3655.17C1015.97,3653.21 1012.55,3653.98 1010.08,3656.08M908.3,3690.24C907.8,3692.79 906.86,3695.31 906.97,3697.99L906.03,3698.02C906.74,3700.25 903.79,3707.56 907.16,3706.74C906.85,3709.1 906.26,3713.63 910.07,3712.95C913.83,3716.92 918.12,3713.05 920.86,3709.81C920.9,3707.11 920.98,3701.7 921.02,3699L921.96,3698.98C921.25,3696.66 924.19,3689.63 920.98,3690.04C918.9,3684.35 911.29,3686.25 908.3,3690.24M447.35,3690.49C439.6,3692.28 432.08,3695 424.3,3696.29C421.84,3696.78 415.08,3693.46 414.99,3697.06C411.36,3698.04 407.07,3697.42 404.16,3700.18C402.14,3700.49 402.47,3705.17 402.19,3707.31C402.71,3712.72 411.93,3713.97 416.3,3712.46C431.57,3712.7 445.25,3705.59 460.02,3703.03C461.16,3702.75 461.79,3702.06 461.92,3700.98L462.79,3700.9C462.57,3698.55 465.58,3693.64 462.97,3693.04C462.49,3690.87 459.86,3689.77 457.96,3689.01C454.51,3690.03 450.91,3690.16 447.35,3690.49M1272.3,3692.27C1266.07,3694.24 1267.26,3701.92 1267.7,3706.94C1266.78,3709.15 1269.04,3710.8 1268.99,3712.98C1267.37,3720.34 1269.62,3728.45 1265.04,3735.03C1263.37,3739.85 1260.73,3747.42 1266.25,3750.79C1273.25,3753.08 1278.54,3746.72 1278.37,3740.3C1282.86,3734.17 1281.86,3726.09 1282.62,3718.99C1282.62,3710.68 1282.1,3702.18 1279.84,3694.2C1277.87,3692.63 1274.95,3690.74 1272.3,3692.27M1122.32,3722.29C1112.17,3726.82 1114.87,3738.97 1111.4,3747.31C1109.48,3759.63 1104.32,3771.05 1101.16,3783.08C1100.96,3788.19 1106.67,3794.05 1111.73,3790.68C1116.25,3786.59 1117.67,3780.38 1119.83,3774.93C1118.79,3770.87 1123.01,3768.06 1121.51,3764.22C1123.3,3757.12 1126.82,3750.67 1127.4,3743.25C1125.89,3738.06 1130.95,3733.84 1130.6,3728.69C1133.47,3723.57 1125.83,3720.62 1122.32,3722.29M542.3,3746.32C540.94,3746.89 539.61,3747.55 538.3,3748.29C538.31,3752.02 535.42,3754.47 533.29,3757.26C530.82,3763.28 526.19,3767.89 524,3774C522.48,3778.97 518.24,3782.72 518.34,3788.3C516.64,3793.27 513.54,3800.29 519.25,3803.79C527.98,3806.47 530.62,3796.03 532.11,3790.04C534.04,3786.48 536.07,3782.94 537.02,3778.99C541.8,3770.32 549.98,3762.57 549.92,3752.04C549.16,3748.9 545.5,3745.61 542.3,3746.32M235.6,3757.23C232.33,3757.54 229.21,3758.8 226.23,3760.22C226.67,3763.29 224.69,3764.89 222.2,3766.21C216.4,3778.61 201.99,3783.07 189.67,3785.66C186.66,3787.04 183.14,3790.47 184.69,3794.09C183.03,3799.19 189.84,3804.11 194.01,3801C203.18,3797.48 213.48,3795.9 221.11,3789.15C225.69,3787.15 227.45,3782.14 231.68,3779.75C232.56,3774.12 240.51,3771.84 239.61,3765.71C241.84,3761.38 239.07,3758.58 235.6,3757.23M1369.26,3809.42C1364.9,3810.73 1360.08,3812.38 1357.37,3816.28C1357.06,3818.31 1355.71,3819.81 1354.36,3821.3C1353.66,3824.56 1353.09,3828.05 1350.37,3830.32C1348.96,3833.83 1347.09,3839.42 1351.3,3841.68C1355.52,3845 1360.99,3841.08 1363.32,3837.3C1366.86,3832.66 1367.22,3825.62 1372.75,3822.74C1376.69,3820.67 1374.26,3815.26 1374.99,3812.04C1373.56,3811.39 1370.69,3810.07 1369.26,3809.42M912.48,3828.49C908.74,3831.86 904.45,3834.44 900.35,3837.38C895.5,3843.56 887.65,3846.53 881.67,3851.56C877.61,3852.74 871.42,3854.22 870.93,3859.14C869.19,3859.89 869.09,3865.12 871.03,3865.73C872.26,3866.92 873.65,3867.99 875.26,3868.72C883.82,3867.16 891.6,3863.03 899.26,3859.25C901.49,3855.42 905.73,3853.8 908.82,3850.82C913.91,3845.49 921,3842.28 925.35,3836.32C926.21,3833.66 928.68,3829.09 925.78,3827.21C922.24,3823.56 915.14,3824.35 912.48,3828.49M400.3,3839.28C394.32,3841.92 396.92,3851.05 395.99,3856.17C393.78,3856.92 394.65,3861.11 395.46,3862.97C393.55,3870.85 395.45,3879.03 394.11,3887.01C394.41,3893.47 389.96,3899.14 391.17,3905.73C393.8,3908.72 397.46,3911.4 401.82,3909.95C403.09,3907.78 403.61,3905.32 405.63,3903.67C405.22,3899.69 408.68,3896.88 408.02,3893.01L408.96,3892.98C408.24,3890.62 411.24,3883.73 407.97,3883.99C409.24,3876 410.45,3868.07 409.17,3860.07C410.63,3853.86 412.49,3846.54 409.25,3840.73C407.53,3837.53 402.91,3839.52 400.3,3839.28M1131.84,3889.81C1129.78,3893.99 1122.98,3894.51 1125.99,3900.99L1125.04,3901.03C1125.46,3903.35 1123.76,3908.25 1126.03,3908.95C1126.86,3911.99 1132.73,3910.55 1134.75,3910.85C1138.28,3907.63 1140.19,3902.88 1143.76,3899.79C1149.19,3897.4 1149.29,3888.64 1144.8,3885.14C1140.27,3884.78 1134.62,3885.77 1131.84,3889.81M1274.3,3905.27C1269.51,3906.63 1269.35,3912.05 1267.96,3915.99C1263.94,3925.78 1261.86,3936.43 1256.76,3945.78C1255.09,3950.79 1258.56,3959.87 1265.66,3956.72C1270.16,3954.53 1271.26,3949.69 1272.35,3945.3C1272.6,3941.95 1276.21,3940.44 1276.23,3937.1C1278.62,3929.92 1280.6,3922.53 1282.19,3915.1C1284.15,3910.19 1280.84,3902.72 1274.3,3905.27M552.33,3940.36C550.92,3941.28 549.48,3942.16 548.12,3943.2C545.9,3952.56 552.59,3960.04 554.16,3968.88C556.85,3973.33 566.25,3975.43 568.06,3969.03C570.17,3966.35 568.17,3963.5 567.16,3960.94C569.59,3955.43 561.67,3954.64 563.63,3949.3C561.41,3945.27 557.9,3938.55 552.33,3940.36M293.05,3960.05C287.81,3961.8 289.07,3968.25 285.39,3971.31C284.61,3975.56 281.15,3978.76 279.86,3982.92C277.87,3988.44 273.09,3992.33 268.03,3995C263.76,3997.2 258.23,3995 254.29,3998.04C253.73,3998.32 252.6,3998.88 252.03,3999.16L251.07,3998.97C251.76,4001.4 248.76,4007.78 251.99,4007.96C252.55,4010.06 255.1,4011.18 257.03,4011.98C263.27,4011 269.84,4011.38 275.68,4008.67C279.54,4005.8 283.51,4003.05 287.63,4000.63C290.32,3991.73 295.07,3983.57 299.82,3975.91C299.84,3971.48 306.21,3969.7 302.62,3964.34C302.18,3959.8 296.78,3957.67 293.05,3960.05M985.99,3972.98L985.05,3973.03C985.46,3975.36 983.77,3980.21 986.01,3980.96C987.62,3984.04 991.04,3985.99 992.81,3989.2C999.09,3994.73 1002.16,4003.05 1003.79,4011.09C1003.73,4014.14 1006.95,4015.42 1009.07,4017C1014.84,4017.48 1018.86,4010.42 1017.5,4005.35C1015.95,3996.33 1011.7,3987.94 1006.64,3980.44C1001.84,3975.86 998.02,3969.21 991.05,3968.01C988.91,3968.88 985.69,3970.17 985.99,3972.98M146.22,3981.23C141.13,3998.01 139.23,4015.61 141.78,4033.08C142.83,4037.6 139.99,4043.95 145.17,4046.82C148.6,4050.24 156.46,4047.77 156.05,4042.86C157.84,4042 157.84,4036.93 156.05,4036.15C155.17,4029.49 155.11,4022.53 154.52,4016C155.64,4013.89 155.61,4011.01 154.49,4009C156.12,4005.88 155.6,4002.01 157.04,3999.01C159.27,3995.83 155.97,3992.31 157.99,3989.01L158.95,3988.98C158.53,3986.58 160.22,3981.75 157.99,3981.04C156.48,3975.97 148.82,3977.97 146.22,3981.23M809.33,4030.37C807.32,4031.3 803.54,4031.94 805.49,4035C804.68,4036.73 803.8,4041.05 806.1,4041.72C810.42,4045.8 814.89,4050.03 821,4051.1C821.14,4053.47 830.07,4052.36 828.84,4048.9C832.16,4044.64 830.04,4038.81 825.21,4036.82C819.71,4034.89 815.78,4028.65 809.33,4030.37M453.08,4059.03C452.81,4059.53 452.28,4060.53 452.01,4061.04L451.05,4061.01C451.46,4063.34 449.78,4068.2 452.01,4068.95C455.43,4074.21 460.66,4078.34 465.56,4082.32C467.43,4085.79 471.8,4086.79 474,4090C476.63,4093.89 482.71,4096.5 486.23,4092.26C490.53,4086.3 485.89,4079.02 480.71,4075.34C473.23,4070.55 468.79,4062.06 460.93,4057.9C460.45,4056.01 453.44,4055.37 453.08,4059.03M635.23,4062.43C631.81,4062.95 627.89,4065.57 629.99,4070C628.55,4073.12 631.02,4075.98 632.61,4078.34C635.99,4086.6 637.62,4095.39 637.53,4104.35C637.23,4108.8 641.66,4116.51 646.93,4113.92C653.23,4112.64 651.95,4103.94 651.48,4099.35C649.4,4091.92 650.59,4083.88 647.46,4076.76C646.18,4070.54 641.86,4063.55 635.23,4062.43M1314.29,4078.24C1308.91,4080.88 1309.45,4087.77 1307.67,4092.69C1303.17,4096.78 1304.54,4103.89 1300.82,4108.76C1298.91,4109 1296.97,4109.21 1295.28,4110.22C1294.34,4114.37 1292.09,4120.78 1297.68,4122.35C1302.74,4125.8 1308.01,4121.79 1312.76,4119.77C1315.1,4112.68 1315.73,4104.61 1320.59,4098.62C1321.73,4092.86 1323.48,4087.11 1322.87,4081.23C1320.7,4079.05 1317.64,4076.8 1314.29,4078.24M1118.18,4084.79C1115.65,4084.38 1114.72,4087.12 1114.08,4089.05C1113.72,4094.98 1114.02,4100.92 1114.04,4107.01C1115.45,4109.82 1112.64,4117.15 1117.17,4118.04C1117.93,4119.82 1123.05,4119.82 1123.83,4118.04C1125.6,4117.75 1126.59,4115.76 1127.4,4114.35C1130.4,4108.07 1127.2,4101.37 1128.94,4095.07C1127.05,4092.15 1127.17,4087.34 1123.78,4085.88C1123.88,4083.35 1118.94,4083 1118.18,4084.79M360.29,4101.33C354.99,4101.83 353.95,4109.82 356.3,4113.72C359.05,4118.16 365.81,4117.66 368.7,4113.72C372.44,4108.32 366.89,4099.41 360.29,4101.33Z" style="fill:rgb(53,158,104);fill-rule:nonzero;"/>
        <path d="M343.27,3434.27C345.76,3433.62 348.27,3433.58 350.78,3434.18C352.63,3435.21 354.52,3436.23 356.18,3437.61C354.43,3439.26 356.32,3442.01 356.47,3444.09C355.84,3445.45 354.96,3446.77 353.73,3447.74C344.4,3451.27 334.24,3451.68 325.34,3456.36C318.4,3458.6 309.35,3462.87 302.96,3457.05C302.9,3455.23 302.77,3451.59 302.71,3449.77C304,3445.13 310.57,3445.71 314.02,3443.93C323.54,3439.98 333.43,3437.24 343.27,3434.27Z" style="fill:rgb(248,182,88);fill-rule:nonzero;"/>
        <path d="M109.86,3714.74C113.65,3712.63 116.82,3709.47 120.98,3708.17C123.81,3709.08 127.12,3709.55 129.14,3711.96C128.96,3715.39 127.88,3718.74 128.17,3722.24C127.57,3722.97 126.82,3723.51 125.92,3723.87C117.12,3725.94 111.96,3734.64 103.47,3737.49C102.49,3739.73 101.94,3742.59 99.16,3743.3C98.93,3735.15 98.87,3727.07 99.03,3719.01C102.43,3717.1 106.24,3715.97 109.86,3714.74Z" style="fill:rgb(248,182,88);fill-rule:nonzero;"/>
        <path d="M651.76,3434.19C658.77,3433.92 665.84,3433.75 672.87,3434.09C678.78,3442.06 686.75,3451.54 683.07,3462.02C678.12,3466.68 669.01,3461.79 668.75,3455.14C663.98,3447.54 659.5,3439.25 651.76,3434.19Z" style="fill:rgb(246,182,87);fill-rule:nonzero;"/>
        <path d="M877.13,3434.07C882.06,3433.83 887.06,3433.85 892.03,3434.07C890.34,3439.89 890.06,3446 889.13,3452C889.91,3456.28 887.06,3459.59 884.54,3462.54C882.14,3463.65 878.42,3465.36 876.66,3462.33C871.52,3459.1 875.36,3453.45 875.82,3449.01C874.5,3443.98 876.79,3439.05 877.13,3434.07Z" style="fill:rgb(247,182,87);fill-rule:nonzero;"/>
        <path d="M132.65,3463.53C137.18,3462.52 141.08,3459.22 146,3459.99C149.7,3460.52 155.52,3458.51 158.22,3461.93C158.75,3465.1 159.02,3468.58 159.06,3471.91C156.45,3474.89 150.74,3476.27 146.71,3475.32C143.53,3474.37 141.15,3477.95 137.98,3477.89C132.62,3477.81 129.17,3482.15 124.32,3483.42C120.11,3484.7 116.74,3488.21 112.22,3488.6C108.64,3487.28 102.68,3485.31 105.14,3480.07C106.16,3472.83 114.7,3470.73 120.65,3468.59C124.05,3465.77 128,3463.18 132.65,3463.53Z" style="fill:rgb(247,182,87);fill-rule:nonzero;"/>
        <path d="M1272.3,3692.27C1274.95,3690.74 1277.87,3692.63 1279.84,3694.2C1282.1,3702.18 1282.62,3710.68 1282.62,3718.99C1281.86,3726.09 1282.86,3734.17 1278.37,3740.3C1278.54,3746.72 1273.25,3753.08 1266.25,3750.79C1260.73,3747.42 1263.37,3739.85 1265.04,3735.03C1269.62,3728.45 1267.37,3720.34 1268.99,3712.98C1269.04,3710.8 1266.78,3709.15 1267.7,3706.94C1267.26,3701.92 1266.07,3694.24 1272.3,3692.27Z" style="fill:rgb(247,182,87);fill-rule:nonzero;"/>
        <path d="M1122.32,3722.29C1125.83,3720.62 1133.47,3723.57 1130.6,3728.69C1130.95,3733.84 1125.89,3738.06 1127.4,3743.25C1126.82,3750.67 1123.3,3757.12 1121.51,3764.22C1123.01,3768.06 1118.79,3770.87 1119.83,3774.93C1117.67,3780.38 1116.25,3786.59 1111.73,3790.68C1106.67,3794.05 1100.96,3788.19 1101.16,3783.08C1104.32,3771.05 1109.48,3759.63 1111.4,3747.31C1114.87,3738.97 1112.17,3726.82 1122.32,3722.29Z" style="fill:rgb(247,182,87);fill-rule:nonzero;"/>
        <path d="M912.48,3828.49C915.14,3824.35 922.24,3823.56 925.78,3827.21C928.68,3829.09 926.21,3833.66 925.35,3836.32C921,3842.28 913.91,3845.49 908.82,3850.82C905.73,3853.8 901.49,3855.42 899.26,3859.25C891.6,3863.03 883.82,3867.16 875.26,3868.72C873.65,3867.99 872.26,3866.92 871.03,3865.73C871.01,3864.08 870.95,3860.79 870.93,3859.14C871.42,3854.22 877.61,3852.74 881.67,3851.56C887.65,3846.53 895.5,3843.56 900.35,3837.38C904.45,3834.44 908.74,3831.86 912.48,3828.49Z" style="fill:rgb(247,182,87);fill-rule:nonzero;"/>
        <path d="M1231.16,3434.09C1238.52,3433.84 1245.92,3433.76 1253.3,3434.3C1246.84,3436.88 1243.79,3443.37 1239.16,3448.17C1236.78,3452.4 1230.2,3452.08 1226.94,3448.98C1226.98,3445.33 1227.46,3442.26 1227.87,3438.82C1229.07,3437.29 1230.13,3435.69 1231.16,3434.09Z" style="fill:rgb(246,182,88);fill-rule:nonzero;"/>
        <path d="M1031.35,3519.41C1035.17,3517.33 1039.57,3519.47 1041,3523.06C1040.8,3527.42 1040.07,3532.7 1035.33,3534.34C1026.71,3535.32 1018.23,3540.08 1013.52,3547.5C1009.21,3551.31 1007.72,3557.76 1002.35,3560.41C999.53,3561.73 994.29,3560.8 993.76,3557.11C992.22,3553.51 994.55,3549.8 995.36,3546.3C999.64,3540.23 1005.21,3535.43 1009.3,3529.34C1016.08,3524.89 1023.57,3521.65 1031.35,3519.41Z" style="fill:rgb(246,182,88);fill-rule:nonzero;"/>
        <path d="M1318.3,3525.27C1321.88,3523.56 1324.26,3526.67 1326.88,3528.21C1327.45,3531.21 1325.75,3533.61 1325.75,3536.74C1323.85,3539.22 1320.57,3540.24 1319.16,3543.18C1315.96,3546.01 1311.67,3547.6 1308.25,3550.27C1303.57,3553.92 1296.97,3555.42 1293.7,3560.7C1291.27,3562.45 1288.01,3563.74 1286.56,3566.62C1284.53,3569.72 1279.39,3569.64 1276.78,3567.26C1272.68,3560.45 1277,3552.05 1283.62,3548.58C1285.96,3544.8 1290.7,3543.73 1293.45,3540.39C1299.47,3536.75 1306.51,3534.64 1311.49,3529.5C1313.73,3528.03 1315.98,3526.58 1318.3,3525.27Z" style="fill:rgb(246,182,88);fill-rule:nonzero;"/>
        <path d="M1162.3,3600.24C1166.93,3598 1174.16,3603.26 1171.43,3608.36C1168.7,3616.53 1160.74,3620.45 1154.64,3625.72C1149.64,3628.22 1143.09,3623.56 1144.97,3617.98C1144.65,3614.27 1147.8,3611.49 1150.07,3609.05C1154.5,3606.58 1157.95,3602.76 1162.3,3600.24Z" style="fill:rgb(246,182,88);fill-rule:nonzero;"/>
        <path d="M908.3,3690.24C911.29,3686.25 918.9,3684.35 920.98,3690.04C920.92,3692.69 920.98,3696.06 921.02,3699C920.98,3701.7 920.9,3707.11 920.86,3709.81C918.12,3713.05 913.83,3716.92 910.07,3712.95C908.5,3711.17 907.83,3708.91 907.16,3706.74C906.99,3703.48 907.03,3700.96 906.97,3697.99C906.86,3695.31 907.8,3692.79 908.3,3690.24Z" style="fill:rgb(246,182,88);fill-rule:nonzero;"/>
        <path d="M1274.3,3905.27C1280.84,3902.72 1284.15,3910.19 1282.19,3915.1C1280.6,3922.53 1278.62,3929.92 1276.23,3937.1C1276.21,3940.44 1272.6,3941.95 1272.35,3945.3C1271.26,3949.69 1270.16,3954.53 1265.66,3956.72C1258.56,3959.87 1255.09,3950.79 1256.76,3945.78C1261.86,3936.43 1263.94,3925.78 1267.96,3915.99C1269.35,3912.05 1269.51,3906.63 1274.3,3905.27Z" style="fill:rgb(246,182,88);fill-rule:nonzero;"/>
        <path d="M985.99,3972.98C985.69,3970.17 988.91,3968.88 991.05,3968.01C998.02,3969.21 1001.84,3975.86 1006.64,3980.44C1011.7,3987.94 1015.95,3996.33 1017.5,4005.35C1018.86,4010.42 1014.84,4017.48 1009.07,4017C1006.95,4015.42 1003.73,4014.14 1003.79,4011.09C1002.16,4003.05 999.09,3994.73 992.81,3989.2C991.04,3985.99 987.62,3984.04 986.01,3980.96C985.96,3978.19 985.96,3975.53 985.99,3972.98Z" style="fill:rgb(246,182,88);fill-rule:nonzero;"/>
        <path d="M453.08,4059.03C455.67,4058.48 458.26,4057.85 460.93,4057.9C468.79,4062.06 473.23,4070.55 480.71,4075.34C485.89,4079.02 490.53,4086.3 486.23,4092.26C482.71,4096.5 476.63,4093.89 474,4090C471.8,4086.79 467.43,4085.79 465.56,4082.32C460.66,4078.34 455.43,4074.21 452.01,4068.95C451.97,4066.2 451.98,4063.56 452.01,4061.04C452.28,4060.53 452.81,4059.53 453.08,4059.03Z" style="fill:rgb(246,182,88);fill-rule:nonzero;"/>
        <path d="M356.47,3444.09C356.32,3442.01 354.43,3439.26 356.18,3437.61C358.03,3439.12 358.12,3441.28 356.47,3444.09Z" style="fill:rgb(172,170,95);fill-rule:nonzero;"/>
        <path d="M1226.94,3448.98C1223.53,3446.4 1225.2,3441.25 1227.87,3438.82C1227.46,3442.26 1226.98,3445.33 1226.94,3448.98Z" style="fill:rgb(160,169,95);fill-rule:nonzero;"/>
        <path d="M302.96,3457.05C299.68,3455.92 302.31,3451.96 302.71,3449.77C302.77,3451.59 302.9,3455.23 302.96,3457.05Z" style="fill:rgb(150,169,93);fill-rule:nonzero;"/>
        <path d="M450.01,3464.05C451.74,3459.69 457.52,3458.51 461.74,3459.28C465.78,3459.83 469.9,3459.97 474.01,3460C478.53,3459.49 482.35,3462.65 485.3,3465.75C490.48,3465.93 497.7,3464.85 500.87,3470.16C503.29,3472.56 500.94,3475.92 500.69,3478.76C498.15,3482.46 493.27,3482.32 489.25,3481.74C485.52,3481.05 481.77,3480.81 478,3481.01C476.73,3481.01 475.48,3480.94 474.25,3480.8C472.15,3479.83 470.13,3478.74 467.98,3477.97C465.4,3477.42 468.96,3469.83 462.09,3474.72C460.51,3474.38 458.88,3473.55 457.32,3474.4C454.88,3475.58 451.22,3473.79 450.02,3471.92C449.98,3469.2 449.98,3466.57 450.01,3464.05Z" style="fill:rgb(248,182,87);fill-rule:nonzero;"/>
        <path d="M293.05,3960.05C296.78,3957.67 302.18,3959.8 302.62,3964.34C306.21,3969.7 299.84,3971.48 299.82,3975.91C295.07,3983.57 290.32,3991.73 287.63,4000.63C283.51,4003.05 279.54,4005.8 275.68,4008.67C269.84,4011.38 263.27,4011 257.03,4011.98C255.1,4011.18 252.55,4010.06 251.99,4007.96C252.05,4007.53 252.17,4006.66 252.23,4006.23C253.16,4003.58 254.86,4000.91 254.29,3998.04C258.23,3995 263.76,3997.2 268.03,3995C273.09,3992.33 277.87,3988.44 279.86,3982.92C281.15,3978.76 284.61,3975.56 285.39,3971.31C289.07,3968.25 287.81,3961.8 293.05,3960.05Z" style="fill:rgb(248,182,87);fill-rule:nonzero;"/>
        <path d="M146.22,3981.23C148.82,3977.97 156.48,3975.97 157.99,3981.04C158.01,3983.58 158.01,3986.23 157.99,3989.01C155.97,3992.31 159.27,3995.83 157.04,3999.01C155.6,4002.01 156.12,4005.88 154.49,4009C153.53,4010.38 153.22,4014.05 154.52,4016C155.11,4022.53 155.17,4029.49 156.05,4036.15L156.05,4042.86C156.46,4047.77 148.6,4050.24 145.17,4046.82C139.99,4043.95 142.83,4037.6 141.78,4033.08C139.23,4015.61 141.13,3998.01 146.22,3981.23Z" style="fill:rgb(248,182,87);fill-rule:nonzero;"/>
        <path d="M922.99,4122C921.4,4116.46 927.96,4110.03 933.28,4113.7C937.01,4116.24 936.88,4120.95 937.93,4125.06C938.68,4141.31 934.93,4157.4 929.55,4172.65C927.86,4176.51 927.18,4180.98 923.88,4183.93C918.82,4183.89 913.83,4184.18 908.81,4183.89C910.84,4178.63 913.34,4173.59 915.44,4168.37C920.66,4157.56 921.95,4145.51 924.75,4134.01C923,4130.28 922.3,4126.06 922.99,4122Z" style="fill:rgb(248,182,87);fill-rule:nonzero;"/>
        <path d="M461.74,3459.28C464.67,3460.3 472.87,3456.55 474.01,3460C469.9,3459.97 465.78,3459.83 461.74,3459.28Z" style="fill:rgb(138,169,96);fill-rule:nonzero;"/>
        <path d="M158.22,3461.93C162.38,3460.45 159.81,3472.38 159.06,3471.91C159.02,3468.58 158.75,3465.1 158.22,3461.93Z" style="fill:rgb(206,177,91);fill-rule:nonzero;"/>
        <path d="M449.05,3464.01L450.01,3464.05C449.98,3466.57 449.98,3469.2 450.02,3471.92C447.77,3471.27 449.46,3466.32 449.05,3464.01Z" style="fill:rgb(173,170,93);fill-rule:nonzero;"/>
        <path d="M467.98,3477.97C470.13,3478.74 472.15,3479.83 474.25,3480.8C471.57,3481.58 468.95,3480.66 467.98,3477.97Z" style="fill:rgb(160,170,96);fill-rule:nonzero;"/>
        <path d="M478,3481.01C481.77,3480.81 485.52,3481.05 489.25,3481.74C486.44,3481.81 480.81,3481.94 478,3482.01L478,3481.01Z" style="fill:rgb(203,175,93);fill-rule:nonzero;"/>
        <path d="M174.17,3499.09C178.21,3498.14 181.65,3501.38 183.4,3504.7C191.58,3509.76 200.45,3513.86 209.31,3517.65C213.64,3519.04 213.59,3525.76 210.23,3528.2C200.48,3533.93 190.31,3539.19 181.68,3546.62C178.89,3547.25 175.83,3548.83 173.26,3546.74C171.85,3543.7 172.36,3539.27 175.97,3537.94C181.87,3532.49 189.2,3529.05 195.95,3524.84C195.96,3524.41 195.98,3523.54 196,3523.11C188.47,3518.28 178.38,3516.59 173.59,3508.39C170.9,3505.82 171.95,3501.55 174.17,3499.09Z" style="fill:rgb(241,247,216);fill-rule:nonzero;"/>
        <path d="M219.28,3499.28C226.85,3497.78 226.5,3508.79 222.82,3512.93C213.63,3517 212.53,3501.19 219.28,3499.28Z" style="fill:rgb(235,243,211);fill-rule:nonzero;"/>
        <path d="M260.34,3500.97C259.93,3498.35 265.07,3498 265.79,3499.78C263.94,3500.02 262.13,3500.46 260.34,3500.97Z" style="fill:rgb(154,202,162);fill-rule:nonzero;"/>
        <path d="M260.34,3500.97C262.13,3500.46 263.94,3500.02 265.79,3499.78C269.1,3501.68 268.15,3507.18 267.71,3510.73C266.67,3515.14 261.12,3513.57 259.16,3510.77C260.1,3507.75 257.34,3503.25 260.34,3500.97Z" style="fill:rgb(240,246,216);fill-rule:nonzero;"/>
        <path d="M248.22,3503.11C254.19,3500.38 254.66,3506.09 254.01,3509.99C253.99,3513.92 253.99,3517.93 254,3522.01C253.37,3528.89 253.44,3536.49 249.61,3542.58C246.36,3544.79 243.2,3548.04 239.03,3548.02C236.36,3547.92 233.69,3547.91 231.04,3547.98C227.99,3547.67 227.82,3542.52 230.19,3541.11C232.88,3540.58 235.78,3541.5 238.31,3540.32C239.7,3539.42 242.47,3539.41 241.99,3537.19C236.53,3537.14 231.43,3533.42 230.95,3527.86C230.95,3526.18 230.95,3522.82 230.94,3521.14C230.85,3516.34 235.29,3511.56 239.99,3511.03C241.72,3511.01 245.19,3510.96 246.92,3510.94C247,3509.58 247.03,3508.26 247.02,3506.98C247.05,3505.51 246.77,3503.9 248.22,3503.11M241.28,3518.2C237.38,3520.43 237.1,3525.08 239.19,3528.89C241.71,3528.73 246.56,3530.8 246.12,3527.01C247.16,3522.96 248.66,3515.15 241.28,3518.2Z" style="fill:rgb(243,247,217);fill-rule:nonzero;"/>
        <path d="M365.01,3515C364.99,3511.2 363.98,3502.88 369.94,3503.01C374.34,3504.16 373.06,3509.6 371.98,3513.07C374.86,3512.87 376.22,3509.59 378.96,3508.98C383.67,3506.22 389.91,3507.66 392.84,3512.18C396.48,3521 394.59,3530.68 394.98,3540C396.89,3544.59 391.26,3550.35 387.1,3546.76C387.15,3545.39 387.24,3542.63 387.28,3541.26C387.94,3534.12 388.95,3526.56 387.34,3519.66C386.5,3517.01 384,3515.07 381.18,3516.14C372.9,3523.15 373.13,3534.88 371.69,3544.73C370.91,3548.71 365.05,3548.66 364.29,3544.7C363.99,3538.48 363.55,3532.35 364.27,3526.26C364.86,3522.45 365.1,3518.7 365.01,3515Z" style="fill:rgb(243,247,217);fill-rule:nonzero;"/>
        <path d="M261.02,3519.98C260.37,3517.02 263.71,3516.49 265.83,3517.09C267.51,3519.51 268.85,3521.49 267.97,3524.99C267.71,3531.55 268.96,3538.51 267.1,3545.02C267.01,3548.46 261.73,3550.4 260.18,3546.74C260.01,3541.79 259.64,3537.07 260.27,3532.26C260.97,3528.07 260.98,3524.03 261.02,3519.98Z" style="fill:rgb(243,247,217);fill-rule:nonzero;"/>
        <path d="M279.91,3514.91C280.27,3511.54 278.89,3501.95 284.95,3503.02C287.96,3503.67 288.55,3507.11 287.71,3509.75C287.54,3511.03 287.19,3513.6 287.02,3514.88C288.5,3514.93 291.47,3515.03 292.95,3515.08C296.64,3515.35 296.31,3521.07 293.8,3522.06C290.56,3520.71 288.36,3520.95 287.18,3522.8C286.93,3528.09 286.88,3533.45 287.04,3538.87C290.39,3537.74 296.97,3539.33 293.83,3544.74C290.46,3549.32 282.32,3547.67 280.65,3542.34C279.76,3536.63 278.02,3530.4 279.58,3524.71C279.66,3521.99 275.27,3522.89 273.18,3522.84C271.17,3520.66 270.73,3517.17 273.19,3515.15C274.87,3515.09 278.23,3514.97 279.91,3514.91Z" style="fill:rgb(239,246,215);fill-rule:nonzero;"/>
        <path d="M311.98,3503.99C312.1,3500.47 318.56,3503.81 320.99,3503.05L320.97,3504.02C317.94,3503.67 314.98,3504.02 311.98,3503.99Z" style="fill:rgb(161,205,169);fill-rule:nonzero;"/>
        <path d="M342.05,3504.02C341.84,3500.48 348.62,3503.81 350.97,3503.04L351.02,3503.99C348,3503.68 345.04,3504.01 342.05,3504.02Z" style="fill:rgb(159,207,170);fill-rule:nonzero;"/>
        <path d="M299.95,3524.15C300.23,3516.59 303.52,3505.78 311.98,3503.99C314.98,3504.02 317.94,3503.67 320.97,3504.02C328.5,3506.63 330.72,3519.15 323.69,3523.65C322.1,3524.49 320.52,3525.36 318.83,3526.02C317.16,3526.03 313.81,3526.05 312.14,3526.06C309.15,3526.68 303.58,3521.16 306.97,3530.01C306.93,3533.68 308.78,3537.06 311.75,3539.22C315.18,3540.36 318.67,3540.35 322.21,3539.18C324.23,3537.01 326.9,3536.93 328.92,3539.18C331.06,3543.33 327.03,3545.86 323.96,3547C319.64,3546.88 315.34,3546.98 311.04,3546.99C304.21,3544.75 299.19,3538.15 299.95,3530.85L299.95,3524.15M314.27,3511.28C311.74,3512.17 309.87,3514.3 309.09,3516.86C311.51,3519.55 315.91,3516.77 318.77,3517.87C322.35,3515.2 318.17,3509.1 314.27,3511.28Z" style="fill:rgb(242,247,216);fill-rule:nonzero;"/>
        <path d="M330.15,3523.07C331.68,3515.73 333.57,3506.09 342.05,3504.02C345.04,3504.01 348,3503.68 351.02,3503.99C353.61,3503.56 354.52,3506.3 356,3507.98C359.39,3510.65 357.92,3515.19 357.93,3518.95C357.14,3522.78 353.03,3524.32 349.96,3526.03C347.37,3525.88 344.79,3525.79 342.23,3525.76C340.91,3525.59 338.27,3525.24 336.96,3525.07C336.49,3527.53 336.73,3529.94 337.68,3532.29C338.63,3535.14 339.62,3538.07 342.77,3539.19C345.47,3539.78 349.55,3540.92 352.22,3539.17C354.79,3535.45 361,3538.73 359.82,3542.76C358.16,3544.51 356.34,3546.26 353.96,3547C349.96,3546.93 345.96,3546.94 341.97,3547.01C330.81,3545.46 329.47,3531.94 330.15,3523.07M344.29,3511.21C342.83,3513.02 338.03,3515.47 341.2,3517.85C344.67,3518.09 349.76,3519.12 350.99,3515C349.86,3512.54 348.49,3508.18 344.29,3511.21Z" style="fill:rgb(242,247,216);fill-rule:nonzero;"/>
        <path d="M246.04,3508.01C246.29,3507.75 246.78,3507.24 247.02,3506.98C247.03,3508.26 247,3509.58 246.92,3510.94C245.19,3510.96 241.72,3511.01 239.99,3511.03C239.3,3507.02 247.27,3512.53 246.04,3508.01Z" style="fill:rgb(164,209,169);fill-rule:nonzero;"/>
        <path d="M254.01,3509.99L254.99,3510.01C253.81,3512.96 257.09,3520.56 254,3522.01C253.99,3517.93 253.99,3513.92 254.01,3509.99Z" style="fill:rgb(99,178,130);fill-rule:nonzero;"/>
        <path d="M287.02,3514.88C287.19,3513.6 287.54,3511.03 287.71,3509.75C288.34,3512.58 286.8,3516.9 293,3514.12L292.95,3515.08C291.47,3515.03 288.5,3514.93 287.02,3514.88Z" style="fill:rgb(135,195,151);fill-rule:nonzero;"/>
        <path d="M314.27,3511.28C318.17,3509.1 322.35,3515.2 318.77,3517.87C315.91,3516.77 311.51,3519.55 309.09,3516.86C309.87,3514.3 311.74,3512.17 314.27,3511.28Z" style="fill:rgb(75,166,116);fill-rule:nonzero;"/>
        <path d="M344.29,3511.21C348.49,3508.18 349.86,3512.54 350.99,3515C349.76,3519.12 344.67,3518.09 341.2,3517.85C338.03,3515.47 342.83,3513.02 344.29,3511.21Z" style="fill:rgb(74,165,115);fill-rule:nonzero;"/>
        <path d="M364,3515L365.01,3515C365.1,3518.7 364.86,3522.45 364.27,3526.26C364.2,3523.44 364.07,3517.81 364,3515Z" style="fill:rgb(144,198,156);fill-rule:nonzero;"/>
        <path d="M172.32,3518.03C172.78,3516.13 178.25,3516.11 178.68,3518.06C177.09,3518.05 173.91,3518.03 172.32,3518.03Z" style="fill:rgb(139,195,154);fill-rule:nonzero;"/>
        <path d="M217.03,3520.04C217.47,3517.43 221.44,3515.72 223.29,3517.72C225.95,3521.04 225.01,3525.74 224.73,3529.75C223.95,3533.99 223.93,3538.55 224,3543C224.01,3544.55 224.05,3546.17 223.86,3547.8C221.89,3548.68 218.62,3550.18 217.24,3547.74C217.19,3543.57 215.59,3539.35 216.26,3535.26C217.14,3530.1 216.98,3525.13 217.03,3520.04Z" style="fill:rgb(244,247,217);fill-rule:nonzero;"/>
        <path d="M172.32,3518.03C173.91,3518.03 177.09,3518.05 178.68,3518.06C181.12,3519.16 183.68,3521.81 182.67,3524.7C182.21,3529.8 174.61,3533.08 170.76,3529.24C166.66,3526.4 168.83,3520.32 172.32,3518.03Z" style="fill:rgb(238,245,213);fill-rule:nonzero;"/>
        <path d="M241.28,3518.2C248.66,3515.15 247.16,3522.96 246.12,3527.01C246.56,3530.8 241.71,3528.73 239.19,3528.89C237.1,3525.08 237.38,3520.43 241.28,3518.2Z" style="fill:rgb(70,163,113);fill-rule:nonzero;"/>
        <path d="M216.06,3520.01L217.03,3520.04C216.98,3525.13 217.14,3530.1 216.26,3535.26C216.03,3530.04 215.81,3525.08 216.06,3520.01Z" style="fill:rgb(145,198,156);fill-rule:nonzero;"/>
        <path d="M336.96,3525.07C338.27,3525.24 340.91,3525.59 342.23,3525.76C340.84,3525.82 339.46,3525.95 338.08,3526.14C337.98,3527.68 337.78,3530.75 337.68,3532.29C336.73,3529.94 336.49,3527.53 336.96,3525.07Z" style="fill:rgb(145,198,156);fill-rule:nonzero;"/>
        <path d="M260.27,3532.26C261.44,3529.17 257.57,3521.05 261.02,3519.98C260.98,3524.03 260.97,3528.07 260.27,3532.26Z" style="fill:rgb(166,209,170);fill-rule:nonzero;"/>
        <path d="M387.34,3519.66C388.95,3526.56 387.94,3534.12 387.28,3541.26C387.08,3533.99 386.47,3526.81 387.34,3519.66Z" style="fill:rgb(130,190,148);fill-rule:nonzero;"/>
        <path d="M230.95,3527.86C229.15,3527.01 229.15,3521.94 230.94,3521.14C230.95,3522.82 230.95,3526.18 230.95,3527.86Z" style="fill:rgb(179,212,175);fill-rule:nonzero;"/>
        <path d="M287.18,3522.8C288.36,3520.95 290.56,3520.71 293.8,3522.06C292.81,3523.9 289.07,3523.13 287.18,3522.8Z" style="fill:rgb(165,209,170);fill-rule:nonzero;"/>
        <path d="M212.03,3598.91C214.8,3598.48 217.11,3598.83 218.95,3599.97C216.87,3600.29 212.74,3601.27 212.03,3598.91Z" style="fill:rgb(165,209,170);fill-rule:nonzero;"/>
        <path d="M299.95,3530.85C298.16,3530.01 298.16,3524.93 299.95,3524.15L299.95,3530.85Z" style="fill:rgb(128,194,149);fill-rule:nonzero;"/>
        <path d="M312.14,3526.06C313.81,3526.05 317.16,3526.03 318.83,3526.02C318.07,3527.84 312.95,3527.8 312.14,3526.06Z" style="fill:rgb(125,187,144);fill-rule:nonzero;"/>
        <path d="M342.23,3525.76C344.79,3525.79 347.37,3525.88 349.96,3526.03C349.18,3528.19 344.34,3526.54 341.97,3526.86L342.23,3525.76Z" style="fill:rgb(121,187,143);fill-rule:nonzero;"/>
        <path d="M224,3543C223.93,3538.55 223.95,3533.99 224.73,3529.75C224.95,3534.02 225.16,3538.52 224.98,3542.98L224,3543Z" style="fill:rgb(103,179,134);fill-rule:nonzero;"/>
        <path d="M311.75,3539.22C315.21,3538.77 318.74,3538.9 322.21,3539.18C318.67,3540.35 315.18,3540.36 311.75,3539.22Z" style="fill:rgb(144,200,159);fill-rule:nonzero;"/>
        <path d="M342.77,3539.19C345.89,3538.76 349.08,3538.91 352.22,3539.17C349.55,3540.92 345.47,3539.78 342.77,3539.19Z" style="fill:rgb(137,196,154);fill-rule:nonzero;"/>
        <path d="M642.28,3539.19C645.95,3537.45 649.03,3539.43 651.77,3541.38C651.68,3544.58 652.99,3548.8 650.63,3551.67C645.57,3559.09 640.92,3566.77 636.7,3574.72C635.34,3578.38 631.35,3581.05 627.3,3579.72C622.48,3578.28 621.28,3571.09 624.55,3567.64C626.1,3560.76 631.33,3555.66 634.71,3549.71C637.15,3546.09 638.76,3541.9 642.28,3539.19Z" style="fill:rgb(247,182,88);fill-rule:nonzero;"/>
        <path d="M394.15,3617.2C399.13,3611.94 407.63,3614.63 414.01,3613.99C414.55,3614.2 415.62,3614.62 416.16,3614.84C418.3,3617.72 417.81,3621.44 418.07,3624.95C413.99,3631.96 403.95,3629.06 397.67,3627.36C393.1,3626.19 395.65,3620.56 394.15,3617.2Z" style="fill:rgb(247,182,88);fill-rule:nonzero;"/>
        <path d="M542.3,3746.32C545.5,3745.61 549.16,3748.9 549.92,3752.04C549.98,3762.57 541.8,3770.32 537.02,3778.99C536.07,3782.94 534.04,3786.48 532.11,3790.04C530.62,3796.03 527.98,3806.47 519.25,3803.79C513.54,3800.29 516.64,3793.27 518.34,3788.3C518.24,3782.72 522.48,3778.97 524,3774C526.19,3767.89 530.82,3763.28 533.29,3757.26C535.42,3754.47 538.31,3752.02 538.3,3748.29C539.61,3747.55 540.94,3746.89 542.3,3746.32Z" style="fill:rgb(247,182,88);fill-rule:nonzero;"/>
        <path d="M235.6,3757.23C239.07,3758.58 241.84,3761.38 239.61,3765.71C240.51,3771.84 232.56,3774.12 231.68,3779.75C227.45,3782.14 225.69,3787.15 221.11,3789.15C213.48,3795.9 203.18,3797.48 194.01,3801C189.84,3804.11 183.03,3799.19 184.69,3794.09C183.14,3790.47 186.66,3787.04 189.67,3785.66C201.99,3783.07 216.4,3778.61 222.2,3766.21C224.69,3764.89 226.67,3763.29 226.23,3760.22C229.21,3758.8 232.33,3757.54 235.6,3757.23Z" style="fill:rgb(247,182,88);fill-rule:nonzero;"/>
        <path d="M400.3,3839.28C402.91,3839.52 407.53,3837.53 409.25,3840.73C412.49,3846.54 410.63,3853.86 409.17,3860.07C410.45,3868.07 409.24,3876 407.97,3883.99C407.88,3886.66 407.98,3890.04 408.02,3893.01C408.68,3896.88 405.22,3899.69 405.63,3903.67C403.61,3905.32 403.09,3907.78 401.82,3909.95C397.46,3911.4 393.8,3908.72 391.17,3905.73C389.96,3899.14 394.41,3893.47 394.11,3887.01C395.45,3879.03 393.55,3870.85 395.46,3862.97C396.2,3860.59 396.37,3858.32 395.99,3856.17C396.92,3851.05 394.32,3841.92 400.3,3839.28Z" style="fill:rgb(247,182,88);fill-rule:nonzero;"/>
        <path d="M809.33,4030.37C815.78,4028.65 819.71,4034.89 825.21,4036.82C830.04,4038.81 832.16,4044.64 828.84,4048.9C826.6,4050.67 823.81,4051.22 821,4051.1C814.89,4050.03 810.42,4045.8 806.1,4041.72C806.45,4039.14 806.25,4036.9 805.49,4035C803.54,4031.94 807.32,4031.3 809.33,4030.37Z" style="fill:rgb(247,182,88);fill-rule:nonzero;"/>
        <path d="M635.23,4062.43C641.86,4063.55 646.18,4070.54 647.46,4076.76C650.59,4083.88 649.4,4091.92 651.48,4099.35C651.95,4103.94 653.23,4112.64 646.93,4113.92C641.66,4116.51 637.23,4108.8 637.53,4104.35C637.62,4095.39 635.99,4086.6 632.61,4078.34C631.02,4075.98 628.55,4073.12 629.99,4070C627.89,4065.57 631.81,4062.95 635.23,4062.43Z" style="fill:rgb(247,182,88);fill-rule:nonzero;"/>
        <path d="M1314.29,4078.24C1317.64,4076.8 1320.7,4079.05 1322.87,4081.23C1323.48,4087.11 1321.73,4092.86 1320.59,4098.62C1315.73,4104.61 1315.1,4112.68 1312.76,4119.77C1308.01,4121.79 1302.74,4125.8 1297.68,4122.35C1292.09,4120.78 1294.34,4114.37 1295.28,4110.22C1296.97,4109.21 1298.91,4109 1300.82,4108.76C1304.54,4103.89 1303.17,4096.78 1307.67,4092.69C1309.45,4087.77 1308.91,4080.88 1314.29,4078.24Z" style="fill:rgb(247,182,88);fill-rule:nonzero;"/>
        <path d="M1114.08,4089.05C1114.72,4087.12 1115.65,4084.38 1118.18,4084.79C1120.05,4085.03 1121.91,4085.47 1123.78,4085.88C1127.17,4087.34 1127.05,4092.15 1128.94,4095.07C1127.2,4101.37 1130.4,4108.07 1127.4,4114.35C1126.59,4115.76 1125.6,4117.75 1123.83,4118.04L1117.17,4118.04C1112.64,4117.15 1115.45,4109.82 1114.04,4107.01C1114.02,4100.92 1113.72,4094.98 1114.08,4089.05Z" style="fill:rgb(247,182,88);fill-rule:nonzero;"/>
        <path d="M239.19,4161.11C245.66,4158.78 249.96,4165.17 248.65,4170.67C246.45,4175.07 243.91,4179.39 241.8,4183.88C236.53,4183.94 231.27,4184.07 226.01,4183.97C228.85,4175.54 233.58,4167.96 239.19,4161.11Z" style="fill:rgb(247,182,88);fill-rule:nonzero;"/>
        <path d="M229.97,3540.09C232.75,3539.85 235.55,3539.88 238.31,3540.32C235.78,3541.5 232.88,3540.58 230.19,3541.11L229.97,3540.09Z" style="fill:rgb(170,212,173);fill-rule:nonzero;"/>
        <path d="M311.04,3546.99C315.34,3546.98 319.64,3546.88 323.96,3547L324.01,3547.97C319.66,3547.84 315.34,3548.16 311.01,3547.95L311.04,3546.99Z" style="fill:rgb(154,206,165);fill-rule:nonzero;"/>
        <path d="M341.97,3547.01C345.96,3546.94 349.96,3546.93 353.96,3547L354.01,3547.97C350.86,3546.66 343.47,3550.07 341.97,3547.01Z" style="fill:rgb(159,205,167);fill-rule:nonzero;"/>
        <path d="M231.04,3547.98C233.69,3547.91 236.36,3547.92 239.03,3548.02C238.06,3550.19 233.42,3548.51 231.01,3548.94L231.04,3547.98Z" style="fill:rgb(133,192,151);fill-rule:nonzero;"/>
        <path d="M241.23,3550.42C243.88,3549.61 245.61,3555.6 247.75,3552.78C249.76,3549.5 255.01,3550.14 256.82,3553.26C258.84,3556.83 255.49,3558.9 253.66,3561.09C251.78,3560.91 249.9,3560.77 248.08,3560.34C247.74,3559.75 247.07,3558.56 246.73,3557.97C244.79,3560.42 243.51,3564.28 239.04,3561.98C235.03,3560.62 234.72,3555.66 236.29,3552.24C237.87,3551.43 239.54,3550.85 241.23,3550.42Z" style="fill:rgb(239,245,214);fill-rule:nonzero;"/>
        <path d="M314.01,3552C316.5,3552.25 321.47,3552.75 323.96,3553.01C320.61,3552.71 317.32,3553.07 313.98,3552.97L314.01,3552Z" style="fill:rgb(163,208,167);fill-rule:nonzero;"/>
        <path d="M357.17,3552.09C361.23,3551.04 364.18,3554.68 366.74,3557.26C374.18,3562.6 382.95,3565.83 391.1,3569.78C395.92,3569.71 398.68,3576.08 395.78,3579.83C387.36,3584.23 379.46,3589.43 371.28,3594.28C367.43,3596.84 363.94,3600.58 359.05,3600.99C355.83,3599.82 353.83,3596.18 356.1,3593.11C361.42,3587.35 369.11,3583.91 375.69,3579.66C377.1,3578.42 380.51,3578.63 379.94,3576.15C373.94,3573.21 367.7,3570.52 361.98,3567.03C356.84,3564.3 352.21,3557 357.17,3552.09Z" style="fill:rgb(241,246,215);fill-rule:nonzero;"/>
        <path d="M308.07,3557.08C309.78,3555.25 310.93,3552.15 313.98,3552.97C317.32,3553.07 320.61,3552.71 323.96,3553.01C330.2,3555.21 334.01,3562.27 332.54,3568.75C332.26,3569.76 332.08,3570.84 331.99,3571.97L331.95,3572.99C334.52,3572.8 339.66,3572.42 342.23,3572.23C343.4,3572.14 344.58,3572.12 345.77,3572.17C350.5,3572.71 355.6,3573.91 360.27,3572.29C360.94,3572.21 362.27,3572.04 362.94,3571.96C367.21,3573.28 366.93,3582.02 362.01,3582.01C349.09,3581.82 336.16,3582.27 323.25,3581.8C320.09,3580.98 316.81,3580.49 313.73,3581.68C310.41,3581.88 306.86,3581.46 303.68,3582.69C297.72,3583.85 297.85,3590.79 294.95,3594.94C292,3596.19 289.26,3598.54 286.02,3599.01C282.02,3598.94 278.02,3598.93 274.04,3598.98C269.7,3597.73 267.49,3593.25 265.25,3589.7C263.66,3580.22 268.51,3570.6 275.96,3564.96C278.77,3562.02 285.56,3560.05 286.99,3565.06C287.56,3572.89 276.11,3573.45 274.96,3581C272.56,3583.94 275.07,3587.06 277.03,3589.41C278.37,3590.74 282.14,3590.68 283.96,3589.4C286.9,3587.78 289.58,3585.56 290.14,3582.08C291.84,3576.57 297.44,3573.19 302.98,3573C307.39,3572.58 311.98,3573.55 316.32,3572.44C320.62,3572.72 325.83,3567.02 321.3,3563.7C318.55,3559.5 313.91,3564.26 313.66,3567.73C310.57,3570.45 306.21,3568.42 305.01,3564.94C304.72,3561.99 306.81,3559.54 308.07,3557.08Z" style="fill:rgb(244,248,218);fill-rule:nonzero;"/>
        <path d="M181.31,3556.29C186.58,3553.25 191.07,3561.66 186.79,3564.8C180.84,3567.07 177.32,3573.02 175.97,3579C176.59,3582.99 180.13,3586.54 183.69,3588.32C186.02,3588.32 190.22,3590.25 192.03,3588.04C198.18,3583.3 202.01,3572.84 211,3572.97C217.59,3572.1 224.95,3574.61 231.22,3572.18C233.54,3570.83 235.76,3569.34 238.06,3568C241.09,3567.45 244.19,3569.82 244.01,3572.99C243.91,3575.68 240.09,3579.93 247.65,3576.68C253.39,3573.39 257.52,3567.88 258.27,3561.22C261.09,3559.56 263.97,3560.84 265.87,3563.23C266.94,3574.01 258.39,3584.96 248.03,3587.02C245.34,3586.92 242.66,3586.91 239.98,3587C236.39,3587.16 234.76,3583.23 231.94,3582.05C224.76,3581.87 217.54,3581.67 210.37,3582.23L209.92,3582.96C205.02,3588.31 201.07,3595.25 193.96,3598C189.65,3597.87 185.35,3597.98 181.05,3597.98C174.06,3595.88 168.7,3590.2 166.58,3583.33C164.09,3572.03 171.02,3560.77 181.31,3556.29Z" style="fill:rgb(244,248,218);fill-rule:nonzero;"/>
        <path d="M212.03,3598.91C207.57,3598.14 208.51,3591.16 211.98,3590.02C217.3,3589.97 222.62,3589.86 227.96,3590.01C231.55,3591 233.73,3596.84 230.04,3599.01C226.99,3600.34 222.97,3597.83 220.73,3600.75C220.29,3600.55 219.39,3600.16 218.95,3599.97C217.11,3598.83 214.8,3598.48 212.03,3598.91Z" style="fill:rgb(244,248,218);fill-rule:nonzero;"/>
        <path d="M804.14,3562.07C805.39,3557.47 809.19,3554.31 813.95,3554.01C817.11,3554.89 819.95,3557.71 820.01,3561.13C819.47,3563.36 819.64,3565.65 820.49,3568C820.49,3576.51 822.56,3585.15 821.76,3593.75C821.23,3596.85 821.01,3600.48 820.73,3603.77C820.19,3606.66 819.45,3610.3 820.65,3613.31C820.97,3614.39 821,3615.54 820.75,3616.74C820.17,3619.93 819.86,3623.62 819.98,3627.01C819.98,3627.75 820,3629.25 820,3630C819.91,3632.7 820.02,3636.06 820,3639.03C819.92,3640.24 819.84,3641.48 819.75,3642.78C818.88,3647.43 818.85,3652.45 819.22,3657.29C819.17,3658.98 819.08,3662.37 819.04,3664.07C819.16,3665.37 819.87,3666.58 819.94,3667.99C818.04,3677.91 819.98,3688.21 818,3698.15C818.02,3699.82 818.05,3703.18 818.07,3704.85C816.79,3708.18 818.23,3711.34 817.75,3714.75C817.23,3717.52 816.9,3720.98 816.97,3724C816.98,3725.96 817.01,3727.96 817.01,3730C816.93,3733.41 817.07,3737.34 816.91,3740.92C814.99,3744.37 817.42,3748 816.72,3751.74C815.75,3757.62 816.13,3763.73 815.77,3769.78C814.42,3777.69 815.21,3785.82 814.92,3793.88L814.82,3794.78C813.42,3803.05 814.05,3811.58 813.99,3820.01C813.58,3822.59 815.94,3825.36 813.67,3827.59C811.29,3827.85 812.38,3830.15 812.45,3831.77C810.89,3837.93 811.71,3844.61 808.48,3850.35C809.87,3855.72 803.66,3858.24 804.61,3863.55C801.61,3864.82 801.3,3868.24 799.71,3870.74C782.41,3893.71 755.87,3910.51 727.01,3913.98C722.92,3914.09 718.69,3913.53 714.72,3914.7C709.78,3914.8 704.89,3915.04 699.98,3915.01C697.26,3913.97 691.67,3913.17 693.08,3909.16C698.64,3907.16 701.66,3901.71 705.7,3897.7C709.66,3891.27 714.97,3885.09 717.03,3877.87C717.86,3875.05 717.64,3872.74 716.35,3870.94C714,3868.28 708.13,3866.35 705.71,3869.75C701.84,3873.96 699.15,3879.11 695.77,3883.77C688.98,3889.99 683.4,3897.74 675.02,3902.03C672.47,3903.44 669.9,3907.39 666.68,3905.36C662.07,3902.21 656.41,3902.29 651.28,3900.71C647.53,3899.99 643.78,3899.75 640,3900.01C628.53,3900.12 618.49,3894.11 610.08,3886.9C603.7,3878.82 600,3868.35 601.05,3858.04C601.88,3853.58 603.4,3849.59 604.37,3845.28C611.4,3834.51 619.08,3823.78 629.91,3816.83C628.99,3812.95 627.53,3809.14 629.31,3805.26C629.98,3802.03 630.88,3799.36 631.26,3796.24C631.79,3792.63 632.07,3789.47 632.06,3785.98C633.26,3780.39 635.43,3774.7 639.61,3770.67C641.02,3766.94 642.54,3763.19 645.49,3760.48C651.37,3752.95 656.82,3743.92 665.76,3739.72C672.37,3733.2 679.8,3727.39 687.93,3722.89C695.03,3718.83 699.77,3712.03 704.55,3705.64C706.24,3700.47 711.07,3697.18 713.31,3692.3C715.11,3688.22 716.28,3683.75 719.62,3680.67C721.84,3672.62 727.53,3666.05 728.72,3657.71C731.26,3652 733.24,3646.13 735.39,3640.32C737.05,3638.81 738.17,3637.24 737.04,3635.05C739,3630.36 742.89,3624.83 748.8,3626.12C750.86,3628.63 754.28,3631.29 754,3634.97C753.95,3638.16 753.6,3642.01 754.66,3645.29C754.86,3647.61 754.92,3650.7 755.62,3653.3C755.75,3656.02 756.01,3661.47 756.14,3664.2C761.73,3657.09 769.05,3650.65 770.37,3641.33C774.34,3637.39 774.47,3631.27 777.84,3626.9C779.82,3622.37 783.46,3618.68 785.14,3614.09C786.21,3604.73 792.57,3596.68 793.2,3587.07C794.63,3579.81 800.19,3574.19 800.65,3566.68C800.9,3564.4 803.95,3564.32 804.14,3562.07M714.96,3773.15L715.28,3774.15C706.02,3777.33 700.19,3787.54 699.98,3797L699.04,3797.02C698.86,3801.68 698.97,3806.17 699.02,3810.99L700,3811.01C703.12,3820.45 708.49,3830.88 718.32,3834.69C729.69,3836.56 742.07,3829.04 742.93,3817.16C737.56,3811.67 729.38,3820.26 723.99,3814C717.89,3811.14 720.33,3803.34 720.18,3798.26C722.42,3795.75 725.14,3793.57 728.04,3792C733.29,3788.53 733.85,3796.35 737.79,3795.85C740.44,3793.36 741.81,3789.59 742,3786.05C739.33,3780.62 735.23,3775.17 728.94,3774.05L729,3773.07C724.33,3772.83 719.61,3772.86 714.96,3773.15Z" style="fill:rgb(251,252,221);fill-rule:nonzero;"/>
        <path d="M248.08,3560.34C249.9,3560.77 251.78,3560.91 253.66,3561.09C253.29,3562.78 247.43,3562.92 248.08,3560.34Z" style="fill:rgb(138,197,153);fill-rule:nonzero;"/>
        <path d="M820.01,3561.13C822.14,3562.03 821.35,3566.12 820.49,3568C819.64,3565.65 819.47,3563.36 820.01,3561.13Z" style="fill:rgb(158,207,169);fill-rule:nonzero;"/>
        <path d="M331.99,3571.97C332.08,3570.84 332.26,3569.76 332.54,3568.75C332.71,3569.28 333.05,3570.35 333.22,3570.88C343.15,3571.16 353.09,3570.82 363.03,3571.02L362.94,3571.96C362.27,3572.04 360.94,3572.21 360.27,3572.29C355.43,3571.96 350.6,3571.95 345.77,3572.17C344.58,3572.12 343.4,3572.14 342.23,3572.23C338.79,3571.87 335.41,3572.06 331.99,3571.97Z" style="fill:rgb(110,183,137);fill-rule:nonzero;"/>
        <path d="M187.2,3570.14C190.87,3569.26 196.62,3572.12 194.03,3577.02C193.86,3581.78 186.02,3583.85 183.92,3579.04C181.38,3575.71 185.39,3572.67 187.2,3570.14Z" style="fill:rgb(234,243,212);fill-rule:nonzero;"/>
        <path d="M211,3572.01C217.73,3571.97 224.5,3571.71 231.22,3572.18C224.95,3574.61 217.59,3572.1 211,3572.97L211,3572.01Z" style="fill:rgb(147,199,158);fill-rule:nonzero;"/>
        <path d="M303.01,3572.01C307.42,3571.99 311.95,3571.46 316.32,3572.44C311.98,3573.55 307.39,3572.58 302.98,3573L303.01,3572.01Z" style="fill:rgb(152,204,163);fill-rule:nonzero;"/>
        <path d="M331.99,3571.97C335.41,3572.06 338.79,3571.87 342.23,3572.23C339.66,3572.42 334.52,3572.8 331.95,3572.99L331.99,3571.97Z" style="fill:rgb(196,224,189);fill-rule:nonzero;"/>
        <path d="M345.77,3572.17C350.6,3571.95 355.43,3571.96 360.27,3572.29C355.6,3573.91 350.5,3572.71 345.77,3572.17Z" style="fill:rgb(204,227,193);fill-rule:nonzero;"/>
        <path d="M313.73,3581.68C316.81,3580.49 320.09,3580.98 323.25,3581.8C321.17,3581.94 319.08,3582.07 317,3581.99C316.18,3581.91 314.55,3581.75 313.73,3581.68Z" style="fill:rgb(164,211,171);fill-rule:nonzero;"/>
        <path d="M210.37,3582.23C217.54,3581.67 224.76,3581.87 231.94,3582.05C232.4,3583.98 229.11,3582.51 228,3583.02C222.65,3582.84 217.32,3582.99 211.98,3583.01C211.47,3583 210.44,3582.97 209.92,3582.96L210.37,3582.23Z" style="fill:rgb(189,221,186);fill-rule:nonzero;"/>
        <path d="M303.68,3582.69C306.86,3581.46 310.41,3581.88 313.73,3581.68C314.55,3581.75 316.18,3581.91 317,3581.99L317,3583C312.56,3582.79 308.09,3583.34 303.68,3582.69Z" style="fill:rgb(109,181,136);fill-rule:nonzero;"/>
        <path d="M323.25,3581.8C336.16,3582.27 349.09,3581.82 362.01,3582.01L361.99,3582.98C348.98,3582.85 335.96,3583.25 322.97,3582.86L323.25,3581.8Z" style="fill:rgb(134,192,149);fill-rule:nonzero;"/>
        <path d="M211.98,3583.01C217.32,3582.99 222.65,3582.84 228,3583.02L228,3583.99C222.67,3584.01 217.34,3584.01 212.01,3583.98L211.98,3583.01Z" style="fill:rgb(97,177,130);fill-rule:nonzero;"/>
        <path d="M239.98,3587C242.66,3586.91 245.34,3586.92 248.03,3587.02C247.07,3589.18 242.44,3587.51 240.03,3587.95L239.98,3587Z" style="fill:rgb(140,195,153);fill-rule:nonzero;"/>
        <path d="M306.28,3587.2C310.07,3586.31 315.05,3586.25 316.41,3590.65C321.26,3598.5 303.98,3604.37 303.41,3595.65C300.95,3591.58 303.91,3589.39 306.28,3587.2Z" style="fill:rgb(235,244,213);fill-rule:nonzero;"/>
        <path d="M183.69,3588.32C186.45,3587.88 189.25,3587.88 192.03,3588.04C190.22,3590.25 186.02,3588.32 183.69,3588.32Z" style="fill:rgb(162,207,168);fill-rule:nonzero;"/>
        <path d="M211.98,3590.02C211.94,3588.6 213.78,3588.54 214.76,3588.45C219.14,3588.88 223.58,3588.84 227.99,3589.07L227.96,3590.01C222.62,3589.86 217.3,3589.97 211.98,3590.02Z" style="fill:rgb(150,202,161);fill-rule:nonzero;"/>
        <path d="M329,3588.02C333.65,3587.85 338.32,3587.85 342.98,3588.05L343.01,3589C338.32,3588.85 333.67,3589.03 329,3588.99L329,3588.02Z" style="fill:rgb(91,174,126);fill-rule:nonzero;"/>
        <path d="M277.03,3589.41C279.12,3588.44 281.83,3588.54 283.96,3589.4C282.14,3590.68 278.37,3590.74 277.03,3589.41Z" style="fill:rgb(153,202,161);fill-rule:nonzero;"/>
        <path d="M322.99,3589.04C324.49,3589.02 327.5,3589 329,3588.99C333.67,3589.03 338.32,3588.85 343.01,3589C343.25,3589.25 343.72,3589.76 343.96,3590.01C336.99,3589.91 330.03,3589.95 323.06,3590.02L322.99,3589.04Z" style="fill:rgb(188,220,185);fill-rule:nonzero;"/>
        <path d="M324.04,3598.98C320,3598.22 320.05,3591.22 323.06,3590.02C330.03,3589.95 336.99,3589.91 343.96,3590.01C348,3590.64 345.11,3596.09 344.83,3598.91C344.37,3598.94 343.46,3598.98 343,3599.01C336.67,3598.9 330.36,3599.01 324.04,3598.98Z" style="fill:rgb(246,249,218);fill-rule:nonzero;"/>
        <path d="M820.73,3603.77C821.01,3600.48 821.23,3596.85 821.76,3593.75C821.81,3596.58 821.9,3602.23 821.95,3605.06L820.85,3604.83L820.73,3603.77Z" style="fill:rgb(137,195,152);fill-rule:nonzero;"/>
        <path d="M324.04,3598.98C330.36,3599.01 336.67,3598.9 343,3599.01L343,3599.98C336.66,3599.88 330.33,3600.15 324.01,3599.94L324.04,3598.98Z" style="fill:rgb(137,195,152);fill-rule:nonzero;"/>
        <path d="M181.05,3597.98C185.35,3597.98 189.65,3597.87 193.96,3598L194.01,3598.97C189.67,3598.83 185.34,3599.16 181.01,3598.95L181.05,3597.98Z" style="fill:rgb(165,205,169);fill-rule:nonzero;"/>
        <path d="M220.73,3600.75C222.97,3597.83 226.99,3600.34 230.04,3599.01C228.13,3602.29 223.81,3600.03 220.73,3600.75Z" style="fill:rgb(153,204,164);fill-rule:nonzero;"/>
        <path d="M274.04,3598.98C278.02,3598.93 282.02,3598.94 286.02,3599.01L285.99,3599.99C282.95,3598.67 275.26,3602.08 274.04,3598.98Z" style="fill:rgb(143,197,155);fill-rule:nonzero;"/>
        <path d="M820.65,3613.31C819.45,3610.3 820.19,3606.66 820.73,3603.77L820.85,3604.83C821.17,3607.59 821.1,3610.42 820.65,3613.31Z" style="fill:rgb(194,223,188);fill-rule:nonzero;"/>
        <path d="M416.16,3614.84C421.14,3615.16 418.52,3621.54 418.98,3624.99L418.07,3624.95C417.81,3621.44 418.3,3617.72 416.16,3614.84Z" style="fill:rgb(158,169,96);fill-rule:nonzero;"/>
        <path d="M819.98,3627.01C819.86,3623.62 820.17,3619.93 820.75,3616.74C820.86,3619.88 821.15,3623.62 820.96,3626.99L819.98,3627.01Z" style="fill:rgb(185,217,182);fill-rule:nonzero;"/>
        <path d="M234.23,3627.24C236.67,3623.88 241.61,3623.81 244.71,3626.3C246.16,3630.39 247.08,3635.31 243.91,3638.94C241.39,3641.67 240.35,3646.62 236.84,3648.04L230.16,3648.04C226.69,3646.96 226.58,3641.55 227.43,3638.64C227.07,3633.57 231.83,3630.89 234.23,3627.24Z" style="fill:rgb(244,182,88);fill-rule:nonzero;"/>
        <path d="M820,3630C823.2,3629.75 820.27,3636.62 820.93,3638.97L820,3639.03C820.02,3636.06 819.91,3632.7 820,3630Z" style="fill:rgb(162,206,169);fill-rule:nonzero;"/>
        <path d="M754,3634.97C756.85,3635.7 754.44,3642.46 754.66,3645.29C753.6,3642.01 753.95,3638.16 754,3634.97Z" style="fill:rgb(140,197,155);fill-rule:nonzero;"/>
        <path d="M820,3639.03L820.93,3638.97C821.01,3641.52 820.23,3644.94 824,3644.21L823.75,3645.14C822.49,3645.02 821.23,3644.95 819.98,3644.93C819.92,3644.39 819.81,3643.32 819.75,3642.78C819.84,3641.48 819.92,3640.24 820,3639.03Z" style="fill:rgb(142,183,123);fill-rule:nonzero;"/>
        <path d="M819.22,3657.29C818.85,3652.45 818.88,3647.43 819.75,3642.78C819.81,3643.32 819.92,3644.39 819.98,3644.93C819.63,3648.85 820.63,3653.31 819.22,3657.29Z" style="fill:rgb(246,235,193);fill-rule:nonzero;"/>
        <path d="M754.66,3645.29L755.84,3644.96C756.15,3647.7 756.12,3650.52 755.62,3653.3C754.92,3650.7 754.86,3647.61 754.66,3645.29Z" style="fill:rgb(117,184,139);fill-rule:nonzero;"/>
        <path d="M819.98,3644.93C821.23,3644.95 822.49,3645.02 823.75,3645.14C831.04,3650.26 824.01,3659.74 819.04,3664.07C819.08,3662.37 819.17,3658.98 819.22,3657.29C820.63,3653.31 819.63,3648.85 819.98,3644.93Z" style="fill:rgb(242,184,93);fill-rule:nonzero;"/>
        <path d="M230.16,3648.04L236.84,3648.04C236.06,3649.82 230.94,3649.82 230.16,3648.04Z" style="fill:rgb(190,174,98);fill-rule:nonzero;"/>
        <path d="M1010.08,3656.08C1012.55,3653.98 1015.97,3653.21 1018.79,3655.17C1020.97,3656.44 1023.37,3658.1 1023.76,3660.84C1022.15,3662.87 1021.83,3665.4 1021.89,3667.97C1019.49,3671.95 1011.15,3669.95 1009.06,3665.75C1008.8,3662.19 1008.82,3659.22 1010.08,3656.08Z" style="fill:rgb(245,182,88);fill-rule:nonzero;"/>
        <path d="M1369.26,3809.42C1370.69,3810.07 1373.56,3811.39 1374.99,3812.04C1374.26,3815.26 1376.69,3820.67 1372.75,3822.74C1367.22,3825.62 1366.86,3832.66 1363.32,3837.3C1360.99,3841.08 1355.52,3845 1351.3,3841.68C1347.09,3839.42 1348.96,3833.83 1350.37,3830.32C1353.09,3828.05 1353.66,3824.56 1354.36,3821.3C1355.71,3819.81 1357.06,3818.31 1357.37,3816.28C1360.08,3812.38 1364.9,3810.73 1369.26,3809.42Z" style="fill:rgb(245,182,88);fill-rule:nonzero;"/>
        <path d="M1131.84,3889.81C1134.62,3885.77 1140.27,3884.78 1144.8,3885.14C1149.29,3888.64 1149.19,3897.4 1143.76,3899.79C1140.19,3902.88 1138.28,3907.63 1134.75,3910.85C1132.73,3910.55 1126.86,3911.99 1126.03,3908.95C1125.99,3906.18 1125.97,3903.53 1125.99,3900.99C1122.98,3894.51 1129.78,3893.99 1131.84,3889.81Z" style="fill:rgb(245,182,88);fill-rule:nonzero;"/>
        <path d="M1018.79,3655.17C1022.51,3653.92 1028.24,3655.31 1027.99,3659.99C1027.16,3662.8 1027.49,3668.13 1023.08,3667.01C1023.54,3664.97 1024.17,3662.89 1023.76,3660.84C1023.37,3658.1 1020.97,3656.44 1018.79,3655.17Z" style="fill:rgb(112,163,99);fill-rule:nonzero;"/>
        <path d="M1008.1,3666.05C1009.5,3663.5 1005.66,3657 1010.08,3656.08C1008.82,3659.22 1008.8,3662.19 1009.06,3665.75L1008.1,3666.05Z" style="fill:rgb(159,170,94);fill-rule:nonzero;"/>
        <path d="M1021.89,3667.97C1021.83,3665.4 1022.15,3662.87 1023.76,3660.84C1024.17,3662.89 1023.54,3664.97 1023.08,3667.01C1022.78,3667.25 1022.19,3667.73 1021.89,3667.97Z" style="fill:rgb(178,172,91);fill-rule:nonzero;"/>
        <path d="M447.35,3690.49C450.91,3690.16 454.51,3690.03 457.96,3689.01C459.86,3689.77 462.49,3690.87 462.97,3693.04C462.55,3695.7 462.2,3698 461.92,3700.98C461.79,3702.06 461.16,3702.75 460.02,3703.03C445.25,3705.59 431.57,3712.7 416.3,3712.46C411.93,3713.97 402.71,3712.72 402.19,3707.31C404.37,3705.59 403.91,3702.39 404.16,3700.18C407.07,3697.42 411.36,3698.04 414.99,3697.06C418.05,3696.54 421.39,3697.65 424.3,3696.29C432.08,3695 439.6,3692.28 447.35,3690.49Z" style="fill:rgb(249,182,87);fill-rule:nonzero;"/>
        <path d="M920.98,3690.04C924.19,3689.63 921.25,3696.66 921.96,3698.98L921.02,3699C920.98,3696.06 920.92,3692.69 920.98,3690.04Z" style="fill:rgb(141,168,94);fill-rule:nonzero;"/>
        <path d="M462.97,3693.04C465.58,3693.64 462.57,3698.55 462.79,3700.9L461.92,3700.98C462.2,3698 462.55,3695.7 462.97,3693.04Z" style="fill:rgb(161,170,93);fill-rule:nonzero;"/>
        <path d="M414.99,3697.06C415.08,3693.46 421.84,3696.78 424.3,3696.29C421.39,3697.65 418.05,3696.54 414.99,3697.06Z" style="fill:rgb(185,172,94);fill-rule:nonzero;"/>
        <path d="M818,3698.15C819.84,3698.9 819.78,3703.95 818.07,3704.85C818.05,3703.18 818.02,3699.82 818,3698.15Z" style="fill:rgb(92,176,128);fill-rule:nonzero;"/>
        <path d="M906.03,3698.02L906.97,3697.99C907.03,3700.96 906.99,3703.48 907.16,3706.74C903.79,3707.56 906.74,3700.25 906.03,3698.02Z" style="fill:rgb(145,166,97);fill-rule:nonzero;"/>
        <path d="M402.19,3707.31C402.47,3705.17 402.14,3700.49 404.16,3700.18C403.91,3702.39 404.37,3705.59 402.19,3707.31Z" style="fill:rgb(156,170,95);fill-rule:nonzero;"/>
        <path d="M907.16,3706.74C907.83,3708.91 908.5,3711.17 910.07,3712.95C906.26,3713.63 906.85,3709.1 907.16,3706.74Z" style="fill:rgb(146,167,97);fill-rule:nonzero;"/>
        <path d="M129.14,3711.96C131.12,3714.6 130.44,3719.76 128.17,3722.24C127.88,3718.74 128.96,3715.39 129.14,3711.96Z" style="fill:rgb(137,165,98);fill-rule:nonzero;"/>
        <path d="M816.97,3724C816.9,3720.98 817.23,3717.52 817.75,3714.75C816.97,3716.94 819.57,3723.1 816.97,3724Z" style="fill:rgb(209,227,195);fill-rule:nonzero;"/>
        <path d="M817.01,3730L817.99,3730C817.98,3732.75 817.96,3738.26 817.95,3741.01L816.91,3740.92C817.07,3737.34 816.93,3733.41 817.01,3730Z" style="fill:rgb(96,174,125);fill-rule:nonzero;"/>
        <path d="M815.77,3769.78C816.13,3763.73 815.75,3757.62 816.72,3751.74C817.04,3758.4 817.16,3765.24 816.95,3772.02L815.92,3771.94C815.88,3771.4 815.81,3770.32 815.77,3769.78Z" style="fill:rgb(131,191,150);fill-rule:nonzero;"/>
        <path d="M814.92,3793.88C815.21,3785.82 814.42,3777.69 815.77,3769.78C815.81,3770.32 815.88,3771.4 815.92,3771.94C816.08,3779.24 816.07,3786.61 815.92,3794.02L814.92,3793.88Z" style="fill:rgb(181,218,178);fill-rule:nonzero;"/>
        <path d="M714.96,3773.15C719.61,3772.86 724.33,3772.83 729,3773.07L728.94,3774.05C724.36,3773.88 719.82,3773.89 715.28,3774.15L714.96,3773.15Z" style="fill:rgb(203,230,196);fill-rule:nonzero;"/>
        <path d="M715.28,3774.15C719.82,3773.89 724.36,3773.88 728.94,3774.05C735.23,3775.17 739.33,3780.62 742,3786.05C741.81,3789.59 740.44,3793.36 737.79,3795.85C733.85,3796.35 733.29,3788.53 728.04,3792C725.14,3793.57 722.42,3795.75 720.18,3798.26C720.33,3803.34 717.89,3811.14 723.99,3814C729.38,3820.26 737.56,3811.67 742.93,3817.16C742.07,3829.04 729.69,3836.56 718.32,3834.69C708.49,3830.88 703.12,3820.45 700,3811.01C699.95,3806.19 700.05,3801.65 699.98,3797C700.19,3787.54 706.02,3777.33 715.28,3774.15Z" style="fill:rgb(61,159,108);fill-rule:nonzero;"/>
        <path d="M630.97,3790C631.38,3788.77 629.95,3785.55 632.06,3785.98C632.07,3789.47 631.79,3792.63 631.26,3796.24C631.13,3794.11 631.03,3792.04 630.97,3790Z" style="fill:rgb(189,222,186);fill-rule:nonzero;"/>
        <path d="M630.08,3790.03L630.97,3790C631.03,3792.04 631.13,3794.11 631.26,3796.24C630.88,3799.36 629.98,3802.03 629.31,3805.26C629.22,3800.1 629.91,3795.1 630.08,3790.03Z" style="fill:rgb(115,184,139);fill-rule:nonzero;"/>
        <path d="M814.92,3793.88L815.92,3794.02C816.02,3798.86 816.14,3803.99 815.95,3808.98L815.02,3809C814.93,3804.11 814.97,3799.5 814.82,3794.78L814.92,3793.88Z" style="fill:rgb(106,181,133);fill-rule:nonzero;"/>
        <path d="M813.99,3820.01C814.05,3811.58 813.42,3803.05 814.82,3794.78C814.97,3799.5 814.93,3804.11 815.02,3809C815.01,3811.75 814.98,3817.25 814.97,3820L813.99,3820.01Z" style="fill:rgb(206,227,195);fill-rule:nonzero;"/>
        <path d="M699.04,3797.02L699.98,3797C700.05,3801.65 699.95,3806.19 700,3811.01L699.02,3810.99C698.97,3806.17 698.86,3801.68 699.04,3797.02Z" style="fill:rgb(124,188,143);fill-rule:nonzero;"/>
        <path d="M395.46,3862.97C394.65,3861.11 393.78,3856.92 395.99,3856.17C396.37,3858.32 396.2,3860.59 395.46,3862.97Z" style="fill:rgb(195,174,91);fill-rule:nonzero;"/>
        <path d="M871.03,3865.73C869.09,3865.12 869.19,3859.89 870.93,3859.14C870.95,3860.79 871.01,3864.08 871.03,3865.73Z" style="fill:rgb(147,168,101);fill-rule:nonzero;"/>
        <path d="M705.71,3869.75C708.13,3866.35 714,3868.28 716.35,3870.94C716.04,3872.63 715.87,3874.38 715.77,3876.2C713.49,3875.22 713.99,3872.92 714.74,3871.1C712.53,3868.48 708.63,3869.66 705.71,3869.75Z" style="fill:rgb(123,188,144);fill-rule:nonzero;"/>
        <path d="M716.35,3870.94C717.64,3872.74 717.86,3875.05 717.03,3877.87C716.71,3877.46 716.09,3876.62 715.77,3876.2C715.87,3874.38 716.04,3872.63 716.35,3870.94Z" style="fill:rgb(197,227,191);fill-rule:nonzero;"/>
        <path d="M407.97,3883.99C411.24,3883.73 408.24,3890.62 408.96,3892.98L408.02,3893.01C407.98,3890.04 407.88,3886.66 407.97,3883.99Z" style="fill:rgb(154,171,93);fill-rule:nonzero;"/>
        <path d="M640,3900.01C643.78,3899.75 647.53,3899.99 651.28,3900.71C648.46,3900.79 642.82,3900.93 640,3901.01L640,3900.01Z" style="fill:rgb(160,206,167);fill-rule:nonzero;"/>
        <path d="M1125.04,3901.03L1125.99,3900.99C1125.97,3903.53 1125.99,3906.18 1126.03,3908.95C1123.76,3908.25 1125.46,3903.35 1125.04,3901.03Z" style="fill:rgb(165,170,98);fill-rule:nonzero;"/>
        <path d="M714.72,3914.7C718.69,3913.53 722.92,3914.09 727.01,3913.98L727,3914.99C724.2,3914.96 718.6,3914.88 715.8,3914.84L714.72,3914.7Z" style="fill:rgb(186,219,184);fill-rule:nonzero;"/>
        <path d="M699.98,3915.01C704.89,3915.04 709.78,3914.8 714.72,3914.7L715.8,3914.84L716.06,3915.93C710.7,3916.01 705.36,3916.02 700.02,3915.98L699.98,3915.01Z" style="fill:rgb(126,193,148);fill-rule:nonzero;"/>
        <path d="M552.33,3940.36C557.9,3938.55 561.41,3945.27 563.63,3949.3C561.67,3954.64 569.59,3955.43 567.16,3960.94C568.17,3963.5 570.17,3966.35 568.06,3969.03C566.25,3975.43 556.85,3973.33 554.16,3968.88C552.59,3960.04 545.9,3952.56 548.12,3943.2C549.48,3942.16 550.92,3941.28 552.33,3940.36Z" style="fill:rgb(243,182,88);fill-rule:nonzero;"/>
        <path d="M360.29,4101.33C366.89,4099.41 372.44,4108.32 368.7,4113.72C365.81,4117.66 359.05,4118.16 356.3,4113.72C353.95,4109.82 354.99,4101.83 360.29,4101.33Z" style="fill:rgb(243,182,88);fill-rule:nonzero;"/>
        <path d="M985.05,3973.03L985.99,3972.98C985.96,3975.53 985.96,3978.19 986.01,3980.96C983.77,3980.21 985.46,3975.36 985.05,3973.03Z" style="fill:rgb(173,173,95);fill-rule:nonzero;"/>
        <path d="M157.99,3981.04C160.22,3981.75 158.53,3986.58 158.95,3988.98L157.99,3989.01C158.01,3986.23 158.01,3983.58 157.99,3981.04Z" style="fill:rgb(196,174,96);fill-rule:nonzero;"/>
        <path d="M252.03,3999.16C252.6,3998.88 253.73,3998.32 254.29,3998.04C254.86,4000.91 253.16,4003.58 252.23,4006.23C252.18,4004.46 252.08,4000.93 252.03,3999.16Z" style="fill:rgb(225,179,91);fill-rule:nonzero;"/>
        <path d="M251.07,3998.97L252.03,3999.16C252.08,4000.93 252.18,4004.46 252.23,4006.23C252.17,4006.66 252.05,4007.53 251.99,4007.96C248.76,4007.78 251.76,4001.4 251.07,3998.97Z" style="fill:rgb(148,168,94);fill-rule:nonzero;"/>
        <path d="M154.52,4016C153.22,4014.05 153.53,4010.38 154.49,4009C155.61,4011.01 155.64,4013.89 154.52,4016Z" style="fill:rgb(145,169,95);fill-rule:nonzero;"/>
        <path d="M805.49,4035C806.25,4036.9 806.45,4039.14 806.1,4041.72C803.8,4041.05 804.68,4036.73 805.49,4035Z" style="fill:rgb(189,177,89);fill-rule:nonzero;"/>
        <path d="M156.05,4036.15C157.84,4036.93 157.84,4042 156.05,4042.86L156.05,4036.15Z" style="fill:rgb(163,170,93);fill-rule:nonzero;"/>
        <path d="M821,4051.1C823.81,4051.22 826.6,4050.67 828.84,4048.9C830.07,4052.36 821.14,4053.47 821,4051.1Z" style="fill:rgb(181,173,94);fill-rule:nonzero;"/>
        <path d="M453.08,4059.03C453.44,4055.37 460.45,4056.01 460.93,4057.9C458.26,4057.85 455.67,4058.48 453.08,4059.03Z" style="fill:rgb(152,169,94);fill-rule:nonzero;"/>
        <path d="M451.05,4061.01L452.01,4061.04C451.98,4063.56 451.97,4066.2 452.01,4068.95C449.78,4068.2 451.46,4063.34 451.05,4061.01Z" style="fill:rgb(177,169,95);fill-rule:nonzero;"/>
        <path d="M1118.18,4084.79C1118.94,4083 1123.88,4083.35 1123.78,4085.88C1121.91,4085.47 1120.05,4085.03 1118.18,4084.79Z" style="fill:rgb(215,178,88);fill-rule:nonzero;"/>
        <path d="M1117.17,4118.04L1123.83,4118.04C1123.05,4119.82 1117.93,4119.82 1117.17,4118.04Z" style="fill:rgb(185,174,96);fill-rule:nonzero;"/>
    </g>
</svg>
