<?xml version="1.0" encoding="UTF-8" standalone="no"?>
<!DOCTYPE svg PUBLIC "-//W3C//DTD SVG 1.1//EN" "http://www.w3.org/Graphics/SVG/1.1/DTD/svg11.dtd">
<svg width="100%" height="100%" viewBox="0 0 1288 751" version="1.1" xmlns="http://www.w3.org/2000/svg" xmlns:xlink="http://www.w3.org/1999/xlink" xml:space="preserve" xmlns:serif="http://www.serif.com/" style="fill-rule:evenodd;clip-rule:evenodd;stroke-linejoin:round;stroke-miterlimit:2;">
    <g transform="matrix(1,0,0,1,-1471.966004,-107.980786)">
        <g transform="matrix(10.537937,0,0,5.694104,-26717.959036,-3150.398622)">
            <rect x="2675.09" y="572.237" width="122.134" height="131.721" style="fill:rgb(28,22,58);"/>
        </g>
        <path d="M1472.06,108.03C1492.64,108.01 1513.23,107.91 1533.82,108.07C1534.01,111.86 1536.41,115.1 1536.01,119.01C1536.92,129.42 1530.56,138.51 1529.61,148.68C1527.67,151.66 1524.58,153.92 1523.5,157.38C1522.9,161.21 1521.26,164.94 1519.04,168.07C1515.83,170.24 1513.99,173.7 1511.92,176.86C1511.18,177.89 1510.47,178.94 1509.78,179.99C1508.03,181.52 1507.39,183.74 1508.16,185.96C1506.95,187.41 1506.02,189.03 1505.77,190.92C1500.93,196.01 1499.53,203.54 1494.96,208.96C1492.49,214.02 1482.66,214.83 1484.38,221.4C1486.51,224.78 1483.72,227.1 1483.03,230.01C1481.76,234.3 1481.81,239.2 1478.64,242.69C1476.31,245.8 1475.57,249.96 1472.16,252.23C1471.83,204.17 1472.01,156.09 1472.06,108.03Z" style="fill:rgb(250,205,45);fill-rule:nonzero;"/>
        <path d="M2742.29,678.31C2748.42,676.56 2752.46,670.86 2758.91,669.87C2759.08,732.57 2759,795.27 2758.95,857.97C2731.67,858 2704.4,858.06 2677.14,857.95C2677.01,855.97 2676.98,853.85 2675.09,852.76C2676.19,845.54 2674.73,836.98 2680.06,831.13C2681.5,828.38 2680.69,824.84 2680.89,821.8C2683.07,816.1 2682.75,810.03 2682.13,804.11C2685.63,798.34 2687.85,791.94 2690.76,785.87C2691.15,782.51 2691.16,779.08 2693.31,776.3C2695.05,774.05 2691.54,770.81 2693.82,768.85C2698.2,766.13 2698.42,760.21 2699.96,755.85C2702.09,752.78 2702.32,749.03 2702.45,745.41C2704.63,742.43 2706.97,739.59 2709.13,736.57C2710.56,734.97 2711.48,733 2712.16,730.97C2715.46,725.26 2715.64,718.33 2718.36,712.34C2721.64,709.95 2725.84,707.02 2724.46,702.32C2728.63,697.58 2728.86,689.99 2734.69,686.68C2738.4,685.1 2740.21,681.51 2742.29,678.31Z" style="fill:rgb(250,205,45);fill-rule:nonzero;"/>
    </g>
</svg>
