<?xml version="1.0" encoding="UTF-8" standalone="no"?>
<!DOCTYPE svg PUBLIC "-//W3C//DTD SVG 1.1//EN" "http://www.w3.org/Graphics/SVG/1.1/DTD/svg11.dtd">
<svg width="100%" height="100%" viewBox="0 0 1288 751" version="1.1" xmlns="http://www.w3.org/2000/svg" xmlns:xlink="http://www.w3.org/1999/xlink" xml:space="preserve" xmlns:serif="http://www.serif.com/" style="fill-rule:evenodd;clip-rule:evenodd;stroke-linejoin:round;stroke-miterlimit:2;">
    <g transform="matrix(1,0,0,1,-103.93376,-107.933245)">
        <path d="M104.04,108.04C150.05,107.98 196.06,107.97 242.07,108.04C239.61,110.04 239.25,113.7 236.03,115.03C230.02,119.67 226.46,126.91 220.06,131.12C207.42,143.52 192.85,154.04 177.12,162.19C164.33,171.27 150.91,179.5 137.29,187.23C131.22,187.2 128.17,192.93 123.17,195.22C116.95,198.48 110.7,201.69 104.11,204.17C103.87,172.13 104.02,140.08 104.04,108.04Z" style="fill:rgb(243,125,115);fill-rule:nonzero;"/>
        <path d="M397.13,108.09C470.44,107.92 543.77,107.98 617.08,108.06C613.67,116.73 603.34,120.21 600.14,129.09C599.24,131.15 599.29,133.9 597.07,135.08C589.49,139.29 585.43,147.37 581.89,154.92C574.68,164.82 569.67,176.2 561.48,185.4C562.7,189.55 559.94,191.37 557.38,193.36C556.68,195 556.08,196.69 555.59,198.41C555.01,204.17 550.93,208.43 548.29,213.29C544.86,218.62 543.72,225.01 541.91,230.96C536.29,241 534.4,252.46 530.02,263C527.41,268.58 525.97,274.57 523.1,280.04C522.13,285.76 516.14,288.44 514.86,293.95C513.5,298.64 508.49,301.38 508.42,306.6C502.09,314.8 497.53,324.09 491.64,332.66C488.38,338.34 483.41,342.73 480.73,348.75C474.91,354.04 470.03,360.13 465.57,366.59C455.3,375.63 446.56,386.28 437.47,396.5C428.21,402.8 421.35,412.06 411.92,417.92C407.8,422.19 403.71,426.62 398.37,429.41C389.29,434.12 381.82,441.57 372.16,445.21C364.74,447.5 359.32,453.46 352.09,456.09C343.49,458.73 336.44,465.16 327.39,466.46C314.41,469.21 302.84,476.85 289.59,478.44C276.72,479.61 264.31,485.11 251.34,484.59C244.17,486.52 236.6,486.44 229.27,487.31C226.38,487.18 223.44,486.58 220.73,487.74C213.35,488.18 205.82,487.46 198.62,489.51C184.99,490.47 171.26,489.48 157.67,491.46C139.81,491 121.93,492.35 104.06,493.04C104,435.1 103.89,377.15 104.11,319.23C111.03,317.14 117.39,313.47 124.35,311.46C129.65,310.29 133.83,306.52 138.97,304.94C149.12,300.71 158.28,294.33 168.59,290.49C173.24,287.23 177.87,283.96 183.17,281.83C186.54,286.7 192.17,289.84 197.84,291.35C199.99,292.74 203.36,293.39 205.14,291.21C213.62,289.63 218.8,282.17 224.04,276.03C230.05,275.43 236.44,277.13 242.28,275.24C243.7,275.44 246.52,275.85 247.94,276.05C250.38,279.48 255.23,279.83 259.03,280.01C270.68,279.59 280.09,268.42 279.99,257.05C279.48,253.87 276.09,252.44 273.16,253.04C270.65,257.03 270.56,262.55 266.51,265.49C263.96,267.97 260.82,269.97 257.15,270.07C257.22,266.91 259.16,263.01 255.7,261.15C250.94,258.39 249.23,263.87 245.36,264.41C237.08,265.65 228.52,264.24 220.31,266.28C214.81,269.65 211.54,275.56 206.69,279.68C201.99,282.55 194.81,281.05 192.02,276.17C194.73,276.09 197.28,274.77 198.05,272.04C202.06,276.32 211.13,272.94 208.28,266.11C212.1,265.82 214.79,262.72 218.03,261.07C221.66,259.49 222.85,254.93 227.04,254.13C235.26,251.84 240.17,243.96 248.19,241.4C253.46,240.21 259.6,239.77 263.24,235.27C265.69,233.15 265.63,229.63 266.68,226.77C266.79,227.61 267.02,229.28 267.14,230.12C269.47,229.18 271.55,227.69 273.9,226.77C274.05,231.09 273.66,235.47 274.15,239.78C275.67,242.11 278.86,240.8 280.82,239.74C282.16,233.28 281.92,226.67 282.08,220.12C284.55,219.23 288.97,218.99 287.92,215.26L288.76,215.3C290.1,215.65 291.46,215.95 292.81,216.32C292.92,218.05 293.13,221.5 293.24,223.22C293.08,227.8 293.86,232.37 295.29,236.71C298.47,240.32 304.34,241.36 307.94,237.79C310.86,232.4 305.9,230.39 302.1,231.57C300.74,230.59 301.05,228.72 300.61,227.29C300.69,224.44 300.73,221.6 300.74,218.77C299.87,213.97 304.27,215 307.8,214.83C308.82,213.39 310.73,211.43 309.42,209.65C308.7,207.3 305.82,207.15 303.79,206.87C303.95,206.48 304.26,205.7 304.41,205.31C311.56,199.85 319.43,195.22 326,189C331.73,183.73 337.23,178.21 343.38,173.43C347.46,170.52 349.78,165.78 354.01,163.01C358.84,160.34 359.81,154.23 364.15,151.13C370.72,145.16 376.15,138.1 380.31,130.28C386.35,123.2 392.09,115.92 397.13,108.09M319.3,200.25C317.02,205.27 313.48,210.24 313.98,216L313.04,216.02C313.47,218.42 311.78,223.1 313.98,224.01C313.66,227.61 315.58,230.84 317.01,233.99C318.55,237.79 322.79,238.35 326.06,239.91C331.08,239.8 337.5,241.56 341.28,237.29C343.58,235.96 344.66,230.96 341.34,230.56C337.78,228.39 334.94,234.29 331,232.01C322.78,234.12 319.65,224.19 321.01,217.99C327.55,219.44 335.47,219.62 340.1,214.07C344.52,206.84 339.7,194.29 330,196C325.56,194.73 322.66,198.34 319.3,200.25M349.03,202.03C342.89,210.54 342.86,222.36 346,232C348.82,237.75 355.84,240.63 362.01,240.04C366.37,240.7 372.85,238.92 373.97,233.99C373.52,231.26 370.23,228.91 367.69,230.65C361.87,234.17 352.34,232.01 351.58,224.33C352.11,222.05 351.52,219.45 353.04,217.49C353.78,217.62 355.25,217.88 355.99,218.01L356.03,218.95C358.44,218.53 363.07,220.22 364.03,218.01C375.45,216.45 374.57,197.93 363.93,196.06C358.42,195.27 351.84,196.75 349.03,202.03M379.01,208.01L378,207.99C378.07,210.81 378.2,216.44 378.27,219.26C377.54,225.38 378.05,231.59 378.18,237.75C379.81,240.75 384.15,240.83 385.76,237.77C387.2,227.93 386.72,216.74 394.06,209C397.47,207.13 400.35,209.94 401.32,212.69C400.5,219.51 401.06,226.41 401.28,233.26C401.24,234.64 401.15,237.39 401.11,238.76C403.71,242.32 408.59,239.68 408.95,235.96C408.48,225.45 410.76,214.29 406.66,204.28C402.38,197.71 392.2,199.97 387.8,205.3C385.52,203.29 389.45,196.79 385.97,196.99L385.95,196C378.09,193.16 378.52,203.72 379.01,208.01M253.3,243.28C247.7,244.71 248.66,253.95 254.05,254.99C256.94,255.26 258.52,252.19 260.79,251.24C262.76,252.99 264.06,256.07 267.77,253.86C270.07,251.66 271.95,248.6 270.93,245.18C268.03,242.03 261.87,242.28 260.73,246.89C258.61,244.93 257.84,240.29 253.3,243.28M320.08,253.06C318.41,255.64 319.04,260.04 322.03,260.98C329.15,264.85 326.53,255.78 331.05,255.01C334.31,254.34 337.82,257.4 336.81,260.75C329.86,268.71 317.43,262.5 308.98,267.97C303.3,270.31 305.66,279.6 299.03,281.03C294.59,284.12 288.08,281.54 287.97,276C289.1,271.51 291.68,266.94 296.22,265.21C299.64,263.57 303.2,257.69 298.74,255.17C287.17,254.33 280.09,267.03 278.99,276.98C277.94,283.69 282.98,288.69 288.26,291.73C295.31,293.22 302.58,291.39 308.68,287.73C311.32,283.15 312.48,277.06 317.76,274.8C322.16,275.23 326.57,274.97 331,274.98L331.01,273.99C338.52,274.86 346.17,275.59 353.7,274.64C356.85,275.3 360.04,274.9 363.26,274.74C364.72,274.98 366.25,275.16 367.69,274.64C370.15,274.33 376.84,277.24 377,273.98C380,274.54 379.54,270.06 380,268.06C379.03,266.13 376.88,263.12 374.32,264.35C369.83,263.57 365.24,264.11 360.74,264.26C359.26,263.98 357.74,264 356.27,264.27C352.88,263.86 349.42,263.88 346.04,264.02C348.01,258.58 346.02,252.75 342.87,248.16C335.97,242.32 323.07,243.65 320.08,253.06M372.2,244.22C369.86,246.39 367.04,248.81 369.2,252.7C374.57,259.53 382.61,262.86 390.1,266.83C391.52,267.7 394.7,267.41 393.92,269.84C385.74,274.44 377.29,278.82 370.28,285.18C369.36,287.4 368.38,290.62 370.98,292.07C373.34,293.9 376.15,292.02 378.69,291.62C385.08,286.48 392.13,282.13 399.56,278.63C401.2,276.05 404.53,275.48 407.02,274.04C412.09,273.32 412.53,264.61 407.71,263.32C398.73,259.46 389.72,255.42 381.25,250.74C378.6,248.04 376.09,244.98 372.2,244.22M321.31,279.27C315.98,280.89 315.75,288.25 319.16,291.93C322.75,291.63 329.19,292.07 330.72,287.7C332.91,282.02 326.53,276.95 321.31,279.27M339.01,281.02L338.99,281.98C334.58,280.69 334.6,287.27 335.07,289.81C341.17,294.49 349.69,291.09 356.7,291.71C360.54,290.8 361.51,282.09 357.01,282L356.98,281.05C350.99,280.82 344.99,281.01 339.01,281.02M225.38,282.23C223.99,284.31 221.82,286.79 223.59,289.35C226.43,293.66 233.31,292.95 237.92,292.2C240.17,293.15 243.03,292.47 244.72,290.77C245.09,288.91 245.63,287.08 245.86,285.2C240.79,279.27 232.03,282.75 225.38,282.23Z" style="fill:rgb(243,125,115);fill-rule:nonzero;"/>
        <path d="M641.17,108.1C661.44,107.87 681.73,108.04 702.02,108.01C701.34,109.42 700.74,110.86 700.17,112.32C691.92,117.61 688.78,127.32 682.36,134.36C678.04,138.65 676.46,144.83 672.19,149.17C667.91,154.43 666.18,161.43 661.07,166.05C655.09,166.9 651.95,171.7 649.81,176.87C648.17,178.25 646.92,180 645.79,181.8C643.32,183.32 641.44,185.67 640.34,188.35C639.64,190.82 641.01,193.59 640.11,196.07C639.09,200.29 633.68,201.78 633,206.11C632.61,209.22 631.11,211.7 628.44,213.36C626.96,219.5 622.49,224.34 620.25,230.19C619.52,232.28 617.76,233.68 616.17,235.09C613.68,237.52 612.12,240.9 611.01,244.17C609.1,248.66 606.97,253.08 605.91,257.88C604.63,261.55 604,265.44 604.26,269.33C600.88,274.8 597.67,280.43 592.84,284.77C590.33,286.75 590.63,290.29 590.04,293.14L589.86,293.89C589,297.34 587.37,300.63 587.08,304.22C585.3,311.05 582.65,317.59 578.44,323.26C577.79,327.45 574.24,329.65 571.83,332.75C568.26,337.17 567.7,343.17 565.05,348.11C558.37,350.59 557.48,358.7 554.07,364.05C550.55,365.65 549.97,369.67 548.89,372.96C547.12,374.15 544.5,374.5 543.63,376.64C541.41,380.87 545.69,387.98 540.84,390.88C536.84,393.39 538.92,400.25 533.94,401.92C529.96,403.8 527.39,407.36 524.81,410.75C522.68,413.16 520.89,415.88 519.72,418.88C515.44,424.23 510.12,428.54 506.09,434.08C503.3,436.32 502.45,440.51 498.88,441.83C496.62,442.71 494.95,444.5 493.18,446.07C489.67,447.57 487,450.34 485.83,454.01C481.05,456.82 473.58,457.39 473.26,464.2C470.68,465.21 467.88,465.91 465.71,467.72C461.52,469.64 457.71,472.25 453.87,474.77C449.71,478.12 444.26,479 439.98,482.05C437.49,482.76 434.92,483.28 432.8,484.81C424.3,490.89 415.09,495.85 405.96,500.89C400.56,503.52 394.55,504.5 389.12,507.03C384.17,505.9 380.14,508.76 376.81,511.88C375.6,512.64 374.39,513.4 373.17,514.15C367.89,514.32 362.48,515.34 357.73,517.75C347.02,521.92 337.04,527.72 326.68,532.64C317.66,535.43 308.12,536.27 299.14,539.21C293.58,542.19 287.19,543.31 281.96,546.93C276,551.46 268.09,550.51 261.12,551.22C256.14,554.15 250.32,554.69 245.18,557.15C238.8,560.9 231.15,559.74 224.19,561.29C219.57,562.77 215.09,564.63 210.65,566.58C205.39,568.85 199.14,567.02 194.15,570.1C190.35,570.09 185.9,568.98 182.87,571.92C179.35,573.56 175.19,572.55 171.49,572.99C168.44,571.97 165.48,572.31 162.75,573.78C158.58,574.86 154.22,575.37 149.98,574.43C143.31,575.1 136.58,575.93 130.28,578.34C125.14,578.52 119.68,576.89 114.72,578.76C111.12,578.98 107.59,578.46 104.06,577.9C103.95,555.59 103.97,533.27 104.04,510.97C108.3,509.98 112.68,510.16 117,510.58C127.86,508.15 139.13,511.53 150.1,509.24C163.06,509.54 176,507.53 188.92,508.75C196.72,508.91 203.7,503.02 211.59,505.6C217.96,506.56 224.38,505.27 230.73,504.69C233.89,504.75 237.23,505.53 240.27,504.28C247.91,503.96 255.32,501.91 262.99,501.85C269.54,501.85 275.53,498.68 282.02,498.11C292.45,497.5 302.24,493.4 312.07,490.18C317.95,488.73 323.86,487.24 329.09,484.14C339.78,482.98 347.63,475.12 357.89,472.78C366.41,469.87 373.26,463.45 381.9,460.85C389.43,457.95 394.7,451.3 401.95,447.9C408.01,444.21 415.14,441.29 419.07,435.07C421.43,432.67 425.03,431.77 427.69,429.69C433.11,422.08 441.95,418 447.37,410.36C452.65,406.04 457,400.71 462.11,396.19C463.04,392.95 465.89,391.32 468.51,389.57C469.07,383.41 474.53,380.22 479.2,377.22C490.44,364 500.97,350.12 510.44,335.57C513.12,329.33 516.9,323.59 521.54,318.63C524.18,310.3 529.99,303.61 533.91,295.92C539.31,283.6 545.32,271.58 549.83,258.88C552.01,250.46 554.1,242 558.26,234.28C565.46,214.43 575.51,195.67 587.03,178.03C592.25,169 597.04,159.71 603.31,151.32C607.78,147.69 612.76,144.11 614.17,138.13C615.96,130.78 625.57,129.97 628,123C630.81,116.74 637.45,113.69 641.17,108.1Z" style="fill:rgb(243,125,115);fill-rule:nonzero;"/>
        <path d="M753.13,108.09C762.75,107.9 772.39,107.97 782.02,108.02C778.79,111.71 785.77,110.46 787.3,108.23C811.24,107.76 835.29,107.98 859.27,108.14C858.52,110.87 856.25,112.48 854.35,114.36C847.5,123.14 841.9,133.11 833.38,140.4C829.78,142.14 828.79,146.31 825.61,148.55C822.16,150.47 822.31,155 819.27,157.29C812.15,163.53 806.81,171.49 799.44,177.43C797.02,180.01 795.06,183.14 791.95,184.96C788.68,187.31 784.41,188.77 782.62,192.66C780.27,197.49 775.65,200.44 771.38,203.37C766.32,209.93 759.74,215.1 754.57,221.56C746.7,228.36 739.93,236.59 730.48,241.32C729.35,245.25 725.67,247.36 722.51,249.54C719.5,252.85 716.38,256.05 713.28,259.28C710.48,262.34 709.8,266.89 706.5,269.51C703.34,272.73 700.77,277.05 696.12,278.19C691.25,279.98 686.26,277.45 682.28,274.86C682.63,271.44 679.35,268.25 680.75,264.87C683.72,255.33 689.47,246.97 692.45,237.41C699.87,229.54 700.19,218.12 706.72,209.75C709.47,205.55 710.42,200.48 711.89,195.81C719.11,187.21 721.46,175.98 727.38,166.55C727.91,159.51 734.19,154.94 735.43,148.23C738.89,143.37 740.57,137.68 742.04,131.99C746.4,124.39 750.57,116.53 753.13,108.09Z" style="fill:rgb(243,125,115);fill-rule:nonzero;"/>
        <path d="M979.07,108.07C1040.78,108.03 1102.51,107.82 1164.21,108.16C1159.15,111.7 1156.18,117.74 1155.66,123.83C1150.03,132.1 1145.4,140.98 1140.85,149.87C1137.01,153.29 1135.58,158.43 1132.42,162.38C1129.51,167.72 1124.25,171.03 1121.41,176.41C1118.81,178.15 1117.69,180.92 1116.69,183.74C1109.14,187.52 1105.48,195.23 1100.63,201.62C1095.77,204.77 1091.54,208.58 1088.76,213.75C1079.29,220.59 1072.88,231.01 1062.36,236.41C1058,244.84 1048.09,247.4 1042.45,254.54C1032.98,260.54 1026.72,270.39 1017.12,276.16C1009.63,283.06 1001.96,289.86 993.33,295.31C991.43,296.99 991.82,300.18 989.59,301.56C981.28,307.63 975.04,316.56 965.12,320.16C960.14,322.69 954.38,317.96 952.13,313.89C949.92,303.78 952.67,293.48 955.8,283.87C956.97,278.16 956.63,271.97 959.76,266.86C960.38,249.79 965.72,233.42 965.53,216.33C966.1,209.69 967.91,203.03 967.52,196.35C966.21,192.75 968.99,189.57 968.98,186.02C968.9,179.08 970.2,172.24 970.48,165.35C973.79,154.79 973.99,143.55 975.81,132.72C978.74,124.82 977.86,116.27 979.07,108.07Z" style="fill:rgb(243,125,115);fill-rule:nonzero;"/>
        <path d="M1369.16,108.09C1376.4,107.89 1383.68,107.94 1390.97,108.04C1390.97,254.96 1391.11,401.9 1390.9,548.82C1387.8,551.86 1383.63,554.48 1382.95,559.12C1382.18,560.66 1381.45,562.21 1380.85,563.82C1379.91,565.18 1378.91,566.5 1377.89,567.79C1375.61,569.61 1374.63,572.35 1375.12,575.22C1372.54,579.67 1368.54,582.7 1363.86,584.77C1358.91,586.87 1357.15,592.19 1354.08,596.14C1352.96,597.03 1351.87,597.93 1350.87,598.93C1350.62,599.15 1350.12,599.59 1349.87,599.82C1346.64,601.47 1343.24,603.92 1343.85,607.95C1343.04,609.17 1342.37,610.47 1341.94,611.87C1339.38,614.04 1336.65,616.05 1334.12,618.21C1333.85,622.54 1333.9,626.94 1334.33,631.28C1334.57,635.2 1331.26,637.65 1327.93,638.81C1326.56,639.1 1325.22,639.42 1323.92,639.86C1318,641.03 1318.88,647.5 1319.09,652.21C1318.73,653.5 1318.37,654.8 1318.07,656.12C1315.7,661.76 1310.54,664.45 1305.82,667.75C1304.53,668.42 1303.3,669.16 1302.12,669.99C1298.59,672.24 1296.81,676.39 1294.87,679.96C1292.98,682.75 1289.96,684.37 1287.41,686.45C1285.49,688.95 1284.62,692.04 1283.93,695.07C1282.48,697.74 1281.95,700.66 1281.65,703.7C1280.17,706.11 1277.87,707.79 1275.85,709.71C1271.1,711.46 1269.61,716.75 1267.86,721.02C1260.31,724.52 1252.53,727.7 1245.87,732.79C1241.11,735.57 1237.57,740.24 1234.79,744.92C1233.93,745.63 1233.1,746.36 1232.29,747.09C1225.87,747.12 1219.4,750.64 1216.02,756.13C1214.52,757.97 1212.62,759.6 1211.9,761.94C1206.81,765.64 1203.78,771.15 1200.09,776.09C1199.09,776.35 1198.11,776.64 1197.16,776.97C1193.58,776.92 1189.67,777.43 1186.97,780.01C1184.12,782.48 1181.11,785.3 1179.97,788.98C1177.63,790.98 1175.45,793.14 1172.98,794.97C1169.47,797.01 1168.83,801.4 1167.92,805.01C1166.54,806.88 1164.64,808.25 1162.98,809.84C1159.69,811.96 1156.41,814.1 1153.02,816.04C1146.7,820.3 1147,829.53 1140.59,833.56C1136.54,835.83 1136.41,841.06 1135.05,845.03C1130.8,849.15 1125.72,852.64 1122.76,857.86C1032.45,858.09 942.11,858.08 851.8,857.88C852.05,857.38 852.55,856.38 852.8,855.88C857.17,853.5 860.26,849.03 858.85,843.8C859.24,842.88 859.66,841.97 860.1,841.08C861.62,836.56 865.68,833.36 866.6,828.63C866.84,825.61 867.01,822.81 866.9,819.84C869.76,814.28 876.23,810.32 875.36,803.32C876.79,801.13 879.64,800.2 880.6,797.67C881.6,794.01 882.99,790.46 885.79,787.78C889.65,781.18 895.55,776.24 900.05,770.13C906.47,765.45 913.34,760.07 914.84,751.79C917.82,749.01 920.6,745.79 920.41,741.34C922.09,738.32 925.97,738.26 928.7,736.66C931.18,734.2 933.47,731.53 936.09,729.2C938.62,727.25 940.54,724.66 941.8,721.73C943.85,717.1 947.98,713.95 950.89,709.92C954.45,705.84 956.62,700.12 962.01,698.02C968.44,694.97 970.46,687.07 977.13,684.18C981.51,682.47 984.52,678.63 984.94,673.91C986.56,671.03 988.83,668.58 990.8,665.94C996.7,665.76 1001.04,660.52 1003.9,655.81C1006.18,652.83 1007.6,648.33 1012.07,648.16C1018.44,647.56 1022.11,642.36 1025.84,637.89C1028.68,635.8 1031.2,633.34 1033.75,630.92C1038.52,630 1043.2,627.08 1044.14,622.03C1048.7,618.52 1054.49,616.85 1058.37,612.4C1067.3,606.76 1076.77,601.77 1084.73,594.72C1088.35,591.92 1092.5,589.9 1096.43,587.56C1108.1,582.44 1117.65,573.68 1129,567.99C1132.72,565.82 1137.34,564.66 1140.21,561.24C1142.22,558.86 1144.12,556.37 1145.96,553.84C1148.63,551.27 1153.14,549.98 1153.75,545.88C1154.45,540.53 1160.17,538.16 1164.66,536.65C1170.77,534.91 1176,530.66 1179.15,525.17C1180.82,522.47 1182.3,519.65 1184.07,517.01C1188.91,512.46 1194.74,507.24 1195.39,500.25C1200.68,496.48 1204.18,491.19 1207.83,485.93C1210.93,482.31 1217.04,480.92 1217.99,475.89C1218.85,474.83 1219.8,473.86 1220.83,472.96C1223.57,472.89 1225.55,470.53 1224.9,467.82C1225.97,461.43 1233.93,458.47 1232.34,451.31C1233.72,449.38 1235.88,448.25 1237.6,446.64C1238.95,443.93 1239.29,440.63 1241.29,438.3C1246.76,434.53 1250.24,428.64 1255.07,424.13C1257.69,421.25 1260.12,418.18 1258.87,413.84C1257.86,407 1266.55,405.74 1267.98,399.92C1268.18,396.56 1265.36,393.64 1266.14,390.24C1268.25,388.27 1271.34,387.09 1271.85,383.9C1273.43,376.61 1282.97,374.65 1284.32,367.2C1288.44,364.68 1288.13,360.12 1287.86,355.8C1290,350.95 1291.39,345.95 1291.6,340.59C1297.2,335.87 1298.32,328.31 1302.56,322.65C1303.54,318.14 1306.55,314.77 1308.9,310.95C1311.7,305 1318.81,302 1320.46,295.37C1323.16,289.04 1321.08,281.75 1324.59,275.69C1323.96,269.51 1330.27,265.59 1328.24,259.17C1330.4,255.73 1331.09,251.88 1330.91,247.83C1331.02,245.41 1331.21,243 1331.48,240.59C1335.72,237.26 1335.98,231.26 1338.8,226.89C1337.83,216.25 1343.23,206.54 1342.96,196C1342.69,189.11 1344.19,182.31 1346.71,175.93C1352.31,172.6 1351.22,164.08 1349.23,158.81C1349.13,158.41 1348.93,157.6 1348.83,157.2C1350.13,152.89 1350.24,148.37 1348.94,144.07C1353.03,140.49 1353,134.51 1356.66,130.68C1359.78,127.92 1361.11,123.87 1363.85,120.84C1367.78,117.78 1368.25,112.66 1369.16,108.09Z" style="fill:rgb(243,125,115);fill-rule:nonzero;"/>
        <path d="M432.24,754.74C437.34,756.49 442.59,755.4 447.76,754.63C458.85,755.97 470.24,756.45 480.88,760.06C484.69,761.56 488.66,763.23 492.89,762.56C499.14,761.57 504.95,765.76 511.25,764.79C521.96,764.75 530.24,772.38 540.3,774.71C545.98,778.29 552.71,779.42 558.63,782.41C565.08,788.34 573.74,790.91 580.28,796.72C593.57,805.78 605.54,816.64 616.53,828.37C621.08,830.34 622.9,835.34 626.34,838.66C632.83,844.56 637.77,851.94 644.2,857.85C481.07,858.07 317.91,858.14 154.78,857.82C157.78,856.14 160.55,853.99 163.84,852.91C166.53,852.02 169.15,850.92 171.68,849.65C174.14,848.29 173.89,844.75 176.28,843.29C181.39,840.23 186.27,836.38 189.17,831.07C193.63,824.72 200.31,820.78 206.59,816.51C212.91,810.22 220.26,804.75 228.74,801.77C233.01,802.95 236.93,800.56 239.09,796.98L239.82,796.74C244.11,796.62 248.49,797.45 252.77,796.83C254.68,795.39 255.52,793.14 255.99,790.89C262.18,782.15 274.89,788.37 281.77,780.76C285.86,776.03 292.51,777.22 297.8,774.92C301.49,775.56 304.61,773.41 306.91,770.77C311.32,770.29 313.61,766.3 317.1,764.15C321.26,763.49 325.74,764.35 329.75,762.77C333.86,762.53 338.26,763.59 342.28,762.26C345.42,762 348.52,761.87 351.68,761.69C354.79,760.57 356.53,756.29 360.61,758.61C368.17,759.36 375.79,758.16 383.12,756.3C394.99,755.67 406.84,754.84 418.73,754.78C423.23,754.93 427.72,754.84 432.24,754.74Z" style="fill:rgb(243,125,115);fill-rule:nonzero;"/>
        <path d="M242.07,108.04C293.76,108.01 345.45,107.9 397.13,108.09C392.09,115.92 386.35,123.2 380.31,130.28C376.15,138.1 370.72,145.16 364.15,151.13C359.81,154.23 358.84,160.34 354.01,163.01C349.78,165.78 347.46,170.52 343.38,173.43C337.23,178.21 331.73,183.73 326,189C319.43,195.22 311.56,199.85 304.41,205.31C304.26,205.7 303.95,206.48 303.79,206.87C303.1,206.88 301.71,206.89 301.01,206.89C301.08,203.65 301.86,200.44 301.91,197.21C300.46,195.12 296.31,194.71 295.29,197.3C293.52,200.14 294.36,203.64 293.82,206.81C290.51,207.14 286.27,207.25 284.97,211C285.55,212.66 286.61,214.09 287.92,215.26C288.97,218.99 284.55,219.23 282.08,220.12C281.93,216.71 283.22,210.62 278.71,209.28C277.51,208.58 276.36,209.92 275.26,210.27C273.45,215.59 275.73,221.37 273.9,226.77C271.55,227.69 269.47,229.18 267.14,230.12C267.02,229.28 266.79,227.61 266.68,226.77C267.23,222.93 267.76,219.08 268.23,215.23C268.82,210.8 269.84,206.08 268.34,201.73C268.09,199.29 268.08,196.6 265.75,195.15C261.51,194.04 259.9,199.66 260.54,202.94C253.69,201.5 246.17,205.94 244.62,212.83C243.24,215.03 242.59,218.36 244.79,220.14C245.11,226.1 250.9,229.04 256.01,230.37C253.19,233.7 248.11,232.3 244.23,233.24C241.4,236.65 243.66,241.62 248.19,241.4C240.17,243.96 235.26,251.84 227.04,254.13C222.85,254.93 221.66,259.49 218.03,261.07C214.79,262.72 212.1,265.82 208.28,266.11C206.51,264.14 205,260.81 201.31,263.23C198.6,264.82 195.93,269.05 198.05,272.04C197.28,274.77 194.73,276.09 192.02,276.17C187.02,269.36 194.04,260.62 200.53,257.5C204.63,254.72 202.14,249.23 198.02,248.11C183.81,251.11 175.65,269.42 183.17,281.83C177.87,283.96 173.24,287.23 168.59,290.49C158.28,294.33 149.12,300.71 138.97,304.94C133.83,306.52 129.65,310.29 124.35,311.46C117.39,313.47 111.03,317.14 104.11,319.23C103.94,280.88 103.9,242.51 104.11,204.17C110.7,201.69 116.95,198.48 123.17,195.22C128.17,192.93 131.22,187.2 137.29,187.23C150.91,179.5 164.33,171.27 177.12,162.19C192.85,154.04 207.42,143.52 220.06,131.12C226.46,126.91 230.02,119.67 236.03,115.03C239.25,113.7 239.61,110.04 242.07,108.04M189.28,191.28C185.09,192.58 184.45,199.49 188.19,201.82C192.13,207.91 199.55,209.76 205.37,213.51C207.2,214.56 210.29,214.63 211.01,216.89C202.23,222.39 191.01,226.32 185.99,236C186.82,241.61 194.54,241.48 197.54,237.53C205.49,231.28 214.6,226.64 223.02,221.05C228.24,219.63 227.78,211.83 223.02,209.97C215.04,207.02 207.65,202.71 200.04,198.95C196.11,197.04 193.84,191.09 189.28,191.28M232.24,192.15C228.33,195.56 227.26,204.02 233.06,205.99C241.48,207.02 241.95,188.69 232.24,192.15M275.18,192.08C273.57,194.01 272.62,196.45 272.95,198.99C269.9,204.65 279.28,208.72 281.83,203.74C282.43,199 283.29,189.47 275.18,192.08M231.01,212.98L230.04,213.02C229.81,217.76 230.04,222.51 230.26,227.25C229.44,231.75 231.15,236.25 231.21,240.75C232.9,241.67 235.46,242.95 236.81,240.81C238.69,239.5 237.8,236.93 238,235L238.98,234.98C239.16,230.57 238.95,226.14 238.73,221.75C239.08,217.5 239.92,212.52 236.83,209.09C234.2,208.21 230.74,209.98 231.01,212.98M186.23,210.13C183.25,212.63 180.69,218.64 184.76,221.24C188.05,224.35 195.92,223.03 196.3,218.11C198.2,212.87 191.2,207.57 186.23,210.13Z" style="fill:rgb(238,61,74);fill-rule:nonzero;"/>
        <path d="M617.08,108.06C625.1,107.98 633.14,107.82 641.17,108.1C637.45,113.69 630.81,116.74 628,123C625.57,129.97 615.96,130.78 614.17,138.13C612.76,144.11 607.78,147.69 603.31,151.32C597.04,159.71 592.25,169 587.03,178.03C575.51,195.67 565.46,214.43 558.26,234.28C554.1,242 552.01,250.46 549.83,258.88C545.32,271.58 539.31,283.6 533.91,295.92C529.99,303.61 524.18,310.3 521.54,318.63C516.9,323.59 513.12,329.33 510.44,335.57C500.97,350.12 490.44,364 479.2,377.22C474.53,380.22 469.07,383.41 468.51,389.57C465.89,391.32 463.04,392.95 462.11,396.19C457,400.71 452.65,406.04 447.37,410.36C441.95,418 433.11,422.08 427.69,429.69C425.03,431.77 421.43,432.67 419.07,435.07C415.14,441.29 408.01,444.21 401.95,447.9C394.7,451.3 389.43,457.95 381.9,460.85C373.26,463.45 366.41,469.87 357.89,472.78C347.63,475.12 339.78,482.98 329.09,484.14C323.86,487.24 317.95,488.73 312.07,490.18C302.24,493.4 292.45,497.5 282.02,498.11C275.53,498.68 269.54,501.85 262.99,501.85C255.32,501.91 247.91,503.96 240.27,504.28C237.06,504.14 233.79,503.54 230.73,504.69C224.38,505.27 217.96,506.56 211.59,505.6C203.7,503.02 196.72,508.91 188.92,508.75C176,507.53 163.06,509.54 150.1,509.24C139.13,511.53 127.86,508.15 117,510.58C112.68,510.16 108.3,509.98 104.04,510.97C103.98,504.98 103.84,499 104.06,493.04C121.93,492.35 139.81,491 157.67,491.46C171.26,489.48 184.99,490.47 198.62,489.51C205.82,487.46 213.35,488.18 220.73,487.74C223.57,487.75 226.53,488.33 229.27,487.31C236.6,486.44 244.17,486.52 251.34,484.59C264.31,485.11 276.72,479.61 289.59,478.44C302.84,476.85 314.41,469.21 327.39,466.46C336.44,465.16 343.49,458.73 352.09,456.09C359.32,453.46 364.74,447.5 372.16,445.21C381.82,441.57 389.29,434.12 398.37,429.41C403.71,426.62 407.8,422.19 411.92,417.92C421.35,412.06 428.21,402.8 437.47,396.5C446.56,386.28 455.3,375.63 465.57,366.59C470.03,360.13 474.91,354.04 480.73,348.75C483.41,342.73 488.38,338.34 491.64,332.66C497.53,324.09 502.09,314.8 508.42,306.6C508.49,301.38 513.5,298.64 514.86,293.95C516.14,288.44 522.13,285.76 523.1,280.04C525.97,274.57 527.41,268.58 530.02,263C534.4,252.46 536.29,241 541.91,230.96C543.72,225.01 544.86,218.62 548.29,213.29C550.93,208.43 555.01,204.17 555.59,198.41C556.08,196.69 556.68,195 557.38,193.36C559.94,191.37 562.7,189.55 561.48,185.4C569.67,176.2 574.68,164.82 581.89,154.92C585.43,147.37 589.49,139.29 597.07,135.08C599.29,133.9 599.24,131.15 600.14,129.09C603.34,120.21 613.67,116.73 617.08,108.06Z" style="fill:rgb(238,61,75);fill-rule:nonzero;"/>
        <path d="M702.02,108.01C702.59,108.04 703.72,108.11 704.29,108.14C703.62,110.15 702.12,111.57 700.17,112.32C700.74,110.86 701.34,109.42 702.02,108.01Z" style="fill:rgb(240,98,98);fill-rule:nonzero;"/>
        <path d="M704.29,108.14C720.56,107.88 736.85,107.93 753.13,108.09C750.57,116.53 746.4,124.39 742.04,131.99C740.57,137.68 738.89,143.37 735.43,148.23C734.19,154.94 727.91,159.51 727.38,166.55C721.46,175.98 719.11,187.21 711.89,195.81C710.42,200.48 709.47,205.55 706.72,209.75C700.19,218.12 699.87,229.54 692.45,237.41C689.47,246.97 683.72,255.33 680.75,264.87C679.35,268.25 682.63,271.44 682.28,274.86C686.26,277.45 691.25,279.98 696.12,278.19C700.77,277.05 703.34,272.73 706.5,269.51C709.8,266.89 710.48,262.34 713.28,259.28C716.38,256.05 719.5,252.85 722.51,249.54C725.67,247.36 729.35,245.25 730.48,241.32C739.93,236.59 746.7,228.36 754.57,221.56C759.74,215.1 766.32,209.93 771.38,203.37C775.65,200.44 780.27,197.49 782.62,192.66C784.41,188.77 788.68,187.31 791.95,184.96C795.06,183.14 797.02,180.01 799.44,177.43C806.81,171.49 812.15,163.53 819.27,157.29C822.31,155 822.16,150.47 825.61,148.55C828.79,146.31 829.78,142.14 833.38,140.4C841.9,133.11 847.5,123.14 854.35,114.36C856.25,112.48 858.52,110.87 859.27,108.14C899.19,107.87 939.14,107.99 979.07,108.07C977.86,116.27 978.74,124.82 975.81,132.72C973.99,143.55 973.79,154.79 970.48,165.35C970.2,172.24 968.9,179.08 968.98,186.02C968.99,189.57 966.21,192.75 967.52,196.35C967.91,203.03 966.1,209.69 965.53,216.33C965.72,233.42 960.38,249.79 959.76,266.86C956.63,271.97 956.97,278.16 955.8,283.87C952.67,293.48 949.92,303.78 952.13,313.89C954.38,317.96 960.14,322.69 965.12,320.16C975.04,316.56 981.28,307.63 989.59,301.56C991.82,300.18 991.43,296.99 993.33,295.31C1001.96,289.86 1009.63,283.06 1017.12,276.16C1026.72,270.39 1032.98,260.54 1042.45,254.54C1048.09,247.4 1058,244.84 1062.36,236.41C1072.88,231.01 1079.29,220.59 1088.76,213.75C1091.54,208.58 1095.77,204.77 1100.63,201.62C1105.48,195.23 1109.14,187.52 1116.69,183.74C1117.69,180.92 1118.81,178.15 1121.41,176.41C1124.25,171.03 1129.51,167.72 1132.42,162.38C1135.58,158.43 1137.01,153.29 1140.85,149.87C1145.4,140.98 1150.03,132.1 1155.66,123.83C1156.18,117.74 1159.15,111.7 1164.21,108.16C1204.52,107.88 1244.87,107.92 1285.18,108.12C1284.07,110.2 1282.94,112.3 1282.64,114.68C1281.41,123.03 1277.11,130.53 1275.6,138.81C1274.21,143.13 1272.36,147.27 1270.69,151.48C1270.3,158.07 1266.21,163.58 1265.13,170.02C1264.79,173.49 1263.44,176.57 1261.17,179.13C1257.01,187.61 1254.47,196.84 1250.52,205.39C1250.19,210.17 1248.68,214.81 1245.52,218.44C1245.67,227.39 1237.44,233.87 1237.96,243.02C1232.47,256.41 1228.12,270.49 1224.45,284.58C1220.4,293.44 1215.93,302.09 1212.08,311.03C1210.19,315.85 1205.87,319.2 1203.86,323.94C1199.73,332.8 1192.91,339.93 1188.5,348.62C1184.16,354.77 1181.91,362.22 1177.01,368.01C1173.68,371.63 1172.85,376.84 1169.23,380.22C1165.22,383.79 1164.08,389.37 1159.92,392.84C1157.76,398.27 1153.41,402.21 1149.48,406.38C1148.59,411.72 1144.02,415.24 1142.04,420.13C1138.06,425.96 1135.29,432.45 1131.24,438.23C1128.13,442.19 1128.42,447.9 1124.28,451.25C1120.14,455.47 1119.83,462.31 1114.58,465.58C1111.5,470.41 1107.23,474.21 1102.85,477.83C1096.69,486.24 1087.48,491.9 1081.39,500.34C1078.72,506.46 1071.75,508.74 1068.14,514.15C1061.91,519.94 1057.54,527.77 1050.12,532.17C1045.89,534.81 1042.46,538.45 1038.57,541.51C1030.22,547.12 1024.06,555.23 1015.57,560.55C1005.9,570.97 995.42,580.78 983.35,588.36C980.87,591.44 978.42,594.66 974.34,595.41C968.78,597.29 965.38,602.67 959.95,604.9C955.66,606.39 954.04,611.15 949.94,612.93C943.2,616.7 938.03,622.65 931.18,626.28C925.23,630.54 918.03,632.66 912.37,637.38C899.66,646.48 886,654.75 874.77,665.76C869.15,669.81 865.99,676.32 860.42,680.44C856.25,687.78 849.15,693.22 846.28,701.31C845.11,704.56 840.34,705.15 839.85,708.89C838.67,715.42 832.66,719.57 830.83,725.89C824.1,737.2 817.18,748.51 811.47,760.34C809.85,766.58 804.14,771.2 803.73,777.89C802.44,783.77 797.89,788.02 795.35,793.31C792.34,804.87 787.15,815.92 785.81,827.88C785.16,829.93 782.95,831.16 782.48,833.37C782.07,837.68 779.45,841.25 778.49,845.39C777.9,849.74 775.9,853.69 774.78,857.89C761.87,858.07 748.95,858.07 736.04,857.95C732.25,851.42 727.66,845.07 726.34,837.47C724.64,832.8 721.81,828.66 719.9,824.09C717.77,818.66 712.99,814.89 710.09,809.96C703.94,797.71 693.28,788.7 685.55,777.5C679.89,775.06 679.84,767.47 674.7,764.31C667.53,761.01 664.3,753.23 657.24,749.76C651.91,742.4 644.52,737.11 637.92,731.09C630.85,726.16 623.25,721.96 616.79,716.23C609.22,709.84 599.29,707.4 591.23,701.78C585.97,698.35 579.45,696.93 573.27,697.2C570.96,699.61 568.78,702.13 566.21,704.28C566.73,708.35 567.72,713.15 572,714.98C577.39,717.08 582.29,720.22 587.67,722.35C592.89,723.55 595.65,728.88 600.91,730.13C608.35,734.9 614.38,742.18 623.01,745C627.31,745.73 627.44,751.3 631.31,752.68C634.21,753.99 635.74,756.94 638.18,758.83C648.73,768.58 659.73,778.09 668.45,789.58C681.23,801.12 689.37,816.61 699.76,830.22C704.74,839.18 708.5,848.77 713.22,857.87C690.22,858.04 667.19,858.15 644.2,857.85C637.77,851.94 632.83,844.56 626.34,838.66C622.9,835.34 621.08,830.34 616.53,828.37C605.54,816.64 593.57,805.78 580.28,796.72C573.74,790.91 565.08,788.34 558.63,782.41C552.71,779.42 545.98,778.29 540.3,774.71C530.24,772.38 521.96,764.75 511.25,764.79C501.57,761 491.15,760.53 480.88,760.06C470.24,756.45 458.85,755.97 447.76,754.63C442.59,755.4 437.34,756.49 432.24,754.74C427.82,754.15 422.99,752.95 418.73,754.78C406.84,754.84 394.99,755.67 383.12,756.3C375.79,758.16 368.17,759.36 360.61,758.61C356.53,756.29 354.79,760.57 351.68,761.69C348.52,761.87 345.42,762 342.28,762.26C338.16,762.46 333.72,761.27 329.75,762.77C325.74,764.35 321.26,763.49 317.1,764.15C313.61,766.3 311.32,770.29 306.91,770.77C303.63,771.56 300.89,773.64 297.8,774.92C292.51,777.22 285.86,776.03 281.77,780.76C274.89,788.37 262.18,782.15 255.99,790.89C249.06,789.16 246.65,797.57 239.82,796.74L239.09,796.98C235.48,798.2 232.26,800.32 228.74,801.77C220.26,804.75 212.91,810.22 206.59,816.51C200.31,820.78 193.63,824.72 189.17,831.07C188.14,831.33 187.11,831.62 186.09,831.94C179.66,830.76 176.79,838.93 170.34,838.4C167.04,841.13 167.91,846.44 166.21,850.23C165.42,851.12 164.63,852.01 163.84,852.91C160.55,853.99 157.78,856.14 154.78,857.82C137.89,858.23 120.95,857.93 104.04,857.96C104.03,829.7 103.87,801.42 104.09,773.17C107.68,773.46 109.63,770.07 112.39,768.4C116.1,765.74 121.1,764.53 122.85,759.84C135.36,753.89 146.13,744.57 157.36,736.42C161.9,734.99 166.07,732.99 169.42,729.56C171.41,728.59 173.66,727.92 175.1,726.13C183.08,721.09 191.66,716.9 199.33,711.36C207.64,707.76 215.6,703.49 223.89,699.84C230.9,696.83 236.91,690.61 245.04,691.04C248.46,690.97 250.95,688.17 254.07,687.14C267.82,684.09 280.65,677.49 294.64,675.52C299.76,673.14 305.51,672.98 310.66,670.69C321.05,670.56 330.49,664.82 341.02,666C344.39,666.46 346.44,662.23 349.88,663.2C361.66,665.14 373.48,662.27 385.31,662.41C392.77,662.78 400.36,663.34 407.72,661.7C411.83,659.32 418.26,654.38 415.08,648.96C413.99,645.61 410.81,643.68 407.93,642.05C392.6,641.64 377.34,643.53 362.01,643.14C354.61,644.37 346.8,642.95 339.7,645.72C331.33,648.93 321.21,645.26 313.53,650.4C302.67,651.04 292.99,657.06 282.1,657.23C271.18,660.5 260.8,665.95 249.35,667.36C245.51,674.09 236.78,669.88 231.55,674.45C227.58,677.35 222.28,677.28 218.56,680.51C210.7,684.33 201.82,686.29 194.89,691.87C184.25,697.93 173.74,704.23 162.8,709.77C159.13,711.3 157.32,715.82 153.13,716.26C148.49,717.47 146,721.66 142.64,724.59C136.54,727.55 131.13,731.66 125.64,735.6C117.36,738.51 111.59,745.72 104.1,750.17C103.91,692.75 103.99,635.32 104.06,577.9C107.59,578.46 111.12,578.98 114.72,578.76C119.86,578.56 125.27,579.96 130.28,578.34C136.58,575.93 143.31,575.1 149.98,574.43C154.22,575.37 158.58,574.86 162.75,573.78C165.67,573.67 168.91,574.75 171.49,572.99C175.19,572.55 179.35,573.56 182.87,571.92C186.65,571.88 191.08,572.99 194.15,570.1C199.14,567.02 205.39,568.85 210.65,566.58C215.09,564.63 219.57,562.77 224.19,561.29C231.15,559.74 238.8,560.9 245.18,557.15C250.32,554.69 256.14,554.15 261.12,551.22C268.09,550.51 276,551.46 281.96,546.93C287.19,543.31 293.58,542.19 299.14,539.21C308.12,536.27 317.66,535.43 326.68,532.64C337.04,527.72 347.02,521.92 357.73,517.75C363.04,518.19 368.65,517.01 373.17,514.15C374.39,513.4 375.6,512.64 376.81,511.88C381.35,511.46 385.82,510.35 389.12,507.03C394.55,504.5 400.56,503.52 405.96,500.89C415.09,495.85 424.3,490.89 432.8,484.81C434.92,483.28 437.49,482.76 439.98,482.05C445.5,482.3 451.3,479.93 453.87,474.77C457.71,472.25 461.52,469.64 465.71,467.72C468.4,467.09 472.68,467.85 473.26,464.2C473.58,457.39 481.05,456.82 485.83,454.01C489.47,452.77 492.28,449.83 493.18,446.07C494.95,444.5 496.62,442.71 498.88,441.83C502.45,440.51 503.3,436.32 506.09,434.08C510.12,428.54 515.44,424.23 519.72,418.88C523.88,418.8 525.95,414.45 524.81,410.75C527.39,407.36 529.96,403.8 533.94,401.92C538.92,400.25 536.84,393.39 540.84,390.88C545.69,387.98 541.41,380.87 543.63,376.64C544.5,374.5 547.12,374.15 548.89,372.96C550.75,371.84 553.51,371.58 554.41,369.35C555.55,367.7 554.28,365.78 554.07,364.05C557.48,358.7 558.37,350.59 565.05,348.11C566.39,347.58 568.04,347.17 568.59,345.65C568.97,341.17 571.25,337.16 571.83,332.75C574.24,329.65 577.79,327.45 578.44,323.26C582.65,317.59 585.3,311.05 587.08,304.22C591.04,302.16 589.79,297.63 589.86,293.89L590.04,293.14C592.86,291.28 593.34,287.87 592.84,284.77C597.67,280.43 600.88,274.8 604.26,269.33C607.35,266.45 605.51,261.63 605.91,257.88C606.97,253.08 609.1,248.66 611.01,244.17C614.3,242.2 615.72,238.76 616.17,235.09C617.76,233.68 619.52,232.28 620.25,230.19C622.49,224.34 626.96,219.5 628.44,213.36C631.11,211.7 632.61,209.22 633,206.11C636.62,203.4 641.06,200.91 642.18,196.18C643.9,193.93 645.83,191.86 647.66,189.69C647.95,187.57 646.65,185.49 646.05,183.49C645.99,183.06 645.86,182.22 645.79,181.8C646.92,180 648.17,178.25 649.81,176.87C651.11,176.4 653.7,175.46 654.99,174.99C658.78,173.48 659.18,169.12 661.07,166.05C666.18,161.43 667.91,154.43 672.19,149.17C676.46,144.83 678.04,138.65 682.36,134.36C688.78,127.32 691.92,117.61 700.17,112.32C702.12,111.57 703.62,110.15 704.29,108.14M846.32,203.21C845.13,206.12 842.71,208.45 842.73,211.78C835.47,214.59 839.03,224.36 833.81,228.79C831.47,232.14 830.94,236.48 829.26,240.15C829.12,248.2 824.47,255.04 822.62,262.65C819.48,265.72 821.72,270.77 819.2,274.22C815.18,280.01 812.72,286.76 808.41,292.34C807.75,298.43 802.33,302.64 801.56,308.68C800.18,311.65 798.82,314.63 797.64,317.69C792.78,321.85 789.71,327.71 785.09,332.14C785.11,324.72 784.16,317.33 783.47,310C784.36,308.17 785.14,304.05 783,303.14C783.42,297.16 781.3,291.16 776.82,287.12C769.46,285.36 760.29,293.41 762.61,300.83C757.74,308.27 755.36,316.87 752.27,325.12C753.02,329.39 749.13,331.9 748.64,335.81C745.52,340.75 743.74,346.28 741.55,351.64C737.93,356.07 735.78,361.42 733.55,366.63C726.53,376.86 719.89,387.3 711.65,396.61C694.09,407.74 677.66,420.42 662.39,434.36C658.58,440.13 654.36,445.6 649.69,450.7C646.38,453.9 646.9,459.25 643.39,462.35C638.81,467.08 637.92,473.94 636.05,479.99C633.93,479.57 635.42,482.8 635.02,483.98C632.67,485.93 633.23,492.09 633.1,495.05L634.16,495C636.2,498.31 631.48,501.12 632.47,504.66C631.66,508.07 634.2,511.34 633.9,514.81C631.42,516.72 628.6,518.16 626.2,520.16C624.94,522.07 623.95,524.46 621.24,524.29C616.99,528.85 614.65,534.62 609.99,538.99C602.61,546.57 600.52,557.62 599.4,567.69C599.4,570.08 597.67,575.31 600.11,575.95C601.08,579.59 603.29,582.79 603.37,586.69C611.15,603.91 630.78,613.04 648.99,613.9L649.01,614.95C652.43,615.17 655.8,614.86 659.26,614.69C664.94,615.69 670.85,616.1 676.02,618.94C678.15,619.66 680.59,621.59 682.77,619.82C685.67,620.71 688.17,619.12 690.32,617.37C693.25,618.02 695.86,615.85 698.78,616.49C700.17,616.2 701.86,614.24 702.85,616.14C701.98,618.34 699.75,621.13 701.66,623.34C703.52,625.53 706.9,621.64 708.25,624.71C709.57,625.25 708.16,628.59 710,627.76C712.77,630.76 716.98,631.73 720.94,631.74C736.11,631.76 751.33,630.9 766.31,627.36C789.37,620.97 809.87,607.39 827.04,591.03C830.57,586.58 834.03,582.07 837.72,577.75C839.32,575.29 839.56,571.76 842.67,570.6C843.37,566.4 845.71,562.82 846.98,559.02C844.08,553.37 852.49,552.8 850.44,547.34C850.06,540.84 853.31,534.53 852.22,528.27C853.58,526.85 856.11,525.27 854.53,523.01C855.63,520.93 855.61,518.06 854.48,516.01C856.21,512.37 855.52,508.77 854.97,505.01L855.96,504.99C856.16,498.9 856.04,492.8 855.69,486.74C856.46,482.89 856.65,478.98 856.21,475.08C857.07,473.05 857.09,470.92 856.17,468.91C857.54,459.33 856.88,449.64 857.01,440C857.25,437.5 857.74,432.5 857.98,430L856.97,430C856.78,427.59 857.4,425.3 857.99,423.01C858.24,420.51 858.73,415.53 858.97,413.03L857.94,412.88L857.54,412.01C858.65,409.94 858.6,407.09 857.53,405.03C857.63,404.53 857.83,403.54 857.92,403.04L858.98,402.99C858.92,400.18 858.81,394.56 858.75,391.75C859.24,388.42 857.82,385.31 858.99,382.02L859.96,381.98C860.18,377.23 859.93,372.47 859.73,367.75C859.94,366.17 860.03,364.58 860.03,363L860.98,362.99C861.06,355.99 861.03,348.99 860.97,342L859.99,341.99C859.8,339.7 861.66,337.56 860.66,335.31C861.05,331.12 861.08,326.94 860.76,322.75L861.85,323.03C862.13,317.59 862.07,312.16 861.68,306.74C860.4,301.78 863.09,296.7 861.32,291.71C860.47,289.42 862.13,287.31 861.96,285.02C864.58,284.03 861.96,278.22 862.75,275.75C862.99,274.26 862.98,272.74 862.74,271.26C863.23,267.78 862.91,264.24 862.77,260.77L863.88,261.03C864.23,256.61 863.9,252.16 863.75,247.75C864.21,245.77 863.85,243.8 863.21,241.92C864.14,234.89 861.96,227.97 862.28,220.95C863.38,215.25 861.13,209.55 859.98,204.04C855.84,200.72 850.92,200.62 846.32,203.21M926.3,361.33C923.71,363.29 917.73,363.84 918.13,367.88C914.99,368.82 917.6,376.4 920.08,377.99C921.17,380.06 924.73,380.32 927,381.01C934.13,383.15 942.2,374.77 938.03,367.96C936.38,363.3 930.82,360.96 926.3,361.33M483.31,657.28C481.55,657.67 480.85,659 480.59,660.67C478,663.73 475.13,667.33 476.27,671.7C477.9,675.13 481.09,678.53 484.99,679.03C491.22,682.07 491.41,674.18 495.65,672.6C497.98,671.98 496.5,669.48 496.3,667.89C495.98,661.35 490.6,654.43 483.31,657.28Z" style="fill:rgb(238,60,74);fill-rule:nonzero;"/>
        <path d="M1304.05,108.07C1325.74,107.99 1347.45,107.88 1369.16,108.09C1368.25,112.66 1367.78,117.78 1363.85,120.84C1361.11,123.87 1359.78,127.92 1356.66,130.68C1353,134.51 1353.03,140.49 1348.94,144.07C1345.05,147.36 1347.86,153.24 1348.83,157.2C1348.93,157.6 1349.13,158.41 1349.23,158.81C1350.15,164.78 1347.87,170.25 1346.71,175.93C1344.19,182.31 1342.69,189.11 1342.96,196C1343.23,206.54 1337.83,216.25 1338.8,226.89C1335.98,231.26 1335.72,237.26 1331.48,240.59C1331.21,243 1331.02,245.41 1330.91,247.83C1329.95,250.11 1328.32,251.98 1327.07,254.07C1327.32,255.8 1327.87,257.46 1328.24,259.17C1330.27,265.59 1323.96,269.51 1324.59,275.69C1321.08,281.75 1323.16,289.04 1320.46,295.37C1318.81,302 1311.7,305 1308.9,310.95C1306.55,314.77 1303.54,318.14 1302.56,322.65C1298.32,328.31 1297.2,335.87 1291.6,340.59C1291.39,345.95 1290,350.95 1287.86,355.8C1286.82,357.42 1285.94,359.22 1284.36,360.38C1281.74,361.9 1284.15,365.01 1284.32,367.2C1282.97,374.65 1273.43,376.61 1271.85,383.9C1271.34,387.09 1268.25,388.27 1266.14,390.24C1265.36,393.64 1268.18,396.56 1267.98,399.92C1266.55,405.74 1257.86,407 1258.87,413.84C1256.47,416.86 1253.73,419.73 1255.07,424.13C1250.24,428.64 1246.76,434.53 1241.29,438.3C1239.29,440.63 1238.95,443.93 1237.6,446.64C1235.88,448.25 1233.72,449.38 1232.34,451.31C1233.93,458.47 1225.97,461.43 1224.9,467.82C1223.65,469.62 1222.26,471.31 1220.83,472.96C1219.8,473.86 1218.85,474.83 1217.99,475.89C1213.97,478.52 1208.8,480.68 1207.83,485.93C1204.18,491.19 1200.68,496.48 1195.39,500.25C1194.74,507.24 1188.91,512.46 1184.07,517.01C1179.87,517.45 1177.1,520.39 1179.15,525.17C1176,530.66 1170.77,534.91 1164.66,536.65C1160.17,538.16 1154.45,540.53 1153.75,545.88C1153.14,549.98 1148.63,551.27 1145.96,553.84C1143.87,554.2 1141.71,554.71 1140.11,556.16C1139.96,557.85 1140.1,559.54 1140.21,561.24C1137.34,564.66 1132.72,565.82 1129,567.99C1117.65,573.68 1108.1,582.44 1096.43,587.56C1092.5,589.9 1088.35,591.92 1084.73,594.72C1076.77,601.77 1067.3,606.76 1058.37,612.4C1054.49,616.85 1048.7,618.52 1044.14,622.03C1040.3,624.45 1035.41,626.29 1033.75,630.92C1031.2,633.34 1028.68,635.8 1025.84,637.89C1022.11,642.36 1018.44,647.56 1012.07,648.16C1007.6,648.33 1006.18,652.83 1003.9,655.81C999.01,658.41 993.15,660.54 990.8,665.94C988.83,668.58 986.56,671.03 984.94,673.91C982.68,675.96 979.46,676.3 977.14,678.22C977.14,679.71 977.13,682.69 977.13,684.18C970.46,687.07 968.44,694.97 962.01,698.02C956.62,700.12 954.45,705.84 950.89,709.92C947.98,713.95 943.85,717.1 941.8,721.73C938.28,722.56 935.56,725.38 936.09,729.2C933.47,731.53 931.18,734.2 928.7,736.66C925.97,738.26 922.09,738.32 920.41,741.34C920.6,745.79 917.82,749.01 914.84,751.79C910.87,753.87 906.83,756.25 905.85,760.95C905.69,765.47 899.08,765.57 900.05,770.13C895.55,776.24 889.65,781.18 885.79,787.78C882.99,790.46 881.6,794.01 880.6,797.67C879.64,800.2 876.79,801.13 875.36,803.32C876.23,810.32 869.76,814.28 866.9,819.84C864.96,824.07 862.83,828.23 859.27,831.32C859.06,834.58 859.89,837.8 860.1,841.08C859.66,841.97 859.24,842.88 858.85,843.8C856.91,847.86 854.52,851.71 852.8,855.88C852.55,856.38 852.05,857.38 851.8,857.88C832.84,858.15 813.87,857.97 794.92,857.95C796.18,856.58 797.16,854.98 797.05,853.04C796.34,848.47 799.4,844.93 800.9,840.98C804.56,826.34 810.47,812.38 815.1,798.04C819.2,791.89 821.29,784.8 824.08,778.05C828.4,772.77 829.18,765.64 833.08,760.09C838.76,751.62 844.19,742.93 848.75,733.83C850.23,728.89 854.61,725.59 855.46,720.37C861.45,714.43 864.62,706.55 870.23,700.22C875.09,691.63 883.2,685.84 890.58,679.59C894.92,674.25 900.74,670.39 905.96,665.95C910.78,661.48 917.36,659.64 922.23,655.24C932.12,648.43 943.39,643.54 952.35,635.39C955.88,632.37 960.66,631.2 964.09,628.11C967.6,622.38 975.43,621.73 979.46,616.44C982.47,611.36 989.3,611.44 992.77,606.77C1003.49,598.63 1015.46,591.65 1023.93,580.94C1030.39,575.64 1034.74,568.08 1042.63,564.6C1046.25,560.45 1051.69,558.41 1054.98,553.98C1058.07,548.47 1065.11,547.72 1068.77,542.77C1073.79,536.47 1080.48,531.81 1085.27,525.28C1093.46,520.89 1094.99,510.4 1103.61,506.62C1110.94,496.05 1124.08,490.36 1129.39,478.36C1131.2,476.55 1133.94,475.49 1134.83,472.89C1135.88,469.42 1138.91,467.02 1139.51,463.38C1141.57,460.98 1143.76,458.55 1144.42,455.35C1145.84,449.73 1150.55,445.76 1152.46,440.36C1154.15,435.96 1158.78,433.22 1159.52,428.38C1165.5,421.18 1170.19,413.05 1175.21,405.18C1181.86,397.3 1186.74,388.12 1192.85,379.84C1196.87,376.03 1198.49,370.61 1200.58,365.65C1201.6,361.24 1205.54,358.64 1208.55,355.63C1209.24,353.21 1209.61,350.38 1211.93,348.91C1219.11,343.01 1220.1,332.94 1226.15,326.2C1228.66,324.07 1227.69,320.23 1229.84,317.82C1232.55,314.66 1233.17,310.13 1236.44,307.42C1237.87,305.68 1236.89,303.06 1238.15,301.2C1245.13,288.25 1245.63,273.26 1252,260C1254.45,255.55 1254.84,250.35 1255.52,245.42C1262.14,235.61 1263.8,223.5 1268.97,212.96C1271.62,207.35 1272.25,200.95 1275.55,195.63C1280.22,186.73 1282.25,176.75 1286.71,167.85C1287.72,156.48 1295.6,146.94 1295.58,135.44C1300.51,127.1 1301.83,117.35 1304.05,108.07Z" style="fill:rgb(238,60,74);fill-rule:nonzero;"/>
        <path d="M1382.95,559.12C1385.9,556.67 1388.13,553.49 1390.81,550.74C1391.11,594.41 1391.13,638.13 1390.83,681.79C1387.73,686.62 1384.7,691.56 1380.75,695.74C1378.5,697.72 1378.52,700.94 1377.52,703.57C1375.38,705.72 1372.41,707.23 1371.01,709.99C1368.69,717.2 1362.48,722.19 1358.48,728.36C1357.59,732.1 1354.96,734.72 1352.24,737.25C1342.97,751.22 1333.07,765.16 1320.53,776.43C1315.05,788.11 1304.16,795.45 1296.23,805.23C1285.13,813.77 1276.91,825.5 1266.11,834.1C1262.55,840.85 1254.3,842.98 1250.47,849.46C1246.88,851.83 1243.6,854.6 1240.78,857.85C1202.47,858.14 1164.13,858.02 1125.81,857.92C1125.98,851.99 1135.38,851.29 1135.05,845.03C1138.23,843.2 1137.29,838.42 1141.07,837.05C1143.84,834.78 1146.9,832.37 1147.69,828.67C1149.27,819.75 1160.37,817.67 1162.98,809.84C1164.64,808.25 1166.54,806.88 1167.92,805.01C1170.11,802.43 1171.15,799 1173.76,796.76C1175.75,794.18 1179.34,792.44 1179.97,788.98C1183.25,786.57 1186.28,783.43 1190.38,782.5C1194.02,781.85 1199.12,780.29 1200.09,776.09C1203.66,775.34 1204.72,771.35 1207.63,769.59C1210.2,767.87 1210.88,764.65 1211.9,761.94C1217.4,755.42 1227.3,755.48 1231.82,747.81L1232.29,747.09C1233.1,746.36 1233.93,745.63 1234.79,744.92C1240.08,742.4 1242.96,737.55 1245.87,732.79C1252.53,727.7 1260.31,724.52 1267.86,721.02C1272.73,719.53 1274.47,714.06 1275.85,709.71C1277.87,707.79 1280.17,706.11 1281.65,703.7C1281.95,700.66 1282.48,697.74 1283.93,695.07C1286,690.45 1291.31,689.1 1293.96,684.97C1295.93,681.65 1299.15,679.5 1301.66,676.68C1303.03,673.69 1304.08,670.55 1305.82,667.75C1310.54,664.45 1315.7,661.76 1318.07,656.12C1324.68,652.49 1325.49,645.1 1327.93,638.81C1331.26,637.65 1334.57,635.2 1334.33,631.28C1335.46,627.62 1336.21,623.86 1337.32,620.21C1338.6,617.3 1341.17,615.01 1341.94,611.87C1342.37,610.47 1343.04,609.17 1343.85,607.95C1346.21,605.53 1348.08,602.68 1349.87,599.82C1350.12,599.59 1350.62,599.15 1350.87,598.93C1356.76,597.83 1361.43,593.56 1367.32,592.3C1370.57,591.97 1368.75,586.83 1370.5,585.38C1372.39,579.14 1380.51,576.32 1379.94,568.99C1380.17,567.7 1380.62,565.12 1380.85,563.82C1381.45,562.21 1382.18,560.66 1382.95,559.12Z" style="fill:rgb(238,60,74);fill-rule:nonzero;"/>
        <path d="M1373.77,742.77C1379.07,734.16 1384.85,725.95 1390.83,717.79C1391.17,764.51 1390.98,811.24 1390.94,857.97C1351.19,857.9 1311.42,858.24 1271.69,857.82C1273.6,853.55 1278.6,851.94 1280.98,847.97C1285.02,842.33 1292.13,839.47 1294.86,832.82C1299.67,829.33 1302.79,824 1308.07,821.1C1313.63,818.05 1316.16,811.86 1320.39,807.4C1329.5,800.1 1334.89,789.37 1343.58,781.6C1348.97,777.42 1350.4,769.95 1355.96,765.95C1359.57,763.46 1361.06,759.14 1363.66,755.75C1365.63,750.42 1370.92,747.52 1373.77,742.77Z" style="fill:rgb(238,60,74);fill-rule:nonzero;"/>
        <path d="M782.02,108.02C783.77,107.9 785.54,108 787.3,108.23C785.77,110.46 778.79,111.71 782.02,108.02Z" style="fill:rgb(238,74,82);fill-rule:nonzero;"/>
        <path d="M1285.18,108.12C1291.43,107.93 1297.75,107.84 1304.05,108.07C1301.83,117.35 1300.51,127.1 1295.58,135.44C1295.6,146.94 1287.72,156.48 1286.71,167.85C1282.25,176.75 1280.22,186.73 1275.55,195.63C1272.25,200.95 1271.62,207.35 1268.97,212.96C1263.8,223.5 1262.14,235.61 1255.52,245.42C1254.84,250.35 1254.45,255.55 1252,260C1245.63,273.26 1245.13,288.25 1238.15,301.2C1236.89,303.06 1237.87,305.68 1236.44,307.42C1233.17,310.13 1232.55,314.66 1229.84,317.82C1227.69,320.23 1228.66,324.07 1226.15,326.2C1220.1,332.94 1219.11,343.01 1211.93,348.91C1209.61,350.38 1209.24,353.21 1208.55,355.63C1205.54,358.64 1201.6,361.24 1200.58,365.65C1198.49,370.61 1196.87,376.03 1192.85,379.84C1186.74,388.12 1181.86,397.3 1175.21,405.18C1170.19,413.05 1165.5,421.18 1159.52,428.38C1158.78,433.22 1154.15,435.96 1152.46,440.36C1150.55,445.76 1145.84,449.73 1144.42,455.35C1143.76,458.55 1141.57,460.98 1139.51,463.38C1138.91,467.02 1135.88,469.42 1134.83,472.89C1133.94,475.49 1131.2,476.55 1129.39,478.36C1124.08,490.36 1110.94,496.05 1103.61,506.62C1094.99,510.4 1093.46,520.89 1085.27,525.28C1080.48,531.81 1073.79,536.47 1068.77,542.77C1065.11,547.72 1058.07,548.47 1054.98,553.98C1051.69,558.41 1046.25,560.45 1042.63,564.6C1034.74,568.08 1030.39,575.64 1023.93,580.94C1015.46,591.65 1003.49,598.63 992.77,606.77C989.3,611.44 982.47,611.36 979.46,616.44C975.43,621.73 967.6,622.38 964.09,628.11C960.66,631.2 955.88,632.37 952.35,635.39C943.39,643.54 932.12,648.43 922.23,655.24C917.36,659.64 910.78,661.48 905.96,665.95C900.74,670.39 894.92,674.25 890.58,679.59C883.2,685.84 875.09,691.63 870.23,700.22C864.62,706.55 861.45,714.43 855.46,720.37C854.61,725.59 850.23,728.89 848.75,733.83C844.19,742.93 838.76,751.62 833.08,760.09C829.18,765.64 828.4,772.77 824.08,778.05C821.29,784.8 819.2,791.89 815.1,798.04C810.47,812.38 804.56,826.34 800.9,840.98C799.4,844.93 796.34,848.47 797.05,853.04C797.16,854.98 796.18,856.58 794.92,857.95C788.19,857.98 781.48,858.21 774.78,857.89C775.9,853.69 777.9,849.74 778.49,845.39C779.45,841.25 782.07,837.68 782.48,833.37C782.95,831.16 785.16,829.93 785.81,827.88C787.15,815.92 792.34,804.87 795.35,793.31C797.89,788.02 802.44,783.77 803.73,777.89C804.14,771.2 809.85,766.58 811.47,760.34C817.18,748.51 824.1,737.2 830.83,725.89C832.66,719.57 838.67,715.42 839.85,708.89C840.34,705.15 845.11,704.56 846.28,701.31C849.15,693.22 856.25,687.78 860.42,680.44C865.99,676.32 869.15,669.81 874.77,665.76C886,654.75 899.66,646.48 912.37,637.38C918.03,632.66 925.23,630.54 931.18,626.28C938.03,622.65 943.2,616.7 949.94,612.93C954.04,611.15 955.66,606.39 959.95,604.9C965.38,602.67 968.78,597.29 974.34,595.41C978.42,594.66 980.87,591.44 983.35,588.36C995.42,580.78 1005.9,570.97 1015.57,560.55C1024.06,555.23 1030.22,547.12 1038.57,541.51C1042.46,538.45 1045.89,534.81 1050.12,532.17C1057.54,527.77 1061.91,519.94 1068.14,514.15C1071.75,508.74 1078.72,506.46 1081.39,500.34C1087.48,491.9 1096.69,486.24 1102.85,477.83C1107.23,474.21 1111.5,470.41 1114.58,465.58C1119.83,462.31 1120.14,455.47 1124.28,451.25C1128.42,447.9 1128.13,442.19 1131.24,438.23C1135.29,432.45 1138.06,425.96 1142.04,420.13C1144.02,415.24 1148.59,411.72 1149.48,406.38C1153.41,402.21 1157.76,398.27 1159.92,392.84C1164.08,389.37 1165.22,383.79 1169.23,380.22C1172.85,376.84 1173.68,371.63 1177.01,368.01C1181.91,362.22 1184.16,354.77 1188.5,348.62C1192.91,339.93 1199.73,332.8 1203.86,323.94C1205.87,319.2 1210.19,315.85 1212.08,311.03C1215.93,302.09 1220.4,293.44 1224.45,284.58C1228.12,270.49 1232.47,256.41 1237.96,243.02C1237.44,233.87 1245.67,227.39 1245.52,218.44C1248.68,214.81 1250.19,210.17 1250.52,205.39C1254.47,196.84 1257.01,187.61 1261.17,179.13C1263.44,176.57 1264.79,173.49 1265.13,170.02C1266.21,163.58 1270.3,158.07 1270.69,151.48C1272.36,147.27 1274.21,143.13 1275.6,138.81C1277.11,130.53 1281.41,123.03 1282.64,114.68C1282.94,112.3 1284.07,110.2 1285.18,108.12Z" style="fill:rgb(243,124,114);fill-rule:nonzero;"/>
        <path d="M362.01,643.14C377.34,643.53 392.6,641.64 407.93,642.05C410.81,643.68 413.99,645.61 415.08,648.96C418.26,654.38 411.83,659.32 407.72,661.7C400.36,663.34 392.77,662.78 385.31,662.41C373.48,662.27 361.66,665.14 349.88,663.2C346.44,662.23 344.39,666.46 341.02,666C330.49,664.82 321.05,670.56 310.66,670.69C305.51,672.98 299.76,673.14 294.64,675.52C280.65,677.49 267.82,684.09 254.07,687.14C250.95,688.17 248.46,690.97 245.04,691.04C236.91,690.61 230.9,696.83 223.89,699.84C215.6,703.49 207.64,707.76 199.33,711.36C191.66,716.9 183.08,721.09 175.1,726.13C173.66,727.92 171.41,728.59 169.42,729.56C166.07,732.99 161.9,734.99 157.36,736.42C146.13,744.57 135.36,753.89 122.85,759.84C121.1,764.53 116.1,765.74 112.39,768.4C109.63,770.07 107.68,773.46 104.09,773.17C103.99,765.49 103.79,757.82 104.1,750.17C111.59,745.72 117.36,738.51 125.64,735.6C131.13,731.66 136.54,727.55 142.64,724.59C146,721.66 148.49,717.47 153.13,716.26C157.32,715.82 159.13,711.3 162.8,709.77C173.74,704.23 184.25,697.93 194.89,691.87C201.82,686.29 210.7,684.33 218.56,680.51C222.28,677.28 227.58,677.35 231.55,674.45C236.78,669.88 245.51,674.09 249.35,667.36C260.8,665.95 271.18,660.5 282.1,657.23C292.99,657.06 302.67,651.04 313.53,650.4C321.21,645.26 331.33,648.93 339.7,645.72C346.8,642.95 354.61,644.37 362.01,643.14Z" style="fill:rgb(243,124,114);fill-rule:nonzero;"/>
        <path d="M1380.75,695.74C1384.7,691.56 1387.73,686.62 1390.83,681.79C1390.91,693.77 1391.36,705.81 1390.83,717.79C1384.85,725.95 1379.07,734.16 1373.77,742.77C1370.92,747.52 1365.63,750.42 1363.66,755.75C1361.06,759.14 1359.57,763.46 1355.96,765.95C1350.4,769.95 1348.97,777.42 1343.58,781.6C1334.89,789.37 1329.5,800.1 1320.39,807.4C1316.16,811.86 1313.63,818.05 1308.07,821.1C1302.79,824 1299.67,829.33 1294.86,832.82C1292.13,839.47 1285.02,842.33 1280.98,847.97C1278.6,851.94 1273.6,853.55 1271.69,857.82C1261.39,858.05 1251.07,858.23 1240.78,857.85C1243.6,854.6 1246.88,851.83 1250.47,849.46C1254.3,842.98 1262.55,840.85 1266.11,834.1C1276.91,825.5 1285.13,813.77 1296.23,805.23C1304.16,795.45 1315.05,788.11 1320.53,776.43C1333.07,765.16 1342.97,751.22 1352.24,737.25C1354.96,734.72 1357.59,732.1 1358.48,728.36C1362.48,722.19 1368.69,717.2 1371.01,709.99C1372.41,707.23 1375.38,705.72 1377.52,703.57C1378.52,700.94 1378.5,697.72 1380.75,695.74Z" style="fill:rgb(243,124,114);fill-rule:nonzero;"/>
        <path d="M573.27,697.2C579.45,696.93 585.97,698.35 591.23,701.78C599.29,707.4 609.22,709.84 616.79,716.23C623.25,721.96 630.85,726.16 637.92,731.09C644.52,737.11 651.91,742.4 657.24,749.76C664.3,753.23 667.53,761.01 674.7,764.31C679.84,767.47 679.89,775.06 685.55,777.5C693.28,788.7 703.94,797.71 710.09,809.96C712.99,814.89 717.77,818.66 719.9,824.09C721.81,828.66 724.64,832.8 726.34,837.47C727.66,845.07 732.25,851.42 736.04,857.95C728.43,857.93 720.81,858.26 713.22,857.87C708.5,848.77 704.74,839.18 699.76,830.22C689.37,816.61 681.23,801.12 668.45,789.58C659.73,778.09 648.73,768.58 638.18,758.83C635.74,756.94 634.21,753.99 631.31,752.68C627.44,751.3 627.31,745.73 623.01,745C614.38,742.18 608.35,734.9 600.91,730.13C595.65,728.88 592.89,723.55 587.67,722.35C582.29,720.22 577.39,717.08 572,714.98C567.72,713.15 566.73,708.35 566.21,704.28C568.78,702.13 570.96,699.61 573.27,697.2Z" style="fill:rgb(243,124,114);fill-rule:nonzero;"/>
        <path d="M1348.83,157.2C1347.86,153.24 1345.05,147.36 1348.94,144.07C1350.24,148.37 1350.13,152.89 1348.83,157.2Z" style="fill:rgb(242,102,100);fill-rule:nonzero;"/>
        <path d="M1349.23,158.81C1351.22,164.08 1352.31,172.6 1346.71,175.93C1347.87,170.25 1350.15,164.78 1349.23,158.81Z" style="fill:rgb(242,108,105);fill-rule:nonzero;"/>
        <path d="M649.81,176.87C651.95,171.7 655.09,166.9 661.07,166.05C659.18,169.12 658.78,173.48 654.99,174.99C653.7,175.46 651.11,176.4 649.81,176.87Z" style="fill:rgb(242,99,98);fill-rule:nonzero;"/>
        <path d="M1284.36,360.38C1285.94,359.22 1286.82,357.42 1287.86,355.8C1288.13,360.12 1288.44,364.68 1284.32,367.2C1284.15,365.01 1281.74,361.9 1284.36,360.38Z" style="fill:rgb(242,99,98);fill-rule:nonzero;"/>
        <path d="M640.34,188.35C641.44,185.67 643.32,183.32 645.79,181.8C645.86,182.22 645.99,183.06 646.05,183.49C642.87,186.94 640.97,191.39 642.18,196.18C641.06,200.91 636.62,203.4 633,206.11C633.68,201.78 639.09,200.29 640.11,196.07C641.01,193.59 639.64,190.82 640.34,188.35Z" style="fill:rgb(242,109,104);fill-rule:nonzero;"/>
        <path d="M642.18,196.18C640.97,191.39 642.87,186.94 646.05,183.49C646.65,185.49 647.95,187.57 647.66,189.69C645.83,191.86 643.9,193.93 642.18,196.18Z" style="fill:rgb(242,93,95);fill-rule:nonzero;"/>
        <path d="M189.28,191.28C193.84,191.09 196.11,197.04 200.04,198.95C207.65,202.71 215.04,207.02 223.02,209.97C227.78,211.83 228.24,219.63 223.02,221.05C214.6,226.64 205.49,231.28 197.54,237.53C194.54,241.48 186.82,241.61 185.99,236C191.01,226.32 202.23,222.39 211.01,216.89C210.29,214.63 207.2,214.56 205.37,213.51C199.55,209.76 192.13,207.91 188.19,201.82C184.45,199.49 185.09,192.58 189.28,191.28Z" style="fill:rgb(250,247,218);fill-rule:nonzero;"/>
        <path d="M232.24,192.15C241.95,188.69 241.48,207.02 233.06,205.99C227.26,204.02 228.33,195.56 232.24,192.15Z" style="fill:rgb(249,243,214);fill-rule:nonzero;"/>
        <path d="M275.18,192.08C283.29,189.47 282.43,199 281.83,203.74C279.28,208.72 269.9,204.65 272.95,198.99C272.62,196.45 273.57,194.01 275.18,192.08Z" style="fill:rgb(250,244,216);fill-rule:nonzero;"/>
        <path d="M260.54,202.94C259.9,199.66 261.51,194.04 265.75,195.15C268.08,196.6 268.09,199.29 268.34,201.73C268.09,206.22 268.09,210.73 268.23,215.23C267.76,219.08 267.23,222.93 266.68,226.77C265.63,229.63 265.69,233.15 263.24,235.27C259.6,239.77 253.46,240.21 248.19,241.4C243.66,241.62 241.4,236.65 244.23,233.24C248.11,232.3 253.19,233.7 256.01,230.37C250.9,229.04 245.11,226.1 244.79,220.14C244.75,218.31 244.66,214.65 244.62,212.83C246.17,205.94 253.69,201.5 260.54,202.94M255.3,211.27C251.59,212.61 250.16,218 253.21,220.79C254.71,223.24 259.51,223.05 259.94,219.94C261.52,215.86 263.21,207.31 255.3,211.27Z" style="fill:rgb(251,247,218);fill-rule:nonzero;"/>
        <path d="M295.29,197.3C296.31,194.71 300.46,195.12 301.91,197.21C301.86,200.44 301.08,203.65 301.01,206.89C301.71,206.89 303.1,206.88 303.79,206.87C305.82,207.15 308.7,207.3 309.42,209.65C310.73,211.43 308.82,213.39 307.8,214.83C304.27,215 299.87,213.97 300.74,218.77C300.2,221.57 299.61,224.52 300.61,227.29C301.05,228.72 300.74,230.59 302.1,231.57C305.9,230.39 310.86,232.4 307.94,237.79C304.34,241.36 298.47,240.32 295.29,236.71C293.86,232.37 293.08,227.8 293.24,223.22C293.56,220.47 294.1,217.78 294.03,215.02C292.26,215 290.51,215.16 288.76,215.3L287.92,215.26C286.61,214.09 285.55,212.66 284.97,211C286.27,207.25 290.51,207.14 293.82,206.81C294.36,203.64 293.52,200.14 295.29,197.3Z" style="fill:rgb(251,247,217);fill-rule:nonzero;"/>
        <path d="M319.3,200.25C322.66,198.34 325.56,194.73 330,196C339.7,194.29 344.52,206.84 340.1,214.07C335.47,219.62 327.55,219.44 321.01,217.99C319.65,224.19 322.78,234.12 331,232.01C334.94,234.29 337.78,228.39 341.34,230.56C344.66,230.96 343.58,235.96 341.28,237.29C337.5,241.56 331.08,239.8 326.06,239.91C322.79,238.35 318.55,237.79 317.01,233.99C315.58,230.84 313.66,227.61 313.98,224.01C314,221.33 314,218.66 313.98,216C313.48,210.24 317.02,205.27 319.3,200.25M327.28,204.19C325.7,205.75 323.31,207.22 324.04,209.82C327.24,210.57 330.85,211.49 333.9,209.81C334.64,206.05 332.34,201.19 327.28,204.19Z" style="fill:rgb(251,248,219);fill-rule:nonzero;"/>
        <path d="M349.03,202.03C351.84,196.75 358.42,195.27 363.93,196.06C374.57,197.93 375.45,216.45 364.03,218.01L355.99,218.01C355.25,217.88 353.78,217.62 353.04,217.49C348.95,215.23 350.96,221.91 351.58,224.33C352.34,232.01 361.87,234.17 367.69,230.65C370.23,228.91 373.52,231.26 373.97,233.99C372.85,238.92 366.37,240.7 362.01,240.04C355.84,240.63 348.82,237.75 346,232C342.86,222.36 342.89,210.54 349.03,202.03M357.28,204.2C355.7,205.75 353.31,207.22 354.04,209.82C357.67,210.72 361.96,211.73 364.94,208.84C364.71,207.22 364.16,205.66 363.79,204.08C362.16,204.11 358.91,204.17 357.28,204.2Z" style="fill:rgb(251,249,219);fill-rule:nonzero;"/>
        <path d="M379.01,208.01C378.52,203.72 378.09,193.16 385.95,196L385.97,196.99C385.95,199.99 385.89,203.03 386.08,206.04C386.51,205.85 387.37,205.49 387.8,205.3C392.2,199.97 402.38,197.71 406.66,204.28C410.76,214.29 408.48,225.45 408.95,235.96C408.59,239.68 403.71,242.32 401.11,238.76C401.15,237.39 401.24,234.64 401.28,233.26C402.19,226.48 402.59,219.42 401.32,212.69C400.35,209.94 397.47,207.13 394.06,209C386.72,216.74 387.2,227.93 385.76,237.77C384.15,240.83 379.81,240.75 378.18,237.75C378.05,231.59 377.54,225.38 378.27,219.26C378.86,215.52 379.11,211.78 379.01,208.01Z" style="fill:rgb(251,249,219);fill-rule:nonzero;"/>
        <path d="M372.2,244.22C376.09,244.98 378.6,248.04 381.25,250.74C389.72,255.42 398.73,259.46 407.71,263.32C412.53,264.61 412.09,273.32 407.02,274.04C404.53,275.48 401.2,276.05 399.56,278.63C392.13,282.13 385.08,286.48 378.69,291.62C376.15,292.02 373.34,293.9 370.98,292.07C368.38,290.62 369.36,287.4 370.28,285.18C377.29,278.82 385.74,274.44 393.92,269.84C394.7,267.41 391.52,267.7 390.1,266.83C382.61,262.86 374.57,259.53 369.2,252.7C367.04,248.81 369.86,246.39 372.2,244.22Z" style="fill:rgb(251,249,219);fill-rule:nonzero;"/>
        <path d="M183.17,281.83C175.65,269.42 183.81,251.11 198.02,248.11C202.14,249.23 204.63,254.72 200.53,257.5C194.04,260.62 187.02,269.36 192.02,276.17C194.81,281.05 201.99,282.55 206.69,279.68C211.54,275.56 214.81,269.65 220.31,266.28C228.52,264.24 237.08,265.65 245.36,264.41C249.23,263.87 250.94,258.39 255.7,261.15C259.16,263.01 257.22,266.91 257.15,270.07C260.82,269.97 263.96,267.97 266.51,265.49C270.56,262.55 270.65,257.03 273.16,253.04C276.09,252.44 279.48,253.87 279.99,257.05C280.09,268.42 270.68,279.59 259.03,280.01C255.23,279.83 250.38,279.48 247.94,276.05C246.52,275.85 243.7,275.44 242.28,275.24C236.62,276.28 228.94,272.67 224.04,276.03C218.8,282.17 213.62,289.63 205.14,291.21C203.31,291.25 199.66,291.31 197.84,291.35C192.17,289.84 186.54,286.7 183.17,281.83Z" style="fill:rgb(251,249,219);fill-rule:nonzero;"/>
        <path d="M335.07,289.81C334.6,287.27 334.58,280.69 338.99,281.98C344.99,282.01 350.99,281.99 357.01,282C361.51,282.09 360.54,290.8 356.7,291.71C349.69,291.09 341.17,294.49 335.07,289.81Z" style="fill:rgb(251,249,219);fill-rule:nonzero;"/>
        <path d="M385.97,196.99C389.45,196.79 385.52,203.29 387.8,205.3C387.37,205.49 386.51,205.85 386.08,206.04C385.89,203.03 385.95,199.99 385.97,196.99Z" style="fill:rgb(248,204,179);fill-rule:nonzero;"/>
        <path d="M846.32,203.21C850.92,200.62 855.84,200.72 859.98,204.04C861.13,209.55 863.38,215.25 862.28,220.95C861.96,227.97 864.14,234.89 863.21,241.92C863.85,243.8 864.21,245.77 863.75,247.75C863.03,252.05 863.07,256.42 862.77,260.77C861.93,264.26 861.92,267.75 862.74,271.26C862.98,272.74 862.99,274.26 862.75,275.75C862.23,278.8 861.97,281.92 861.96,285.02C862.13,287.31 860.47,289.42 861.32,291.71C863.09,296.7 860.4,301.78 861.68,306.74C860.97,312.05 860.96,317.4 860.76,322.75C860.25,326.84 859.15,331.29 860.66,335.31C861.66,337.56 859.8,339.7 859.99,341.99C859.89,348.98 859.97,356 860.03,363C860.03,364.58 859.94,366.17 859.73,367.75C858.87,372.45 858.99,377.25 858.99,382.02C857.82,385.31 859.24,388.42 858.75,391.75C858.2,395.48 857.93,399.25 857.92,403.04C857.83,403.54 857.63,404.53 857.53,405.03C856.61,407.23 856.1,409.95 857.54,412.01L857.94,412.88C857.93,416.22 858.05,419.64 857.99,423.01C857.4,425.3 856.78,427.59 856.97,430C856.88,433.3 856.97,436.67 857.01,440C856.88,449.64 857.54,459.33 856.17,468.91C857.09,470.92 857.07,473.05 856.21,475.08C856.65,478.98 856.46,482.89 855.69,486.74C854.72,492.77 854.91,498.91 854.97,505.01C855.52,508.77 856.21,512.37 854.48,516.01C853.51,518.18 853.18,520.94 854.53,523.01C856.11,525.27 853.58,526.85 852.22,528.27C853.31,534.53 850.06,540.84 850.44,547.34C852.49,552.8 844.08,553.37 846.98,559.02C845.71,562.82 843.37,566.4 842.67,570.6C839.56,571.76 839.32,575.29 837.72,577.75C834.03,582.07 830.57,586.58 827.04,591.03C809.87,607.39 789.37,620.97 766.31,627.36C751.33,630.9 736.11,631.76 720.94,631.74C716.98,631.73 712.77,630.76 710,627.76C709,624.21 711.96,622.84 714.73,621.64C724.25,612.5 731.48,601.31 737.97,589.91C738.27,588.21 737.29,586.72 736.71,585.22C737.06,582.76 739.25,579.41 736.26,577.79C733.61,575.08 728.77,573.81 725.81,576.78C718.91,582.75 715.53,591.69 709.24,598.24C701.43,606.65 692.23,613.43 682.77,619.82C680.59,621.59 678.15,619.66 676.02,618.94C670.85,616.1 664.94,615.69 659.26,614.69C655.82,614.14 652.43,613.98 648.99,613.9C630.78,613.04 611.15,603.91 603.37,586.69C603.29,582.79 601.08,579.59 600.11,575.95C599.9,573.13 600.11,570.38 599.4,567.69C600.52,557.62 602.61,546.57 609.99,538.99C614.65,534.62 616.99,528.85 621.24,524.29C623.95,524.46 624.94,522.07 626.2,520.16C628.6,518.16 631.42,516.72 633.9,514.81C634.2,511.34 631.66,508.07 632.47,504.66C631.48,501.12 636.2,498.31 634.16,495C634.58,493.75 634.99,492.51 635.28,491.24C635.84,487.51 636.1,483.75 636.05,479.99C637.92,473.94 638.81,467.08 643.39,462.35C646.9,459.25 646.38,453.9 649.69,450.7C654.36,445.6 658.58,440.13 662.39,434.36C677.66,420.42 694.09,407.74 711.65,396.61C719.89,387.3 726.53,376.86 733.55,366.63C735.78,361.42 737.93,356.07 741.55,351.64C743.74,346.28 745.52,340.75 748.64,335.81C749.13,331.9 753.02,329.39 752.27,325.12C755.36,316.87 757.74,308.27 762.61,300.83C760.29,293.41 769.46,285.36 776.82,287.12C781.3,291.16 783.42,297.16 783,303.14C782.5,305.52 782.66,307.81 783.47,310C784.16,317.33 785.11,324.72 785.09,332.14C789.71,327.71 792.78,321.85 797.64,317.69C798.82,314.63 800.18,311.65 801.56,308.68C802.33,302.64 807.75,298.43 808.41,292.34C812.72,286.76 815.18,280.01 819.2,274.22C821.72,270.77 819.48,265.72 822.62,262.65C824.47,255.04 829.12,248.2 829.26,240.15C830.94,236.48 831.47,232.14 833.81,228.79C839.03,224.36 835.47,214.59 842.73,211.78C842.71,208.45 845.13,206.12 846.32,203.21M741,462.98C735.73,462.17 731.78,466.28 727.32,468.37C724.85,472.22 722.21,475.98 720.05,480.01C717.19,485.42 717.38,491.79 717.37,497.69C717.67,500.17 714.7,506.77 718,507.01C718.02,507.5 718.06,508.46 718.08,508.95C722.81,518.73 727.5,530.21 738.04,534.99L738,535.97C740.75,535.98 746.24,535.99 748.99,536L749.01,535.02C759.47,534.03 769.34,525.21 768.93,514.17C767.04,512.8 764.7,511.25 762.3,512.35C755.02,515.75 744.8,513.01 741.82,505.21C742.19,501.72 741.89,498.16 741.68,494.7C742.85,488.37 748.69,485.91 754.07,484.07C757.74,483.94 759.47,488.77 762.81,489.84C765.32,487.83 766.62,484.92 767.19,481.81C768.67,481.13 768.78,476.68 767,476.06C763.94,469.24 757.76,463.38 750.02,462.99L749.97,462.04C747.58,462.77 741.01,459.71 741,462.98Z" style="fill:rgb(252,252,222);fill-rule:nonzero;"/>
        <path d="M268.34,201.73C269.84,206.08 268.82,210.8 268.23,215.23C268.09,210.73 268.09,206.22 268.34,201.73Z" style="fill:rgb(241,103,110);fill-rule:nonzero;"/>
        <path d="M327.28,204.19C332.34,201.19 334.64,206.05 333.9,209.81C330.85,211.49 327.24,210.57 324.04,209.82C323.31,207.22 325.7,205.75 327.28,204.19Z" style="fill:rgb(243,131,121);fill-rule:nonzero;"/>
        <path d="M357.28,204.2C358.91,204.17 362.16,204.11 363.79,204.08C364.16,205.66 364.71,207.22 364.94,208.84C361.96,211.73 357.67,210.72 354.04,209.82C353.31,207.22 355.7,205.75 357.28,204.2Z" style="fill:rgb(243,134,123);fill-rule:nonzero;"/>
        <path d="M378,207.99L379.01,208.01C379.11,211.78 378.86,215.52 378.27,219.26C378.2,216.44 378.07,210.81 378,207.99Z" style="fill:rgb(245,188,168);fill-rule:nonzero;"/>
        <path d="M231.01,212.98C230.74,209.98 234.2,208.21 236.83,209.09C239.92,212.52 239.08,217.5 238.73,221.75C237.95,226.12 237.93,230.57 238,235C237.8,236.93 238.69,239.5 236.81,240.81C235.46,242.95 232.9,241.67 231.21,240.75C231.15,236.25 229.44,231.75 230.26,227.25C231.1,222.53 231,217.75 231.01,212.98Z" style="fill:rgb(251,246,216);fill-rule:nonzero;"/>
        <path d="M321.31,279.27C326.53,276.95 332.91,282.02 330.72,287.7C329.19,292.07 322.75,291.63 319.16,291.93C315.75,288.25 315.98,280.89 321.31,279.27Z" style="fill:rgb(251,246,216);fill-rule:nonzero;"/>
        <path d="M275.26,210.27C276.36,209.92 277.51,208.58 278.71,209.28C283.22,210.62 281.93,216.71 282.08,220.12C281.92,226.67 282.16,233.28 280.82,239.74C278.86,240.8 275.67,242.11 274.15,239.78C273.66,235.47 274.05,231.09 273.9,226.77C275.73,221.37 273.45,215.59 275.26,210.27Z" style="fill:rgb(251,245,216);fill-rule:nonzero;"/>
        <path d="M186.23,210.13C191.2,207.57 198.2,212.87 196.3,218.11C195.92,223.03 188.05,224.35 184.76,221.24C180.69,218.64 183.25,212.63 186.23,210.13Z" style="fill:rgb(250,245,217);fill-rule:nonzero;"/>
        <path d="M255.3,211.27C263.21,207.31 261.52,215.86 259.94,219.94C259.51,223.05 254.71,223.24 253.21,220.79C250.16,218 251.59,212.61 255.3,211.27Z" style="fill:rgb(239,73,85);fill-rule:nonzero;"/>
        <path d="M230.04,213.02L231.01,212.98C231,217.75 231.1,222.53 230.26,227.25C230.04,222.51 229.81,217.76 230.04,213.02Z" style="fill:rgb(245,146,143);fill-rule:nonzero;"/>
        <path d="M244.79,220.14C242.59,218.36 243.24,215.03 244.62,212.83C244.66,214.65 244.75,218.31 244.79,220.14Z" style="fill:rgb(248,182,168);fill-rule:nonzero;"/>
        <path d="M401.32,212.69C402.59,219.42 402.19,226.48 401.28,233.26C401.06,226.41 400.5,219.51 401.32,212.69Z" style="fill:rgb(247,171,155);fill-rule:nonzero;"/>
        <path d="M288.76,215.3C290.51,215.16 292.26,215 294.03,215.02C294.1,217.78 293.56,220.47 293.24,223.22C293.13,221.5 292.92,218.05 292.81,216.32C291.46,215.95 290.1,215.65 288.76,215.3Z" style="fill:rgb(249,195,175);fill-rule:nonzero;"/>
        <path d="M313.04,216.02L313.98,216C314,218.66 314,221.33 313.98,224.01C311.78,223.1 313.47,218.42 313.04,216.02Z" style="fill:rgb(246,171,155);fill-rule:nonzero;"/>
        <path d="M351.58,224.33C350.96,221.91 348.95,215.23 353.04,217.49C351.52,219.45 352.11,222.05 351.58,224.33Z" style="fill:rgb(244,185,166);fill-rule:nonzero;"/>
        <path d="M355.99,218.01L364.03,218.01C363.07,220.22 358.44,218.53 356.03,218.95L355.99,218.01Z" style="fill:rgb(250,210,182);fill-rule:nonzero;"/>
        <path d="M300.61,227.29C299.61,224.52 300.2,221.57 300.74,218.77C300.73,221.6 300.69,224.44 300.61,227.29Z" style="fill:rgb(249,195,174);fill-rule:nonzero;"/>
        <path d="M238,235C237.93,230.57 237.95,226.12 238.73,221.75C238.95,226.14 239.16,230.57 238.98,234.98L238,235Z" style="fill:rgb(243,113,117);fill-rule:nonzero;"/>
        <path d="M611.01,244.17C612.12,240.9 613.68,237.52 616.17,235.09C615.72,238.76 614.3,242.2 611.01,244.17Z" style="fill:rgb(241,102,100);fill-rule:nonzero;"/>
        <path d="M1327.07,254.07C1328.32,251.98 1329.95,250.11 1330.91,247.83C1331.09,251.88 1330.4,255.73 1328.24,259.17C1327.87,257.46 1327.32,255.8 1327.07,254.07Z" style="fill:rgb(241,102,100);fill-rule:nonzero;"/>
        <path d="M1033.75,630.92C1035.41,626.29 1040.3,624.45 1044.14,622.03C1043.2,627.08 1038.52,630 1033.75,630.92Z" style="fill:rgb(241,102,100);fill-rule:nonzero;"/>
        <path d="M990.8,665.94C993.15,660.54 999.01,658.41 1003.9,655.81C1001.04,660.52 996.7,665.76 990.8,665.94Z" style="fill:rgb(241,102,100);fill-rule:nonzero;"/>
        <path d="M253.3,243.28C257.84,240.29 258.61,244.93 260.73,246.89C261.87,242.28 268.03,242.03 270.93,245.18C271.95,248.6 270.07,251.66 267.77,253.86C264.06,256.07 262.76,252.99 260.79,251.24C258.52,252.19 256.94,255.26 254.05,254.99C248.66,253.95 247.7,244.71 253.3,243.28Z" style="fill:rgb(250,246,217);fill-rule:nonzero;"/>
        <path d="M320.08,253.06C323.07,243.65 335.97,242.32 342.87,248.16C346.02,252.75 348.01,258.58 346.04,264.02L345.92,265.01C348.51,264.82 353.68,264.45 356.27,264.27C357.74,264 359.26,263.98 360.74,264.26C365.17,264.84 369.95,265.86 374.32,264.35C376.88,263.12 379.03,266.13 380,268.06C379.54,270.06 380,274.54 377,273.98C373.86,274 370.7,273.64 367.69,274.64C366.25,275.16 364.72,274.98 363.26,274.74C360.09,274.16 356.79,273.46 353.7,274.64C346.17,275.59 338.52,274.86 331.01,273.99C326.74,274.65 321.66,272.51 317.76,274.8C312.48,277.06 311.32,283.15 308.68,287.73C302.58,291.39 295.31,293.22 288.26,291.73C282.98,288.69 277.94,283.69 278.99,276.98C280.09,267.03 287.17,254.33 298.74,255.17C303.2,257.69 299.64,263.57 296.22,265.21C291.68,266.94 289.1,271.51 287.97,276C288.08,281.54 294.59,284.12 299.03,281.03C305.66,279.6 303.3,270.31 308.98,267.97C317.43,262.5 329.86,268.71 336.81,260.75C337.82,257.4 334.31,254.34 331.05,255.01C326.53,255.78 329.15,264.85 322.03,260.98C319.04,260.04 318.41,255.64 320.08,253.06Z" style="fill:rgb(251,250,220);fill-rule:nonzero;"/>
        <path d="M862.77,260.77C863.07,256.42 863.03,252.05 863.75,247.75C863.9,252.16 864.23,256.61 863.88,261.03L862.77,260.77Z" style="fill:rgb(240,106,111);fill-rule:nonzero;"/>
        <path d="M604.26,269.33C604,265.44 604.63,261.55 605.91,257.88C605.51,261.63 607.35,266.45 604.26,269.33Z" style="fill:rgb(241,105,102);fill-rule:nonzero;"/>
        <path d="M862.74,271.26C861.92,267.75 861.93,264.26 862.77,260.77C862.91,264.24 863.23,267.78 862.74,271.26Z" style="fill:rgb(243,139,136);fill-rule:nonzero;"/>
        <path d="M201.31,263.23C205,260.81 206.51,264.14 208.28,266.11C211.13,272.94 202.06,276.32 198.05,272.04C195.93,269.05 198.6,264.82 201.31,263.23Z" style="fill:rgb(251,246,217);fill-rule:nonzero;"/>
        <path d="M346.04,264.02C349.42,263.88 352.88,263.86 356.27,264.27C353.68,264.45 348.51,264.82 345.92,265.01L346.04,264.02Z" style="fill:rgb(245,183,167);fill-rule:nonzero;"/>
        <path d="M360.74,264.26C365.24,264.11 369.83,263.57 374.32,264.35C369.95,265.86 365.17,264.84 360.74,264.26Z" style="fill:rgb(245,192,172);fill-rule:nonzero;"/>
        <path d="M317.76,274.8C321.66,272.51 326.74,274.65 331.01,273.99L331,274.98C326.57,274.97 322.16,275.23 317.76,274.8Z" style="fill:rgb(250,193,173);fill-rule:nonzero;"/>
        <path d="M353.7,274.64C356.79,273.46 360.09,274.16 363.26,274.74C360.04,274.9 356.85,275.3 353.7,274.64Z" style="fill:rgb(245,214,188);fill-rule:nonzero;"/>
        <path d="M367.69,274.64C370.7,273.64 373.86,274 377,273.98C376.84,277.24 370.15,274.33 367.69,274.64Z" style="fill:rgb(246,214,185);fill-rule:nonzero;"/>
        <path d="M224.04,276.03C228.94,272.67 236.62,276.28 242.28,275.24C236.44,277.13 230.05,275.43 224.04,276.03Z" style="fill:rgb(244,182,164);fill-rule:nonzero;"/>
        <path d="M861.96,285.02C861.97,281.92 862.23,278.8 862.75,275.75C861.96,278.22 864.58,284.03 861.96,285.02Z" style="fill:rgb(244,148,141);fill-rule:nonzero;"/>
        <path d="M339.01,281.02C344.99,281.01 350.99,280.82 356.98,281.05L357.01,282C350.99,281.99 344.99,282.01 338.99,281.98L339.01,281.02Z" style="fill:rgb(246,178,159);fill-rule:nonzero;"/>
        <path d="M225.38,282.23C232.03,282.75 240.79,279.27 245.86,285.2C245.63,287.08 245.09,288.91 244.72,290.77C243.03,292.47 240.17,293.15 237.92,292.2C233.31,292.95 226.43,293.66 223.59,289.35C221.82,286.79 223.99,284.31 225.38,282.23Z" style="fill:rgb(251,248,218);fill-rule:nonzero;"/>
        <path d="M590.04,293.14C590.63,290.29 590.33,286.75 592.84,284.77C593.34,287.87 592.86,291.28 590.04,293.14Z" style="fill:rgb(243,106,104);fill-rule:nonzero;"/>
        <path d="M197.84,291.35C199.66,291.31 203.31,291.25 205.14,291.21C203.36,293.39 199.99,292.74 197.84,291.35Z" style="fill:rgb(244,162,148);fill-rule:nonzero;"/>
        <path d="M587.08,304.22C587.37,300.63 589,297.34 589.86,293.89C589.79,297.63 591.04,302.16 587.08,304.22Z" style="fill:rgb(242,100,99);fill-rule:nonzero;"/>
        <path d="M548.89,372.96C549.97,369.67 550.55,365.65 554.07,364.05C554.28,365.78 555.55,367.7 554.41,369.35C553.51,371.58 550.75,371.84 548.89,372.96Z" style="fill:rgb(242,100,99);fill-rule:nonzero;"/>
        <path d="M1179.15,525.17C1177.1,520.39 1179.87,517.45 1184.07,517.01C1182.3,519.65 1180.82,522.47 1179.15,525.17Z" style="fill:rgb(242,100,99);fill-rule:nonzero;"/>
        <path d="M783,303.14C785.14,304.05 784.36,308.17 783.47,310C782.66,307.81 782.5,305.52 783,303.14Z" style="fill:rgb(238,108,112);fill-rule:nonzero;"/>
        <path d="M860.76,322.75C860.96,317.4 860.97,312.05 861.68,306.74C862.07,312.16 862.13,317.59 861.85,323.03L860.76,322.75Z" style="fill:rgb(243,127,127);fill-rule:nonzero;"/>
        <path d="M860.66,335.31C859.15,331.29 860.25,326.84 860.76,322.75C861.08,326.94 861.05,331.12 860.66,335.31Z" style="fill:rgb(240,124,125);fill-rule:nonzero;"/>
        <path d="M565.05,348.11C567.7,343.17 568.26,337.17 571.83,332.75C571.25,337.16 568.97,341.17 568.59,345.65C568.04,347.17 566.39,347.58 565.05,348.11Z" style="fill:rgb(243,104,102);fill-rule:nonzero;"/>
        <path d="M859.99,341.99L860.97,342C861.03,348.99 861.06,355.99 860.98,362.99L860.03,363C859.97,356 859.89,348.98 859.99,341.99Z" style="fill:rgb(239,96,103);fill-rule:nonzero;"/>
        <path d="M926.3,361.33C930.82,360.96 936.38,363.3 938.03,367.96C942.2,374.77 934.13,383.15 927,381.01C924.73,380.32 921.17,380.06 920.08,377.99C919.54,374.6 919.08,371.18 918.13,367.88C917.73,363.84 923.71,363.29 926.3,361.33Z" style="fill:rgb(243,123,114);fill-rule:nonzero;"/>
        <path d="M858.99,382.02C858.99,377.25 858.87,372.45 859.73,367.75C859.93,372.47 860.18,377.23 859.96,381.98L858.99,382.02Z" style="fill:rgb(242,101,110);fill-rule:nonzero;"/>
        <path d="M920.08,377.99C917.6,376.4 914.99,368.82 918.13,367.88C919.08,371.18 919.54,374.6 920.08,377.99Z" style="fill:rgb(242,99,99);fill-rule:nonzero;"/>
        <path d="M465.71,467.72C467.88,465.91 470.68,465.21 473.26,464.2C472.68,467.85 468.4,467.09 465.71,467.72Z" style="fill:rgb(242,99,99);fill-rule:nonzero;"/>
        <path d="M857.92,403.04C857.93,399.25 858.2,395.48 858.75,391.75C858.81,394.56 858.92,400.18 858.98,402.99L857.92,403.04Z" style="fill:rgb(246,215,189);fill-rule:nonzero;"/>
        <path d="M857.54,412.01C856.1,409.95 856.61,407.23 857.53,405.03C858.6,407.09 858.65,409.94 857.54,412.01Z" style="fill:rgb(242,179,163);fill-rule:nonzero;"/>
        <path d="M519.72,418.88C520.89,415.88 522.68,413.16 524.81,410.75C525.95,414.45 523.88,418.8 519.72,418.88Z" style="fill:rgb(242,105,102);fill-rule:nonzero;"/>
        <path d="M857.94,412.88L858.97,413.03C858.73,415.53 858.24,420.51 857.99,423.01C858.05,419.64 857.93,416.22 857.94,412.88Z" style="fill:rgb(243,95,103);fill-rule:nonzero;"/>
        <path d="M1255.07,424.13C1253.73,419.73 1256.47,416.86 1258.87,413.84C1260.12,418.18 1257.69,421.25 1255.07,424.13Z" style="fill:rgb(241,100,99);fill-rule:nonzero;"/>
        <path d="M936.09,729.2C935.56,725.38 938.28,722.56 941.8,721.73C940.54,724.66 938.62,727.25 936.09,729.2Z" style="fill:rgb(241,100,99);fill-rule:nonzero;"/>
        <path d="M905.85,760.95C906.83,756.25 910.87,753.87 914.84,751.79C913.34,760.07 906.47,765.45 900.05,770.13C899.08,765.57 905.69,765.47 905.85,760.95Z" style="fill:rgb(241,100,99);fill-rule:nonzero;"/>
        <path d="M239.82,796.74C246.65,797.57 249.06,789.16 255.99,790.89C255.52,793.14 254.68,795.39 252.77,796.83C248.49,797.45 244.11,796.62 239.82,796.74Z" style="fill:rgb(241,100,99);fill-rule:nonzero;"/>
        <path d="M856.97,430L857.98,430C857.74,432.5 857.25,437.5 857.01,440C856.97,436.67 856.88,433.3 856.97,430Z" style="fill:rgb(244,166,155);fill-rule:nonzero;"/>
        <path d="M485.83,454.01C487,450.34 489.67,447.57 493.18,446.07C492.28,449.83 489.47,452.77 485.83,454.01Z" style="fill:rgb(243,100,99);fill-rule:nonzero;"/>
        <path d="M741,462.98C741.01,459.71 747.58,462.77 749.97,462.04L750.02,462.99C746.95,462.95 744.02,463.03 741,462.98Z" style="fill:rgb(247,232,201);fill-rule:nonzero;"/>
        <path d="M727.32,468.37C731.78,466.28 735.73,462.17 741,462.98C744.02,463.03 746.95,462.95 750.02,462.99C757.76,463.38 763.94,469.24 767,476.06C765.95,477.88 767.05,479.9 767.19,481.81C766.62,484.92 765.32,487.83 762.81,489.84C759.47,488.77 757.74,483.94 754.07,484.07C748.69,485.91 742.85,488.37 741.68,494.7C740.65,498.25 740.7,501.75 741.82,505.21C744.8,513.01 755.02,515.75 762.3,512.35C764.7,511.25 767.04,512.8 768.93,514.17C769.34,525.21 759.47,534.03 749.01,535.02C745.31,534.98 741.71,535.03 738.04,534.99C727.5,530.21 722.81,518.73 718.08,508.95C718.06,508.46 718.02,507.5 718,507.01C717.92,503.86 718.37,500.71 717.37,497.69C717.38,491.79 717.19,485.42 720.05,480.01C722.21,475.98 724.85,472.22 727.32,468.37Z" style="fill:rgb(238,66,79);fill-rule:nonzero;"/>
        <path d="M1220.83,472.96C1222.26,471.31 1223.65,469.62 1224.9,467.82C1225.55,470.53 1223.57,472.89 1220.83,472.96Z" style="fill:rgb(242,95,96);fill-rule:nonzero;"/>
        <path d="M439.98,482.05C444.26,479 449.71,478.12 453.87,474.77C451.3,479.93 445.5,482.3 439.98,482.05Z" style="fill:rgb(242,105,103);fill-rule:nonzero;"/>
        <path d="M767,476.06C768.78,476.68 768.67,481.13 767.19,481.81C767.05,479.9 765.95,477.88 767,476.06Z" style="fill:rgb(240,125,124);fill-rule:nonzero;"/>
        <path d="M1207.83,485.93C1208.8,480.68 1213.97,478.52 1217.99,475.89C1217.04,480.92 1210.93,482.31 1207.83,485.93Z" style="fill:rgb(242,106,103);fill-rule:nonzero;"/>
        <path d="M228.74,801.77C232.26,800.32 235.48,798.2 239.09,796.98C236.93,800.56 233.01,802.95 228.74,801.77Z" style="fill:rgb(242,106,103);fill-rule:nonzero;"/>
        <path d="M635.02,483.98C635.42,482.8 633.93,479.57 636.05,479.99C636.1,483.75 635.84,487.51 635.28,491.24C635.21,489.43 635.08,485.8 635.02,483.98Z" style="fill:rgb(244,143,140);fill-rule:nonzero;"/>
        <path d="M633.1,495.05C633.23,492.09 632.67,485.93 635.02,483.98C635.08,485.8 635.21,489.43 635.28,491.24C634.99,492.51 634.58,493.75 634.16,495L633.1,495.05Z" style="fill:rgb(240,90,98);fill-rule:nonzero;"/>
        <path d="M220.73,487.74C223.44,486.58 226.38,487.18 229.27,487.31C226.53,488.33 223.57,487.75 220.73,487.74Z" style="fill:rgb(241,97,96);fill-rule:nonzero;"/>
        <path d="M854.97,505.01C854.91,498.91 854.72,492.77 855.69,486.74C856.04,492.8 856.16,498.9 855.96,504.99L854.97,505.01Z" style="fill:rgb(242,160,152);fill-rule:nonzero;"/>
        <path d="M741.82,505.21C740.7,501.75 740.65,498.25 741.68,494.7C741.89,498.16 742.19,501.72 741.82,505.21Z" style="fill:rgb(241,105,110);fill-rule:nonzero;"/>
        <path d="M717.37,497.69C718.37,500.71 717.92,503.86 718,507.01C714.7,506.77 717.67,500.17 717.37,497.69Z" style="fill:rgb(241,107,113);fill-rule:nonzero;"/>
        <path d="M230.73,504.69C233.79,503.54 237.06,504.14 240.27,504.28C237.23,505.53 233.89,504.75 230.73,504.69Z" style="fill:rgb(242,87,90);fill-rule:nonzero;"/>
        <path d="M376.81,511.88C380.14,508.76 384.17,505.9 389.12,507.03C385.82,510.35 381.35,511.46 376.81,511.88Z" style="fill:rgb(242,102,101);fill-rule:nonzero;"/>
        <path d="M357.73,517.75C362.48,515.34 367.89,514.32 373.17,514.15C368.65,517.01 363.04,518.19 357.73,517.75Z" style="fill:rgb(242,107,103);fill-rule:nonzero;"/>
        <path d="M852.8,855.88C854.52,851.71 856.91,847.86 858.85,843.8C860.26,849.03 857.17,853.5 852.8,855.88Z" style="fill:rgb(242,107,103);fill-rule:nonzero;"/>
        <path d="M854.53,523.01C853.18,520.94 853.51,518.18 854.48,516.01C855.61,518.06 855.63,520.93 854.53,523.01Z" style="fill:rgb(242,154,145);fill-rule:nonzero;"/>
        <path d="M738.04,534.99C741.71,535.03 745.31,534.98 749.01,535.02L748.99,536C746.24,535.99 740.75,535.98 738,535.97L738.04,534.99Z" style="fill:rgb(242,129,127);fill-rule:nonzero;"/>
        <path d="M1382.95,559.12C1383.63,554.48 1387.8,551.86 1390.9,548.82C1390.88,549.3 1390.83,550.26 1390.81,550.74C1388.13,553.49 1385.9,556.67 1382.95,559.12Z" style="fill:rgb(239,89,91);fill-rule:nonzero;"/>
        <path d="M1140.11,556.16C1141.71,554.71 1143.87,554.2 1145.96,553.84C1144.12,556.37 1142.22,558.86 1140.21,561.24C1140.1,559.54 1139.96,557.85 1140.11,556.16Z" style="fill:rgb(241,99,99);fill-rule:nonzero;"/>
        <path d="M977.14,678.22C979.46,676.3 982.68,675.96 984.94,673.91C984.52,678.63 981.51,682.47 977.13,684.18C977.13,682.69 977.14,679.71 977.14,678.22Z" style="fill:rgb(241,99,99);fill-rule:nonzero;"/>
        <path d="M1377.89,567.79C1378.91,566.5 1379.91,565.18 1380.85,563.82C1380.62,565.12 1380.17,567.7 1379.94,568.99C1380.51,576.32 1372.39,579.14 1370.5,585.38C1368.75,586.83 1370.57,591.97 1367.32,592.3C1361.43,593.56 1356.76,597.83 1350.87,598.93C1351.87,597.93 1352.96,597.03 1354.08,596.14C1359.08,594.17 1360.94,588.83 1363.86,584.77C1368.54,582.7 1372.54,579.67 1375.12,575.22C1377.37,573.38 1378.34,570.65 1377.89,567.79Z" style="fill:rgb(239,74,82);fill-rule:nonzero;"/>
        <path d="M599.4,567.69C600.11,570.38 599.9,573.13 600.11,575.95C597.67,575.31 599.4,570.08 599.4,567.69Z" style="fill:rgb(245,117,116);fill-rule:nonzero;"/>
        <path d="M1375.12,575.22C1374.63,572.35 1375.61,569.61 1377.89,567.79C1378.34,570.65 1377.37,573.38 1375.12,575.22Z" style="fill:rgb(240,99,98);fill-rule:nonzero;"/>
        <path d="M182.87,571.92C185.9,568.98 190.35,570.09 194.15,570.1C191.08,572.99 186.65,571.88 182.87,571.92Z" style="fill:rgb(241,104,101);fill-rule:nonzero;"/>
        <path d="M1294.87,679.96C1296.81,676.39 1298.59,672.24 1302.12,669.99C1300.95,674.07 1298.57,677.74 1294.87,679.96Z" style="fill:rgb(241,104,101);fill-rule:nonzero;"/>
        <path d="M1216.02,756.13C1219.4,750.64 1225.87,747.12 1232.29,747.09L1231.82,747.81C1226.34,750.2 1221.58,753.92 1216.02,756.13Z" style="fill:rgb(241,104,101);fill-rule:nonzero;"/>
        <path d="M162.75,573.78C165.48,572.31 168.44,571.97 171.49,572.99C168.91,574.75 165.67,573.67 162.75,573.78Z" style="fill:rgb(240,102,99);fill-rule:nonzero;"/>
        <path d="M725.81,576.78C728.77,573.81 733.61,575.08 736.26,577.79C732.77,577.4 729.29,577.03 725.81,576.78Z" style="fill:rgb(242,145,139);fill-rule:nonzero;"/>
        <path d="M709.24,598.24C715.53,591.69 718.91,582.75 725.81,576.78C729.29,577.03 732.77,577.4 736.26,577.79C736.4,580.25 734.35,583.36 736.71,585.22C737.29,586.72 738.27,588.21 737.97,589.91C731.48,601.31 724.25,612.5 714.73,621.64C711.96,622.84 709,624.21 710,627.76C708.16,628.59 709.57,625.25 708.25,624.71C706.9,621.64 703.52,625.53 701.66,623.34C699.75,621.13 701.98,618.34 702.85,616.14C701.86,614.24 700.17,616.2 698.78,616.49C695.86,615.85 693.25,618.02 690.32,617.37C688.17,619.12 685.67,620.71 682.77,619.82C692.23,613.43 701.43,606.65 709.24,598.24Z" style="fill:rgb(239,67,80);fill-rule:nonzero;"/>
        <path d="M114.72,578.76C119.68,576.89 125.14,578.52 130.28,578.34C125.27,579.96 119.86,578.56 114.72,578.76Z" style="fill:rgb(241,96,96);fill-rule:nonzero;"/>
        <path d="M170.34,838.4C176.79,838.93 179.66,830.76 186.09,831.94C183.05,836.04 179.55,840.14 174.37,841.46C171.26,844.12 171.02,849.62 166.21,850.23C167.91,846.44 167.04,841.13 170.34,838.4Z" style="fill:rgb(241,96,96);fill-rule:nonzero;"/>
        <path d="M736.26,577.79C739.25,579.41 737.06,582.76 736.71,585.22C734.35,583.36 736.4,580.25 736.26,577.79Z" style="fill:rgb(243,139,135);fill-rule:nonzero;"/>
        <path d="M1354.08,596.14C1357.15,592.19 1358.91,586.87 1363.86,584.77C1360.94,588.83 1359.08,594.17 1354.08,596.14Z" style="fill:rgb(240,96,96);fill-rule:nonzero;"/>
        <path d="M1343.85,607.95C1343.24,603.92 1346.64,601.47 1349.87,599.82C1348.08,602.68 1346.21,605.53 1343.85,607.95Z" style="fill:rgb(238,81,86);fill-rule:nonzero;"/>
        <path d="M1334.12,618.21C1336.65,616.05 1339.38,614.04 1341.94,611.87C1341.17,615.01 1338.6,617.3 1337.32,620.21C1336.21,623.86 1335.46,627.62 1334.33,631.28C1333.9,626.94 1333.85,622.54 1334.12,618.21Z" style="fill:rgb(239,80,86);fill-rule:nonzero;"/>
        <path d="M1197.16,776.97C1198.11,776.64 1199.09,776.35 1200.09,776.09C1199.12,780.29 1194.02,781.85 1190.38,782.5C1186.28,783.43 1183.25,786.57 1179.97,788.98C1181.11,785.3 1184.12,782.48 1186.97,780.01C1190.38,779.12 1195.15,780.5 1197.16,776.97Z" style="fill:rgb(239,80,86);fill-rule:nonzero;"/>
        <path d="M648.99,613.9C652.43,613.98 655.82,614.14 659.26,614.69C655.8,614.86 652.43,615.17 649.01,614.95L648.99,613.9Z" style="fill:rgb(241,129,127);fill-rule:nonzero;"/>
        <path d="M1323.92,639.86C1325.22,639.42 1326.56,639.1 1327.93,638.81C1325.49,645.1 1324.68,652.49 1318.07,656.12C1318.37,654.8 1318.73,653.5 1319.09,652.21C1323.77,649.68 1322.74,644.3 1323.92,639.86Z" style="fill:rgb(239,81,86);fill-rule:nonzero;"/>
        <path d="M1153.02,816.04C1156.41,814.1 1159.69,811.96 1162.98,809.84C1160.37,817.67 1149.27,819.75 1147.69,828.67C1146.9,832.37 1143.84,834.78 1141.07,837.05C1137.29,838.42 1138.23,843.2 1135.05,845.03C1136.41,841.06 1136.54,835.83 1140.59,833.56C1147,829.53 1146.7,820.3 1153.02,816.04Z" style="fill:rgb(239,81,86);fill-rule:nonzero;"/>
        <path d="M1319.09,652.21C1318.88,647.5 1318,641.03 1323.92,639.86C1322.74,644.3 1323.77,649.68 1319.09,652.21Z" style="fill:rgb(241,103,100);fill-rule:nonzero;"/>
        <path d="M483.31,657.28C490.6,654.43 495.98,661.35 496.3,667.89C496.5,669.48 497.98,671.98 495.65,672.6C491.41,674.18 491.22,682.07 484.99,679.03C481.09,678.53 477.9,675.13 476.27,671.7C475.13,667.33 478,663.73 480.59,660.67C480.85,659 481.55,657.67 483.31,657.28Z" style="fill:rgb(243,122,114);fill-rule:nonzero;"/>
        <path d="M1302.12,669.99C1303.3,669.16 1304.53,668.42 1305.82,667.75C1304.08,670.55 1303.03,673.69 1301.66,676.68C1299.15,679.5 1295.93,681.65 1293.96,684.97C1291.31,689.1 1286,690.45 1283.93,695.07C1284.62,692.04 1285.49,688.95 1287.41,686.45C1289.96,684.37 1292.98,682.75 1294.87,679.96C1298.57,677.74 1300.95,674.07 1302.12,669.99Z" style="fill:rgb(239,83,87);fill-rule:nonzero;"/>
        <path d="M1267.86,721.02C1269.61,716.75 1271.1,711.46 1275.85,709.71C1274.47,714.06 1272.73,719.53 1267.86,721.02Z" style="fill:rgb(241,91,93);fill-rule:nonzero;"/>
        <path d="M1234.79,744.92C1237.57,740.24 1241.11,735.57 1245.87,732.79C1242.96,737.55 1240.08,742.4 1234.79,744.92Z" style="fill:rgb(240,89,92);fill-rule:nonzero;"/>
        <path d="M1216.02,756.13C1221.58,753.92 1226.34,750.2 1231.82,747.81C1227.3,755.48 1217.4,755.42 1211.9,761.94C1212.62,759.6 1214.52,757.97 1216.02,756.13Z" style="fill:rgb(240,83,88);fill-rule:nonzero;"/>
        <path d="M418.73,754.78C422.99,752.95 427.82,754.15 432.24,754.74C427.72,754.84 423.23,754.93 418.73,754.78Z" style="fill:rgb(242,94,96);fill-rule:nonzero;"/>
        <path d="M480.88,760.06C491.15,760.53 501.57,761 511.25,764.79C504.95,765.76 499.14,761.57 492.89,762.56C488.66,763.23 484.69,761.56 480.88,760.06Z" style="fill:rgb(243,111,106);fill-rule:nonzero;"/>
        <path d="M329.75,762.77C333.72,761.27 338.16,762.46 342.28,762.26C338.26,763.59 333.86,762.53 329.75,762.77Z" style="fill:rgb(240,102,100);fill-rule:nonzero;"/>
        <path d="M1200.09,776.09C1203.78,771.15 1206.81,765.64 1211.9,761.94C1210.88,764.65 1210.2,767.87 1207.63,769.59C1204.72,771.35 1203.66,775.34 1200.09,776.09Z" style="fill:rgb(239,85,89);fill-rule:nonzero;"/>
        <path d="M297.8,774.92C300.89,773.64 303.63,771.56 306.91,770.77C304.61,773.41 301.49,775.56 297.8,774.92Z" style="fill:rgb(242,103,100);fill-rule:nonzero;"/>
        <path d="M1186.97,780.01C1189.67,777.43 1193.58,776.92 1197.16,776.97C1195.15,780.5 1190.38,779.12 1186.97,780.01Z" style="fill:rgb(241,104,102);fill-rule:nonzero;"/>
        <path d="M1172.98,794.97C1175.45,793.14 1177.63,790.98 1179.97,788.98C1179.34,792.44 1175.75,794.18 1173.76,796.76C1171.15,799 1170.11,802.43 1167.92,805.01C1168.83,801.4 1169.47,797.01 1172.98,794.97Z" style="fill:rgb(239,83,88);fill-rule:nonzero;"/>
        <path d="M859.27,831.32C862.83,828.23 864.96,824.07 866.9,819.84C867.01,822.81 866.84,825.61 866.6,828.63C865.68,833.36 861.62,836.56 860.1,841.08C859.89,837.8 859.06,834.58 859.27,831.32Z" style="fill:rgb(241,97,97);fill-rule:nonzero;"/>
        <path d="M186.09,831.94C187.11,831.62 188.14,831.33 189.17,831.07C186.27,836.38 181.39,840.23 176.28,843.29C173.89,844.75 174.14,848.29 171.68,849.65C169.15,850.92 166.53,852.02 163.84,852.91C164.63,852.01 165.42,851.12 166.21,850.23C171.02,849.62 171.26,844.12 174.37,841.46C179.55,840.14 183.05,836.04 186.09,831.94Z" style="fill:rgb(242,111,106);fill-rule:nonzero;"/>
        <path d="M1122.76,857.86C1125.72,852.64 1130.8,849.15 1135.05,845.03C1135.38,851.29 1125.98,851.99 1125.81,857.92C1125.05,857.91 1123.53,857.88 1122.76,857.86Z" style="fill:rgb(240,85,89);fill-rule:nonzero;"/>
    </g>
</svg>
