<?xml version="1.0" encoding="UTF-8" standalone="no"?>
<!DOCTYPE svg PUBLIC "-//W3C//DTD SVG 1.1//EN" "http://www.w3.org/Graphics/SVG/1.1/DTD/svg11.dtd">
<svg width="100%" height="100%" viewBox="0 0 89 129" version="1.1" xmlns="http://www.w3.org/2000/svg" xmlns:xlink="http://www.w3.org/1999/xlink" xml:space="preserve" xmlns:serif="http://www.serif.com/" style="fill-rule:evenodd;clip-rule:evenodd;stroke-linejoin:round;stroke-miterlimit:1.5;">
    <g id="Artboard1" transform="matrix(0.954344,0,0,0.987272,-634.961939,-939.864655)">
        <rect x="665.339" y="951.981" width="92.98" height="130.356" style="fill:none;"/>
        <g id="_-ffffffff" serif:id="#ffffffff">
        </g>
        <g id="_-000000ff" serif:id="#000000ff">
        </g>
        <g id="_-ec1c34ff" serif:id="#ec1c34ff">
        </g>
        <g id="_-fefefeff" serif:id="#fefefeff">
        </g>
        <g id="_-010000ff" serif:id="#010000ff" transform="matrix(1.047841,0,0,1.012892,-31.475103,-12.959391)">
            <path d="M719.651,962.71L720.326,961.315L721.851,959.585L723.956,958.348L726.156,957.851C731.36,957.429 734.344,959.056 736.242,960.917C738.828,963.451 739.458,967.243 739.734,970.001C740.244,975.103 740.807,974.938 741.824,977.737C744.733,985.736 744.432,986.905 746.646,993.175C748.989,994.144 750.521,996.524 750.335,999.143C750.12,1002.185 747.657,1004.582 744.611,1004.714C744.333,1004.726 740.729,1004.864 739.747,1004.901C734.386,1008.628 733.708,1007.789 726.508,1009.846C723.878,1010.598 721.923,1010.588 719.811,1010.419C716.941,1010.19 713.612,1009.724 703.67,1013.886C701.602,1014.752 691.61,1016.7 689.426,1017.022L686.999,1017.013L685.09,1016.277L683.803,1015.25L682.392,1013.014C681.565,1011.054 679.33,1003.439 677.846,996.467L677.723,996.253L677.33,994.741C677.289,994.453 677.267,994.057 677.27,993.575C676.97,991.948 676.733,990.412 676.591,989.059C676.493,988.129 676.614,987.223 676.914,986.394C676.013,984.719 675.53,982.982 675.224,981.278L674.793,978.864L674.432,978.53L673.394,976.869L672.934,974.285L673.577,971.829L675.058,969.956L677.14,968.809L679.535,968.552C680.161,968.605 684.066,969.433 695.039,967.082C704.142,965.131 704.269,966.102 713.379,963.972C716.276,963.295 718.099,962.882 719.651,962.71ZM675.278,979.314C675.327,979.365 675.375,979.411 675.422,979.448L675.278,979.314Z" style="fill:rgb(255,0,0);"/>
            <path d="M678.96,1026.977C677.864,1023.94 676.834,1020.965 676.701,1020.165C675.98,1015.841 675.985,1015.839 673.828,1012.005C672.205,1009.119 673.23,1005.457 676.116,1003.834C679.002,1002.21 682.664,1003.236 684.287,1006.122C684.577,1006.637 684.841,1007.106 685.081,1007.537C685.426,1006.794 685.919,1006.133 686.522,1005.592C686.528,1005.516 686.535,1005.439 686.541,1005.362C686.787,1002.397 689.169,1000.059 692.139,999.87C695.109,999.681 697.769,1001.697 698.389,1004.608C698.775,1006.422 699.135,1008.177 699.47,1009.878C700.011,1005.943 700.606,1001.298 701.308,995.454C701.648,992.632 703.921,990.435 706.753,990.192C709.586,989.95 712.2,991.728 713.014,994.452C713.484,996.025 713.984,996.996 714.541,998.888C715.163,996.31 717.437,994.402 720.16,994.306C722.224,994.233 724.104,995.216 725.243,996.797C726.25,995.637 727.699,994.862 729.349,994.744C732.609,994.513 735.454,996.932 735.75,1000.186C735.826,1001.018 736.125,1003.29 736.546,1006.323C737.081,1006.157 737.648,1006.064 738.236,1006.056C741.451,1006.009 744.131,1008.505 744.313,1011.715C744.409,1013.414 744.499,1014.938 744.583,1016.308C744.73,1016.765 744.903,1017.271 745.072,1017.813C746.139,1021.228 747.684,1025.412 748.649,1028.75C749.774,1032.642 749.869,1035.895 749.392,1037.423L748.902,1038.574L748.016,1039.802L746.748,1040.847L745.341,1041.493L743.594,1041.778L743.127,1041.727C744.132,1044.369 745.277,1047.206 745.911,1049.831C746.308,1050.625 747.557,1053.315 748.812,1057.991C749.37,1060.073 748.768,1062.296 747.235,1063.812C745.702,1065.328 743.473,1065.905 741.397,1065.323C738.743,1064.579 735.211,1065.802 730.714,1067.017C722.565,1069.219 712.21,1072.293 699.74,1072.524C695.391,1073.664 692.621,1074.898 690.879,1075.137C689.93,1075.267 689.089,1075.258 688.346,1075.156L686.191,1074.538L684.847,1073.748L683.712,1072.712L682.304,1070.478C680.664,1066.65 679.543,1065.127 678.98,1063.821C678.223,1062.065 677.884,1060.515 678.145,1057.901C678.646,1052.892 677.867,1051.089 676.586,1048.75C675.256,1046.319 673.651,1043.501 672.171,1038.568C671.157,1035.187 671.837,1032.792 672.853,1031.076C674.136,1028.908 676.427,1027.508 678.96,1026.977Z" style="fill:rgb(255,0,0);"/>
            <g transform="matrix(0.401633,0.915801,-0.653194,0.286464,577.029642,324.504681)">
                <path d="M688.188,271.338C688.126,272.159 688.085,272.983 688.07,273.81C691.21,274.43 695.3,273.98 696.71,277.58C695.96,279.5 695.14,281.46 693.27,282.53C690.06,281.67 686.6,281.75 683.55,280.42C682.05,279.02 681.64,276.84 680.74,275.06C681.117,273.375 681.448,271.682 681.733,269.98C682.138,267.56 682.451,265.125 682.674,262.68C682.843,262.687 683.016,262.712 683.193,262.759C685.199,263.092 687.207,263.408 689.217,263.715C688.775,266.242 688.381,268.776 688.188,271.338ZM725.038,184.743C731.001,185.679 736.963,186.619 742.92,187.58C747.18,188.27 749.8,193 749.05,197.06C745.62,223.72 742.08,250.37 738.71,277.03C738.55,280.88 736.47,284.26 734.56,287.47C731.76,288.31 728.8,287.7 725.97,287.42C718.17,286.17 710.12,285.96 702.62,283.3C701.84,281.89 702.39,280.27 702.46,278.78C701.87,278.64 700.69,278.37 700.1,278.24C700.76,278.35 702.07,278.58 702.72,278.7C704.04,278.01 705.3,276.54 706.96,276.98C715.34,278.37 723.76,279.47 732.15,280.83C735.95,251.96 740.45,223.2 744.54,194.38C741.71,193.63 738.85,192.99 735.92,192.83C731.97,192.62 728.089,191.891 724.217,191.102C722.593,190.772 720.971,190.431 719.346,190.113C719.641,188.072 719.935,186.031 720.227,183.989C721.831,184.24 723.435,184.492 725.038,184.743Z" style="fill:rgb(1,0,0);fill-rule:nonzero;"/>
            </g>
            <g transform="matrix(0.401633,0.915801,-0.653194,0.286464,576.773236,298.665293)">
                <path d="M717.053,183.492C725.678,184.843 734.304,186.19 742.92,187.58C747.18,188.27 749.8,193 749.05,197.06C748.968,197.695 748.887,198.329 748.805,198.964C748.532,201.084 748.258,203.204 747.984,205.323C744.89,229.227 741.732,253.125 738.71,277.03C738.55,280.88 736.47,284.26 734.56,287.47C731.76,288.31 728.8,287.7 725.97,287.42C721.331,286.676 716.603,286.301 711.955,285.559C709.78,285.212 707.622,284.784 705.499,284.201C704.532,283.936 703.572,283.637 702.62,283.3C701.84,281.89 702.39,280.27 702.46,278.78C701.87,278.64 700.69,278.37 700.1,278.24C700.76,278.35 702.07,278.58 702.72,278.7C703.899,278.084 705.03,276.846 706.441,276.901C706.61,276.908 706.782,276.933 706.96,276.98C708.966,277.313 710.974,277.629 712.984,277.936C719.369,278.911 725.768,279.796 732.15,280.83C735.512,255.285 739.423,229.825 743.112,204.334C743.408,202.293 743.702,200.252 743.994,198.21C744.177,196.934 744.359,195.657 744.54,194.38C741.71,193.63 738.85,192.99 735.92,192.83C729.27,192.476 722.816,190.651 716.269,189.55C714.626,189.273 712.976,189.042 711.316,188.892C711.614,186.839 711.911,184.786 712.207,182.733C713.822,182.987 715.437,183.24 717.053,183.492ZM688.46,268.638C688.248,270.35 688.102,272.072 688.07,273.81C691.21,274.43 695.3,273.98 696.71,277.58C695.96,279.5 695.14,281.46 693.27,282.53C690.06,281.67 686.6,281.75 683.55,280.42C682.05,279.02 681.64,276.84 680.74,275.06C681.275,272.667 681.718,270.256 682.068,267.831C682.346,265.908 682.566,263.977 682.73,262.04C682.83,261.426 682.929,260.812 683.028,260.198C685.241,260.531 687.455,260.856 689.669,261.182C689.222,263.662 688.77,266.14 688.46,268.638Z" style="fill:rgb(1,0,0);fill-rule:nonzero;"/>
            </g>
            <g transform="matrix(0.401633,0.915801,-0.653194,0.286464,575.882225,264.735337)">
                <path d="M696.75,181.74C699.34,180.68 702.25,181.29 704.94,181.59C717.6,183.59 730.27,185.54 742.92,187.58C747.18,188.27 749.8,193 749.05,197.06C745.62,223.72 742.08,250.37 738.71,277.03C738.55,280.88 736.47,284.26 734.56,287.47C731.76,288.31 728.8,287.7 725.97,287.42C718.17,286.17 710.12,285.96 702.62,283.3C701.84,281.89 702.39,280.27 702.46,278.78C701.87,278.64 700.69,278.37 700.1,278.24C700.76,278.35 702.07,278.58 702.72,278.7C704.04,278.01 705.3,276.54 706.96,276.98C715.34,278.37 723.76,279.47 732.15,280.83C735.95,251.96 740.45,223.2 744.54,194.38C741.71,193.63 738.85,192.99 735.92,192.83C726.52,192.33 717.51,188.89 708.08,188.71C705.5,188.64 702.93,188.58 700.37,188.46C697.28,209.95 694.03,231.42 690.94,252.91C690.22,259.92 688.2,266.73 688.07,273.81C691.21,274.43 695.3,273.98 696.71,277.58C695.96,279.5 695.14,281.46 693.27,282.53C690.06,281.67 686.6,281.75 683.55,280.42C682.05,279.02 681.64,276.84 680.74,275.06C681.7,270.77 682.36,266.42 682.73,262.04C686.62,238.08 689.7,213.98 693.34,189.98C693.46,186.98 694.56,183.84 696.75,181.74Z" style="fill:rgb(1,0,0);fill-rule:nonzero;"/>
            </g>
            <g transform="matrix(1.151273,0,0,1,-102.265841,0)">
                <path d="M672.002,1005.814C673.171,1009.322 677.269,1028.073 677.311,1028.13" style="fill:rgb(255,0,0);stroke:rgb(1,0,0);stroke-width:5.56px;"/>
            </g>
            <g transform="matrix(1.151273,0,0,1,-101.339823,28.991417)">
                <path d="M672.002,1005.814C673.171,1009.322 677.269,1028.073 677.311,1028.13" style="fill:rgb(255,0,0);stroke:rgb(1,0,0);stroke-width:5.56px;"/>
            </g>
        </g>
        <g id="_-010101ff" serif:id="#010101ff">
        </g>
        <g id="_-ed1c35ff" serif:id="#ed1c35ff" transform="matrix(1.047841,0,0,1.012892,-31.475103,-12.959391)">
            <g transform="matrix(0.871969,-0.010205,0.011316,0.966868,79.979106,36.629993)">
                <path d="M688.726,988.51C699.771,1004.388 727.432,998.836 729.876,980.385" style="fill:none;stroke:white;stroke-width:6.52px;"/>
            </g>
            <path d="M671.409,1004.789C676.062,1009.753 680.229,1018.482 686.076,1019.46C683.196,1016.779 683.341,1016.74 681.038,1013.516C680.646,1012.967 676.984,1007.84 676.675,1006.294" style="fill:white;stroke:rgb(1,0,0);stroke-width:6px;"/>
            <path d="M675.126,1031.729L683.401,1054.939" style="fill:none;stroke:rgb(1,0,0);stroke-width:6px;"/>
        </g>
    </g>
</svg>
