<?xml version="1.0" encoding="UTF-8" standalone="no"?>
<!DOCTYPE svg PUBLIC "-//W3C//DTD SVG 1.1//EN" "http://www.w3.org/Graphics/SVG/1.1/DTD/svg11.dtd">
<svg width="100%" height="100%" viewBox="0 0 185 176" version="1.1" xmlns="http://www.w3.org/2000/svg" xmlns:xlink="http://www.w3.org/1999/xlink" xml:space="preserve" xmlns:serif="http://www.serif.com/" style="fill-rule:evenodd;clip-rule:evenodd;stroke-miterlimit:1.5;">
    <g transform="matrix(1,0,0,1,-73.72,-128.603753)">
        <path d="M141.42,155.65C152.16,153.24 163.16,152.6 173.99,150.76C169.97,155.16 166.2,159.8 161.74,163.78C158.42,166.5 157.62,171.91 152.95,172.91C145.48,175.63 137.37,174.78 129.74,176.67C123.29,178.05 116.69,178.75 110.09,178.71C113.91,174.96 118.06,171.51 121.14,167.08C123.67,163.2 127.85,161.05 131.29,158.13C134.1,155.73 138.09,156.63 141.42,155.65M134.52,163.65C132.58,165.18 134.12,167.7 134.41,169.63C138.36,171.47 142.57,168.54 145.45,165.93C145.02,164.56 144.61,163.19 144.22,161.81C140.99,159.93 136.92,160.88 134.52,163.65Z" style="fill:white;fill-rule:nonzero;"/>
        <path d="M166.7,167.67C171.71,163.63 175.13,158.02 180.22,154.04C184.99,164.88 185.36,176.9 188.74,188.15C190.35,192.11 187.35,196.01 184.45,198.45C180.07,202.06 176.84,206.87 172.19,210.18C171,205.84 168.99,201.78 167.33,197.61C165.79,196.55 164.07,197.04 162.55,197.79C161.73,203.17 165.55,207.54 166.66,212.58C152.53,216.25 137.84,219.59 123.18,217.84C120.74,215.43 119.23,212.4 118.69,209.02C114.88,201.62 111.05,193.88 110.45,185.43C113.99,184.77 117.64,185.2 121.21,184.58C127.61,184.26 133.71,181.89 140.12,181.69C146.25,181.57 152.41,180.34 157.99,177.78C161.84,175.32 163.8,171.03 166.7,167.67M174.21,168.84C174.38,170.31 174.56,171.77 174.76,173.23C177.87,175.08 181.52,171.52 179.33,168.48C178.32,166.09 175.57,167.78 174.21,168.84M174.23,182.18C174.56,183.71 173.85,186.28 176.01,186.62C178.45,187.95 180.77,184.58 179.36,182.52C178.44,180.37 175.72,181.04 174.23,182.18M141.3,187.28C140,188.52 139.21,190.32 139.58,192.13C140.88,194.26 143.66,194.65 145.83,193.7C147.81,190.74 145.1,184.46 141.3,187.28M121.93,196.22C125.23,197.3 128.61,195.01 127.83,191.39C126.84,190.44 125.87,189.46 124.93,188.47C120.95,188.19 118.52,193.98 121.93,196.22M173.33,198.09C173.14,201.21 176.85,201.6 178.77,199.91C178.55,198.5 178.35,197.09 178.18,195.68C176.13,194.8 173.08,195.26 173.33,198.09M132.13,201.96C133.64,203.32 135.36,204.82 137.47,203.68C141.41,202.85 139.62,196.62 135.98,197.05C133.24,196.78 133.1,200.18 132.13,201.96M145.38,211.38C146.49,212.09 147.69,213.46 149.19,212.77C151.57,212.61 151.54,209.73 152.01,208C150.77,207.33 149.55,205.87 147.99,206.44C145.54,206.57 145.74,209.64 145.38,211.38M126.39,210.48C125.65,213.41 128.68,214.58 130.81,215.51C133.83,215.35 135.54,212.89 135.32,209.99C132.89,207.63 128.11,206.98 126.39,210.48Z" style="fill:white;fill-rule:nonzero;"/>
        <path d="M159.05,269.91C162.43,260.84 168.53,253.15 171.63,243.94C173.44,244.52 175.25,245.09 177.07,245.64C176.69,249.26 175.16,253.28 177.71,256.47C178.68,259.62 184.04,257.49 184.58,260.54C182.93,264.18 181.77,268.02 180.3,271.73C173.5,270.4 166.67,269.21 159.75,268.84C159.57,269.11 159.22,269.64 159.05,269.91Z" style="fill:white;fill-rule:nonzero;"/>
        <path d="M106.85,245.58C112.93,245.17 118.96,246.1 124.99,246.78C122.85,254.1 119.34,260.89 115.49,267.44C114.13,270.55 110.5,268.28 108.05,268.07C105.28,266.29 104.78,261.06 100.49,262.29C99.66,263.81 98.96,265.4 98.72,267.13C96.87,267.37 95.03,267.61 93.19,267.89C95.62,259.57 100.63,252.34 105.91,245.57L106.85,245.58Z" style="fill:white;fill-rule:nonzero;"/>
        <path d="M133.01,247.18C141.04,248.05 148.98,249.69 157.07,249.95C154.83,253.71 153.1,257.73 151.18,261.66C143.47,260.73 135.97,258.47 128.2,257.94C129.93,254.4 130.98,250.56 133.01,247.18Z" style="fill:white;fill-rule:nonzero;"/>
        <path d="M124.92,264.71C132.53,266.03 140.23,266.88 147.68,269.05C144.43,275.6 139.67,281.81 138.99,289.29C133.96,288.65 128.89,288.13 123.97,286.85C123,282.74 117.79,281.17 116.65,276.93L116.88,276.26C121.43,274.1 122.05,268.43 124.92,264.71Z" style="fill:white;fill-rule:nonzero;"/>
        <path d="M88.72,274.51L88.84,274.52C90.87,274.72 92.9,274.88 94.93,275.03C93.32,278.5 90.69,281.96 91.54,286L91.56,286.3C87.98,286.49 84.4,286.76 80.81,286.59C82.27,283.94 83.17,280.68 85.82,278.94C87.37,277.92 87.89,276.05 88.72,274.51Z" style="fill:white;fill-rule:nonzero;"/>
        <path d="M182.65,278.75C185.1,278.04 186.01,275.52 187.06,273.48C193.15,275.69 199.86,275.77 205.71,278.67C204.69,283.55 202.84,288.21 201.76,293.07C201.69,293.38 201.55,294.01 201.48,294.32C195.61,294.02 189.79,293.27 183.92,293.23C177.89,292.17 171.82,291.3 165.76,290.36C167.94,286.25 168.8,281.64 170.5,277.34C174.51,277.99 178.55,279.19 182.65,278.75Z" style="fill:white;fill-rule:nonzero;"/>
        <path d="M96.95,285.96C98.86,281.71 100.88,277.37 104.58,274.35C109.48,277.04 111.68,282.27 115.43,286.12C109.35,284.2 103.12,286.1 96.95,285.96Z" style="fill:white;fill-rule:nonzero;"/>
        <path d="M150.33,289.8C151.8,284.68 153.94,279.76 156.63,275.17C157.23,275.3 158.44,275.57 159.04,275.7C160.52,276.03 162.01,276.36 163.49,276.71C162.24,280.51 161.11,284.35 159.7,288.1C159.55,288.51 159.24,289.32 159.09,289.73C156.18,289.92 153.24,290.22 150.33,289.8Z" style="fill:white;fill-rule:nonzero;"/>
        <path d="M208.79,292.92C210.27,288.62 212.15,284.45 212.98,279.95C217.4,281.03 221.95,281.29 226.43,282.08C223.94,286.52 222.01,291.23 220.88,296.2C216.82,295.92 212.79,295.16 208.72,295.25C208.74,294.66 208.77,293.5 208.79,292.92Z" style="fill:white;fill-rule:nonzero;"/>
        <path d="M200,137.98C202.67,132.75 208.71,130.76 213.93,129.05C218.43,128.37 223.2,128.4 227.62,129.61C233.19,132.36 238.29,136.29 242.05,141.28C242.21,143.21 243.27,144.79 244.48,146.24C247.9,153.28 250.31,161.68 247.24,169.29C245.48,174.46 241.27,178.18 237.23,181.63C238.39,183.28 239.4,185.04 240.26,186.87C239.61,189.25 239.77,192.03 238.01,193.98C235.99,196.43 233.66,198.62 231.34,200.79C232.78,207.13 234.19,213.61 233.76,220.16C239.5,222.41 244.26,226.47 249.63,229.4C251.4,231.56 253.29,233.58 255.45,235.35C256.78,238.9 255.96,242.92 257.46,246.46C258.58,248.67 256.59,250.68 256.73,252.9C255.43,253.92 254.17,254.97 252.94,256.05C255.15,257.84 258.24,259.37 258.01,262.7C257.05,264.09 256.7,266.26 254.81,266.69C249.38,267.86 243.91,268.84 238.41,269.57C234.75,275.28 232.91,281.9 230.12,288.04C227.5,292.03 227.44,297.04 225.24,301.23C222.09,304.03 217.76,302.03 214.08,301.96C207.72,300.89 201.26,301.2 194.87,300.37C190.57,300.85 186.23,300.72 181.95,300.1C171.79,299.26 161.62,300.73 151.66,302.54C142.75,302.5 133.82,302.17 124.95,303.24C119.62,302.98 114.28,303.37 108.96,302.8C102.6,302.72 96.18,301.77 89.9,303.29C86.63,303.35 82.6,304.82 80.04,302.08C79.24,298.34 81.4,295.21 84.35,293.19C80.9,292.29 75.89,293.98 73.72,290.38C73.91,284.65 77.8,280.03 79.98,274.94C83.63,274.1 83.17,269.73 85.64,267.56C88.18,265.26 87.79,261.47 89.92,258.91C92.49,255.86 93.11,251.68 95.82,248.76C98.68,245.66 101.02,242.14 103.44,238.7C104.38,235.97 105.43,233.29 106.73,230.71C107.83,228.79 108.82,226.81 109.96,224.92C112.01,221.92 111.32,217.57 114.52,215.29C112.45,210.19 110.31,205.12 107.7,200.26C105.93,197.1 105.9,193.39 105.08,189.93C104.08,185.38 104.06,180.68 104.4,176.05C106.7,172.28 110.44,169.76 113.43,166.6C116.67,162.72 119.57,158.38 123.94,155.65C126.08,154.37 127.34,151.74 129.91,151.19C137.52,149.4 145.32,148.55 152.95,146.87C161.79,146.63 170.46,143.89 179.3,144.43C181.14,146.35 183.33,147.92 185.02,149.99C189.75,159.51 190.43,170.32 193.21,180.46C193.67,184.7 195.5,188.7 195.65,192.97C194.48,195.09 193.44,197.27 192.3,199.4C189.34,203.43 185.04,206.16 181.83,209.96C179.03,212.99 176.1,216.26 172.03,217.52C167.69,219.34 163.02,220.1 158.58,221.62C168.88,220.84 178.88,223.77 189.01,224.99C190.31,225.31 191.55,225.81 192.8,226.29C194.54,224.82 196.47,223.59 198.19,222.1C199.84,214.44 200.34,206.57 201.88,198.88C199.52,196.47 197.32,193.44 197.94,189.86C198.78,187.09 199,183.86 201.15,181.72C199.42,177.73 195.31,175.34 193.98,171.14C193.33,169.08 192.46,167.02 192.66,164.82C190.61,157.49 191.34,149.23 195.75,142.88C196.86,140.99 198.78,139.78 200,137.98M207.71,138.77C202.71,143.81 197.13,149.65 197.45,157.3C198.44,161.55 199.18,165.94 201.08,169.91C202.12,172.44 204.65,173.78 206.68,175.41C209.66,177.77 213.26,179.32 216.98,180.05C220.81,179.85 224.71,179.5 228.41,178.41C232.79,176.57 237.87,174.56 239.82,169.82C243.02,166.92 242.3,162.12 242.5,158.25L242.41,158.43C240.95,152.9 238.58,147.52 235.08,142.98C232.25,140.05 228.89,137.56 225.3,135.66C219.34,134.67 212.7,135.03 207.71,138.77M141.42,155.65C138.09,156.63 134.1,155.73 131.29,158.13C127.85,161.05 123.67,163.2 121.14,167.08C118.06,171.51 113.91,174.96 110.09,178.71C116.69,178.75 123.29,178.05 129.74,176.67C137.37,174.78 145.48,175.63 152.95,172.91C157.62,171.91 158.42,166.5 161.74,163.78C166.2,159.8 169.97,155.16 173.99,150.76C163.16,152.6 152.16,153.24 141.42,155.65M166.7,167.67C163.8,171.03 161.84,175.32 157.99,177.78C152.41,180.34 146.25,181.57 140.12,181.69C133.71,181.89 127.61,184.26 121.21,184.58C117.64,185.2 113.99,184.77 110.45,185.43C111.05,193.88 114.88,201.62 118.69,209.02C119.23,212.4 120.74,215.43 123.18,217.84C137.84,219.59 152.53,216.25 166.66,212.58C165.55,207.54 161.73,203.17 162.55,197.79C164.07,197.04 165.79,196.55 167.33,197.61C168.99,201.78 171,205.84 172.19,210.18C176.84,206.87 180.07,202.06 184.45,198.45C187.35,196.01 190.35,192.11 188.74,188.15C185.36,176.9 184.99,164.88 180.22,154.04C175.13,158.02 171.71,163.63 166.7,167.67M222.38,187.57C216.53,190.02 210.22,192.12 203.8,191.31C206.81,194.73 211.67,195.36 215.97,195.71C221.24,196.16 227.25,196.24 231.43,192.45L231.56,191.52C233.66,192.16 235.41,187.5 232.81,187.15C233.06,185.69 231.2,185.12 230.1,185.18C227.34,185.19 224.88,186.58 222.38,187.57M206.16,209.34C205.14,215.83 205.16,222.6 201.79,228.45C198.89,229.28 196.2,230.8 194.16,233.05C191.83,235.82 188.5,237.42 185.88,239.88C188.36,240.81 191.2,241.06 193.35,242.71C194.3,244.15 194.09,246.53 192.52,247.44C189.43,248.12 186.36,246.85 183.38,246.18C183.48,248.18 183.46,250.18 183.15,252.16C191.61,256.09 200.82,258.23 210.1,258.89C223.16,261.7 236.19,257.09 247.99,251.85C249.05,251.44 249.68,250.71 249.88,249.65C251.79,250.9 252.77,246.89 250.56,246.99C250.73,245.76 250.61,244.53 250.2,243.3C245.16,247.17 239.06,248.9 233.07,250.69C229.11,251.53 225.02,250.89 221.02,250.66C218.44,250.33 219.03,246.88 220.35,245.48C224.74,243.23 229.97,245.61 234.45,243.66C238.53,241.81 243.49,241.48 246.51,237.8L247.13,237.83C247.21,237.41 247.36,236.56 247.44,236.14C243.64,232.71 239.07,230.28 234.69,227.68L234.53,227.47C233.42,227.34 232.3,227.21 231.19,227.09C226.36,229.07 220.95,231.75 215.76,229.4C215.47,228.78 214.88,227.53 214.58,226.91C216.14,222.91 221.07,223.98 224.49,223.4C224.92,222.97 225.79,222.09 226.22,221.65C226.65,221.78 227.52,222.04 227.95,222.17C227.79,216.4 227.34,210.62 226.13,204.96L226.1,204.15C219.17,204.87 213.43,210.31 206.16,209.34M165.02,231.21C159.99,232.33 155.4,234.8 150.52,236.38C145.78,236.3 141.22,238.02 137.15,240.33C133.75,240.84 130.47,241.95 127.07,242.43C124.44,242.57 122.52,240.51 120.38,239.34C119.61,236.38 119,233.34 117.68,230.56C116.17,232.95 114.69,235.37 112.81,237.49L112.38,237.39C111.2,240.79 108.47,243.15 105.8,245.4L106.85,245.58L105.91,245.57C100.63,252.34 95.62,259.57 93.19,267.89C91.86,270.19 89.78,271.99 88.84,274.52L88.72,274.51C87.89,276.05 87.37,277.92 85.82,278.94C83.17,280.68 82.27,283.94 80.81,286.59C84.4,286.76 87.98,286.49 91.56,286.3L91.54,286C93.32,286.11 95.22,286.71 96.95,285.96C103.12,286.1 109.35,284.2 115.43,286.12C111.68,282.27 109.48,277.04 104.58,274.35C102.58,271.98 100.6,269.59 98.72,267.13C98.96,265.4 99.66,263.81 100.49,262.29C104.78,261.06 105.28,266.29 108.05,268.07C110.67,270.85 113.43,273.55 116.12,276.24L116.88,276.26L116.65,276.93C117.79,281.17 123,282.74 123.97,286.85C128.89,288.13 133.96,288.65 138.99,289.29C140.74,289.49 142.49,289.66 144.25,289.79C146.22,282.51 149.42,275.6 152.87,268.92C155.86,260.73 160.87,253.51 164.4,245.57C166.72,240 169.67,234.67 171.18,228.8C170.5,228.69 169.15,228.49 168.47,228.38L167.98,229.19C167.07,229.95 166.32,231.13 165.02,231.21M177.09,230.03C176.23,232.37 175.57,234.77 174.63,237.09C173.61,239.36 172.6,241.64 171.63,243.94C168.53,253.15 162.43,260.84 159.05,269.91C158.18,271.6 157.51,273.38 156.78,275.14C157.35,275.28 158.48,275.56 159.04,275.7C158.44,275.57 157.23,275.3 156.63,275.17C153.94,279.76 151.8,284.68 150.33,289.8C153.24,290.22 156.18,289.92 159.09,289.73C159.24,289.32 159.55,288.51 159.7,288.1L159.12,289.67C161.34,289.84 163.56,290.09 165.76,290.36C171.82,291.3 177.89,292.17 183.92,293.23C189.79,293.27 195.61,294.02 201.48,294.32C201.55,294.01 201.69,293.38 201.76,293.07L201.42,294.59C203.49,294.59 205.56,294.59 207.64,294.6C207.92,294.18 208.5,293.34 208.79,292.92C208.77,293.5 208.74,294.66 208.72,295.25C212.79,295.16 216.82,295.92 220.88,296.2C222.01,291.23 223.94,286.52 226.43,282.08C227.01,279.8 227.79,277.58 228.64,275.39C229.5,273.51 230.32,271.61 231.03,269.67C225.08,268.49 219.02,269.24 213.07,268.15C210.59,267.78 207.22,268.39 206.43,265.24C201.25,264.74 196.3,263.13 191.19,262.23C189.08,261.44 186.97,260.67 184.87,259.89L184.58,260.54C184.04,257.49 178.68,259.62 177.71,256.47C175.16,253.28 176.69,249.26 177.07,245.64C177.09,243.37 177.51,241.11 177.34,238.84L176.9,238.16L177.85,238.25C178.78,237.84 179.67,237.33 180.5,236.72C181.55,233.87 185.07,233.05 187.08,230.95C183.73,230.83 180.4,230.57 177.09,230.03Z" style="fill-rule:nonzero;"/>
        <path d="M134.52,163.65C136.92,160.88 140.99,159.93 144.22,161.81C144.61,163.19 145.02,164.56 145.45,165.93C142.57,168.54 138.36,171.47 134.41,169.63C134.12,167.7 132.58,165.18 134.52,163.65Z" style="fill-rule:nonzero;"/>
        <path d="M174.21,168.84C175.57,167.78 178.32,166.09 179.33,168.48C181.52,171.52 177.87,175.08 174.76,173.23C174.56,171.77 174.38,170.31 174.21,168.84Z" style="fill-rule:nonzero;"/>
        <path d="M132.13,201.96C133.1,200.18 133.24,196.78 135.98,197.05C139.62,196.62 141.41,202.85 137.47,203.68C135.36,204.82 133.64,203.32 132.13,201.96Z" style="fill-rule:nonzero;"/>
        <path d="M126.39,210.48C128.11,206.98 132.89,207.63 135.32,209.99C135.54,212.89 133.83,215.35 130.81,215.51C128.68,214.58 125.65,213.41 126.39,210.48Z" style="fill-rule:nonzero;"/>
        <path d="M207.71,138.77C212.7,135.03 219.34,134.67 225.3,135.66C228.89,137.56 232.25,140.05 235.08,142.98C238.58,147.52 240.95,152.9 242.41,158.43C241.46,162.21 240.66,166.02 239.82,169.82C237.87,174.56 232.79,176.57 228.41,178.41C224.71,179.5 220.81,179.85 216.98,180.05C213.26,179.32 209.66,177.77 206.68,175.41C204.65,173.78 202.12,172.44 201.08,169.91C199.18,165.94 198.44,161.55 197.45,157.3C197.13,149.65 202.71,143.81 207.71,138.77Z" style="fill:rgb(236,28,52);fill-rule:nonzero;"/>
        <g transform="matrix(-3.860186,0.338662,0.43931,5.007405,1370.150193,-1366.38398)">
            <path d="M327.088,282.228C328.086,284.713 332.035,284.724 333.088,282.182" style="fill:none;stroke:white;stroke-width:0.89px;"/>
        </g>
        <path d="M222.38,187.57C224.88,186.58 227.34,185.19 230.1,185.18C231.2,185.12 233.06,185.69 232.81,187.15C232.32,188.58 231.72,190 231.56,191.52L231.43,192.45C227.25,196.24 221.24,196.16 215.97,195.71C211.67,195.36 206.81,194.73 203.8,191.31C210.22,192.12 216.53,190.02 222.38,187.57Z" style="fill:rgb(236,28,52);fill-rule:nonzero;"/>
        <path d="M206.16,209.34C213.43,210.31 219.17,204.87 226.1,204.15L226.13,204.96C226.55,210.52 225.98,216.09 226.22,221.65C225.79,222.09 224.92,222.97 224.49,223.4C221.07,223.98 216.14,222.91 214.58,226.91C214.88,227.53 215.47,228.78 215.76,229.4C220.95,231.75 226.36,229.07 231.19,227.09C232.3,227.21 233.42,227.34 234.53,227.47L234.69,227.68C237.78,231.94 242.2,234.92 246.51,237.8C243.49,241.48 238.53,241.81 234.45,243.66C229.97,245.61 224.74,243.23 220.35,245.48C219.03,246.88 218.44,250.33 221.02,250.66C225.02,250.89 229.11,251.53 233.07,250.69C239.06,248.9 245.16,247.17 250.2,243.3C250.61,244.53 250.73,245.76 250.56,246.99C250.29,247.86 250.06,248.75 249.88,249.65C249.68,250.71 249.05,251.44 247.99,251.85C236.19,257.09 223.16,261.7 210.1,258.89C200.82,258.23 191.61,256.09 183.15,252.16C183.46,250.18 183.48,248.18 183.38,246.18C186.36,246.85 189.43,248.12 192.52,247.44C194.09,246.53 194.3,244.15 193.35,242.71C191.2,241.06 188.36,240.81 185.88,239.88C188.5,237.42 191.83,235.82 194.16,233.05C196.2,230.8 198.89,229.28 201.79,228.45C205.16,222.6 205.14,215.83 206.16,209.34M202.25,245.95C203.13,247.4 204.08,249.03 205.97,249.2C208.86,249.01 209.86,243.94 206.64,243.45C204.59,242.63 203.34,244.61 202.25,245.95Z" style="fill:rgb(236,28,52);fill-rule:nonzero;"/>
        <path d="M167.98,229.19L168.47,228.38C169.15,228.49 170.5,228.69 171.18,228.8C169.67,234.67 166.72,240 164.4,245.57C160.87,253.51 155.86,260.73 152.87,268.92C149.42,275.6 146.22,282.51 144.25,289.79C142.49,289.66 140.74,289.49 138.99,289.29C139.67,281.81 144.43,275.6 147.68,269.05C140.23,266.88 132.53,266.03 124.92,264.71C122.05,268.43 121.43,274.1 116.88,276.26L116.12,276.24C113.43,273.55 110.67,270.85 108.05,268.07C110.5,268.28 114.13,270.55 115.49,267.44C119.34,260.89 122.85,254.1 124.99,246.78C118.96,246.1 112.93,245.17 106.85,245.58L105.8,245.4C108.47,243.15 111.2,240.79 112.38,237.39L112.81,237.49C115.3,238.23 117.86,238.72 120.38,239.34C122.52,240.51 124.44,242.57 127.07,242.43C130.47,241.95 133.75,240.84 137.15,240.33C145.06,241.42 152.98,242.4 160.93,243.11C163.45,238.57 165.27,233.64 167.98,229.19M133.01,247.18C130.98,250.56 129.93,254.4 128.2,257.94C135.97,258.47 143.47,260.73 151.18,261.66C153.1,257.73 154.83,253.71 157.07,249.95C148.98,249.69 141.04,248.05 133.01,247.18Z" style="fill:rgb(236,28,52);fill-rule:nonzero;"/>
        <path d="M184.58,260.54L184.87,259.89C186.97,260.67 189.08,261.44 191.19,262.23C190.69,263.51 190.18,264.79 189.68,266.08C194.59,269.4 200.78,268.56 206.08,270.8C213.37,273.42 221.26,273.29 228.64,275.39C227.79,277.58 227.01,279.8 226.43,282.08C221.95,281.29 217.4,281.03 212.98,279.95C212.15,284.45 210.27,288.62 208.79,292.92C208.5,293.34 207.92,294.18 207.64,294.6C205.56,294.59 203.49,294.59 201.42,294.59L201.76,293.07C202.84,288.21 204.69,283.55 205.71,278.67C199.86,275.77 193.15,275.69 187.06,273.48C186.01,275.52 185.1,278.04 182.65,278.75C178.55,279.19 174.51,277.99 170.5,277.34C168.8,281.64 167.94,286.25 165.76,290.36C163.56,290.09 161.34,289.84 159.12,289.67L159.7,288.1C161.11,284.35 162.24,280.51 163.49,276.71C162.01,276.36 160.52,276.03 159.04,275.7C158.48,275.56 157.35,275.28 156.78,275.14C157.51,273.38 158.18,271.6 159.05,269.91C159.22,269.64 159.57,269.11 159.75,268.84C166.67,269.21 173.5,270.4 180.3,271.73C181.77,268.02 182.93,264.18 184.58,260.54Z" style="fill:rgb(236,28,52);fill-rule:nonzero;"/>
        <path d="M93.19,267.89C95.03,267.61 96.87,267.37 98.72,267.13C100.6,269.59 102.58,271.98 104.58,274.35C100.88,277.37 98.86,281.71 96.95,285.96C95.22,286.71 93.32,286.11 91.54,286C90.69,281.96 93.32,278.5 94.93,275.03C92.9,274.88 90.87,274.72 88.84,274.52C89.78,271.99 91.86,270.19 93.19,267.89Z" style="fill:rgb(236,28,52);fill-rule:nonzero;"/>
        <path d="M242.41,158.43L242.5,158.25C242.3,162.12 243.02,166.92 239.82,169.82C240.66,166.02 241.46,162.21 242.41,158.43Z" style="fill:rgb(254,254,254);fill-rule:nonzero;"/>
        <path d="M232.81,187.15C235.41,187.5 233.66,192.16 231.56,191.52C231.72,190 232.32,188.58 232.81,187.15Z" style="fill:rgb(254,254,254);fill-rule:nonzero;"/>
        <path d="M226.13,204.96C227.34,210.62 227.79,216.4 227.95,222.17C227.52,222.04 226.65,221.78 226.22,221.65C225.98,216.09 226.55,210.52 226.13,204.96Z" style="fill:rgb(254,254,254);fill-rule:nonzero;"/>
        <path d="M234.69,227.68C239.07,230.28 243.64,232.71 247.44,236.14C247.36,236.56 247.21,237.41 247.13,237.83L246.51,237.8C242.2,234.92 237.78,231.94 234.69,227.68Z" style="fill:rgb(254,254,254);fill-rule:nonzero;"/>
        <path d="M177.09,230.03C180.4,230.57 183.73,230.83 187.08,230.95C185.07,233.05 181.55,233.87 180.5,236.72C179.67,237.33 178.78,237.84 177.85,238.25L176.9,238.16C176.33,237.89 175.2,237.35 174.63,237.09C175.57,234.77 176.23,232.37 177.09,230.03Z" style="fill:rgb(254,254,254);fill-rule:nonzero;"/>
        <path d="M250.56,246.99C252.77,246.89 251.79,250.9 249.88,249.65C250.06,248.75 250.29,247.86 250.56,246.99Z" style="fill:rgb(254,254,254);fill-rule:nonzero;"/>
        <path d="M174.23,182.18C175.72,181.04 178.44,180.37 179.36,182.52C180.77,184.58 178.45,187.95 176.01,186.62C173.85,186.28 174.56,183.71 174.23,182.18Z" style="fill:rgb(2,2,2);fill-rule:nonzero;"/>
        <path d="M173.33,198.09C173.08,195.26 176.13,194.8 178.18,195.68C178.35,197.09 178.55,198.5 178.77,199.91C176.85,201.6 173.14,201.21 173.33,198.09Z" style="fill:rgb(2,2,2);fill-rule:nonzero;"/>
        <path d="M141.3,187.28C145.1,184.46 147.81,190.74 145.83,193.7C143.66,194.65 140.88,194.26 139.58,192.13C139.21,190.32 140,188.52 141.3,187.28Z" style="fill:rgb(1,1,1);fill-rule:nonzero;"/>
        <path d="M121.93,196.22C118.52,193.98 120.95,188.19 124.93,188.47C125.87,189.46 126.84,190.44 127.83,191.39C128.61,195.01 125.23,197.3 121.93,196.22Z" style="fill:rgb(1,1,1);fill-rule:nonzero;"/>
        <path d="M145.38,211.38C145.74,209.64 145.54,206.57 147.99,206.44C149.55,205.87 150.77,207.33 152.01,208C151.54,209.73 151.57,212.61 149.19,212.77C147.69,213.46 146.49,212.09 145.38,211.38Z" style="fill:rgb(1,1,1);fill-rule:nonzero;"/>
        <path d="M165.02,231.21C166.32,231.13 167.07,229.95 167.98,229.19C165.27,233.64 163.45,238.57 160.93,243.11C152.98,242.4 145.06,241.42 137.15,240.33C141.22,238.02 145.78,236.3 150.52,236.38C155.4,234.8 159.99,232.33 165.02,231.21Z" style="fill:rgb(255,254,254);fill-rule:nonzero;"/>
        <path d="M191.19,262.23C196.3,263.13 201.25,264.74 206.43,265.24C207.22,268.39 210.59,267.78 213.07,268.15C219.02,269.24 225.08,268.49 231.03,269.67C230.32,271.61 229.5,273.51 228.64,275.39C221.26,273.29 213.37,273.42 206.08,270.8C200.78,268.56 194.59,269.4 189.68,266.08C190.18,264.79 190.69,263.51 191.19,262.23Z" style="fill:rgb(255,254,254);fill-rule:nonzero;"/>
        <path d="M117.68,230.56C119,233.34 119.61,236.38 120.38,239.34C117.86,238.72 115.3,238.23 112.81,237.49C114.69,235.37 116.17,232.95 117.68,230.56Z" style="fill:rgb(253,253,253);fill-rule:nonzero;"/>
        <path d="M202.25,245.95C203.34,244.61 204.59,242.63 206.64,243.45C209.86,243.94 208.86,249.01 205.97,249.2C204.08,249.03 203.13,247.4 202.25,245.95Z" style="fill:rgb(2,1,1);fill-rule:nonzero;"/>
        <path d="M174.63,237.09C175.2,237.35 176.33,237.89 176.9,238.16L177.34,238.84C177.51,241.11 177.09,243.37 177.07,245.64C175.25,245.09 173.44,244.52 171.63,243.94C172.6,241.64 173.61,239.36 174.63,237.09Z" style="fill:rgb(235,27,53);fill-rule:nonzero;"/>
    </g>
</svg>
