<?xml version="1.0" encoding="UTF-8" standalone="no"?>
<!DOCTYPE svg PUBLIC "-//W3C//DTD SVG 1.1//EN" "http://www.w3.org/Graphics/SVG/1.1/DTD/svg11.dtd">
<svg width="100%" height="100%" viewBox="0 0 207 190" version="1.1" xmlns="http://www.w3.org/2000/svg" xmlns:xlink="http://www.w3.org/1999/xlink" xml:space="preserve" xmlns:serif="http://www.serif.com/" style="fill-rule:evenodd;clip-rule:evenodd;stroke-miterlimit:1.5;">
    <g transform="matrix(1,0,0,1,-570.00106,-375.516392)">
        <path d="M693.8,398.93C696.12,397.38 698.27,395.59 700.15,393.53C709.16,395.55 718,398.14 726.91,400.57C733.34,401.58 739,405.02 745.2,406.87C750.19,409.4 756.04,409.29 761.04,411.78C761.25,413.61 762.09,415.24 762.78,416.93C762.8,419.8 759.58,418.47 757.84,418.19C751.09,416.27 744.96,412.45 737.93,411.4C734.77,409.85 731.72,407.45 728.02,409.11C723.33,407.89 718.77,406.2 714.14,404.79C707.19,403.43 700.58,400.9 693.8,398.93Z" style="fill:white;fill-rule:nonzero;"/>
        <path d="M677.68,402.59C678.55,401.73 679.28,399.42 680.87,400.39C689.86,404.59 699.64,406.53 708.9,410C710.13,410.52 711.46,410.7 712.79,410.91C717.74,412.48 722.54,414.91 727.86,414.75C734.27,417.3 741.1,419.04 746.82,423.03C746.73,423.69 746.54,425.02 746.45,425.69C741.98,430.03 735.19,429.29 729.54,428.63C721.01,427.44 713.31,423.46 705.06,421.31C703.93,420.92 702.91,420.29 701.88,419.76C696.26,419.44 691.46,416.26 686.07,415.02C680.49,412.43 674.36,411.23 668.88,408.39C672.49,407.72 675.73,405.76 677.68,402.59Z" style="fill:white;fill-rule:nonzero;"/>
        <path d="M654.77,411.22C658.46,412.35 662.06,413.84 665.85,414.65C674.05,417.05 681.84,420.67 690.08,422.91C693.72,424.73 697.57,425.89 701.54,426.78C706.87,429.43 712.99,430.12 718.18,433.07C711.52,436.81 703.26,435.7 696.04,434.37C690.59,434.2 685.12,433.64 679.98,431.76C673.52,430.61 667.2,428.86 660.95,426.92C654.5,426.35 649.09,422.31 642.69,421.53C647.64,419.55 653.07,416.67 654.77,411.22Z" style="fill:white;fill-rule:nonzero;"/>
        <path d="M620.21,438.95C625.71,435.68 629.73,430.65 633.66,425.72C642.57,428.31 651.42,431.12 660.43,433.36C664.94,434.84 669.75,435.36 674.12,437.27C675.14,441.33 673.6,445.7 673.49,449.88C673.54,454.64 670.94,459.2 671.97,463.97C672.53,466.24 675.53,466.34 677.18,465.2C679.17,463.81 678.45,461.08 678.86,459.02C679.74,452.53 680.99,446.09 681.75,439.58C682.93,439.92 684.11,440.27 685.31,440.62C685.57,444.8 685.61,449.02 684.61,453.12C683.91,461.71 682.51,470.26 682.65,478.9C682.46,480.48 683.7,481.44 684.81,482.3C687.36,481.76 689.98,481.06 692.58,481.83C693.15,492.18 694.02,502.64 692.33,512.94C692.45,517.33 692.59,521.74 691.62,526.06C689.52,525.43 687.39,524.94 685.25,524.49C685.83,516.48 685.63,508.43 686.69,500.46C687.08,498.62 686.54,496.82 686.09,495.07C684.6,495.2 683.13,495.34 681.66,495.48C679.71,498.3 679.72,501.8 679.52,505.09C679.3,511.7 678.48,518.27 678.68,524.89C676.83,527.65 678.03,530.98 678.1,534.03C678.16,538.13 679.07,542.53 677.13,546.36C673.98,546.9 670.9,546.18 668.3,544.36C668.85,544.18 669.95,543.8 670.5,543.62C671.74,536.77 671.55,529.77 672.75,522.91C673.33,509.59 675.78,496.43 676.34,483.11C676.42,480.02 677.36,477.03 677.49,473.95C678.03,472.2 676.21,471.4 675.1,470.61C674.45,470.85 673.14,471.33 672.48,471.56C671,475.17 671.24,479.15 670.89,482.96C669.74,494.27 669.45,505.71 667.23,516.88C667.21,519.24 667.78,521.63 667.16,523.97C666.05,529.28 665.89,534.7 665.59,540.09C665.29,541.48 665.9,542.74 666.58,543.93C661.91,543.17 658.03,540.33 654.08,537.93C649.35,535.57 644.73,532.92 639.56,531.61C634.79,529.22 629.23,529.11 624.59,526.45C620.43,524.36 616,522.83 611.45,521.87C611.4,516.21 613.23,510.62 612.19,505.06C613.33,499.4 614.12,493.69 614.1,487.91C613.94,483.88 615.12,479.97 615.08,475.95C615.26,468.61 616.61,461.38 616.94,454.06C616.89,452.05 617.74,450.22 618.86,448.62C619.32,445.4 619.64,442.15 620.21,438.95M629.09,443.12C627.68,443.75 626.16,444.08 624.79,444.78C622.42,447.61 622.94,451.55 622.13,454.93C621.7,457.17 620.65,459.43 621.35,461.73C622.23,465.14 621.75,468.71 621.13,472.12C619.28,482.79 618.29,493.56 616.8,504.28C617.24,506.66 619.72,506.35 621.59,506.3C622.42,510.27 619.53,513.44 619.37,517.27C619.79,517.63 620.62,518.35 621.04,518.71C626.14,518.68 630.92,520.74 635.52,522.67C639.43,523.07 642.66,525.34 645.98,527.23C649.95,528.13 648.91,522.24 651.97,521.38C655.19,520.19 658.03,523.44 661.27,522.51C661.77,520.4 662.35,518.29 662.32,516.11C662.29,507.98 664.39,500.08 665.13,492.02C665.96,482.81 666.98,473.61 668.63,464.51C669.09,462.08 670.23,459.42 668.97,457.04C668.2,454.57 664.64,455.94 663.46,453.95C661.3,450.39 663.64,446.45 664.54,442.9C664.16,442.52 663.38,441.77 663,441.39C658.63,440.83 654.28,440.21 650.19,438.52C644.75,437.52 639.63,433.97 633.96,434.94C631.26,436.76 631.89,441.17 629.09,443.12M682.25,488.06C682.11,488.95 681.82,490.75 681.67,491.64C683.64,494.2 688.16,492.19 687.11,489.03C686.44,486.67 683.88,487.31 682.25,488.06M664.13,516.36C662.47,519.31 667.41,516.66 664.13,516.36Z" style="fill:white;fill-rule:nonzero;"/>
        <path d="M586.2,457.41C590.87,456.65 595.68,458.04 600.27,458.99C599.98,461.63 599.67,464.28 599.44,466.93C594.07,466.51 589.01,464.4 583.63,464.1C584.67,461.94 585.21,459.59 586.2,457.41Z" style="fill:white;fill-rule:nonzero;"/>
        <path d="M727.91,528.86C729.08,529.12 730.26,529.39 731.45,529.67C731.4,530.51 731.3,532.18 731.26,533.02C731.11,535.41 731.72,537.77 732.21,540.1C730.49,540.28 728.79,540.45 727.08,540.59C727.35,536.68 727.55,532.76 727.91,528.86Z" style="fill:white;fill-rule:nonzero;"/>
        <path d="M602.19,385.15C602.78,381.98 603.08,378.62 604.93,375.88C607,374.74 610.34,376.42 609.88,378.98C609.53,389.02 608.33,399.01 607.75,409.04C607.13,418.67 608,428.3 607.26,437.93C608.28,450.39 605,462.58 604.23,474.95C605.24,486.15 603.88,498.41 596.53,507.41C593.18,510.7 589.1,513.09 584.83,514.95C581.95,516.73 577.77,520.39 574.63,517.49C573.73,514.13 575.92,510.99 576.75,507.85C575.52,503.21 573.44,498.93 571.65,494.53C568.87,490.16 570.41,484.72 570.57,479.89C570.81,474.86 573.45,470.38 576.66,466.66C578.37,461.68 580.73,456.93 582.23,451.88C584.28,446.06 584.87,439.89 586.91,434.07C591.33,420.46 594.7,406.54 598.93,392.89C600.09,390.34 601.71,387.96 602.19,385.15M597.4,418.58C595.91,422.7 595.18,427.06 593.44,431.1C592.28,437.24 589.21,443.07 589.38,449.42C587.75,449.86 587.7,450.38 589.21,450.96C593.34,451.27 597.41,452.06 601.48,452.84C601.12,441.89 602.92,430.95 601.64,420.05C601.73,413.6 602.41,407.17 602.7,400.73C600.04,406.4 599.43,412.7 597.4,418.58M586.2,457.41C585.21,459.59 584.67,461.94 583.63,464.1C589.01,464.4 594.07,466.51 599.44,466.93C599.67,464.28 599.98,461.63 600.27,458.99C595.68,458.04 590.87,456.65 586.2,457.41M579.41,472.39C575.64,476.64 575.61,482.56 575.46,487.92C575.79,490.82 577.44,493.36 578.55,496.02C581.86,492.67 579.86,487.62 581.59,483.68C582.72,482.8 584.27,483.34 585.6,483.24C588.34,490.67 584.28,498.06 581.24,504.67C584.16,504.66 586.09,501.92 587.24,499.55C587.83,495.61 587.51,491.52 588.74,487.69C589.52,484.99 593.9,486.52 593.53,489.09C593.56,494.07 593.47,499.21 591.44,503.86C599.98,496.39 599.19,483.93 598.24,473.67C594.67,471.99 590.73,471.4 586.89,470.69C584.33,470.28 581.22,470.19 579.41,472.39Z" style="fill-rule:nonzero;"/>
        <path d="M688.67,386.62C689.99,384.79 692.26,386.21 694.05,386.36C700.33,387.3 706.66,388.28 712.59,390.65C715.97,391.68 719.59,391.73 722.92,393.04C728.14,394.99 733.79,395.53 738.87,397.9C743.2,399.52 747.32,401.78 751.89,402.71C757.81,403.97 763.88,405.61 768.84,409.21C772.36,413.35 770.23,419.06 770.18,423.92C769.57,440.65 768.83,457.38 768.49,474.13C768.41,475.75 768.19,477.37 767.84,478.97C767.86,484.32 768.42,489.77 767.1,495.02C766.67,495.39 765.8,496.12 765.37,496.49C760.58,495.82 762.23,490.4 762.39,487.08C762.14,479.71 762.61,472.36 763.19,465.02C763.17,457.18 763.57,449.35 763.73,441.52C761.76,441.86 759.79,442.2 757.83,442.53C756.35,449.6 756.05,456.88 756.59,464.07C757.28,471.86 754.56,479.46 755.02,487.24C755.14,491.83 754.31,496.41 754.92,501C755.64,507.42 754.19,513.83 754.77,520.27C757.09,519.36 759.59,518.18 760.71,515.78C761.48,512.66 761.35,509.41 761.47,506.22C762.71,505.42 763.97,504.6 765.31,503.95L766.87,503.63C767.85,507.38 766.4,511.13 766.72,514.91C766.95,519.25 765.92,523.78 766.87,528C769.95,529.48 773.95,529.88 775.85,533.11C777.01,534.7 776.27,536.81 775.37,538.34C772.89,540.59 769.62,541.6 766.54,542.73C763.19,544.11 759.51,543.01 756.02,543.16C753.36,550.3 745.71,555.21 738.1,554.5C733.77,553.38 729.31,552.91 724.87,552.46C721.81,554.84 718.58,557.43 714.54,557.69C706.61,559.66 698.35,559.78 690.32,558.44C685.74,556.91 680.83,557.18 676.12,556.27C667.29,552.94 659.21,547.7 650.23,544.81C647.38,542.95 644.04,542.19 640.86,541.13C633.6,538.08 625.95,535.94 619.11,531.97C613.82,530.89 609.59,527.24 604.52,525.48C605.08,520.32 606.39,515.19 605.92,509.97C605.11,503.54 607.97,497.42 607.96,491.02C608.3,479.95 609.94,468.99 611.02,457.98C612.39,449.67 612.43,441.19 614.14,432.93C614.85,429.51 614.05,425.74 615.75,422.57C617.22,419.4 617.03,415.83 617.55,412.45C618.68,412 619.84,411.63 621.04,411.33C624.01,412.49 626.92,413.78 629.81,415.13C635.82,416.43 642.56,416.44 647.63,412.49C648.15,410.85 649.69,409.11 648.6,407.37C645.49,405.46 642.08,404.12 638.82,402.51C639.65,401.33 640.65,400.3 641.72,399.34C647,400.59 651.78,403.23 656.87,405.04C657.07,404.59 657.46,403.69 657.66,403.24C663.27,403.93 670.4,403.67 673.96,398.57C672.44,397.74 670.72,397.18 669.43,396.02C669.4,394.67 669.66,393.36 670.19,392.11C675.63,392.42 680.42,395.83 685.95,395.25C688.71,395.07 691.26,393.86 693.55,392.37C691.58,391.79 689.42,391.44 687.85,390.01C687.79,388.81 688.06,387.68 688.67,386.62M693.8,398.93C700.58,400.9 707.19,403.43 714.14,404.79C718.77,406.2 723.33,407.89 728.02,409.11C731.72,407.45 734.77,409.85 737.93,411.4C744.96,412.45 751.09,416.27 757.84,418.19C759.58,418.47 762.8,419.8 762.78,416.93C762.09,415.24 761.25,413.61 761.04,411.78C756.04,409.29 750.19,409.4 745.2,406.87C739,405.02 733.34,401.58 726.91,400.57C718,398.14 709.16,395.55 700.15,393.53C698.27,395.59 696.12,397.38 693.8,398.93M677.68,402.59C675.73,405.76 672.49,407.72 668.88,408.39C674.36,411.23 680.49,412.43 686.07,415.02C691.46,416.26 696.26,419.44 701.88,419.76C702.91,420.29 703.93,420.92 705.06,421.31C713.31,423.46 721.01,427.44 729.54,428.63C735.19,429.29 741.98,430.03 746.45,425.69C746.54,425.02 746.73,423.69 746.82,423.03C741.1,419.04 734.27,417.3 727.86,414.75C722.54,414.91 717.74,412.48 712.79,410.91C711.46,410.7 710.13,410.52 708.9,410C699.64,406.53 689.86,404.59 680.87,400.39C679.28,399.42 678.55,401.73 677.68,402.59M654.77,411.22C653.07,416.67 647.64,419.55 642.69,421.53C649.09,422.31 654.5,426.35 660.95,426.92C667.2,428.86 673.52,430.61 679.98,431.76C685.12,433.64 690.59,434.2 696.04,434.37C703.26,435.7 711.52,436.81 718.18,433.07C712.99,430.12 706.87,429.43 701.54,426.78C697.57,425.89 693.72,424.73 690.08,422.91C681.84,420.67 674.05,417.05 665.85,414.65C662.06,413.84 658.46,412.35 654.77,411.22M757.55,424.23C757.36,428.26 757.08,432.29 756.85,436.33C759.05,435.94 761.83,436.35 763.36,434.34C764.49,430.84 764.21,427.07 764.53,423.45C762.31,424.55 759.93,424.85 757.55,424.23M620.21,438.95C619.64,442.15 619.32,445.4 618.86,448.62C617.74,450.22 616.89,452.05 616.94,454.06C616.61,461.38 615.26,468.61 615.08,475.95C615.12,479.97 613.94,483.88 614.1,487.91C614.12,493.69 613.33,499.4 612.19,505.06C613.23,510.62 611.4,516.21 611.45,521.87C616,522.83 620.43,524.36 624.59,526.45C629.23,529.11 634.79,529.22 639.56,531.61C644.73,532.92 649.35,535.57 654.08,537.93C658.03,540.33 661.91,543.17 666.58,543.93C665.9,542.74 665.29,541.48 665.59,540.09C665.89,534.7 666.05,529.28 667.16,523.97C667.78,521.63 667.21,519.24 667.23,516.88C669.45,505.71 669.74,494.27 670.89,482.96C671.24,479.15 671,475.17 672.48,471.56C673.14,471.33 674.45,470.85 675.1,470.61C676.21,471.4 678.03,472.2 677.49,473.95C677.36,477.03 676.42,480.02 676.34,483.11C675.78,496.43 673.33,509.59 672.75,522.91C671.55,529.77 671.74,536.77 670.5,543.62C669.95,543.8 668.85,544.18 668.3,544.36C670.9,546.18 673.98,546.9 677.13,546.36C679.07,542.53 678.16,538.13 678.1,534.03C678.03,530.98 676.83,527.65 678.68,524.89C678.48,518.27 679.3,511.7 679.52,505.09C679.72,501.8 679.71,498.3 681.66,495.48C683.13,495.34 684.6,495.2 686.09,495.07C686.54,496.82 687.08,498.62 686.69,500.46C685.63,508.43 685.83,516.48 685.25,524.49C687.39,524.94 689.52,525.43 691.62,526.06C698.16,528.71 705.27,527.94 712.13,527.54C714.93,527.51 717.32,525.92 719.77,524.76C719.76,523.6 719.76,522.45 719.77,521.31C714.42,523.44 708.59,523.95 702.9,524.21C700.99,523.75 698.51,523.17 697.86,521.04C697.03,519.1 698.6,516.12 700.93,516.49C707.58,516.91 715.05,516.75 720.5,512.38C721.51,504.97 722.93,497.55 722.53,490.04C723.2,486.74 724.03,483.47 724.42,480.12C718.85,482.1 713,483.43 707.05,482.88C702.24,482.26 697.26,483.43 692.58,481.83C689.98,481.06 687.36,481.76 684.81,482.3C683.7,481.44 682.46,480.48 682.65,478.9C682.51,470.26 683.91,461.71 684.61,453.12C685.61,449.02 685.57,444.8 685.31,440.62C684.11,440.27 682.93,439.92 681.75,439.58C680.99,446.09 679.74,452.53 678.86,459.02C678.45,461.08 679.17,463.81 677.18,465.2C675.53,466.34 672.53,466.24 671.97,463.97C670.94,459.2 673.54,454.64 673.49,449.88C673.6,445.7 675.14,441.33 674.12,437.27C669.75,435.36 664.94,434.84 660.43,433.36C651.42,431.12 642.57,428.31 633.66,425.72C629.73,430.65 625.71,435.68 620.21,438.95M746.44,433.48C742.5,434.32 738.79,436.31 734.69,436.26L734.8,435.41C734.47,435.59 733.83,435.96 733.5,436.14C733.16,442.56 731.62,448.99 732.78,455.43C733.3,455.47 734.35,455.54 734.87,455.58L734.27,455.45C736.96,454.5 739.81,454.56 742.63,454.47C746.03,454.28 748.69,452.03 751.27,450.06C751.37,443.22 752.78,436.44 752.3,429.58C750.21,430.7 748.9,433.05 746.44,433.48M696.35,441.47C694.79,441.38 693.23,441.35 691.68,441.4C692.61,449.48 690.49,457.47 690.26,465.53C690.95,465.83 692.32,466.42 693.01,466.72C695.35,466.17 697.72,466.57 699.96,467.37C702.92,466.57 705.98,465.99 709.06,466.35C714.66,466.81 721.11,465.56 724.33,460.46C724.55,453.29 723.63,446.16 723.51,439C714.92,442.54 705.44,442.94 696.35,441.47M730.8,461.61C731.42,466.18 730.98,470.81 731.57,475.38L733.21,474.65C737.74,475.38 742.41,475.81 746.98,475.06C748.22,474.44 749.6,473.53 749.88,472.05C750.71,468.65 751.03,465.06 750.49,461.59C744.79,462.29 738.85,464.72 733.23,462.37L732.13,461.27L730.8,461.61M717.46,473.15C713.32,473.77 709.13,473.24 704.99,473.7C701.02,474.29 697.28,472.31 693.34,472.51C692.15,472.34 690.95,472.12 689.79,471.92C689.71,473.03 689.63,474.14 689.57,475.26C690.91,475.4 692.25,475.53 693.6,475.7C697.26,476.99 701.17,476.52 704.96,476.82C710.85,477.55 716.98,476.83 722.45,474.48C724.12,473.96 724.47,472.17 724.61,470.66C722.18,471.37 719.87,472.43 717.46,473.15M730.52,484.38C731.44,484.19 732.37,483.99 733.31,483.8C736.94,483.95 740.4,485.67 744.07,485.07C746.49,484.83 749.83,484.04 750.18,481.13C744.41,481.53 738.56,481.99 732.9,480.51C730.58,480.49 730.75,482.76 730.52,484.38M733.08,492.9C732.29,492.83 730.69,492.69 729.9,492.62C729.12,498 727.96,503.57 729.06,509C729.39,513.25 728.03,517.61 729.28,521.79C729.76,523.1 731.32,523.28 732.42,523.87C737.97,524.23 746.3,523.48 748.21,517.17C743.12,519.31 737.72,521.29 732.1,520.69C731.29,519.61 729.93,518.64 730.3,517.11C730.2,515.38 732.28,515 733.4,514.23C733.38,513.62 733.32,512.39 733.29,511.78C733.42,512.45 733.69,513.79 733.82,514.45C739.85,515.55 744.81,511.53 749.62,508.63C749.64,503.1 748.55,497.61 747.6,492.2C742.79,492.75 737.93,493.75 733.08,492.9M754.25,526.36C753.94,527.71 753.64,529.07 753.36,530.44C755.79,530.56 758.24,530.63 760.69,530.64C760.75,528.51 760.81,526.39 760.9,524.27C758.78,525.26 756.53,525.91 754.25,526.36M731.58,529.64C731.42,530.76 731.32,531.88 731.26,533.02C731.3,532.18 731.4,530.51 731.45,529.67C730.26,529.39 729.08,529.12 727.91,528.86C727.55,532.76 727.35,536.68 727.08,540.59C728.79,540.45 730.49,540.28 732.21,540.1C736.77,538.8 741.4,537.64 745.75,535.72C747.72,533.25 747.37,529.62 747.99,526.65C742.98,529.24 737.24,531.3 731.58,529.64M685.32,530.17C684.71,535.31 685.49,540.43 685.61,545.58C687.6,546.1 689.61,546.54 691.65,546.95L691.55,546.56C698.06,545.94 705.14,547.67 711.1,544.27C713.82,543.17 717.51,543.63 719.48,541.12C719.66,538.07 719.36,535.02 719.27,531.97C710.02,534.31 700.12,534.56 690.79,532.46L690.8,532.39C688.92,531.75 687.12,530.97 685.32,530.17Z" style="fill-rule:nonzero;"/>
        <path d="M629.09,443.12C631.89,441.17 631.26,436.76 633.96,434.94C639.63,433.97 644.75,437.52 650.19,438.52C654.28,440.21 658.63,440.83 663,441.39C663.38,441.77 664.16,442.52 664.54,442.9C663.64,446.45 661.3,450.39 663.46,453.95C664.64,455.94 668.2,454.57 668.97,457.04C670.23,459.42 669.09,462.08 668.63,464.51C666.98,473.61 665.96,482.81 665.13,492.02C664.39,500.08 662.29,507.98 662.32,516.11C662.35,518.29 661.77,520.4 661.27,522.51C658.03,523.44 655.19,520.19 651.97,521.38C648.91,522.24 649.95,528.13 645.98,527.23C642.66,525.34 639.43,523.07 635.52,522.67C630.92,520.74 626.14,518.68 621.04,518.71C620.62,518.35 619.79,517.63 619.37,517.27C619.53,513.44 622.42,510.27 621.59,506.3C619.72,506.35 617.24,506.66 616.8,504.28C618.29,493.56 619.28,482.79 621.13,472.12C621.75,468.71 622.23,465.14 621.35,461.73C620.65,459.43 621.7,457.17 622.13,454.93C622.94,451.55 622.42,447.61 624.79,444.78C626.16,444.08 627.68,443.75 629.09,443.12M639.02,442.02C637.02,443.38 636.05,445.69 634.3,447.29C632.49,448.69 630.34,449.52 628.31,450.51C628.61,453.9 626.73,457.1 627.43,460.49C628.13,468.08 625.62,475.46 625.15,483C624.04,488.32 624.11,493.79 623.18,499.14C623.23,500.38 624.73,500.71 625.41,501.59C628.08,504.84 626.96,509.31 627.12,513.18C631.6,514.9 636.13,516.59 640.87,517.46C642.54,517.75 643.87,518.85 645.2,519.84C647.26,515.51 652.4,514.46 656.72,515.4C656.6,508.01 658.68,500.85 659.31,493.52C661.01,482.77 660.93,471.72 663.82,461.16C662.14,460.17 660.31,459.39 658.9,458.03C656.83,454.67 656.88,450.56 656.74,446.76C650.72,445.66 645.18,442.68 639.02,442.02Z" style="fill-rule:nonzero;"/>
        <path d="M633.63,562.62C634.35,562.63 635.79,562.64 636.51,562.65C636.56,563.04 636.66,563.82 636.71,564.21C635.71,565.37 632.82,564.22 633.63,562.62Z" style="fill-rule:nonzero;"/>
        <path d="M597.4,418.58C599.43,412.7 600.04,406.4 602.7,400.73C602.41,407.17 601.73,413.6 601.64,420.05C602.92,430.95 601.12,441.89 601.48,452.84C597.41,452.06 593.34,451.27 589.21,450.96C589.25,450.57 589.33,449.8 589.38,449.42C589.21,443.07 592.28,437.24 593.44,431.1C595.18,427.06 595.91,422.7 597.4,418.58Z" style="fill:rgb(236,28,52);fill-rule:nonzero;"/>
        <path d="M757.55,424.23C759.93,424.85 762.31,424.55 764.53,423.45C764.21,427.07 764.49,430.84 763.36,434.34C761.83,436.35 759.05,435.94 756.85,436.33C757.08,432.29 757.36,428.26 757.55,424.23Z" style="fill:rgb(236,28,52);fill-rule:nonzero;"/>
        <path d="M746.44,433.48C748.9,433.05 750.21,430.7 752.3,429.58C752.78,436.44 751.37,443.22 751.27,450.06C748.69,452.03 746.03,454.28 742.63,454.47C739.81,454.56 736.96,454.5 734.27,455.45L733.3,455.25C732.87,450.4 734.64,445.72 734.32,440.89C734.31,439.33 734.49,437.79 734.69,436.26C738.79,436.31 742.5,434.32 746.44,433.48Z" style="fill:rgb(236,28,52);fill-rule:nonzero;"/>
        <path d="M696.35,441.47C705.44,442.94 714.92,442.54 723.51,439C723.63,446.16 724.55,453.29 724.33,460.46C721.11,465.56 714.66,466.81 709.06,466.35C705.98,465.99 702.92,466.57 699.96,467.37C697.72,466.57 695.35,466.17 693.01,466.72C693.62,462.86 693.83,458.94 693.36,455.06C692.69,450.25 695.58,446.07 696.35,441.47Z" style="fill:rgb(236,28,52);fill-rule:nonzero;"/>
        <path d="M763.73,441.52C763.57,449.35 763.17,457.18 763.19,465.02C762.61,472.36 762.14,479.71 762.39,487.08C762.23,490.4 760.58,495.82 765.37,496.49C766.09,498.94 765.67,501.47 765.31,503.95C763.97,504.6 762.71,505.42 761.47,506.22C761.35,509.41 761.48,512.66 760.71,515.78C759.59,518.18 757.09,519.36 754.77,520.27C754.19,513.83 755.64,507.42 754.92,501C754.31,496.41 755.14,491.83 755.02,487.24C754.56,479.46 757.28,471.86 756.59,464.07C756.05,456.88 756.35,449.6 757.83,442.53C759.79,442.2 761.76,441.86 763.73,441.52Z" style="fill:rgb(236,28,52);fill-rule:nonzero;"/>
        <path d="M637.94,447.89C640.41,445.63 643.78,446.56 646.64,447.4C648.91,448.32 651.12,450.26 651.01,452.93C652.96,454.77 654.52,456.97 655.66,459.42C657.89,460.82 658.93,463.36 658.72,465.96C658.09,477.35 657.21,488.74 655.5,500.02C655.22,504.03 655.24,508.44 652.82,511.85C650.96,514.23 647.76,513.59 645.15,513.57C641.92,517.07 637.14,514.77 633.49,513.4C630.92,509.19 631.13,503.95 628.43,499.78C626.47,489.18 629.32,478.55 630.89,468.1C630.6,464.54 630.15,460.95 631.34,457.49C635.04,455.57 636.75,451.67 637.94,447.89Z" style="fill:rgb(236,28,52);fill-rule:nonzero;"/>
        <path d="M733.23,462.37C738.85,464.72 744.79,462.29 750.49,461.59C751.03,465.06 750.71,468.65 749.88,472.05C749.6,473.53 748.22,474.44 746.98,475.06C742.41,475.81 737.74,475.38 733.21,474.65C733.54,470.57 733.64,466.44 733.23,462.37Z" style="fill:rgb(236,28,52);fill-rule:nonzero;"/>
        <path d="M579.41,472.39C581.22,470.19 584.33,470.28 586.89,470.69C590.73,471.4 594.67,471.99 598.24,473.67C599.19,483.93 599.98,496.39 591.44,503.86C593.47,499.21 593.56,494.07 593.53,489.09C593.9,486.52 589.52,484.99 588.74,487.69C587.51,491.52 587.83,495.61 587.24,499.55C586.09,501.92 584.16,504.66 581.24,504.67C584.28,498.06 588.34,490.67 585.6,483.24C584.27,483.34 582.72,482.8 581.59,483.68C579.86,487.62 581.86,492.67 578.55,496.02C577.44,493.36 575.79,490.82 575.46,487.92C575.61,482.56 575.64,476.64 579.41,472.39Z" style="fill:rgb(236,28,52);fill-rule:nonzero;"/>
        <path d="M707.05,482.88C713,483.43 718.85,482.1 724.42,480.12C724.03,483.47 723.2,486.74 722.53,490.04C722.93,497.55 721.51,504.97 720.5,512.38C715.05,516.75 707.58,516.91 700.93,516.49C698.6,516.12 697.03,519.1 697.86,521.04C698.51,523.17 700.99,523.75 702.9,524.21C708.59,523.95 714.42,523.44 719.77,521.31C719.76,522.45 719.76,523.6 719.77,524.76C717.32,525.92 714.93,527.51 712.13,527.54C705.27,527.94 698.16,528.71 691.62,526.06C692.59,521.74 692.45,517.33 692.33,512.94C694.02,502.64 693.15,492.18 692.58,481.83C697.26,483.43 702.24,482.26 707.05,482.88Z" style="fill:rgb(236,28,52);fill-rule:nonzero;"/>
        <path d="M733.08,492.9C737.93,493.75 742.79,492.75 747.6,492.2C748.55,497.61 749.64,503.1 749.62,508.63C744.81,511.53 739.85,515.55 733.82,514.45C733.69,513.79 733.42,512.45 733.29,511.78C732.91,505.5 732.26,499.17 733.08,492.9Z" style="fill:rgb(236,28,52);fill-rule:nonzero;"/>
        <path d="M572.67,526.33C571.07,523.93 573.83,521.61 575.88,520.79C579.86,520.41 583.92,521.55 587.42,523.39C593.11,527.41 598.05,532.51 604.29,535.75C610.35,539.43 616.63,542.89 623.5,544.81C631.09,547.74 638.86,550.21 646.33,553.44C652.71,555.9 660.87,555.38 665.56,561.01C665.07,562.57 663.92,564.43 661.98,563.8C653.39,562.05 644.89,559.56 636.85,556.04C628.63,552.97 620.27,550.26 612.07,547.14C614.35,552.51 622.95,550.37 625.42,555.83C624.65,557.01 623.9,558.2 623.16,559.4C619.77,558.38 616.43,557.23 613.18,555.86C612.36,558.1 610.14,558.52 608.02,558.37C604.7,556.27 600.83,554.87 598.23,551.79C597.09,549.88 594.51,550.4 593.1,548.89C589.54,545.5 585.62,542.43 582.74,538.4C579.71,534.1 575.67,530.63 572.67,526.33Z" style="fill:rgb(236,28,52);fill-rule:nonzero;"/>
        <path d="M690.79,532.46C700.12,534.56 710.02,534.31 719.27,531.97C719.36,535.02 719.66,538.07 719.48,541.12C717.51,543.63 713.82,543.17 711.1,544.27C705.14,547.67 698.06,545.94 691.55,546.56C689.92,542 690.5,537.17 690.79,532.46Z" style="fill:rgb(236,28,52);fill-rule:nonzero;"/>
        <path d="M754.25,526.36C756.53,525.91 758.78,525.26 760.9,524.27C760.81,526.39 760.75,528.51 760.69,530.64C758.24,530.63 755.79,530.56 753.36,530.44C753.64,529.07 753.94,527.71 754.25,526.36Z" style="fill:rgb(235,28,53);fill-rule:nonzero;"/>
        <path d="M733.5,436.14C733.83,435.96 734.47,435.59 734.8,435.41L734.69,436.26C734.49,437.79 734.31,439.33 734.32,440.89C734.64,445.72 732.87,450.4 733.3,455.25L734.27,455.45L734.87,455.58C734.35,455.54 733.3,455.47 732.78,455.43C731.62,448.99 733.16,442.56 733.5,436.14Z" style="fill:rgb(254,254,254);fill-rule:nonzero;"/>
        <path d="M639.02,442.02C645.18,442.68 650.72,445.66 656.74,446.76C656.88,450.56 656.83,454.67 658.9,458.03C660.31,459.39 662.14,460.17 663.82,461.16C660.93,471.72 661.01,482.77 659.31,493.52C658.68,500.85 656.6,508.01 656.72,515.4C652.4,514.46 647.26,515.51 645.2,519.84C643.87,518.85 642.54,517.75 640.87,517.46C636.13,516.59 631.6,514.9 627.12,513.18C626.96,509.31 628.08,504.84 625.41,501.59C624.73,500.71 623.23,500.38 623.18,499.14C624.11,493.79 624.04,488.32 625.15,483C625.62,475.46 628.13,468.08 627.43,460.49C626.73,457.1 628.61,453.9 628.31,450.51C630.34,449.52 632.49,448.69 634.3,447.29C636.05,445.69 637.02,443.38 639.02,442.02M637.94,447.89C636.75,451.67 635.04,455.57 631.34,457.49C630.15,460.95 630.6,464.54 630.89,468.1C629.32,478.55 626.47,489.18 628.43,499.78C631.13,503.95 630.92,509.19 633.49,513.4C637.14,514.77 641.92,517.07 645.15,513.57C647.76,513.59 650.96,514.23 652.82,511.85C655.24,508.44 655.22,504.03 655.5,500.02C657.21,488.74 658.09,477.35 658.72,465.96C658.93,463.36 657.89,460.82 655.66,459.42C654.52,456.97 652.96,454.77 651.01,452.93C651.12,450.26 648.91,448.32 646.64,447.4C643.78,446.56 640.41,445.63 637.94,447.89Z" style="fill:rgb(254,254,254);fill-rule:nonzero;"/>
        <path d="M589.21,450.96C587.7,450.38 587.75,449.86 589.38,449.42C589.33,449.8 589.25,450.57 589.21,450.96Z" style="fill:rgb(254,254,254);fill-rule:nonzero;"/>
        <path d="M730.8,461.61L732.13,461.27L733.23,462.37C733.64,466.44 733.54,470.57 733.21,474.65L731.57,475.38C730.98,470.81 731.42,466.18 730.8,461.61Z" style="fill:rgb(254,254,254);fill-rule:nonzero;"/>
        <path d="M730.52,484.38C730.75,482.76 730.58,480.49 732.9,480.51C733,481.33 733.21,482.98 733.31,483.8C732.37,483.99 731.44,484.19 730.52,484.38Z" style="fill:rgb(254,254,254);fill-rule:nonzero;"/>
        <path d="M729.06,509C727.96,503.57 729.12,498 729.9,492.62C730.69,492.69 732.29,492.83 733.08,492.9C732.26,499.17 732.91,505.5 733.29,511.78C733.32,512.39 733.38,513.62 733.4,514.23C732.28,515 730.2,515.38 730.3,517.11C729.93,518.64 731.29,519.61 732.1,520.69C732.2,521.74 732.31,522.8 732.42,523.87C731.32,523.28 729.76,523.1 729.28,521.79C728.03,517.61 729.39,513.25 729.06,509Z" style="fill:rgb(254,254,254);fill-rule:nonzero;"/>
        <path d="M685.32,530.17C687.12,530.97 688.92,531.75 690.8,532.39L690.79,532.46C690.5,537.17 689.92,542 691.55,546.56L691.65,546.95C689.61,546.54 687.6,546.1 685.61,545.58C685.49,540.43 684.71,535.31 685.32,530.17Z" style="fill:rgb(254,254,254);fill-rule:nonzero;"/>
        <path d="M731.58,529.64C737.24,531.3 742.98,529.24 747.99,526.65C747.37,529.62 747.72,533.25 745.75,535.72C741.4,537.64 736.77,538.8 732.21,540.1C731.72,537.77 731.11,535.41 731.26,533.02C731.32,531.88 731.42,530.76 731.58,529.64Z" style="fill:rgb(236,28,53);fill-rule:nonzero;"/>
        <path d="M682.25,488.06C683.88,487.31 686.44,486.67 687.11,489.03C688.16,492.19 683.64,494.2 681.67,491.64C681.82,490.75 682.11,488.95 682.25,488.06Z" style="fill:rgb(1,1,1);fill-rule:nonzero;"/>
        <path d="M691.68,441.4C693.23,441.35 694.79,441.38 696.35,441.47C695.58,446.07 692.69,450.25 693.36,455.06C693.83,458.94 693.62,462.86 693.01,466.72C692.32,466.42 690.95,465.83 690.26,465.53C690.49,457.47 692.61,449.48 691.68,441.4Z" style="fill:rgb(255,255,254);fill-rule:nonzero;"/>
        <path d="M717.46,473.15C719.87,472.43 722.18,471.37 724.61,470.66C724.47,472.17 724.12,473.96 722.45,474.48C716.98,476.83 710.85,477.55 704.96,476.82C701.17,476.52 697.26,476.99 693.6,475.7C693.54,474.9 693.4,473.31 693.34,472.51C697.28,472.31 701.02,474.29 704.99,473.7C709.13,473.24 713.32,473.77 717.46,473.15Z" style="fill:rgb(234,30,53);fill-rule:nonzero;"/>
        <path d="M689.57,475.26C689.63,474.14 689.71,473.03 689.79,471.92C690.95,472.12 692.15,472.34 693.34,472.51C693.4,473.31 693.54,474.9 693.6,475.7C692.25,475.53 690.91,475.4 689.57,475.26Z" style="fill:rgb(254,253,254);fill-rule:nonzero;"/>
        <path d="M732.9,480.51C738.56,481.99 744.41,481.53 750.18,481.13C749.83,484.04 746.49,484.83 744.07,485.07C740.4,485.67 736.94,483.95 733.31,483.8C733.21,482.98 733,481.33 732.9,480.51Z" style="fill:rgb(233,30,54);fill-rule:nonzero;"/>
        <path d="M664.13,516.36C667.41,516.66 662.47,519.31 664.13,516.36Z" style="fill:rgb(190,190,190);fill-rule:nonzero;"/>
        <path d="M732.1,520.69C737.72,521.29 743.12,519.31 748.21,517.17C746.3,523.48 737.97,524.23 732.42,523.87C732.31,522.8 732.2,521.74 732.1,520.69Z" style="fill:rgb(235,28,54);fill-rule:nonzero;"/>
        <path d="M633.6,558.53C636.64,556.42 640.52,562.06 636.51,562.65C635.79,562.64 634.35,562.63 633.63,562.62L632.69,562.8C632.71,561.32 633.12,559.91 633.6,558.53Z" style="fill:rgb(232,31,52);fill-rule:nonzero;"/>
        <g transform="matrix(-3.271489,-0.866703,-1.28728,4.859013,2085.988457,-607.786807)">
            <path d="M327.088,282.228C328.086,284.713 332.035,284.724 333.088,282.182" style="fill:none;stroke:white;stroke-width:0.7px;"/>
        </g>
    </g>
</svg>
