<?xml version="1.0" encoding="UTF-8" standalone="no"?>
<!DOCTYPE svg PUBLIC "-//W3C//DTD SVG 1.1//EN" "http://www.w3.org/Graphics/SVG/1.1/DTD/svg11.dtd">
<svg width="100%" height="100%" viewBox="0 0 268 264" version="1.1" xmlns="http://www.w3.org/2000/svg" xmlns:xlink="http://www.w3.org/1999/xlink" xml:space="preserve" xmlns:serif="http://www.serif.com/" style="fill-rule:evenodd;clip-rule:evenodd;stroke-linejoin:round;stroke-miterlimit:2;">
    <g transform="matrix(1,0,0,1,-873.293391,-192.75)">
        <path d="M903.69,297.45C905.3,296.98 907.21,295.8 908.81,297C912.48,299.67 915.44,303.23 917.79,307.1C922.92,304.15 927.79,300.73 933.3,298.48C935.38,298.87 937.36,299.68 939.29,300.57C939.12,301.88 938.97,303.2 938.85,304.52C938.77,305.37 938.62,307.06 938.54,307.91C934,311.35 928.66,313.48 923.9,316.57C924.27,318.23 924.41,320.05 925.49,321.46C927.89,324.79 929.81,328.43 932,331.91C931.81,333.8 931.65,335.69 931.52,337.59C930.41,338.66 929.23,339.67 927.93,340.47C924.97,340.44 922.53,338.63 921.01,336.22C918.84,332.01 916.44,327.93 914.48,323.63C912.01,328.05 907.25,330.07 903.07,332.48C901.44,332.38 899.83,332.17 898.25,331.86C897.1,331 895.32,330.18 895.81,328.43C895.88,326.63 896.01,324.83 896.01,323.03C901.14,321.14 905.51,317.85 909.22,313.88C907.95,310.87 905.73,308.49 902.91,306.88C902.61,304.38 902.29,301.87 901.95,299.38C902.5,298.72 903.08,298.08 903.69,297.45Z" style="fill:rgb(1,1,1);fill-rule:nonzero;"/>
        <path d="M996.68,211.74C1002.65,208.79 1009.57,209.09 1016.04,209.48C1019.21,209.36 1021.97,211.16 1025.1,211.38C1031.42,212.13 1038.07,212.9 1043.54,216.45C1046.67,219.31 1050.25,221.72 1052.88,225.1C1059.44,230.17 1067.23,233.73 1073.12,239.69C1075.62,241.54 1078.02,243.59 1079.49,246.4C1082.48,248.37 1084.54,251.52 1085.05,255.07C1085.1,256.99 1087.08,257.64 1088.34,258.72C1092.33,264.19 1094.92,270.87 1094.97,277.69C1096.39,278.03 1097.84,278.38 1099.28,278.74C1105.2,278.08 1111.08,279.59 1117.01,279.6C1121.39,279.58 1125.65,280.95 1130.04,280.62C1133.38,280.44 1136.42,282.06 1139.46,283.22C1141.39,289.35 1139.71,295.7 1139.35,301.93C1138.5,309.22 1138.79,316.59 1138.05,323.88C1136.93,329.23 1137.48,334.72 1136.75,340.12C1135.75,351.91 1135.25,363.72 1134.68,375.53C1133.44,385.26 1133.23,395.09 1132.48,404.84C1131.25,410.13 1131.97,415.6 1131.31,420.96C1130.85,424.97 1131.47,429.05 1130.76,433.05C1129.45,440.06 1129.75,447.28 1128.3,454.28C1123.13,457.74 1116.92,456.04 1111.17,455.82C1104.77,454.84 1098.09,455.82 1091.88,453.82C1084.51,454.91 1077.27,453.05 1069.93,452.78C1062.94,452.27 1055.83,452.91 1048.99,451.12C1039.87,452.27 1030.95,449.23 1021.86,449.72C1018.44,449.1 1013.3,449.02 1012.21,444.92C1010.36,440.83 1012.46,436.41 1011.53,432.16C1013.29,428.29 1012.97,424.01 1012.45,419.91C1013.96,404.34 1015.18,388.71 1015.86,373.07C1017.27,365.35 1016.56,357.49 1017.51,349.72C1018.79,341.86 1017.83,333.84 1019.06,325.98C1019.42,324.3 1019.1,322.61 1018.81,320.96C1009.46,319.27 999.14,319.6 990.97,325C988.11,327.07 984.3,328.07 982.47,331.31C980.92,334.03 978.67,336.23 976.9,338.77C972.51,347.45 967.47,355.83 963.9,364.9C962.08,368.52 961.57,372.74 959.02,375.99C958.81,377.4 959.22,379.06 958.11,380.19C954.91,384.33 952.9,389.42 948.54,392.59C940.32,397.7 930.23,401.06 920.61,398.22C918.8,398.49 916.93,398.69 915.26,397.85C911.57,396.26 907.16,396.92 903.84,394.44C899.76,391.51 895.74,388.39 892.55,384.48C888.64,381.68 887.2,376.85 883.92,373.49C883.76,373.04 883.46,372.14 883.3,371.69C879.48,367.65 877.44,362.39 876.08,357.09C875.2,349.06 875.49,340.95 874.07,332.98C873.56,321.66 872.16,310.08 875.14,298.99C875.93,294.56 878.08,290.49 878.76,286.04C880.19,282.53 882.29,279.42 884.82,276.63C887.06,269.84 893.52,265.51 900.06,263.4C907.15,260.85 914.75,260.53 922.07,258.92C929.77,258.72 937.12,256.27 944.6,254.66C944.58,253.57 944.58,252.48 944.6,251.4C942.76,248.49 941.42,245.3 939.71,242.32C937.87,239.7 937.91,236.03 935.12,234.06C934.75,232.72 934.36,231.41 933.84,230.14C933.51,226.59 932.66,221.52 936.6,219.61C938.43,218.16 940.5,219.41 942.22,220.36C943.36,223.04 945.86,224.98 946.46,227.91C947.43,231.96 950.48,235.04 951.89,238.91C952.97,241.9 954.46,244.71 956.09,247.44C960.77,244.08 964.77,239.91 969.21,236.26C971.07,232.75 972.14,228.77 974.33,225.38C976.98,222.09 981.48,221.36 984.38,218.39C987.74,214.99 992.39,213.55 996.68,211.74M992.42,226.36C986.24,230.76 984.95,239.26 978.75,243.61C973.26,248.52 967.41,253.01 962.36,258.39C957.78,263.63 950.56,265.56 943.85,265.97C941.47,266.6 939.42,268.22 936.91,268.41C931.53,268.87 926.33,270.87 920.87,270.31C912.87,271.91 904.26,272.72 897.39,277.48C894.44,281.48 890.75,285.14 889.18,289.97C887.46,294.53 885.62,299.09 884.56,303.86C884.22,309.62 883.48,315.38 883.79,321.17C884.51,325.34 884.71,329.57 884.6,333.79C885.26,339.13 886.06,344.5 885.45,349.89C885.9,353.33 887.09,356.66 888.27,359.92C890.13,362.4 891.51,365.19 893.21,367.77C896.25,371.07 898.85,374.74 901.97,377.97C902.01,380.25 904.17,381.17 905.68,382.45C909.25,385.3 913.9,386 918.16,387.29C921.39,387.34 924.67,387.38 927.8,388.44C933.77,387.44 939.98,385.72 944.55,381.54C946.64,377.6 949.47,374 950.51,369.59C954.79,359.44 957.48,348.26 964.67,339.62C965.67,336.3 967.23,333.16 969.44,330.47C972.03,327.63 973.5,323.92 976.42,321.36C980.4,317.78 985.03,314.95 989.99,312.91C994.23,310.47 999.06,309.12 1003.98,309.24C1012.96,307.48 1021.89,311.02 1030.86,310.62C1034.88,311.48 1038.98,310.94 1043.04,311.41C1046.39,311.48 1049.58,312.82 1052.95,312.64C1060.13,313.38 1067.08,309.95 1072.32,305.29C1075.69,302.53 1079.37,299.85 1081.46,295.92C1083.17,289.06 1085.64,282.17 1084.13,274.99C1083.69,272.63 1083.79,269.91 1081.57,268.4C1081.31,267.97 1080.78,267.09 1080.52,266.66C1075.77,264.02 1074.09,258.46 1069.72,255.45C1070.6,253.99 1070.88,251.86 1069.3,250.78C1066.8,248.96 1064.59,246.83 1062.49,244.59C1058.8,242.22 1054.86,240.24 1051.15,237.9C1044.58,234.31 1040.98,226.67 1033.62,224.32C1029.27,222.25 1024.32,223.08 1019.83,221.6C1010.56,219.61 1000.13,220.37 992.42,226.36M1093.06,292.38C1102.94,292.85 1112.76,294.01 1122.64,294.54C1123.88,295.81 1125.85,296.91 1125.53,299C1126.31,304.71 1124.22,310.26 1124.69,315.97C1124.83,319.81 1123.67,323.52 1123.47,327.34C1123.99,338.95 1121.57,350.45 1121.43,362.04C1119.58,372.42 1120.81,383.1 1118.72,393.45C1117.98,397.6 1118.67,401.84 1117.99,405.98C1117.12,410.75 1118.16,415.64 1117.08,420.4C1115.89,425.97 1117.27,432.18 1114.34,437.32C1111.84,439.16 1108.7,437.8 1105.94,437.59C1098.69,436.15 1091.26,436.76 1083.98,435.59C1074.98,435.89 1065.96,435.06 1057.04,433.88C1052.5,432.28 1047.18,435.25 1043.29,431.78C1042.06,429.86 1042.2,427.73 1042.85,425.67L1042.43,424.52C1045.24,420.67 1050.12,422.98 1054.01,422.44C1061.36,423.01 1068.76,423.26 1076.07,424.3C1079.68,424.77 1083.34,423.6 1086.92,424.55C1093.28,425.83 1099.85,424.9 1106.22,426.15C1107.34,412.1 1107.59,398.02 1109.13,384.03C1109.41,377.87 1109.42,371.68 1110.47,365.59C1110.2,357.67 1112.63,349.86 1111.91,341.96C1112.81,340.6 1112.24,338.88 1112.38,337.36C1112.34,331.19 1113.75,325.14 1113.94,318.98C1114.74,314.47 1114.22,309.89 1114.71,305.35C1108.58,304.34 1102.29,304.79 1096.1,304.22C1094.1,304.04 1092.07,302.74 1090.11,303.43C1088.04,305.21 1086.31,307.36 1084.59,309.47C1082.92,311.27 1082.66,314.08 1080.45,315.4C1077.34,317.59 1074.8,320.5 1071.45,322.34C1062.48,327.03 1053.6,331.93 1044.37,336.13C1043.62,348.09 1042.31,360.02 1042.07,371.99C1041.07,376.44 1041.71,381.09 1040.5,385.44L1040.99,385.75C1040.15,390.76 1040.46,395.87 1039.58,400.88C1039.77,407.26 1038.09,413.53 1038.6,419.91C1038.21,424.22 1038.13,430.91 1032.45,431.43C1030.77,430.64 1028.51,430.04 1027.78,428.16C1026.69,423.39 1028.98,418.72 1028.37,413.92C1027.74,404.89 1030.26,396.02 1029.91,386.99C1030.78,371.86 1032.92,356.79 1033.22,341.63C1031.56,342.58 1029.93,343.59 1028.31,344.58C1027.21,362.75 1026.25,380.92 1024.6,399.05C1023.58,411.39 1023.81,423.86 1021.57,436.06C1020.73,437.77 1022.72,438.36 1023.94,438.34C1034.28,439.7 1044.74,439.43 1055.11,440.61C1071.41,441.8 1087.71,442.76 1104.03,443.75C1109.12,443.57 1114.08,445.05 1119.18,444.84C1119.76,434.68 1120.51,424.53 1121.05,414.36C1121.21,408.9 1122.54,403.54 1122.37,398.07C1122.29,393.68 1123.66,389.41 1123.37,385.02C1124.2,366.34 1126.02,347.73 1126.89,329.06C1127.44,323.02 1128.48,317.02 1128.42,310.93C1128.47,304.69 1129.78,298.55 1129.79,292.32C1124.27,290.72 1118.53,291.74 1112.93,290.97C1106.85,290.26 1100.71,290.35 1094.67,289.36C1094.11,290.36 1093.59,291.37 1093.06,292.38Z" style="fill-rule:nonzero;"/>
        <path d="M1023.69,248.39C1025.75,245.48 1029.43,244.05 1032.94,244.33C1035.22,245.37 1037.07,247.28 1037.08,249.94C1037.27,251.69 1037.43,253.44 1037.62,255.2C1035.87,256.65 1034.23,258.37 1032.07,259.2C1028.97,260 1025.82,258.21 1023.94,255.85C1022.78,253.56 1023.05,250.79 1023.69,248.39Z" style="fill-rule:nonzero;"/>
        <g transform="matrix(0.987285,-0.158959,0.158959,0.987285,-15.158052,185.788818)">
            <path d="M1023.69,248.39C1025.75,245.48 1029.43,244.05 1032.94,244.33C1035.22,245.37 1037.07,247.28 1037.08,249.94C1037.27,251.69 1037.43,253.44 1037.62,255.2C1035.87,256.65 1034.23,258.37 1032.07,259.2C1028.97,260 1025.82,258.21 1023.94,255.85C1022.78,253.56 1023.05,250.79 1023.69,248.39Z" style="fill-rule:nonzero;"/>
        </g>
        <path d="M980.51,270.65C982.98,268.27 987.63,268.49 989.33,271.7C992.53,277.6 991.81,284.65 991.09,291.08C990.77,295.26 988.28,298.75 986.38,302.35C985.48,303.44 984.57,304.52 983.68,305.61C983.16,306.12 982.6,306.57 982.02,306.98C977.27,308.95 972.24,310.92 967,310.29C958.38,309.75 950.77,305.31 943.5,301.06C943.21,298.23 942.87,294.44 946.25,293.3C949.73,290.85 953.43,293.74 956.48,295.46C962.19,298.83 969.99,301.02 975.92,296.93C980.04,294.84 980.91,289.87 981.52,285.73C981.2,280.72 979.21,275.68 980.51,270.65Z" style="fill-rule:nonzero;"/>
        <path d="M968.91,380.24C973.23,376.25 979.51,376.04 985.06,375.58C993.36,377.52 998.96,385.5 1000.91,393.41C1002.92,398.06 1000.72,403.03 1000.41,407.79C999.42,412.7 996.45,416.99 995.99,422.02C995.89,424.16 994.24,425.66 992.98,427.21C992.35,428.79 991.62,430.32 990.71,431.75C988.5,435.09 987.95,439.27 985.52,442.5C983.27,445.45 981.65,450.26 976.97,449.32C971.77,447.74 965.43,448.61 961.47,444.27C960.5,434.62 965.73,426.05 967.9,416.96C964.96,414.19 960.84,412.72 958.85,408.99C958.4,406 957.22,402.93 958.45,399.97C960.72,392.93 962.86,385.05 968.91,380.24M977.07,387.72C972.16,391.62 969.37,397.61 969,403.82C973.21,406.85 979.03,408.12 981.71,412.91C980.95,415.18 980.08,417.42 979.5,419.74C975.97,425.06 973.5,431.28 973.2,437.68C974.46,437.26 976.07,437.2 976.79,435.88C979.61,431.8 981.14,426.99 983.81,422.81C985.89,419.74 986.17,415.95 987.58,412.6C988.92,409.23 990.39,405.82 990.68,402.15C991.2,398.8 989.8,395.6 989.26,392.35C987.58,390.25 985.92,387.6 983.05,387.15C981.03,387.09 979.05,387.47 977.07,387.72Z" style="fill-rule:nonzero;"/>
        <path d="M1105.9,192.75C1110.83,192.83 1115.75,193.68 1120.34,195.54C1123.8,198.5 1127.41,201.64 1128.9,206.11C1131.12,211.84 1134.82,218.01 1132.93,224.3C1132.16,229.28 1126.94,231.07 1123.61,234.02C1125.56,242.7 1130.31,250.92 1130.18,260.11C1129.35,262.64 1126.75,264.45 1124.12,264.66C1119.29,265.14 1114.38,267.73 1109.64,265.53C1107.83,261.67 1104.52,258.69 1103.34,254.53C1102.37,250.82 1099.71,247.93 1098.44,244.36C1094.81,241.55 1095.61,236.7 1093.76,232.96C1090.94,226.84 1090.08,220.09 1089.47,213.45C1090.44,211.06 1091.14,208.58 1091.91,206.12C1094.75,200.18 1099.28,194.58 1105.9,192.75M1101.7,211.88C1099.03,218.18 1101.75,224.86 1104.19,230.75C1105.47,234.72 1106.29,238.99 1109.11,242.25C1109.27,242.77 1109.61,243.8 1109.77,244.32C1112.53,247.83 1113.06,254.77 1118.7,254.58C1117.38,249.46 1116.34,244.1 1113.48,239.57C1111.6,236.58 1111.08,233.01 1109.46,229.9C1112.76,225.32 1118.5,223.99 1122.74,220.56C1121.24,214.43 1119.14,206.22 1112.14,204.52C1107.09,202.77 1102.56,207.18 1101.7,211.88Z" style="fill:rgb(0,0,1);fill-rule:nonzero;"/>
        <g transform="matrix(1,0,0,1,6.994061,0.320027)">
            <path d="M999.26,256.3C1002.43,255.32 1007.56,255.31 1008.95,259.07C1010.13,262.16 1009.67,266.77 1006.3,268.3C1002.41,269.76 997.02,267.4 996.58,262.97C996.35,260.53 996.64,257.36 999.26,256.3Z" style="fill:rgb(1,1,2);fill-rule:nonzero;"/>
        </g>
        <g transform="matrix(0.987285,-0.158959,0.158959,0.987285,-8.772523,178.763095)">
            <path d="M999.26,256.3C1002.43,255.32 1007.56,255.31 1008.95,259.07C1010.13,262.16 1009.67,266.77 1006.3,268.3C1002.41,269.76 997.02,267.4 996.58,262.97C996.35,260.53 996.64,257.36 999.26,256.3Z" style="fill:rgb(1,1,2);fill-rule:nonzero;"/>
        </g>
    </g>
</svg>
