<?xml version="1.0" encoding="UTF-8" standalone="no"?>
<!DOCTYPE svg PUBLIC "-//W3C//DTD SVG 1.1//EN" "http://www.w3.org/Graphics/SVG/1.1/DTD/svg11.dtd">
<svg width="100%" height="100%" viewBox="0 0 277 263" version="1.1" xmlns="http://www.w3.org/2000/svg" xmlns:xlink="http://www.w3.org/1999/xlink" xml:space="preserve" xmlns:serif="http://www.serif.com/" style="fill-rule:evenodd;clip-rule:evenodd;stroke-linejoin:round;stroke-miterlimit:2;">
    <g transform="matrix(1,0,0,1,-110.5,-193.0098)">
        <path d="M261.28,253.59C262.67,252.37 264.21,251.34 265.89,250.55C266.57,250.8 267.92,251.29 268.6,251.54C269.45,253.82 270.9,256.74 268.8,258.81C267.43,261.03 264.45,261.01 262.56,259.48C261.28,257.8 261.65,255.55 261.28,253.59Z" style="fill:rgb(1,1,1);fill-rule:nonzero;"/>
        <path d="M209.64,288.43C208.08,284.07 212.52,277.86 217.34,280.43C219.95,283.21 219.71,286.88 219.17,290.38C215.97,291.65 211.58,291.81 209.64,288.43Z" style="fill:rgb(1,1,1);fill-rule:nonzero;"/>
        <path d="M180.74,290.97C179.44,287.12 182.67,283.89 185.94,282.51C186.51,282.78 187.66,283.31 188.23,283.58C189.36,284.8 190.53,285.98 191.74,287.12C191.92,289.66 191.53,292.82 188.93,294.04C185.98,294.88 180.93,295.19 180.74,290.97Z" style="fill:rgb(1,1,1);fill-rule:nonzero;"/>
        <path d="M219.56,310.43C222.38,308.91 225.99,309.38 227.68,312.29C228.03,314.37 226.8,316.37 226.27,318.35C223.52,319.65 220.4,319.73 218.32,317.22C218.38,314.9 218.65,312.58 219.56,310.43Z" style="fill:rgb(1,1,1);fill-rule:nonzero;"/>
        <path d="M192.47,312.61C195.29,311.93 198.91,311.47 201.16,313.78C203.92,315.64 202.86,319.84 200.66,321.74C196.44,324.55 188.56,321.59 189.53,315.83C190.35,314.63 191.28,313.47 192.47,312.61Z" style="fill:rgb(1,1,1);fill-rule:nonzero;"/>
        <path d="M303.21,202.31C308.91,197.72 315.83,194.67 322.96,193.17C329.45,193.06 336.27,192.42 342.45,194.8C349.07,198.46 355.27,202.96 360.42,208.54C361.77,210.07 363.2,211.74 363.48,213.85C363.7,216.33 366.13,217.7 366.89,219.96C368.82,225.16 372.12,230.08 372.21,235.79C374.83,246.76 370.81,259.01 362.35,266.47C360.39,268.65 358.21,270.62 355.82,272.32C357.4,274.8 359.16,277.23 360.18,280.02C359.49,283.54 359.75,287.54 357.39,290.5C354.94,293.77 351.7,296.35 349.14,299.53C348.61,299.81 347.56,300.38 347.03,300.67C348.37,305.7 348.88,310.88 349.81,316C351.14,320.58 350.55,325.36 350.77,330.05C356.8,333.12 362.86,336.48 368.34,340.61C370.92,342.4 374.48,343 376.1,345.94C377.88,348.79 380.6,350.78 383.17,352.87C384.44,356.04 384.42,359.56 384.64,362.93C384.65,366.44 386.5,369.58 387.03,373.02C386.24,374.53 385.45,376.05 384.62,377.55C384.95,377.94 385.59,378.72 385.92,379.11C383.4,380.37 381.33,382.29 379.37,384.28C382.25,386.66 387.21,388.52 386.73,393.02C386.8,395.15 385.23,396.9 384.57,398.85C380.05,401.65 374.45,400.87 369.57,402.53C365.61,403.73 361.35,403.27 357.4,404.5C352.72,412.51 349.57,421.27 346.19,429.88C345.9,432.37 343.59,433.85 342.91,436.15C341.63,441.53 339.74,446.73 338.06,452C332.24,456.27 325.39,452.39 318.99,452.86C310.38,450.8 301.39,452.13 292.68,450.44C285.84,451.36 278.81,451.03 271.98,449.96C259.32,449.58 246.56,450.25 234.09,452.67C225.27,455.19 216.01,452.94 207.02,453.72C199.31,453.42 191.67,454.89 183.98,454.93C179.67,454.33 175.33,454.45 171,454.83C166.35,454.36 161.69,453.93 157,454.12C150.53,453.43 143.95,453.23 137.53,454.44C133.44,455.48 129.18,455.34 125,455.5C122.95,455.86 121.62,454.17 120.16,453.07C120.17,451.06 119.98,449.05 120.18,447.05C121.62,444.14 123.88,441.58 126.72,439.96C122.78,439.49 118.85,438.99 114.89,438.81C113.05,438.69 111.87,437.02 110.5,436.01C110.93,432.62 111.09,429.03 112.99,426.06C115.44,422.25 116.83,417.91 119.01,413.96C120.16,411.39 124.09,411.53 124.6,408.52C125.24,404.69 128.05,401.94 130.36,399.03C131.89,397.13 131.71,394.54 132.6,392.38C133.99,389 136.68,386.39 138.23,383.1C139.94,379.61 140.97,375.6 143.94,372.89C145.92,370.92 147.47,368.58 149.36,366.52C150.84,363.49 153.01,360.91 155.25,358.42C156.52,352.92 159.17,347.91 161.84,342.99C163.13,340.54 164.16,337.9 166.1,335.87C167.68,331.59 167.22,325.83 171.79,323.4C170.56,320.56 170.15,317.34 168.16,314.89C166.32,308.34 162.26,302.74 159.82,296.44C158.53,290.24 157.53,284 156.28,277.8C156.58,273.32 156.15,268.82 156.52,264.35C160.36,257.46 167.71,253.58 172.29,247.29C176.31,242.37 180.04,236.98 185.63,233.73C188.81,231.97 190.5,228.29 193.98,227C204.8,224.09 216.12,223.54 226.92,220.61C232.11,219.85 237.41,220.02 242.55,218.91C246.66,218.01 251.09,218.88 254.96,216.94C260.16,217.79 266.62,213.83 270.68,218.5C273.31,220.77 276.24,222.85 278.12,225.84C279.28,228.5 279.89,231.36 280.99,234.04C284.64,241.53 284.65,250.07 286.95,257.98C287.79,264.02 290.12,269.75 290.61,275.84C291.78,280.75 294.03,285.67 293.23,290.82C291.03,292.77 290.21,295.59 289.14,298.21C285.95,302.6 281.87,306.26 277.74,309.75C272.64,314.55 268.52,320.43 262.57,324.3C254.8,328.23 246.16,329.8 237.92,332.42C248.43,331.95 258.91,333.07 269.16,335.36C275.73,336.85 282.78,336.24 288.9,339.44C291.88,337.39 294.72,335.14 297.61,332.97C299.43,321.42 300.64,309.79 302.89,298.31C300.86,295.68 297.9,293.54 297.32,290.07C295.47,284.89 298.79,280.03 299.52,275C300.26,274.19 301.02,273.39 301.7,272.52C299.68,267.43 294.77,264.42 292.3,259.63C288.72,253.38 289.01,246.08 287.53,239.23C286.32,232.05 288.76,225 290.91,218.25C293.32,215.51 294.59,211.84 297.7,209.74C300.25,207.83 301.03,204.51 303.21,202.31M311.23,208.36C306.67,213.43 301.67,218.3 298.49,224.42C297.15,227.84 296.88,231.56 295.83,235.07C298.14,242.63 298.76,250.87 303.23,257.6C308.53,262.18 314.09,266.86 320.94,268.88C326.09,271.24 331.71,269.36 337.04,268.85C341.26,268.6 345.05,266.64 348.76,264.81C353.36,262.8 357.94,259.48 359.55,254.53C360.04,254.25 361,253.7 361.48,253.43C367.14,240.25 360.62,225.83 353.05,214.91C348.84,210.41 343.68,206.74 338.34,203.69C329.24,201.72 318.9,202.66 311.23,208.36M210.81,233.76C207.27,234.81 203.4,234.02 199.96,235.47C196.58,236.49 194.67,239.75 191.6,241.31C183.14,246.22 179.18,255.72 171.76,261.77C169.46,263.63 167.29,265.67 165.51,268.04C175.16,268.3 184.76,266.78 194.26,265.2C206.9,261.66 220.9,263.87 232.91,257.84C236.39,256.05 236.84,251.87 239.49,249.32C242.95,244.54 247.84,241.09 251.67,236.65C254.65,233 257.96,229.66 260.99,226.05C244.32,229.08 227.33,229.87 210.81,233.76M255.56,246.54C250.33,250.31 246.75,255.61 243.17,260.86C240.63,263.37 238.42,266.58 234.85,267.66C228.5,270.37 221.67,271.35 214.93,272.49C205.12,271.8 195.75,275.21 186.15,276.45C180.77,276.68 175.44,278.1 170.03,277.43C168.46,277.09 167.05,277.84 165.7,278.52C166.87,289.56 170.94,300.11 176.19,309.83C178.81,313.25 178.83,317.72 180.51,321.55C182.1,323.17 183.29,325.25 185.1,326.59C192.34,327.75 199.8,328.17 207.04,326.84C212.05,326.27 217.15,326.48 222.02,324.93C228.81,324.74 235.22,322.21 241.9,321.02C244.57,320.38 247.21,319.63 249.9,319.07C248.59,314.16 246.82,309.36 244.44,304.86C243.39,301.76 243.01,297.85 245.62,295.39C247.57,295.46 249.49,295.81 251.33,296.48C253,303.05 257.1,308.74 258.14,315.52C261.34,312.97 264.32,310.14 267.16,307.2C271.25,302.26 276.17,298.12 280.88,293.81C281.64,291.42 282.91,289.27 284.21,287.16C281.96,276.74 278.81,266.48 277.51,255.88C275.7,247.4 273.92,238.87 270.31,230.94C264.86,235.63 260.16,241.06 255.56,246.54M323.34,285.01C320.06,285.88 316.76,286.64 313.46,287.4C310.89,287.13 308.34,286.79 305.77,286.57C307.32,289.6 310.59,290.83 313.64,291.78C316.94,292.76 320.31,293.65 323.8,293.26C326.49,293.83 329.24,294.42 332,293.89C336.23,293.22 341.03,293.46 344.51,290.54C346.72,288.84 349.04,287.04 350.33,284.51C351.69,281.49 348.73,278.55 346.09,277.6C337.94,277.92 331.24,283.53 323.34,285.01M324.07,311.08C323.14,311.61 321.33,311.73 321.25,313.05C317.71,313.49 314.15,313.67 310.63,314.23C310.43,313.9 310.01,313.25 309.81,312.92C307.79,319.71 307.87,326.89 306.58,333.8C305.17,336.86 303.24,339.78 303.05,343.25C298.44,342.84 295.32,346.51 291.73,348.7C288.77,353.76 282.9,355.79 278.73,359.65C282.14,361.41 286.22,361.48 289.47,363.55C291.45,365.13 290.82,367.75 290.42,369.89C289.84,370.31 288.68,371.16 288.1,371.58C283.59,371.69 279.27,370.35 274.97,369.16C275.11,371.15 275.3,373.14 275.55,375.13C275.03,376.05 274.51,376.98 273.99,377.91C283.77,382.65 294.36,385.35 305,387.31C309.89,387.72 314.8,388.08 319.61,389.11C328.04,390.63 336.45,388.87 344.78,387.65C353.18,385.78 360.96,381.96 369.03,379.08C372.45,378.15 374.92,375.52 377.36,373.12C376.71,370.35 375.91,367.63 374.98,364.95C371.17,367.27 367.76,370.5 363.34,371.62C356.24,373.42 349.49,377.56 341.89,376.55C337.91,375.97 333.34,377.63 329.82,375.15C327.52,373.09 329.25,369.73 330.93,367.89C336.03,365.89 341.65,366.85 346.99,366.68C352.88,365.89 357.96,362.25 363.91,361.62C366.62,359.53 369.29,357.39 371.96,355.24C367.32,349.93 360.69,347.05 354.98,343.1C352.52,341.23 349.4,340.82 346.5,340.07C345.13,342.35 342.38,342.18 340.25,343.22C337.06,344.82 333.45,345.21 329.96,345.65C327.26,345.23 323.58,345.05 322.51,342C321.55,339.74 323.61,337.92 324.84,336.29C330.71,335.88 336.66,335.37 341.87,332.38C342.01,323.7 340.33,315.17 339.11,306.61C337.7,306.57 336.28,306.53 334.87,306.49C331.47,308.47 327.79,309.85 324.07,311.08M245.67,347.18C238.95,349.22 232.57,352.23 225.95,354.55C219.77,354.15 213.83,356.41 208.42,359.2C203.2,361.66 197.41,362.04 191.88,363.49C188.75,364.19 185.73,362.51 183.15,360.93C180.37,359.41 179.78,356.05 179.05,353.26C178.2,350.98 178.39,347.77 176.52,346.15C174.9,347.96 173.58,350.04 172.86,352.37C169.25,354.69 167.93,359 165.14,362.06C163.15,364.27 160.82,366.14 158.77,368.3L158.65,368.3C154.64,374.66 149.28,380.17 146.21,387.12C145.18,389.6 143.46,391.7 142.3,394.11C141.14,399.23 139.06,404.38 135.15,408.02C132.37,410.87 132.38,415.53 129.22,418.06C125.31,420.19 123.88,424.7 122.03,428.47L121.34,428.91L121.43,429.82C121.81,429.8 122.57,429.76 122.96,429.74C128.73,430.58 134.54,429.34 140.31,429.03L140.27,429.62C145.61,428.9 151.01,429 156.34,428.29C161.97,427.36 167.6,427.89 173.15,429.07C168.99,425.45 166.68,420.35 163.12,416.23L163.16,416.17C158.39,413.39 154.99,408.97 151.16,405.12C149.98,402.87 147.89,400.68 148.42,397.95C149.27,395.97 150.37,393.19 152.97,393.32C154.81,393.01 156.01,394.61 157.22,395.68C159.37,400.55 163.67,403.91 167.34,407.59C168.27,408.27 169.04,409.53 170.25,409.68C173.16,413.78 176.23,417.76 179.2,421.82C181.36,424.75 185.86,426.11 185.98,430.26C195.92,432.84 206.22,433.71 216.4,434.78C217.33,428.44 220.86,422.97 222.73,416.92C224,412.48 226.94,408.8 228.72,404.59L229.08,404.93C230.23,399.46 233.09,394.66 235.56,389.73C237.08,385.79 239.82,382.51 241.53,378.67C245.87,370.44 249.55,361.87 253.16,353.3C254.96,350.2 255.59,346.63 256.93,343.33C255.3,343.03 253.68,342.73 252.07,342.44C251.43,345.58 248.68,347.06 245.67,347.18M265.83,345.02C264.19,348.51 263.39,352.33 261.79,355.84C260.16,360.33 257.14,364.4 257.14,369.34C255.25,371.3 253.94,373.72 253.17,376.32C251.29,379.96 249.67,383.78 247.14,387.04C244.67,390.18 243.8,394.16 241.83,397.58C240.21,400.48 238.86,403.52 237.89,406.71C233.18,415.77 228.16,424.77 225.44,434.69C227.6,434.92 229.77,435.2 231.95,435.02C240.92,434.23 249.95,435.43 258.74,437.23C263.24,437.64 267.68,438.47 272.15,439.11L272.94,438.89L272.95,439.55C279.24,440.52 285.71,439.82 292.03,440.78C300.39,441.77 308.84,441.54 317.19,442.63C321.71,444.06 326.65,443.54 331.34,444.38C331.97,441.18 333.26,438.17 334.07,435.02C335.11,430.26 338.76,426.64 339.92,421.93C341.59,415.92 344.26,410.26 346.73,404.56C341.9,403.96 337.08,403.01 332.2,403.28C326.04,403.78 320.02,401.74 313.88,401.63C311.4,401.91 310.47,399.35 309.41,397.64C306.31,397.22 303.19,396.95 300.11,396.41C292.51,394.22 284.49,393.31 277.33,389.72C274.52,388.07 271.23,387.89 268.22,386.87C265.97,384.13 263.76,380.61 264.42,376.91C265.2,371.6 266.26,366.23 265.35,360.85C266.57,358.31 268.25,355.92 270.89,354.72C272.67,350.8 277.55,349.72 280.18,346.39C275.36,346.34 270.57,345.82 265.83,345.02Z" style="fill-rule:nonzero;"/>
        <path d="M200.69,246.7C203.82,242.75 209.07,239.8 214.15,241.82C217.4,242.54 217.1,246.43 218.1,248.93C214.89,252.5 210.49,254.23 206.05,255.68C204.36,255.7 202.91,254.73 201.44,254.04C201.08,251.64 199.77,249.12 200.69,246.7Z" style="fill-rule:nonzero;"/>
        <path d="M198.27,302.21C199.65,299.72 200.25,295.31 203.9,295.46C208.27,295.2 211.6,301.32 208.26,304.51C206.12,305.76 203.06,306.96 200.87,305.24C199.89,304.32 199.1,303.24 198.27,302.21Z" style="fill-rule:nonzero;"/>
        <path d="M262.58,272.63C264.2,270.76 266.63,271.98 268.61,272.39C269.28,274.26 269.57,276.23 269.58,278.22C267.43,280.56 263.52,281.21 261.7,278.15C261.73,276.34 260.65,273.82 262.58,272.63Z" style="fill:rgb(2,1,2);fill-rule:nonzero;"/>
        <path d="M304.21,369.89C303.56,367.33 306.17,365.9 307.75,364.45C310.35,364.93 312.46,366.41 313.6,368.83C312.48,370.42 311.91,372.59 310.18,373.64C307.61,373.96 304.71,372.62 304.21,369.89Z" style="fill:rgb(3,2,2);fill-rule:nonzero;"/>
    </g>
</svg>
