<?xml version="1.0" encoding="UTF-8" standalone="no"?>
<!DOCTYPE svg PUBLIC "-//W3C//DTD SVG 1.1//EN" "http://www.w3.org/Graphics/SVG/1.1/DTD/svg11.dtd">
<svg width="100%" height="100%" viewBox="0 0 237 216" version="1.1" xmlns="http://www.w3.org/2000/svg" xmlns:xlink="http://www.w3.org/1999/xlink" xml:space="preserve" xmlns:serif="http://www.serif.com/" style="fill-rule:evenodd;clip-rule:evenodd;stroke-miterlimit:1.5;">
    <g transform="matrix(1,0,0,1,-316.734501,-129.073409)">
        <path d="M350.21,159.16C350.81,155.24 351.38,151.3 352.16,147.41C378.89,149.44 405.77,150.01 432.53,152C432.14,159.1 430.79,166.07 429.74,173.09C426.86,195.28 423.16,217.36 420.4,239.56C419.07,245.18 418.83,250.98 417.6,256.61C413.99,260.28 411.42,264.76 408.9,269.2C408.25,272.36 407.07,275.38 406.18,278.47C386.8,276.71 367.35,275.8 347.96,273.99C344,273.47 339.93,274.04 336.02,273.14C338.31,254.79 340.86,236.44 343.27,218.1C343.6,215.4 343.71,212.68 343.89,209.97C345.84,202.23 346.25,194.17 346.97,186.24C346.03,185.29 344.93,184.72 343.68,184.53C343.68,183.51 343.68,182.5 343.67,181.49C345.18,182.3 346.58,182.17 347.88,181.09C348.53,179.06 348.63,176.92 348.74,174.82C347.54,173.94 346.21,173.3 344.78,172.92L344.83,172.13C346.33,171.37 348.44,171.14 349.21,169.39C350.39,166.11 351.02,162.6 350.21,159.16Z" style="fill:white;fill-rule:nonzero;"/>
        <path d="M487.12,227.99C494.4,223.89 502.85,226.55 510.53,227.67C516.73,229.01 519.57,235.41 525.03,238.03C529.22,240.16 533.09,242.91 536.17,246.48C537.85,249.78 541.04,251.97 542.76,255.24C543.47,256.58 544.31,257.83 545.27,259.02C546.75,265.36 545.84,272.11 542.8,277.85C537.77,282.78 531.53,288.26 523.91,287.05C516.32,285.61 508.51,286.34 500.93,284.85C491.03,283.27 480.65,286.54 473.42,293.45C470.36,297.19 467.58,301.18 465.59,305.6C459.37,313.93 458.31,324.87 452.38,333.32C448.38,336.44 443.01,338.2 437.97,337.05C433.36,336.62 428.19,335.65 425.02,331.98C420.72,325.93 414.59,320.59 413.44,312.87C413.48,302.2 411.26,291.52 412.8,280.86C414.55,274.36 416.9,267.51 422.15,263.02C430.51,258.34 440.43,259.54 449.41,257.1C452.61,255.56 456.32,255.9 459.55,254.42C463.01,253.23 465.13,250.09 467.78,247.77C470.29,245.65 472.7,243.41 475.23,241.32C480.17,237.74 481.08,230.39 487.12,227.99M487.87,238.98C484.29,242.17 482.92,247.39 483.89,252.01C484.34,254.91 484.17,258.26 486.58,260.39C490.66,264.19 496.86,263.48 502,263.19C505.42,263.91 508.36,261.39 510.82,259.35C512.69,254.88 516.03,250.84 516.6,245.93C515.62,243.4 514.73,240.83 513.76,238.3C512.68,236.61 510.7,235.78 509.03,234.79C505.94,232.97 502.2,233.94 498.86,233.09C497.25,232.85 495.55,232.05 493.97,232.79C490.9,233.6 490.1,237.09 487.87,238.98M476.39,260.03C476.14,263.04 476.85,266.04 477.53,268.97C476.61,271.66 476.55,275.3 473.56,276.64C468.48,280.05 462.41,276.8 457.84,274.07C455.5,272.44 453.16,274.64 451.48,276.11L451.22,275.43C445.34,273.11 438.94,275.95 434.55,279.98C432.09,277.13 429.83,273.43 425.95,272.47C422.19,272.08 421.3,276.33 420.57,279.1C419.89,282.24 421.81,285.01 423,287.75C421.25,290.62 416.79,292.01 417.41,295.99C417.02,298.94 418.76,302.44 421.91,302.94C425.12,303.45 427.66,301.15 430.36,299.88C432.59,303.91 436.21,307.64 440.95,308.36C444,308.23 447.41,306.34 447.99,303.11C448.94,298.75 446.28,294.78 444.17,291.21C447.2,288.39 452.58,287.53 453.46,282.95C453.53,282.33 453.66,281.07 453.73,280.44C460.59,284.53 469.38,287.81 476.96,283.54C483.39,279.45 484.91,270.9 483.87,263.85C483.47,261.76 482.94,259.28 480.85,258.23C479.3,257.78 476.67,258.03 476.39,260.03Z" style="fill:white;fill-rule:nonzero;"/>
        <path d="M339.98,131.14C344.64,127.49 350.52,129.78 355.84,129.81C363.21,130.5 370.57,131.21 377.98,131.15C400.63,133.01 423.33,133.82 445.99,135.59C447.98,135.37 449.12,137.31 450.57,138.32C451.28,141.47 450.96,144.68 450.75,147.86C450.14,152.3 450.07,156.82 448.56,161.09C448.53,168.63 446.55,175.97 446.19,183.48C444.9,187.69 445.51,192.18 444.33,196.41C442.21,214.73 439.86,233.03 437.45,251.33C442.63,251.12 447.6,249.58 452.64,248.48C452.66,247.93 452.7,246.82 452.71,246.26C451.37,243.91 450.17,241.48 448.9,239.1C447.68,235.72 444.79,232.85 445.37,228.98C444.77,225.93 449.05,222.85 451.13,225.86C455.12,231.27 456.83,238.05 460.59,243.65C464.26,240.25 468.66,237.43 471.17,232.98C474.36,229.26 477.13,224.9 481.72,222.75C485.69,221.03 489.47,218.27 493.96,218.29C497.49,217.95 501.12,218.09 504.51,219.19C509.36,220.21 514.73,220.11 518.91,223.16C521.11,224.96 523.38,226.75 525.11,229.04C532.77,233.69 540.38,238.87 545.69,246.24C546.02,247.33 546.32,248.43 546.58,249.55C550.52,252.43 552.14,257.34 552.98,261.95C554.28,268.3 552.14,274.72 549.47,280.42C547.81,282.73 545.48,284.44 543.69,286.64C540.3,290.91 534.61,292.1 529.59,293.34C520.75,294.25 511.84,293.91 502.97,293.88C502.04,293.29 501.34,292.04 500.08,292.24C496.7,292.2 493.21,291.7 489.92,292.68C485.96,293.61 482.51,295.87 479.2,298.12C473.69,304.35 470.26,312.02 466.65,319.43C463.32,326.62 461.77,335.15 455.34,340.4C452.6,342.09 449.6,343.39 446.53,344.35C441.04,345.27 435.45,344.39 430.08,343.16C424.29,342.38 420.46,337.37 416.52,333.55C414.08,330.27 411.91,326.8 409.65,323.41C406.85,319.09 406.66,313.82 406.51,308.84C406.48,304.59 405.44,300.42 405.48,296.17C395,294.93 384.47,295.09 373.98,294.28C360.63,293.88 347.36,292.32 334.02,292.1C330.12,292.03 326.64,290.03 322.86,289.32C320.58,288.23 317.9,286.7 317.66,283.88C315.84,279 317.2,273.9 317.58,268.92C319.95,253.64 321.3,238.2 323.69,222.93C325.33,207.64 327.97,192.47 329.47,177.17C331.26,164.26 332.84,151.32 334.75,138.45C336.51,136.02 338.28,133.61 339.98,131.14M341.05,144.03C340.11,152.73 338.14,161.29 337.57,170.02C337.04,172.34 336.04,174.59 336.23,177.02C336.24,188.52 332.98,199.67 332.41,211.12C329.51,231.37 327.41,251.72 324.37,271.97C324.32,275.33 323.49,279.06 324.75,282.22C327.98,283.71 331.52,284.47 334.96,285.39C352.36,285.91 369.75,287.33 387.15,288.26C388.57,287.04 389.89,285.71 391.09,284.27C376.05,282.59 360.86,282.67 345.87,280.53C340.48,280.48 334.99,280.46 329.7,279.42C329.38,279.07 328.74,278.38 328.41,278.03C328.21,272.01 329.97,266.08 330.6,260.1C331.66,250.35 332.99,240.63 334.28,230.92C335.87,223.21 335.93,215.31 337.35,207.58C338.48,201.15 338.43,194.51 340.22,188.21C340.6,186.69 341.31,185.19 342.87,184.6C343.01,183.47 343.13,182.35 343.24,181.22C340.59,178.81 341.9,174.51 344.78,172.92C346.21,173.3 347.54,173.94 348.74,174.82C348.63,176.92 348.53,179.06 347.88,181.09C346.58,182.17 345.18,182.3 343.67,181.49C343.68,182.5 343.68,183.51 343.68,184.53C344.93,184.72 346.03,185.29 346.97,186.24C346.25,194.17 345.84,202.23 343.89,209.97C343.71,212.68 343.6,215.4 343.27,218.1C340.86,236.44 338.31,254.79 336.02,273.14C339.93,274.04 344,273.47 347.96,273.99C367.35,275.8 386.8,276.71 406.18,278.47C407.07,275.38 408.25,272.36 408.9,269.2C411.42,264.76 413.99,260.28 417.6,256.61C418.83,250.98 419.07,245.18 420.4,239.56C423.16,217.36 426.86,195.28 429.74,173.09C430.79,166.07 432.14,159.1 432.53,152C405.77,150.01 378.89,149.44 352.16,147.41C351.38,151.3 350.81,155.24 350.21,159.16C351.02,162.6 350.39,166.11 349.21,169.39C348.44,171.14 346.33,171.37 344.83,172.13C344.15,171.11 343.28,170.21 342.72,169.12C342.06,163.31 343.2,157.52 344.35,151.86C344.82,149.23 344.13,146.19 346.1,144.04C347.89,141.1 351.62,139.94 354.88,140.4C361.47,142.13 368.38,141.11 375.06,142.19C384.34,142.27 393.58,142.98 402.84,143.48C414.62,144.64 426.46,144.17 438.23,145.5C439.46,151.63 439.94,158 438.08,164.08C436.9,172.57 436.11,181.15 434.48,189.59C431.83,208.8 429.19,228.02 426.27,247.2C427.82,246.01 429.32,244.77 430.85,243.54L430.74,242.6L431.13,242.65C432.15,241.41 432.8,239.28 431.81,237.86C433,233.43 432.86,228.63 433.64,224.07C435.34,213.06 436.17,201.93 438.14,190.96C438.88,180.41 441.05,170.04 441.78,159.5C443.19,153.84 442.58,148 442.92,142.24C415.98,140.28 388.98,139.04 362.05,137.09C356.66,136.25 351.13,136.94 345.8,135.66C343.82,138.2 340.99,140.49 341.05,144.03M487.12,227.99C481.08,230.39 480.17,237.74 475.23,241.32C472.7,243.41 470.29,245.65 467.78,247.77C465.13,250.09 463.01,253.23 459.55,254.42C456.32,255.9 452.61,255.56 449.41,257.1C440.43,259.54 430.51,258.34 422.15,263.02C416.9,267.51 414.55,274.36 412.8,280.86C411.26,291.52 413.48,302.2 413.44,312.87C414.59,320.59 420.72,325.93 425.02,331.98C428.19,335.65 433.36,336.62 437.97,337.05C443.01,338.2 448.38,336.44 452.38,333.32C458.31,324.87 459.37,313.93 465.59,305.6C467.58,301.18 470.36,297.19 473.42,293.45C480.65,286.54 491.03,283.27 500.93,284.85C508.51,286.34 516.32,285.61 523.91,287.05C531.53,288.26 537.77,282.78 542.8,277.85C545.84,272.11 546.75,265.36 545.27,259.02C544.31,257.83 543.47,256.58 542.76,255.24C541.04,251.97 537.85,249.78 536.17,246.48C533.09,242.91 529.22,240.16 525.03,238.03C519.57,235.41 516.73,229.01 510.53,227.67C502.85,226.55 494.4,223.89 487.12,227.99Z" style="fill-rule:nonzero;"/>
        <path d="M503.33,160.29C506.86,155.47 513.3,154.61 518.8,155.72C523.06,157.83 525.74,162.3 526.62,166.85C528.1,171.93 525.68,177 523.59,181.54C521.61,184.37 521.09,188.03 518.53,190.45C514.73,194.53 512.83,200.3 508.04,203.43C504.85,203.74 502,201.89 499.03,201.04C496.97,200.53 495.15,198.15 496.14,196.03C497.49,190.65 500.66,186.07 502.95,181.09C500.96,179.29 498.96,177.47 497.59,175.15C496.72,169.52 500.4,164.71 503.33,160.29M510.1,164.48C508.42,163.63 506.08,166.37 507.21,167.92C505.66,168.86 504.78,171.03 505.29,172.76C506.36,174.21 508,175.07 509.48,176.04C510.59,177.23 511.62,178.51 512.58,179.84C511.58,181.14 510.79,182.57 510.17,184.09C507.3,187.26 505.47,191.17 504,195.15C504.51,195.13 505.53,195.08 506.03,195.05C509.12,192.42 510.88,188.58 513.5,185.51C516.28,179.7 521.2,173.99 519.28,167.09C519.07,166.59 518.66,165.58 518.45,165.08C516.59,162.54 511.8,161.35 510.1,164.48Z" style="fill-rule:nonzero;"/>
        <path d="M471.33,168.43C475.14,166.34 479.47,168.33 483.02,170.05C488.05,173.26 489.32,179.53 490.19,185.01C491.12,188.68 489.46,193.24 485.73,194.64C484.63,195.37 483.03,195.55 482.35,196.78C483.21,202.53 485.05,208.22 484.31,214.1C483.05,216.95 479.59,216.58 477.04,216.69C474.86,216.6 472.1,217.42 470.41,215.67C466.97,210.41 466.65,203.95 463.74,198.44C463.07,192.28 461.01,186.17 462.03,179.91C463.61,175.16 466.71,170.63 471.33,168.43M472.31,176.37C471.82,176.97 471.33,177.58 470.84,178.19C468.35,182.21 468.48,186.99 469.78,191.4C470.3,196.84 472.5,201.85 474.23,206.97C474.54,208.51 475.77,209.15 477.27,209.25C477.06,203.42 474.78,198.07 473.52,192.45C474.76,191.14 476.3,190.19 477.96,189.5L477.96,189.46C479.82,188.74 482.95,188.72 483.24,186.16C482.8,182.74 482.07,179.01 479.45,176.55C477.31,175.04 474.52,174.93 472.31,176.37Z" style="fill-rule:nonzero;"/>
        <path d="M499.83,255.86C501.8,254.13 505.23,253.78 507.02,255.98C507.86,257.53 507.79,259.37 508.21,261.05C509.08,260.48 509.94,259.92 510.82,259.35C508.36,261.39 505.42,263.91 502,263.19C499.22,261.81 498.65,258.53 499.83,255.86Z" style="fill-rule:nonzero;"/>
        <path d="M476.39,260.03C476.67,258.03 479.3,257.78 480.85,258.23C482.94,259.28 483.47,261.76 483.87,263.85C484.91,270.9 483.39,279.45 476.96,283.54C469.38,287.81 460.59,284.53 453.73,280.44C453.66,281.07 453.53,282.33 453.46,282.95C453.43,282.49 453.38,281.56 453.36,281.1C452.75,279.43 452.09,277.78 451.48,276.11C453.16,274.64 455.5,272.44 457.84,274.07C462.41,276.8 468.48,280.05 473.56,276.64C476.55,275.3 476.61,271.66 477.53,268.97C476.85,266.04 476.14,263.04 476.39,260.03Z" style="fill-rule:nonzero;"/>
        <path d="M510.1,164.48C511.8,161.35 516.59,162.54 518.45,165.08C515.26,168.56 511.62,171.75 509.48,176.04C508,175.07 506.36,174.21 505.29,172.76C504.78,171.03 505.66,168.86 507.21,167.92C508.6,167.19 509.66,166.01 510.1,164.48Z" style="fill:rgb(236,28,52);fill-rule:nonzero;"/>
        <path d="M487.87,238.98C490.1,237.09 490.9,233.6 493.97,232.79C495.55,232.05 497.25,232.85 498.86,233.09C502.2,233.94 505.94,232.97 509.03,234.79C510.7,235.78 512.68,236.61 513.76,238.3C514.73,240.83 515.62,243.4 516.6,245.93C516.03,250.84 512.69,254.88 510.82,259.35C509.94,259.92 509.08,260.48 508.21,261.05C507.79,259.37 507.86,257.53 507.02,255.98C505.23,253.78 501.8,254.13 499.83,255.86C498.65,258.53 499.22,261.81 502,263.19C496.86,263.48 490.66,264.19 486.58,260.39C484.17,258.26 484.34,254.91 483.89,252.01C482.92,247.39 484.29,242.17 487.87,238.98M494.34,236.41C491.45,237.91 491.67,242.17 493.91,244.16C496.64,245.74 500.27,243.74 501.4,241.09C501.17,239.53 500.77,238.02 500.43,236.5C498.41,236.34 496.2,235.2 494.34,236.41M505.18,247.02C504.83,250.07 508.42,251.97 511.07,251.5C512.44,250.84 513.54,249.76 514.73,248.82C514.46,246.97 514.52,245.02 513.79,243.27C511.21,239.53 504.2,242.53 505.18,247.02M489.38,249.43C487.15,250.16 487.2,252.72 487.52,254.63C488.21,257.41 491.86,258.45 494.29,257.39C496.35,255.9 496.27,252.8 495.33,250.7C494.04,248.76 491.35,249.27 489.38,249.43Z" style="fill:rgb(236,28,52);fill-rule:nonzero;"/>
        <path d="M341.05,144.03C340.99,140.49 343.82,138.2 345.8,135.66C351.13,136.94 356.66,136.25 362.05,137.09C388.98,139.04 415.98,140.28 442.92,142.24C442.58,148 443.19,153.84 441.78,159.5C441.05,170.04 438.88,180.41 438.14,190.96C436.17,201.93 435.34,213.06 433.64,224.07C432.86,228.63 433,233.43 431.81,237.86C430.9,239.26 430.35,240.92 430.74,242.6L430.85,243.54C429.32,244.77 427.82,246.01 426.27,247.2C429.19,228.02 431.83,208.8 434.48,189.59C436.11,181.15 436.9,172.57 438.08,164.08C439.94,158 439.46,151.63 438.23,145.5C426.46,144.17 414.62,144.64 402.84,143.48C393.58,142.98 384.34,142.27 375.06,142.19C368.38,141.11 361.47,142.13 354.88,140.4C351.62,139.94 347.89,141.1 346.1,144.04C344.13,146.19 344.82,149.23 344.35,151.86C343.2,157.52 342.06,163.31 342.72,169.12C343.28,170.21 344.15,171.11 344.83,172.13L344.78,172.92C341.9,174.51 340.59,178.81 343.24,181.22C343.13,182.35 343.01,183.47 342.87,184.6C341.31,185.19 340.6,186.69 340.22,188.21C338.43,194.51 338.48,201.15 337.35,207.58C335.93,215.31 335.87,223.21 334.28,230.92C332.99,240.63 331.66,250.35 330.6,260.1C329.97,266.08 328.21,272.01 328.41,278.03C328.74,278.38 329.38,279.07 329.7,279.42C334.99,280.46 340.48,280.48 345.87,280.53C360.86,282.67 376.05,282.59 391.09,284.27C389.89,285.71 388.57,287.04 387.15,288.26C369.75,287.33 352.36,285.91 334.96,285.39C331.52,284.47 327.98,283.71 324.75,282.22C323.49,279.06 324.32,275.33 324.37,271.97C327.41,251.72 329.51,231.37 332.41,211.12C332.98,199.67 336.24,188.52 336.23,177.02C336.04,174.59 337.04,172.34 337.57,170.02C338.14,161.29 340.11,152.73 341.05,144.03Z" style="fill:rgb(235,28,53);fill-rule:nonzero;"/>
        <path d="M420.57,279.1C421.3,276.33 422.19,272.08 425.95,272.47C429.83,273.43 432.09,277.13 434.55,279.98C438.94,275.95 445.34,273.11 451.22,275.43L451.48,276.11C452.09,277.78 452.75,279.43 453.36,281.1C453.38,281.56 453.43,282.49 453.46,282.95C452.58,287.53 447.2,288.39 444.17,291.21C446.28,294.78 448.94,298.75 447.99,303.11C447.41,306.34 444,308.23 440.95,308.36C436.21,307.64 432.59,303.91 430.36,299.88C427.66,301.15 425.12,303.45 421.91,302.94C418.76,302.44 417.02,298.94 417.41,295.99C416.79,292.01 421.25,290.62 423,287.75C421.81,285.01 419.89,282.24 420.57,279.1M424.83,283C426.65,284.28 428.21,285.89 429.1,287.97C426.71,290.51 423.96,292.72 420.62,293.87C420.65,295.96 419.19,299.13 422.04,299.86C426.24,301.24 430.07,297.34 432.86,294.6C434.87,298.26 436.05,302.99 439.73,305.33C443.16,306.69 444.33,302.53 444.49,299.96C442.35,296.93 440.67,293.6 438.41,290.66C440.75,288.05 444.13,286.9 447.07,285.14C449.38,284 448.57,281.09 448.96,279.03C447.98,278.52 447.01,278.01 446.05,277.51C442.1,278.91 438.49,281.06 435.05,283.43C432.93,280.91 431.15,277.43 427.88,276.37C424.15,276.09 424.13,280.41 424.83,283Z" style="fill:rgb(235,28,53);fill-rule:nonzero;"/>
        <path d="M518.45,165.08C518.66,165.58 519.07,166.59 519.28,167.09C521.2,173.99 516.28,179.7 513.5,185.51C510.88,188.58 509.12,192.42 506.03,195.05C505.53,195.08 504.51,195.13 504,195.15C505.47,191.17 507.3,187.26 510.17,184.09C510.79,182.57 511.58,181.14 512.58,179.84C511.62,178.51 510.59,177.23 509.48,176.04C511.62,171.75 515.26,168.56 518.45,165.08Z" style="fill:rgb(254,254,254);fill-rule:nonzero;"/>
        <path d="M470.84,178.19C471.33,177.58 471.82,176.97 472.31,176.37C474.07,180.8 477.98,184.45 477.96,189.46L477.96,189.5C476.3,190.19 474.76,191.14 473.52,192.45C474.78,198.07 477.06,203.42 477.27,209.25C475.77,209.15 474.54,208.51 474.23,206.97C472.5,201.85 470.3,196.84 469.78,191.4C468.48,186.99 468.35,182.21 470.84,178.19Z" style="fill:rgb(254,254,254);fill-rule:nonzero;"/>
        <path d="M430.74,242.6C430.35,240.92 430.9,239.26 431.81,237.86C432.8,239.28 432.15,241.41 431.13,242.65L430.74,242.6Z" style="fill:rgb(255,0,0);fill-rule:nonzero;"/>
        <path d="M507.21,167.92C506.08,166.37 508.42,163.63 510.1,164.48C509.66,166.01 508.6,167.19 507.21,167.92Z" style="fill:rgb(183,62,77);fill-rule:nonzero;"/>
        <path d="M472.31,176.37C474.52,174.93 477.31,175.04 479.45,176.55C482.07,179.01 482.8,182.74 483.24,186.16C482.95,188.72 479.82,188.74 477.96,189.46C477.98,184.45 474.07,180.8 472.31,176.37Z" style="fill:rgb(236,28,53);fill-rule:nonzero;"/>
        <path d="M424.83,283C424.13,280.41 424.15,276.09 427.88,276.37C431.15,277.43 432.93,280.91 435.05,283.43C438.49,281.06 442.1,278.91 446.05,277.51C447.01,278.01 447.98,278.52 448.96,279.03C448.57,281.09 449.38,284 447.07,285.14C444.13,286.9 440.75,288.05 438.41,290.66C440.67,293.6 442.35,296.93 444.49,299.96C444.33,302.53 443.16,306.69 439.73,305.33C436.05,302.99 434.87,298.26 432.86,294.6C430.07,297.34 426.24,301.24 422.04,299.86C419.19,299.13 420.65,295.96 420.62,293.87C423.96,292.72 426.71,290.51 429.1,287.97C428.21,285.89 426.65,284.28 424.83,283Z" style="fill:rgb(1,0,0);fill-rule:nonzero;"/>
        <path d="M494.34,236.41C496.2,235.2 498.41,236.34 500.43,236.5C500.77,238.02 501.17,239.53 501.4,241.09C500.27,243.74 496.64,245.74 493.91,244.16C491.67,242.17 491.45,237.91 494.34,236.41Z" style="fill:rgb(2,1,1);fill-rule:nonzero;"/>
        <path d="M505.18,247.02C504.2,242.53 511.21,239.53 513.79,243.27C514.52,245.02 514.46,246.97 514.73,248.82C513.54,249.76 512.44,250.84 511.07,251.5C508.42,251.97 504.83,250.07 505.18,247.02Z" style="fill:rgb(1,0,1);fill-rule:nonzero;"/>
        <path d="M489.38,249.43C491.35,249.27 494.04,248.76 495.33,250.7C496.27,252.8 496.35,255.9 494.29,257.39C491.86,258.45 488.21,257.41 487.52,254.63C487.2,252.72 487.15,250.16 489.38,249.43Z" style="fill:rgb(2,0,1);fill-rule:nonzero;"/>
        <g transform="matrix(8.909151,0.665437,-0.665437,8.909151,-2366.26022,-2531.540039)">
            <path d="M327.088,282.228C328.086,284.713 332.035,284.724 333.088,282.182" style="fill:none;stroke:rgb(255,0,0);stroke-width:0.9px;"/>
        </g>
    </g>
</svg>
