<?xml version="1.0" encoding="UTF-8" standalone="no"?>
<!DOCTYPE svg PUBLIC "-//W3C//DTD SVG 1.1//EN" "http://www.w3.org/Graphics/SVG/1.1/DTD/svg11.dtd">
<svg width="100%" height="100%" viewBox="0 0 298 247" version="1.1" xmlns="http://www.w3.org/2000/svg" xmlns:xlink="http://www.w3.org/1999/xlink" xml:space="preserve" xmlns:serif="http://www.serif.com/" style="fill-rule:evenodd;clip-rule:evenodd;stroke-linejoin:round;stroke-miterlimit:2;">
    <g transform="matrix(1,0,0,1,-866.678543,-564.450261)">
        <path d="M885.56,657.82C891.6,655.99 898.45,656.86 903.77,660.26C906.16,662.25 908.69,664.06 911,666.14C912.65,668.8 913.98,671.66 915.67,674.3C916.86,679.27 918.47,684.49 916.71,689.54C915.31,702.48 901.85,712.73 889,710.05C880.42,709.54 873.44,703.25 869.6,695.94C867.5,689.86 865.37,683.11 867.68,676.78C869.27,667.7 876.84,660.24 885.56,657.82M887.88,665.91C883.46,666.21 880.93,670.25 877.88,672.91C876.13,676.3 875.08,680.19 874.81,684.02C875.29,689.82 878.15,695.64 883.07,698.94C887.94,702.77 894.72,702 900.24,700.15C903.3,697.23 906.9,694.33 907.97,690.03C908.47,687.7 909.12,685.39 909.37,683.02C908.68,676.4 904.46,670.47 898.7,667.26C895.42,665.38 891.5,665.58 887.88,665.91Z" style="fill:rgb(1,1,1);fill-rule:nonzero;"/>
        <path d="M906.84,742.83C911.57,741.94 916.52,740.84 921.32,741.72C924.68,740.65 927.74,742.69 929.63,745.34C928.95,747.21 929.36,750.27 926.82,750.71C920.92,750.66 914.94,749.86 909.08,750.96C906.4,751.48 905.23,755.68 907.75,757.1C916.42,760.39 926.07,761.84 935.15,759.35C937.04,758.61 938.65,757.31 940.34,756.2C937.83,753.69 936.23,750.49 936.87,746.87C938.85,746.33 941.02,745.18 942.99,746.44C948.04,749.34 949.94,755.98 947.47,761.21C943.5,764.01 939.85,767.57 934.93,768.59C930.67,769.29 926.33,769.34 922.04,769.58C916.53,769.12 911.33,767.12 906,765.84C903.78,765.13 901.02,764.41 900.16,761.98C899,759.17 897.57,756.31 897.62,753.21C898.69,748.5 901.71,743.67 906.84,742.83Z" style="fill:rgb(1,1,1);fill-rule:nonzero;"/>
        <path d="M1114.13,567.25C1117.52,566.08 1120.98,563.2 1124.66,565.06C1125.12,567.31 1125.57,569.61 1125.16,571.91C1127.27,583.55 1126.76,595.74 1130.93,606.93C1131.35,609.87 1128.92,612.61 1126.06,612.92C1120.52,613.79 1115.14,615.54 1109.51,615.72C1103.54,617.18 1097.52,618.62 1091.75,620.73C1096.68,622.76 1101.73,624.66 1107.04,625.43C1111.47,626 1115.6,627.78 1119.96,628.71C1123.47,629.39 1126.44,631.55 1129.9,632.43C1134.49,633.83 1139.29,634.3 1143.97,635.31C1146.28,636.53 1148.19,638.46 1150.75,639.28C1152.65,639.53 1152.63,641.55 1153.06,643.01C1154.07,646.54 1153.31,650.25 1153.66,653.86C1154.07,657.9 1154.41,661.94 1154.53,666C1153.4,675.65 1155.56,685.36 1154.39,695.03C1154.53,701.23 1153.88,707.42 1152.67,713.49C1152.53,720.75 1151.34,727.92 1150.62,735.13C1149.92,737.08 1153.02,737.91 1152.16,739.89C1151.63,744.56 1151.19,749.24 1151.15,753.95C1150.74,759.95 1149.76,765.92 1149.87,771.95C1152.04,774.68 1156.29,774.74 1158.73,777.34C1163.03,780.97 1163.73,786.79 1164.5,792C1164.11,793.02 1163.72,794.05 1163.36,795.09C1158.72,800.79 1150.85,801.61 1144,801.43C1136.33,800.79 1128.62,801.4 1120.95,800.85C1117.54,800.77 1114.47,798.62 1110.99,799.16C1103.67,800.16 1097.05,796.24 1089.87,795.76C1083.6,793.49 1077.2,791.57 1070.92,789.31C1066.76,788.5 1063.03,786.5 1059.21,784.79C1059.35,782.72 1058.78,780.48 1059.62,778.55C1061.23,777.21 1063.15,776.3 1064.98,775.28C1065.81,775.41 1067.49,775.66 1068.33,775.79C1075.67,776.97 1083.23,780.6 1090.67,778.09C1090.89,772.36 1090.9,766.63 1090.41,760.92C1089.89,756.23 1091.8,751.71 1091.54,747.02C1091.53,733.46 1094.04,720.08 1094.73,706.57C1096.36,695.08 1096.78,683.47 1098.04,671.95C1098.54,666.05 1099.99,660.2 1099.49,654.25C1099.44,653.61 1099.33,652.31 1099.28,651.66C1097.88,651.17 1096.48,650.75 1095.09,650.31C1095.07,650.62 1095.01,651.25 1094.98,651.56C1093.96,659.67 1092.22,667.68 1091.48,675.82C1091.07,677.75 1091.34,680.5 1089.17,681.41C1087.26,682.76 1083.99,682.21 1083.38,679.75C1082.36,674.76 1084.44,669.9 1084.97,664.98C1085.57,659.43 1086.2,653.88 1086.38,648.3C1079.03,647.67 1072.46,643.79 1065.11,643.21C1061.19,642.91 1057.34,642.04 1053.69,640.6C1050.21,645.89 1043.46,647.78 1040.4,653.39C1038.81,655.91 1037.37,658.52 1035.71,660.99C1030.11,669.18 1021.23,674.39 1015.65,682.63C1015.25,687.23 1012.94,692.62 1016.4,696.62C1020.78,702.12 1027.99,703.48 1034.51,704.6C1041.87,708.27 1049.49,712.97 1053.58,720.38C1056.74,728.64 1055.08,737.66 1053.59,746.08C1052.06,755.12 1058.67,762.6 1059.47,771.35L1059.64,772.24C1055.89,777.49 1048.7,776.89 1043.18,775.49C1047.19,782.42 1045.07,791.34 1040.23,797.29C1034.35,803.08 1025.71,803.95 1018.13,806.16C1013.5,807.59 1008.58,807.29 1003.91,808.5C1000.36,809.52 996.66,809.12 993.05,809.64C985.34,809.93 977.66,811.04 969.95,810.99C964.98,810.25 959.95,810.7 954.97,810.26C945.9,809.58 936.61,810.72 927.78,808.14C923.35,806.8 920.74,802.61 919.71,798.34C914.44,797.72 909.22,796.62 903.91,796.53C897.15,796.23 891.59,791.89 885.13,790.45C879.93,789.72 877.06,784.71 874.6,780.63C874.86,779.06 875.14,777.51 875.43,775.97C873.19,773.01 869.72,770.85 868.68,767.14C866.16,761.95 867.9,756.08 867.65,750.57C869.08,746.07 869.76,740.84 873.42,737.51C877.73,734.83 881.3,730.98 886.13,729.17C904.52,725.31 923.14,722.47 941.57,718.83C948.78,718.14 956.1,717.3 962.94,714.82C966.59,714.34 967.87,717.99 967.32,720.99C965.06,724.98 959.97,724.76 956.05,725.58C951.2,726.63 946.26,727.03 941.38,727.9C935.99,729.1 930.43,729.46 925.19,731.28C917.75,731.18 910.7,733.49 903.43,734.64C898.95,735.5 894.45,736.23 890.07,737.53C885.03,738.32 881.22,742.02 877.62,745.32C875.03,751.23 873.94,758.2 876.25,764.38C877.63,765.56 878.84,766.92 879.9,768.42C883.06,770.57 886.33,772.75 890.05,773.81C895.94,774.6 901.83,775.51 907.77,775.94C913.91,776.26 920.07,777.53 925.61,780.27C931.22,783.22 933.21,789.69 936.25,794.83L936.62,795.51C939.59,798 943.61,797.92 947.22,798.73C950.17,799.18 952.99,800.31 955.98,800.56C961.53,801.24 967.08,800.24 972.61,799.77C983.39,798.67 994.23,798.7 1004.98,797.41C1011.19,796.5 1016.9,793.79 1022.89,792.07C1024.36,791.58 1025.9,791.1 1027.13,790.09C1027.66,786.07 1028.5,782.11 1029.61,778.2C1027.82,775.02 1025.35,772.31 1022.93,769.62L1022.7,769.1C1023.26,767.38 1023.83,765.68 1024.41,763.98C1017.64,763.24 1010.56,763.69 1004.2,760.85C999.65,758.6 995.22,755.87 991.94,751.94C991.33,752.72 990.73,753.51 990.15,754.33C989.69,754.48 988.77,754.78 988.3,754.93C979.56,755.66 970.65,756.28 961.97,754.66C957.36,753.78 954.42,749.75 952.21,745.95C952.27,744.43 952.32,742.92 952.41,741.43C952.97,737.19 956.99,734.93 960.5,733.32C964.64,731.68 969.22,731.1 973.64,731.55C976.13,731.67 976.55,734.38 977.43,736.19C973.33,741.88 964.63,738.5 960.37,743.94C963.02,747.03 967.35,746.57 971.01,746.76C976.76,746.79 982.56,747.08 988.26,746.21C987.55,741.75 987.6,737.25 987.59,732.76L987.31,732.48C986.14,731.47 984.98,730.5 983.83,729.51C982.57,726.02 980.64,722.83 978.37,719.93C975.92,717.24 974.22,713.98 971.69,711.37C966.13,705.04 962.44,697.36 957.53,690.57C955.68,688.37 953.66,686.19 952.85,683.38C949.95,679.79 948.07,675.49 944.93,672.1C941.56,668.41 939.79,663.65 937.6,659.24C933.34,651.75 927.2,645.55 922.97,638.05C919.7,630.27 918.57,621.56 913.38,614.68C912.91,611.28 911.29,607.77 912.54,604.38C913.65,603.51 915.34,602.26 916.76,603.18C920.29,604.41 921.85,608.19 925.08,609.86C927.43,611.09 928.51,613.79 930.85,615.07C934.3,617.18 937.44,619.8 941.1,621.56C945.24,623.47 946.81,628.12 949.79,631.28C952.41,635.23 956.5,637.77 960.59,640.01C959.31,635.83 959.49,630.93 956.34,627.55C956.15,626.07 955.9,624.6 955.82,623.12C958.75,620.85 962.54,620.55 965.96,619.4C970.83,617.28 976.22,616.91 981.12,614.82C983.47,614.57 983.24,610.75 985.96,611.13C993.46,611.76 999.36,606.13 1006.55,605.25C1014.91,601.13 1024.23,599.71 1032.92,596.5C1038.2,593.54 1044.34,592.95 1049.88,590.62C1061.03,586.44 1071.46,580.47 1082.87,576.93C1087.64,575.01 1092.71,574.02 1097.58,572.36C1103.01,570.36 1108.98,570.09 1114.13,567.25M1109.13,578.39C1109.2,583.51 1111,588.49 1110.55,593.64C1108.4,595.58 1104.98,595.09 1103.48,592.61C1102.21,588.7 1101.31,584.65 1100.92,580.56C1098.36,581.38 1095.78,582.12 1093.2,582.81C1093.75,587.46 1094.49,592.27 1097.49,596.04C1097.64,598.8 1096.6,602.37 1093.1,601.72C1087.06,598.93 1086.41,591.28 1085.11,585.54C1081.02,586.66 1077.12,588.3 1073.24,589.95C1074.93,594.5 1078.47,598.87 1077.5,603.99C1075.98,604.47 1074.51,605.17 1072.92,605.3C1068.09,603.58 1067.63,597.58 1065.82,593.48C1062.13,595.1 1058.51,596.95 1054.62,598.04C1057.6,601.29 1057.22,605.9 1056.76,609.95C1054.94,610.52 1052.58,611.7 1051.03,609.97C1049.2,607.26 1048.36,604.02 1047.17,601.01C1043.41,601.91 1039.72,603.05 1036.1,604.36C1037.24,607.96 1038.02,611.67 1038.79,615.38C1037.51,616.08 1036.24,616.8 1034.98,617.52C1030.19,616.68 1029.11,611.24 1028.3,607.24C1023.49,609.19 1018.27,609.8 1013.46,611.75C1014.49,615.05 1016.75,618.61 1015.23,622.13C1014.14,623.21 1012.56,624.01 1011.03,623.4C1007,622 1007.35,616.94 1005.39,613.82C1001.11,616.68 996.05,617.88 991.31,619.72C992.09,621.36 993.76,623.04 993.12,625.02C992.9,627.49 990.2,628.94 987.94,628.32C985.49,627.72 984.44,625.23 983.09,623.4C979.2,624.39 975.34,625.46 971.44,626.32C973.69,632.52 975.48,638.91 978.89,644.63C984.14,643.12 989.72,643 994.8,640.88C1000.6,638.88 1006.75,638.07 1012.41,635.63C1022.26,633.51 1031.32,628.95 1040.92,626C1050.37,623.09 1059.67,619.29 1069.59,618.29C1078.3,615.23 1087.36,613.38 1096.03,610.17C1104.07,607 1112.88,607.41 1121.14,605.06C1120.41,600.09 1119.96,595.08 1119.25,590.12C1118.31,585.27 1118.65,580.25 1116.99,575.54C1114.42,576.65 1111.79,577.57 1109.13,578.39M929.27,624.45C928.75,624.72 927.73,625.24 927.22,625.5C927.61,626.9 928,628.3 928.44,629.7L928.58,629.53C930.07,634.2 932.95,638.24 935.69,642.24C938.8,644.65 940.27,648.44 942.52,651.56C946.02,656.53 947.81,662.56 951.91,667.14C957.77,674.13 961.42,682.57 967.28,689.55C968.5,692.22 970.12,694.69 971.95,697C974.66,700.43 976.27,704.73 979.82,707.47C981.26,705.16 982.76,702.89 984.33,700.67C985.72,698.33 987.01,695.88 988.84,693.84C990.9,692.17 993.43,691.22 995.79,690.04C996.86,689.82 997.95,689.63 999.05,689.44C996.88,687.58 994.69,685.75 992.34,684.15C991.01,682.31 989.36,680.75 987.78,679.14C987.41,678.21 987.06,677.29 986.72,676.37C981.19,671.91 975.84,667.18 970.99,661.98C967.84,658.76 963.99,656.09 961.78,652.08C959.98,649.18 956.65,647.88 953.85,646.2C950.41,644.04 946.99,641.66 944.59,638.32C940.8,634.19 938.3,628.6 932.68,626.52C931.52,625.83 930.39,625.15 929.27,624.45M1075.61,625.39C1068.39,627.6 1060.68,628.18 1053.72,631.31C1059.85,634.99 1067.38,633.55 1073.84,636.24C1081.95,639.23 1090.67,639.87 1098.8,642.7C1103.15,643.7 1107.61,643.74 1112.05,644.04C1120.44,645.19 1128.91,644.89 1137.25,643.52C1131.87,640.49 1125.45,640.92 1119.88,638.45C1111.71,634.86 1102.25,635.55 1094.48,630.85L1094.94,630.67C1088.28,629.76 1082.11,626.95 1075.61,625.39M1002.04,649.02C994.08,651.21 987,655.93 978.87,657.51C983.31,661.61 986.93,666.61 991.97,670.02C993.59,671.45 994.45,673.51 995.91,675.1C999.27,678.93 1003.47,681.9 1007.28,685.27C1007.98,678.36 1007.4,671.28 1009.24,664.52C1010.26,658.18 1010.28,651.76 1011.17,645.41C1007.73,645.69 1005.34,648.41 1002.04,649.02M1120.63,653.31C1116.08,653.59 1111.64,652.24 1107.1,652.53C1108.2,660.3 1106.15,667.99 1105.99,675.74C1105.38,678.91 1104.6,682.25 1105.16,685.48C1104.5,691.64 1104.11,697.83 1103.07,703.95C1102.04,709.49 1102.89,715.2 1101.63,720.72C1100.24,726.72 1100.35,732.91 1099.82,739.01C1099.7,752.01 1098.2,765.08 1099.97,778.03C1101.54,778.58 1103.18,778.89 1104.82,779.31C1110.55,779.37 1116.26,778.6 1122.01,778.76C1126.67,779.25 1130.32,775.67 1134.88,775.39C1137.13,774.74 1141.18,774.29 1140.62,771.08C1140.26,763.71 1140.75,756.34 1141.17,748.99C1136.5,750.28 1131.77,751.37 1126.97,751.97C1123.22,752.36 1118.91,752.84 1115.79,750.29C1113.08,748.37 1114.3,742.89 1117.91,742.95C1120.59,742.99 1123.28,743.55 1125.99,743.28C1131.55,742.47 1137.6,742.02 1141.84,737.85C1143.61,727.95 1144.16,717.92 1145.18,707.94C1146.52,701.27 1146.32,694.46 1146.45,687.69C1142.98,688.93 1139.66,690.84 1135.91,690.97C1130.94,691.34 1125.95,691.13 1121.01,691.73C1119.33,692.06 1117.88,691.11 1116.47,690.42C1116.44,688.51 1116.41,686.61 1116.36,684.72C1120.36,683.22 1124.63,682.02 1128.94,682.58C1135.03,682.83 1142.68,681.8 1145.91,675.9C1147.2,667.06 1145.4,658.12 1145.5,649.23C1137.87,653.16 1129.08,654.04 1120.63,653.31M1004.06,698.06C1001.87,698.23 999.65,698.21 997.53,698.76C992.58,700.72 991.68,706.69 988.01,710.09C987.84,710.61 987.5,711.67 987.32,712.19C986.56,712.84 985.86,713.53 985.13,714.21C987.5,717.01 988.4,720.65 990.49,723.65C992.31,719.68 994.85,715.93 998.42,713.34C1003.15,709.88 1009.1,708.93 1014.3,706.41C1009.97,704.37 1009.23,699.42 1006.14,696.21C1005.62,696.68 1004.58,697.6 1004.06,698.06M1006.11,718.91C1001.3,720.98 998.58,725.82 996.17,730.19C995.55,734.42 995.72,738.78 996.31,743.01C997.78,747.49 1002.09,749.94 1006.06,751.95C1011.05,755.4 1017.4,754 1023.06,755.05C1028.41,755.63 1032.74,759.11 1037.2,761.82C1032.72,758.2 1030.15,752.5 1024.7,750.15C1020.07,746.94 1014.82,743.51 1013.06,737.85C1012.56,734.75 1013.68,731.69 1014.53,728.75C1019.03,725.57 1025.44,724.37 1030.13,727.82C1031.87,729.94 1033.11,732.42 1034.71,734.66C1034.51,738.22 1034.87,741.78 1034.63,745.34C1037.32,750.65 1041.92,754.52 1046.44,758.22C1045.66,753.82 1044.72,749.31 1045.52,744.84C1046.64,738.97 1047.58,732.95 1047.02,726.97C1045.73,722.77 1042.12,719.77 1038.75,717.19C1035.55,714.99 1032.26,711.91 1028.06,712.72C1020.21,712.66 1013.36,716.57 1006.11,718.91Z" style="fill-rule:nonzero;"/>
        <path d="M953.16,764.17C955.92,762.84 959.12,762.84 962.02,761.9C965.88,760.65 969.96,761.92 973.28,764C973.46,764.82 973.62,765.67 973.77,766.53C973.84,768.19 973.93,770.49 971.75,770.74C966.39,770.78 959.76,768.91 955.88,773.83C954.57,774.8 955.16,777.09 956.69,777.51C962.33,780.6 968.94,780.7 975.19,781.23C980.25,781.18 985.71,781.42 990.26,778.84C991.49,778.18 992.75,777.54 994,776.9C993.48,776.71 992.45,776.33 991.93,776.14C988.86,775.38 985.65,774.92 983.02,773.05C983.41,771.2 983.82,769.35 984.26,767.52C987.59,765.83 991.16,766.72 994.63,767.36C997.54,768.94 1000.31,770.75 1002.56,773.22C1003.62,776.51 1003.25,780.21 1001.02,782.91C997.72,785.1 994.1,786.74 990.56,788.49C987.28,790.18 983.48,789.17 980,789.91C971.72,790.16 963.37,789.44 955.51,786.7C951.37,784.66 946.73,781.23 947.34,776C946.44,771.2 949.63,766.99 953.16,764.17Z" style="fill-rule:nonzero;"/>
    </g>
</svg>
