<?xml version="1.0" encoding="UTF-8" standalone="no"?>
<!DOCTYPE svg PUBLIC "-//W3C//DTD SVG 1.1//EN" "http://www.w3.org/Graphics/SVG/1.1/DTD/svg11.dtd">
<svg width="100%" height="100%" viewBox="0 0 252 183" version="1.1" xmlns="http://www.w3.org/2000/svg" xmlns:xlink="http://www.w3.org/1999/xlink" xml:space="preserve" xmlns:serif="http://www.serif.com/" style="fill-rule:evenodd;clip-rule:evenodd;stroke-miterlimit:1.5;">
    <g transform="matrix(1,0,0,1,-560.572397,-593.439941)">
        <path d="M703.09,710.96C712.05,710.21 721.15,710.76 730.02,708.98C735.78,712.63 741.8,715.85 747.81,719.08C760.34,727.04 773.37,734.18 786.21,741.62C792.05,745.58 798.8,748.08 804.24,752.65C795.14,753.23 786.15,755.39 776.99,754.88C766.8,755.42 756.59,755.58 746.42,756.44C746.84,754.87 746.85,752.78 745.13,752C738.59,748.61 733.32,743.4 727.21,739.36C736.76,738.68 746.33,738.39 755.87,737.48C757.64,737.01 758.85,735.43 759.84,733.99C759.4,731.21 756.83,729.71 754.67,728.36C749.36,725.41 744.4,721.91 739.15,718.87C735.53,716.83 732.38,712.89 727.87,713.37C713.25,714.05 698.62,714.42 684.03,715.46C677.33,715.15 670.7,716.57 664,716.14C647.67,717.19 631.28,717.36 614.93,718.3C611.58,718.24 607.86,722.35 610.62,725.35C615.02,730.28 621.57,732.45 626.95,736.09C630.29,738.54 634.18,740.08 637.61,742.39C639.2,743.49 641.05,744.07 642.89,744.63C651.5,743.02 660.38,743.85 669.08,742.85C670.88,742.62 672.7,742.61 674.52,742.62C680.11,747.9 685.75,753.16 691.67,758.1C687.48,758.83 683.23,759.46 678.98,758.96C673.97,758.33 669,760.59 664.03,759.23C660.3,758.33 656.47,758.68 652.74,759.29C652.55,759.25 652.16,759.15 651.97,759.1C651.93,756.17 649.83,754.27 646.97,754.41C646.53,754.98 645.65,756.11 645.21,756.68L644.39,756.38C643.35,755.72 642.33,755.06 641.32,754.39C641.81,752.74 641.51,750.88 639.94,749.96C634.63,746.71 629.55,743.1 624.55,739.4C612.91,731.98 601.45,724.31 590.13,716.43C593.38,715.89 596.67,715.54 599.98,715.8C634.34,714.22 668.73,712.72 703.09,710.96Z" style="fill:white;fill-rule:nonzero;"/>
        <path d="M684.64,742C695.37,741.24 706.09,739.95 716.85,740.15C721.5,744.46 727.08,747.59 731.79,751.84C728.35,753.33 724.51,752.54 720.9,753.09C713.68,754.25 706.32,753.79 699.09,754.9C694.14,750.74 689,746.8 684.64,742Z" style="fill:white;fill-rule:nonzero;"/>
        <path d="M661.12,596.29C681.09,595.31 701.07,594.34 721.04,593.44C724.23,593.43 727.22,594.7 730.22,595.64C733.64,599.31 733.52,604.37 734.88,608.92C734.41,626.93 734.35,644.96 733.7,662.97C732.94,676.03 733.64,689.17 732.45,702.22C757.31,716.36 781.88,730.98 806.63,745.32C809.92,747.43 811.05,751.33 811.81,754.93C811.52,758.73 809.78,762.78 806.22,764.59C805.72,764.47 804.73,764.25 804.23,764.13C803.64,763.12 803.07,762.1 802.53,761.09C803.83,758.45 805.2,755.64 804.24,752.65C798.8,748.08 792.05,745.58 786.21,741.62C773.37,734.18 760.34,727.04 747.81,719.08C741.8,715.85 735.78,712.63 730.02,708.98C721.15,710.76 712.05,710.21 703.09,710.96C668.73,712.72 634.34,714.22 599.98,715.8C596.67,715.54 593.38,715.89 590.13,716.43C601.45,724.31 612.91,731.98 624.55,739.4C629.55,743.1 634.63,746.71 639.94,749.96C641.51,750.88 641.81,752.74 641.32,754.39C640.92,755.07 640.11,756.45 639.71,757.13C634.77,756.25 631.28,752.36 627.05,750.01C615.1,741.51 602.45,734.03 590.6,725.37C585.99,722.49 581.7,719.14 577.09,716.27C577.18,719.16 577.58,722.06 578.83,724.7C580.77,724.16 582.7,723.08 584.77,723.32C587.3,724.14 589.59,725.83 591.16,727.98C591,729.29 590.73,730.6 590.48,731.91C608.12,743.83 625.95,755.47 643.43,767.62C645.97,769.3 649.16,768.28 652,768.32C659.31,767.63 666.67,767.78 673.99,767.28C686.36,767.42 698.66,765.82 711.03,765.69C717.71,765.73 724.33,764.49 731.03,764.68C750.05,764 769.05,762.71 788.08,762.21C789.9,762.16 791.28,763.5 792.71,764.44C792.04,765.8 791.89,767.52 790.76,768.63C783.91,769.93 776.88,769.11 769.97,769.86C764,770.25 758.02,770.79 752.04,770.55C743.04,771.65 733.91,771.37 724.87,772.08C714.28,772.95 703.63,772.54 693.06,773.67C677.35,774.26 661.65,774.92 645.95,775.85C642.79,775.92 640.25,773.82 637.53,772.56C632.49,770.66 628.06,767.52 623.6,764.58C616.84,761.61 610.91,757.19 604.58,753.46C597.99,748.44 590.62,744.61 583.52,740.38C580.23,738.29 576.33,737.31 573.26,734.86C569.32,732.47 565.95,729.31 562.1,726.82C560.55,724.57 559.67,720.89 562,718.84C564.37,717.27 567.57,716.81 570.04,718.49C570.58,710.1 569.57,701.66 570.31,693.27C570.7,678.88 570.7,664.49 571.1,650.1C570.75,644.38 571.24,638.68 571.64,632.99C571.29,626 571.67,618.99 571.35,612C571.18,609.36 572.76,607.04 574.09,604.89C576.97,603.79 579.29,601.6 582.09,600.4C608.42,598.71 634.79,597.91 661.12,596.29M692.88,601.89C679.94,602.84 666.98,602.92 654.05,603.9C643.97,603.52 634,605.53 623.92,605.18C621.1,605.24 618.24,604.37 615.5,605.32C612.07,606.52 608.48,605.38 604.99,605.97C598.01,606.71 591,606.81 584.02,607.51C581.9,608.4 580.12,609.9 578.15,611.06C578.57,619.72 578.15,628.41 578.13,637.08C577.64,660.94 577.51,684.84 576.72,708.69C580.19,708.67 583.65,708.88 587.1,709.33C591.39,709.33 595.65,708.36 599.95,708.79C625.13,707.62 650.32,706.12 675.53,705.24C682,704.21 688.59,705.07 695.05,704.18C705.34,704.09 715.59,703.01 725.89,702.81C726.69,687.23 726.39,671.59 727.09,656.03C727.44,641.69 727.35,627.31 728.22,613.02C727.55,609.11 727.13,605.07 725.68,601.35C714.78,599.67 703.82,602.02 692.88,601.89Z" style="fill-rule:nonzero;"/>
        <path d="M645.08,608.79C670.05,607.48 695.03,606.45 719.99,604.86C721.67,604.8 722.39,606.46 723.25,607.59C722.43,612.69 723.26,617.88 722.46,622.99C723.46,635.79 722.15,648.63 722.68,661.45C722.25,671.35 722.38,681.3 722.61,691.18C722,693.84 720.21,695.78 718.43,697.71C706.4,699.31 694.16,699.66 682.06,700.4C665.04,701.69 647.94,702.41 630.91,703.69C620.69,703.94 610.49,705.58 600.24,705.16C595.6,706.58 590.66,705.91 585.9,706.51C583.61,707.23 582.22,705 580.6,703.87C580.04,691.52 581.86,679.19 581.28,666.87C581.74,654.6 581.96,642.33 582.47,630.08C582.33,627.06 582.81,624.02 582.1,621.06C581.56,618.73 582.89,616.59 583.52,614.44C585.21,613.17 586.82,611.56 588.95,611.08C596.85,611.56 604.98,608.84 612.75,611.26C614.2,612.48 613.89,614.32 613.56,615.97C610.81,617.83 607.36,618.52 604.1,618.01C599.23,617.1 594.31,618.11 589.45,618.48C589.21,625.62 589.39,632.77 589.03,639.91C588.22,651.25 588.58,662.64 587.94,673.99C587.65,682.28 587.41,690.58 587.61,698.88C598.13,699.17 608.57,697.61 619.08,697.4C651.17,695.2 683.28,693.23 715.39,691.33C715.96,664.98 715.45,638.6 716.09,612.25C697.39,613.4 678.68,614.21 659.97,615.27C651.61,615.04 643.33,616.61 634.96,616.36C629.18,616.17 623.29,618.27 617.66,616.17C617.17,615.12 616.73,614.06 616.34,612.98C617.22,612.06 617.68,610.57 618.94,610.09C627.67,610.44 636.35,608.95 645.08,608.79Z" style="fill-rule:nonzero;"/>
        <path d="M684.03,715.46C698.62,714.42 713.25,714.05 727.87,713.37C732.38,712.89 735.53,716.83 739.15,718.87C744.4,721.91 749.36,725.41 754.67,728.36C756.83,729.71 759.4,731.21 759.84,733.99C758.85,735.43 757.64,737.01 755.87,737.48C746.33,738.39 736.76,738.68 727.21,739.36C733.32,743.4 738.59,748.61 745.13,752C746.85,752.78 746.84,754.87 746.42,756.44C745.88,756.9 744.8,757.83 744.26,758.29C731.66,759.33 719.05,760.25 706.45,761.34C703.34,761.49 700.22,762.05 697.11,761.7C694.96,761.12 693.36,759.43 691.67,758.1C685.75,753.16 680.11,747.9 674.52,742.62C672.7,742.61 670.88,742.62 669.08,742.85C660.38,743.85 651.5,743.02 642.89,744.63C641.05,744.07 639.2,743.49 637.61,742.39C634.18,740.08 630.29,738.54 626.95,736.09C621.57,732.45 615.02,730.28 610.62,725.35C607.86,722.35 611.58,718.24 614.93,718.3C631.28,717.36 647.67,717.19 664,716.14C670.7,716.57 677.33,715.15 684.03,715.46M693.13,721.68C693.41,722.96 692.91,724.95 694.74,725.18C697.19,725.07 699.63,724.74 702.09,724.61C701.17,723.59 700.25,722.56 699.35,721.56C697.28,721.77 695.2,721.78 693.13,721.68M710.7,721.42C711.61,722.09 712.5,722.8 713.49,723.39C719.42,723.46 725.41,723.1 731.15,721.47C729.54,720.71 727.8,720.29 726.04,720.45C720.93,720.79 715.79,720.71 710.7,721.42M679.17,722.49C680.08,723.61 680.78,724.99 682.04,725.78C683.31,725.67 684.59,725.52 685.87,725.34C685.16,724.36 684.45,723.38 683.76,722.42C682.22,722.44 680.69,722.46 679.17,722.49M656.79,723.49C657.97,725.67 660.46,726.28 662.68,726.86C661.94,725.74 661.2,724.63 660.47,723.53C659.24,723.5 658.01,723.48 656.79,723.49M668.85,722.84C669.28,725.34 671.03,727.03 673.6,727.34C672.91,725.16 671.56,722.48 668.85,722.84M641.64,724.04C643.46,725.85 645.72,727.51 648.47,727.07C647.05,724.62 644.44,723.33 641.64,724.04M622.61,725.14C626.02,728.34 630.57,729.44 635.14,728.68C633.23,727.53 631.39,726.27 629.83,724.69C627.42,724.78 625.01,724.91 622.61,725.14M722.14,730.56C722.34,731.05 722.73,732.04 722.93,732.53C728.36,732.64 733.7,731.52 739.13,731.47C740.33,731.22 741.94,731.69 742.83,730.6C743.3,733.89 746.71,728.92 743.41,730.03C742.3,729.19 741.2,728.37 740.1,727.56C734.36,729.95 728,728.66 722.14,730.56M671.25,733.6C671.56,734.3 671.88,735 672.2,735.72C683.08,734.46 694.05,734.56 704.96,733.71C707.5,733.78 710.02,733.24 712.3,732.11C710.9,731.8 709.49,731.65 708.07,731.66C695.79,732 683.48,732.36 671.25,733.6M653.9,733.43C655.66,735.64 658.19,736.97 661.08,736.49C659.82,735.27 658.43,734.2 657.01,733.19C656.23,733.25 654.68,733.37 653.9,733.43M639.77,735.52C641.71,736.82 643.93,737.46 646.29,737.13C645.58,733.75 642.09,734.53 639.77,735.52M684.64,742C689,746.8 694.14,750.74 699.09,754.9C706.32,753.79 713.68,754.25 720.9,753.09C724.51,752.54 728.35,753.33 731.79,751.84C727.08,747.59 721.5,744.46 716.85,740.15C706.09,739.95 695.37,741.24 684.64,742Z" style="fill-rule:nonzero;"/>
        <path d="M793.46,764.99C794.5,762.88 794.83,759.13 798.04,759.51C800.8,758.93 801.57,762.03 802.59,763.86C801.29,765.32 800.48,768.04 798.06,767.77C795.95,768.16 794.68,766.32 793.46,764.99Z" style="fill-rule:nonzero;"/>
        <path d="M659.97,615.27C678.68,614.21 697.39,613.4 716.09,612.25C715.45,638.6 715.96,664.98 715.39,691.33C683.28,693.23 651.17,695.2 619.08,697.4C608.57,697.61 598.13,699.17 587.61,698.88C587.41,690.58 587.65,682.28 587.94,673.99C588.58,662.64 588.22,651.25 589.03,639.91C589.39,632.77 589.21,625.62 589.45,618.48C594.31,618.11 599.23,617.1 604.1,618.01C607.36,618.52 610.81,617.83 613.56,615.97L614.2,615.59C615.36,615.68 616.51,615.87 617.66,616.17C623.29,618.27 629.18,616.17 634.96,616.36C643.33,616.61 651.61,615.04 659.97,615.27Z" style="fill:rgb(236,28,52);fill-rule:nonzero;"/>
        <g transform="matrix(-7.91844,0.503388,0.652991,10.271743,3083.843207,-2418.270201)">
            <path d="M327.088,282.228C328.086,284.713 332.035,284.724 333.088,282.182" style="fill:none;stroke:white;stroke-width:0.65px;"/>
        </g>
        <path d="M577.09,716.27C581.7,719.14 585.99,722.49 590.6,725.37C602.45,734.03 615.1,741.51 627.05,750.01C631.28,752.36 634.77,756.25 639.71,757.13C640.11,756.45 640.92,755.07 641.32,754.39C642.33,755.06 643.35,755.72 644.39,756.38C644.72,758.17 644.71,760.36 646.45,761.46C647.96,761.96 649.45,761.23 650.87,760.77C651.49,760.28 652.12,759.79 652.74,759.29C656.47,758.68 660.3,758.33 664.03,759.23C669,760.59 673.97,758.33 678.98,758.96C683.23,759.46 687.48,758.83 691.67,758.1C693.36,759.43 694.96,761.12 697.11,761.7C700.22,762.05 703.34,761.49 706.45,761.34C719.05,760.25 731.66,759.33 744.26,758.29C744.8,757.83 745.88,756.9 746.42,756.44C756.59,755.58 766.8,755.42 776.99,754.88C786.15,755.39 795.14,753.23 804.24,752.65C805.2,755.64 803.83,758.45 802.53,761.09C803.07,762.1 803.64,763.12 804.23,764.13L802.88,764.4L802.59,763.86C801.57,762.03 800.8,758.93 798.04,759.51C794.83,759.13 794.5,762.88 793.46,764.99C793.27,764.86 792.9,764.58 792.71,764.44C791.28,763.5 789.9,762.16 788.08,762.21C769.05,762.71 750.05,764 731.03,764.68C724.33,764.49 717.71,765.73 711.03,765.69C698.66,765.82 686.36,767.42 673.99,767.28C666.67,767.78 659.31,767.63 652,768.32C649.16,768.28 645.97,769.3 643.43,767.62C625.95,755.47 608.12,743.83 590.48,731.91C590.73,730.6 591,729.29 591.16,727.98C589.59,725.83 587.3,724.14 584.77,723.32C582.7,723.08 580.77,724.16 578.83,724.7C577.58,722.06 577.18,719.16 577.09,716.27Z" style="fill:rgb(236,28,52);fill-rule:nonzero;"/>
        <path d="M710.7,721.42C715.79,720.71 720.93,720.79 726.04,720.45C727.8,720.29 729.54,720.71 731.15,721.47C725.41,723.1 719.42,723.46 713.49,723.39C712.5,722.8 711.61,722.09 710.7,721.42Z" style="fill:rgb(235,28,53);fill-rule:nonzero;"/>
        <path d="M656.79,723.49C658.01,723.48 659.24,723.5 660.47,723.53C661.2,724.63 661.94,725.74 662.68,726.86C660.46,726.28 657.97,725.67 656.79,723.49Z" style="fill:rgb(235,28,53);fill-rule:nonzero;"/>
        <path d="M653.9,733.43C654.68,733.37 656.23,733.25 657.01,733.19C658.43,734.2 659.82,735.27 661.08,736.49C658.19,736.97 655.66,735.64 653.9,733.43Z" style="fill:rgb(235,28,53);fill-rule:nonzero;"/>
        <path d="M639.77,735.52C642.09,734.53 645.58,733.75 646.29,737.13C643.93,737.46 641.71,736.82 639.77,735.52Z" style="fill:rgb(235,28,53);fill-rule:nonzero;"/>
        <path d="M692.88,601.89C703.82,602.02 714.78,599.67 725.68,601.35C727.13,605.07 727.55,609.11 728.22,613.02C727.35,627.31 727.44,641.69 727.09,656.03C726.39,671.59 726.69,687.23 725.89,702.81C715.59,703.01 705.34,704.09 695.05,704.18C688.59,705.07 682,704.21 675.53,705.24C650.32,706.12 625.13,707.62 599.95,708.79C595.65,708.36 591.39,709.33 587.1,709.33C583.65,708.88 580.19,708.67 576.72,708.69C577.51,684.84 577.64,660.94 578.13,637.08C578.15,628.41 578.57,619.72 578.15,611.06C580.12,609.9 581.9,608.4 584.02,607.51C591,606.81 598.01,606.71 604.99,605.97C608.48,605.38 612.07,606.52 615.5,605.32C618.24,604.37 621.1,605.24 623.92,605.18C634,605.53 643.97,603.52 654.05,603.9C666.98,602.92 679.94,602.84 692.88,601.89M645.08,608.79C636.35,608.95 627.67,610.44 618.94,610.09C617.68,610.57 617.22,612.06 616.34,612.98C616.73,614.06 617.17,615.12 617.66,616.17C616.51,615.87 615.36,615.68 614.2,615.59L613.56,615.97C613.89,614.32 614.2,612.48 612.75,611.26C604.98,608.84 596.85,611.56 588.95,611.08C586.82,611.56 585.21,613.17 583.52,614.44C582.89,616.59 581.56,618.73 582.1,621.06C582.81,624.02 582.33,627.06 582.47,630.08C581.96,642.33 581.74,654.6 581.28,666.87C581.86,679.19 580.04,691.52 580.6,703.87C582.22,705 583.61,707.23 585.9,706.51C590.66,705.91 595.6,706.58 600.24,705.16C610.49,705.58 620.69,703.94 630.91,703.69C647.94,702.41 665.04,701.69 682.06,700.4C694.16,699.66 706.4,699.31 718.43,697.71C720.21,695.78 722,693.84 722.61,691.18C722.38,681.3 722.25,671.35 722.68,661.45C722.15,648.63 723.46,635.79 722.46,622.99C723.26,617.88 722.43,612.69 723.25,607.59C722.39,606.46 721.67,604.8 719.99,604.86C695.03,606.45 670.05,607.48 645.08,608.79Z" style="fill:rgb(254,254,254);fill-rule:nonzero;"/>
        <path d="M645.21,756.68C645.65,756.11 646.53,754.98 646.97,754.41C649.83,754.27 651.93,756.17 651.97,759.1C652.16,759.15 652.55,759.25 652.74,759.29C652.12,759.79 651.49,760.28 650.87,760.77C649.45,761.23 647.96,761.96 646.45,761.46C644.71,760.36 644.72,758.17 644.39,756.38L645.21,756.68Z" style="fill:rgb(2,1,1);fill-rule:nonzero;"/>
        <path d="M693.13,721.68C695.2,721.78 697.28,721.77 699.35,721.56C700.25,722.56 701.17,723.59 702.09,724.61C699.63,724.74 697.19,725.07 694.74,725.18C692.91,724.95 693.41,722.96 693.13,721.68Z" style="fill:rgb(233,30,56);fill-rule:nonzero;"/>
        <path d="M679.17,722.49C680.69,722.46 682.22,722.44 683.76,722.42C684.45,723.38 685.16,724.36 685.87,725.34C684.59,725.52 683.31,725.67 682.04,725.78C680.78,724.99 680.08,723.61 679.17,722.49Z" style="fill:rgb(235,31,53);fill-rule:nonzero;"/>
        <path d="M668.85,722.84C671.56,722.48 672.91,725.16 673.6,727.34C671.03,727.03 669.28,725.34 668.85,722.84Z" style="fill:rgb(157,30,43);fill-rule:nonzero;"/>
        <path d="M641.64,724.04C644.44,723.33 647.05,724.62 648.47,727.07C645.72,727.51 643.46,725.85 641.64,724.04Z" style="fill:rgb(156,29,44);fill-rule:nonzero;"/>
        <path d="M622.61,725.14C625.01,724.91 627.42,724.78 629.83,724.69C631.39,726.27 633.23,727.53 635.14,728.68C630.57,729.44 626.02,728.34 622.61,725.14Z" style="fill:rgb(236,30,52);fill-rule:nonzero;"/>
        <path d="M722.14,730.56C728,728.66 734.36,729.95 740.1,727.56C741.2,728.37 742.3,729.19 743.41,730.03L742.83,730.6C741.94,731.69 740.33,731.22 739.13,731.47C733.7,731.52 728.36,732.64 722.93,732.53C722.73,732.04 722.34,731.05 722.14,730.56Z" style="fill:rgb(234,29,54);fill-rule:nonzero;"/>
        <path d="M743.41,730.03C746.71,728.92 743.3,733.89 742.83,730.6L743.41,730.03Z" style="fill:rgb(119,82,87);fill-rule:nonzero;"/>
        <path d="M671.25,733.6C683.48,732.36 695.79,732 708.07,731.66C709.49,731.65 710.9,731.8 712.3,732.11C710.02,733.24 707.5,733.78 704.96,733.71C694.05,734.56 683.08,734.46 672.2,735.72C671.88,735 671.56,734.3 671.25,733.6Z" style="fill:rgb(231,30,55);fill-rule:nonzero;"/>
    </g>
</svg>
