<?xml version="1.0" encoding="UTF-8" standalone="no"?>
<!DOCTYPE svg PUBLIC "-//W3C//DTD SVG 1.1//EN" "http://www.w3.org/Graphics/SVG/1.1/DTD/svg11.dtd">
<svg width="100%" height="100%" viewBox="0 0 170 180" version="1.1" xmlns="http://www.w3.org/2000/svg" xmlns:xlink="http://www.w3.org/1999/xlink" xml:space="preserve" xmlns:serif="http://www.serif.com/" style="fill-rule:evenodd;clip-rule:evenodd;stroke-miterlimit:1.5;">
    <g transform="matrix(1,0,0,1,-592.293457,-168.51885)">
        <path d="M700.37,188.46C702.93,188.58 705.5,188.64 708.08,188.71C717.51,188.89 726.52,192.33 735.92,192.83C738.85,192.99 741.71,193.63 744.54,194.38C740.45,223.2 735.95,251.96 732.15,280.83C723.76,279.47 715.34,278.37 706.96,276.98C705.3,276.54 704.04,278.01 702.72,278.7C702.07,278.58 700.76,278.35 700.1,278.24C698.96,278.02 697.83,277.8 696.71,277.58C695.3,273.98 691.21,274.43 688.07,273.81C688.2,266.73 690.22,259.92 690.94,252.91C694.03,231.42 697.28,209.95 700.37,188.46Z" style="fill:white;fill-rule:nonzero;"/>
        <path d="M626.91,227.17C632.12,227.2 636.94,224.59 642.16,224.79C643.68,234.47 644.21,244.27 645.01,254.04C645.67,262.75 646.77,271.43 647.31,280.15C647.26,282.3 649.3,283.31 651.08,283.83C651.09,285.47 651.59,287.19 651.1,288.8C648.94,296.64 651.8,304.95 651.41,312.88C647.58,315.45 642.6,315.46 638.42,317.39C632.02,318.07 625.97,320.23 619.77,321.74C617.79,317.78 618.82,313.14 617.89,308.92C615.21,284.59 612.69,260.24 610.5,235.85C610.3,233.95 610.45,232.03 610.62,230.13C616.29,230.32 621.29,227.15 626.91,227.17Z" style="fill:white;fill-rule:nonzero;"/>
        <path d="M690.35,169.48C698.43,166.88 706.38,170.35 714.5,170.61C720.86,172.18 727.54,171.85 733.87,173.6C737.98,174.31 742.23,174.5 746.03,176.44C750.5,177.71 755.24,178.8 758.57,182.33C761.62,184.57 761.73,188.63 761.18,192.04C757.67,216.98 754.33,241.95 750.76,266.89C748.69,276.48 749.47,286.67 745.6,295.84C743.24,300.87 737.38,303.42 732.03,302.34C723.63,300.78 715.2,299.77 706.78,298.33C702.14,297.55 697.38,297.57 692.89,296.1C685.92,295.48 678.21,294.97 672.52,290.44C669.35,287.86 670.02,283.62 668.91,280.1C670.71,275.21 669.99,269.92 671.28,264.91C673.45,250.31 675.65,235.7 677.43,221.06C678.39,206.61 679.61,192.07 683.35,178.04C684.9,174.73 686.96,171.17 690.35,169.48M691.78,178.85C689.07,181.07 689.61,184.86 689.26,187.96C687.27,198.54 686.63,209.31 685.61,220.04C685.45,223.21 683.73,226.02 683.41,229.16C681.84,242.47 679.4,255.67 677.9,269C677.29,273.64 676.11,278.27 676.5,282.98C676.46,285.19 679.05,285.77 680.74,286.2C695.87,288.39 710.96,290.91 726.11,292.99C730.56,293.42 735.64,295.93 739.62,292.85C741.24,286.68 742.1,280.37 742.79,274.04C746.24,250.07 749.14,226.01 752.88,202.07C753.25,198.42 754.06,194.79 754.07,191.11C752.26,187.01 748.2,184.45 743.92,183.65C728.92,181.34 713.93,178.98 698.94,176.6C696.33,176.03 693.93,177.59 691.78,178.85Z" style="fill-rule:nonzero;"/>
        <path d="M627.72,207.71C634.98,205.56 642.69,206.88 650.03,205.23C655.83,205.5 660.9,210.29 661.35,216.12C661.94,228.46 662.67,240.82 664.17,253.1C665.57,274.06 667.67,294.97 669.18,315.94C668.78,320.87 665.54,324.74 662.65,328.48C658.11,330.18 653.3,331 648.72,332.6C655.12,332.38 661.49,333.31 667.87,333.74C671.52,334.13 675.89,335.4 677.54,339.02C677.2,343.04 673.34,345.97 669.48,346.3C663.65,346.55 657.83,347.08 651.99,347.07C645.65,347.02 639.35,348.9 633.03,347.87C626.96,347.73 620.8,347.86 614.9,346.27C612.86,344.42 611.79,341.02 614.58,339.33C607.14,340.53 601.04,333.02 601.34,326.05C598.26,295.35 595.42,264.66 592.33,234.02C591.75,224.08 598.11,212.44 608.86,211.57C612.45,211.36 615.44,208.84 619.08,208.9C621.98,208.69 624.92,208.6 627.72,207.71M635,213.72C630.91,213.61 627.07,215.35 623,215.53C617.52,215.93 612.51,218.41 607.11,219.22C601.3,220.82 599.04,227.38 599.22,232.84C600.88,248.23 602.49,263.63 603.59,279.07C605.54,294.99 606.74,310.99 608.44,326.94C608.72,330.16 611.8,332.53 614.96,332.46C622.27,333.71 629.13,330.24 636.03,328.43C643.09,326.94 649.94,324.62 656.96,322.92C659.03,322.58 660.43,320.84 661.23,319.02C662.71,315.93 662.18,312.49 661.55,309.27L661.56,308.99C660.98,300.66 660.29,292.33 659.52,284.02C659.35,274.29 657.22,264.7 657.48,254.94C655.83,242.03 655.05,229.03 654.28,216.05C653.62,214.59 652.69,212.72 650.93,212.48C645.59,212.4 640.33,213.69 635,213.72Z" style="fill-rule:nonzero;"/>
        <path d="M631.87,219.35C636.25,218.37 640.74,217.85 645.11,216.7C648.03,216.27 648.28,220.13 649.09,222.12C651.35,241.75 652.59,261.5 654.6,281.16C653.54,282.19 652.69,283.68 651.08,283.83C649.3,283.31 647.26,282.3 647.31,280.15C646.77,271.43 645.67,262.75 645.01,254.04C644.21,244.27 643.68,234.47 642.16,224.79C636.94,224.59 632.12,227.2 626.91,227.17C621.29,227.15 616.29,230.32 610.62,230.13C610.45,232.03 610.3,233.95 610.5,235.85C612.69,260.24 615.21,284.59 617.89,308.92C618.82,313.14 617.79,317.78 619.77,321.74C625.97,320.23 632.02,318.07 638.42,317.39C642.6,315.46 647.58,315.45 651.41,312.88C651.8,304.95 648.94,296.64 651.1,288.8C654.17,287.17 657.31,289.79 657.19,293.03C657.23,300.02 658.89,306.92 658.46,313.93C657.36,317.06 654.59,319.21 651.64,320.49C642.07,324.22 631.69,325.08 622.09,328.68C618.99,329.02 614.51,329.37 613.14,325.82C610.54,319.63 612.05,312.7 610.61,306.28C608.57,294.93 608.78,283.34 606.97,271.97C605.83,259.97 604.46,248.01 603.5,236C603.04,232.66 604.12,229.37 605.39,226.32C606.85,223.55 610.3,222.54 613.25,223.05C614.26,223.28 615.19,223.07 616.03,222.42C619.73,220.23 624.2,220.51 628.35,220.24C629.63,220.73 630.9,220.25 631.87,219.35Z" style="fill-rule:nonzero;"/>
        <path d="M675.71,323.7C678.76,322.9 681.94,323.39 685.05,323.6C692.72,324.33 700.41,324.63 708.07,325.47C715.41,325.36 722.36,328 729.49,329.35C733.32,330.99 739.21,331.98 739.57,337.14C739.15,340.42 735.84,341.22 733.31,342.32C727.16,342.14 721.21,340.43 715.08,340.12C706.36,338.46 697.65,336.8 688.85,335.62C683.78,335.06 679.55,332.17 674.89,330.41C673.81,329.75 673.55,328.42 672.93,327.42C673.81,326.16 674.49,324.69 675.71,323.7Z" style="fill-rule:nonzero;"/>
        <path d="M680.54,342.03C681.68,340.81 682.84,339.62 683.98,338.4C685.5,338.89 687.63,339.01 688.25,340.82C689.76,343.35 687.09,347.52 684.09,346.25C681.93,345.96 681.3,343.68 680.54,342.03Z" style="fill-rule:nonzero;"/>
        <path d="M628.35,220.24C629.15,218.56 630.32,218.27 631.87,219.35C630.9,220.25 629.63,220.73 628.35,220.24Z" style="fill:rgb(255,0,0);fill-rule:nonzero;"/>
        <path d="M661.23,319.02C661.63,315.78 661.54,312.52 661.55,309.27C662.18,312.49 662.71,315.93 661.23,319.02Z" style="fill:rgb(255,0,0);fill-rule:nonzero;"/>
        <path d="M691.78,178.85C693.93,177.59 696.33,176.03 698.94,176.6C713.93,178.98 728.92,181.34 743.92,183.65C748.2,184.45 752.26,187.01 754.07,191.11C754.06,194.79 753.25,198.42 752.88,202.07C749.14,226.01 746.24,250.07 742.79,274.04C742.1,280.37 741.24,286.68 739.62,292.85C735.64,295.93 730.56,293.42 726.11,292.99C710.96,290.91 695.87,288.39 680.74,286.2C679.05,285.77 676.46,285.19 676.5,282.98C676.11,278.27 677.29,273.64 677.9,269C679.4,255.67 681.84,242.47 683.41,229.16C683.73,226.02 685.45,223.21 685.61,220.04C686.63,209.31 687.27,198.54 689.26,187.96C689.61,184.86 689.07,181.07 691.78,178.85M696.75,181.74C694.56,183.84 693.46,186.98 693.34,189.98C689.7,213.98 686.62,238.08 682.73,262.04C682.36,266.42 681.7,270.77 680.74,275.06C681.64,276.84 682.05,279.02 683.55,280.42C686.6,281.75 690.06,281.67 693.27,282.53C695.14,281.46 695.96,279.5 696.71,277.58C697.83,277.8 698.96,278.02 700.1,278.24C700.69,278.37 701.87,278.64 702.46,278.78C702.39,280.27 701.84,281.89 702.62,283.3C710.12,285.96 718.17,286.17 725.97,287.42C728.8,287.7 731.76,288.31 734.56,287.47C736.47,284.26 738.55,280.88 738.71,277.03C742.08,250.37 745.62,223.72 749.05,197.06C749.8,193 747.18,188.27 742.92,187.58C730.27,185.54 717.6,183.59 704.94,181.59C702.25,181.29 699.34,180.68 696.75,181.74Z" style="fill:rgb(236,28,53);fill-rule:nonzero;"/>
        <path d="M635,213.72C640.33,213.69 645.59,212.4 650.93,212.48C652.69,212.72 653.62,214.59 654.28,216.05C655.05,229.03 655.83,242.03 657.48,254.94C657.22,264.7 659.35,274.29 659.52,284.02C660.29,292.33 660.98,300.66 661.56,308.99L661.55,309.27C661.54,312.52 661.63,315.78 661.23,319.02C660.43,320.84 659.03,322.58 656.96,322.92C649.94,324.62 643.09,326.94 636.03,328.43C629.13,330.24 622.27,333.71 614.96,332.46C611.8,332.53 608.72,330.16 608.44,326.94C606.74,310.99 605.54,294.99 603.59,279.07C602.49,263.63 600.88,248.23 599.22,232.84C599.04,227.38 601.3,220.82 607.11,219.22C612.51,218.41 617.52,215.93 623,215.53C627.07,215.35 630.91,213.61 635,213.72M631.87,219.35C630.32,218.27 629.15,218.56 628.35,220.24C624.2,220.51 619.73,220.23 616.03,222.42C614.62,221.2 613.7,221.41 613.25,223.05C610.3,222.54 606.85,223.55 605.39,226.32C604.12,229.37 603.04,232.66 603.5,236C604.46,248.01 605.83,259.97 606.97,271.97C608.78,283.34 608.57,294.93 610.61,306.28C612.05,312.7 610.54,319.63 613.14,325.82C614.51,329.37 618.99,329.02 622.09,328.68C631.69,325.08 642.07,324.22 651.64,320.49C654.59,319.21 657.36,317.06 658.46,313.93C658.89,306.92 657.23,300.02 657.19,293.03C657.31,289.79 654.17,287.17 651.1,288.8C651.59,287.19 651.09,285.47 651.08,283.83C652.69,283.68 653.54,282.19 654.6,281.16C652.59,261.5 651.35,241.75 649.09,222.12C648.28,220.13 648.03,216.27 645.11,216.7C640.74,217.85 636.25,218.37 631.87,219.35Z" style="fill:rgb(236,28,53);fill-rule:nonzero;"/>
        <path d="M696.75,181.74C699.34,180.68 702.25,181.29 704.94,181.59C717.6,183.59 730.27,185.54 742.92,187.58C747.18,188.27 749.8,193 749.05,197.06C745.62,223.72 742.08,250.37 738.71,277.03C738.55,280.88 736.47,284.26 734.56,287.47C731.76,288.31 728.8,287.7 725.97,287.42C718.17,286.17 710.12,285.96 702.62,283.3C701.84,281.89 702.39,280.27 702.46,278.78C701.87,278.64 700.69,278.37 700.1,278.24C700.76,278.35 702.07,278.58 702.72,278.7C704.04,278.01 705.3,276.54 706.96,276.98C715.34,278.37 723.76,279.47 732.15,280.83C735.95,251.96 740.45,223.2 744.54,194.38C741.71,193.63 738.85,192.99 735.92,192.83C726.52,192.33 717.51,188.89 708.08,188.71C705.5,188.64 702.93,188.58 700.37,188.46C697.28,209.95 694.03,231.42 690.94,252.91C690.22,259.92 688.2,266.73 688.07,273.81C691.21,274.43 695.3,273.98 696.71,277.58C695.96,279.5 695.14,281.46 693.27,282.53C690.06,281.67 686.6,281.75 683.55,280.42C682.05,279.02 681.64,276.84 680.74,275.06C681.7,270.77 682.36,266.42 682.73,262.04C686.62,238.08 689.7,213.98 693.34,189.98C693.46,186.98 694.56,183.84 696.75,181.74Z" style="fill:rgb(1,0,0);fill-rule:nonzero;"/>
        <path d="M613.25,223.05C613.7,221.41 614.62,221.2 616.03,222.42C615.19,223.07 614.26,223.28 613.25,223.05Z" style="fill:rgb(169,66,80);fill-rule:nonzero;"/>
        <g transform="matrix(-3.861832,0.630894,0.951197,5.822473,1635.231102,-1591.992159)">
            <path d="M327.088,282.228C328.086,284.713 332.035,284.724 333.088,282.182" style="fill:none;stroke:rgb(255,0,0);stroke-width:1.2px;"/>
        </g>
    </g>
</svg>
