<?xml version="1.0" encoding="UTF-8" standalone="no"?>
<!DOCTYPE svg PUBLIC "-//W3C//DTD SVG 1.1//EN" "http://www.w3.org/Graphics/SVG/1.1/DTD/svg11.dtd">
<svg width="100%" height="100%" viewBox="0 0 235 175" version="1.1" xmlns="http://www.w3.org/2000/svg" xmlns:xlink="http://www.w3.org/1999/xlink" xml:space="preserve" xmlns:serif="http://www.serif.com/" style="fill-rule:evenodd;clip-rule:evenodd;stroke-miterlimit:1.5;">
    <g transform="matrix(1,0,0,1,-15.87,-585.112842)">
        <g transform="matrix(1,0,0,1,-0.68,9.242842)">
            <path d="M153.04,631.12C156.38,631 159.72,630.74 162.96,629.9C168.33,630.09 173.77,630.68 179.07,629.47C183.2,629.59 187.25,630.56 191.37,630.85C191.09,631.98 190.81,633.15 190.53,634.31L191.67,634.63C190.92,637.64 190.25,640.67 189.52,643.69C187.05,646.08 184.41,648.46 181.22,649.84C175.52,650.78 169.15,651.04 164.04,647.9C160.57,645.81 157.48,643.11 154.81,640.08C153.13,637.4 153.24,634.15 153.04,631.12Z" style="fill:white;fill-rule:nonzero;"/>
        </g>
        <g transform="matrix(1,0,0,1,-0.68,9.242842)">
            <path d="M60.31,645.63C63.23,645.46 66.15,644.95 69.08,645.25C74.87,645.75 80.67,644.11 86.43,645.18C85.48,650.45 85.52,655.83 84.63,661.12C84.77,664.94 84.55,668.78 83.75,672.55C80.73,673.45 77.75,674.51 74.9,675.84C67.76,680.42 63.05,688.96 64.49,697.56C59.51,698.34 54.91,700.98 49.85,700.85C48.17,702.3 47.11,702.02 46.67,700.03C45.15,693.07 40.24,687.78 36.39,682.05C40.15,680.15 44.52,679.66 48.04,677.27C49.62,675.69 50.74,673.5 53.07,672.9C55.19,669.91 56.27,666.4 57.12,662.88C59.29,662.38 58.75,659.79 59.29,658.18C59.64,653.99 60.33,649.83 60.31,645.63Z" style="fill:white;fill-rule:nonzero;"/>
        </g>
        <g transform="matrix(1,0,0,1,-0.68,9.242842)">
            <path d="M193.65,671.49C194.65,669.84 196.73,670.31 198.35,670.17C197.68,678.5 193.9,686.06 192.08,694.13C189.16,702.55 186.21,711.46 179.95,718.04C177.68,718.7 175.49,719.79 173.09,719.91C171,719.31 170.35,716.83 169,715.39C173.61,717 177.83,714.14 180.74,710.79C185.12,706.33 185.37,699.13 183.32,693.55C181.75,688.18 174.69,685.25 169.82,688C167.39,689.23 164.48,688.49 162.02,689.78C160.96,691.39 159.82,692.94 158.62,694.44C158.17,697.33 157.57,700.2 156.86,703.04C157.05,704.49 157.23,705.95 157.4,707.42C154.57,708.21 151.85,707.07 150.65,704.35C150.86,703.96 151.28,703.17 151.49,702.78C148.82,698.57 152.42,694.22 155.08,691.1C158.11,687.06 162.01,683.84 165.38,680.12C167.95,677.99 171.27,676.75 173.22,673.92C174.96,676.64 176.07,679.69 176.46,682.9C176.51,685.14 179.42,686.68 181.17,685.1C186.17,681.4 190.13,676.57 193.65,671.49Z" style="fill:white;fill-rule:nonzero;"/>
        </g>
        <g transform="matrix(1,0,0,1,-0.68,9.242842)">
            <path d="M126.54,710.8C129.32,711.1 132.11,711.12 134.89,710.89C134.75,711.43 134.46,712.51 134.31,713.05C132.41,716.85 130.42,720.64 127.57,723.83C127.55,724.33 127.52,725.31 127.51,725.81C123.71,727.59 119.58,725.47 115.57,726.18L114.93,725.83C116.41,720.78 121.11,717.57 123.37,712.89C124.01,711.74 125.09,710.55 126.54,710.8Z" style="fill:white;fill-rule:nonzero;"/>
        </g>
        <g transform="matrix(1,0,0,1,-0.68,9.242842)">
            <path d="M103.51,710.66C106.95,712.15 110.9,710.29 114.13,711.15L114.03,711.75C110.74,716.72 107.01,721.42 104.16,726.67L104.02,726.92C100.8,725.9 97.5,725.2 94.14,724.87C97.57,720.34 101.03,715.81 103.51,710.66Z" style="fill:white;fill-rule:nonzero;"/>
        </g>
        <g transform="matrix(1,0,0,1,-0.68,9.242842)">
            <path d="M144.97,712.02C147.9,713.09 151,713.38 154.05,713.9C158.61,715.99 163.53,718.51 165.79,723.28C163.86,725.68 160.6,724.67 157.95,724.74C153.6,724.29 149.26,725.68 144.92,725.01C142.58,724.67 140.2,724.82 137.84,724.76C139.35,720.41 142.02,716.65 144.39,712.75C144.53,712.57 144.82,712.2 144.97,712.02Z" style="fill:white;fill-rule:nonzero;"/>
        </g>
        <g transform="matrix(1,0,0,1,-0.68,9.242842)">
            <path d="M40.61,727.9C41.72,724.07 44.66,720.58 48.88,720.42C51.59,719.55 54.01,721.41 55.62,723.41C57.29,727.21 54.96,732.17 50.96,733.28C48.83,734 46.51,734.08 44.33,733.52C41.97,732.66 41.49,729.92 40.61,727.9Z" style="fill:white;fill-rule:nonzero;"/>
        </g>
        <g transform="matrix(1,0,0,1,-0.68,9.242842)">
            <path d="M87.99,731.9C93.74,731.58 99.27,733.33 104.95,733.7C111.61,733.15 118.3,733.21 124.97,733.46C132.31,731.1 140.24,731.41 147.82,732.24C152.31,731.91 156.82,731.62 161.33,731.72C163.91,733.13 164.37,735.95 163.95,738.66C159.57,737.59 155.1,737.88 150.69,738.55C134.8,738.49 118.88,737.4 103.01,738.18C96.85,739.53 89.82,734.59 84.37,739.08C82.62,735.47 88.33,735.22 87.99,731.9Z" style="fill:white;fill-rule:nonzero;"/>
        </g>
        <g transform="matrix(1,0,0,1,-0.68,9.242842)">
            <path d="M143.14,578.08C150.93,575.97 159.06,576.47 167.03,575.87C168.26,576.22 169.26,577.06 170.32,577.75C178.4,575.75 186.78,576.59 194.95,577.32C200.52,578.38 204.77,582.5 208.49,586.51C210.39,588.32 209.11,590.79 208.5,592.85C206.78,592.74 204.52,593.37 203.46,591.58C201.14,588.21 197.63,585.95 193.97,584.28C186.81,583.98 179.53,582.98 172.46,584.6C169.3,585.41 170.08,589.34 168.42,591.5C166.93,593.63 166.11,596.08 165.24,598.5C161.72,604.43 154.51,606.57 148.04,607.19C143.44,607.67 137.91,606.95 134.98,602.95C131.95,599.31 129.32,594.52 130.52,589.67C128.68,588.83 126.79,588.08 124.89,587.39C123.94,588.2 122.99,589.03 122.04,589.86C120.94,594.83 117.19,598.54 114.97,603C108.95,606.73 101.73,610.13 94.52,608.23C92,606.95 89.62,605.28 87.67,603.22C85.91,599.61 83.9,595.98 83.57,591.89C82.61,588.01 81.19,583.81 83.32,580.04C87.35,578.74 91.6,578.35 95.81,578.2C100.84,577.57 106.04,577.03 111.01,578.29C114.14,579.04 116.36,581.54 119.13,583.01C121.32,582.52 122.49,579.73 125,580.2C127.79,579.96 130.15,582.35 132.83,582.13C135.39,579.02 139.54,579.05 143.14,578.08Z" style="fill-rule:nonzero;"/>
        </g>
        <g transform="matrix(1,0,0,1,-0.68,9.242842)">
            <path d="M60.35,583.22C63.35,582.43 65.65,584.1 66.53,586.93C65.55,589.4 63.14,592.48 60.2,590.7C57.44,588.82 59.49,585.56 60.35,583.22Z" style="fill-rule:nonzero;"/>
        </g>
        <g transform="matrix(1,0,0,1,-0.68,9.242842)">
            <path d="M68.99,617.36C74.76,617.86 80.41,615.45 86.13,616.78C89.7,616.6 94.28,614.79 96.93,618.19C99.51,622.1 97.43,626.75 97.95,631.06C97.17,634.8 97.35,638.66 96.57,642.41C95.2,643.14 93.8,643.82 92.37,644.46C91.43,651.64 91.85,658.92 90.56,666.05C90.23,671.74 90.3,677.61 88.21,683C85.91,692.75 77.91,701.15 67.93,702.98C63.82,703.6 59.95,705.02 56.02,706.28C50.55,706.57 45.54,709.04 40.13,709.66C36.12,710.34 32.06,710.51 28.02,710.88C25.07,711.23 22.55,709.34 20.36,707.64C18.39,704.38 17.07,700.67 16.55,696.9C17.02,694.33 17.28,691.67 18.21,689.24C20.36,686.44 22.18,683.29 24.94,681.06C31.91,676.28 40.67,675.17 47.76,670.7C50.93,666.18 51.19,660.35 53.13,655.29C53.89,651.95 54.2,648.53 54.63,645.15C52.2,643.11 53.32,639.66 53.41,636.94C54.29,631.76 52.5,626.28 54.5,621.29C58.16,617.17 64.09,618.18 68.99,617.36M59.52,624.25C59.63,626.31 59.72,628.37 59.78,630.44C62.27,630.36 66.78,629.24 66.96,633.02C67,636.88 62.28,636.27 59.64,636.54C59.51,637.54 59.38,638.56 59.25,639.58C61.9,639.97 64.48,639.32 67.06,638.85C68.98,639.08 70.89,639.77 72.84,639.39C78.77,638.27 84.84,638.91 90.82,638.28C91.01,636.61 91.19,634.95 91.4,633.31C86.41,634.74 81.18,634.95 76.03,634.99C74.56,635.45 72.65,636 71.57,634.5C69.99,632.13 72.65,629.67 74.85,629.12C80.51,628.36 86.36,629.1 91.85,627.19C92.07,625.55 92.26,623.91 92.4,622.28C88.93,622.49 85.46,622.75 82,622.32C74.54,623.3 67.01,623.52 59.52,624.25M60.31,645.63C60.33,649.83 59.64,653.99 59.29,658.18C58.75,659.79 59.29,662.38 57.12,662.88C56.27,666.4 55.19,669.91 53.07,672.9C50.74,673.5 49.62,675.69 48.04,677.27C44.52,679.66 40.15,680.15 36.39,682.05C40.24,687.78 45.15,693.07 46.67,700.03C47.11,702.02 48.17,702.3 49.85,700.85C54.91,700.98 59.51,698.34 64.49,697.56C63.05,688.96 67.76,680.42 74.9,675.84C77.75,674.51 80.73,673.45 83.75,672.55C84.55,668.78 84.77,664.94 84.63,661.12C85.52,655.83 85.48,650.45 86.43,645.18C80.67,644.11 74.87,645.75 69.08,645.25C66.15,644.95 63.23,645.46 60.31,645.63M71.5,688.61C70.51,690.93 70.41,693.47 70.35,695.97C74.18,694.84 77.26,691.95 79.51,688.75C79.54,688.69 79.61,688.56 79.65,688.5C81.19,685.44 82.43,682.2 83.03,678.82C78.44,680.83 73,683.37 71.5,688.61M23.19,699.49C23.96,701.69 25.13,704.76 27.95,704.69C32.52,704.55 37.13,704.44 41.59,703.32C39.28,696.28 35,690.02 29.97,684.64C24.86,687.53 21.74,693.69 23.19,699.49Z" style="fill-rule:nonzero;"/>
        </g>
        <g transform="matrix(1,0,0,1,-0.68,9.242842)">
            <path d="M143.42,619.47C146.02,619.01 149.28,617.36 151.58,619.45C153.04,620.48 152.69,622.49 153.04,624.03C156.73,624.46 160.26,622.82 163.96,623.13C169.35,623 174.8,623.62 180.1,622.4C183.83,622.31 187.56,623.05 191.24,623.68C192.3,622.43 193.24,620.78 195,620.47C200.93,619.19 207.03,619.58 213.04,619.5C216.51,619.2 220.66,617.75 223.5,620.55C226.04,623.4 229.43,625.24 232.07,627.98C235.46,631.28 239.74,633.64 242.71,637.37C245.59,640.86 245.7,645.6 247.69,649.55C250.12,654.33 249.4,659.83 250.2,664.97C251.61,671.31 249.78,677.88 247.4,683.76C244.35,686.11 240.43,684.37 236.97,684.96C232.48,685.65 228,686.41 223.47,686.81C222.24,692.96 225.17,698.81 224.72,704.94C225.41,711.33 223.97,717.68 224.46,724.06C224.56,731.76 224.14,739.45 223.79,747.15C222.98,748.11 222.11,749.03 221.17,749.89C214.83,749.44 208.45,749 202.1,749.4C198.42,748.97 194.73,748.55 191.02,748.53C186.63,748.04 182.39,750.13 177.99,749.26C170,747.65 161.93,750.5 153.92,749.17C151.23,749.34 148.61,748.86 146.01,748.25C140.4,749.08 134.72,748.21 129.1,748.62C123.47,749.74 117.71,750.05 111.99,749.61C106.02,748.96 100.02,749.69 94.05,749.64C90.07,748.55 85.98,747.94 81.95,747.12C79.21,745.8 78.07,742.65 76.78,740.09C77.37,737.75 77.14,735.27 77.78,732.99C78.32,732.07 81.26,730.7 78.86,729.94C74.81,727.89 73.73,722.48 75.28,718.5C76.65,713.87 79.11,708.68 83.99,706.97C90.11,706.53 95.8,703.54 102.01,703.42C104.66,703.51 107.29,704.44 109.95,703.93C114.84,703.2 119.78,703.77 124.69,703.7C123.66,701.73 125.3,700.02 125.74,698.16C126.23,695.56 126.24,692.9 126.49,690.29C119,690.47 111.58,691.61 104.09,691.62C101.98,691.37 98.97,689.64 99.82,687.13C100.62,682.8 99.12,677.91 102.28,674.25C101.32,666.8 100.6,658.47 104.87,651.85C111.58,641.64 117.57,629.93 128.64,623.78C133.07,620.87 138.67,621.58 143.42,619.47M131.68,629.7C126.93,631.29 124.87,636.15 121.39,639.31C118.73,642.12 117.01,645.66 114.91,648.88C112.75,652.57 109.7,655.84 108.47,660.01C108.31,668.18 108.86,676.36 108.1,684.52C114.58,683.62 121.14,683.49 127.68,683.33C127.46,677.12 126.4,669.25 131.98,664.94C133.19,663.63 134.87,665.14 135.28,666.43C135.97,669.65 134.56,672.82 134.57,676.05C134.21,680.06 135.99,683.97 135.14,687.99C134.34,693.19 135.3,698.66 133.3,703.65C136.75,704.48 140.21,705.4 143.78,705.51C143.13,701.13 143.75,696.59 145.67,692.61C147.79,688.29 151.86,685.44 154.64,681.6C159.19,675.69 165.9,672.04 170.77,666.47C176.56,664.3 180.6,670.25 181.66,675.16C182.58,674.58 183.49,673.95 184.1,673.04C186.86,669.19 190.08,665.71 193.25,662.22C194.76,660.59 197.23,660.34 198.61,658.58C199.99,656.92 201.55,654.89 204.03,655.57C207.01,657.28 206.64,661.16 206.05,664.04C204.73,670.43 204.61,677.09 202.22,683.24C198.56,692.7 197.25,703.05 192.03,711.89C189.47,716.79 187.23,722.63 181.79,725.01C177.73,726.38 173.18,726.43 169.58,729C171.01,733.38 172.57,738.49 169.32,742.46C173.72,740.77 178.35,743.18 182.88,742.39C188.54,741.28 194.33,741.61 200.02,742.19C205.81,743.16 211.67,741.68 217.48,742.59C217.47,735.75 217.73,728.91 217.73,722.07C218.74,716.08 218.12,710.03 218.3,704C218.45,700.55 216.84,697.36 216.69,693.95C216.97,686.64 214.51,679.32 216.1,672.06C216.48,670.2 217.81,668.12 220.03,668.76C223.93,670.86 221.74,676.09 222.51,679.64C229.35,679.68 235.95,677.28 242.81,677.63C243.94,673.15 244.41,668.57 243.49,664.02C243.25,655.9 240.15,648.32 237.1,640.93C233.71,638.73 230.24,636.54 227.56,633.49C225.03,630.56 221.29,629.06 218.8,626.08C212.38,627.05 205.84,625.95 199.43,627.13C199.42,627.22 199.39,627.39 199.38,627.48C198.45,633.89 198.45,640.68 195.47,646.61C187.25,659.12 167.74,661.01 156.53,651.49C155.13,650.21 153.24,649.91 151.48,649.47C149.49,645.95 146.76,642.78 145.44,638.93C144.76,634.62 145.93,630.28 145.67,625.95C141,627.14 136.26,628.17 131.68,629.7M153.04,631.12C153.24,634.15 153.13,637.4 154.81,640.08C157.48,643.11 160.57,645.81 164.04,647.9C169.15,651.04 175.52,650.78 181.22,649.84C184.41,648.46 187.05,646.08 189.52,643.69C190.25,640.67 190.92,637.64 191.67,634.63L190.53,634.31C190.81,633.15 191.09,631.98 191.37,630.85C187.25,630.56 183.2,629.59 179.07,629.47C173.77,630.68 168.33,630.09 162.96,629.9C159.72,630.74 156.38,631 153.04,631.12M193.65,671.49C190.13,676.57 186.17,681.4 181.17,685.1C179.42,686.68 176.51,685.14 176.46,682.9C176.07,679.69 174.96,676.64 173.22,673.92C171.27,676.75 167.95,677.99 165.38,680.12C162.01,683.84 158.11,687.06 155.08,691.1C152.42,694.22 148.82,698.57 151.49,702.78C151.28,703.17 150.86,703.96 150.65,704.35C151.85,707.07 154.57,708.21 157.4,707.42C157.23,705.95 157.05,704.49 156.86,703.04C157.57,700.2 158.17,697.33 158.62,694.44C159.82,692.94 160.96,691.39 162.02,689.78C164.48,688.49 167.39,689.23 169.82,688C174.69,685.25 181.75,688.18 183.32,693.55C185.37,699.13 185.12,706.33 180.74,710.79C177.83,714.14 173.61,717 169,715.39C170.35,716.83 171,719.31 173.09,719.91C175.49,719.79 177.68,718.7 179.95,718.04C186.21,711.46 189.16,702.55 192.08,694.13C193.9,686.06 197.68,678.5 198.35,670.17C196.73,670.31 194.65,669.84 193.65,671.49M169.59,693.7C167.24,694.78 164.71,696.25 164.24,699.04C163.69,701.76 162.36,706.42 166.17,707.21C168.99,707.98 172.65,709.46 175.07,707.07C178.57,703.85 178.99,698.08 175.7,694.55C173.72,694.09 171.58,692.49 169.59,693.7M126.54,710.8C125.09,710.55 124.01,711.74 123.37,712.89C123.51,712.36 123.78,711.29 123.92,710.76C120.98,710.65 118.02,710.41 115.09,710.88C114.83,711.1 114.29,711.53 114.03,711.75L114.13,711.15C110.9,710.29 106.95,712.15 103.51,710.66C99.9,710.4 96.41,711.6 93.07,712.8C92.82,713.02 92.32,713.46 92.07,713.68L92.16,713.12C90.2,712.77 87.94,713.88 85.82,713.71C82.5,715.75 79.67,721.53 83.27,724.3C86.55,725.8 90.4,724.97 93.92,725.16L94.14,724.87C97.5,725.2 100.8,725.9 104.02,726.92L104.16,726.67C107.48,726.85 111.21,725.37 114.16,727.46C114.35,727.05 114.74,726.23 114.93,725.83L115.57,726.18C119.58,725.47 123.71,727.59 127.51,725.81C130.94,725.32 134.39,724.98 137.84,724.76C140.2,724.82 142.58,724.67 144.92,725.01C149.26,725.68 153.6,724.29 157.95,724.74C160.6,724.67 163.86,725.68 165.79,723.28C163.53,718.51 158.61,715.99 154.05,713.9C151,713.38 147.9,713.09 144.97,712.02C144.82,712.2 144.53,712.57 144.39,712.75C141.9,712.6 139.42,712.33 136.99,711.75C135.68,711.28 134.78,711.72 134.31,713.05C134.46,712.51 134.75,711.43 134.89,710.89C132.11,711.12 129.32,711.1 126.54,710.8M87.99,731.9C88.33,735.22 82.62,735.47 84.37,739.08L84.25,739.6C86.18,741.46 89.07,741.2 91.51,741.81C99.25,743.83 107.31,741.35 115.1,743.02C121.48,743.27 127.65,741.13 134.04,741.7C143.12,742.2 152.01,740.04 161.04,739.57C162.09,739.58 163.01,739.02 163.95,738.66C164.37,735.95 163.91,733.13 161.33,731.72C156.82,731.62 152.31,731.91 147.82,732.24C140.24,731.41 132.31,731.1 124.97,733.46C118.3,733.21 111.61,733.15 104.95,733.7C99.27,733.33 93.74,731.58 87.99,731.9Z" style="fill-rule:nonzero;"/>
        </g>
        <g transform="matrix(1,0,0,1,-0.68,9.242842)">
            <path d="M166.34,698.7C168.04,697.88 169.51,695.51 171.6,696.52C174.49,697.28 173.52,700.8 174.13,702.99C174.8,704.99 172.01,705.53 170.97,706.67C167.46,705.74 165.61,702.17 166.34,698.7Z" style="fill-rule:nonzero;"/>
        </g>
        <g transform="matrix(1,0,0,1,-0.68,9.242842)">
            <path d="M36.7,720.71C40.07,715 47.26,712.75 53.59,713.47C57.33,715.13 61.09,717.47 62.87,721.34C66.15,719.69 69.85,721.39 72.36,723.63C72.9,727.06 72.32,730.64 72.91,734.12C73.23,736.35 71.14,737.69 69.92,739.23C65.57,739.22 60.06,741 56.66,737.51C51.44,741.6 43.36,742.54 38.12,738.02C37.61,738.42 36.58,739.21 36.06,739.6C32.06,739.61 27.35,741.79 23.87,739.16C21.08,735.22 20.61,730.01 21.37,725.38C24.66,720.45 31.59,721.57 36.7,720.71M40.61,727.9C41.49,729.92 41.97,732.66 44.33,733.52C46.51,734.08 48.83,734 50.96,733.28C54.96,732.17 57.29,727.21 55.62,723.41C54.01,721.41 51.59,719.55 48.88,720.42C44.66,720.58 41.72,724.07 40.61,727.9M27.82,728.68C28.47,730.17 28.12,732.53 29.72,733.44C31.45,733.35 33.16,733.07 34.86,732.83C34.4,731.33 33.93,729.82 33.48,728.33C31.59,728.19 29.68,728.24 27.82,728.68M61.76,732.12C63.07,732.35 64.41,732.47 65.73,732.64C65.6,731.12 65.46,729.62 65.34,728.12C62.87,727.5 61.66,730 61.76,732.12Z" style="fill-rule:nonzero;"/>
        </g>
        <g transform="matrix(1,0,0,1,-0.68,9.242842)">
            <path d="M131.68,629.7C136.26,628.17 141,627.14 145.67,625.95C145.93,630.28 144.76,634.62 145.44,638.93C146.76,642.78 149.49,645.95 151.48,649.47C153.24,649.91 155.13,650.21 156.53,651.49C167.74,661.01 187.25,659.12 195.47,646.61C198.45,640.68 198.45,633.89 199.38,627.48C199.39,627.39 199.42,627.22 199.43,627.13C205.84,625.95 212.38,627.05 218.8,626.08C221.29,629.06 225.03,630.56 227.56,633.49C230.24,636.54 233.71,638.73 237.1,640.93C240.15,648.32 243.25,655.9 243.49,664.02C244.41,668.57 243.94,673.15 242.81,677.63C235.95,677.28 229.35,679.68 222.51,679.64C221.74,676.09 223.93,670.86 220.03,668.76C217.81,668.12 216.48,670.2 216.1,672.06C214.51,679.32 216.97,686.64 216.69,693.95C216.84,697.36 218.45,700.55 218.3,704C218.12,710.03 218.74,716.08 217.73,722.07C217.73,728.91 217.47,735.75 217.48,742.59C211.67,741.68 205.81,743.16 200.02,742.19C194.33,741.61 188.54,741.28 182.88,742.39C178.35,743.18 173.72,740.77 169.32,742.46C172.57,738.49 171.01,733.38 169.58,729C173.18,726.43 177.73,726.38 181.79,725.01C187.23,722.63 189.47,716.79 192.03,711.89C197.25,703.05 198.56,692.7 202.22,683.24C204.61,677.09 204.73,670.43 206.05,664.04C206.64,661.16 207.01,657.28 204.03,655.57C201.55,654.89 199.99,656.92 198.61,658.58C197.23,660.34 194.76,660.59 193.25,662.22C190.08,665.71 186.86,669.19 184.1,673.04C183.49,673.95 182.58,674.58 181.66,675.16C180.6,670.25 176.56,664.3 170.77,666.47C165.9,672.04 159.19,675.69 154.64,681.6C151.86,685.44 147.79,688.29 145.67,692.61C143.75,696.59 143.13,701.13 143.78,705.51C140.21,705.4 136.75,704.48 133.3,703.65C135.3,698.66 134.34,693.19 135.14,687.99C135.99,683.97 134.21,680.06 134.57,676.05C134.56,672.82 135.97,669.65 135.28,666.43C134.87,665.14 133.19,663.63 131.98,664.94C126.4,669.25 127.46,677.12 127.68,683.33C121.14,683.49 114.58,683.62 108.1,684.52C108.86,676.36 108.31,668.18 108.47,660.01C109.7,655.84 112.75,652.57 114.91,648.88C117.01,645.66 118.73,642.12 121.39,639.31C124.87,636.15 126.93,631.29 131.68,629.7M215.53,663.03C215.89,664.87 217.47,665.92 218.97,666.83C219.62,666.42 220.92,665.6 221.58,665.19C221.66,663.64 222.09,662.02 221.52,660.53C219.63,657.88 215.12,659.93 215.53,663.03Z" style="fill:rgb(236,28,52);fill-rule:nonzero;"/>
        </g>
        <g transform="matrix(1,0,0,1,-0.68,9.242842)">
            <g transform="matrix(-7.932615,-0.169437,-0.219793,10.290131,2854.04853,-2133.093706)">
                <path d="M327.088,282.228C327.735,283.696 328.557,283.933 330.374,284.076" style="fill:none;stroke:white;stroke-width:0.65px;"/>
            </g>
        </g>
        <g transform="matrix(1,0,0,1,-0.68,9.242842)">
            <path d="M71.5,688.61C73,683.37 78.44,680.83 83.03,678.82C82.43,682.2 81.19,685.44 79.65,688.5C79.61,688.56 79.54,688.69 79.51,688.75C77.26,691.95 74.18,694.84 70.35,695.97C70.41,693.47 70.51,690.93 71.5,688.61Z" style="fill:rgb(236,28,52);fill-rule:nonzero;"/>
        </g>
        <g transform="matrix(1,0,0,1,-0.68,9.242842)">
            <path d="M23.19,699.49C21.74,693.69 24.86,687.53 29.97,684.64C35,690.02 39.28,696.28 41.59,703.32C37.13,704.44 32.52,704.55 27.95,704.69C25.13,704.76 23.96,701.69 23.19,699.49Z" style="fill:rgb(236,28,52);fill-rule:nonzero;"/>
        </g>
        <g transform="matrix(1,0,0,1,-0.68,9.242842)">
            <path d="M93.07,712.8C96.41,711.6 99.9,710.4 103.51,710.66C101.03,715.81 97.57,720.34 94.14,724.87L93.92,725.16C90.4,724.97 86.55,725.8 83.27,724.3C83.49,724.22 83.95,724.05 84.18,723.97C86.73,720.48 89.41,717.08 92.07,713.68C92.32,713.46 92.82,713.02 93.07,712.8Z" style="fill:rgb(236,28,52);fill-rule:nonzero;"/>
        </g>
        <g transform="matrix(1,0,0,1,-0.68,9.242842)">
            <path d="M115.09,710.88C118.02,710.41 120.98,710.65 123.92,710.76C123.78,711.29 123.51,712.36 123.37,712.89C121.11,717.57 116.41,720.78 114.93,725.83C114.74,726.23 114.35,727.05 114.16,727.46C111.21,725.37 107.48,726.85 104.16,726.67C107.01,721.42 110.74,716.72 114.03,711.75C114.29,711.53 114.83,711.1 115.09,710.88Z" style="fill:rgb(236,28,52);fill-rule:nonzero;"/>
        </g>
        <g transform="matrix(1,0,0,1,-0.68,9.242842)">
            <path d="M134.31,713.05C134.78,711.72 135.68,711.28 136.99,711.75C139.42,712.33 141.9,712.6 144.39,712.75C142.02,716.65 139.35,720.41 137.84,724.76C134.39,724.98 130.94,725.32 127.51,725.81C127.52,725.31 127.55,724.33 127.57,723.83C130.42,720.64 132.41,716.85 134.31,713.05Z" style="fill:rgb(236,28,52);fill-rule:nonzero;"/>
        </g>
        <g transform="matrix(1,0,0,1,-0.68,9.242842)">
            <path d="M84.37,739.08C89.82,734.59 96.85,739.53 103.01,738.18C118.88,737.4 134.8,738.49 150.69,738.55C155.1,737.88 159.57,737.59 163.95,738.66C163.01,739.02 162.09,739.58 161.04,739.57C152.01,740.04 143.12,742.2 134.04,741.7C127.65,741.13 121.48,743.27 115.1,743.02C107.31,741.35 99.25,743.83 91.51,741.81C89.07,741.2 86.18,741.46 84.25,739.6L84.37,739.08Z" style="fill:rgb(235,28,53);fill-rule:nonzero;"/>
        </g>
        <g transform="matrix(1,0,0,1,-0.68,9.242842)">
            <path d="M59.52,624.25C67.01,623.52 74.54,623.3 82,622.32C85.46,622.75 88.93,622.49 92.4,622.28C92.26,623.91 92.07,625.55 91.85,627.19C86.36,629.1 80.51,628.36 74.85,629.12C72.65,629.67 69.99,632.13 71.57,634.5C72.65,636 74.56,635.45 76.03,634.99C81.18,634.95 86.41,634.74 91.4,633.31C91.19,634.95 91.01,636.61 90.82,638.28C84.84,638.91 78.77,638.27 72.84,639.39C70.89,639.77 68.98,639.08 67.06,638.85C64.48,639.32 61.9,639.97 59.25,639.58C59.38,638.56 59.51,637.54 59.64,636.54C62.28,636.27 67,636.88 66.96,633.02C66.78,629.24 62.27,630.36 59.78,630.44C59.72,628.37 59.63,626.31 59.52,624.25Z" style="fill:rgb(254,254,254);fill-rule:nonzero;"/>
        </g>
        <g transform="matrix(1,0,0,1,-0.68,9.242842)">
            <path d="M169.59,693.7C171.58,692.49 173.72,694.09 175.7,694.55C178.99,698.08 178.57,703.85 175.07,707.07C172.65,709.46 168.99,707.98 166.17,707.21C162.36,706.42 163.69,701.76 164.24,699.04C164.71,696.25 167.24,694.78 169.59,693.7M166.34,698.7C165.61,702.17 167.46,705.74 170.97,706.67C172.01,705.53 174.8,704.99 174.13,702.99C173.52,700.8 174.49,697.28 171.6,696.52C169.51,695.51 168.04,697.88 166.34,698.7Z" style="fill:rgb(254,254,254);fill-rule:nonzero;"/>
        </g>
        <g transform="matrix(1,0,0,1,-0.68,9.242842)">
            <path d="M85.82,713.71C87.94,713.88 90.2,712.77 92.16,713.12L92.07,713.68C89.41,717.08 86.73,720.48 84.18,723.97C83.95,724.05 83.49,724.22 83.27,724.3C79.67,721.53 82.5,715.75 85.82,713.71Z" style="fill:rgb(254,254,254);fill-rule:nonzero;"/>
        </g>
        <g transform="matrix(1,0,0,1,-0.68,9.242842)">
            <path d="M199.38,627.48C199.39,627.39 199.42,627.22 199.43,627.13C199.42,627.22 199.39,627.39 199.38,627.48Z" style="fill:rgb(208,122,132);fill-rule:nonzero;"/>
        </g>
        <g transform="matrix(1,0,0,1,-0.68,9.242842)">
            <path d="M215.53,663.03C215.12,659.93 219.63,657.88 221.52,660.53C222.09,662.02 221.66,663.64 221.58,665.19C220.92,665.6 219.62,666.42 218.97,666.83C217.47,665.92 215.89,664.87 215.53,663.03Z" style="fill:rgb(3,1,2);fill-rule:nonzero;"/>
        </g>
        <g transform="matrix(1,0,0,1,-0.68,9.242842)">
            <path d="M79.51,688.75C79.54,688.69 79.61,688.56 79.65,688.5C79.61,688.56 79.54,688.69 79.51,688.75Z" style="fill:rgb(161,74,86);fill-rule:nonzero;"/>
        </g>
        <g transform="matrix(1,0,0,1,-0.68,9.242842)">
            <path d="M27.82,728.68C29.68,728.24 31.59,728.19 33.48,728.33C33.93,729.82 34.4,731.33 34.86,732.83C33.16,733.07 31.45,733.35 29.72,733.44C28.12,732.53 28.47,730.17 27.82,728.68Z" style="fill:rgb(235,29,52);fill-rule:nonzero;"/>
        </g>
        <g transform="matrix(1,0,0,1,-0.68,9.242842)">
            <path d="M61.76,732.12C61.66,730 62.87,727.5 65.34,728.12C65.46,729.62 65.6,731.12 65.73,732.64C64.41,732.47 63.07,732.35 61.76,732.12Z" style="fill:rgb(224,33,54);fill-rule:nonzero;"/>
        </g>
    </g>
</svg>
