<?xml version="1.0" encoding="UTF-8" standalone="no"?>
<!DOCTYPE svg PUBLIC "-//W3C//DTD SVG 1.1//EN" "http://www.w3.org/Graphics/SVG/1.1/DTD/svg11.dtd">
<svg width="100%" height="100%" viewBox="0 0 244 203" version="1.1" xmlns="http://www.w3.org/2000/svg" xmlns:xlink="http://www.w3.org/1999/xlink" xml:space="preserve" xmlns:serif="http://www.serif.com/" style="fill-rule:evenodd;clip-rule:evenodd;stroke-miterlimit:1.5;">
    <g transform="matrix(1,0,0,1,-246.544097,-577.26)">
        <path d="M357.03,584.15C362.63,584.86 368.35,584.97 373.95,584.14C377.28,584.36 380.59,584.85 383.94,584.99C385.8,585.25 385.82,587.48 385.97,588.92C386.39,591.88 385.71,594.81 385.29,597.74C375.89,598.6 366.45,597.12 357.04,597.95C352.38,598.65 347.78,596.97 343.12,597.84C344.56,593.67 345.18,589.29 346.23,585.03C349.84,584.93 353.44,584.53 357.03,584.15Z" style="fill:white;fill-rule:nonzero;"/>
        <path d="M310.03,606.32C315.25,605.16 320.48,604.1 325.85,604.15C332.57,602.87 339.35,604.29 346.1,603.85C348.84,603.66 351.51,604.43 354.21,604.75C361.76,604.53 369.33,604.42 376.88,604.78C380.23,604.33 383.58,603.72 386.98,603.93C392.29,604.22 397.6,603.06 402.88,603.83C407.52,604.54 412.29,604.02 416.83,605.43C421.59,605.81 426.18,607.97 429.28,611.65C430.5,613.92 430.85,616.57 432.15,618.83C434.2,622.56 434.29,626.96 434.51,631.12C434.5,636.26 437.93,640.74 436.85,645.97C438.77,650.81 442.22,655.55 447.02,657.75C444.12,658.06 441.2,658.14 438.3,657.96C435.27,653.59 433.95,648.38 431.25,643.84C427.99,636.32 426.54,628.15 426.08,620C426.17,616.16 422.09,614.83 419.3,613.42C418.96,613.27 418.27,612.97 417.93,612.82C411.3,610.09 403.89,612.3 396.99,611.02C391.08,609.71 384.93,610.67 379.06,609.11C368.41,607.94 357.67,608.69 346.99,607.96C340.32,608.18 333.67,607.97 327.01,607.81C321.11,609.25 314.29,609.17 309.83,613.94C306.06,616.9 304.61,621.54 302.88,625.81C301.16,631.69 301.75,637.87 301.35,643.9C301.2,649.96 294.35,652.36 292.95,657.96C290.21,658.09 287.47,658.08 284.73,658.01C289.77,654.36 295.65,648.86 294.53,642.02C295.05,638.32 296.99,634.88 296.96,631.05C297,626.03 297.81,621.01 300.32,616.6C301.1,611.48 305.31,607.88 310.03,606.32Z" style="fill:white;fill-rule:nonzero;"/>
        <path d="M439.2,664.26C441.35,664.05 443.51,663.94 445.68,663.93C443.23,665.71 440.73,667.72 439.32,670.44C438.2,675.61 438.01,681.02 435.89,685.94C434.32,692.24 432.85,698.58 431.65,704.97C431.23,706.59 430.53,708.14 429.66,709.59C425.09,710.5 420.77,712.49 416.03,712.4C418.39,710.05 421.35,708.26 423.31,705.53C424.93,701.91 424.72,697.8 425.98,694.07C429.37,683.74 433.15,673.38 439.2,664.26Z" style="fill:white;fill-rule:nonzero;"/>
        <path d="M327.68,679.63C328.36,678.05 329.05,676.48 329.78,674.94C330.58,674.77 332.19,674.43 332.99,674.26C335.33,675.64 334.78,678.96 336.93,680.4C339.2,680.65 341.59,678.76 343.65,680.36C344.66,682.06 344.03,684.09 344.19,685.96C344.66,687.7 346.57,687.67 348,687.95C349.26,686.52 350.47,684.58 352.7,684.99C353.1,686.97 352.6,690.08 355.14,690.76C357.46,691.68 358.72,688.74 359.99,687.39C361.62,687.82 363.41,688.19 364.59,689.53C366.25,690.85 365.52,693.15 365.89,694.98C366.27,696.54 367.99,696.61 369.24,697.04C369.24,699.86 370.13,702.55 370.57,705.31C366.29,706.06 361.98,706.75 358,708.57C352,711.33 345.08,709.43 339.11,712.26C331.12,711.07 322.99,712.74 315.04,711.07C306.85,711.04 298.49,710.54 290.58,708.23C291.95,704.58 294.13,701.3 295.05,697.47C298.94,697.09 299.63,693.07 301.17,690.22C301.86,690.25 303.26,690.32 303.96,690.35C305.55,688.74 306.89,686.52 309.31,686.12C310.64,686.49 311.94,686.99 313.19,687.63C310.34,689.58 307.97,692.1 305.47,694.46C303.87,696.11 301.31,695.62 299.3,696.38C298.23,698.27 297.21,700.67 298.04,702.83C300.42,705.39 303.06,708.65 306.95,708.41C311.9,708.24 316.84,707.51 321.8,707.74C326.49,708.2 331.2,709.07 335.91,708.53C338.11,708.18 339.81,706.57 341.27,705.01C342.1,704.1 342.92,703.2 343.76,702.32C343.27,701.27 342.79,700.23 342.32,699.19C342.57,695.99 341.44,692.95 341.3,689.79C338.5,687.52 335.56,685.37 333.38,682.47C332.12,680.51 329.68,680.32 327.68,679.63Z" style="fill:white;fill-rule:nonzero;"/>
        <path d="M380.31,699.18C385.44,699.16 390.88,701.93 392.52,707.03C394.08,710.55 395.19,714.24 396.69,717.78C392.8,719.25 388.77,720.85 385.83,723.91C384.01,727.06 381.13,730.06 381.62,734C381.9,737.23 380.31,740.11 379.37,743.09C379.35,745.24 379.75,747.38 379.95,749.53C378.03,749.83 376.22,750.45 374.54,751.42C368.87,753.37 362.61,752.41 356.95,754.42C353.38,755.46 349.62,755.31 345.96,755.1C337.59,755.48 329.31,758.2 320.89,756.7C316,755.68 311.01,755.5 306.04,755.57C295.62,752.85 284.24,751.81 274.94,745.92C271.17,746.13 267.7,744.41 264.73,742.25C263.05,739.86 265.99,737.9 267.17,736.1C271.12,732.07 270.59,726.01 271.27,720.85C272.12,716.45 271.91,711.54 274.73,707.8C275.99,705.76 277.61,703.97 279.2,702.19C282.33,701.96 285.18,700.39 288.35,700.43C287.39,702.03 286.46,703.65 285.61,705.31C284.46,704.77 283.28,704.31 282.09,703.93C281.19,704.9 280.3,705.87 279.41,706.85C279.69,710.6 283.39,712.27 286.47,713.38C290.28,714.33 294.01,715.76 297.97,715.97C302.99,716.11 307.91,717.8 312.94,716.96C318.89,717.73 324.9,718.15 330.9,717.73C334.23,718.08 337.72,718.88 340.96,717.57C346.06,715.24 352,717.5 357.1,715.09C361.15,713.2 365.53,712.33 369.86,711.36C374.58,710.38 378.46,707.41 382.8,705.5C383.21,704.38 383.97,703.32 383.9,702.09C383.4,700.6 381.73,700.29 380.4,700.02C380.38,699.81 380.34,699.39 380.31,699.18M344.02,726.87C337.58,729.26 330.69,728.19 323.98,728.8C318.63,727.76 313.24,728.52 307.85,728.32C306.64,729.62 305.16,730.96 305.13,732.89C305.02,737.5 303.93,742.28 305.1,746.8C309.18,750.29 314.98,749.8 319.91,751.09C326.38,753.05 333.21,752.19 339.83,751.85C344.29,751.98 348.8,751.91 353.16,750.89C356.2,750.36 358.98,748.81 362.08,748.61C364.92,748.34 368.54,747.53 369.49,744.42C370.54,742.35 369.98,740.02 369.83,737.84C369.32,733.92 370.24,729.86 368.83,726.07C367.42,725.11 366.24,723.88 365.01,722.73C358.28,725.34 351.19,726.41 344.02,726.87Z" style="fill:white;fill-rule:nonzero;"/>
        <path d="M408.89,720.55C427.77,717.21 447.35,718.1 465.99,722.5C471.86,724.63 478.45,726.28 482.62,731.29C484.32,734.01 481.73,736.24 479.6,737.57C476.28,739.32 472.88,741.18 469.09,741.66C453.87,745.41 438.02,745.51 422.5,743.89C413.21,742.65 403.83,740.9 395.33,736.78C392.45,735.33 389.6,733.26 388.54,730.07C392.46,722.66 401.88,722.9 408.89,720.55M409.54,722.6C405.7,724.63 401.33,724.97 397.28,726.39C395.34,727.61 393.64,729.37 394.05,731.86C398.58,734.85 403.39,737.63 408.77,738.75C414.17,739.82 419.59,741.01 425.09,741.35C426.83,741.77 427.79,740.19 428.75,739.1C428.33,738.7 427.49,737.91 427.07,737.51C418.24,736.06 409.16,734.56 400.85,731.12C398.74,730.63 400.9,728.98 401.93,729.08C415.73,725.73 430.03,725.76 444.1,726.82C446.21,726.92 448.76,728.39 450.54,726.6C451.67,725.48 451.76,723.54 450.45,722.55C436.96,720.04 423.03,720.35 409.54,722.6M450.27,732.12C449.75,733.42 449.23,734.72 448.69,736.02C449.28,738.86 451.89,741.81 455.06,740.7C457.57,739.84 456.56,736.88 455.97,735.03C459.06,733.74 462.64,732.88 465.63,734.94C465.78,736.82 467.06,739.89 469.46,738.56C473.95,737.16 471.44,731.23 468.71,729.21C462.63,726.05 455.57,728.55 450.27,732.12Z" style="fill:white;fill-rule:nonzero;"/>
        <path d="M354.91,578.14C360.25,577.24 365.7,578.46 371,577.26C376.87,577.59 383.55,576.86 388.61,580.43C393.49,584.75 392.16,591.98 394.4,597.56C400,597.06 405.49,598.45 411.08,598.46C416.3,599.01 421.54,599.92 426.51,601.65C429.33,603.65 432.29,605.68 434.52,608.36C437.04,614.72 440.31,621.08 440.21,628.1C439.89,633.27 443.22,637.81 442.84,642.97C442.84,646.76 445.93,649.23 448.3,651.77C451.25,653.96 455.22,655.63 456.77,659.13C456.34,664.94 450.7,667.78 446.27,670.37C443.41,674.26 444.22,679.44 442.71,683.85C440.74,688.64 440.33,693.87 438.8,698.81C437.59,702.61 437.63,706.82 435.52,710.31C436.18,710.47 437.51,710.77 438.17,710.92C437.88,711.39 437.29,712.34 437,712.81C447.63,713.23 458.28,714.61 468.52,717.59C475.16,718.99 481.88,721.56 486.62,726.6C488.7,729.01 489.04,732.27 488.77,735.32C490.98,740.96 489.43,747.17 488.83,752.99C487.73,758.16 487.01,763.41 486.38,768.66C486.08,771.06 483.38,771.63 481.62,772.66C475.94,775.96 469.16,775.56 462.91,776.81C458.19,778.53 453.11,779.8 448.06,779.05C441.09,778.03 434.02,779.45 427.07,778.36C422.18,777.11 417.17,776.27 412.12,776.49C408.4,775.56 403.87,774.72 401.97,770.96C405.3,766.09 410.64,770.8 414.99,770.79C419.12,770.5 423.18,771.26 427.14,772.38C434.7,773.72 442.43,771.88 449.99,773.27C453.77,774.21 457.4,772.43 460.99,771.5C466.94,769.5 473.55,770.41 479.27,767.62C479.37,766.07 479.48,764.52 479.59,762.99C474.8,764.26 470.4,766.77 465.45,767.43C461.27,768 457.03,767.83 452.85,768.3C447.22,768.8 441.56,770.96 435.96,769.04C432.58,767.68 426.45,770.76 425.35,765.84C426.03,762.43 427.19,759.12 427.65,755.67C430.22,753.29 433.87,753.94 437.05,753.54C441.02,753.13 445,753.74 448.96,754.09C456.19,754.1 462.91,750.98 470.03,750.13C474.62,749.63 478.76,747.39 483.28,746.62C482.96,745.06 483.05,743.53 483.55,742.05C475.02,746.53 465.62,749.04 456.04,749.93C435.52,751.99 414.33,750.59 394.88,743.33C391.73,742.01 388.95,740.01 386.06,738.25C385.64,741.09 385.25,743.96 385.61,746.85C386.04,750.74 385.42,754.72 386.39,758.56C388.83,760.64 393.59,761.19 393.79,764.97C393.19,768.04 389.33,767.22 387.04,767.56C382.56,766.74 378.92,763.78 374.62,762.46C372.21,761.71 370.15,760.27 368.04,758.96C364.12,758.18 360.12,759.47 356.4,760.64C351.72,761.97 346.77,760.26 342.1,761.62C334.28,764.01 325.99,762.66 318,762.06C313.45,760.83 308.73,761.8 304.11,761.27C300.72,760.5 297.48,759.14 294,758.8C286.07,757.72 278.92,753.72 271.01,752.6C266.04,751.4 260.64,752.61 255.98,750.08C252.31,748.46 246.33,747.17 246.55,742.15C248.24,739.42 250.39,736.56 253.56,735.5C255.8,734.69 258.43,733.48 260.53,735.34C266.53,731.17 264.26,723.18 265.9,717.08C266.33,709.37 270.53,702.22 276.76,697.76C281.13,695.6 285.88,694.26 290.78,694.43C291.07,691.21 290.39,687.98 289.17,685.01C287.22,680.35 287.99,674.96 285.49,670.49C280.69,667.97 275.3,664.78 274.47,658.88C276.71,655.89 279.88,653.88 282.99,651.93C285.39,649.41 288.51,646.88 288.57,643.1C288.28,637.91 291.56,633.32 291.25,628.11C291.06,621.21 294.46,615.03 296.75,608.74C298.94,605.69 302.21,603.5 305.32,601.46C311.69,599.54 318.31,598.31 324.97,598.27C328.98,597.73 332.99,597.2 337.05,597.25C339.09,592.15 338.35,586.16 341.51,581.53C344.71,577.44 350.34,578.18 354.91,578.14M357.03,584.15C353.44,584.53 349.84,584.93 346.23,585.03C345.18,589.29 344.56,593.67 343.12,597.84C347.78,596.97 352.38,598.65 357.04,597.95C366.45,597.12 375.89,598.6 385.29,597.74C385.71,594.81 386.39,591.88 385.97,588.92C385.82,587.48 385.8,585.25 383.94,584.99C380.59,584.85 377.28,584.36 373.95,584.14C368.35,584.97 362.63,584.86 357.03,584.15M310.03,606.32C305.31,607.88 301.1,611.48 300.32,616.6C297.81,621.01 297,626.03 296.96,631.05C296.99,634.88 295.05,638.32 294.53,642.02C295.65,648.86 289.77,654.36 284.73,658.01C287.47,658.08 290.21,658.09 292.95,657.96C313.28,658.44 333.63,657.87 353.97,658.17C382.06,657.84 410.2,658.44 438.3,657.96C441.2,658.14 444.12,658.06 447.02,657.75C442.22,655.55 438.77,650.81 436.85,645.97C437.93,640.74 434.5,636.26 434.51,631.12C434.29,626.96 434.2,622.56 432.15,618.83C430.85,616.57 430.5,613.92 429.28,611.65C426.18,607.97 421.59,605.81 416.83,605.43C412.29,604.02 407.52,604.54 402.88,603.83C397.6,603.06 392.29,604.22 386.98,603.93C383.58,603.72 380.23,604.33 376.88,604.78C369.33,604.42 361.76,604.53 354.21,604.75C351.51,604.43 348.84,603.66 346.1,603.85C339.35,604.29 332.57,602.87 325.85,604.15C320.48,604.1 315.25,605.16 310.03,606.32M313.53,663.81C306.81,664.61 300.03,663.07 293.32,664.22C290.82,664.07 288.32,663.97 285.81,663.99C288.17,665.65 290.44,667.57 291.98,670.05C293.34,675.99 293.74,682.14 296.12,687.83C298.31,685.35 300.54,682.09 304.33,682.66C304.51,680.12 304.34,677.58 304.49,675.06C305.15,673.33 306.83,671.4 308.89,672.2C310.6,673.28 310.04,675.58 310.27,677.28C313.61,674.01 317.71,671.52 322.57,671.72C323.42,670.31 324.07,668.12 326.07,668.12C327.06,668.4 328.03,668.73 328.98,669.12C331.43,668.88 334.22,668.01 336.36,669.74C338.62,670.97 340.09,674.35 343.09,673.46C344.64,672.58 346.03,670.73 348.02,671.66C349.97,673.45 349.21,676.32 349.46,678.67C352.07,678.95 354.82,679.22 356.85,681.09C358.18,682.4 360.1,681.45 361.73,681.48C361.9,678.7 360.92,675.27 363.29,673.16C364.51,671.85 366.77,672.19 367.38,673.96C367.59,676.98 367.04,680.01 367.18,683.04C369.48,687.27 372.59,690.86 376.14,694.08C376.57,687.83 376.7,681.21 379.61,675.52C380.53,672.85 385.72,674.15 384.52,677.1C383.2,682.46 381.82,687.89 382.3,693.47C387.06,693.38 391.22,695.64 394.53,698.91C396.18,694.24 397,689.34 398.42,684.6C399.55,680.94 399.05,676.27 402.88,674.12C404.12,675.1 405.99,675.96 405.46,677.92C404.26,687.5 400.66,696.61 398.86,706.07C399.19,708.75 400.68,711.14 401.48,713.71C406.3,713.56 411,712.08 415.85,712.56L416.03,712.4C420.77,712.49 425.09,710.5 429.66,709.59C430.53,708.14 431.23,706.59 431.65,704.97C432.85,698.58 434.32,692.24 435.89,685.94C438.01,681.02 438.2,675.61 439.32,670.44C440.73,667.72 443.23,665.71 445.68,663.93C443.51,663.94 441.35,664.05 439.2,664.26C422.15,663.04 405.06,664.6 387.99,664.23C363.17,664.24 338.32,664.57 313.53,663.81M327.68,679.63C327.3,679.88 326.55,680.4 326.17,680.66C325.58,680.65 324.38,680.64 323.78,680.64C322.55,679.36 321.32,678.06 319.64,677.41C317.99,678.41 316.49,679.61 315.11,680.96C315.45,681.78 316.12,683.41 316.45,684.23C315.96,685 315.47,685.78 314.98,686.57C314.53,686.84 313.64,687.37 313.19,687.63C311.94,686.99 310.64,686.49 309.31,686.12C306.89,686.52 305.55,688.74 303.96,690.35C303.26,690.32 301.86,690.25 301.17,690.22C299.63,693.07 298.94,697.09 295.05,697.47C294.13,701.3 291.95,704.58 290.58,708.23C298.49,710.54 306.85,711.04 315.04,711.07C322.99,712.74 331.12,711.07 339.11,712.26C345.08,709.43 352,711.33 358,708.57C361.98,706.75 366.29,706.06 370.57,705.31C370.13,702.55 369.24,699.86 369.24,697.04C367.99,696.61 366.27,696.54 365.89,694.98C365.52,693.15 366.25,690.85 364.59,689.53C363.41,688.19 361.62,687.82 359.99,687.39C358.72,688.74 357.46,691.68 355.14,690.76C352.6,690.08 353.1,686.97 352.7,684.99C350.47,684.58 349.26,686.52 348,687.95C346.57,687.67 344.66,687.7 344.19,685.96C344.03,684.09 344.66,682.06 343.65,680.36C341.59,678.76 339.2,680.65 336.93,680.4C334.78,678.96 335.33,675.64 332.99,674.26C332.19,674.43 330.58,674.77 329.78,674.94C329.05,676.48 328.36,678.05 327.68,679.63M380.31,699.18C380.34,699.39 380.38,699.81 380.4,700.02C381.73,700.29 383.4,700.6 383.9,702.09C383.97,703.32 383.21,704.38 382.8,705.5C378.46,707.41 374.58,710.38 369.86,711.36C365.53,712.33 361.15,713.2 357.1,715.09C352,717.5 346.06,715.24 340.96,717.57C337.72,718.88 334.23,718.08 330.9,717.73C324.9,718.15 318.89,717.73 312.94,716.96C307.91,717.8 302.99,716.11 297.97,715.97C294.01,715.76 290.28,714.33 286.47,713.38C283.39,712.27 279.69,710.6 279.41,706.85C280.3,705.87 281.19,704.9 282.09,703.93C283.28,704.31 284.46,704.77 285.61,705.31C286.46,703.65 287.39,702.03 288.35,700.43C285.18,700.39 282.33,701.96 279.2,702.19C277.61,703.97 275.99,705.76 274.73,707.8C271.91,711.54 272.12,716.45 271.27,720.85C270.59,726.01 271.12,732.07 267.17,736.1C265.99,737.9 263.05,739.86 264.73,742.25C267.7,744.41 271.17,746.13 274.94,745.92C284.24,751.81 295.62,752.85 306.04,755.57C311.01,755.5 316,755.68 320.89,756.7C329.31,758.2 337.59,755.48 345.96,755.1C349.62,755.31 353.38,755.46 356.95,754.42C362.61,752.41 368.87,753.37 374.54,751.42C376.22,750.45 378.03,749.83 379.95,749.53C379.75,747.38 379.35,745.24 379.37,743.09C380.31,740.11 381.9,737.23 381.62,734C381.13,730.06 384.01,727.06 385.83,723.91C388.77,720.85 392.8,719.25 396.69,717.78C395.19,714.24 394.08,710.55 392.52,707.03C390.88,701.93 385.44,699.16 380.31,699.18M408.89,720.55C401.88,722.9 392.46,722.66 388.54,730.07C389.6,733.26 392.45,735.33 395.33,736.78C403.83,740.9 413.21,742.65 422.5,743.89C438.02,745.51 453.87,745.41 469.09,741.66C472.88,741.18 476.28,739.32 479.6,737.57C481.73,736.24 484.32,734.01 482.62,731.29C478.45,726.28 471.86,724.63 465.99,722.5C447.35,718.1 427.77,717.21 408.89,720.55M462.99,757.28C458.42,758.48 453.82,759.74 449.09,760.11C444.13,759.24 439.04,758.93 434.05,759.74C432.65,759.9 432.63,761.73 431.97,762.71C436.56,763.37 441.23,764.31 445.87,763.45C453,762.08 460.33,762.42 467.46,761.1C471.81,759.94 476.04,758.36 480.48,757.52C480.77,756.01 481.06,754.5 481.37,753.01C475.56,755.55 469.19,756.26 462.99,757.28Z" style="fill-rule:nonzero;"/>
        <path d="M409.54,722.6C423.03,720.35 436.96,720.04 450.45,722.55C451.76,723.54 451.67,725.48 450.54,726.6C448.76,728.39 446.21,726.92 444.1,726.82C430.03,725.76 415.73,725.73 401.93,729.08C400.9,728.98 398.74,730.63 400.85,731.12C409.16,734.56 418.24,736.06 427.07,737.51C427.49,737.91 428.33,738.7 428.75,739.1C427.79,740.19 426.83,741.77 425.09,741.35C419.59,741.01 414.17,739.82 408.77,738.75C403.39,737.63 398.58,734.85 394.05,731.86C393.64,729.37 395.34,727.61 397.28,726.39C401.33,724.97 405.7,724.63 409.54,722.6Z" style="fill-rule:nonzero;"/>
        <path d="M309.83,613.94C314.29,609.17 321.11,609.25 327.01,607.81C333.67,607.97 340.32,608.18 346.99,607.96C357.67,608.69 368.41,607.94 379.06,609.11C384.93,610.67 391.08,609.71 396.99,611.02C403.89,612.3 411.3,610.09 417.93,612.82C415.86,612.27 413.94,613.95 413.41,615.85C413.88,619.59 415.81,623.03 415.93,626.82C415.63,632.59 417.07,638.28 416.77,644.06C416.43,646.04 417.93,647.49 418.94,649C420.19,647.75 422.16,646.86 422.56,644.99C423.21,640.65 422.24,636.3 421.85,631.98C421.54,628.58 422.03,625.12 421.21,621.78C420.53,619 419.74,616.25 419.3,613.42C422.09,614.83 426.17,616.16 426.08,620C426.54,628.15 427.99,636.32 431.25,643.84C433.95,648.38 435.27,653.59 438.3,657.96C410.2,658.44 382.06,657.84 353.97,658.17C333.63,657.87 313.28,658.44 292.95,657.96C294.35,652.36 301.2,649.96 301.35,643.9C301.75,637.87 301.16,631.69 302.88,625.81C304.61,621.54 306.06,616.9 309.83,613.94M312.69,613.76C310.83,618.57 309.38,623.71 309.66,628.92C309.83,633.98 308.36,638.95 308.67,644.01C308.68,646.15 310.51,647.5 311.92,648.83C313.24,647.91 314.96,646.97 314.6,645.06C314.38,640.34 315.06,635.69 315.57,631.03C314.85,625.8 316.72,620.79 318.39,615.94C317.37,614.02 314.66,611.23 312.69,613.76M329.58,616.36C329.24,621.66 326.68,626.69 327.49,632.07C328.15,637.12 326.13,642.05 326.68,647.1C327.14,648.78 328.72,649.72 329.92,650.85C330.82,649.94 332.62,649.5 332.4,647.92C332.17,642.57 333.73,637.35 333.34,632.02C333.13,626.57 335.06,621.36 335.49,615.97C335.3,612.07 329.57,612.79 329.58,616.36M396.36,615.05C395.69,620.73 398.48,626.22 398.21,631.9C397.89,636.97 398.92,641.97 399.03,647.02C398.9,648.57 399.88,649.75 400.79,650.89C402.13,650 404,649.42 404.52,647.71C405.58,642.84 403.49,637.97 403.9,633.1C405.1,627.26 402.19,621.7 401.78,615.93C401.8,613.12 396.89,612.14 396.36,615.05M347.64,616.91C347.42,623.96 345.31,630.86 345.77,637.95C345.97,641.71 345.41,645.66 346.75,649.26C347.37,651.57 351.24,651.01 351.72,648.89C352.82,643.98 351.1,639 351.55,634.05C352.24,628.34 353.5,622.67 353.45,616.91C352.87,615.21 351.15,614.33 349.92,613.18C348.9,614.22 347.39,615.22 347.64,616.91M363.34,615.99C363.13,621.99 363.01,628.02 363.57,634.02C364.03,638.68 362.97,643.33 363.4,647.99C363.39,649.44 365.12,649.77 365.98,650.61C366.88,650.05 367.74,649.42 368.54,648.73C369.13,642.49 369.79,636.18 368.85,629.95C368.16,625.34 368.88,620.69 368.58,616.08C368.14,613.56 363.52,613.27 363.34,615.99M378.17,617C378.01,622 378.83,626.97 379.62,631.9C380.62,637.56 378.75,643.3 379.67,648.98C380.33,650.73 382.29,650.51 383.8,650.81C384.56,649.29 385.62,647.78 385.45,645.99C385.49,639.65 386.12,633.26 384.96,626.98C384.2,622.92 384.08,618.78 383.42,614.72C381.62,612.4 378.36,614.66 378.17,617Z" style="fill:rgb(236,28,52);fill-rule:nonzero;"/>
        <path d="M313.53,663.81C338.32,664.57 363.17,664.24 387.99,664.23C405.06,664.6 422.15,663.04 439.2,664.26C433.15,673.38 429.37,683.74 425.98,694.07C424.72,697.8 424.93,701.91 423.31,705.53C421.35,708.26 418.39,710.05 416.03,712.4L415.85,712.56C411,712.08 406.3,713.56 401.48,713.71C400.68,711.14 399.19,708.75 398.86,706.07C400.66,696.61 404.26,687.5 405.46,677.92C405.99,675.96 404.12,675.1 402.88,674.12C399.05,676.27 399.55,680.94 398.42,684.6C397,689.34 396.18,694.24 394.53,698.91C391.22,695.64 387.06,693.38 382.3,693.47C381.82,687.89 383.2,682.46 384.52,677.1C385.72,674.15 380.53,672.85 379.61,675.52C376.7,681.21 376.57,687.83 376.14,694.08C372.59,690.86 369.48,687.27 367.18,683.04C367.04,680.01 367.59,676.98 367.38,673.96C366.77,672.19 364.51,671.85 363.29,673.16C360.92,675.27 361.9,678.7 361.73,681.48C360.1,681.45 358.18,682.4 356.85,681.09C354.82,679.22 352.07,678.95 349.46,678.67C349.21,676.32 349.97,673.45 348.02,671.66C346.03,670.73 344.64,672.58 343.09,673.46C340.09,674.35 338.62,670.97 336.36,669.74C334.22,668.01 331.43,668.88 328.98,669.12C328.03,668.73 327.06,668.4 326.07,668.12C324.07,668.12 323.42,670.31 322.57,671.72C317.71,671.52 313.61,674.01 310.27,677.28C310.04,675.58 310.6,673.28 308.89,672.2C306.83,671.4 305.15,673.33 304.49,675.06C304.34,677.58 304.51,680.12 304.33,682.66C301.68,682.5 298.31,681.59 297.78,678.56C297.04,675.18 294.5,672.5 294.08,669.04C293.79,667.43 293.57,665.82 293.32,664.22C300.03,663.07 306.81,664.61 313.53,663.81M420.99,673.82C417.18,677.94 418.2,684 415.94,688.85C413.23,694.22 412.63,700.27 411.53,706.1C411.68,708.61 415.64,708.51 416.65,706.61C418.58,703.46 418.24,699.51 419.44,696.08C421.53,689.87 424.27,683.68 424.44,677.04C424.61,674.97 422.53,674.29 420.99,673.82Z" style="fill:rgb(236,28,52);fill-rule:nonzero;"/>
        <g transform="matrix(-7.932615,-0.169437,-0.219793,10.290131,3048.335527,-2193.436066)">
            <path d="M327.088,282.228C328.086,284.713 332.035,284.724 333.088,282.182" style="fill:none;stroke:white;stroke-width:0.65px;"/>
        </g>
        <path d="M326.17,680.66C326.55,680.4 327.3,679.88 327.68,679.63C329.68,680.32 332.12,680.51 333.38,682.47C335.56,685.37 338.5,687.52 341.3,689.79C341.44,692.95 342.57,695.99 342.32,699.19C339.74,699.56 337.92,701.37 338.49,704.07C339.19,704.31 340.58,704.77 341.27,705.01C339.81,706.57 338.11,708.18 335.91,708.53C331.2,709.07 326.49,708.2 321.8,707.74C316.84,707.51 311.9,708.24 306.95,708.41C303.06,708.65 300.42,705.39 298.04,702.83C297.21,700.67 298.23,698.27 299.3,696.38C301.31,695.62 303.87,696.11 305.47,694.46C307.97,692.1 310.34,689.58 313.19,687.63C313.64,687.37 314.53,686.84 314.98,686.57C318.09,684.86 320.98,682.8 323.78,680.64C324.38,680.64 325.58,680.65 326.17,680.66M325.01,688.92C323.49,690.28 322.14,692.18 319.88,692.16C316.25,692.39 312.52,694.57 311.32,698.11C310.62,700.25 312.17,701.88 314.01,702.66C315.72,700.94 317.2,698.83 319.54,697.93C320.59,698.95 321.74,699.87 322.96,700.7C323.7,699.87 324.44,699.04 325.18,698.22C325.5,697.19 325.87,696.2 326.29,695.22C328.29,694.75 330.32,694.37 332.21,693.54C334.45,694.71 334.88,697.51 336.97,698.87C338.18,697.73 340.06,696.93 340.29,695.08C339.91,692.77 338.89,690.46 336.81,689.2C333.44,686.3 328.84,688.14 325.01,688.92Z" style="fill:rgb(236,28,52);fill-rule:nonzero;"/>
        <path d="M355.14,731.55C357.88,731.45 360.71,729.57 363.35,730.42C363.7,733.2 363.8,736.04 363.74,738.86C362.85,740.07 362.02,741.34 361.19,742.61C356.46,743.79 351.81,745.34 346.99,746.12C339.02,744.88 330.9,747.65 322.95,745.71C318.86,744.68 314.63,744.39 310.57,743.23C310.35,740.31 310.56,737.39 310.98,734.51C314,734.36 317.03,733.94 320.05,734.26C326.35,735.07 332.71,734.37 339.03,734.22C344.28,732.7 349.68,731.9 355.14,731.55Z" style="fill:rgb(236,28,52);fill-rule:nonzero;"/>
        <path d="M315.11,680.96C316.49,679.61 317.99,678.41 319.64,677.41C321.32,678.06 322.55,679.36 323.78,680.64C320.98,682.8 318.09,684.86 314.98,686.57C315.47,685.78 315.96,685 316.45,684.23C316.12,683.41 315.45,681.78 315.11,680.96Z" style="fill:rgb(254,254,254);fill-rule:nonzero;"/>
        <path d="M361.19,742.61C362.02,741.34 362.85,740.07 363.74,738.86C365.54,740.45 363.42,744.39 361.19,742.61Z" style="fill:rgb(255,0,0);fill-rule:nonzero;"/>
        <path d="M344.02,726.87C351.19,726.41 358.28,725.34 365.01,722.73C366.24,723.88 367.42,725.11 368.83,726.07C370.24,729.86 369.32,733.92 369.83,737.84C369.98,740.02 370.54,742.35 369.49,744.42C368.54,747.53 364.92,748.34 362.08,748.61C358.98,748.81 356.2,750.36 353.16,750.89C348.8,751.91 344.29,751.98 339.83,751.85C333.21,752.19 326.38,753.05 319.91,751.09C314.98,749.8 309.18,750.29 305.1,746.8C303.93,742.28 305.02,737.5 305.13,732.89C305.16,730.96 306.64,729.62 307.85,728.32C313.24,728.52 318.63,727.76 323.98,728.8C330.69,728.19 337.58,729.26 344.02,726.87M355.14,731.55C349.68,731.9 344.28,732.7 339.03,734.22C332.71,734.37 326.35,735.07 320.05,734.26C317.03,733.94 314,734.36 310.98,734.51C310.56,737.39 310.35,740.31 310.57,743.23C314.63,744.39 318.86,744.68 322.95,745.71C330.9,747.65 339.02,744.88 346.99,746.12C351.81,745.34 356.46,743.79 361.19,742.61C363.42,744.39 365.54,740.45 363.74,738.86C363.8,736.04 363.7,733.2 363.35,730.42C360.71,729.57 357.88,731.45 355.14,731.55Z" style="fill:rgb(1,0,0);fill-rule:nonzero;"/>
        <path d="M413.41,615.85C413.94,613.95 415.86,612.27 417.93,612.82C418.27,612.97 418.96,613.27 419.3,613.42C419.74,616.25 420.53,619 421.21,621.78C422.03,625.12 421.54,628.58 421.85,631.98C422.24,636.3 423.21,640.65 422.56,644.99C422.16,646.86 420.19,647.75 418.94,649C417.93,647.49 416.43,646.04 416.77,644.06C417.07,638.28 415.63,632.59 415.93,626.82C415.81,623.03 413.88,619.59 413.41,615.85Z" style="fill:rgb(1,1,1);fill-rule:nonzero;"/>
        <path d="M450.27,732.12C455.57,728.55 462.63,726.05 468.71,729.21C471.44,731.23 473.95,737.16 469.46,738.56C467.06,739.89 465.78,736.82 465.63,734.94C462.64,732.88 459.06,733.74 455.97,735.03C456.56,736.88 457.57,739.84 455.06,740.7C451.89,741.81 449.28,738.86 448.69,736.02C449.23,734.72 449.75,733.42 450.27,732.12Z" style="fill:rgb(1,1,1);fill-rule:nonzero;"/>
        <path d="M394.4,769.12C394.24,767.37 395.73,766.06 396.94,765.05C399.15,764.73 400.76,766.38 401.88,768.06C400.94,769.19 400.28,770.62 399.03,771.47C397.15,771.69 395.42,770.64 394.4,769.12Z" style="fill:rgb(1,1,1);fill-rule:nonzero;"/>
        <path d="M396.36,615.05C396.89,612.14 401.8,613.12 401.78,615.93C402.19,621.7 405.1,627.26 403.9,633.1C403.49,637.97 405.58,642.84 404.52,647.71C404,649.42 402.13,650 400.79,650.89C399.88,649.75 398.9,648.57 399.03,647.02C398.92,641.97 397.89,636.97 398.21,631.9C398.48,626.22 395.69,620.73 396.36,615.05Z" style="fill:rgb(2,1,1);fill-rule:nonzero;"/>
        <path d="M420.99,673.82C422.53,674.29 424.61,674.97 424.44,677.04C424.27,683.68 421.53,689.87 419.44,696.08C418.24,699.51 418.58,703.46 416.65,706.61C415.64,708.51 411.68,708.61 411.53,706.1C412.63,700.27 413.23,694.22 415.94,688.85C418.2,684 417.18,677.94 420.99,673.82Z" style="fill:rgb(2,1,1);fill-rule:nonzero;"/>
        <path d="M325.01,688.92C328.84,688.14 333.44,686.3 336.81,689.2C338.89,690.46 339.91,692.77 340.29,695.08C340.06,696.93 338.18,697.73 336.97,698.87C334.88,697.51 334.45,694.71 332.21,693.54C330.32,694.37 328.29,694.75 326.29,695.22C325.87,696.2 325.5,697.19 325.18,698.22C324.44,699.04 323.7,699.87 322.96,700.7C321.74,699.87 320.59,698.95 319.54,697.93C317.2,698.83 315.72,700.94 314.01,702.66C312.17,701.88 310.62,700.25 311.32,698.11C312.52,694.57 316.25,692.39 319.88,692.16C322.14,692.18 323.49,690.28 325.01,688.92Z" style="fill:rgb(2,1,1);fill-rule:nonzero;"/>
        <path d="M312.69,613.76C314.66,611.23 317.37,614.02 318.39,615.94C316.72,620.79 314.85,625.8 315.57,631.03C315.06,635.69 314.38,640.34 314.6,645.06C314.96,646.97 313.24,647.91 311.92,648.83C310.51,647.5 308.68,646.15 308.67,644.01C308.36,638.95 309.83,633.98 309.66,628.92C309.38,623.71 310.83,618.57 312.69,613.76Z" style="fill:rgb(1,0,1);fill-rule:nonzero;"/>
        <path d="M347.64,616.91C347.39,615.22 348.9,614.22 349.92,613.18C351.15,614.33 352.87,615.21 353.45,616.91C353.5,622.67 352.24,628.34 351.55,634.05C351.1,639 352.82,643.98 351.72,648.89C351.24,651.01 347.37,651.57 346.75,649.26C345.41,645.66 345.97,641.71 345.77,637.95C345.31,630.86 347.42,623.96 347.64,616.91Z" style="fill:rgb(1,0,1);fill-rule:nonzero;"/>
        <path d="M378.17,617C378.36,614.66 381.62,612.4 383.42,614.72C384.08,618.78 384.2,622.92 384.96,626.98C386.12,633.26 385.49,639.65 385.45,645.99C385.62,647.78 384.56,649.29 383.8,650.81C382.29,650.51 380.33,650.73 379.67,648.98C378.75,643.3 380.62,637.56 379.62,631.9C378.83,626.97 378.01,622 378.17,617Z" style="fill:rgb(1,0,1);fill-rule:nonzero;"/>
        <path d="M329.58,616.36C329.57,612.79 335.3,612.07 335.49,615.97C335.06,621.36 333.13,626.57 333.34,632.02C333.73,637.35 332.17,642.57 332.4,647.92C332.62,649.5 330.82,649.94 329.92,650.85C328.72,649.72 327.14,648.78 326.68,647.1C326.13,642.05 328.15,637.12 327.49,632.07C326.68,626.69 329.24,621.66 329.58,616.36Z" style="fill:rgb(2,0,1);fill-rule:nonzero;"/>
        <path d="M363.34,615.99C363.52,613.27 368.14,613.56 368.58,616.08C368.88,620.69 368.16,625.34 368.85,629.95C369.79,636.18 369.13,642.49 368.54,648.73C367.74,649.42 366.88,650.05 365.98,650.61C365.12,649.77 363.39,649.44 363.4,647.99C362.97,643.33 364.03,638.68 363.57,634.02C363.01,628.02 363.13,621.99 363.34,615.99Z" style="fill:rgb(2,0,1);fill-rule:nonzero;"/>
        <path d="M285.81,663.99C288.32,663.97 290.82,664.07 293.32,664.22C293.57,665.82 293.79,667.43 294.08,669.04C294.5,672.5 297.04,675.18 297.78,678.56C298.31,681.59 301.68,682.5 304.33,682.66C300.54,682.09 298.31,685.35 296.12,687.83C293.74,682.14 293.34,675.99 291.98,670.05C290.44,667.57 288.17,665.65 285.81,663.99Z" style="fill:rgb(254,253,254);fill-rule:nonzero;"/>
        <path d="M338.49,704.07C337.92,701.37 339.74,699.56 342.32,699.19C342.79,700.23 343.27,701.27 343.76,702.32C342.92,703.2 342.1,704.1 341.27,705.01C340.58,704.77 339.19,704.31 338.49,704.07Z" style="fill:rgb(8,2,3);fill-rule:nonzero;"/>
        <path d="M462.99,757.28C469.19,756.26 475.56,755.55 481.37,753.01C481.06,754.5 480.77,756.01 480.48,757.52C476.04,758.36 471.81,759.94 467.46,761.1C460.33,762.42 453,762.08 445.87,763.45C441.23,764.31 436.56,763.37 431.97,762.71C432.63,761.73 432.65,759.9 434.05,759.74C439.04,758.93 444.13,759.24 449.09,760.11C453.82,759.74 458.42,758.48 462.99,757.28Z" style="fill:rgb(234,29,53);fill-rule:nonzero;"/>
    </g>
</svg>
