<?xml version="1.0" encoding="UTF-8" standalone="no"?>
<!DOCTYPE svg PUBLIC "-//W3C//DTD SVG 1.1//EN" "http://www.w3.org/Graphics/SVG/1.1/DTD/svg11.dtd">
<svg width="100%" height="100%" viewBox="0 0 233 199" version="1.1" xmlns="http://www.w3.org/2000/svg" xmlns:xlink="http://www.w3.org/1999/xlink" xml:space="preserve" xmlns:serif="http://www.serif.com/" style="fill-rule:evenodd;clip-rule:evenodd;stroke-miterlimit:1.5;">
    <g transform="matrix(1,0,0,1,-235.86,-798.879763)">
        <g transform="matrix(1,0,0,1,-0.68,9.242842)">
            <path d="M385.16,801.22C386.84,798.35 389.95,796.81 392.96,795.74C396.11,794.85 398.72,797.12 400.5,799.43C401.89,802.32 402.5,805.52 403.22,808.64C401.79,809.83 400.73,811.36 399.79,812.95C402.66,817.71 408.63,813.25 412.78,815.17C415.19,816.33 418.08,817.97 418.37,820.95C417.77,825.08 413.25,826.06 410.03,827.44C406.69,828.91 403.05,829.27 399.47,829.63C396.19,831.31 392.44,830.47 388.93,831.06C384.27,831.86 379.59,830.75 374.93,831.3C370.84,831.71 366.93,829.63 362.83,830.18C358.28,830.51 352.8,829.57 350.58,825.06C351.9,823.22 353.07,821.15 354.98,819.84C357.73,820.53 360.25,822.72 363.23,821.66C363.71,820.45 364.21,819.26 364.73,818.08C363.61,816.14 361.85,814.75 360.42,813.08C360.28,809.58 361.93,806.11 364.34,803.64C368.08,802.35 372.39,802.12 376.14,803.52C378.75,805.1 376.17,808.92 378.99,810.37C380.47,810.53 382.24,810.34 382.95,808.82C384.17,806.43 383.37,803.36 385.16,801.22Z" style="fill:white;fill-rule:nonzero;"/>
        </g>
        <g transform="matrix(1,0,0,1,-0.68,9.242842)">
            <path d="M411.58,858.04C415.82,857.88 419.6,855.52 423.81,855.47C424.25,857.51 424.73,859.56 425.06,861.64C420.58,862.19 416.04,862.5 411.71,863.88C411.74,861.92 411.67,859.98 411.58,858.04Z" style="fill:white;fill-rule:nonzero;"/>
        </g>
        <g transform="matrix(1,0,0,1,-0.68,9.242842)">
            <path d="M329.24,861.49C335.14,861.58 341.07,861.56 346.92,862.47C356.9,863.89 366.97,862.47 377,862.8C381.1,862.75 385.1,861.63 389.2,861.5C388.93,863.21 388.58,865.01 389.2,866.72C390.77,873.13 393.15,879.62 392.03,886.32C387.86,885.86 383.76,886.61 379.9,888.19C370.99,890.04 361.97,893.11 355,899.17C352.22,901.64 348.55,903.25 346.64,906.58C339.92,916.98 336.32,929.64 337.65,942.03C337.69,943.25 337.29,944.35 336.46,945.33C338.07,950.48 340.11,955.49 343.32,959.89C341.5,959.72 339.68,959.53 337.88,959.32C339,954.5 337.38,949.69 335.87,945.16C336.12,944.61 336.64,943.5 336.89,942.94C333.95,929.31 333.19,915.3 332.07,901.43C332.51,899.21 332.91,896.99 333.23,894.76C332.73,894.05 332.24,893.36 331.76,892.68C331.68,885.91 331.01,879.14 329.71,872.5C329.26,868.85 329.53,865.15 329.24,861.49Z" style="fill:white;fill-rule:nonzero;"/>
        </g>
        <g transform="matrix(1,0,0,1,-0.68,9.242842)">
            <path d="M408.09,871.09C419.4,867.51 431.33,866.94 443.05,865.86C446.08,865.73 451.37,865.73 450.99,870.09C448.36,873.52 443.58,873.06 439.85,874.35C434.28,874.5 428.72,874.99 423.14,875.25C418.51,876.08 413.71,876.09 409.19,874.72C407.54,874.18 408.21,872.36 408.09,871.09Z" style="fill:white;fill-rule:nonzero;"/>
        </g>
        <g transform="matrix(1,0,0,1,-0.68,9.242842)">
            <path d="M428.13,881.15C436.36,880.46 444.74,880.24 452.52,877.1C453.06,881.72 453.25,886.5 452.13,891.05C444.51,891.43 437.54,895.2 429.87,895.3C427.27,895.65 423.47,894.11 422.25,897.39C418.04,893.03 412.02,891.8 406.82,889.06C407.54,886.21 405.88,883.48 406.18,880.6C413.35,882.83 420.83,881.15 428.13,881.15Z" style="fill:white;fill-rule:nonzero;"/>
        </g>
        <g transform="matrix(1,0,0,1,-0.68,9.242842)">
            <path d="M405.14,894.77C408.84,897.26 413.5,897.87 416.92,900.8C420.71,904 426.33,905.72 427.36,911.22C424.94,917.06 423.58,923.31 422.57,929.53C419.27,931.72 415,932.74 412.51,935.97C404.83,933.77 397.66,930.17 389.99,927.93C389.3,924.93 388.57,921.95 387.82,918.97C389.89,913.11 390.53,906.88 392.43,900.99C392.95,899.09 395.58,899.55 397.04,898.86C399.81,897.68 404.93,898.98 405.14,894.77Z" style="fill:white;fill-rule:nonzero;"/>
        </g>
        <g transform="matrix(1,0,0,1,-0.68,9.242842)">
            <path d="M428.83,901.44C436.53,901.07 443.78,898.44 451.22,896.79C451.71,899.94 451.97,903.14 451.64,906.33C444.63,910.04 442.52,918.85 441.46,926.11C441.66,919.66 436.5,914.9 433.29,909.79C431.84,906.98 430.55,904.09 428.83,901.44Z" style="fill:white;fill-rule:nonzero;"/>
        </g>
        <g transform="matrix(1,0,0,1,-0.68,9.242842)">
            <path d="M342.92,936.35C342.82,926.69 346.81,917.63 351.49,909.4C352.12,911.91 353.02,914.38 353.39,916.97C352.5,920.19 351.96,923.55 350.54,926.61C348.86,929.61 346.62,932.84 347.37,936.48C345.88,936.42 344.4,936.38 342.92,936.35Z" style="fill:white;fill-rule:nonzero;"/>
        </g>
        <g transform="matrix(1,0,0,1,-0.68,9.242842)">
            <path d="M358.15,921.66C363.48,921.63 368.83,921.96 374.1,920.86C376.89,920.59 381.09,919.1 382.65,922.39C383.56,925.2 384.05,928.15 384.98,930.97C383.84,934.01 382.49,936.99 380.53,939.62C378.61,942.16 377.68,945.3 375.72,947.82C371.17,950.44 365.82,950.26 360.88,951.54C358.74,947.13 354.02,944.66 352.05,940.16C351.45,938.59 349.56,938.4 348.27,937.68C349.55,937.22 351.31,937.38 352.1,936.09C354.34,931.36 356.89,926.78 358.15,921.66Z" style="fill:white;fill-rule:nonzero;"/>
        </g>
        <g transform="matrix(1,0,0,1,-0.68,9.242842)">
            <path d="M442.59,931.21C442.78,931.47 443.17,931.99 443.37,932.25C444.21,936.99 448.56,940.37 452.36,942.93C451.5,946.94 452.06,951 451.94,955.04C450.35,958.43 445.88,958.03 443.4,960.48C441.11,960.42 438.81,960.56 436.56,961C438.2,956.06 440.17,951.16 440.5,945.9C441.42,941.03 442.39,936.17 442.59,931.21Z" style="fill:white;fill-rule:nonzero;"/>
        </g>
        <g transform="matrix(1,0,0,1,-0.68,9.242842)">
            <path d="M417.13,939.03C420.39,937.6 423.4,935.52 426.92,934.72C430.15,935.63 433.12,937.24 436.03,938.9C434.69,943.9 435.11,949.24 433.02,954.06C432,958.52 429.75,962.47 426.76,965.9C423.3,963.23 417.62,963.56 415.9,958.97C417.82,952.55 418.53,945.63 417.13,939.03Z" style="fill:white;fill-rule:nonzero;"/>
        </g>
        <g transform="matrix(1,0,0,1,-0.68,9.242842)">
            <path d="M360.51,958.17C365.22,956.57 370.29,956.3 374.93,954.44C378.43,958.52 383.68,961.03 386.01,966.06C387.01,967.96 389.19,968.71 390.78,970.02C388.74,972.7 387.19,975.73 385.06,978.35C380.35,977.47 375.35,977.54 370.96,975.41C366.06,973.43 361.93,970.12 358.06,966.6C358.88,963.79 359.72,960.98 360.51,958.17Z" style="fill:white;fill-rule:nonzero;"/>
        </g>
        <g transform="matrix(1,0,0,1,-0.68,9.242842)">
            <path d="M413.5,966.23C416.23,967.78 419.13,968.98 422.02,970.21C418.41,972.96 413.97,974.12 410.01,976.24C404.38,978.9 398.1,978.06 392.09,978.19C393.46,975.87 396.58,974.8 396.82,971.87C401.99,968.75 408.95,970.72 413.5,966.23Z" style="fill:white;fill-rule:nonzero;"/>
        </g>
        <g transform="matrix(1,0,0,1,-0.68,9.242842)">
            <path d="M380.22,798.72C382.86,793.32 388.9,789.38 395.01,789.65C399.47,789.55 403.24,792.82 405.68,796.26C407.26,800.32 408.46,804.57 409.08,808.89C414.1,807.86 418.41,811.19 422.12,814.08C422.93,815.9 423.68,817.76 424.35,819.66C423.09,823.51 422.13,828.13 418.29,830.29C415.33,831.84 412.1,832.8 409.03,834.12C405.19,835.91 400.82,834.99 396.89,836.45C391.29,836.66 385.69,837.87 380.07,837.22C376.71,836.67 373.32,838.06 370.02,836.97C364.73,835.3 358.98,837.49 353.89,834.94C349.16,833.7 344.01,829.35 345.36,823.97C346.98,819.55 349.88,815.15 354.65,813.79C354.46,807.54 357.74,801.29 362.87,797.74C368.52,796.22 374.93,795.78 380.22,798.72M385.16,801.22C383.37,803.36 384.17,806.43 382.95,808.82C382.24,810.34 380.47,810.53 378.99,810.37C376.17,808.92 378.75,805.1 376.14,803.52C372.39,802.12 368.08,802.35 364.34,803.64C361.93,806.11 360.28,809.58 360.42,813.08C361.85,814.75 363.61,816.14 364.73,818.08C364.21,819.26 363.71,820.45 363.23,821.66C360.25,822.72 357.73,820.53 354.98,819.84C353.07,821.15 351.9,823.22 350.58,825.06C352.8,829.57 358.28,830.51 362.83,830.18C366.93,829.63 370.84,831.71 374.93,831.3C379.59,830.75 384.27,831.86 388.93,831.06C392.44,830.47 396.19,831.31 399.47,829.63C403.05,829.27 406.69,828.91 410.03,827.44C413.25,826.06 417.77,825.08 418.37,820.95C418.08,817.97 415.19,816.33 412.78,815.17C408.63,813.25 402.66,817.71 399.79,812.95C400.73,811.36 401.79,809.83 403.22,808.64C402.5,805.52 401.89,802.32 400.5,799.43C398.72,797.12 396.11,794.85 392.96,795.74C389.95,796.81 386.84,798.35 385.16,801.22Z" style="fill-rule:nonzero;"/>
        </g>
        <g transform="matrix(1,0,0,1,-0.68,9.242842)">
            <path d="M297.44,818.11C298.85,814.42 301.14,810.89 305.11,809.64C307.42,808.94 309.16,811.06 311.17,811.81C314.08,812.91 316.36,815.28 317.76,818.02C318.71,821.52 316.04,824.54 313.95,827.03C311.64,830.19 306.48,831.29 303.44,828.6C301.74,827.31 299.95,826.12 298.49,824.57C296.77,822.84 297.59,820.26 297.44,818.11M303.15,820.59C304.92,821.78 306.36,824.64 308.84,823.92C310.22,822.68 312.58,821.5 311.88,819.28C310.1,817.64 307.76,816.81 305.85,815.36C303.98,816.53 303.1,818.41 303.15,820.59Z" style="fill-rule:nonzero;"/>
        </g>
        <g transform="matrix(1,0,0,1,-0.68,9.242842)">
            <path d="M420.02,850.02C422.48,849.73 425.36,847.61 427.6,849.28C428.96,853.1 430.2,856.98 431.09,860.95C437.71,860.07 444.52,859.24 451.09,860.86C454.82,862.12 456.21,865.86 457.8,869.06C457.97,877.22 459.61,885.72 456.61,893.58C457.27,899 457.8,904.52 457.49,910.02C457.21,913.69 459.28,917.26 458.13,920.9C457.73,922.27 458.19,923.71 458.36,925.11C459.7,934.06 457.15,942.97 457.65,951.94C457.88,954.3 457.19,956.59 456.59,958.86C460.47,959.28 464.28,960.11 468.12,960.8C470.2,962.06 469.18,964.71 468.39,966.46C465.69,967.16 462.85,967.02 460.16,967.77C454.4,969.34 448.36,969.23 442.52,970.39C438.07,970.69 433.68,971.75 429.21,971.61C429.18,971.83 429.13,972.26 429.11,972.48C432.33,972.83 436.03,972.06 438.85,974.04C441.55,977.58 438.08,982.48 434.17,982.86C431.49,983.14 428.79,983.34 426.22,984.17C422.23,985.43 417.99,984.52 413.94,985.42C405.72,987.11 397.27,986.66 389.01,987.92C387.33,987.45 386.32,985.78 386.46,984.09C384.62,984.13 382.75,984.35 380.96,983.82C377,982.7 372.61,983.37 369.02,981.04C365.13,978.56 360.32,977.3 357.34,973.6C354.3,973.42 351.27,973.04 348.22,973.05C348.2,975.34 348.28,977.87 346.92,979.86C345.48,980.76 343.81,980.35 342.85,979.01C342.52,976.48 342.55,973.94 342.45,971.42C336.67,971.61 330.97,970.23 325.49,968.51C325.13,970.57 324.92,972.66 324.6,974.75C323.02,975.15 321.27,975.34 320.29,973.75C319.59,971.33 319.71,968.79 319.66,966.31C316.06,966.62 312.46,967 308.85,966.99C306.45,967.14 304.98,964.94 303.14,963.78C301.54,964.73 299.65,965.02 297.98,964.07C293.51,962.05 288.63,960.99 284.39,958.54C278.57,961.4 273.36,955.36 267.5,956.25C268.26,958.73 268.24,961.47 266.89,963.76C265.5,964.79 264.07,963.97 262.83,963.22C262.51,960.23 261.71,957.34 260.81,954.49C255.91,952.49 250.07,952.4 245.86,948.98C246.08,947.52 245.94,945.95 246.82,944.71C249.97,944.06 253.28,944.31 256.3,943.04C255.59,940.16 256.82,937.32 257.51,934.57C258.14,934.42 259.4,934.11 260.03,933.95C263.04,935.88 261.96,939.55 261.95,942.55C264.33,942.6 266.74,942.76 269.03,941.96C273.64,924.16 278.64,906.46 284.14,888.92C285.45,881.61 287.83,874.52 288.54,867.12C288.94,864.07 290.03,861.17 290.51,858.14C287.8,857.67 284.85,857.89 282.39,856.53C280.49,855.42 281.73,853.08 282.01,851.49C287.32,851.35 292.6,852.59 297.94,852.12C309.05,852.39 320.01,854.3 331.05,855.5C340.06,855.24 348.96,856.95 357.95,857.21C364.65,856.94 371.36,856.38 378.06,856.92C383.86,855.98 389.83,856.06 395.51,854.39C403.57,852.31 412.14,852.88 420.02,850.02M411.58,858.04C411.67,859.98 411.74,861.92 411.71,863.88C416.04,862.5 420.58,862.19 425.06,861.64C424.73,859.56 424.25,857.51 423.81,855.47C419.6,855.52 415.82,857.88 411.58,858.04M302.06,858.27C301.77,864.56 302.86,870.78 303.02,877.06C303.45,880.72 304.39,884.31 304.06,888.03C305.52,897.8 304.52,907.71 305.31,917.53C306.56,927.52 306.54,937.66 308.46,947.57C309.3,951.99 310.95,956.37 310.48,960.95C312.7,960.96 314.92,960.89 317.12,960.54C317.75,960.53 319,960.5 319.63,960.49C320.52,957.95 320.27,953.1 324.14,953.46C327.74,954.42 323.59,960.91 328.32,959.84C328.85,959.79 329.91,959.7 330.44,959.65L330.84,959.08C333.18,959.12 335.53,959.16 337.88,959.32C339.68,959.53 341.5,959.72 343.32,959.89C340.11,955.49 338.07,950.48 336.46,945.33C337.29,944.35 337.69,943.25 337.65,942.03C336.32,929.64 339.92,916.98 346.64,906.58C348.55,903.25 352.22,901.64 355,899.17C361.97,893.11 370.99,890.04 379.9,888.19C383.76,886.61 387.86,885.86 392.03,886.32C395.03,886.56 398.07,886.68 401,887.44C400.62,882.95 400.74,878.43 400.83,873.93C400.93,871.31 403.89,869.73 403.43,866.96C405.79,865.76 408.37,863.63 411.17,864.65C411.12,862.46 411.15,860.27 411.19,858.09C407.17,858.84 403.09,859.11 399.06,859.69C395.79,860.37 392.54,861.22 389.2,861.5C385.1,861.63 381.1,862.75 377,862.8C366.97,862.47 356.9,863.89 346.92,862.47C341.07,861.56 335.14,861.58 329.24,861.49C323.49,860.56 317.65,860.27 311.94,859.04C310.12,858.63 308.25,858.67 306.41,858.72C304.95,858.59 303.51,858.42 302.06,858.27M292.43,876.87C291.5,880.91 290.62,884.96 289.91,889.06C287.33,897.55 284.51,905.98 282.27,914.57C280.08,922.76 277.18,930.76 275.6,939.1C274.57,942.84 273.15,946.47 272.11,950.22C274.58,951.14 277.06,952.03 279.52,952.97C280.74,947.99 281.36,942.88 282.93,937.99C284.41,932.94 284.97,927.66 286.56,922.64C289.58,912.46 290.48,901.85 292.74,891.51C294.34,883.11 295.86,874.6 295.62,866.02C296.74,864.09 296.58,861.84 296.39,859.71C293.65,865 293.73,871.16 292.43,876.87M408.09,871.09C408.21,872.36 407.54,874.18 409.19,874.72C413.71,876.09 418.51,876.08 423.14,875.25C428.72,874.99 434.28,874.5 439.85,874.35C443.58,873.06 448.36,873.52 450.99,870.09C451.37,865.73 446.08,865.73 443.05,865.86C431.33,866.94 419.4,867.51 408.09,871.09M428.13,881.15C420.83,881.15 413.35,882.83 406.18,880.6C405.88,883.48 407.54,886.21 406.82,889.06C412.02,891.8 418.04,893.03 422.25,897.39C423.47,894.11 427.27,895.65 429.87,895.3C437.54,895.2 444.51,891.43 452.13,891.05C453.25,886.5 453.06,881.72 452.52,877.1C444.74,880.24 436.36,880.46 428.13,881.15M386.08,892.35C387.66,893.21 389.19,894.15 390.66,895.2C392.16,895.18 393.66,895.19 395.17,895.29C395.64,894.35 396.1,893.43 396.57,892.52C393.08,892.04 389.58,892.19 386.08,892.35M358.46,903.74C356.97,904.57 356.81,906.92 358.05,908.06C357.22,909.26 357.33,912.44 359.04,912.69C359.14,913.43 359.35,914.91 359.46,915.66C367.57,916.2 375.58,913.65 383.65,914.82C384.24,909.79 385.91,904.97 386.81,900.01C384.88,897.93 381.56,897.25 380.17,894.46C372.33,895.66 364.64,898.69 358.46,903.74M405.14,894.77C404.93,898.98 399.81,897.68 397.04,898.86C395.58,899.55 392.95,899.09 392.43,900.99C390.53,906.88 389.89,913.11 387.82,918.97C388.57,921.95 389.3,924.93 389.99,927.93C397.66,930.17 404.83,933.77 412.51,935.97C415,932.74 419.27,931.72 422.57,929.53C423.58,923.31 424.94,917.06 427.36,911.22C426.33,905.72 420.71,904 416.92,900.8C413.5,897.87 408.84,897.26 405.14,894.77M428.83,901.44C430.55,904.09 431.84,906.98 433.29,909.79C436.5,914.9 441.66,919.66 441.46,926.11C442.52,918.85 444.63,910.04 451.64,906.33C451.97,903.14 451.71,899.94 451.22,896.79C443.78,898.44 436.53,901.07 428.83,901.44M342.92,936.35C344.4,936.38 345.88,936.42 347.37,936.48C346.62,932.84 348.86,929.61 350.54,926.61C351.96,923.55 352.5,920.19 353.39,916.97C353.02,914.38 352.12,911.91 351.49,909.4C346.81,917.63 342.82,926.69 342.92,936.35M451.19,913.99C446.53,920.28 445.92,931.3 453.19,935.91C453.09,929.92 452.41,923.95 452.57,917.97C452.23,916.63 453.18,914.19 451.19,913.99M430.85,917.06C430,920.81 429.18,924.57 428.46,928.35C431,930.32 434.06,931.35 437.16,932.08C437.18,926.5 434.33,921.25 430.85,917.06M358.15,921.66C356.89,926.78 354.34,931.36 352.1,936.09C351.31,937.38 349.55,937.22 348.27,937.68C349.56,938.4 351.45,938.59 352.05,940.16C354.02,944.66 358.74,947.13 360.88,951.54C365.82,950.26 371.17,950.44 375.72,947.82C377.68,945.3 378.61,942.16 380.53,939.62C382.49,936.99 383.84,934.01 384.98,930.97C384.05,928.15 383.56,925.2 382.65,922.39C381.09,919.1 376.89,920.59 374.1,920.86C368.83,921.96 363.48,921.63 358.15,921.66M442.59,931.21C442.39,936.17 441.42,941.03 440.5,945.9C440.17,951.16 438.2,956.06 436.56,961C438.81,960.56 441.11,960.42 443.4,960.48C445.88,958.03 450.35,958.43 451.94,955.04C452.06,951 451.5,946.94 452.36,942.93C448.56,940.37 444.21,936.99 443.37,932.25C443.17,931.99 442.78,931.47 442.59,931.21M389.71,934.42C387.9,939.32 384.86,943.59 382.12,948C381.67,949.23 380.18,950.49 380.83,951.89C383.65,954.8 387.38,956.86 389.43,960.49C390.71,962.86 392.88,964.46 395.02,966C398.52,964.56 402.21,963.8 405.94,963.32C408.24,963.05 410.6,961.64 410.52,959.04C411.15,953.55 413.68,947.82 411.6,942.39C407.68,940.39 403.28,939.59 399.36,937.59C396.33,936 393.03,935.13 389.71,934.42M417.13,939.03C418.53,945.63 417.82,952.55 415.9,958.97C417.62,963.56 423.3,963.23 426.76,965.9C429.75,962.47 432,958.52 433.02,954.06C435.11,949.24 434.69,943.9 436.03,938.9C433.12,937.24 430.15,935.63 426.92,934.72C423.4,935.52 420.39,937.6 417.13,939.03M342.99,942.45C344.35,945.8 345.43,949.25 346.07,952.82C347.55,956.8 350.09,960.38 353.33,963.14C354,961.04 354.76,958.97 355.11,956.8C357.01,957.51 356.8,953.67 355,954.48L354.87,953.33C352.08,949.65 348.35,946.64 346.55,942.28C345.36,942.33 344.17,942.38 342.99,942.45M360.51,958.17C359.72,960.98 358.88,963.79 358.06,966.6C361.93,970.12 366.06,973.43 370.96,975.41C375.35,977.54 380.35,977.47 385.06,978.35C387.19,975.73 388.74,972.7 390.78,970.02C389.19,968.71 387.01,967.96 386.01,966.06C383.68,961.03 378.43,958.52 374.93,954.44C370.29,956.3 365.22,956.57 360.51,958.17M413.5,966.23C408.95,970.72 401.99,968.75 396.82,971.87C396.58,974.8 393.46,975.87 392.09,978.19C398.1,978.06 404.38,978.9 410.01,976.24C413.97,974.12 418.41,972.96 422.02,970.21C419.13,968.98 416.23,967.78 413.5,966.23Z" style="fill-rule:nonzero;"/>
        </g>
        <g transform="matrix(1,0,0,1,-0.68,9.242842)">
            <g transform="matrix(-6.641565,0.15329,0.198847,8.615391,2500.16954,-1612.029067)">
                <path d="M327.088,282.228C328.086,284.713 332.035,284.724 333.088,282.182" style="fill:none;stroke:rgb(255,0,0);stroke-width:0.78px;"/>
            </g>
        </g>
        <g transform="matrix(1,0,0,1,-0.68,9.242842)">
            <path d="M306.41,858.72C308.25,858.67 310.12,858.63 311.94,859.04C317.65,860.27 323.49,860.56 329.24,861.49C329.53,865.15 329.26,868.85 329.71,872.5C331.01,879.14 331.68,885.91 331.76,892.68C330.73,893.03 329.71,893.38 328.7,893.76C326.96,898.33 325.91,903.11 324.69,907.84C322.39,915.18 319.44,922.3 316.32,929.33C317.36,930.22 318.18,931.88 319.82,931.63C321.48,931.73 322.02,929.83 322.7,928.69C326.55,919.87 329.79,910.79 332.07,901.43C333.19,915.3 333.95,929.31 336.89,942.94C336.64,943.5 336.12,944.61 335.87,945.16C337.38,949.69 339,954.5 337.88,959.32C335.53,959.16 333.18,959.12 330.84,959.08C330.71,957.88 330.34,956.52 329.1,956.07C328.57,957.24 328.47,958.55 328.32,959.84C323.59,960.91 327.74,954.42 324.14,953.46C320.27,953.1 320.52,957.95 319.63,960.49C319,960.5 317.75,960.53 317.12,960.54L317.34,959.7C317.95,957.18 317.75,954.51 316.36,952.28C314.99,945.95 314.73,939.49 314.22,933.07C310.99,916.82 311.35,900.12 308.73,883.78C307.98,875.42 306.06,867.16 306.41,858.72M314.34,878.07C312.77,883.27 313.42,888.76 312.96,894.1C312.96,899.21 311.66,904.19 311.42,909.29C313.18,910.27 315.81,911.3 316.66,908.69C318.48,901.32 318.34,893.6 318.81,886.06C318.76,883.86 319.19,881.52 318.41,879.44C317.72,877.81 315.73,878.3 314.34,878.07Z" style="fill:rgb(236,28,52);fill-rule:nonzero;"/>
        </g>
        <g transform="matrix(1,0,0,1,-0.68,9.242842)">
            <path d="M389.2,861.5C392.54,861.22 395.79,860.37 399.06,859.69C403.09,859.11 407.17,858.84 411.19,858.09C411.15,860.27 411.12,862.46 411.17,864.65C408.37,863.63 405.79,865.76 403.43,866.96C403.89,869.73 400.93,871.31 400.83,873.93C400.74,878.43 400.62,882.95 401,887.44C398.07,886.68 395.03,886.56 392.03,886.32C393.15,879.62 390.77,873.13 389.2,866.72C388.58,865.01 388.93,863.21 389.2,861.5Z" style="fill:rgb(236,28,52);fill-rule:nonzero;"/>
        </g>
        <g transform="matrix(1,0,0,1,-0.68,9.242842)">
            <path d="M292.43,876.87C293.73,871.16 293.65,865 296.39,859.71C296.58,861.84 296.74,864.09 295.62,866.02C295.86,874.6 294.34,883.11 292.74,891.51C290.48,901.85 289.58,912.46 286.56,922.64C284.97,927.66 284.41,932.94 282.93,937.99C281.36,942.88 280.74,947.99 279.52,952.97C277.06,952.03 274.58,951.14 272.11,950.22C273.15,946.47 274.57,942.84 275.6,939.1C277.18,930.76 280.08,922.76 282.27,914.57C284.51,905.98 287.33,897.55 289.91,889.06C290.62,884.96 291.5,880.91 292.43,876.87Z" style="fill:rgb(236,28,52);fill-rule:nonzero;"/>
        </g>
        <g transform="matrix(1,0,0,1,-0.68,9.242842)">
            <path d="M358.46,903.74C364.64,898.69 372.33,895.66 380.17,894.46C381.56,897.25 384.88,897.93 386.81,900.01C385.91,904.97 384.24,909.79 383.65,914.82C375.58,913.65 367.57,916.2 359.46,915.66C359.35,914.91 359.14,913.43 359.04,912.69C359.18,911.07 359.26,909.29 358.05,908.06C356.81,906.92 356.97,904.57 358.46,903.74Z" style="fill:rgb(236,28,52);fill-rule:nonzero;"/>
        </g>
        <g transform="matrix(1,0,0,1,-0.68,9.242842)">
            <path d="M389.71,934.42C393.03,935.13 396.33,936 399.36,937.59C403.28,939.59 407.68,940.39 411.6,942.39C413.68,947.82 411.15,953.55 410.52,959.04C410.6,961.64 408.24,963.05 405.94,963.32C402.21,963.8 398.52,964.56 395.02,966C392.88,964.46 390.71,962.86 389.43,960.49C387.38,956.86 383.65,954.8 380.83,951.89C380.18,950.49 381.67,949.23 382.12,948C384.86,943.59 387.9,939.32 389.71,934.42Z" style="fill:rgb(236,28,52);fill-rule:nonzero;"/>
        </g>
        <g transform="matrix(1,0,0,1,-0.68,9.242842)">
            <path d="M342.99,942.45C344.17,942.38 345.36,942.33 346.55,942.28C348.35,946.64 352.08,949.65 354.87,953.33L355,954.48C355.02,955.06 355.08,956.22 355.11,956.8C354.76,958.97 354,961.04 353.33,963.14C350.09,960.38 347.55,956.8 346.07,952.82C345.43,949.25 344.35,945.8 342.99,942.45Z" style="fill:rgb(236,28,52);fill-rule:nonzero;"/>
        </g>
        <g transform="matrix(1,0,0,1,-0.68,9.242842)">
            <path d="M303.15,820.59C303.1,818.41 303.98,816.53 305.85,815.36C307.76,816.81 310.1,817.64 311.88,819.28C312.58,821.5 310.22,822.68 308.84,823.92C306.36,824.64 304.92,821.78 303.15,820.59Z" style="fill:rgb(254,254,254);fill-rule:nonzero;"/>
        </g>
        <g transform="matrix(1,0,0,1,-0.68,9.242842)">
            <path d="M329.1,956.07C330.34,956.52 330.71,957.88 330.84,959.08L330.44,959.65C329.91,959.7 328.85,959.79 328.32,959.84C328.47,958.55 328.57,957.24 329.1,956.07Z" style="fill:rgb(255,0,0);fill-rule:nonzero;"/>
        </g>
        <g transform="matrix(1,0,0,1,-0.68,9.242842)">
            <path d="M236.54,946.8C237.31,945.87 237.43,944.1 238.88,943.97C241.46,943.39 242.42,946.2 243.13,948.07C242.58,949.33 242.05,950.6 241.54,951.9C238.11,952.76 237.1,949.39 236.54,946.8Z" style="fill:rgb(2,2,2);fill-rule:nonzero;"/>
        </g>
        <g transform="matrix(1,0,0,1,-0.68,9.242842)">
            <path d="M316.36,952.28C317.75,954.51 317.95,957.18 317.34,959.7C315.43,959.85 313.6,959.44 312.07,958.25C312.81,956.08 313.11,953.09 316.31,954.07C316.32,953.62 316.35,952.73 316.36,952.28Z" style="fill:rgb(2,2,2);fill-rule:nonzero;"/>
        </g>
        <g transform="matrix(1,0,0,1,-0.68,9.242842)">
            <path d="M356.73,977.77C358.55,976.81 360.75,976.26 362.11,978.26C362.65,981.43 362.95,984.83 361.53,987.84C355.63,989.05 356.97,981.36 356.73,977.77Z" style="fill:rgb(2,2,2);fill-rule:nonzero;"/>
        </g>
        <g transform="matrix(1,0,0,1,-0.68,9.242842)">
            <path d="M328.7,893.76C329.71,893.38 330.73,893.03 331.76,892.68C332.24,893.36 332.73,894.05 333.23,894.76C332.91,896.99 332.51,899.21 332.07,901.43C329.79,910.79 326.55,919.87 322.7,928.69C322.02,929.83 321.48,931.73 319.82,931.63C318.18,931.88 317.36,930.22 316.32,929.33C319.44,922.3 322.39,915.18 324.69,907.84C325.91,903.11 326.96,898.33 328.7,893.76Z" style="fill:rgb(1,1,1);fill-rule:nonzero;"/>
        </g>
        <g transform="matrix(1,0,0,1,-0.68,9.242842)">
            <path d="M307.26,978C306.78,975.13 305.63,969.68 309.82,969.26C313.74,969.5 312.24,974.43 312.89,977.02C312.49,978.07 312.11,979.14 311.74,980.22C309.91,980.71 307.45,980.25 307.26,978Z" style="fill:rgb(1,1,1);fill-rule:nonzero;"/>
        </g>
        <g transform="matrix(1,0,0,1,-0.68,9.242842)">
            <path d="M460.9,975.99C460.76,973.49 461.83,970.47 464.92,971.11C468.17,971.96 466.52,975.7 465.25,977.62C463.66,977.47 462.18,976.92 460.9,975.99Z" style="fill:rgb(1,1,1);fill-rule:nonzero;"/>
        </g>
        <g transform="matrix(1,0,0,1,-0.68,9.242842)">
            <path d="M442.47,976.46C444.05,974.79 446.08,975.54 447.6,976.83C447.34,979.35 446.78,983.76 443.41,983.59C440.1,982.67 441.55,978.67 442.47,976.46Z" style="fill:rgb(1,1,1);fill-rule:nonzero;"/>
        </g>
        <g transform="matrix(1,0,0,1,-0.68,9.242842)">
            <path d="M386.08,892.35C389.58,892.19 393.08,892.04 396.57,892.52C396.1,893.43 395.64,894.35 395.17,895.29C393.66,895.19 392.16,895.18 390.66,895.2C389.19,894.15 387.66,893.21 386.08,892.35Z" style="fill:rgb(253,253,253);fill-rule:nonzero;"/>
        </g>
        <g transform="matrix(1,0,0,1,-0.68,9.242842)">
            <path d="M314.34,878.07C315.73,878.3 317.72,877.81 318.41,879.44C319.19,881.52 318.76,883.86 318.81,886.06C318.34,893.6 318.48,901.32 316.66,908.69C315.81,911.3 313.18,910.27 311.42,909.29C311.66,904.19 312.96,899.21 312.96,894.1C313.42,888.76 312.77,883.27 314.34,878.07Z" style="fill:rgb(1,0,1);fill-rule:nonzero;"/>
        </g>
        <g transform="matrix(1,0,0,1,-0.68,9.242842)">
            <path d="M451.19,913.99C453.18,914.19 452.23,916.63 452.57,917.97C452.41,923.95 453.09,929.92 453.19,935.91C445.92,931.3 446.53,920.28 451.19,913.99Z" style="fill:rgb(235,28,54);fill-rule:nonzero;"/>
        </g>
        <g transform="matrix(1,0,0,1,-0.68,9.242842)">
            <path d="M302.06,858.27C303.51,858.42 304.95,858.59 306.41,858.72C306.06,867.16 307.98,875.42 308.73,883.78C311.35,900.12 310.99,916.82 314.22,933.07C314.73,939.49 314.99,945.95 316.36,952.28C316.35,952.73 316.32,953.62 316.31,954.07C313.11,953.09 312.81,956.08 312.07,958.25C313.6,959.44 315.43,959.85 317.34,959.7L317.12,960.54C314.92,960.89 312.7,960.96 310.48,960.95C310.95,956.37 309.3,951.99 308.46,947.57C306.54,937.66 306.56,927.52 305.31,917.53C304.52,907.71 305.52,897.8 304.06,888.03C304.39,884.31 303.45,880.72 303.02,877.06C302.86,870.78 301.77,864.56 302.06,858.27Z" style="fill:rgb(255,254,255);fill-rule:nonzero;"/>
        </g>
        <g transform="matrix(1,0,0,1,-0.68,9.242842)">
            <path d="M355,954.48C356.8,953.67 357.01,957.51 355.11,956.8C355.08,956.22 355.02,955.06 355,954.48Z" style="fill:rgb(255,0,0);fill-rule:nonzero;"/>
        </g>
        <g transform="matrix(1,0,0,1,-0.68,9.242842)">
            <path d="M358.05,908.06C359.26,909.29 359.18,911.07 359.04,912.69C357.33,912.44 357.22,909.26 358.05,908.06Z" style="fill:rgb(176,56,67);fill-rule:nonzero;"/>
        </g>
        <g transform="matrix(1,0,0,1,-0.68,9.242842)">
            <path d="M430.85,917.06C434.33,921.25 437.18,926.5 437.16,932.08C434.06,931.35 431,930.32 428.46,928.35C429.18,924.57 430,920.81 430.85,917.06Z" style="fill:rgb(237,28,53);fill-rule:nonzero;"/>
        </g>
    </g>
</svg>
