<?xml version="1.0" encoding="UTF-8" standalone="no"?>
<!DOCTYPE svg PUBLIC "-//W3C//DTD SVG 1.1//EN" "http://www.w3.org/Graphics/SVG/1.1/DTD/svg11.dtd">
<svg width="100%" height="100%" viewBox="0 0 309 282" version="1.1" xmlns="http://www.w3.org/2000/svg" xmlns:xlink="http://www.w3.org/1999/xlink" xml:space="preserve" xmlns:serif="http://www.serif.com/" style="fill-rule:evenodd;clip-rule:evenodd;stroke-linejoin:round;stroke-miterlimit:2;">
    <g transform="matrix(1,0,0,1,-474.145837,-545.797299)">
        <path d="M721.65,550.06C725.46,547.71 730.25,547.77 734.19,549.79C737.78,551.74 741.86,553.37 744.22,556.9C746.74,559.89 746.79,563.95 746.88,567.65C749.13,569.13 751.61,570.5 753.14,572.81C756.01,576.78 756.49,582.26 754.83,586.81C751.81,592.97 747.15,599.52 739.79,600.47C734.31,601.99 728.92,599.93 723.53,599.39C720.45,602.37 717.43,605.93 713.02,606.85C707.23,608.52 701.14,606.9 695.85,604.42C691.88,602.57 688.37,599.35 686.75,595.23C685.73,590.13 686.4,584.73 689.21,580.29C687.86,577.68 686.49,574.84 687.2,571.82C687.93,564.02 693.69,557.75 700.53,554.47C705.16,551.97 711.03,552.34 715.36,555.31C715.4,555.35 715.49,555.41 715.54,555.44L715.58,555.4C717.33,553.35 719.28,551.4 721.65,550.06M721.18,560.23C719.1,561 719.45,563.42 719,565.17C714.93,566.85 711.74,563.65 708.86,561.25C706.15,560.85 703.8,562.12 701.5,563.33C700.09,564.69 698.35,565.63 696.86,566.88C695.74,568.87 695.46,571.19 694.64,573.3C698.04,578.12 705.11,575.04 709.38,578.57C712.94,580.42 711.82,586.73 708,587.42C704.15,587.02 700.11,586.93 696.61,585.12C694.64,586.74 694.29,589.29 693.87,591.65C696.91,596.76 703.1,597.5 708.16,599.42C712.11,599.02 715.63,596.77 717.6,593.32C716.41,590.81 714.69,587.73 716.35,585.05C716.93,583.79 717.28,581.9 719.07,581.99C723.72,580.85 726,586.4 726.35,590.11C731.8,593.69 739.64,593.47 744.42,588.81C746.25,586.07 747.99,583.21 747.64,579.77C746.42,577.54 744.51,575.67 741.85,575.46C738.97,577.6 735.54,578.7 732.07,579.42C730.07,578.79 727.77,577.34 727.79,574.99C728.06,573.3 728.48,571.64 729,570.02C731.87,567.88 735.21,566.63 738.78,566.38C738.86,561.41 733.99,558.75 729.9,557.36C726.65,555.8 723.86,558.83 721.18,560.23Z" style="fill:rgb(1,1,1);fill-rule:nonzero;"/>
        <path d="M593.8,692.83C594.79,691.25 595.77,689.09 597.87,688.85C599.23,689.08 600.57,689.49 601.92,689.88C603.04,695.27 599.11,699.59 598.51,704.76C596.21,710.16 595.33,715.99 593.55,721.57C591.62,728 589.95,734.51 587.88,740.9C586.4,744.05 585.05,748.77 580.96,749.11C577.53,748.82 577.26,745.04 578.41,742.52C580.52,737.84 580.63,732.62 582.42,727.84C583.8,724.2 584.71,720.42 585.78,716.69C588.43,708.73 590,700.37 593.8,692.83Z" style="fill:rgb(1,1,1);fill-rule:nonzero;"/>
        <path d="M490.03,758C491.82,757.3 493.92,755.7 495.77,757.18C499.06,758.98 499.84,762.86 500.72,766.18C501.73,770.86 503.96,775.34 503.46,780.25C501.09,781.94 497.36,782.52 495.66,779.68C494.03,772.38 490.67,765.5 490.03,758Z" style="fill:rgb(1,1,1);fill-rule:nonzero;"/>
        <path d="M530.29,777.32C534.49,772.67 542.64,771.46 546.84,776.78C546.31,778.26 545.87,779.81 545.21,781.25C544.4,783 542.45,782.09 541.03,782.05C537.26,781.16 533.52,785.22 530.07,782.25C530.14,780.6 530.22,778.96 530.29,777.32Z" style="fill:rgb(1,1,1);fill-rule:nonzero;"/>
        <path d="M753.6,779.16C753.62,774.97 760.84,775.09 761.3,778.98C762.21,785.07 760.39,791.18 759.66,797.21C758.99,800.12 758.72,803.11 758.71,806.1C756.67,807.36 754.37,807.73 752.24,806.47L751.88,805.45C751.15,803.4 750.54,801.22 750.94,799.04C751.86,792.41 752.97,785.82 753.6,779.16Z" style="fill:rgb(1,1,1);fill-rule:nonzero;"/>
        <path d="M580.12,786C581.76,785.4 583.48,783.77 585.3,784.72C586.73,785.49 587.71,786.85 588.83,788C588.05,794.62 593.55,801.04 590.44,807.48C588.47,809.31 586.18,807.88 584.21,806.92C582.08,800.13 580.05,793.17 580.12,786Z" style="fill:rgb(1,1,1);fill-rule:nonzero;"/>
        <path d="M775.41,788.97C777.25,788.03 779.57,786.8 781.28,788.72C784.16,792.46 781.99,797.12 781.1,801.19C779.21,802.26 776.69,803.68 774.64,802.25C773.1,801.47 773.05,799.55 773.08,798.07C773.58,794.97 774.83,792.05 775.41,788.97Z" style="fill:rgb(1,1,1);fill-rule:nonzero;"/>
        <path d="M687.64,802.41C688.92,799.78 692.67,799.07 694.63,801.39C696.5,804.28 695.53,807.93 695.52,811.16C695.01,814.09 695.81,818.58 692.01,819.46C688.02,820.45 686.69,815.77 686.93,812.76C687.13,809.3 687.06,805.81 687.64,802.41Z" style="fill:rgb(1,1,1);fill-rule:nonzero;"/>
        <path d="M742.7,732.07C743.29,735.44 744,738.83 743.69,742.27C741.29,739.42 743.08,735.43 742.7,732.07Z" style="fill:rgb(249,136,218);fill-rule:nonzero;"/>
        <path d="M638.05,596.96C639.52,594.28 642.84,595.11 645.31,595.39C649.23,601.59 650.07,608.99 651.56,616.02C653,624.35 655.45,632.45 657.94,640.51C664.82,640.71 671.67,639.95 678.42,638.63C686.78,637.1 695.56,637.55 703.53,634.22C706.55,632.77 709.8,634.12 712.96,633.92C715.86,633.79 718.65,632.88 721.47,632.23C724.61,633.97 723.64,637.54 723.39,640.49C719.03,642 714.36,641.8 709.84,642.43C710.73,646.37 711.92,650.22 712.86,654.14C717.94,654.22 723.01,655.13 728.09,654.5C733.52,653.99 738.65,656.28 743.92,657.17C748.14,657.95 752.19,659.52 755.72,661.99C757.27,668.22 755.43,674.42 752.86,680.08C757.09,680.58 761.31,681.7 764.82,684.22C768.21,687.19 772.62,689.22 774.65,693.47C778.02,699.77 780.64,706.79 780.33,714.04C780.75,720.37 777.41,725.97 775.85,731.91C772.85,738.09 766.97,742.19 761.35,745.8C758.45,747.18 755.33,747.99 752.26,748.88C752.42,752.24 752.46,755.62 752.12,758.98C752.38,761.98 752.02,765.16 753.5,767.92C756.39,763.35 758.84,758.51 760.53,753.36C761.07,751.29 763.51,751.45 765.17,751.14C767.34,752.82 768.88,755.58 768.14,758.39C766.44,762.71 764.85,767.24 761.87,770.88C760.46,772.65 758.03,772.68 756.01,773.16C754.48,774.07 752.99,775.42 751.07,774.96C744.87,774.23 738.67,776.08 732.51,774.76C731.12,774.23 730.42,775.67 729.54,776.43C735.06,777.01 740.82,776.82 746.05,778.95C749.75,780.51 750.36,786.76 746.6,788.61C739.53,792.13 731.65,793.7 723.85,794.49C724.82,795.17 725.8,795.84 726.79,796.54C727.25,800.84 727.08,805.18 726.62,809.48C726.37,812.36 723.14,814.79 720.32,813.68C718.69,813.05 718.66,811.12 718.5,809.7C718.82,804.75 717.48,798.87 721.22,794.91C704.98,797.69 688.47,799.54 671.99,798.32C666.11,797.74 660.21,797.73 654.31,797.82C654.73,800.86 655.35,803.92 655.19,807.02C653.87,808.6 651.36,810.04 649.49,808.45C645.92,806.18 646.29,801.29 645.28,797.66C636.7,796.9 628.14,795.89 619.71,794.12C620.42,799.98 620.08,805.88 620.39,811.76C620.47,813.17 620.12,814.55 619.89,815.95C617.5,817.27 614.79,817.05 612.6,815.46C612.34,814.11 612.12,812.76 611.93,811.42C612.09,805.11 612.1,798.82 611.71,792.52C607.96,791.65 604.31,790.41 600.72,789.05C598.87,784.68 599.18,779.87 600.85,775.51C593.51,774.48 586.13,774.97 578.8,775.73C578.42,780.34 578.39,785.01 577.5,789.56C575.62,791.74 571.53,791.27 570.72,788.33C569.39,783.94 570.4,779.24 569.95,774.73C566.25,774.23 562.53,774.05 558.81,774.03C558.71,780.99 559.07,787.96 558.83,794.92C557.3,795.99 555.9,797.43 554.02,797.86C552.62,797.56 550.94,796.92 550.93,795.24C549.98,789.9 550.51,784.43 550.36,779.03C550.22,775.33 550.85,771.64 552.47,768.3C542.43,766.74 532.31,765.66 522.19,764.78C523.82,771.69 525.16,778.71 525.77,785.8C523.07,786.81 520.21,786.78 517.57,785.61C516.22,778.11 515.08,770.56 512.83,763.26C510.28,761.78 507.68,759.83 507.13,756.75C506.23,754.24 507.5,751.77 508.25,749.42C511.63,748.03 515.11,746.9 518.69,746.14C517.74,741.65 513.3,736.71 516.58,732.31C519.44,730.23 521.95,733.58 524.16,735.02C526.71,728.7 528.41,722.03 531.66,716.02C537.61,700.63 541.38,684.51 545.11,668.48C547.09,661.82 547.88,654.85 550.4,648.36C547.36,647.82 544.23,647.22 541.2,648.14C539.47,648.28 537.39,649.54 535.91,648.11C533.82,646.67 534.92,643.81 534.57,641.7C536.53,640.62 538.43,638.88 540.83,639.21C544.6,639.35 548.36,639.64 552.14,639.67C553.02,638.05 553.6,635.5 555.97,635.72C558.74,635.63 561.38,634.81 564.03,634.07C572.92,639.14 583.5,638.13 593.17,640.5C596.03,641.26 599,641.49 601.96,641.28C607.36,640.85 612.75,642.06 618.15,641.43C620.3,636.22 623.41,631.44 624.91,625.97C628,615.77 632.56,606.07 638.05,596.96M627.04,641.53C634.52,642.59 642.13,640.89 649.67,641.66C647.05,630.37 643.39,619.3 641.87,607.77C634.46,617.81 633.42,630.94 627.04,641.53M683.89,646.5C670.03,648.7 656.01,649.73 642,650.35C631.99,650.45 622,649.5 612,649.88C604.94,649.48 597.79,650 590.83,648.53C583.16,647.09 575.32,646.81 567.71,645.05C567.59,646.13 567.48,647.22 567.38,648.31C566.41,648.59 565.45,648.88 564.49,649.17C563.92,652.41 563.25,655.66 563.32,658.97C563.32,664.71 562.21,670.38 561.92,676.1C562.01,691.81 562.11,707.57 564.16,723.17C566.31,736.52 571.14,749.19 574.9,762.11C575.43,763.78 577.32,764.41 578.93,764.26C583.95,764.19 588.96,764.41 593.98,764.36C600.67,764.53 607.02,761.91 613.71,762.02C613.71,758.43 613.77,754.77 612.57,751.34C610.1,743.73 612.29,735.74 613.08,728.03C615.9,715.76 623.07,704.72 632.44,696.39C637.83,691.36 644.93,688.99 651.13,685.21C658.93,681.77 667.54,680.99 675.93,680.24C682.25,680.22 688.64,680.17 694.78,681.94C694.87,681.54 695.04,680.74 695.13,680.35C693.25,680.24 691.11,680.8 689.52,679.52C687.16,678.33 687.56,675.3 687.31,673.12C686.6,669.34 689.54,666.44 690.29,662.97C690.95,660.14 692.09,657.17 694.53,655.42C697.3,653.12 701.14,653.75 704.47,653.44C703.27,650.3 702.73,646.97 702.04,643.71C696.12,645.36 689.99,645.99 683.89,646.5M699.57,662.41C697.94,665.43 696.61,668.6 695.96,671.99C703.53,674.3 711.55,673.99 719.14,676.12C727.12,676.87 735.15,676.17 743.09,675.24C746.79,674.57 749.11,670.46 748.38,666.88C744,666.09 739.65,665.14 735.29,664.25C733.95,664.79 732.57,665.49 731.12,664.92C725.13,663.73 719.07,662.8 712.97,662.42C708.47,662.52 703.99,660.92 699.57,662.41M702.83,682.28C702.8,683.3 702.77,684.33 702.75,685.36C707.62,688.44 713.96,688.61 718.14,692.81C719.56,693.89 720.95,695.32 722.85,695.46C728.81,696.09 734.86,695.92 740.8,695.06C740.04,691.43 739.51,687.73 739.91,684.03C733,685.62 725.84,685.13 718.85,684.52C713.5,683.82 708.29,681.89 702.83,682.28M541.19,713.25C539.74,716.85 538.61,720.59 537.02,724.14C534.29,730.16 533,736.73 529.98,742.63C534.6,742.66 539.24,742.96 543.85,742.42C543.96,737.51 544.6,732.65 545.38,727.82C546.12,723.39 544.82,718.92 545.62,714.51C547.06,704.65 549.07,694.85 549.59,684.88C546.47,694.25 545.06,704.13 541.19,713.25M679.77,688.64C677.11,690.15 672.54,688.73 672.16,693.01C674.77,694.45 677.48,696.7 677.53,699.96C676.06,707.57 673.93,715.12 673.63,722.92C672.99,724.35 671.68,725.29 670.58,726.36C668.73,726.21 666.89,726.09 665.04,725.94C659.34,727.02 653.66,725.25 647.94,725.66C642.54,725.15 636.65,726.54 631.72,723.68C630.81,720.18 630.05,716.65 629.47,713.09C628.15,713.46 626.64,713.47 625.58,714.44C624.18,717.45 624.18,720.9 622.86,723.95C620.42,729.64 619.73,735.92 619.82,742.07C619.65,743.62 620.43,745 621.26,746.26C621.48,747.98 620.8,750.35 622.79,751.28C630.05,756.34 638.7,758.7 646.9,761.71C644.81,767.1 642.5,772.43 639.36,777.31C640.3,778.26 641.33,779.14 642.44,779.93L642.33,780.96C642.88,780.77 643.98,780.39 644.53,780.2L644.19,781.94L645.67,781.17L645.47,782.24C652.11,784.82 658.57,788.97 665.98,788.56C669.58,789.1 672.77,786.98 676.35,787.16C676.25,788.35 678.02,788.62 678.7,789.43C684.74,789.17 690.88,789.54 696.77,787.85C701.29,786.93 704.13,782.71 708.9,782.43C708.74,780.5 708.38,778.4 709.78,776.82C711.4,774.27 714.95,775.14 717.29,776.1C720.11,773.68 722.79,771.1 725.63,768.71C726.8,765.08 730.2,762.75 731.2,759.04C732.94,754.13 735.19,749.16 735.18,743.86C730.53,742.68 725.65,741.29 721.99,738.04C720.97,736.35 720.49,734.4 719.54,732.69C721.36,724.75 722.8,716.72 723.81,708.64C722.66,705.76 719.86,704.03 717.01,703.17C715.39,702.83 715.1,700.92 714.08,699.88C704.06,692.95 691.99,688.86 679.77,688.64M747.65,689.24C756.16,691.02 762.49,698.27 766.26,705.75C767.78,711.73 765.85,717.73 764.36,723.5C760.81,728.47 756.98,733.45 751.25,736.02C751.45,737.51 751.68,739 751.92,740.49C758.2,738.42 764.16,734.47 767.83,728.9C770.35,723.61 772.85,717.93 772.66,711.96C771.18,705.52 769.75,698.03 763.81,694.13C759.46,690.57 753.35,686.53 747.65,689.24M748.63,698.03C748.62,699.04 748.59,701.05 748.58,702.06C749.75,710.49 748.38,719.01 749.47,727.46C751.87,725.89 753.75,723.69 755.67,721.59C757.65,718.78 758.29,715.32 759.26,712.1C758.48,705.9 753.19,701.68 748.63,698.03M730.82,704.43C733.15,707.33 735.63,710.22 737.05,713.72C738,716.02 739.14,718.26 740.69,720.25C741.91,714.65 741.19,708.88 740.39,703.28C737.22,703.86 734.06,704.63 730.82,704.43M742.7,732.07C743.08,735.43 741.29,739.42 743.69,742.27C744,738.83 743.29,735.44 742.7,732.07M737.33,764.58C739.64,764.98 741.97,765.19 744.32,765.26C744.58,760.8 744.54,756.33 744.36,751.89C744.3,750.79 743.83,749.88 742.96,749.14C741.48,754.44 740.04,759.75 737.33,764.58Z" style="fill-rule:nonzero;"/>
        <path d="M669.91,738.03C671.33,735.42 671.53,731.51 674.91,730.59C680.16,730.65 684.27,734.32 689.18,735.59C693.38,736.73 697.53,738.21 701.14,740.72C703.83,742.31 706.82,743.27 709.82,744.11C709.89,747.75 709.91,751.4 709.75,755.05C709.72,758.8 707.77,762.2 707.76,765.96C707.3,768.78 708.19,772.5 705.48,774.42C698.34,778.72 689.89,779.54 682.03,781.82C680.22,782.22 678.24,781.45 677.41,779.76C675.96,777.18 674.05,774.93 671.62,773.24C668.08,769.56 664.12,766.36 660.24,763.07C660.31,760.35 660.43,757.53 662,755.2C665.42,749.86 666.93,743.6 669.91,738.03Z" style="fill-rule:nonzero;"/>
        <path d="M576.49,676.23C578.61,675.87 581.16,675.43 582.69,677.38C584.05,680.02 583.74,683.15 583.76,686.04C583.38,695.93 583.58,705.9 582.13,715.71C582.03,716.2 581.81,717.19 581.71,717.68C579.46,718.92 577.02,719.42 574.65,718.2C573.51,710.98 574.68,703.7 575.13,696.49C575.6,689.73 574.54,682.81 576.49,676.23Z" style="fill:rgb(0,0,1);fill-rule:nonzero;"/>
        <path d="M667.37,810.94C669.94,808.74 672.9,810.04 675.23,811.87C675.43,816.33 674.95,820.79 674.28,825.2C672.03,826.97 668.6,828.51 666.57,825.59C665.8,821.59 666.39,817.32 667.26,813.34C667.29,812.74 667.35,811.54 667.37,810.94Z" style="fill:rgb(1,1,2);fill-rule:nonzero;"/>
        <path d="M529.1,547.8C533.48,546.87 537.97,544.73 542.44,546.44C548.73,547.17 553.73,551.82 556.83,557.08C557.54,558.32 558.29,559.55 559.04,560.8C561.14,557.76 563.37,554.81 565.96,552.17C570.09,548.14 576.51,546.33 582.03,548.18C589.55,551.36 595.75,556.88 601.4,562.65C603.69,564.78 603.34,568.17 603.75,571.01C605.43,572.82 607.54,574.6 607.87,577.22C609.09,585.03 605.6,593.7 598.66,597.76C594.82,600.14 590.62,602.4 586.04,602.74C581.43,602.5 576.76,601.61 572.71,599.31C570.46,601.66 567.72,603.44 565.22,605.49C560.58,607.4 555.96,609.74 550.92,610.27C547.68,610.27 544.33,609.87 541.35,608.58C537.32,606.16 533.89,602.86 531,599.18C526.46,600.73 521.9,602.71 517.02,602.72C511.52,602.73 505.99,603.24 500.54,602.23C495.04,602.01 489.43,599.45 486.33,594.81C483.27,590.47 484.31,584.84 485.76,580.1C487.65,577.41 488.52,573.89 491.51,572.11C496.96,566.48 505.83,566.88 512.85,568.82C514.89,563.08 516.56,556.63 521.54,552.63C523.98,550.91 525.97,548.27 529.1,547.8M526.3,559.26C522.75,562.66 521.85,567.68 520.57,572.22C522.49,573.66 524.61,575.02 525.89,577.13C525.77,578.8 525.46,580.45 525.33,582.13C523.63,583.77 521.3,584.74 518.95,584.03C514.79,583.4 514.2,577.97 510.18,577.15C506.77,575.5 502.92,576.09 499.31,576.49C495.31,579.08 491.73,583.54 492.49,588.57C493.76,592.93 499.13,593.87 503.03,594.23C511.02,594.75 519.72,595.31 526.81,590.89C529.18,589.89 530.25,587.5 531.73,585.58C533.19,583.82 537.02,583.39 537.82,586.02C539.04,588.29 538.85,590.79 538.31,593.23C539.36,598.06 544.25,601.4 549.06,601.67C555.35,601.49 560.76,597.97 566.08,594.99C567.85,591.62 567.22,587.72 568.27,584.16C569.97,584.04 572.03,583 573.35,584.63C575.53,586.08 575.95,588.68 576.75,590.97C578.73,594.13 582.75,593.74 585.94,594.39C588.47,592.89 591.68,592.99 593.98,591.04C596.45,589.18 598.71,586.88 599.97,584.01C599.85,581.63 599.97,578.82 597.97,577.14C595.62,574.96 595.65,571.69 595.32,568.79C590.36,563.52 584.77,558.5 577.93,555.87C568.77,556.42 564.78,566.34 563.11,574.05C560.98,574.69 558.13,575.83 556.68,573.41C553.95,566.53 549.76,559.83 543.5,555.61C537.7,553.19 530.96,555.44 526.3,559.26Z" style="fill:rgb(0,1,1);fill-rule:nonzero;"/>
        <path d="M641.09,565.62C643.23,565.16 645.29,565.7 647,567.07C646.64,568.7 646.41,570.37 645.88,571.96C643.43,573.91 640.25,572.82 638.79,570.28C639.59,568.74 640.36,567.19 641.09,565.62Z" style="fill:rgb(2,2,2);fill-rule:nonzero;"/>
        <path d="M493.29,737.21C495.16,735.36 497.73,736.42 499.61,737.66C499.11,739.36 498.99,741.1 499.24,742.87L498.25,743.43C497.28,743.92 496.32,744.43 495.38,744.96C491.01,745.47 489.81,739.13 493.29,737.21Z" style="fill:rgb(2,2,2);fill-rule:nonzero;"/>
        <path d="M649.18,763.68C649.53,761.61 648.92,758.14 651.97,758.19C655.63,757.33 657.36,762.48 654.73,764.59C654.02,764.91 652.6,765.55 651.89,765.87C650.95,765.16 650.05,764.43 649.18,763.68Z" style="fill:rgb(2,2,2);fill-rule:nonzero;"/>
        <path d="M577.39,753.63C578.55,752.87 579.72,752.13 580.91,751.42C582.02,751.94 583.13,752.46 584.25,752.99C584.51,755.13 584.98,757.58 583.2,759.25C581.4,760.44 579.4,759.49 577.78,758.52C577.72,756.88 577.59,755.25 577.39,753.63Z" style="fill:rgb(2,2,3);fill-rule:nonzero;"/>
        <path d="M503.78,793.8C505.31,794.25 506.81,794.93 507.85,796.2C509.12,799.98 504.87,802.94 501.77,800.58C501.59,798.88 501.35,797.2 501.04,795.54C501.73,795.1 503.1,794.23 503.78,793.8Z" style="fill:rgb(2,2,3);fill-rule:nonzero;"/>
        <path d="M564.5,807.8C566.13,805.77 569.42,804.7 570.87,807.51C571.03,808.53 571.35,810.57 571.51,811.59C570.4,812.24 569.26,812.86 568.15,813.51C567.45,813.24 566.04,812.71 565.34,812.45C564.87,810.93 564.32,809.4 564.5,807.8Z" style="fill:rgb(2,2,3);fill-rule:nonzero;"/>
        <path d="M476.93,767.99C473.37,767.11 473.1,760.88 476.84,760.18C479.15,759.15 481.39,760.53 483.35,761.66C483.04,763.41 482.76,765.17 482.51,766.95C480.73,767.52 478.8,769.15 476.93,767.99Z" style="fill:rgb(3,1,3);fill-rule:nonzero;"/>
        <path d="M532.58,801.87C534,800.8 536.09,799.78 537.66,801.21C538.21,803.07 538.45,805.01 538.78,806.93C536.81,807.97 534.62,808.29 532.59,807.23C532.46,805.47 531.58,803.51 532.58,801.87Z" style="fill:rgb(4,2,4);fill-rule:nonzero;"/>
        <path d="M637.57,820.39C639.13,819.64 641.21,818.83 642.62,820.37C644.51,821.77 643.55,824.33 643.24,826.24C641.2,827.11 639.02,827.27 637.23,825.78C637.23,823.98 637.47,822.17 637.57,820.39Z" style="fill:rgb(2,3,5);fill-rule:nonzero;"/>
    </g>
</svg>
