<svg width="185" height="161" viewBox="0 0 185 161" fill="none" xmlns="http://www.w3.org/2000/svg">
<path d="M94.4112 155.061C134.382 155.061 166.868 122.661 166.868 82.7944C166.868 42.9281 134.382 10.5275 94.4112 10.5275C54.4403 10.6768 21.9546 42.9281 21.9546 82.9437C21.9546 122.81 54.4403 155.061 94.4112 155.061Z" fill="#F0F9F8" stroke="#D5DAE5" stroke-width="3" stroke-miterlimit="10"/>
<path d="M142.017 71.1483V124.751C142.017 128.036 139.322 130.724 136.029 130.724H50.8474C47.5539 130.724 44.8592 128.036 44.8592 124.751V71.1483C44.8592 67.8634 47.7036 65.1758 50.8474 65.1758H136.029C138.574 65.1758 140.67 66.6689 141.718 68.9086C141.867 69.5058 142.017 70.2524 142.017 71.1483Z" fill="#F3E5FA" stroke="#D5DAE5" stroke-width="3" stroke-miterlimit="10"/>
<path d="M172.856 36.8064L151.598 74.433C150.849 75.6275 149.203 76.0754 148.005 75.3289L111.777 54.2759C110.579 53.5293 110.13 51.8869 110.878 50.6924L138.873 2.7633C139.622 1.5688 141.268 1.12087 142.466 1.86743L168.814 17.2465L172.856 36.8064Z" fill="white" stroke="#D5DAE5" stroke-width="3" stroke-miterlimit="10"/>
<path d="M168.514 17.097L162.526 27.2503C161.778 28.7434 162.227 30.5351 163.574 31.431L172.706 36.6569" fill="#D5DAE5"/>
<path d="M143.664 26.9517C144.263 26.8024 144.862 26.8024 145.311 26.8024C145.909 26.8024 146.508 26.8024 147.107 26.8024C147.706 26.9517 148.454 27.101 149.053 27.2503C149.802 27.5489 150.401 27.8476 150.999 28.1462C151.898 28.5941 152.646 29.1914 153.395 29.9379C153.993 30.5352 154.443 31.2817 154.742 32.3269C155.041 33.0735 155.041 33.9693 155.041 34.8652C154.892 35.7611 154.592 36.6569 154.143 37.5528C153.694 38.2994 153.245 38.8966 152.646 39.4939C152.047 39.9418 151.598 40.2404 150.85 40.5391C150.251 40.8377 149.652 40.987 149.053 40.987L147.407 41.1363C146.957 41.1363 146.508 41.2856 145.909 41.4349C145.46 41.5842 145.161 41.7336 144.862 42.0322L143.215 44.2719L140.37 42.7787L141.568 39.9418C141.718 39.4939 142.167 39.0459 142.466 38.7473C142.915 38.4487 143.365 38.2994 143.814 38.1501C144.412 38.0008 144.862 38.0008 145.46 37.8514C146.059 37.8514 146.658 37.7021 147.257 37.5528C147.856 37.4035 148.305 37.2542 148.904 36.9556C149.502 36.6569 149.802 36.209 150.101 35.6118C150.251 35.3131 150.401 34.8652 150.55 34.4173C150.55 33.9693 150.55 33.6707 150.401 33.3721C150.251 32.9242 150.101 32.6255 149.802 32.3269C149.502 32.0283 149.203 31.7297 148.754 31.431C148.305 31.1324 147.706 30.8338 147.107 30.6845C146.658 30.5352 146.209 30.5352 145.76 30.5352C145.311 30.5352 145.011 30.5352 144.712 30.5352C144.562 30.5352 144.263 30.5352 144.113 30.3859C143.814 30.2365 143.514 29.7886 143.514 29.49L143.664 26.9517ZM135.43 48.0047C135.58 47.706 135.879 47.4074 136.179 47.1088C136.478 46.9595 136.778 46.6608 137.077 46.6608C137.825 46.5115 138.574 46.5115 139.323 46.9595C139.622 47.1088 139.921 47.4074 140.221 47.706C140.37 48.0047 140.52 48.3033 140.67 48.6019C141.119 50.095 140.221 51.7374 138.724 52.1854C137.975 52.3347 137.227 52.1854 136.478 51.8868C136.179 51.7374 135.879 51.4388 135.58 51.1402C135.43 50.8416 135.131 50.543 135.131 50.2443C134.981 49.9457 134.981 49.4978 135.131 49.1991C135.131 48.6019 135.281 48.3033 135.43 48.0047Z" fill="#D5DAE5"/>
<path d="M36.6254 20.5313L61.0271 45.765C61.7756 46.6609 61.7756 48.0047 60.8774 48.9005L36.0266 72.1932C35.1284 72.9397 33.781 72.9398 32.8828 72.0439L2.04381 39.3446C1.29529 38.4487 1.29529 37.1049 2.19351 36.209L20.158 19.3368L36.6254 20.5313Z" fill="white" stroke="#D5DAE5" stroke-width="3" stroke-miterlimit="10"/>
<path d="M20.1579 19.1874L26.8946 26.205C27.7928 27.1009 29.4396 27.1009 30.4875 26.205L36.6254 20.3819" fill="#D5DAE5"/>
<path d="M21.9546 40.8379C21.9546 40.3899 22.1043 39.942 22.254 39.4941C22.4037 39.0461 22.5534 38.5982 22.7031 38.1503C22.8528 37.7023 23.1522 37.2544 23.4516 36.8064C23.751 36.3585 24.2001 35.9106 24.6492 35.4626C25.248 34.8654 25.8469 34.4175 26.5954 34.1188C27.1942 33.8202 27.9427 33.6709 28.5415 33.6709C29.1403 33.6709 29.8889 33.8202 30.4877 33.9695C31.0865 34.2681 31.6853 34.7161 32.2841 35.164C32.7332 35.612 33.1824 36.2092 33.3321 36.8064C33.4818 37.2544 33.6315 37.8516 33.7812 38.4489C33.7812 38.8968 33.7812 39.4941 33.7812 39.942C33.6315 40.3899 33.6315 40.8379 33.4818 41.2858C33.4818 41.7337 33.3321 42.0324 33.3321 42.4803C33.3321 42.7789 33.3321 43.0775 33.6315 43.3762L34.8291 45.1679L33.0326 46.8103L31.2362 45.1679C30.9368 44.8693 30.6374 44.5707 30.4877 44.1227C30.338 43.6748 30.338 43.3762 30.338 42.9282C30.338 42.4803 30.4877 42.0324 30.4877 41.5844C30.6374 41.1365 30.6374 40.6886 30.6374 40.2406C30.6374 39.7927 30.6374 39.3447 30.4877 38.8968C30.338 38.4489 30.0386 38.0009 29.7392 37.553C29.5895 37.2544 29.2901 37.1051 28.9906 36.9558C28.6912 36.8064 28.3918 36.8064 28.0924 36.8064C27.793 36.8064 27.4936 36.9558 27.1942 37.1051C26.8948 37.2544 26.5954 37.4037 26.296 37.7023C25.9966 38.0009 25.6972 38.4489 25.3978 38.7475C25.248 39.0461 25.0983 39.3448 24.9486 39.7927C24.7989 40.0913 24.7989 40.3899 24.7989 40.5392C24.7989 40.6886 24.6492 40.8379 24.4995 40.9872C24.3498 41.2858 23.9007 41.2858 23.6013 41.1365L21.9546 40.8379ZM36.6255 52.0363C36.4758 51.8869 36.3261 51.5883 36.1764 51.2897C36.0267 50.9911 36.0267 50.6925 36.0267 50.3938C36.0267 49.7966 36.3261 49.1993 36.7752 48.7514C36.9249 48.6021 37.2244 48.4528 37.5238 48.3035C37.8232 48.1541 38.1226 48.1542 38.422 48.1542C39.3202 48.1542 40.2184 48.7514 40.6675 49.6473C40.8172 49.9459 40.8172 50.2445 40.8172 50.5431C40.8172 50.8418 40.6675 51.1404 40.6675 51.439C40.5178 51.7376 40.3681 51.8869 40.0687 52.1856C39.919 52.3349 39.6196 52.6335 39.3202 52.6335C38.7214 52.7828 38.1226 52.7828 37.6735 52.6335C37.0747 52.4842 36.7752 52.3349 36.6255 52.0363Z" fill="#D5DAE5"/>
<path d="M99.8006 60.2486L90.3693 93.8437C90.0699 94.8889 88.8722 95.6355 87.6746 95.1875L54.8895 85.6316C53.8415 85.3329 53.093 84.1385 53.5421 82.944L66.2669 39.7928C66.5664 38.7476 67.764 38.0011 68.9616 38.449L92.7645 45.3174L99.8006 60.2486Z" fill="white" stroke="#D5DAE5" stroke-width="3" stroke-miterlimit="10"/>
<path opacity="0.1" d="M142.017 71.1481V124.751C142.017 128.036 139.322 130.724 136.029 130.724H50.8474C47.5539 130.724 44.8592 128.036 44.8592 124.751V83.3917H79.7402C83.1834 83.3917 86.6266 82.1972 89.1716 79.9575L98.6029 72.1933C101.298 70.103 104.591 68.7592 108.034 68.7592H141.568C141.867 69.5057 142.017 70.2523 142.017 71.1481Z" fill="#F9F2FC"/>
<path d="M92.7645 45.4663L89.9201 54.873C89.6207 56.0674 90.3692 57.5606 91.5669 58.0085L99.8006 60.5468" fill="#D5DAE5"/>
<path d="M74.9495 58.0084C75.3986 57.8591 75.8477 57.7098 76.2968 57.5605C76.7459 57.4112 77.195 57.2618 77.7938 57.2618C78.3927 57.2618 78.8418 57.2618 79.4406 57.2618C80.0394 57.2618 80.6382 57.4112 81.237 57.5605C81.9856 57.7098 82.7341 58.1577 83.4826 58.6056C84.0814 59.0536 84.5305 59.5015 84.9796 60.0988C85.279 60.696 85.5784 61.2933 85.7282 61.8905C85.8779 62.6371 85.7282 63.3836 85.5785 64.1302C85.4287 64.7274 85.1293 65.3247 84.6802 65.9219C84.3808 66.3699 83.9317 66.8178 83.4826 67.1164C83.0335 67.4151 82.5844 67.7137 82.1353 67.863L80.7879 68.6095C80.4885 68.7589 80.0394 68.9082 79.74 69.0575C79.4406 69.2068 79.1412 69.5054 79.1412 69.804L78.243 71.7451L75.698 70.9985L76.1471 68.4602C76.1471 68.0123 76.4465 67.7137 76.7459 67.4151C77.0453 67.1164 77.3447 66.8178 77.7938 66.6685C78.243 66.5192 78.6921 66.3699 78.9915 66.2206C79.4406 66.0712 79.8897 65.9219 80.3388 65.6233C80.7879 65.474 81.0873 65.1754 81.5364 64.8767C81.8359 64.5781 82.1353 64.1302 82.285 63.5329C82.4347 63.2343 82.4347 62.9357 82.4347 62.6371C82.4347 62.3384 82.285 62.0398 82.1353 61.7412C81.9856 61.4426 81.6862 61.2933 81.3867 60.9946C81.0873 60.8453 80.7879 60.696 80.3388 60.5467C79.8897 60.3974 79.4406 60.3974 78.8418 60.3974C78.5424 60.3974 78.0933 60.3974 77.7938 60.5467C77.4944 60.5467 77.195 60.696 77.0453 60.696C76.8956 60.696 76.7459 60.8453 76.4465 60.696C76.1471 60.696 75.8477 60.3974 75.8477 60.0988L74.9495 58.0084ZM72.5542 76.3738C72.7039 76.0751 72.7039 75.7765 73.0033 75.6272C73.153 75.3286 73.4524 75.1793 73.6021 75.03C74.201 74.7313 74.7998 74.7313 75.2489 74.8806C75.5483 75.03 75.8477 75.1793 75.9974 75.3286C76.1471 75.4779 76.4465 75.7765 76.5962 75.9258C77.195 76.971 76.7459 78.4641 75.698 79.0614C75.0992 79.36 74.5004 79.36 74.0513 79.2107C73.7518 79.0614 73.4524 79.0614 73.3027 78.7628C73.0033 78.6134 72.8536 78.3148 72.7039 78.1655C72.5542 77.8669 72.5542 77.7176 72.4045 77.4189C72.4045 76.971 72.4045 76.6724 72.5542 76.3738Z" fill="#D5DAE5"/>
<path d="M176.598 117.584L145.759 134.307C144.711 134.904 143.364 134.456 142.915 133.411L127.346 103.4C126.897 102.354 127.196 101.011 128.244 100.563L168.364 79.3604C169.412 78.7632 170.76 79.2111 171.209 80.2563L182.437 102.056L176.598 117.584Z" fill="white" stroke="#D5DAE5" stroke-width="3" stroke-miterlimit="10"/>
<path d="M182.437 102.205L173.754 106.684C172.706 107.281 172.107 108.924 172.706 110.118L176.598 117.733" fill="#D5DAE5"/>
<path d="M161.029 98.174C161.478 98.3233 161.927 98.6219 162.377 98.7712C162.826 98.9205 163.275 99.2191 163.724 99.6671C164.173 100.115 164.472 100.414 164.922 100.862C165.371 101.31 165.67 101.907 165.969 102.355C166.419 102.952 166.568 103.848 166.718 104.594C166.868 105.341 166.718 106.087 166.718 106.834C166.419 107.431 166.269 108.178 165.969 108.626C165.52 109.223 164.772 109.671 164.323 109.97C163.724 110.268 163.125 110.567 162.377 110.567C161.778 110.716 161.179 110.716 160.58 110.567C159.981 110.418 159.532 110.268 159.083 110.119L157.736 109.522C157.436 109.372 156.987 109.223 156.688 109.074C156.388 108.924 155.939 108.924 155.64 109.223L153.544 109.97L152.346 107.73L154.442 106.386C154.742 106.087 155.191 106.087 155.64 106.087C156.089 106.087 156.538 106.087 156.987 106.386C157.436 106.535 157.885 106.834 158.185 106.983C158.634 107.133 159.083 107.431 159.532 107.581C159.981 107.73 160.43 107.879 160.88 107.879C161.329 107.879 161.927 107.73 162.377 107.431C162.975 107.133 163.424 106.535 163.574 105.938C163.724 105.64 163.574 105.341 163.574 104.893C163.424 104.594 163.424 104.296 163.125 103.848C162.975 103.4 162.526 103.101 162.227 102.504C162.077 102.355 161.628 101.907 161.329 101.907C161.179 101.757 160.73 101.608 160.73 101.459C160.58 101.309 160.43 101.31 160.281 101.011C160.131 100.862 160.131 100.414 160.281 100.115L161.029 98.174ZM146.209 109.223C146.508 109.074 146.807 108.924 147.107 109.074C147.406 108.924 147.706 109.074 148.005 109.074C148.604 109.372 149.053 109.671 149.352 110.119C149.502 110.418 149.502 110.716 149.502 111.015C149.502 111.164 149.502 111.612 149.502 111.911C149.352 112.508 148.754 112.956 148.304 113.254C148.005 113.404 147.706 113.404 147.406 113.404C147.256 113.404 146.807 113.404 146.508 113.404C145.909 113.105 145.46 112.807 145.161 112.359C145.161 111.911 145.161 111.612 145.161 111.313C145.011 111.015 145.161 110.716 145.161 110.418C145.31 110.119 145.46 109.82 145.46 109.671C145.759 109.522 146.059 109.372 146.209 109.223Z" fill="#D5DAE5"/>
<path d="M140.22 82.6448H110.28C107.435 82.6448 104.591 83.69 102.345 85.4817L94.4111 91.9021C92.1655 93.6939 89.3211 94.739 86.4768 94.739H52.3443C48.9011 94.739 46.0567 97.4267 46.0567 100.861C46.0567 101.159 46.0567 101.458 46.2064 101.757L52.3443 134.456C52.7934 137.592 55.4881 139.831 58.6319 139.831H131.388C134.532 139.831 137.077 137.592 137.675 134.605L146.358 89.8117C146.807 86.5269 144.712 83.242 141.119 82.7941C140.819 82.6448 140.52 82.6448 140.22 82.6448Z" fill="white"/>
<path d="M148.604 76.6724H112.675C109.232 76.6724 105.789 77.8669 103.244 80.1065L93.8123 87.7214C91.1176 89.9611 87.8241 91.1556 84.3809 91.1556H43.5118C39.4698 91.1556 36.0266 94.4405 36.0266 98.6212C36.0266 98.9198 36.0266 99.3678 36.1763 99.6664L43.6615 139.234C44.2603 142.967 47.4041 145.804 51.1467 145.804H137.975C141.718 145.804 144.861 143.116 145.46 139.533L155.79 85.3325C156.388 81.301 153.844 77.4189 149.652 76.8217C149.352 76.6724 148.903 76.6724 148.604 76.6724Z" fill="white" stroke="#D5DAE5" stroke-width="3" stroke-miterlimit="10"/>
<path d="M109.531 117.584C111.627 117.584 113.423 115.792 113.423 113.702C113.423 111.612 111.627 109.82 109.531 109.82C107.435 109.82 105.639 111.612 105.639 113.702C105.639 115.942 107.286 117.584 109.531 117.584Z" fill="#AAB2C5"/>
<path d="M102.645 124.153H100.699C99.0522 120.57 94.7108 119.226 91.2676 121.018C89.9203 121.615 88.7227 122.81 88.1239 124.153H86.1777C87.8244 119.525 93.2138 117.136 97.7049 118.928C99.8008 119.823 101.747 121.615 102.645 124.153Z" fill="#AAB2C5"/>
<path d="M158.634 158.645C156.838 158.645 157.436 158.794 143.963 145.356C130.789 155.061 112.825 145.655 112.825 129.828C112.825 119.077 121.508 110.417 132.286 110.417C147.855 110.417 157.287 127.737 148.304 140.877L160.88 153.419C162.676 155.36 161.329 158.645 158.634 158.645ZM132.286 116.539C124.951 116.539 118.963 122.511 118.963 129.828C118.963 137.144 124.951 143.116 132.286 143.116C133.035 143.116 133.933 143.116 134.681 142.967C135.43 142.818 136.178 142.668 136.927 142.37C137.676 142.071 138.424 141.772 139.023 141.325C139.771 140.877 140.52 140.279 141.119 139.682C141.718 139.234 142.167 138.637 142.616 138.04C143.065 137.442 143.514 136.696 143.963 136.099C144.262 135.352 144.712 134.606 144.861 133.859C145.161 133.112 145.31 132.366 145.31 131.619C145.46 131.022 145.46 130.425 145.46 129.828C145.61 122.511 139.622 116.539 132.286 116.539Z" fill="#D5DAE5" stroke="#AAB2C5" stroke-width="3" stroke-miterlimit="10"/>
<path d="M79.5905 117.584C81.6864 117.584 83.4828 115.792 83.4828 113.702C83.4828 111.612 81.6864 109.82 79.5905 109.82C77.4947 109.82 75.6982 111.612 75.6982 113.702C75.8479 115.942 77.4947 117.584 79.5905 117.584Z" fill="#AAB2C5"/>
</svg>
