<svg width="56" height="56" viewBox="0 0 56 56" fill="none" xmlns="http://www.w3.org/2000/svg">
<path d="M11.954 15.7986L12.1815 15.8861C12.1949 15.8916 12.2063 15.9013 12.2138 15.9137C12.2214 15.9262 12.2247 15.9407 12.2233 15.955C12.2219 15.9694 12.2159 15.9827 12.2061 15.993C12.1963 16.0033 12.1834 16.01 12.1692 16.0121C11.5497 16.1083 10.722 16.1783 10.225 16.4216C8.57997 17.2213 9.75247 19.3266 10.7482 20.1386C10.7553 20.1445 10.7605 20.1524 10.7633 20.1613C10.766 20.1701 10.7662 20.1795 10.7638 20.1883C10.7614 20.197 10.7564 20.2048 10.7496 20.2106C10.7428 20.2164 10.7344 20.2199 10.7255 20.2208L8.36997 20.5218C8.33729 20.5258 8.30685 20.5405 8.28342 20.5636C8.25998 20.5867 8.24487 20.617 8.24047 20.6496C8.2148 20.8514 8.2218 21.0777 8.26147 21.3286C8.63713 23.7447 9.33655 26.0058 10.3597 28.1116C10.4425 28.2843 10.5802 28.4832 10.7727 28.7083" stroke="#C19FA0" stroke-width="1.5"/>
<path d="M10.7724 28.7084C10.1295 28.7994 9.67395 29.0794 9.40561 29.5484C7.52611 32.8244 10.1441 36.9071 14.0309 35.9201C14.0892 35.905 14.1324 35.9236 14.1604 35.9761C16.6016 40.4561 20.3904 42.4739 25.3009 43.5239C25.3709 43.5396 25.3866 43.5764 25.3954 43.6429" stroke="#FFE3D3" stroke-width="1.5"/>
<path d="M25.3954 43.6428L24.4224 43.7566" stroke="#FDD4C5" stroke-width="1.5"/>
<path d="M24.4224 43.7566C21.1096 44.0663 17.6989 45.6361 16.7626 49.0573C16.7482 49.1098 16.7545 49.1657 16.7803 49.2136C16.806 49.2615 16.8492 49.2977 16.9008 49.3146L18.0559 49.6943" stroke="#B4E1C6" stroke-width="1.5"/>
<path d="M35.4141 44.3603L33.1706 43.837" stroke="#ACD4B8" stroke-width="1.5"/>
<path d="M33.1703 43.8371L31.3958 43.5939" stroke="#FDD4C5" stroke-width="1.5"/>
<path d="M31.3958 43.5939L32.6033 43.2299" stroke="#FFE3D3" stroke-width="1.5"/>
<path d="M32.604 43.2298C36.6868 42.2148 40.353 39.8926 42.2972 36.0863C42.3219 36.0374 42.3628 35.9985 42.4128 35.9762C42.4629 35.9538 42.5191 35.9495 42.572 35.9638C46.6705 37.0663 49.6648 31.2721 46.1753 28.7416" stroke="#FDD4C5" stroke-width="1.5"/>
<path d="M46.1745 28.7415C46.3658 28.2247 46.5186 27.53 46.633 26.6573C47.0705 23.3078 46.738 20.131 45.6355 17.1268C45.555 16.9051 45.3905 16.6409 45.142 16.334C45.0918 16.2722 45.0364 16.2664 44.9757 16.3165L44.0062 17.1145C43.9932 17.1256 43.9769 17.1322 43.9598 17.1331C43.9427 17.1341 43.9258 17.1295 43.9115 17.1201C43.8973 17.1106 43.8865 17.0967 43.8809 17.0805C43.8752 17.0644 43.875 17.0468 43.8802 17.0305C44.3387 15.5617 44.3679 14.0561 43.9677 12.5138" stroke="#B29095" stroke-width="1.5"/>
<path d="M43.9681 12.5139C43.7301 11.4779 41.5864 7.44235 41.0106 11.0736C41.0083 11.0863 41.0021 11.0981 40.9928 11.1072C40.9835 11.1163 40.9716 11.1223 40.959 11.1242C40.9463 11.1262 40.9334 11.124 40.9223 11.118C40.9111 11.1121 40.9022 11.1027 40.8969 11.0911C39.3954 8.0251 36.8859 5.5856 33.4891 4.76135" stroke="#BB999C" stroke-width="1.5"/>
<path d="M33.4891 4.7614C31.8919 4.31806 30.2656 4.27256 28.6101 4.6249" stroke="#C19FA0" stroke-width="1.5"/>
<path d="M28.6098 4.62485C27.0512 5.00402 25.7031 5.73785 24.5656 6.82635C24.5543 6.83713 24.5396 6.8437 24.524 6.84497C24.5085 6.84623 24.4929 6.84212 24.48 6.83331C24.4671 6.82451 24.4576 6.81154 24.4531 6.79658C24.4487 6.78162 24.4494 6.76556 24.4553 6.7511C24.8847 5.62527 25.1087 4.45802 25.1273 3.24935C25.1276 3.23115 25.1228 3.21324 25.1134 3.19763C25.104 3.18202 25.0905 3.16932 25.0744 3.16097C25.0582 3.15261 25.04 3.14892 25.0219 3.15031C25.0037 3.15171 24.9863 3.15813 24.9716 3.16885C23.9858 3.89685 22.9328 4.52219 21.8128 5.04485C19.5413 6.10535 17.4536 6.88235 16.4071 9.38135C16.401 9.39551 16.3905 9.40732 16.3771 9.41504C16.3638 9.42276 16.3483 9.42597 16.333 9.4242C16.3177 9.42244 16.3033 9.41578 16.2921 9.40523C16.2809 9.39467 16.2733 9.38078 16.2706 9.3656C16.1574 8.64227 16.0443 7.91427 15.9311 7.1816C15.8733 6.8071 15.6738 6.5061 15.2643 6.78085C13.4111 8.0286 12.5396 10.2826 13.4688 12.4316C13.5062 12.5191 13.4805 12.5454 13.3918 12.5104C12.2998 12.0746 9.62409 10.9791 8.72459 12.2846C7.45584 14.1274 10.8526 15.4189 11.9533 15.7986" stroke="#CBA7A5" stroke-width="1.5"/>
<path d="M28.6101 4.62476C28.9321 4.73326 29.082 4.90534 29.0599 5.14101C29.054 5.20401 29.0709 5.26059 29.1106 5.31076L29.4326 5.72551C29.4629 5.76634 29.4682 5.81009 29.4484 5.85676C29.3136 6.16476 29.3994 6.44126 29.2874 6.73526C29.1987 6.96742 29.1048 7.19901 29.0056 7.43001C28.9862 7.47793 28.982 7.53102 28.9934 7.58226C29.0575 7.86459 28.9957 8.13117 28.8079 8.38201C28.774 8.42634 28.7705 8.47242 28.7974 8.52026C28.837 8.59376 28.8417 8.66376 28.8114 8.73026C28.767 8.82592 28.7466 8.82184 28.7501 8.71801C28.7501 8.69584 28.7519 8.66726 28.7554 8.63226C28.7578 8.61503 28.7541 8.59749 28.7448 8.58275C28.7355 8.56802 28.7214 8.55705 28.7048 8.5518C28.6882 8.54655 28.6703 8.54736 28.6542 8.55408C28.6382 8.5608 28.625 8.573 28.6171 8.58851L27.7194 10.2038C27.6867 10.2633 27.6412 10.3105 27.5829 10.3455C27.4429 10.4295 27.4061 10.5438 27.4726 10.6885C27.4913 10.7258 27.4837 10.7568 27.4499 10.7813C25.6579 12.1264 23.7544 13.2797 21.7396 14.241C19.5661 15.2788 17.1284 15.921 15.1736 14.1815C15.146 14.1572 15.1108 14.1432 15.0741 14.1419C15.0374 14.1406 15.0013 14.1521 14.972 14.1743C14.9428 14.1966 14.9221 14.2283 14.9135 14.264C14.905 14.2998 14.9091 14.3374 14.9251 14.3705C14.9969 14.5175 14.1796 14.9113 14.0431 15.0145C14.0195 15.0328 13.9911 15.044 13.9614 15.0468C13.9316 15.0496 13.9017 15.0438 13.8751 15.0303C12.9056 14.5333 12.8356 16.0785 12.0394 15.6515C11.9705 15.6142 11.9396 15.6346 11.9466 15.7128L11.9536 15.7985" stroke="#8E4847" stroke-width="1.5"/>
<path d="M33.4891 4.76135C33.614 5.06002 33.8946 5.20994 34.3309 5.2111C34.3939 5.2111 34.4458 5.23502 34.4866 5.28285C34.6826 5.51035 34.8734 5.6556 34.9486 5.9671C35.4526 8.0496 35.8026 9.51435 35.1691 11.6039C34.2556 14.6244 31.7759 15.3296 28.9951 15.8336C28.5821 15.9089 28.2496 16.1136 27.9941 16.4059C26.8094 17.7604 25.2816 19.2059 23.3076 18.7036C22.8229 18.5811 22.5131 18.4674 22.0074 18.6406C21.4486 18.8319 20.8851 19.0052 20.3169 19.1604C20.2609 19.1755 20.2148 19.2059 20.1786 19.2514C19.9931 19.4847 19.7551 19.6375 19.4646 19.7099C19.3993 19.7262 19.3491 19.7624 19.3141 19.8184L18.8381 20.5726C18.8171 20.6064 18.8154 20.6414 18.8329 20.6776C18.8574 20.7266 18.9466 20.9909 18.7944 20.9734" stroke="#7E3A3E" stroke-width="1.5"/>
<path d="M18.7941 20.9734L18.3759 21.0399" stroke="#C1887A" stroke-width="1.5"/>
<path d="M18.3761 21.0398C16.884 21.3641 15.3708 21.5 13.8367 21.4475C13.7737 21.4452 13.7246 21.4709 13.6896 21.5245C13.6138 21.64 13.5689 21.7975 13.5549 21.997" stroke="#C07567" stroke-width="1.5"/>
<path d="M13.5549 21.9971L12.7149 23.1433C12.7054 23.1562 12.6996 23.1715 12.6981 23.1874C12.6965 23.2033 12.6993 23.2194 12.7061 23.2339C12.7129 23.2484 12.7235 23.2608 12.7367 23.2698C12.75 23.2788 12.7654 23.2841 12.7814 23.2851L14.0904 23.3621C14.1042 23.3627 14.1177 23.3666 14.1296 23.3736C14.1416 23.3805 14.1517 23.3902 14.1591 23.4019C14.1665 23.4136 14.1709 23.4269 14.1721 23.4407C14.1732 23.4545 14.171 23.4683 14.1656 23.4811C13.9416 24.0107 13.6225 24.4716 13.2084 24.8636C13.1999 24.8715 13.1936 24.8815 13.19 24.8925C13.1865 24.9036 13.1858 24.9154 13.1881 24.9268C13.1904 24.9382 13.1955 24.9488 13.2031 24.9576C13.2106 24.9665 13.2202 24.9733 13.2311 24.9773L13.9871 25.2643C14.056 25.29 14.06 25.3238 13.9994 25.3658C13.0124 26.0571 12.9914 30.6403 12.7849 30.6403" stroke="#C1887A" stroke-width="1.5"/>
<path d="M12.7851 30.6404C12.2793 30.0191 12.2146 29.3506 11.6931 28.8309C11.6524 28.7902 11.5982 28.7659 11.5408 28.7626L10.7726 28.7084" stroke="#C28475" stroke-width="1.5"/>
<path d="M39.5214 27.3975C39.1381 25.476 36.5884 24.1232 34.8314 23.8975C32.3866 23.5807 32.3359 26.169 34.1349 26.0937" stroke="#E6A17B" stroke-width="1.5"/>
<path d="M38.0131 29.2824C37.2513 28.7807 36.5804 28.5789 36.0006 28.6769" stroke="#FFE3D3" stroke-width="1.5"/>
<path d="M36.0004 28.6768C33.6939 28.6611 33.1846 31.4506 33.8776 33.1341C34.8874 35.5823 37.6996 34.6916 37.9516 32.3588" stroke="#8A6D60" stroke-width="1.5"/>
<path d="M37.9514 32.3588C38.1812 32.3028 38.3638 32.2083 38.4992 32.0753" stroke="#FFE3D3" stroke-width="1.5"/>
<path d="M38.5991 34.7003C37.2971 34.5288 36.1853 34.8473 35.2636 35.6558C34.7159 36.1353 34.5076 36.7653 34.9679 37.3725C35.8551 38.5415 37.2254 38.2878 38.5169 38.1355" stroke="#FEAB90" stroke-width="1.5"/>
<path d="M31.3961 43.5939C29.3574 43.6919 27.9906 43.8231 25.3954 43.6429" stroke="#FDB899" stroke-width="1.5"/>
<path d="M12.7849 30.6404C12.8234 30.6999 12.842 30.7623 12.8409 30.8276C12.8409 30.8871 12.8665 30.9332 12.9179 30.9659C12.9785 31.0044 12.9966 31.0493 12.9721 31.1006C12.9453 31.1555 12.9546 31.2039 13.0001 31.2459C13.5986 31.8076 13.8786 32.5759 14.2461 33.1761C14.4281 33.4748 14.5891 33.7857 14.7291 34.1089C14.8674 34.4291 15.1439 34.6969 15.3259 35.0136C15.34 35.0379 15.3598 35.0584 15.3835 35.0733C15.4073 35.0883 15.4344 35.0972 15.4624 35.0994L16.3566 35.1659" stroke="#FFCCAD" stroke-width="1.5"/>
<path d="M16.3566 35.1659C15.3189 35.7976 15.8106 37.4776 16.5964 38.0254C17.3197 38.5306 18.2052 38.7441 19.2529 38.6659" stroke="#FDB899" stroke-width="1.5"/>
<path d="M19.2526 38.6659C19.4112 39.0812 19.7111 39.3956 20.1521 39.6091C20.2022 39.6348 20.2098 39.6692 20.1748 39.7124C19.7268 40.2671 20.7943 40.7099 21.1146 41.0774C21.1437 41.1112 21.1577 41.1503 21.1566 41.1946L21.1513 41.3836C21.1502 41.4758 21.1945 41.5143 21.2843 41.4991L21.9791 41.3819C22.0386 41.3726 22.0922 41.3854 22.1401 41.4204C22.5717 41.7389 23.0057 41.7599 23.4421 41.4834C23.4876 41.4542 23.5068 41.4128 23.4998 41.3591C23.3925 40.5681 23.7326 39.8203 24.5201 39.1156" stroke="#FFCCAD" stroke-width="1.5"/>
<path d="M24.5204 39.1156C24.644 39.6966 25.0582 40.2391 25.7629 40.7431" stroke="#96766B" stroke-width="1.5"/>
<path d="M25.7629 40.7431C26.8782 41.3801 28.2099 41.5546 29.7581 41.2664C30.3298 41.1602 30.7614 40.9496 31.0531 40.6346" stroke="#FEAB90" stroke-width="1.5"/>
<path d="M31.0535 40.6345C31.7605 40.2688 32.8455 39.2415 32.681 38.342C32.6576 38.2172 32.5853 38.1705 32.464 38.202C30.6416 38.6687 28.8782 38.8279 27.1737 38.6798" stroke="#96766B" stroke-width="1.5"/>
<path d="M27.1734 38.6799L27.2381 38.6011C27.2453 38.592 27.2495 38.581 27.2503 38.5694C27.2511 38.5578 27.2484 38.5463 27.2426 38.5363C27.2367 38.5263 27.228 38.5183 27.2175 38.5133C27.207 38.5083 27.1953 38.5066 27.1839 38.5084C26.9552 38.5492 26.7954 38.4734 26.7044 38.2809C26.665 38.1982 26.6492 38.1062 26.6587 38.0151C26.6683 37.924 26.7029 37.8373 26.7586 37.7646L27.2469 37.1329C27.2912 37.0757 27.3495 37.0425 27.4219 37.0331C27.4814 37.0238 27.5345 36.9981 27.5811 36.9561C27.6185 36.9223 27.6359 36.8797 27.6336 36.8284C27.6266 36.5962 27.661 36.4136 27.7369 36.2806" stroke="#FFCCAD" stroke-width="1.5"/>
<path d="M27.7369 36.2806C28.2217 37.6368 30.8851 35.7276 29.3609 33.8918C29.2104 33.7098 28.8254 33.3966 28.6574 33.6836" stroke="#FDB899" stroke-width="1.5"/>
<path d="M28.6571 33.6836L27.4899 33.2741C27.4755 33.2688 27.4625 33.2605 27.4517 33.2498C27.4409 33.2391 27.4325 33.2263 27.4272 33.2121C27.4218 33.1979 27.4197 33.1828 27.4208 33.1679C27.422 33.1529 27.4264 33.1384 27.4339 33.1253C27.5704 32.885 27.603 32.6324 27.5319 32.3676C27.5167 32.3092 27.5196 32.2521 27.5406 32.1961C27.6421 31.9149 27.6666 31.6302 27.6141 31.3421C27.5476 30.9816 27.6824 30.6491 27.6684 30.2903C27.6281 29.1196 27.7086 27.8106 27.4496 26.6713C27.2904 25.9661 27.2799 25.1016 27.2711 24.3928C27.2711 24.3646 27.2767 24.3366 27.2875 24.3104C27.2983 24.2843 27.3141 24.2606 27.3341 24.2406L27.4041 24.1741" stroke="#FFCCAD" stroke-width="1.5"/>
<path d="M28.6574 33.6836C29.3976 34.7143 28.7204 35.7433 27.7369 36.2806" stroke="#FDBD9F" stroke-width="1.5"/>
<path d="M27.1736 38.6798L24.6116 38.2125C24.5828 38.2075 24.5533 38.2087 24.5251 38.2162C24.4968 38.2237 24.4705 38.2372 24.4481 38.2558C24.4256 38.2745 24.4074 38.2978 24.3949 38.3242C24.3823 38.3505 24.3756 38.3793 24.3753 38.4085C24.373 38.6407 24.4214 38.8764 24.5206 39.1155" stroke="#967A71" stroke-width="1.5"/>
<path d="M19.2529 38.6658C20.8069 38.4978 22.2559 37.2535 20.5636 35.8395C19.3783 34.8502 17.9759 34.6256 16.3566 35.1658" stroke="#FDBD9F" stroke-width="1.5"/>
<path d="M13.5549 21.997C14.9514 22.0542 16.3374 21.9883 17.7129 21.7993C17.7712 21.7923 17.8284 21.797 17.8844 21.8133C18.2431 21.9183 18.3149 21.276 18.3761 21.0398" stroke="#FDBD9F" stroke-width="1.5"/>
<path d="M43.9681 12.5138C43.7045 13.0061 43.6881 13.6151 43.9191 14.3408C43.929 14.3709 43.9323 14.4028 43.9287 14.4343C43.925 14.4657 43.9146 14.4959 43.8981 14.5228C43.7908 14.7025 43.7441 14.8967 43.7581 15.1055C43.7608 15.1391 43.7545 15.1727 43.7401 15.2031C43.7257 15.2335 43.7035 15.2596 43.6759 15.2788C43.3119 15.5273 42.9969 15.627 42.5191 15.5763C40.9354 15.403 40.6081 16.4023 39.4759 17.1845C39.428 17.2184 39.3971 17.2639 39.3831 17.321C39.277 17.7492 39.2881 17.9895 39.4164 18.042" stroke="#6F2B33" stroke-width="1.5"/>
<path d="M39.4161 18.0421L37.6276 21.0328C37.5915 21.0947 37.5506 21.0982 37.5051 21.0433C36.8174 20.2156 36.5461 19.0588 36.3851 18.0246C36.3834 18.0139 36.3781 18.004 36.3702 17.9965C36.3623 17.9889 36.3522 17.9842 36.3416 17.983C36.3309 17.9818 36.3203 17.9842 36.3114 17.9898C36.3025 17.9954 36.2958 18.004 36.2924 18.0141C35.5971 19.8574 34.5826 21.503 33.2491 22.9508" stroke="#B96E63" stroke-width="1.5"/>
<path d="M33.2494 22.9509C33.1537 23.1107 33.0277 23.1941 32.8714 23.2011C32.8408 23.2026 32.8105 23.1957 32.7839 23.1812C32.7574 23.1667 32.7355 23.1451 32.7209 23.1189C32.2764 22.3186 32.064 21.457 32.0839 20.5341C32.0846 20.5131 32.0787 20.4923 32.0669 20.4748C32.0551 20.4573 32.038 20.444 32.0182 20.4368C31.9984 20.4296 31.9768 20.4288 31.9565 20.4347C31.9362 20.4406 31.9183 20.4527 31.9054 20.4694C31.0881 21.4966 28.7431 24.0324 27.4044 24.1741" stroke="#BB7D71" stroke-width="1.5"/>
<path d="M27.4044 24.1741L27.9784 21.5054" stroke="#BB8276" stroke-width="1.5"/>
<path d="M27.9788 21.5053L28.2781 19.5313C28.2813 19.5076 28.2764 19.4833 28.2641 19.4626C28.2518 19.4418 28.2329 19.4259 28.2105 19.4175C28.1881 19.4091 28.1637 19.4087 28.1412 19.4164C28.1188 19.424 28.0998 19.4393 28.0873 19.4596C27.0151 21.1408 25.579 22.4002 23.7788 23.2378" stroke="#B96E63" stroke-width="1.5"/>
<path d="M23.7781 23.2379L23.0798 23.4531C23.0537 23.4613 23.0259 23.4622 22.9993 23.4557C22.9727 23.4493 22.9484 23.4357 22.929 23.4164C22.9095 23.3972 22.8957 23.373 22.889 23.3465C22.8823 23.3199 22.8829 23.2921 22.8909 23.2659L23.5261 21.1274C23.5304 21.1138 23.5305 21.0994 23.5262 21.0859C23.5219 21.0723 23.5135 21.0604 23.5022 21.0517C23.4908 21.043 23.4769 21.0379 23.4625 21.037C23.448 21.0361 23.4336 21.0396 23.4211 21.0469C22.0841 21.8589 19.5326 23.2011 17.9681 23.1644C17.7534 23.1597 17.6963 23.0623 17.7966 22.8721L18.7941 20.9734" stroke="#BB8276" stroke-width="1.5"/>
<path d="M31.0531 40.6345C29.9069 39.8313 26.6676 39.427 25.7629 40.743" stroke="#955954" stroke-width="1.5"/>
<path d="M32.604 43.2297C32.8898 43.0291 33.3279 42.8424 33.9183 42.6697C34.4911 42.5029 35.1217 42.1943 35.81 41.744C37.196 40.8357 38.0727 39.6982 38.5172 38.1355" stroke="#FDB899" stroke-width="1.5"/>
<path d="M38.5171 38.1356C40.0763 37.5756 41.4028 36.6358 41.4081 34.8386C41.4081 34.7826 41.3801 34.754 41.3241 34.7528L38.5993 34.7003" stroke="#FC9C82" stroke-width="1.5"/>
<path d="M38.5989 34.7003L38.4991 32.0753" stroke="#FDB899" stroke-width="1.5"/>
<path d="M38.4994 32.0753C38.5519 31.3485 38.5507 30.7996 38.4958 30.4286C38.4293 29.9876 38.2683 29.6055 38.0128 29.2823" stroke="#FDD4C5" stroke-width="1.5"/>
<path d="M38.0132 29.2823C37.7309 28.6348 37.4667 28.0467 37.2205 27.5182C36.8828 26.7955 36.4802 26.89 35.8152 26.9653C35.7616 26.9711 35.7161 26.9933 35.6788 27.0318C35.4145 27.303 34.5483 27.4728 34.3558 27.0178C34.228 26.7168 34.4695 26.3737 34.1353 26.0938" stroke="#FDB899" stroke-width="1.5"/>
<path d="M34.1353 26.0938C35.9973 25.6948 37.3167 26.4998 38.82 27.5253C38.9728 27.6291 39.1531 27.6729 39.3608 27.6565C39.4203 27.6507 39.4582 27.6192 39.4745 27.562L39.5217 27.3975" stroke="#E4926D" stroke-width="1.5"/>
<path d="M39.5211 27.3975H39.6839C39.7457 27.3975 39.7766 27.3666 39.7766 27.3048C39.7504 25.315 39.2499 23.2133 38.9506 21.3933C38.918 21.1938 38.8526 21.1821 38.7546 21.3583C38.4816 21.8541 38.2553 22.3727 38.0756 22.914C38.0714 22.9268 38.0644 22.9386 38.0552 22.9484C38.0459 22.9583 38.0346 22.966 38.022 22.9712C38.0094 22.9763 37.9958 22.9787 37.9821 22.9782C37.9684 22.9777 37.955 22.9743 37.9426 22.9683L35.2826 21.6663C35.2601 21.6551 35.2355 21.6487 35.2104 21.6472C35.1853 21.6458 35.1601 21.6494 35.1364 21.6579C35.1127 21.6664 35.091 21.6796 35.0725 21.6966C35.0541 21.7137 35.0392 21.7343 35.0289 21.7573C34.7617 22.3488 34.4001 22.8738 33.9439 23.3323C33.9211 23.355 33.8933 23.372 33.8629 23.3818C33.8324 23.3915 33.8002 23.3937 33.7689 23.3883C33.5601 23.3533 33.3868 23.2075 33.2491 22.9508" stroke="#FDB899" stroke-width="1.5"/>
<path d="M33.1704 43.837C33.2836 44.2489 33.332 44.6695 33.3156 45.0988C33.2474 46.8645 30.2741 47.6643 28.9109 47.6975" stroke="#ABAA7E" stroke-width="1.5"/>
<path d="M28.9111 47.6975C28.8283 47.659 28.7402 47.6479 28.6469 47.6643" stroke="#B3B68C" stroke-width="1.5"/>
<path d="M28.6471 47.6643C28.0381 46.8716 26.6766 45.2913 25.6651 45.1566C25.6138 45.1496 25.57 45.1268 25.5339 45.0883C25.4452 44.995 25.339 44.9618 25.2154 44.9886C25.15 45.0026 25.1104 44.9769 25.0964 44.9116C24.9914 44.4216 24.5346 44.7961 24.3701 45.0358" stroke="#FDB899" stroke-width="1.5"/>
<path d="M24.3702 45.0358C24.2991 44.5062 24.3166 44.0798 24.4227 43.7566" stroke="#B3B68C" stroke-width="1.5"/>
<path d="M37.9519 32.3589C38.1286 31.0621 37.7156 29.4819 36.4959 28.9149C36.3337 28.839 36.1686 28.7597 36.0006 28.6769" stroke="#89898C" stroke-width="1.5"/>
<path d="M27.9784 21.5053L27.5269 21.353C27.4709 21.3344 27.4219 21.3454 27.3799 21.3863C26.415 22.3266 25.3505 23.1351 24.1861 23.8118C23.9026 23.9774 23.6145 23.9809 23.3216 23.8223C23.3119 23.8169 23.3038 23.8089 23.2984 23.7992C23.293 23.7894 23.2904 23.7784 23.291 23.7673C23.2915 23.7561 23.2952 23.7454 23.3015 23.7362C23.3079 23.7271 23.3167 23.7199 23.3269 23.7155L23.8816 23.481C23.8982 23.474 23.913 23.4634 23.925 23.45C23.9369 23.4365 23.9456 23.4206 23.9505 23.4034C23.9554 23.3863 23.9563 23.3683 23.9532 23.3508C23.95 23.3333 23.9429 23.3168 23.9324 23.3025C23.8962 23.2524 23.8449 23.2308 23.7784 23.2378" stroke="#FDBD9F" stroke-width="1.5"/>
<path d="M46.1745 28.7416C44.8218 28.1011 44.4035 29.8669 44.0115 30.6964C43.8319 31.0732 43.7128 31.0551 43.6545 30.6421C43.4935 29.4871 43.3833 28.1624 43.1173 27.0949C42.8151 25.8827 42.3863 24.7388 41.831 23.6631C41.7587 23.5219 41.7832 23.4 41.9045 23.2974L43.0105 22.3541C43.0665 22.3074 43.0618 22.2672 42.9965 22.2334C41.1783 21.3094 40.2298 19.9111 39.416 18.0421" stroke="#B1665C" stroke-width="1.5"/>
<path d="M35.4141 44.3604C37.7416 45.3299 39.3201 46.3063 40.1234 48.8368C40.2599 49.2656 39.9431 49.2516 39.7016 49.3513C36.6181 50.637 33.4045 51.3609 30.0609 51.5231" stroke="#95C3AD" stroke-width="1.5"/>
<path d="M24.3701 45.0359C25.3326 46.5001 26.7583 47.3762 28.6471 47.6644" stroke="#B5C59A" stroke-width="1.5"/>
<path d="M28.9114 47.6976C29 48.0301 29.1599 48.3066 29.3909 48.5271C29.4017 48.5375 29.4092 48.5509 29.4123 48.5656C29.4155 48.5803 29.4141 48.5957 29.4085 48.6096C29.4028 48.6235 29.3931 48.6355 29.3806 48.6438C29.3681 48.6522 29.3534 48.6566 29.3384 48.6566C26.5979 48.6023 23.4374 47.6958 22.9474 44.5721C22.9392 44.5254 22.9118 44.5021 22.8651 44.5021C22.8336 44.5021 22.8056 44.5207 22.7811 44.5581C22.7508 44.6047 22.742 44.6549 22.7549 44.7086C23.4759 47.9461 26.5629 48.7773 29.4959 48.8736C29.5612 48.8759 29.6096 48.9051 29.6411 48.9611C30.0331 49.6541 30.0926 50.8458 30.0611 51.5231" stroke="#62B77F" stroke-width="1.5"/>
<path d="M30.0613 51.5231C27.2228 51.6339 24.4222 51.3802 21.6595 50.7618C20.4905 50.4993 19.2515 50.0776 18.0563 49.6943" stroke="#9DCFBB" stroke-width="1.5"/>
<path d="M45.3209 29.6323C44.5351 29.956 44.1414 30.6945 43.9576 31.4803C43.8036 32.1348 43.1876 33.9758 43.7319 34.4728C43.9769 34.6956 44.237 34.7481 44.5124 34.6303C45.903 34.0353 46.6065 32.9357 46.6229 31.3315C46.631 30.5382 46.2472 29.9724 45.4714 29.634C45.4212 29.6119 45.371 29.6113 45.3209 29.6323Z" stroke="#FC9C82" stroke-width="1.5"/>
<path d="M10.3212 30.2326C9.20298 31.6134 10.0535 33.5594 11.3817 34.4151C12.0257 34.8299 13.3697 34.8946 13.0617 33.7746C12.7397 32.6021 12.5087 31.5644 11.947 30.4636C11.5655 29.7146 10.8812 29.5396 10.3212 30.2326Z" stroke="#FDB899" stroke-width="1.5"/>
<path d="M21.7921 23.8819C20.1139 24.0079 17.4854 25.2836 17.0934 27.0949C17.083 27.1431 17.0855 27.1932 17.1009 27.24C17.1162 27.2869 17.1436 27.3289 17.1805 27.3616C17.2174 27.3944 17.2623 27.4168 17.3106 27.4265C17.3589 27.4362 17.409 27.4329 17.4556 27.4169C19.0411 26.8726 20.1471 25.4691 22.0529 26.1044C22.9349 26.3984 23.6472 26.2811 23.8659 25.2539C24.1337 23.9886 22.7039 23.8136 21.7921 23.8819Z" stroke="#E6A580" stroke-width="1.5"/>
<path d="M19.4106 34.2296C22.7479 36.2386 24.3299 30.0488 21.2254 28.7468" stroke="#897266" stroke-width="1.5"/>
<path d="M21.2248 28.7467C21.1758 28.0362 19.6778 28.6662 19.2211 28.9777C18.0083 29.8055 17.6041 31.0812 18.0818 32.5127C18.3875 33.4251 18.8302 33.9973 19.4101 34.2295" stroke="#FEE7D8" stroke-width="1.5"/>
<path d="M21.2251 28.7469C19.1356 28.2744 18.3604 30.7839 18.5424 32.3554C18.6205 33.0309 18.9099 33.6556 19.4104 34.2296" stroke="#89898C" stroke-width="1.5"/>
<path d="M20.8993 32.2362C20.9677 32.2255 21.033 32.2 21.0916 32.161C21.1501 32.122 21.2008 32.0703 21.2407 32.009C21.2806 31.9476 21.309 31.8778 21.3241 31.8034C21.3393 31.729 21.3409 31.6516 21.329 31.5756C21.3171 31.4995 21.2919 31.4263 21.2547 31.3601C21.2175 31.2939 21.1692 31.2361 21.1125 31.1899C21.0557 31.1436 20.9917 31.11 20.924 31.0907C20.8563 31.0715 20.7863 31.0671 20.7179 31.0778C20.6496 31.0886 20.5842 31.1141 20.5257 31.1531C20.4671 31.1921 20.4164 31.2438 20.3765 31.3051C20.3366 31.3665 20.3082 31.4363 20.2931 31.5107C20.2779 31.5851 20.2763 31.6625 20.2882 31.7385C20.3001 31.8146 20.3254 31.8878 20.3625 31.954C20.3997 32.0202 20.448 32.078 20.5048 32.1242C20.5615 32.1705 20.6256 32.2041 20.6933 32.2233C20.761 32.2426 20.831 32.2469 20.8993 32.2362Z" stroke="#89898C" stroke-width="1.5"/>
<path d="M36.2649 31.6045C36.2649 31.4578 36.2067 31.3172 36.103 31.2135C35.9993 31.1098 35.8586 31.0515 35.7119 31.0515C35.5653 31.0515 35.4246 31.1098 35.3209 31.2135C35.2172 31.3172 35.1589 31.4578 35.1589 31.6045C35.1589 31.7512 35.2172 31.8918 35.3209 31.9955C35.4246 32.0993 35.5653 32.1575 35.7119 32.1575C35.8586 32.1575 35.9993 32.0993 36.103 31.9955C36.2067 31.8918 36.2649 31.7512 36.2649 31.6045Z" stroke="#89898C" stroke-width="1.5"/>
<path d="M28.6098 4.62485C28.9318 4.73335 29.0818 4.90544 29.0596 5.1411C29.0538 5.2041 29.0707 5.26069 29.1103 5.31085L29.4323 5.7256C29.4627 5.76644 29.4679 5.81019 29.4481 5.85685C29.3133 6.16485 29.3991 6.44135 29.2871 6.73535C29.1984 6.96752 29.1045 7.1991 29.0053 7.4301C28.986 7.47803 28.9817 7.53112 28.9931 7.58235C29.0573 7.86469 28.9954 8.13127 28.8076 8.3821C28.7738 8.42644 28.7703 8.47252 28.7971 8.52035C28.8368 8.59385 28.8414 8.66385 28.8111 8.73035C28.7668 8.82602 28.7463 8.82194 28.7498 8.7181C28.7498 8.69594 28.7516 8.66735 28.7551 8.63235C28.7576 8.61513 28.7538 8.59758 28.7445 8.58285C28.7353 8.56812 28.7211 8.55715 28.7045 8.5519C28.6879 8.54665 28.67 8.54746 28.6539 8.55418C28.6379 8.5609 28.6247 8.5731 28.6168 8.5886L27.7191 10.2039C27.6864 10.2634 27.6409 10.3106 27.5826 10.3456C27.4426 10.4296 27.4058 10.5439 27.4723 10.6886C27.491 10.7259 27.4834 10.7569 27.4496 10.7814C25.6576 12.1265 23.7542 13.2798 21.7393 14.2411C19.5658 15.2789 17.1281 15.9211 15.1733 14.1816C15.1457 14.1573 15.1106 14.1433 15.0738 14.142C15.0371 14.1407 15.001 14.1522 14.9718 14.1744C14.9425 14.1967 14.9218 14.2284 14.9133 14.2641C14.9047 14.2999 14.9088 14.3375 14.9248 14.3706C14.9966 14.5176 14.1793 14.9114 14.0428 15.0146C14.0192 15.0329 13.9909 15.0441 13.9611 15.0469C13.9314 15.0497 13.9015 15.0439 13.8748 15.0304C12.9053 14.5334 12.8353 16.0786 12.0391 15.6516C11.9703 15.6143 11.9393 15.6347 11.9463 15.7129L11.9533 15.7986C10.8526 15.4189 7.45584 14.1274 8.72459 12.2846C9.62409 10.9791 12.2998 12.0746 13.3918 12.5104C13.4805 12.5454 13.5062 12.5191 13.4688 12.4316C12.5396 10.2826 13.4111 8.0286 15.2643 6.78085C15.6738 6.5061 15.8733 6.8071 15.9311 7.1816C16.0443 7.91427 16.1574 8.64227 16.2706 9.3656C16.2733 9.38078 16.2809 9.39467 16.2921 9.40523C16.3033 9.41578 16.3177 9.42244 16.333 9.4242C16.3483 9.42597 16.3638 9.42276 16.3771 9.41504C16.3905 9.40732 16.401 9.39551 16.4071 9.38135C17.4536 6.88235 19.5413 6.10535 21.8128 5.04485C22.9328 4.52219 23.9858 3.89685 24.9716 3.16885C24.9863 3.15813 25.0037 3.15171 25.0219 3.15031C25.04 3.14892 25.0582 3.15261 25.0744 3.16097C25.0905 3.16932 25.104 3.18202 25.1134 3.19763C25.1228 3.21324 25.1276 3.23115 25.1273 3.24935C25.1087 4.45802 24.8847 5.62527 24.4553 6.7511C24.4494 6.76556 24.4487 6.78162 24.4531 6.79658C24.4576 6.81154 24.4671 6.82451 24.48 6.83331C24.4929 6.84212 24.5085 6.84623 24.524 6.84497C24.5396 6.8437 24.5543 6.83713 24.5656 6.82635C25.7031 5.73785 27.0512 5.00402 28.6098 4.62485Z" fill="#974F4C"/>
<path d="M33.4895 4.7614C33.6143 5.06006 33.8949 5.20998 34.3312 5.21115C34.3942 5.21115 34.4461 5.23506 34.487 5.2829C34.683 5.5104 34.8737 5.65565 34.949 5.96715C35.453 8.04965 35.803 9.5144 35.1695 11.6039C34.256 14.6244 31.7762 15.3296 28.9955 15.8336C28.5825 15.9089 28.25 16.1136 27.9945 16.4059C26.8097 17.7604 25.282 19.2059 23.308 18.7036C22.8232 18.5811 22.5135 18.4674 22.0077 18.6406C21.4489 18.832 20.8854 19.0052 20.3172 19.1604C20.2612 19.1756 20.2151 19.2059 20.179 19.2514C19.9935 19.4847 19.7555 19.6376 19.465 19.7099C19.3996 19.7262 19.3495 19.7624 19.3145 19.8184L18.8385 20.5726C18.8175 20.6065 18.8157 20.6415 18.8332 20.6776C18.8577 20.7266 18.947 20.9909 18.7947 20.9734L18.3765 21.0399C16.8843 21.3642 15.3711 21.5001 13.837 21.4476C13.774 21.4453 13.725 21.471 13.69 21.5246C13.6141 21.6401 13.5692 21.7976 13.5552 21.9971L12.7152 23.1434C12.7058 23.1563 12.7 23.1716 12.6984 23.1875C12.6969 23.2034 12.6997 23.2195 12.7065 23.234C12.7133 23.2485 12.7238 23.2609 12.7371 23.2699C12.7503 23.2789 12.7657 23.2842 12.7817 23.2851L14.0907 23.3621C14.1045 23.3628 14.118 23.3667 14.13 23.3736C14.1419 23.3806 14.152 23.3903 14.1594 23.402C14.1668 23.4137 14.1713 23.427 14.1724 23.4408C14.1736 23.4545 14.1713 23.4684 14.166 23.4811C13.942 24.0108 13.6229 24.4716 13.2087 24.8636C13.2002 24.8716 13.1939 24.8816 13.1904 24.8926C13.1868 24.9037 13.1862 24.9155 13.1884 24.9269C13.1907 24.9382 13.1959 24.9489 13.2034 24.9577C13.2109 24.9666 13.2206 24.9733 13.2315 24.9774L13.9875 25.2644C14.0563 25.2901 14.0604 25.3239 13.9997 25.3659C13.0127 26.0571 12.9917 30.6404 12.7852 30.6404C12.2795 30.0191 12.2147 29.3506 11.6932 28.8309C11.6526 28.7902 11.5984 28.766 11.541 28.7626L10.7727 28.7084C10.5802 28.4832 10.4425 28.2843 10.3597 28.1116C9.33655 26.0058 8.63713 23.7448 8.26147 21.3286C8.2218 21.0778 8.2148 20.8515 8.24047 20.6496C8.24487 20.617 8.25998 20.5868 8.28342 20.5637C8.30685 20.5406 8.33729 20.5259 8.36997 20.5219L10.7255 20.2209C10.7344 20.22 10.7428 20.2164 10.7496 20.2107C10.7564 20.2049 10.7614 20.1971 10.7638 20.1883C10.7662 20.1796 10.766 20.1702 10.7633 20.1613C10.7605 20.1525 10.7553 20.1446 10.7482 20.1386C9.75247 19.3266 8.57997 17.2214 10.225 16.4216C10.722 16.1784 11.5497 16.1084 12.1692 16.0121C12.1834 16.0101 12.1963 16.0034 12.2061 15.9931C12.2159 15.9828 12.2219 15.9694 12.2233 15.9551C12.2247 15.9408 12.2214 15.9263 12.2138 15.9138C12.2063 15.9014 12.1949 15.8916 12.1815 15.8861L11.954 15.7986L11.947 15.7129C11.94 15.6347 11.9709 15.6143 12.0397 15.6516C12.836 16.0786 12.906 14.5334 13.8755 15.0304C13.9021 15.044 13.932 15.0497 13.9618 15.0469C13.9915 15.0441 14.0198 15.0329 14.0435 15.0146C14.18 14.9114 14.9972 14.5176 14.9255 14.3706C14.9094 14.3376 14.9053 14.2999 14.9139 14.2642C14.9225 14.2284 14.9431 14.1967 14.9724 14.1745C15.0016 14.1522 15.0377 14.1408 15.0745 14.1421C15.1112 14.1434 15.1464 14.1574 15.174 14.1816C17.1287 15.9211 19.5665 15.2789 21.74 14.2411C23.7548 13.2798 25.6582 12.1266 27.4502 10.7814C27.4841 10.7569 27.4916 10.726 27.473 10.6886C27.4065 10.544 27.4432 10.4296 27.5832 10.3456C27.6416 10.3106 27.687 10.2634 27.7197 10.2039L28.6175 8.58865C28.6254 8.57314 28.6385 8.56094 28.6546 8.55422C28.6706 8.5475 28.6885 8.5467 28.7051 8.55195C28.7217 8.5572 28.7359 8.56816 28.7452 8.5829C28.7544 8.59763 28.7582 8.61517 28.7557 8.6324C28.7522 8.6674 28.7505 8.69598 28.7505 8.71815C28.747 8.82198 28.7674 8.82606 28.8117 8.7304C28.842 8.6639 28.8374 8.5939 28.7977 8.5204C28.7709 8.47256 28.7744 8.42648 28.8082 8.38215C28.9961 8.13131 29.0579 7.86473 28.9937 7.5824C28.9823 7.53116 28.9866 7.47807 29.006 7.43015C29.1051 7.19915 29.1991 6.96756 29.2877 6.7354C29.3997 6.4414 29.314 6.1649 29.4487 5.8569C29.4686 5.81023 29.4633 5.76648 29.433 5.72565L29.111 5.3109C29.0713 5.26073 29.0544 5.20415 29.0602 5.14115C29.0824 4.90548 28.9325 4.7334 28.6105 4.6249C30.266 4.27256 31.8923 4.31806 33.4895 4.7614Z" fill="#844042"/>
<path d="M33.4889 4.76135C36.8856 5.5856 39.3951 8.0251 40.8966 11.0911C40.9019 11.1027 40.9108 11.1121 40.922 11.118C40.9331 11.124 40.946 11.1262 40.9587 11.1242C40.9713 11.1223 40.9832 11.1163 40.9925 11.1072C41.0018 11.0981 41.008 11.0863 41.0103 11.0736C41.5861 7.44235 43.7298 11.4779 43.9678 12.5139C43.7042 13.0062 43.6878 13.6152 43.9188 14.3409C43.9288 14.371 43.932 14.4029 43.9284 14.4343C43.9248 14.4658 43.9143 14.496 43.8978 14.5229C43.7905 14.7025 43.7438 14.8968 43.7578 15.1056C43.7605 15.1391 43.7543 15.1728 43.7398 15.2032C43.7254 15.2336 43.7032 15.2597 43.6756 15.2789C43.3116 15.5274 42.9966 15.6271 42.5188 15.5764C40.9351 15.4031 40.6078 16.4024 39.4756 17.1846C39.4278 17.2184 39.3968 17.2639 39.3828 17.3211C39.2767 17.7493 39.2878 17.9896 39.4161 18.0421L37.6276 21.0329C37.5914 21.0947 37.5506 21.0982 37.5051 21.0434C36.8174 20.2156 36.5461 19.0589 36.3851 18.0246C36.3833 18.0139 36.378 18.004 36.3701 17.9965C36.3622 17.9889 36.3522 17.9842 36.3415 17.983C36.3308 17.9818 36.3202 17.9842 36.3113 17.9898C36.3024 17.9955 36.2957 18.004 36.2923 18.0141C35.597 19.8574 34.5826 21.503 33.2491 22.9509C33.1534 23.1107 33.0274 23.1941 32.8711 23.2011C32.8405 23.2026 32.8103 23.1957 32.7837 23.1812C32.7571 23.1666 32.7352 23.145 32.7206 23.1189C32.2761 22.3185 32.0638 21.4569 32.0836 20.5341C32.0844 20.513 32.0784 20.4922 32.0666 20.4747C32.0548 20.4572 32.0378 20.4439 32.0179 20.4367C31.9981 20.4295 31.9765 20.4288 31.9562 20.4347C31.9359 20.4405 31.918 20.4527 31.9051 20.4694C31.0879 21.4966 28.7428 24.0324 27.4041 24.1741L27.9781 21.5054L28.2773 19.5314C28.2806 19.5076 28.2757 19.4833 28.2634 19.4626C28.2511 19.4418 28.2322 19.4259 28.2098 19.4175C28.1874 19.4091 28.163 19.4087 28.1405 19.4164C28.1181 19.424 28.0991 19.4393 28.0866 19.4596C27.0144 21.1408 25.5783 22.4002 23.7781 23.2379L23.0798 23.4531C23.0537 23.4613 23.0259 23.4622 22.9993 23.4557C22.9727 23.4492 22.9484 23.4356 22.929 23.4164C22.9095 23.3971 22.8957 23.3729 22.889 23.3464C22.8823 23.3199 22.8829 23.292 22.8909 23.2659L23.5261 21.1274C23.5304 21.1138 23.5305 21.0993 23.5262 21.0858C23.5219 21.0723 23.5135 21.0604 23.5022 21.0517C23.4908 21.043 23.4769 21.0378 23.4625 21.037C23.448 21.0361 23.4336 21.0396 23.4211 21.0469C22.0841 21.8589 19.5326 23.2011 17.9681 23.1644C17.7534 23.1597 17.6963 23.0623 17.7966 22.8721L18.7941 20.9734C18.9463 20.9909 18.8571 20.7266 18.8326 20.6776C18.8151 20.6414 18.8168 20.6064 18.8378 20.5726L19.3139 19.8184C19.3489 19.7624 19.399 19.7262 19.4643 19.7099C19.7548 19.6375 19.9929 19.4847 20.1784 19.2514C20.2145 19.2059 20.2606 19.1755 20.3166 19.1604C20.8848 19.0052 21.4483 18.8319 22.0071 18.6406C22.5128 18.4674 22.8226 18.5811 23.3074 18.7036C25.2814 19.2059 26.8091 17.7604 27.9938 16.4059C28.2493 16.1136 28.5819 15.9089 28.9949 15.8336C31.7756 15.3296 34.2553 14.6244 35.1688 11.6039C35.8023 9.51435 35.4523 8.0496 34.9483 5.9671C34.8731 5.6556 34.6824 5.51035 34.4864 5.28285C34.4455 5.23502 34.3936 5.2111 34.3306 5.2111C33.8943 5.20994 33.6137 5.06002 33.4889 4.76135Z" fill="#77333A"/>
<path d="M43.9681 12.5138C44.3683 14.0561 44.3391 15.5617 43.8806 17.0305C43.8754 17.0468 43.8757 17.0644 43.8813 17.0805C43.887 17.0967 43.8977 17.1106 43.912 17.1201C43.9262 17.1295 43.9431 17.1341 43.9602 17.1331C43.9773 17.1322 43.9936 17.1256 44.0066 17.1145L44.9761 16.3165C45.0368 16.2664 45.0922 16.2722 45.1424 16.334C45.3909 16.6409 45.5554 16.9051 45.6359 17.1268C46.7384 20.131 47.0709 23.3078 46.6334 26.6573C46.519 27.53 46.3662 28.2247 46.1749 28.7415C44.8221 28.101 44.4039 29.8668 44.0119 30.6963C43.8322 31.0731 43.7132 31.055 43.6549 30.642C43.4939 29.487 43.3836 28.1623 43.1176 27.0948C42.8155 25.8826 42.3867 24.7387 41.8314 23.663C41.759 23.5219 41.7835 23.4 41.9049 23.2973L43.0109 22.354C43.0669 22.3074 43.0622 22.2671 42.9969 22.2333C41.1786 21.3093 40.2301 19.911 39.4164 18.042C39.2881 17.9895 39.277 17.7492 39.3831 17.321C39.3971 17.2639 39.428 17.2184 39.4759 17.1845C40.6081 16.4023 40.9354 15.403 42.5191 15.5763C42.9969 15.627 43.3119 15.5273 43.6759 15.2788C43.7035 15.2596 43.7257 15.2335 43.7401 15.2031C43.7545 15.1727 43.7608 15.1391 43.7581 15.1055C43.7441 14.8967 43.7908 14.7025 43.8981 14.5228C43.9146 14.4959 43.925 14.4657 43.9287 14.4343C43.9323 14.4028 43.929 14.3709 43.9191 14.3408C43.6881 13.6151 43.7045 13.0061 43.9681 12.5138Z" fill="#66222C"/>
<path d="M39.4168 18.0421C40.2305 19.9111 41.179 21.3093 42.9972 22.2333C43.0626 22.2672 43.0672 22.3074 43.0112 22.3541L41.9052 23.2973C41.7839 23.4 41.7594 23.5219 41.8317 23.6631C42.3871 24.7388 42.8158 25.8827 43.118 27.0948C43.384 28.1623 43.4942 29.4871 43.6552 30.6421C43.7136 31.0551 43.8326 31.0732 44.0123 30.6963C44.4043 29.8668 44.8225 28.1011 46.1753 28.7416C49.6648 31.2721 46.6705 37.0663 42.572 35.9638C42.5191 35.9495 42.4629 35.9539 42.4128 35.9762C42.3628 35.9985 42.3219 36.0374 42.2972 36.0863C40.353 39.8926 36.6868 42.2148 32.604 43.2298C32.8898 43.0292 33.3279 42.8425 33.9183 42.6698C34.4911 42.503 35.1217 42.1944 35.81 41.7441C37.196 40.8358 38.0728 39.6983 38.5173 38.1356C40.0765 37.5756 41.403 36.6358 41.4083 34.8386C41.4083 34.7826 41.3802 34.754 41.3242 34.7528L38.5995 34.7003L38.4998 32.0753C38.5523 31.3485 38.5511 30.7996 38.4963 30.4286C38.4298 29.9876 38.2687 29.6055 38.0132 29.2823C37.7309 28.6348 37.4667 28.0468 37.2205 27.5183C36.8828 26.7956 36.4802 26.8901 35.8152 26.9653C35.7616 26.9712 35.7161 26.9933 35.6788 27.0318C35.4145 27.3031 34.5483 27.4728 34.3558 27.0178C34.228 26.7168 34.4695 26.3738 34.1353 26.0938C35.9973 25.6948 37.3167 26.4998 38.82 27.5253C38.9728 27.6292 39.1531 27.6729 39.3608 27.6566C39.4203 27.6508 39.4582 27.6193 39.4745 27.5621L39.5217 27.3976H39.6845C39.7463 27.3976 39.7773 27.3667 39.7773 27.3048C39.751 25.3151 39.2505 23.2133 38.9512 21.3933C38.9186 21.1938 38.8532 21.1822 38.7552 21.3583C38.4822 21.8542 38.2559 22.3728 38.0762 22.9141C38.072 22.9269 38.065 22.9386 38.0558 22.9485C38.0465 22.9583 38.0352 22.9661 38.0226 22.9712C38.01 22.9763 37.9964 22.9787 37.9827 22.9782C37.969 22.9778 37.9556 22.9744 37.9433 22.9683L35.2833 21.6663C35.2607 21.6552 35.2361 21.6487 35.211 21.6472C35.1859 21.6458 35.1607 21.6494 35.137 21.6579C35.1134 21.6664 35.0916 21.6796 35.0732 21.6967C35.0547 21.7138 35.0398 21.7344 35.0295 21.7573C34.7623 22.3488 34.4007 22.8738 33.9445 23.3323C33.9217 23.3551 33.8939 23.3721 33.8635 23.3818C33.833 23.3915 33.8008 23.3938 33.7695 23.3883C33.5607 23.3533 33.3874 23.2075 33.2498 22.9508C34.5833 21.503 35.5977 19.8574 36.293 18.0141C36.2964 18.004 36.3031 17.9954 36.312 17.9898C36.3209 17.9842 36.3315 17.9818 36.3422 17.983C36.3528 17.9842 36.3629 17.9889 36.3708 17.9965C36.3787 18.004 36.384 18.0139 36.3858 18.0246C36.5468 19.0588 36.818 20.2156 37.5058 21.0433C37.5513 21.0982 37.5921 21.0947 37.6282 21.0328L39.4168 18.0421ZM45.3213 29.6323C44.5355 29.9561 44.1418 30.6946 43.958 31.4803C43.804 32.1348 43.188 33.9758 43.7322 34.4728C43.9772 34.6957 44.2374 34.7482 44.5128 34.6303C45.9034 34.0353 46.6069 32.9358 46.6233 31.3316C46.6314 30.5383 46.2476 29.9724 45.4717 29.6341C45.4216 29.6119 45.3714 29.6113 45.3213 29.6323Z" fill="#FBA98B"/>
<path d="M27.9784 21.5053L27.5269 21.3531C27.4709 21.3344 27.4219 21.3455 27.3799 21.3863C26.415 22.3267 25.3505 23.1352 24.1861 23.8118C23.9026 23.9775 23.6145 23.981 23.3216 23.8223C23.3119 23.817 23.3038 23.809 23.2984 23.7992C23.293 23.7895 23.2904 23.7784 23.291 23.7673C23.2915 23.7562 23.2952 23.7455 23.3015 23.7363C23.3079 23.7272 23.3167 23.72 23.3269 23.7156L23.8816 23.4811C23.8982 23.4741 23.913 23.4635 23.925 23.45C23.9369 23.4366 23.9456 23.4207 23.9505 23.4035C23.9554 23.3863 23.9563 23.3683 23.9532 23.3508C23.95 23.3334 23.9429 23.3169 23.9324 23.3026C23.8962 23.2524 23.8449 23.2308 23.7784 23.2378C25.5786 22.4002 27.0147 21.1408 28.0869 19.4596C28.0993 19.4393 28.1184 19.424 28.1408 19.4164C28.1633 19.4087 28.1877 19.4091 28.2101 19.4175C28.2325 19.4259 28.2514 19.4418 28.2637 19.4626C28.276 19.4833 28.2809 19.5076 28.2776 19.5313L27.9784 21.5053Z" fill="#FBA98B"/>
<path d="M33.2494 22.9509C33.387 23.2076 33.5603 23.3534 33.7691 23.3884C33.8004 23.3938 33.8326 23.3916 33.8631 23.3819C33.8935 23.3721 33.9213 23.3551 33.9441 23.3324C34.4003 22.8739 34.7619 22.3489 35.0291 21.7574C35.0394 21.7344 35.0543 21.7138 35.0728 21.6967C35.0912 21.6797 35.113 21.6665 35.1366 21.658C35.1603 21.6495 35.1855 21.6459 35.2106 21.6473C35.2357 21.6488 35.2603 21.6552 35.2829 21.6664L37.9429 22.9684C37.9552 22.9744 37.9687 22.9778 37.9823 22.9783C37.996 22.9788 38.0096 22.9764 38.0222 22.9713C38.0348 22.9661 38.0461 22.9584 38.0554 22.9485C38.0646 22.9387 38.0716 22.9269 38.0759 22.9141C38.2555 22.3728 38.4819 21.8542 38.7549 21.3584C38.8529 21.1822 38.9182 21.1939 38.9509 21.3934C39.2501 23.2134 39.7506 25.3151 39.7769 27.3049C39.7769 27.3667 39.7459 27.3976 39.6841 27.3976H39.5214C39.1381 25.4761 36.5884 24.1234 34.8314 23.8976C32.3866 23.5809 32.3359 26.1691 34.1349 26.0939C34.4691 26.3739 34.2276 26.7169 34.3554 27.0179C34.5479 27.4729 35.4141 27.3031 35.6784 27.0319C35.7157 26.9934 35.7612 26.9712 35.8149 26.9654C36.4799 26.8901 36.8824 26.7956 37.2201 27.5184C37.4663 28.0469 37.7305 28.6349 38.0129 29.2824C37.251 28.7807 36.5802 28.5789 36.0004 28.6769C33.6939 28.6611 33.1846 31.4506 33.8776 33.1341C34.8874 35.5824 37.6996 34.6916 37.9516 32.3589C38.1814 32.3029 38.364 32.2084 38.4994 32.0754L38.5991 34.7004C37.2971 34.5289 36.1853 34.8474 35.2636 35.6559C34.7159 36.1354 34.5076 36.7654 34.9679 37.3726C35.8551 38.5416 37.2254 38.2879 38.5169 38.1356C38.0724 39.6984 37.1956 40.8359 35.8096 41.7441C35.1213 42.1945 34.4907 42.5031 33.9179 42.6699C33.3275 42.8426 32.8894 43.0292 32.6036 43.2299L31.3961 43.5939C29.3574 43.6919 27.9906 43.8231 25.3954 43.6429C25.3866 43.5764 25.3709 43.5396 25.3009 43.5239C20.3904 42.4739 16.6016 40.4561 14.1604 35.9761C14.1324 35.9236 14.0892 35.905 14.0309 35.9201C10.1441 36.9071 7.52611 32.8244 9.40561 29.5484C9.67395 29.0794 10.1295 28.7994 10.7724 28.7084L11.5406 28.7626C11.598 28.766 11.6522 28.7902 11.6929 28.8309C12.2144 29.3506 12.2791 30.0191 12.7849 30.6404C12.8234 30.6999 12.842 30.7623 12.8409 30.8276C12.8409 30.8871 12.8665 30.9332 12.9179 30.9659C12.9785 31.0044 12.9966 31.0493 12.9721 31.1006C12.9453 31.1555 12.9546 31.2039 13.0001 31.2459C13.5986 31.8076 13.8786 32.5759 14.2461 33.1761C14.4281 33.4748 14.5891 33.7857 14.7291 34.1089C14.8674 34.4291 15.1439 34.6969 15.3259 35.0136C15.34 35.0379 15.3598 35.0584 15.3835 35.0734C15.4073 35.0883 15.4344 35.0972 15.4624 35.0994L16.3566 35.1659C15.3189 35.7976 15.8106 37.4776 16.5964 38.0254C17.3197 38.5306 18.2052 38.7441 19.2529 38.6659C19.4115 39.0812 19.7114 39.3956 20.1524 39.6091C20.2025 39.6348 20.2101 39.6692 20.1751 39.7124C19.7271 40.2671 20.7946 40.7099 21.1149 41.0774C21.144 41.1112 21.158 41.1503 21.1569 41.1946L21.1516 41.3836C21.1504 41.4758 21.1948 41.5143 21.2846 41.4991L21.9794 41.3819C22.0389 41.3726 22.0925 41.3854 22.1404 41.4204C22.572 41.7389 23.006 41.7599 23.4424 41.4834C23.4879 41.4542 23.5071 41.4128 23.5001 41.3591C23.3928 40.5681 23.7329 39.8203 24.5204 39.1156C24.644 39.6966 25.0582 40.2391 25.7629 40.7431C26.8782 41.3801 28.2099 41.5546 29.7581 41.2664C30.3298 41.1602 30.7614 40.9496 31.0531 40.6346C31.7601 40.2689 32.8451 39.2416 32.6806 38.3421C32.6573 38.2173 32.5849 38.1706 32.4636 38.2021C30.6413 38.6688 28.8779 38.8281 27.1734 38.6799L27.2381 38.6011C27.2453 38.592 27.2495 38.581 27.2503 38.5694C27.2511 38.5578 27.2484 38.5463 27.2425 38.5363C27.2367 38.5263 27.228 38.5183 27.2175 38.5133C27.207 38.5083 27.1953 38.5066 27.1839 38.5084C26.9552 38.5492 26.7954 38.4734 26.7044 38.2809C26.6649 38.1982 26.6492 38.1062 26.6587 38.0151C26.6683 37.924 26.7029 37.8373 26.7586 37.7646L27.2469 37.1329C27.2912 37.0757 27.3495 37.0425 27.4219 37.0331C27.4814 37.0238 27.5344 36.9981 27.5811 36.9561C27.6184 36.9223 27.6359 36.8797 27.6336 36.8284C27.6266 36.5962 27.661 36.4136 27.7369 36.2806C28.2216 37.6369 30.8851 35.7276 29.3609 33.8919C29.2104 33.7099 28.8254 33.3966 28.6574 33.6836L27.4901 33.2741C27.4758 33.2689 27.4628 33.2606 27.4519 33.2499C27.4411 33.2392 27.4327 33.2263 27.4274 33.2122C27.4221 33.198 27.4199 33.1829 27.4211 33.1679C27.4222 33.1529 27.4267 33.1384 27.4341 33.1254C27.5706 32.8851 27.6033 32.6325 27.5321 32.3676C27.5169 32.3093 27.5199 32.2521 27.5409 32.1961C27.6424 31.915 27.6669 31.6303 27.6144 31.3421C27.5479 30.9816 27.6826 30.6491 27.6686 30.2904C27.6284 29.1196 27.7089 27.8106 27.4499 26.6714C27.2906 25.9661 27.2801 25.1016 27.2714 24.3929C27.2713 24.3646 27.2769 24.3366 27.2877 24.3105C27.2985 24.2844 27.3144 24.2606 27.3344 24.2406L27.4044 24.1741C28.7431 24.0324 31.0881 21.4966 31.9054 20.4694C31.9183 20.4527 31.9362 20.4406 31.9565 20.4347C31.9767 20.4288 31.9984 20.4296 32.0182 20.4368C32.038 20.444 32.0551 20.4573 32.0669 20.4748C32.0787 20.4923 32.0846 20.5131 32.0839 20.5341C32.064 21.457 32.2764 22.3186 32.7209 23.1189C32.7355 23.1451 32.7573 23.1667 32.7839 23.1812C32.8105 23.1957 32.8408 23.2026 32.8714 23.2011C33.0277 23.1941 33.1537 23.1107 33.2494 22.9509ZM10.3209 30.2326C9.20261 31.6134 10.0531 33.5594 11.3814 34.4151C12.0254 34.8299 13.3694 34.8946 13.0614 33.7746C12.7394 32.6021 12.5084 31.5644 11.9466 30.4636C11.5651 29.7146 10.8809 29.5396 10.3209 30.2326Z" fill="#FFC7A7"/>
<path d="M18.7944 20.9734L17.7969 22.8721C17.6965 23.0623 17.7537 23.1597 17.9684 23.1644C19.5329 23.2011 22.0844 21.8589 23.4214 21.0469C23.4339 21.0396 23.4483 21.0361 23.4628 21.037C23.4772 21.0379 23.4911 21.043 23.5024 21.0517C23.5138 21.0604 23.5222 21.0723 23.5265 21.0859C23.5307 21.0994 23.5307 21.1138 23.5264 21.1274L22.8911 23.2659C22.8832 23.2921 22.8826 23.3199 22.8893 23.3465C22.896 23.373 22.9098 23.3972 22.9292 23.4164C22.9487 23.4357 22.973 23.4493 22.9996 23.4557C23.0262 23.4622 23.054 23.4613 23.0801 23.4531L23.7784 23.2379C23.8449 23.2309 23.8962 23.2525 23.9324 23.3026C23.9429 23.3169 23.95 23.3334 23.9531 23.3509C23.9563 23.3684 23.9554 23.3864 23.9505 23.4036C23.9456 23.4207 23.9369 23.4367 23.9249 23.4501C23.913 23.4635 23.8982 23.4741 23.8816 23.4811L23.3269 23.7156C23.3166 23.72 23.3079 23.7272 23.3015 23.7364C23.2952 23.7455 23.2915 23.7563 23.291 23.7674C23.2904 23.7785 23.293 23.7895 23.2984 23.7993C23.3038 23.809 23.3119 23.817 23.3216 23.8224C23.6145 23.9811 23.9026 23.9776 24.1861 23.8119C25.3505 23.1352 26.415 22.3267 27.3799 21.3864C27.4219 21.3456 27.4709 21.3345 27.5269 21.3531L27.9784 21.5054L27.4044 24.1741L27.3344 24.2406C27.3144 24.2606 27.2985 24.2844 27.2877 24.3105C27.2769 24.3366 27.2714 24.3646 27.2714 24.3929C27.2801 25.1016 27.2906 25.9661 27.4499 26.6714C27.7089 27.8106 27.6284 29.1196 27.6686 30.2904C27.6826 30.6491 27.5479 30.9816 27.6144 31.3421C27.6669 31.6303 27.6424 31.915 27.5409 32.1961C27.5199 32.2521 27.517 32.3093 27.5321 32.3676C27.6033 32.6325 27.5706 32.8851 27.4341 33.1254C27.4267 33.1384 27.4222 33.1529 27.4211 33.1679C27.4199 33.1829 27.4221 33.198 27.4274 33.2122C27.4327 33.2263 27.4411 33.2392 27.4519 33.2499C27.4628 33.2606 27.4758 33.2689 27.4901 33.2741L28.6574 33.6836C29.3976 34.7144 28.7204 35.7434 27.7369 36.2806C27.661 36.4136 27.6266 36.5962 27.6336 36.8284C27.636 36.8797 27.6185 36.9223 27.5811 36.9561C27.5345 36.9981 27.4814 37.0238 27.4219 37.0331C27.3495 37.0425 27.2912 37.0757 27.2469 37.1329L26.7586 37.7646C26.7029 37.8373 26.6683 37.924 26.6587 38.0151C26.6492 38.1062 26.665 38.1982 26.7044 38.2809C26.7954 38.4734 26.9552 38.5492 27.1839 38.5084C27.1953 38.5066 27.2071 38.5083 27.2175 38.5133C27.228 38.5183 27.2367 38.5263 27.2426 38.5363C27.2484 38.5463 27.2511 38.5578 27.2503 38.5694C27.2495 38.581 27.2453 38.592 27.2381 38.6011L27.1734 38.6799L24.6114 38.2126C24.5826 38.2076 24.5531 38.2088 24.5249 38.2163C24.4966 38.2237 24.4703 38.2373 24.4479 38.2559C24.4254 38.2746 24.4072 38.2979 24.3947 38.3243C24.3821 38.3506 24.3754 38.3794 24.3751 38.4086C24.3728 38.6408 24.4212 38.8765 24.5204 39.1156C23.7329 39.8203 23.3928 40.5681 23.5001 41.3591C23.5071 41.4128 23.4879 41.4542 23.4424 41.4834C23.006 41.7599 22.572 41.7389 22.1404 41.4204C22.0925 41.3854 22.0389 41.3726 21.9794 41.3819L21.2846 41.4991C21.1948 41.5143 21.1505 41.4758 21.1516 41.3836L21.1569 41.1946C21.158 41.1503 21.144 41.1112 21.1149 41.0774C20.7946 40.7099 19.7271 40.2671 20.1751 39.7124C20.2101 39.6692 20.2025 39.6348 20.1524 39.6091C19.7114 39.3956 19.4115 39.0812 19.2529 38.6659C20.8069 38.4979 22.2559 37.2536 20.5636 35.8396C19.3783 34.8503 17.976 34.6257 16.3566 35.1659L15.4624 35.0994C15.4344 35.0972 15.4073 35.0883 15.3835 35.0734C15.3598 35.0584 15.34 35.0379 15.3259 35.0136C15.1439 34.6969 14.8674 34.4291 14.7291 34.1089C14.5891 33.7857 14.4281 33.4748 14.2461 33.1761C13.8786 32.5759 13.5986 31.8076 13.0001 31.2459C12.9546 31.2039 12.9453 31.1555 12.9721 31.1006C12.9966 31.0493 12.9785 31.0044 12.9179 30.9659C12.8665 30.9332 12.8409 30.8871 12.8409 30.8276C12.842 30.7623 12.8234 30.6999 12.7849 30.6404C12.9914 30.6404 13.0124 26.0571 13.9994 25.3659C14.06 25.3239 14.056 25.2901 13.9871 25.2644L13.2311 24.9774C13.2202 24.9733 13.2106 24.9665 13.2031 24.9577C13.1955 24.9489 13.1904 24.9382 13.1881 24.9268C13.1858 24.9155 13.1865 24.9037 13.19 24.8926C13.1936 24.8815 13.1999 24.8716 13.2084 24.8636C13.6225 24.4716 13.9416 24.0108 14.1656 23.4811C14.171 23.4684 14.1732 23.4545 14.1721 23.4408C14.1709 23.427 14.1665 23.4137 14.1591 23.402C14.1517 23.3903 14.1416 23.3806 14.1296 23.3736C14.1177 23.3667 14.1042 23.3627 14.0904 23.3621L12.7814 23.2851C12.7654 23.2841 12.75 23.2789 12.7367 23.2699C12.7235 23.2609 12.7129 23.2485 12.7061 23.234C12.6993 23.2195 12.6965 23.2034 12.6981 23.1875C12.6996 23.1715 12.7054 23.1563 12.7149 23.1434L13.5549 21.9971C14.9514 22.0543 16.3374 21.9884 17.7129 21.7994C17.7712 21.7924 17.8284 21.7971 17.8844 21.8134C18.2431 21.9184 18.3149 21.2761 18.3761 21.0399L18.7944 20.9734ZM21.7921 23.8819C20.1139 24.0079 17.4854 25.2836 17.0934 27.0949C17.083 27.1431 17.0855 27.1932 17.1008 27.2401C17.1161 27.2869 17.1436 27.3289 17.1805 27.3617C17.2173 27.3944 17.2622 27.4168 17.3106 27.4265C17.3589 27.4362 17.409 27.4329 17.4556 27.4169C19.0411 26.8726 20.1471 25.4691 22.0529 26.1044C22.9349 26.3984 23.6471 26.2811 23.8659 25.2539C24.1336 23.9886 22.7039 23.8136 21.7921 23.8819ZM19.4104 34.2296C22.7476 36.2386 24.3296 30.0489 21.2251 28.7469C21.1761 28.0364 19.6781 28.6664 19.2214 28.9779C18.0086 29.8056 17.6044 31.0814 18.0821 32.5129C18.3878 33.4252 18.8305 33.9975 19.4104 34.2296Z" fill="#FED0B2"/>
<path d="M18.3761 21.0398C18.3149 21.276 18.2431 21.9183 17.8844 21.8133C17.8284 21.797 17.7712 21.7923 17.7129 21.7993C16.3374 21.9883 14.9514 22.0542 13.5549 21.997C13.5689 21.7975 13.6138 21.64 13.6896 21.5245C13.7246 21.4709 13.7737 21.4452 13.8367 21.4475C15.3708 21.5 16.884 21.3641 18.3761 21.0398Z" fill="#FBA98B"/>
<path d="M17.0934 27.0949C17.4854 25.2836 20.1139 24.0079 21.7921 23.8819C22.7039 23.8136 24.1337 23.9886 23.8659 25.2539C23.6472 26.2811 22.9349 26.3984 22.0529 26.1044C20.1471 25.4691 19.0411 26.8726 17.4556 27.4169C17.409 27.4329 17.3589 27.4362 17.3106 27.4265C17.2623 27.4168 17.2174 27.3944 17.1805 27.3616C17.1436 27.3289 17.1162 27.2869 17.1009 27.24C17.0855 27.1932 17.083 27.1431 17.0934 27.0949Z" fill="#CD7A4E"/>
<path d="M39.5214 27.3975L39.4741 27.562C39.4578 27.6192 39.4199 27.6507 39.3604 27.6565C39.1527 27.6728 38.9724 27.6291 38.8196 27.5252C37.3164 26.4997 35.9969 25.6947 34.1349 26.0937C32.3359 26.169 32.3866 23.5807 34.8314 23.8975C36.5884 24.1232 39.1381 25.476 39.5214 27.3975Z" fill="#CD7A4E"/>
<path d="M21.2248 28.7467C19.1353 28.2742 18.3601 30.7837 18.5421 32.3552C18.6202 33.0307 18.9096 33.6555 19.4101 34.2295C18.8302 33.9973 18.3875 33.4251 18.0818 32.5127C17.6041 31.0812 18.0083 29.8055 19.2211 28.9777C19.6778 28.6662 21.1758 28.0362 21.2248 28.7467Z" fill="#FEFEFE"/>
<path d="M38.0131 29.2824C38.2686 29.6055 38.4296 29.9876 38.4961 30.4286C38.5509 30.7996 38.5521 31.3485 38.4996 32.0754C38.3643 32.2084 38.1817 32.3029 37.9519 32.3589C38.1286 31.0621 37.7156 29.4819 36.4959 28.9149C36.3337 28.839 36.1686 28.7597 36.0006 28.6769C36.5804 28.5789 37.2513 28.7807 38.0131 29.2824Z" fill="#FEFEFE"/>
<path d="M21.2251 28.7469C24.3296 30.0489 22.7476 36.2386 19.4104 34.2296C18.9099 33.6556 18.6205 33.0309 18.5424 32.3554C18.3604 30.7839 19.1356 28.2744 21.2251 28.7469ZM20.8993 32.2363C20.9677 32.2256 21.033 32.2 21.0916 32.161C21.1502 32.122 21.2008 32.0704 21.2407 32.009C21.2807 31.9477 21.309 31.8778 21.3241 31.8035C21.3393 31.7291 21.341 31.6517 21.329 31.5756C21.3171 31.4996 21.2919 31.4264 21.2547 31.3602C21.2176 31.294 21.1692 31.2362 21.1125 31.1899C21.0557 31.1437 20.9917 31.11 20.924 31.0908C20.8563 31.0716 20.7863 31.0672 20.7179 31.0779C20.6496 31.0886 20.5842 31.1142 20.5257 31.1532C20.4671 31.1922 20.4164 31.2438 20.3765 31.3052C20.3366 31.3665 20.3083 31.4364 20.2931 31.5108C20.278 31.5851 20.2763 31.6626 20.2882 31.7386C20.3001 31.8147 20.3254 31.8879 20.3625 31.9541C20.3997 32.0202 20.448 32.0781 20.5048 32.1243C20.5615 32.1705 20.6256 32.2042 20.6933 32.2234C20.761 32.2426 20.831 32.247 20.8993 32.2363Z" fill="#141319"/>
<path d="M36.0004 28.6768C36.1684 28.7597 36.3335 28.839 36.4956 28.9148C37.7154 29.4818 38.1284 31.0621 37.9516 32.3588C37.6996 34.6916 34.8874 35.5823 33.8776 33.1341C33.1846 31.4506 33.6939 28.6611 36.0004 28.6768ZM36.2646 31.6046C36.2646 31.4579 36.2064 31.3173 36.1027 31.2135C35.999 31.1098 35.8583 31.0516 35.7116 31.0516C35.565 31.0516 35.4243 31.1098 35.3206 31.2135C35.2169 31.3173 35.1586 31.4579 35.1586 31.6046C35.1586 31.7512 35.2169 31.8919 35.3206 31.9956C35.4243 32.0993 35.565 32.1576 35.7116 32.1576C35.8583 32.1576 35.999 32.0993 36.1027 31.9956C36.2064 31.8919 36.2646 31.7512 36.2646 31.6046Z" fill="#141319"/>
<path d="M43.9576 31.4803C44.1414 30.6945 44.5351 29.956 45.3209 29.6323C45.371 29.6113 45.4212 29.6119 45.4714 29.634C46.2472 29.9724 46.631 30.5382 46.6229 31.3315C46.6065 32.9357 45.903 34.0353 44.5124 34.6303C44.237 34.7481 43.9769 34.6956 43.7319 34.4728C43.1876 33.9758 43.8036 32.1348 43.9576 31.4803Z" fill="#FC8E79"/>
<path d="M10.3212 30.2326C10.8812 29.5396 11.5655 29.7146 11.947 30.4636C12.5087 31.5644 12.7397 32.6021 13.0617 33.7746C13.3697 34.8946 12.0257 34.8299 11.3817 34.4151C10.0535 33.5594 9.20298 31.6134 10.3212 30.2326Z" fill="#FBA98B"/>
<path d="M35.7119 32.1575C36.0174 32.1575 36.2649 31.9099 36.2649 31.6045C36.2649 31.2991 36.0174 31.0515 35.7119 31.0515C35.4065 31.0515 35.1589 31.2991 35.1589 31.6045C35.1589 31.9099 35.4065 32.1575 35.7119 32.1575Z" fill="#FEFEFE"/>
<path d="M20.2882 31.7386C20.3383 32.0585 20.6119 32.2813 20.8993 32.2363C21.1867 32.1913 21.3791 31.8955 21.329 31.5757C21.2789 31.2558 21.0053 31.0329 20.7179 31.078C20.4305 31.123 20.2381 31.4188 20.2882 31.7386Z" fill="#FEFEFE"/>
<path d="M27.7369 36.2806C28.7204 35.7433 29.3976 34.7143 28.6574 33.6836C28.8254 33.3966 29.2104 33.7098 29.3609 33.8918C30.8851 35.7276 28.2217 37.6368 27.7369 36.2806Z" fill="#FBA98B"/>
<path d="M38.5991 34.7003L41.3239 34.7528C41.3799 34.754 41.4079 34.7825 41.4079 34.8385C41.4026 36.6358 40.0761 37.5755 38.5169 38.1355C37.2254 38.2878 35.8551 38.5415 34.9679 37.3725C34.5076 36.7653 34.7159 36.1353 35.2636 35.6558C36.1853 34.8473 37.2971 34.5288 38.5991 34.7003Z" fill="#FC8E79"/>
<path d="M19.2529 38.6658C18.2052 38.744 17.3197 38.5305 16.5964 38.0253C15.8106 37.4775 15.3189 35.7975 16.3566 35.1658C17.976 34.6256 19.3783 34.8502 20.5636 35.8395C22.2559 37.2535 20.8069 38.4978 19.2529 38.6658Z" fill="#FBA98B"/>
<path d="M27.1736 38.6798C28.8781 38.8279 30.6415 38.6687 32.4638 38.202C32.5852 38.1705 32.6575 38.2172 32.6808 38.342C32.8453 39.2415 31.7603 40.2688 31.0533 40.6345C29.9071 39.8313 26.6678 39.427 25.7631 40.743C25.0584 40.239 24.6442 39.6965 24.5206 39.1155C24.4214 38.8764 24.373 38.6407 24.3753 38.4085C24.3756 38.3793 24.3823 38.3505 24.3949 38.3242C24.4074 38.2978 24.4256 38.2745 24.4481 38.2558C24.4705 38.2372 24.4968 38.2236 24.5251 38.2162C24.5533 38.2087 24.5828 38.2074 24.6116 38.2125L27.1736 38.6798Z" fill="#2D242F"/>
<path d="M31.0531 40.6345C30.7614 40.9495 30.3298 41.1601 29.7581 41.2663C28.2099 41.5545 26.8782 41.38 25.7629 40.743C26.6676 39.427 29.9069 39.8313 31.0531 40.6345Z" fill="#FC8E79"/>
<path d="M31.3965 43.5939L33.171 43.8371C33.2842 44.249 33.3326 44.6695 33.3162 45.0989C33.248 46.8646 30.2747 47.6644 28.9115 47.6976C28.8286 47.6591 28.7406 47.648 28.6472 47.6644C28.0382 46.8716 26.6767 45.2914 25.6652 45.1566C25.6139 45.1496 25.5702 45.1269 25.534 45.0884C25.4453 44.995 25.3391 44.9618 25.2155 44.9886C25.1501 45.0026 25.1105 44.977 25.0965 44.9116C24.9915 44.4216 24.5347 44.7961 24.3702 45.0359C24.2991 44.5062 24.3166 44.0798 24.4227 43.7566L25.3957 43.6429C27.991 43.8231 29.3577 43.6919 31.3965 43.5939Z" fill="#FBA98B"/>
<path d="M24.4224 43.7566C24.3162 44.0798 24.2987 44.5062 24.3698 45.0358C25.3323 46.5 26.758 47.3762 28.6468 47.6643C28.7402 47.648 28.8283 47.6591 28.9111 47.6976C28.9998 48.0301 29.1596 48.3066 29.3906 48.5271C29.4014 48.5375 29.4089 48.5509 29.4121 48.5657C29.4152 48.5804 29.4138 48.5957 29.4082 48.6096C29.4025 48.6236 29.3928 48.6355 29.3804 48.6438C29.3679 48.6522 29.3531 48.6567 29.3381 48.6566C26.5976 48.6023 23.4371 47.6958 22.9471 44.5721C22.9389 44.5254 22.9115 44.5021 22.8648 44.5021C22.8333 44.5021 22.8054 44.5208 22.7809 44.5581C22.7505 44.6048 22.7418 44.6549 22.7546 44.7086C23.4756 47.9461 26.5626 48.7773 29.4956 48.8736C29.5609 48.8759 29.6094 48.9051 29.6409 48.9611C30.0329 49.6541 30.0923 50.8458 30.0608 51.5231C27.2223 51.6339 24.4218 51.3802 21.6591 50.7618C20.4901 50.4993 19.2511 50.0776 18.0559 49.6943L16.9008 49.3146C16.8492 49.2977 16.806 49.2615 16.7803 49.2136C16.7545 49.1657 16.7482 49.1098 16.7626 49.0573C17.6989 45.6361 21.1096 44.0663 24.4224 43.7566Z" fill="#6AC38D"/>
<path d="M33.1709 43.837L35.4144 44.3603C37.7419 45.3298 39.3204 46.3063 40.1236 48.8368C40.2601 49.2655 39.9434 49.2515 39.7019 49.3513C36.6184 50.637 33.4048 51.3609 30.0611 51.523C30.0926 50.8458 30.0331 49.654 29.6411 48.961C29.6096 48.905 29.5612 48.8759 29.4959 48.8735C26.5629 48.7773 23.4759 47.946 22.7549 44.7085C22.742 44.6549 22.7508 44.6047 22.7811 44.558C22.8056 44.5207 22.8336 44.502 22.8651 44.502C22.9118 44.502 22.9392 44.5254 22.9474 44.572C23.4374 47.6958 26.5979 48.6023 29.3384 48.6565C29.3534 48.6566 29.3681 48.6522 29.3806 48.6438C29.3931 48.6354 29.4028 48.6235 29.4085 48.6096C29.4141 48.5956 29.4155 48.5803 29.4123 48.5656C29.4092 48.5509 29.4017 48.5375 29.3909 48.527C29.1599 48.3065 29 48.03 28.9114 47.6975C30.2746 47.6643 33.2479 46.8645 33.3161 45.0988C33.3325 44.6695 33.284 44.2489 33.1709 43.837Z" fill="#5AAA71"/>
<path d="M28.6471 47.6643C26.7583 47.3762 25.3326 46.5 24.3701 45.0358C24.5346 44.7961 24.9914 44.4216 25.0964 44.9116C25.1104 44.9769 25.15 45.0026 25.2154 44.9886C25.339 44.9618 25.4452 44.995 25.5339 45.0883C25.57 45.1268 25.6138 45.1496 25.6651 45.1566C26.6766 45.2913 28.0381 46.8716 28.6471 47.6643Z" fill="#FFC7A7"/>
</svg>
