<svg viewBox="0 0 16 19" fill="none" width="26.947368" height="32" xmlns="http://www.w3.org/2000/svg" xmlns:xlink="http://www.w3.org/1999/xlink">
    <path stroke="currentColor" stroke-linecap="round" d="M3.1257 4.7138l4.2771 0M3.1257 8.1519l9.1245 0M3.1257 11.5901h9.1245M12.8911 0.7457c-2.6198-0.2231-6.875-0.407-10.5152-0.0241C1.6323 0.7998 1.0496 1.3822 0.9597 2.128 0.5363 5.6421 0.1437 11.4437 1.05 17.3921c0.0336 0.2205 0.2949 0.3158 0.4635 0.1707l1.2649-1.0895c0.2029-0.1747 0.4995-0.1844 0.7133-0.0233l1.573 1.1854c0.2028 0.1528 0.4816 0.1528 0.6843 0l1.5968-1.2033c0.2028-0.1528 0.4816-0.1528 0.6843 0l1.5968 1.2033c0.2028 0.1528 0.4816 0.1528 0.6844 0l1.5729-1.1854c0.2139-0.1611 0.5104-0.1514 0.7133 0.0233l1.2593 1.0846c0.1698 0.1462 0.4327 0.0485 0.4631-0.1741 0.7138-5.2221 0.3981-11.3123 0.0601-15.1442-0.0704-0.7982-0.6943-1.4263-1.4889-1.4939z" />
</svg>