<svg viewBox="0 0 11 13" fill="none" width="27.076923" height="32" xmlns="http://www.w3.org/2000/svg" xmlns:xlink="http://www.w3.org/1999/xlink">
    <path stroke="currentColor" stroke-linecap="round" d="M2.2505 3.3092l2.8514 0M2.2505 5.6013l6.083 0M2.2505 7.8934l6.083 0M8.7607 0.6638C7.0142 0.5151 4.1774 0.3925 1.7506 0.6477 1.2548 0.6999 0.8664 1.0882 0.8065 1.5854 0.5242 3.928 0.2625 7.7958 0.8667 11.7614c0.0224 0.147 0.1966 0.2106 0.309 0.1138l0.8432-0.7263c0.1353-0.1165 0.333-0.123 0.4756-0.0156l1.0486 0.7903c0.1352 0.1019 0.3211 0.1019 0.4563 0l1.0645-0.8022c0.1351-0.1019 0.321-0.1019 0.4562 0l1.0645 0.8022c0.1352 0.1019 0.3211 0.1019 0.4562 0l1.0487-0.7903c0.1425-0.1074 0.3402-0.1009 0.4755 0.0156l0.8395 0.723c0.1132 0.0975 0.2885 0.0324 0.3088-0.116 0.4758-3.4815 0.2654-7.5416 0.0401-10.0962-0.047-0.5321-0.4629-0.9508-0.9927-0.9959z" />
</svg>