<svg viewBox="0 0 20 24" fill="none" width="26.666667" height="32" xmlns="http://www.w3.org/2000/svg" xmlns:xlink="http://www.w3.org/1999/xlink">
    <path stroke="currentColor" stroke-linecap="round" d="M4.001 6.1184l5.7028 0M4.001 10.7026h12.166M4.001 15.2867h12.166M17.0214 0.8275c-3.493-0.2974-9.1666-0.5426-14.0203-0.0321-0.9914 0.1043-1.7684 0.8809-1.8882 1.8753-0.5645 4.6854-1.088 12.4209 0.1205 20.352 0.0448 0.2941 0.3932 0.4212 0.6179 0.2276l1.6866-1.4525c0.2706-0.2331 0.6659-0.246 0.9511-0.0311l2.0973 1.5805c0.2703 0.2037 0.6421 0.2037 0.9124 0l2.1291-1.6045c0.2703-0.2037 0.642-0.2037 0.9124 0l2.129 1.6045c0.2704 0.2037 0.6421 0.2037 0.9125 0l2.0973-1.5805c0.2851-0.2149 0.6805-0.202 0.9511 0.0311l1.6789 1.446c0.2264 0.195 0.577 0.0647 0.6176-0.2321 0.9517-6.9628 0.5307-15.0831 0.0801-20.1922-0.0939-1.0643-0.9258-1.9018-1.9853-1.992z" />
</svg>