<svg viewBox="0 0 11 11" fill="none" width="32" height="32" xmlns="http://www.w3.org/2000/svg" xmlns:xlink="http://www.w3.org/1999/xlink">
    <path stroke="currentColor" stroke-linecap="round" d="M0.5 3.7885l9.3414 0M2.25 2.3027c0 0.138-0.1119 0.2499-0.25 0.2499-0.1381 0-0.25-0.1119-0.25-0.25 0-0.138 0.1119-0.25 0.25-0.25 0.1381 0 0.25 0.112 0.25 0.25zM3.75 2.3027c0 0.138-0.1119 0.2499-0.25 0.2499-0.1381 0-0.25-0.1119-0.25-0.25 0-0.138 0.1119-0.25 0.25-0.25 0.1381 0 0.25 0.112 0.25 0.25zM5.25 2.3027c0 0.138-0.1119 0.2499-0.25 0.2499-0.1381 0-0.25-0.1119-0.25-0.25 0-0.138 0.1119-0.25 0.25-0.25 0.1381 0 0.25 0.112 0.25 0.25zM8.5385 0.5h-6.577C1.1544 0.5 0.5 1.1544 0.5 1.9615v6.577C0.5 9.3456 1.1544 10 1.9615 10h6.5769C9.3456 10 10 9.3456 10 8.5385v-6.577C10 1.1544 9.3456 0.5 8.5385 0.5z" />
</svg>