<svg viewBox="0 0 16 16" fill="none" width="32" height="32" xmlns="http://www.w3.org/2000/svg" xmlns:xlink="http://www.w3.org/1999/xlink">
    <path stroke="currentColor" stroke-linecap="round" d="M0.5 5.4327l14.0122 0M3.125 3.204c0 0.2071-0.1679 0.375-0.375 0.375-0.2071 0-0.375-0.1679-0.375-0.375 0-0.2071 0.1679-0.375 0.375-0.375 0.2071 0 0.375 0.1679 0.375 0.375zM5.375 3.204c0 0.2071-0.1679 0.375-0.375 0.375-0.2071 0-0.375-0.1679-0.375-0.375 0-0.2071 0.1679-0.375 0.375-0.375 0.2071 0 0.375 0.1679 0.375 0.375zM7.625 3.204c0 0.2071-0.1679 0.375-0.375 0.375-0.2071 0-0.375-0.1679-0.375-0.375 0-0.2071 0.1679-0.375 0.375-0.375 0.2071 0 0.375 0.1679 0.375 0.375zM12.5577 0.5H2.6923C1.4815 0.5 0.5 1.4815 0.5 2.6923l0 9.8654c0 1.2108 0.9815 2.1923 2.1923 2.1923h9.8654c1.2107 0 2.1923-0.9815 2.1923-2.1923V2.6923c0-1.2108-0.9815-2.1923-2.1923-2.1923z" />
</svg>