<svg viewBox="0 0 20 20" fill="none" width="32" height="32" xmlns="http://www.w3.org/2000/svg" xmlns:xlink="http://www.w3.org/1999/xlink">
    <path stroke="currentColor" stroke-linecap="round" d="M0.5 7.077l18.6829 0M4 4.1053c0 0.2761-0.2239 0.5-0.5 0.5S3 4.3815 3 4.1053s0.2239-0.5 0.5-0.5 0.5 0.2239 0.5 0.5zM7 4.1053c0 0.2761-0.2239 0.5-0.5 0.5S6 4.3815 6 4.1053s0.2239-0.5 0.5-0.5 0.5 0.2239 0.5 0.5zM10 4.1053c0 0.2761-0.2239 0.5-0.5 0.5S9 4.3815 9 4.1053s0.2239-0.5 0.5-0.5 0.5 0.2239 0.5 0.5zM16.5769 0.5H3.4231C1.8087 0.5 0.5 1.8087 0.5 3.4231l0 13.1538C0.5 18.1913 1.8087 19.5 3.4231 19.5h13.1538c1.6144 0 2.9231-1.3087 2.9231-2.9231V3.4231C19.5 1.8087 18.1913 0.5 16.5769 0.5z" />
</svg>