<svg viewBox="0 0 16 16" fill="none" width="32" height="32" xmlns="http://www.w3.org/2000/svg" xmlns:xlink="http://www.w3.org/1999/xlink">
    <path stroke="currentColor" stroke-linecap="round" stroke-linejoin="round" d="M7.625 12.0096V5.4327M0.5 2.6923l1.6442 0M14.75 2.6923l-1.6442 0M10.3654 2.6923l-5.4808 0M10.3654 2.6923V1.5962c0-0.6054-0.4908-1.0962-1.0962-1.0962H5.9808c-0.6054 0-1.0962 0.4908-1.0962 1.0962l0 1.0961M10.3654 2.6923l2.7404 0M4.8846 2.6923l-2.7404 0M13.1058 2.6923v9.8654c0 1.2108-0.9816 2.1923-2.1923 2.1923h-6.577c-1.2107 0-2.1923-0.9815-2.1923-2.1923l0-9.8654" />
</svg>