<svg viewBox="0 0 20 20" fill="none" width="32" height="32" xmlns="http://www.w3.org/2000/svg" xmlns:xlink="http://www.w3.org/1999/xlink">
    <path stroke="currentColor" stroke-linecap="round" stroke-linejoin="round" d="M10 15.8462V7.0769M0.5 3.4231l2.1923 0M19.5 3.4231l-2.1923 0M13.6538 3.4231l-7.3076 0M13.6538 3.4231V1.9615c0-0.8071-0.6543-1.4615-1.4615-1.4615H7.8077c-0.8072 0-1.4616 0.6544-1.4616 1.4615l0 1.4616M13.6538 3.4231l3.6539 0M6.3462 3.4231l-3.6539 0M17.3077 3.4231v13.1538c0 1.6144-1.3087 2.9231-2.9231 2.9231H5.6154c-1.6144 0-2.9231-1.3087-2.9231-2.9231l0-13.1538" />
</svg>