<svg viewBox="0 0 11 11" fill="none" width="32" height="32" xmlns="http://www.w3.org/2000/svg" xmlns:xlink="http://www.w3.org/1999/xlink">
    <path stroke="currentColor" stroke-linecap="round" stroke-linejoin="round" d="M5.25 8.1731V3.7885M0.5 1.9615l1.0962 0M10 1.9615l-1.0961 0M7.0769 1.9615l-3.6538 0M7.0769 1.9615l0-0.7307C7.0769 0.8272 6.7498 0.5 6.3462 0.5H4.1539c-0.4037 0-0.7308 0.3272-0.7308 0.7308l0 0.7307M7.0769 1.9615l1.827 0M3.4231 1.9615l-1.827 0M8.9039 1.9615l0 6.577C8.9039 9.3456 8.2495 10 7.4423 10H3.0577c-0.8072 0-1.4616-0.6544-1.4616-1.4615l0-6.577" />
</svg>