<svg viewBox="0 0 16 16" fill="none" width="32" height="32" xmlns="http://www.w3.org/2000/svg" xmlns:xlink="http://www.w3.org/1999/xlink">
    <path stroke="currentColor" stroke-linecap="round" stroke-linejoin="round" d="M4.7115 4.7115 6.1731 6.1731M11.2885 11.2885 9.8269 9.8269M4.7115 11.2885 6.1731 9.8269M11.2885 4.7115 9.8269 6.1731M12.75 8c0 2.6234-2.1266 4.75-4.75 4.75-2.6234 0-4.75-2.1266-4.75-4.75 0-2.6234 2.1266-4.75 4.75-4.75 2.6234 0 4.75 2.1266 4.75 4.75zM10.1923 8c0 1.2108-0.9815 2.1923-2.1923 2.1923S5.8077 9.2108 5.8077 8c0-1.2108 0.9815-2.1923 2.1923-2.1923 1.2108 0 2.1923 0.9815 2.1923 2.1923z" />
</svg>