<svg viewBox="0 0 24 24" fill="none" width="32" height="32" xmlns="http://www.w3.org/2000/svg" xmlns:xlink="http://www.w3.org/1999/xlink">
    <path fill="currentColor" d="M12.5 14.85c0-0.2761-0.2239-0.5-0.5-0.5s-0.5 0.2239-0.5 0.5zM11.5 15.5625c0 0.2761 0.2239 0.5 0.5 0.5s0.5-0.2239 0.5-0.5zM12 13.2469l-0.3743-0.3316c-0.081 0.0915-0.1257 0.2094-0.1257 0.3316zM11.5 14.85v0.7125h1V14.85zM10.3625 10.575c0-0.9044 0.7331-1.6375 1.6375-1.6375v-1c-1.4567 0-2.6375 1.1808-2.6375 2.6375zM12 8.9375c0.9044 0 1.6375 0.7331 1.6375 1.6375h1c0-1.4566-1.1808-2.6375-2.6375-2.6375zM11.5 13.2469v0.1781h1v-0.1781zM13.6375 10.575c0 0.3414-0.224 0.6913-0.6619 1.1117-0.2116 0.2031-0.4421 0.3948-0.6817 0.5995-0.2304 0.1968-0.4735 0.4093-0.6682 0.6291l0.7486 0.6631c0.1427-0.1611 0.3355-0.3323 0.5692-0.5319 0.2245-0.1919 0.4861-0.4094 0.7246-0.6384 0.462-0.4435 0.9694-1.0487 0.9694-1.8331zM18.625 12c0 3.6589-2.9661 6.625-6.625 6.625v1c4.2112 0 7.625-3.4138 7.625-7.625zM12 18.625c-3.6589 0-6.625-2.9661-6.625-6.625h-1c0 4.2112 3.4138 7.625 7.625 7.625zM5.375 12c0-3.6589 2.9661-6.625 6.625-6.625v-1c-4.2112 0-7.625 3.4138-7.625 7.625zM12 5.375c3.6589 0 6.625 2.9661 6.625 6.625h1c0-4.2112-3.4138-7.625-7.625-7.625z" />
</svg>