<svg viewBox="0 0 32 32" fill="none" width="32" height="32" xmlns="http://www.w3.org/2000/svg" xmlns:xlink="http://www.w3.org/1999/xlink">
    <path stroke="currentColor" stroke-linecap="round" stroke-linejoin="round" d="M20.2207 20.2731c2.2729 0 4.142-0.1263 4.7495-0.5324 0.2842-0.1901 0.5566-0.7024 0.5277-1.0648 0-2.3455-3.9249-2.3455-3.9249-2.3455h-1.3148c-0.025 0-0.0496 3e-4-0.0746 12e-4-0.3721 0.0131-3.418 0.1517-3.4996 1.1747M23.387 11.2222c0 1.1761-0.9451 2.1296-2.1109 2.1296s-2.1108-0.9535-2.1108-2.1296c0-1.1762 0.945-2.1297 2.1108-2.1297 1.1658 0 2.1109 0.9535 2.1109 2.1297zM16.4513 11.3604c0 1.8559-1.4913 3.3604-3.3308 3.3604-1.8396 0-3.3308-1.5045-3.3308-3.3604C9.7897 9.5045 11.2809 8 13.1205 8c1.8395 0 3.3308 1.5045 3.3308 3.3604zM19.2437 22.4947C18.3619 23.0842 16.461 24 13.1616 24c-3.2994 0-5.2003-0.9158-6.0822-1.5053-0.4126-0.2759-0.616-0.7838-0.574-1.3099 0.046-0.5772 0.2057-1.1539 0.3898-1.6535 0.3589-0.9738 1.3463-1.5053 2.3841-1.5053h7.7646c1.0378 0 2.0252 0.5315 2.3841 1.5053 0.1841 0.4996 0.3437 1.0763 0.3898 1.6535 0.0419 0.5261-0.1614 1.034-0.5741 1.3099z" />
</svg>