<svg viewBox="0 0 16 16" stroke="currentColor" fill="none" width="32" height="32" xmlns="http://www.w3.org/2000/svg" xmlns:xlink="http://www.w3.org/1999/xlink">
    <path d="M3.9883 3.25H7.521c0.1014 0 0.1984 0.0415 0.2681 0.1148l4.5569 4.7879c0.5495 0.5774 0.5369 1.4847-0.0285 2.0468l-2.1332 2.1206c-0.5703 0.5668-1.4925 0.5741-2.0716 0.0163L3.3623 7.7618C3.2905 7.6927 3.25 7.5976 3.25 7.4982V3.9839C3.25 3.5786 3.5806 3.25 3.9883 3.25z" />
    <path d="M6.5724 5.6353c0-0.5067-0.4132-0.9174-0.9229-0.9174-0.5097 0-0.9229 0.4107-0.9229 0.9174 0 0.5067 0.4132 0.9174 0.9229 0.9174 0.5097 0 0.9229-0.4107 0.9229-0.9174z" />
</svg>