<svg viewBox="0 0 16 16" fill="none" width="32" height="32" xmlns="http://www.w3.org/2000/svg" xmlns:xlink="http://www.w3.org/1999/xlink">
    <path stroke="currentColor" stroke-linecap="round" d="M13.25 11.1875c0 0.5868-0.3932 1.0625-0.8782 1.0625H4.2813M4.2813 3.75h8.0905c0.485 0 0.8782 0.4757 0.8782 1.0625v0.3714c0 0.1964-0.1658 0.349-0.3455 0.428C12.593 5.749 12.375 6.0656 12.375 6.4342c0 0.3687 0.218 0.6853 0.5295 0.8223 0.1797 0.0791 0.3455 0.2316 0.3455 0.428v0.631c0 0.1964-0.1658 0.3489-0.3455 0.428-0.3115 0.137-0.5295 0.4536-0.5295 0.8223 0 0.3686 0.218 0.6852 0.5295 0.8223 0.1797 0.079 0.3455 0.2316 0.3455 0.428v0.3155M2.75 11.1875c0 0.5868 0.3932 1.0625 0.8782 1.0625h0.8686M4.4968 3.75H3.6282C3.1432 3.75 2.75 4.2257 2.75 4.8125v0.3714c0 0.1964 0.1658 0.349 0.3455 0.428C3.407 5.749 3.625 6.0656 3.625 6.4342c0 0.3687-0.218 0.6853-0.5295 0.8223C2.9158 7.3356 2.75 7.4881 2.75 7.6845v0.631c0 0.1964 0.1658 0.3489 0.3455 0.428C3.407 8.8805 3.625 9.1971 3.625 9.5658c0 0.3686-0.218 0.6852-0.5295 0.8223-0.1797 0.079-0.3455 0.2316-0.3455 0.428v0.3155M9.8594 11.9145l0-0.6711M9.8594 10.125l0-0.671M9.8594 8.3355l0-0.671M9.8594 6.5461l0-0.6711M9.8594 4.7566l0-0.6711" />
</svg>