<svg viewBox="0 0 24 24" stroke="currentColor" stroke-linecap="round" stroke-linejoin="round" fill="none" width="32" height="32" stroke-miterlimit="10" xmlns="http://www.w3.org/2000/svg" xmlns:xlink="http://www.w3.org/1999/xlink">
    <path d="M15.1095 17.1936c-0.5848 0.6227-0.4429 0.5633-1.7267 1.2302-0.3633 0.1161-0.7925 0.1717-1.2873 0.167-0.7588-72e-4-1.3519-0.1921-1.7795-0.5248-0.4276-0.3327-0.6239-0.7528-0.6217-1.2906 8e-4-0.2091 16e-4-0.4182 0.0355-0.627 0.0338-0.2088 0.0677-0.4475 0.1677-0.7154l0.8018-2.5018c0.0669-0.2383 0.1338-0.4767 0.1676-0.6855 0.0339-0.2088 0.0677-0.4176 0.0684-0.5968 13e-4-0.3286-0.0639-0.5384-0.2283-0.6594-0.1315-0.1208-0.4282-0.1834-0.8241-0.1871-0.1979-19e-4-0.396 0.0261-0.6272 0.0836-0.1981 0.0579-0.3167 0.0641-0.4818 0.0924l0.1136-0.1349c0.3856-0.4741 0.999-0.9373 1.4943-1.0521 0.4625-0.145 0.9246-0.2003 1.3205-0.1965 0.7587 72e-4 1.3189 0.1918 1.7464 0.5245 0.3946 0.3324 0.6239 0.7528 0.6218 1.2905-5e-4 0.1195-12e-4 0.2988-0.0353 0.5673-0.034 0.2685-0.0681 0.5371-0.1679 0.7453l-0.8017 2.5018c-0.0668 0.2084-0.1336 0.4169-0.1677 0.6855-0.067 0.2682-0.0677 0.4474-0.0683 0.5968-13e-4 0.3286 0.0637 0.5682 0.2282 0.6893s0.4611 0.1836 0.857 0.1874c0.198 19e-4 0.396-0.0261 0.6602-0.0833 0.2312-0.0576 0.3964-0.1157 0.5284-0.1443z" />
    <path d="M15.3104 6.2397c0.1368 0.8612-0.4386 1.6683-1.2851 1.8027-0.8464 0.1344-1.6435-0.4548-1.7802-1.3161-0.1367-0.8612 0.4386-1.6683 1.2851-1.8027 0.8465-0.1344 1.6435 0.4549 1.7802 1.3161z" />
</svg>