<svg viewBox="0 0 24 24" stroke="currentColor" stroke-linecap="round" fill="none" width="32" height="32" xmlns="http://www.w3.org/2000/svg" xmlns:xlink="http://www.w3.org/1999/xlink">
    <path d="M3.75 7.5C3.75 6.6716 4.3947 6 5.19 6h13.62c0.7953 0 1.44 0.6716 1.44 1.5v1.25c0 0.5523-0.4721 0.9806-0.9623 1.235-0.71 0.3687-1.1977 1.1325-1.1977 2.015s0.4877 1.6463 1.1977 2.015c0.4902 0.2544 0.9623 0.6827 0.9623 1.235v1.25c0 0.8284-0.6447 1.5-1.44 1.5H5.19c-0.7953 0-1.44-0.6716-1.44-1.5v-1.25c0-0.5523 0.4721-0.9806 0.9623-1.235C5.4223 13.6463 5.91 12.8825 5.91 12s-0.4877-1.6463-1.1978-2.015C4.2221 9.7306 3.75 9.3023 3.75 8.75z" />
    <line stroke-dasharray="2.6 3.2" x1="8.75" x2="8.75" y1="6.5" y2="17.5" />
</svg>