<svg viewBox="0 0 32 32" fill="none" width="32" height="32" xmlns="http://www.w3.org/2000/svg" xmlns:xlink="http://www.w3.org/1999/xlink">
    <path stroke="currentColor" stroke-linecap="round" d="M26.5 22.375c0 1.1736-0.7864 2.125-1.7564 2.125H8.5625M8.5625 7.5h16.1811c0.97 0 1.7564 0.9514 1.7564 2.125v1.0984c0 0.1964-0.1609 0.3517-0.3531 0.392-0.7972 0.167-1.3969 0.8884-1.3969 1.753s0.5997 1.586 1.3969 1.7531c0.1922 0.0402 0.3531 0.1956 0.3531 0.3919v1.9731c0 0.1964-0.1609 0.3518-0.3531 0.392-0.7972 0.1671-1.3969 0.8885-1.3969 1.7531s0.5997 1.586 1.3969 1.753c0.1922 0.0403 0.3531 0.1956 0.3531 0.392v0.9866M5.5 22.375c0 1.1736 0.7863 2.125 1.7564 2.125h1.7372M8.9936 7.5H7.2564C6.2864 7.5 5.5 8.4514 5.5 9.625v1.0984c0 0.1964 0.1609 0.3517 0.3531 0.392 0.7972 0.167 1.3969 0.8884 1.3969 1.753s-0.5997 1.586-1.3969 1.7531C5.6609 14.6617 5.5 14.8171 5.5 15.0134v1.9731c0 0.1964 0.1609 0.3518 0.3531 0.392C6.6503 17.5456 7.25 18.267 7.25 19.1316s-0.5997 1.586-1.3969 1.753C5.6609 20.9249 5.5 21.0802 5.5 21.2766v0.9866M19.7187 23.8289v-1.3421M19.7187 20.25v-1.3421M19.7187 16.6711v-1.3422M19.7187 13.0921V11.75M19.7187 9.5132V8.171" />
</svg>