<svg viewBox="0 0 24 24" stroke="currentColor" fill="none" width="32" height="32" xmlns="http://www.w3.org/2000/svg" xmlns:xlink="http://www.w3.org/1999/xlink">
    <path d="M12 4.875c0.9081 0 1.6442 0.7361 1.6442 1.6442 0 0.1494 0.0974 0.2804 0.2376 0.3316 0.1457 0.0533 0.2885 0.1125 0.4281 0.1775 0.1355 0.0631 0.2972 0.0393 0.403-0.0664 0.6421-0.6421 1.6831-0.6421 2.3252 0 0.6422 0.6421 0.6422 1.6832 0 2.3253-0.1057 0.1057-0.1295 0.2674-0.0664 0.4029 0.065 0.1396 0.1242 0.2824 0.1775 0.4281 0.0512 0.1402 0.1823 0.2376 0.3316 0.2376 0.9081 0 1.6442 0.7361 1.6442 1.6442s-0.7361 1.6442-1.6442 1.6442c-0.1493 0-0.2804 0.0974-0.3316 0.2376-0.0533 0.1457-0.1125 0.2885-0.1775 0.4281-0.0631 0.1356-0.0393 0.2972 0.0664 0.403 0.6421 0.6421 0.6422 1.6831 0 2.3252-0.6421 0.6421-1.6831 0.6421-2.3252 0-0.1058-0.1057-0.2675-0.1295-0.403-0.0664-0.1396 0.065-0.2824 0.1242-0.4281 0.1775-0.1402 0.0512-0.2376 0.1822-0.2376 0.3316 0 0.9081-0.7361 1.6442-1.6442 1.6442s-1.6442-0.7361-1.6442-1.6442c0-0.1494-0.0974-0.2804-0.2376-0.3316-0.1457-0.0533-0.2885-0.1125-0.4281-0.1775-0.1355-0.0631-0.2972-0.0393-0.4029 0.0664-0.6421 0.6421-1.6832 0.6421-2.3253 0-0.6421-0.6421-0.6421-1.6831 0-2.3252 0.1057-0.1058 0.1295-0.2674 0.0664-0.403-0.065-0.1396-0.1242-0.2824-0.1775-0.4281-0.0512-0.1402-0.1822-0.2376-0.3316-0.2376-0.9081 0-1.6442-0.7361-1.6442-1.6442s0.7361-1.6442 1.6442-1.6442c0.1494 0 0.2804-0.0974 0.3316-0.2376 0.0533-0.1457 0.1125-0.2885 0.1775-0.4281 0.0631-0.1355 0.0393-0.2972-0.0664-0.4029-0.6421-0.6422-0.6421-1.6832 0-2.3253 0.6421-0.6421 1.6832-0.6421 2.3253 0 0.1057 0.1057 0.2674 0.1295 0.4029 0.0664 0.1396-0.065 0.2824-0.1242 0.4281-0.1775 0.1402-0.0512 0.2376-0.1822 0.2376-0.3316 0-0.9081 0.7361-1.6442 1.6442-1.6442z" />
    <path d="M15.1667 12c0 1.7489-1.4178 3.1667-3.1667 3.1667S8.8333 13.7489 8.8333 12c0-1.7489 1.4178-3.1667 3.1667-3.1667 1.7489 0 3.1667 1.4178 3.1667 3.1667z" />
</svg>