<svg viewBox="0 0 32 32" fill="none" width="32" height="32" xmlns="http://www.w3.org/2000/svg" xmlns:xlink="http://www.w3.org/1999/xlink">
    <path fill="currentColor" d="M16.5 19.8c0-0.2761-0.2239-0.5-0.5-0.5s-0.5 0.2239-0.5 0.5zM15.5 20.75c0 0.2761 0.2239 0.5 0.5 0.5s0.5-0.2239 0.5-0.5zM16 17.6625 15.6257 17.331c-0.081 0.0914-0.1257 0.2093-0.1257 0.3315zM15.5 19.8v0.95h1V19.8zM13.65 14.1c0-1.2979 1.0521-2.35 2.35-2.35v-1c-1.8502 0-3.35 1.4998-3.35 3.35zM16 11.75c1.2979 0 2.35 1.0521 2.35 2.35h1c0-1.8502-1.4998-3.35-3.35-3.35zM15.5 17.6625V17.9h1v-0.2375zM18.35 14.1c0 0.5291-0.3458 1.0381-0.9338 1.6026-0.2866 0.275-0.5992 0.5349-0.9161 0.8057-0.3077 0.2629-0.6234 0.5393-0.8744 0.8227l0.7486 0.663c0.1989-0.2246 0.4644-0.4597 0.7754-0.7254 0.3018-0.2579 0.6455-0.5437 0.959-0.8446 0.612-0.5876 1.2413-1.3519 1.2413-2.324zM25 16c0 4.9706-4.0294 9-9 9v1c5.5228 0 10-4.4772 10-10zM16 25c-4.9706 0-9-4.0294-9-9H6c0 5.5228 4.4772 10 10 10zM7 16c0-4.9706 4.0294-9 9-9V6C10.4772 6 6 10.4772 6 16zM16 7c4.9706 0 9 4.0294 9 9h1c0-5.5228-4.4772-10-10-10z" />
</svg>