<svg viewBox="0 0 16 16" fill="none" width="32" height="32" xmlns="http://www.w3.org/2000/svg" xmlns:xlink="http://www.w3.org/1999/xlink">
    <path fill="currentColor" d="M8.5 9.9c0-0.2761-0.2239-0.5-0.5-0.5S7.5 9.6239 7.5 9.9zM7.5 10.375c0 0.2761 0.2239 0.5 0.5 0.5s0.5-0.2239 0.5-0.5zM8 8.8313 7.6257 8.4997C7.5447 8.5912 7.5 8.7091 7.5 8.8313zM7.5 9.9v0.475h1V9.9zM7.075 7.05c0-0.5109 0.4141-0.925 0.925-0.925v-1c-1.0632 0-1.925 0.8618-1.925 1.925zM8 6.125c0.5109 0 0.925 0.4141 0.925 0.925h1c0-1.0632-0.8619-1.925-1.925-1.925zM7.5 8.8313V8.95h1V8.8313zM8.925 7.05c0 0.1538-0.1021 0.3445-0.39 0.6209C8.3984 7.802 8.2499 7.9255 8.0877 8.0641 7.9346 8.1948 7.7642 8.3434 7.6257 8.4997l0.7486 0.6631c0.0865-0.0976 0.2066-0.2049 0.363-0.3384 0.1471-0.1258 0.3267-0.2751 0.4902-0.4321C9.5395 8.0928 9.925 7.6468 9.925 7.05zM12.25 8c0 2.3472-1.9028 4.25-4.25 4.25v1c2.8995 0 5.25-2.3505 5.25-5.25zM8 12.25c-2.3472 0-4.25-1.9028-4.25-4.25h-1c0 2.8995 2.3505 5.25 5.25 5.25zM3.75 8c0-2.3472 1.9028-4.25 4.25-4.25v-1C5.1005 2.75 2.75 5.1005 2.75 8zM8 3.75c2.3472 0 4.25 1.9028 4.25 4.25h1c0-2.8995-2.3505-5.25-5.25-5.25z" />
</svg>