<svg viewBox="0 0 24 24" fill="none" width="32" height="32" xmlns="http://www.w3.org/2000/svg" xmlns:xlink="http://www.w3.org/1999/xlink">
    <path stroke="currentColor" stroke-linecap="round" stroke-linejoin="round" d="M15.1655 15.2048c1.7047 0 3.1065-0.0947 3.5621-0.3993 0.2132-0.1425 0.4175-0.5268 0.3958-0.7986 0-1.7591-2.9437-1.7591-2.9437-1.7591h-0.986c-0.0188 0-0.0373 3e-4-0.056 9e-4-0.2791 99e-4-2.5635 0.1138-2.6247 0.881M17.5403 8.4166c0 0.8821-0.7088 1.5973-1.5832 1.5973s-1.5832-0.7152-1.5832-1.5973c0-0.8821 0.7088-1.5972 1.5832-1.5972s1.5832 0.7151 1.5832 1.5972zM12.3384 8.5203c0 1.3919-1.1184 2.5203-2.498 2.5203-1.3797 0-2.4981-1.1284-2.4981-2.5203C7.3423 7.1284 8.4607 6 9.8404 6c1.3796 0 2.498 1.1284 2.498 2.5203zM14.4328 16.871C13.7715 17.3131 12.3458 18 9.8712 18c-2.4746 0-3.9003-0.6869-4.5616-1.129-0.3095-0.2069-0.462-0.5878-0.4305-0.9824 0.0345-0.4329 0.1542-0.8654 0.2923-1.2401 0.2692-0.7304 1.0097-1.129 1.7881-1.129h5.8234c0.7783 0 1.5189 0.3986 1.7881 1.129 0.1381 0.3747 0.2578 0.8072 0.2923 1.2401 0.0315 0.3946-0.121 0.7755-0.4305 0.9824z" />
</svg>