<svg viewBox="0 0 24 24" fill="none" width="32" height="32" xmlns="http://www.w3.org/2000/svg" xmlns:xlink="http://www.w3.org/1999/xlink">
    <path stroke="currentColor" d="M9.2528 19.125H5.8912c-0.5642 0-1.0205-0.4605-1.0162-1.0256l0.0465-6.1071c43e-4-0.5591 0.458-1.0102 1.0162-1.0102h3.3151M9.2528 19.125h6.9941c0.4763 0 0.8887-0.3313 0.9921-0.7969l1.8614-7.2816c0.141-0.6357-0.3419-1.2388-0.9921-1.2388l-2.836 0c-0.6404 0-1.1433-0.4294-1.0192-1.0586l0.5245-2.6589c0.1241-0.6292-0.3567-1.2152-0.997-1.2152h-0.1998c-0.3614 0-0.6956 0.1923-0.8778 0.505l-3.4502 5.6021M9.2528 19.125l0-8.1429" />
</svg>