<svg viewBox="0 0 32 32" fill="none" width="32" height="32" xmlns="http://www.w3.org/2000/svg" xmlns:xlink="http://www.w3.org/1999/xlink">
    <path stroke="currentColor" d="M12.3371 25.5H7.855c-0.7524 0-1.3608-0.614-1.355-1.3674l0.062-8.1429c57e-4-0.7455 0.6107-1.3468 1.355-1.3468h4.4201M12.3371 25.5h9.3255c0.635 0 1.1849-0.4417 1.3227-1.0626l2.4819-9.7088c0.188-0.8475-0.4559-1.6517-1.3228-1.6517H20.363c-0.8538 0-1.5244-0.5725-1.3589-1.4114l0.6993-3.5453C19.8689 7.2813 19.2279 6.5 18.3742 6.5h-0.2664c-0.4819 0-0.9275 0.2565-1.1704 0.6733l-4.6003 7.4696M12.3371 25.5V14.6429" />
</svg>