<svg viewBox="0 0 16 16" stroke="currentColor" fill="none" width="32" height="32" xmlns="http://www.w3.org/2000/svg" xmlns:xlink="http://www.w3.org/1999/xlink">
    <path d="M8 3.25c0.6054 0 1.0961 0.4908 1.0961 1.0961 0 0.0996 0.0649 0.187 0.1584 0.2211 0.0972 0.0355 0.1924 0.075 0.2854 0.1183 0.0904 0.0421 0.1982 0.0262 0.2687-0.0443 0.428-0.428 1.1221-0.428 1.5502 0 0.428 0.4281 0.428 1.1222 0 1.5503-0.0705 0.0704-0.0864 0.1782-0.0443 0.2686 0.0433 0.093 0.0828 0.1883 0.1183 0.2854 0.0342 0.0935 0.1215 0.1584 0.221 0.1584 0.6054 0 1.0962 0.4907 1.0962 1.0961s-0.4908 1.0961-1.0962 1.0961c-0.0995 0-0.1868 0.0649-0.221 0.1584-0.0355 0.0972-0.075 0.1924-0.1183 0.2854-0.0421 0.0904-0.0262 0.1982 0.0443 0.2687 0.428 0.428 0.428 1.1221 0 1.5502-0.4281 0.428-1.1222 0.428-1.5502 0-0.0705-0.0705-0.1783-0.0864-0.2687-0.0443-0.093 0.0433-0.1882 0.0828-0.2854 0.1183-0.0935 0.0342-0.1584 0.1215-0.1584 0.221 0 0.6054-0.4907 1.0962-1.0961 1.0962s-1.0961-0.4908-1.0961-1.0962c0-0.0995-0.0649-0.1868-0.1584-0.221-0.0972-0.0355-0.1924-0.075-0.2854-0.1183-0.0904-0.0421-0.1982-0.0262-0.2687 0.0443-0.428 0.428-1.1221 0.428-1.5502 0-0.428-0.4281-0.428-1.1222 0-1.5502 0.0705-0.0705 0.0864-0.1783 0.0444-0.2687-0.0434-0.093-0.0829-0.1882-0.1184-0.2854C4.533 9.161 4.4457 9.0962 4.3462 9.0962 3.7408 9.0962 3.25 8.6054 3.25 8s0.4908-1.0961 1.0961-1.0961c0.0996 0 0.1869-0.0649 0.2211-0.1584 0.0355-0.0972 0.075-0.1924 0.1183-0.2854 0.0421-0.0904 0.0262-0.1982-0.0443-0.2687-0.428-0.428-0.428-1.1221 0-1.5502 0.4281-0.428 1.1222-0.428 1.5502 0 0.0705 0.0705 0.1783 0.0864 0.2687 0.0443 0.093-0.0433 0.1882-0.0828 0.2854-0.1183 0.0935-0.0341 0.1584-0.1215 0.1584-0.221C6.9039 3.7408 7.3946 3.25 8 3.25z" />
    <path d="M10.1111 8c0 1.1659-0.9452 2.1111-2.1111 2.1111S5.8889 9.1659 5.8889 8c0-1.1659 0.9452-2.1111 2.1111-2.1111 1.1659 0 2.1111 0.9452 2.1111 2.1111z" />
</svg>