<svg viewBox="0 0 24 24" stroke="currentColor" fill="none" width="32" height="32" xmlns="http://www.w3.org/2000/svg" xmlns:xlink="http://www.w3.org/1999/xlink">
    <path d="M15.2877 8.1635c0 1.8161-1.4722 3.2884-3.2884 3.2884S8.7108 9.9796 8.7108 8.1635c0-1.8162 1.4723-3.2885 3.2885-3.2885s3.2884 1.4723 3.2884 3.2885z" />
    <path d="M11.9993 19.125c3.2575 0 5.1342-0.8402 6.0048-1.3811 0.4074-0.253 0.6082-0.719 0.5668-1.2017-0.0566-0.6592-0.2869-1.3176-0.5215-1.8399-0.3079-0.6857-1.0207-1.0581-1.7724-1.0581H7.7216c-0.7517 0-1.4645 0.3724-1.7724 1.0581-0.2346 0.5222-0.4649 1.1807-0.5215 1.8399-0.0414 0.4827 0.1594 0.9487 0.5667 1.2017 0.8706 0.5409 2.7474 1.3811 6.0049 1.3811z" />
</svg>