<svg viewBox="0 0 16 16" fill="none" width="32" height="32" xmlns="http://www.w3.org/2000/svg" xmlns:xlink="http://www.w3.org/1999/xlink">
    <path stroke="currentColor" d="M3.25 6.3286C3.4554 5.3 4.705 4.1857 5.3041 3.7572c0.6846-0.1715 2.7216-0.4115 5.3918 0 1.0271 0.4114 1.7973 1.8857 2.0541 2.5714M3.25 6.3286C3.4212 7.7 4.5851 10.8543 7.8716 12.5M3.25 6.3286c2.0541-0.2572 5.1351-0.5143 9.5 0M7.8716 12.5c1.2838-0.5143 4.0568-2.4686 4.8784-6.1714M7.8716 12.5C6.4338 9.62 5.6464 7.0143 5.5608 6.0714L7.1014 3.5M7.8716 12.5c1.4379-2.88 2.2252-5.4857 2.3108-6.4286L8.6419 3.5" />
</svg>