<svg viewBox="0 0 16 16" fill="none" width="32" height="32" xmlns="http://www.w3.org/2000/svg" xmlns:xlink="http://www.w3.org/1999/xlink">
    <path stroke="currentColor" stroke-linecap="round" d="M6.2232 8.3535l1.1309 0M6.2232 9.8412l1.1309 0M6.2232 6.838l4.8254 0M6.2232 5.4848l4.8254 0M3.9802 12.2044h7.5773c0.5278 0 0.9425-0.4134 0.9425-0.9397V4.188C12.5 4.0752 12.4246 4 12.3115 4H4.9603C4.8472 4 4.7718 4.0752 4.7718 4.188l0 7.0767c0 0.5263-0.3958 0.9397-0.8859 0.9397C3.3958 12.2044 3 11.791 3 11.2647V5.2216M10.9543 10.8938h-2.13c-0.1131 0-0.1885-0.0752-0.1885-0.1879l0-2.308c0-0.1128 0.0754-0.1879 0.1885-0.1879l2.13 0c0.1131 0 0.1885 0.0752 0.1885 0.1879v2.308c0 0.1127-0.0754 0.1879-0.1885 0.1879z" stroke-miterlimit="10" />
</svg>