<svg viewBox="0 0 24 24" fill="none" width="32" height="32" xmlns="http://www.w3.org/2000/svg" xmlns:xlink="http://www.w3.org/1999/xlink">
    <path stroke="currentColor" d="M19.125 12c0 3.935-3.19 7.125-7.125 7.125M19.125 12c0-3.935-3.19-7.125-7.125-7.125M19.125 12H4.875M12 19.125c-3.935 0-7.125-3.19-7.125-7.125M12 19.125V4.875M12 19.125c2.1861 0 3.9583-3.19 3.9583-7.125M12 19.125c-2.1861 0-3.9583-3.19-3.9583-7.125M4.875 12c0-3.935 3.19-7.125 7.125-7.125M12 4.875c-2.1861 0-3.9583 3.19-3.9583 7.125M12 4.875c2.1861 0 3.9583 3.19 3.9583 7.125M15.9583 12H8.0417" />
</svg>