<svg viewBox="0 0 24 24" fill="none" width="32" height="32" xmlns="http://www.w3.org/2000/svg" xmlns:xlink="http://www.w3.org/1999/xlink">
    <path stroke="currentColor" d="M14.313 8.1056c0.3217 0.988 1.2503 1.7021 2.3457 1.7021 1.3621 0 2.4663-1.1042 2.4663-2.4664 0-1.3621-1.1042-2.4663-2.4663-2.4663-1.3622 0-2.4664 1.1042-2.4664 2.4664 0 0.2667 0.0424 0.5236 0.1207 0.7642zM14.313 8.1056 9.4929 10.5194M9.4929 10.5194C9.0704 9.7676 8.2652 9.2596 7.3414 9.2596c-1.3622 0-2.4664 1.1042-2.4664 2.4664 0 1.3621 1.1042 2.4663 2.4664 2.4663 0.8768 0 1.6467-0.4575 2.0841-1.1469M9.4929 10.5194c0.4391 0.7812 0.4128 1.769-0.0674 2.526M9.4255 13.0454l5.0911 2.39M14.5166 15.4354c-0.2064 0.3605-0.3243 0.7781-0.3243 1.2233 0 1.3621 1.1042 2.4663 2.4664 2.4663 1.3621 0 2.4663-1.1042 2.4663-2.4663 0-1.3622-1.1042-2.4664-2.4663-2.4664-0.917 0-1.7171 0.5004-2.1421 1.2431z" />
</svg>