<svg viewBox="0 0 24 24" fill="none" width="32" height="32" xmlns="http://www.w3.org/2000/svg" xmlns:xlink="http://www.w3.org/1999/xlink">
    <path stroke="currentColor" stroke-linecap="round" stroke-linejoin="round" d="M7.0673 7.0673 9.2596 9.2596M16.9327 16.9327l-2.1923-2.1923M7.0673 16.9327l2.1923-2.1923M16.9327 7.0673 14.7404 9.2596M19.125 12c0 3.935-3.19 7.125-7.125 7.125-3.935 0-7.125-3.19-7.125-7.125 0-3.935 3.19-7.125 7.125-7.125 3.935 0 7.125 3.19 7.125 7.125zM15.2885 12c0 1.8162-1.4723 3.2885-3.2885 3.2885S8.7115 13.8162 8.7115 12c0-1.8162 1.4723-3.2885 3.2885-3.2885 1.8162 0 3.2885 1.4723 3.2885 3.2885z" />
</svg>