<svg viewBox="0 0 32 32" fill="none" width="32" height="32" xmlns="http://www.w3.org/2000/svg" xmlns:xlink="http://www.w3.org/1999/xlink">
    <path stroke="currentColor" d="M6.5 12.6572C6.9108 10.6 9.4099 8.3714 10.6081 7.5143c1.3694-0.3429 5.4433-0.8229 10.7838 0 2.054 0.8228 3.5946 3.7714 4.1081 5.1429M6.5 12.6572C6.8423 15.4 9.1703 21.7086 15.7432 25M6.5 12.6572c4.1081-0.5143 10.2703-1.0286 19 0M15.7432 25c2.5676-1.0286 8.1136-4.9371 9.7568-12.3428M15.7432 25c-2.8756-5.76-4.4504-10.9714-4.6216-12.8571L14.2027 7M15.7432 25c2.8757-5.76 4.4505-10.9714 4.6217-12.8571L17.2838 7" />
</svg>