<svg viewBox="0 0 32 32" stroke="currentColor" fill="none" width="32" height="32" xmlns="http://www.w3.org/2000/svg" xmlns:xlink="http://www.w3.org/1999/xlink">
    <path d="M7.9766 6.5h7.0654c0.2029 0 0.3968 0.083 0.5363 0.2295l9.1137 9.5759c1.0991 1.1548 1.0738 2.9694-0.057 4.0935l-4.2665 4.2412c-1.1404 1.1337-2.9848 1.1482-4.1432 0.0327l-9.5007-9.1492C6.581 15.3853 6.5 15.1951 6.5 14.9964V7.9679C6.5 7.1572 7.1611 6.5 7.9766 6.5z" />
    <path d="M13.1449 11.2706c0-1.0134-0.8264-1.8348-1.8458-1.8348-1.0194 0-1.8458 0.8214-1.8458 1.8348 0 1.0134 0.8264 1.8349 1.8458 1.8349s1.8458-0.8215 1.8458-1.8349z" />
</svg>