<svg viewBox="0 0 24 24" fill="none" width="32" height="32" xmlns="http://www.w3.org/2000/svg" xmlns:xlink="http://www.w3.org/1999/xlink">
    <path stroke="currentColor" d="M4.875 9.4929C5.1831 7.95 7.0574 6.2786 7.9561 5.6357c1.027-0.2571 4.0824-0.6171 8.0878 0 1.5406 0.6172 2.696 2.8286 3.0811 3.8572M4.875 9.4929c0.2568 2.0571 2.0027 6.7885 6.9324 9.2571M4.875 9.4929c3.0811-0.3857 7.7027-0.7715 14.25 0M11.8074 18.75c1.9257-0.7714 6.0852-3.7029 7.3176-9.2571M11.8074 18.75c-2.1567-4.32-3.3378-8.2286-3.4662-9.6429L10.652 5.25M11.8074 18.75c2.1568-4.32 3.3379-8.2286 3.4663-9.6429L12.9628 5.25" />
</svg>