<svg viewBox="0 0 32 32" stroke="currentColor" stroke-linecap="round" fill="none" width="32" height="32" xmlns="http://www.w3.org/2000/svg" xmlns:xlink="http://www.w3.org/1999/xlink">
    <path d="M5 10c0-1.1046 0.8596-2 1.92-2h18.16C26.1404 8 27 8.8954 27 10v2c0 0.5523-0.4618 0.9831-0.9787 1.1777C24.9125 13.595 24.12 14.7011 24.12 16s0.7925 2.405 1.9013 2.8223C26.5382 19.0169 27 19.4477 27 20v2c0 1.1046-0.8596 2-1.92 2H6.92C5.8596 24 5 23.1046 5 22v-2c0-0.5523 0.4618-0.9831 0.9787-1.1777C7.0875 18.405 7.88 17.2989 7.88 16s-0.7925-2.405-1.9013-2.8223C5.4618 12.9831 5 12.5523 5 12z" />
    <line stroke-dasharray="2.6 3.2" x1="11.5" x2="11.5" y1="8.5" y2="23.5" />
</svg>