<svg viewBox="0 0 24 24" fill="none" width="32" height="32" xmlns="http://www.w3.org/2000/svg" xmlns:xlink="http://www.w3.org/1999/xlink">
    <path stroke="currentColor" stroke-linecap="round" d="M16.2289 18.632c-0.0595 0.8223-0.1423 1.6361-0.253 2.4269-0.0269 0.1921-0.2595 0.2765-0.4097 0.1502l-1.114-0.9362c-0.1796-0.1508-0.4419-0.1592-0.6311-0.0201l-1.3915 1.0233c-0.1794 0.1319-0.426 0.1319-0.6054 0l-1.4126-1.0388c-0.1794-0.1319-0.426-0.1319-0.6054 0l-1.4126 1.0388c-0.1794 0.1319-0.426 0.1319-0.6054 0l-1.3916-1.0233c-0.1891-0.1391-0.4515-0.1307-0.631 0.0201l-1.119 0.9405c-0.1491 0.1253-0.3803 0.043-0.41-0.1474-0.8018-5.1348-0.4545-10.143-0.0799-13.1764 0.0795-0.6439 0.595-1.1466 1.2528-1.2141 0.3371-0.0346 0.6801-0.0639 1.0268-0.0883M9.9665 6.2625l3.7838 0M9.9665 9.2304l8.0721 0M9.9665 12.1983h8.0721M5.7564 14.865h1.6063M5.7564 11.8835h1.6063M18.6055 2.8371c-2.3176-0.1926-6.082-0.3513-9.3024-0.0208-0.6578 0.0675-1.1733 0.5703-1.2528 1.2141-0.3745 3.0334-0.7218 8.0416 0.08 13.1764 0.0297 0.1904 0.2608 0.2727 0.41 0.1474l1.119-0.9404c0.1795-0.1509 0.4418-0.1593 0.631-0.0202l1.3915 1.0233c0.1794 0.1319 0.4261 0.1319 0.6054 0l1.4126-1.0388c0.1794-0.1319 0.4261-0.1319 0.6054 0l1.4126 1.0388c0.1794 0.1319 0.4261 0.1319 0.6054 0l1.3916-1.0233c0.1892-0.1391 0.4515-0.1307 0.631 0.0202l1.114 0.9362c0.1502 0.1262 0.3828 0.0419 0.4097-0.1503 0.6315-4.5079 0.3522-9.7652 0.0532-13.073-0.0623-0.689-0.6142-1.2312-1.3172-1.2896z" />
</svg>