<svg viewBox="0 0 32 32" fill="none" width="32" height="32" xmlns="http://www.w3.org/2000/svg" xmlns:xlink="http://www.w3.org/1999/xlink">
    <path stroke="currentColor" d="M25.5 16c0 5.2467-4.2533 9.5-9.5 9.5M25.5 16c0-5.2467-4.2533-9.5-9.5-9.5M25.5 16h-19M16 25.5c-5.2467 0-9.5-4.2533-9.5-9.5M16 25.5v-19M16 25.5c2.9148 0 5.2778-4.2533 5.2778-9.5M16 25.5c-2.9148 0-5.2778-4.2533-5.2778-9.5M6.5 16c0-5.2467 4.2533-9.5 9.5-9.5M16 6.5c-2.9148 0-5.2778 4.2533-5.2778 9.5M16 6.5c2.9148 0 5.2778 4.2533 5.2778 9.5M21.2778 16H10.7222" />
</svg>