<svg viewBox="0 0 32 32" stroke="currentColor" fill="none" width="32" height="32" xmlns="http://www.w3.org/2000/svg" xmlns:xlink="http://www.w3.org/1999/xlink">
    <path d="M16 6.5c1.2108 0 2.1923 0.9815 2.1923 2.1923 0 0.1991 0.1298 0.3738 0.3168 0.4421 0.1942 0.0711 0.3846 0.1501 0.5708 0.2367 0.1807 0.0841 0.3963 0.0523 0.5372-0.0886 0.8562-0.8562 2.2443-0.8562 3.1004 0 0.8562 0.8561 0.8562 2.2443 0 3.1004-0.1409 0.141-0.1727 0.3565-0.0886 0.5373 0.0867 0.1861 0.1657 0.3765 0.2367 0.5707 0.0683 0.187 0.243 0.3168 0.4421 0.3168 1.2108 0 2.1923 0.9815 2.1923 2.1923s-0.9815 2.1923-2.1923 2.1923c-0.1991 0-0.3738 0.1298-0.4421 0.3168-0.071 0.1942-0.1501 0.3846-0.2367 0.5708-0.0841 0.1807-0.0524 0.3963 0.0886 0.5372 0.8562 0.8562 0.8562 2.2443 0 3.1004-0.8561 0.8562-2.2442 0.8562-3.1004 0-0.1409-0.1409-0.3565-0.1727-0.5372-0.0886-0.1862 0.0866-0.3766 0.1657-0.5708 0.2367-0.187 0.0683-0.3168 0.243-0.3168 0.4421 0 1.2108-0.9815 2.1923-2.1923 2.1923s-2.1923-0.9815-2.1923-2.1923c0-0.1991-0.1298-0.3738-0.3168-0.4421-0.1942-0.071-0.3846-0.1501-0.5707-0.2367-0.1808-0.0841-0.3963-0.0523-0.5373 0.0886-0.8562 0.8562-2.2443 0.8562-3.1004 0-0.8562-0.8561-0.8562-2.2442 0-3.1004 0.141-0.1409 0.1727-0.3565 0.0886-0.5372-0.0866-0.1862-0.1657-0.3766-0.2367-0.5708-0.0683-0.187-0.243-0.3168-0.4421-0.3168C7.4815 18.1923 6.5 17.2108 6.5 16s0.9815-2.1923 2.1923-2.1923c0.1991 0 0.3738-0.1298 0.4421-0.3168 0.071-0.1942 0.1501-0.3846 0.2367-0.5707 0.0841-0.1808 0.0523-0.3963-0.0886-0.5373-0.8562-0.8562-0.8562-2.2443 0-3.1004 0.8561-0.8562 2.2442-0.8562 3.1004 0 0.1409 0.1409 0.3565 0.1727 0.5372 0.0886 0.1862-0.0866 0.3766-0.1656 0.5708-0.2367 0.187-0.0683 0.3168-0.243 0.3168-0.4421C13.8077 7.4815 14.7892 6.5 16 6.5z" />
    <path d="M20.2222 16c0 2.3319-1.8903 4.2222-4.2222 4.2222S11.7778 18.3319 11.7778 16 13.6681 11.7778 16 11.7778 20.2222 13.6681 20.2222 16z" />
</svg>