<svg viewBox="0 0 16 16" stroke="currentColor" stroke-linecap="round" stroke-linejoin="round" fill="none" width="32" height="32" stroke-miterlimit="10" xmlns="http://www.w3.org/2000/svg" xmlns:xlink="http://www.w3.org/1999/xlink">
    <path d="M10.0728 11.4624c-0.3899 0.4151-0.2952 0.3755-1.1511 0.8201-0.2422 0.0774-0.5283 0.1145-0.8582 0.1113-0.5059-48e-4-0.9013-0.1281-1.1863-0.3499-0.2851-0.2218-0.4159-0.5018-0.4145-0.8603 5e-4-0.1394 11e-4-0.2788 0.0236-0.418 0.0226-0.1392 0.0452-0.2983 0.1119-0.477l0.5345-1.6678c0.0446-0.1589 0.0892-0.3178 0.1118-0.457C7.267 8.0246 7.2896 7.8854 7.29 7.7659c9e-4-0.2191-0.0425-0.3589-0.1522-0.4396-0.0876-0.0805-0.2854-0.1222-0.5494-0.1248-0.1319-12e-4-0.264 0.0174-0.4181 0.0558-0.1321 0.0386-0.2111 0.0427-0.3212 0.0616L5.9249 7.229c0.257-0.3161 0.6659-0.6249 0.9961-0.7014 0.3083-0.0967 0.6164-0.1336 0.8803-0.1311 0.5059 49e-4 0.8793 0.1279 1.1644 0.3497 0.263 0.2216 0.4159 0.5019 0.4145 0.8604-4e-4 0.0796-8e-4 0.1991-0.0235 0.3782-0.0227 0.179-0.0455 0.358-0.112 0.4968l-0.5345 1.6679c-0.0445 0.139-0.0891 0.2779-0.1118 0.457-0.0446 0.1788-0.0451 0.2983-0.0455 0.3979-9e-4 0.219 0.0425 0.3788 0.1521 0.4595 0.1097 0.0807 0.3075 0.1224 0.5714 0.1249 0.1319 13e-4 0.264-0.0174 0.4401-0.0555 0.1541-0.0384 0.2642-0.0772 0.3523-0.0962z" />
    <path d="M10.2068 4.1598c0.0911 0.5741-0.2924 1.1122-0.8567 1.2017-0.5643 0.0896-1.0957-0.3032-1.1869-0.8773C8.0721 3.91 8.4557 3.372 9.02 3.2824c0.5643-0.0896 1.0956 0.3032 1.1868 0.8773z" />
</svg>