<svg viewBox="0 0 16 16" fill="none" width="32" height="32" xmlns="http://www.w3.org/2000/svg" xmlns:xlink="http://www.w3.org/1999/xlink">
    <path stroke="currentColor" d="M9.8315 3.25h2.241c0.3762 0 0.6804 0.307 0.6775 0.6837l-0.031 4.0714c-28e-4 0.3728-0.3053 0.6735-0.6775 0.6735l-2.21 0M9.8315 3.25H5.1687c-0.3175 0-0.5925 0.2208-0.6614 0.5313L3.2664 8.6357c-0.094 0.4238 0.2279 0.8258 0.6614 0.8258l1.8907 0c0.4269 0 0.7622 0.2863 0.6795 0.7058l-0.3497 1.7726C6.0655 12.3594 6.3861 12.75 6.8129 12.75h0.1332c0.241 0 0.4638-0.1282 0.5852-0.3366l2.3002-3.7348M9.8315 3.25l0 5.4286" />
</svg>