<svg viewBox="0 0 32 32" stroke="currentColor" stroke-linecap="round" stroke-linejoin="round" fill="none" width="32" height="32" stroke-miterlimit="10" xmlns="http://www.w3.org/2000/svg" xmlns:xlink="http://www.w3.org/1999/xlink">
    <path d="M20.1456 22.9248c-0.7797 0.8301-0.5905 0.7509-2.3022 1.6402-0.4845 0.1547-1.0566 0.2289-1.7164 0.2227-1.0117-97e-4-1.8026-0.2562-2.3727-0.6998s-0.8318-1.0038-0.8289-1.7207c11e-4-0.2788 22e-4-0.5577 0.0473-0.8361s0.0903-0.5966 0.2237-0.9538l1.069-3.3357c0.0892-0.3178 0.1784-0.6357 0.2235-0.914 0.0451-0.2784 0.0902-0.5568 0.0912-0.7958 17e-4-0.4382-0.0852-0.7178-0.3045-0.8792-0.1753-0.161-0.5709-0.2445-1.0987-0.2495-0.2639-25e-4-0.528 0.0348-0.8362 0.1115-0.2643 0.0771-0.4224 0.0855-0.6425 0.1232l0.1515-0.1798c0.514-0.6322 1.3319-1.2498 1.9924-1.4029 0.6166-0.1933 1.2327-0.267 1.7606-0.262 1.0117 96e-4 1.7585 0.2558 2.3286 0.6993 0.5261 0.4432 0.8319 1.0038 0.829 1.7208-6e-4 0.1593-16e-4 0.3983-0.047 0.7563-0.0454 0.3581-0.0908 0.7161-0.2239 0.9937l-1.0689 3.3357c-0.0891 0.278-0.1782 0.556-0.2236 0.914-0.0894 0.3577-0.0903 0.5967-0.0911 0.7958-18e-4 0.4382 0.0849 0.7576 0.3042 0.9191 0.2193 0.1614 0.6149 0.2448 1.1428 0.2499 0.2639 25e-4 0.528-0.0348 0.8802-0.1111 0.3082-0.0768 0.5285-0.1543 0.7046-0.1925z" />
    <path d="M20.4136 8.3195c0.1823 1.1483-0.5848 2.2244-1.7135 2.4036-1.1286 0.1792-2.1913-0.6064-2.3736-1.7547-0.1823-1.1483 0.5848-2.2244 1.7135-2.4036 1.1286-0.1792 2.1913 0.6064 2.3736 1.7547z" />
</svg>