<svg viewBox="0 0 24 24" fill="none" width="32" height="32" xmlns="http://www.w3.org/2000/svg" xmlns:xlink="http://www.w3.org/1999/xlink">
    <path stroke="currentColor" stroke-linecap="round" d="M9.3348 12.5302h1.6964M9.3348 14.7618h1.6964M9.3348 10.2569h7.2381M9.3348 8.2272l7.2381 0M5.9702 18.3066h11.3661c0.7917 0 1.4137-0.6202 1.4137-1.4095V6.2819C18.75 6.1128 18.6369 6 18.4673 6H7.4405C7.2708 6 7.1577 6.1128 7.1577 6.2819l0 10.6152c0 0.7893-0.5937 1.4095-1.3288 1.4095-0.7351 0-1.3289-0.6202-1.3289-1.4095V7.8325M16.4315 16.3407h-3.195c-0.1696 0-0.2827-0.1127-0.2827-0.2819v-3.4619c0-0.1692 0.1131-0.2819 0.2827-0.2819h3.195c0.1696 0 0.2827 0.1127 0.2827 0.2819v3.4619c0 0.1692-0.1131 0.2819-0.2827 0.2819z" stroke-miterlimit="10" />
</svg>