<svg viewBox="0 0 16 16" fill="none" width="32" height="32" xmlns="http://www.w3.org/2000/svg" xmlns:xlink="http://www.w3.org/1999/xlink">
    <path stroke="currentColor" d="M9.542 5.4037c0.2145 0.6587 0.8335 1.1348 1.5638 1.1348 0.9081 0 1.6442-0.7362 1.6442-1.6443 0-0.9081-0.7361-1.6442-1.6442-1.6442S9.4615 3.9862 9.4615 4.8942c0 0.1779 0.0283 0.3491 0.0805 0.5095zM9.542 5.4037 6.3286 7.0129M6.3286 7.0129C6.0469 6.5117 5.5101 6.1731 4.8942 6.1731 3.9862 6.1731 3.25 6.9092 3.25 7.8173s0.7361 1.6442 1.6442 1.6442c0.5846 0 1.0979-0.305 1.3894-0.7646M6.3286 7.0129c0.2927 0.5209 0.2752 1.1793-0.045 1.684M6.2836 8.6969l3.3941 1.5934M9.6777 10.2903c-0.1375 0.2403-0.2162 0.5187-0.2162 0.8155 0 0.9081 0.7362 1.6442 1.6443 1.6442s1.6442-0.7361 1.6442-1.6442-0.7361-1.6443-1.6442-1.6443c-0.6114 0-1.1447 0.3337-1.4281 0.8288z" />
</svg>