<svg viewBox="0 0 32 32" fill="none" width="32" height="32" xmlns="http://www.w3.org/2000/svg" xmlns:xlink="http://www.w3.org/1999/xlink">
    <path stroke="currentColor" d="M19.084 10.8074c0.4289 1.3174 1.667 2.2695 3.1275 2.2695 1.8162 0 3.2885-1.4723 3.2885-3.2884 0-1.8162-1.4723-3.2885-3.2885-3.2885-1.8161 0-3.2884 1.4723-3.2884 3.2885 0 0.3556 0.0564 0.6981 0.1609 1.0189zM19.084 10.8074l-6.4268 3.2184M12.6572 14.0258c-0.5634-1.0024-1.637-1.6796-2.8687-1.6796-1.8162 0-3.2885 1.4722-3.2885 3.2884s1.4723 3.2885 3.2885 3.2885c1.1691 0 2.1957-0.6101 2.7788-1.5293M12.6572 14.0258c0.5854 1.0417 0.5504 2.3587-0.0899 3.368M12.5673 17.3938l6.7881 3.1867M19.3554 20.5805c-0.2751 0.4807-0.4323 1.0375-0.4323 1.631 0 1.8162 1.4723 3.2885 3.2884 3.2885 1.8162 0 3.2885-1.4723 3.2885-3.2885 0-1.8161-1.4723-3.2884-3.2885-3.2884-1.2226 0-2.2894 0.6672-2.8561 1.6574z" />
</svg>