<svg viewBox="0 0 32 32" fill="none" width="32" height="32" xmlns="http://www.w3.org/2000/svg" xmlns:xlink="http://www.w3.org/1999/xlink">
    <path stroke="currentColor" d="M19.6629 6.5h4.4822c0.7523 0 1.3606 0.614 1.3549 1.3674l-0.062 8.1429c-57e-4 0.7455-0.6107 1.3468-1.355 1.3468h-4.4201M19.6629 6.5h-9.3255c-0.635 0-1.1849 0.4417-1.3227 1.0626l-2.4819 9.7088c-0.188 0.8475 0.4559 1.6517 1.3228 1.6517h3.7814c0.8538 0 1.5244 0.5725 1.3589 1.4114l-0.6993 3.5453C12.1311 24.7187 12.7721 25.5 13.6258 25.5h0.2664c0.4819 0 0.9275-0.2565 1.1704-0.6733l4.6003-7.4696M19.6629 6.5v10.8571" />
</svg>