<svg viewBox="0 0 32 32" stroke="currentColor" fill="none" width="32" height="32" xmlns="http://www.w3.org/2000/svg" xmlns:xlink="http://www.w3.org/1999/xlink">
    <path d="M20.3838 10.8846c0 2.4216-1.963 4.3846-4.3846 4.3846-2.4215 0-4.3846-1.963-4.3846-4.3846 0-2.4215 1.9631-4.3846 4.3846-4.3846 2.4216 0 4.3846 1.9631 4.3846 4.3846z" />
    <path d="M15.9992 25.5c4.3433 0 6.8457-1.1203 8.0065-1.8414 0.5431-0.3374 0.8109-0.9587 0.7556-1.6023-0.0754-0.879-0.3825-1.7569-0.6952-2.4532-0.4106-0.9143-1.361-1.4108-2.3633-1.4108H10.2956c-1.0023 0-1.9527 0.4965-2.3632 1.4108-0.3127 0.6963-0.6199 1.5742-0.6953 2.4532-0.0552 0.6436 0.2125 1.2649 0.7557 1.6023 1.1607 0.7211 3.6631 1.8414 8.0064 1.8414z" />
</svg>