<svg viewBox="0 0 16 16" fill="none" width="32" height="32" xmlns="http://www.w3.org/2000/svg" xmlns:xlink="http://www.w3.org/1999/xlink">
    <path stroke="currentColor" stroke-linecap="round" d="M10.8193 12.4213c-0.0397 0.5482-0.0949 1.0908-0.1687 1.618-0.018 0.1281-0.173 0.1843-0.2732 0.1001l-0.7426-0.6241c-0.1197-0.1006-0.2946-0.1062-0.4207-0.0134L8.2864 14.184c-0.1196 0.088-0.284 0.088-0.4036 0l-0.9417-0.6925c-0.1196-0.0879-0.2841-0.0879-0.4036 0L5.5957 14.184c-0.1196 0.088-0.284 0.088-0.4036 0l-0.9277-0.6821c-0.1261-0.0928-0.301-0.0872-0.4207 0.0134l-0.746 0.6269c-0.0994 0.0836-0.2535 0.0287-0.2733-0.0982-0.5345-3.4232-0.303-6.762-0.0533-8.7843 0.053-0.4292 0.3967-0.7644 0.8352-0.8094 0.2247-0.0231 0.4534-0.0426 0.6846-0.0588M6.6444 4.175l2.5225 0M6.6444 6.1536l5.3813 0M6.6444 8.1322l5.3813 0M3.8376 9.91h1.0709M3.8376 7.9223h1.0709M12.4037 1.8914C10.8586 1.763 8.349 1.6572 6.2021 1.8775 5.7635 1.9225 5.4199 2.2577 5.3669 2.6869 5.1172 4.7092 4.8856 8.048 5.4202 11.4712 5.44 11.5981 5.5941 11.653 5.6935 11.5695l0.746-0.627c0.1197-0.1006 0.2946-0.1062 0.4207-0.0134l0.9277 0.6822c0.1196 0.0879 0.284 0.0879 0.4036 0l0.9417-0.6926c0.1196-0.0879 0.284-0.0879 0.4036 0l0.9418 0.6926c0.1196 0.0879 0.284 0.0879 0.4036 0l0.9277-0.6822c0.1261-0.0928 0.301-0.0872 0.4206 0.0134l0.7427 0.6241c0.1001 0.0842 0.2552 0.028 0.2732-0.1001 0.4209-3.0053 0.2347-6.5102 0.0354-8.7154-0.0415-0.4593-0.4095-0.8208-0.8781-0.8597z" />
</svg>