<svg viewBox="0 0 16 16" fill="none" width="32" height="32" xmlns="http://www.w3.org/2000/svg" xmlns:xlink="http://www.w3.org/1999/xlink">
    <path stroke="currentColor" d="M6.1685 12.75h-2.241c-0.3762 0-0.6804-0.307-0.6775-0.6837l0.031-4.0714c29e-4-0.3728 0.3053-0.6735 0.6775-0.6735l2.21 0M6.1685 12.75h4.6628c0.3175 0 0.5925-0.2208 0.6613-0.5313l1.241-4.8544c0.094-0.4238-0.2279-0.8258-0.6614-0.8258l-1.8907 0c-0.4269 0-0.7622-0.2863-0.6794-0.7058l0.3496-1.7726C9.9345 3.6406 9.614 3.25 9.1871 3.25H9.0539c-0.241 0-0.4638 0.1282-0.5852 0.3366L6.1685 7.3214M6.1685 12.75l0-5.4286" />
</svg>