<svg viewBox="0 0 16 16" fill="none" width="32" height="32" xmlns="http://www.w3.org/2000/svg" xmlns:xlink="http://www.w3.org/1999/xlink">
    <path stroke="currentColor" stroke-linecap="round" stroke-linejoin="round" d="M10.1103 10.1365c1.1365 0 2.0711-0.0631 2.3748-0.2662 0.1421-0.095 0.2783-0.3512 0.2638-0.5324 0-1.1727-1.9624-1.1727-1.9624-1.1727l-0.6574 0c-0.0125 0-0.0248 2e-4-0.0373 6e-4-0.1861 66e-4-1.709 0.0759-1.7498 0.5873M11.6935 5.6111c0 0.5881-0.4725 1.0648-1.0554 1.0648S9.5826 6.1992 9.5826 5.6111c0-0.5881 0.4726-1.0648 1.0555-1.0648 0.5829 0 1.0554 0.4767 1.0554 1.0648zM8.2256 5.6802c0 0.928-0.7456 1.6802-1.6654 1.6802-0.9197 0-1.6654-0.7523-1.6654-1.6802C4.8948 4.7523 5.6405 4 6.5602 4 7.48 4 8.2256 4.7523 8.2256 5.6802zM9.6219 11.2473C9.181 11.5421 8.2305 12 6.5808 12c-1.6497 0-2.6002-0.4579-3.0411-0.7527-0.2063-0.1379-0.308-0.3918-0.287-0.6549 0.023-0.2886 0.1028-0.5769 0.1949-0.8267C3.6271 9.2788 4.1208 9.013 4.6397 9.013h3.8822c0.5189 0 1.0126 0.2658 1.1921 0.7527 0.0921 0.2498 0.1719 0.5381 0.1949 0.8267 0.021 0.2631-0.0807 0.517-0.287 0.6549z" />
</svg>