<svg viewBox="0 0 24 24" stroke="currentColor" fill="none" width="32" height="32" xmlns="http://www.w3.org/2000/svg" xmlns:xlink="http://www.w3.org/1999/xlink">
    <path d="M5.9825 4.875h5.299c0.1522 0 0.2976 0.0623 0.4022 0.1722l6.8353 7.1819c0.8243 0.8661 0.8054 2.227-0.0427 3.0701l-3.1999 3.1809c-0.8553 0.8502-2.2386 0.8611-3.1074 0.0245l-7.1256-6.8619C4.9358 11.539 4.875 11.3963 4.875 11.2473V5.9759c0-0.608 0.4958-1.1009 1.1075-1.1009z" />
    <path d="M9.8587 8.453c0-0.7601-0.6198-1.3762-1.3844-1.3762-0.7646 0-1.3843 0.6161-1.3843 1.3761 0 0.7601 0.6197 1.3762 1.3843 1.3762 0.7646 0 1.3843-0.6161 1.3843-1.3762z" />
</svg>