<svg viewBox="0 0 32 32" fill="none" width="32" height="32" xmlns="http://www.w3.org/2000/svg" xmlns:xlink="http://www.w3.org/1999/xlink">
    <path stroke="currentColor" stroke-linecap="round" d="M21.6385 24.8427c-0.0793 1.0964-0.1896 2.1815-0.3373 3.2358-0.0359 0.2562-0.3461 0.3687-0.5463 0.2004l-1.4854-1.2483c-0.2393-0.2012-0.5891-0.2124-0.8413-0.0269l-1.8554 1.3644c-0.2392 0.1759-0.568 0.1759-0.8072 0l-1.8835-1.385c-0.2392-0.1759-0.568-0.1759-0.8072 0l-1.8835 1.385c-0.2391 0.1759-0.568 0.1759-0.8072 0l-1.8554-1.3644c-0.2522-0.1855-0.6019-0.1743-0.8413 0.0269l-1.492 1.2539c-0.1989 0.1671-0.5071 0.0573-0.5467-0.1965-1.0691-6.8464-0.606-13.524-0.1066-17.5686 0.106-0.8584 0.7933-1.5288 1.6704-1.6188 0.4495-0.0461 0.9068-0.0851 1.3691-0.1176M13.2887 8.35l5.045 0M13.2887 12.3072h10.7627M13.2887 16.2644h10.7627M7.6752 19.82H9.817M7.6752 15.8446H9.817M24.8073 3.7827C21.7172 3.526 16.698 3.3144 12.4042 3.755c-0.8771 0.09-1.5644 0.7604-1.6704 1.6188-0.4994 4.0446-0.9625 10.7222 0.1065 17.5686 0.0397 0.2539 0.3479 0.3636 0.5467 0.1965l1.492-1.2539c0.2394-0.2012 0.5892-0.2123 0.8414-0.0269l1.8554 1.3644c0.2392 0.1759 0.568 0.1759 0.8072 0l1.8835-1.385c0.2391-0.1759 0.568-0.1759 0.8072 0l1.8834 1.385c0.2392 0.1759 0.5681 0.1759 0.8072 0l1.8554-1.3644c0.2523-0.1854 0.602-0.1743 0.8414 0.0269l1.4853 1.2483c0.2003 0.1683 0.5104 0.0559 0.5463-0.2004 0.8419-6.0106 0.4696-13.0202 0.0709-17.4306-0.083-0.9187-0.819-1.6417-1.7563-1.7196z" />
</svg>