<svg viewBox="0 0 16 16" stroke="currentColor" stroke-linecap="round" fill="none" width="32" height="32" xmlns="http://www.w3.org/2000/svg" xmlns:xlink="http://www.w3.org/1999/xlink">
    <path d="M2.5 5c0-0.5523 0.4298-1 0.96-1h9.08c0.5302 0 0.96 0.4477 0.96 1v0.5c0 0.5523-0.4983 0.9829-0.9168 1.3433C12.2636 7.1184 12.06 7.5344 12.06 8s0.2036 0.8816 0.5232 1.1567C13.0017 9.5171 13.5 9.9477 13.5 10.5V11c0 0.5523-0.4298 1-0.96 1H3.46c-0.5302 0-0.96-0.4477-0.96-1v-0.5c0-0.5523 0.4983-0.9829 0.9169-1.3433C3.7364 8.8816 3.94 8.4656 3.94 8S3.7364 7.1184 3.4169 6.8433C2.9983 6.4829 2.5 6.0523 2.5 5.5z" />
    <line stroke-dasharray="2.6 3.2" x1="6" x2="6" y1="4.5" y2="11.5" />
</svg>