<svg viewBox="0 0 24 24" fill="none" width="32" height="32" xmlns="http://www.w3.org/2000/svg" xmlns:xlink="http://www.w3.org/1999/xlink">
    <path stroke="currentColor" stroke-linecap="round" d="M19.875 16.7812c0 0.8803-0.5898 1.5938-1.3173 1.5938H6.4219M6.4219 5.625h12.1358c0.7275 0 1.3173 0.7135 1.3173 1.5938v0.7348c0 0.1964-0.1622 0.3507-0.3512 0.4042-0.5543 0.157-0.9613 0.6767-0.9613 1.2935 0 0.6169 0.407 1.1365 0.9613 1.2935 0.189 0.0536 0.3512 0.2078 0.3512 0.4042v1.302c0 0.1964-0.1622 0.3506-0.3512 0.4042-0.5543 0.157-0.9613 0.6766-0.9613 1.2935 0 0.6168 0.407 1.1365 0.9613 1.2935 0.189 0.0535 0.3512 0.2078 0.3512 0.4041v0.6511M4.125 16.7812c0 0.8803 0.5898 1.5938 1.3173 1.5938h1.3029M6.7452 5.625H5.4423c-0.7275 0-1.3173 0.7135-1.3173 1.5938v0.7348c0 0.1964 0.1622 0.3507 0.3512 0.4042 0.5543 0.157 0.9613 0.6767 0.9613 1.2935 0 0.6169-0.407 1.1365-0.9613 1.2935-0.189 0.0536-0.3512 0.2078-0.3512 0.4042v1.302c0 0.1964 0.1622 0.3506 0.3512 0.4042 0.5543 0.157 0.9613 0.6766 0.9613 1.2935 0 0.6168-0.407 1.1365-0.9613 1.2935-0.189 0.0535-0.3512 0.2078-0.3512 0.4041v0.6511M14.7891 17.8717v-1.0066M14.7891 15.1875v-1.0066M14.7891 12.5033v-1.0066M14.7891 9.8191V8.8125M14.7891 7.1349V6.1283" />
</svg>