<svg viewBox="0 0 16 16" fill="none" width="32" height="32" xmlns="http://www.w3.org/2000/svg" xmlns:xlink="http://www.w3.org/1999/xlink">
    <path stroke="currentColor" d="M12.75 8c0 2.6234-2.1266 4.75-4.75 4.75M12.75 8c0-2.6234-2.1266-4.75-4.75-4.75M12.75 8h-9.5M8 12.75c-2.6234 0-4.75-2.1266-4.75-4.75M8 12.75v-9.5M8 12.75c1.4574 0 2.6389-2.1266 2.6389-4.75M8 12.75c-1.4574 0-2.6389-2.1266-2.6389-4.75M3.25 8c0-2.6234 2.1266-4.75 4.75-4.75M8 3.25C6.5426 3.25 5.3611 5.3767 5.3611 8M8 3.25c1.4574 0 2.6389 2.1266 2.6389 4.75M10.6389 8H5.3611" />
</svg>