<svg viewBox="0 0 32 32" fill="none" width="32" height="32" xmlns="http://www.w3.org/2000/svg" xmlns:xlink="http://www.w3.org/1999/xlink">
    <path stroke="currentColor" stroke-linecap="round" d="M12.4464 16.7069h2.2619M12.4464 19.6824h2.2619M12.4464 13.6759h9.6508M12.4464 10.9695h9.6508M7.9603 24.4089h15.1548c1.0555 0 1.8849-0.827 1.8849-1.8795V8.3759C25 8.1504 24.8492 8 24.623 8H9.9206c-0.2262 0-0.377 0.1504-0.377 0.3759l0 14.1535c0 1.0525-0.7916 1.8795-1.7718 1.8795C6.7917 24.4089 6 23.5819 6 22.5294V10.4433M21.9086 21.7877h-4.2599c-0.2262 0-0.377-0.1504-0.377-0.3759v-4.616c0-0.2255 0.1508-0.3759 0.377-0.3759h4.2599c0.2262 0 0.377 0.1504 0.377 0.3759v4.616c0 0.2255-0.1508 0.3759-0.377 0.3759z" stroke-miterlimit="10" />
</svg>