<svg viewBox="0 0 16 16" stroke="currentColor" fill="none" width="32" height="32" xmlns="http://www.w3.org/2000/svg" xmlns:xlink="http://www.w3.org/1999/xlink">
    <path d="M10.1922 5.4423c0 1.2108-0.9816 2.1923-2.1923 2.1923-1.2108 0-2.1924-0.9815-2.1924-2.1923 0-1.2108 0.9816-2.1923 2.1924-2.1923 1.2107 0 2.1923 0.9815 2.1923 2.1923z" />
    <path d="M7.9999 12.75c2.1716 0 3.4228-0.5602 4.0032-0.9207 0.2716-0.1687 0.4054-0.4794 0.3778-0.8012-0.0377-0.4395-0.1913-0.8784-0.3476-1.2266-0.2053-0.4571-0.6805-0.7054-1.1816-0.7054l-5.7037 0c-0.5011 0-0.9763 0.2483-1.1816 0.7054-0.1563 0.3482-0.3099 0.7871-0.3476 1.2266-0.0276 0.3218 0.1062 0.6325 0.3778 0.8012C4.577 12.1898 5.8282 12.75 7.9999 12.75z" />
</svg>