<svg viewBox="0 0 16 16" fill="none" width="32" height="32" xmlns="http://www.w3.org/2000/svg" xmlns:xlink="http://www.w3.org/1999/xlink">
    <path fill="currentColor" d="M0.5 8.0178H1zM0.5 13.6579H0zM13.6538 14.75v-0.5zM1.5962 14.75l-1e-4 0.5h0zM14.75 8.0178l-0.5 0zM14.75 13.6579h0.5zM14.17 6.5378 13.8029 6.8773zM9.2373 1.2042 8.8702 1.5436l0 0zM6.0127 1.2042 6.3798 1.5436l0 0zM1.08 6.5378 0.713 6.1983h0zM5.4327 9.2896l0.5 0zM5.4327 14.204h-0.5zM9.2692 14.75l0-0.5zM5.9808 14.75l0 0.5zM9.8173 9.2896l0.5 0zM9.8173 14.204h-0.5zM9.2692 8.7436l0 0.5zM5.9808 8.7435l0 0.5 0 0zM0 8.0178v5.6401h1V8.0178zM13.6538 14.25H1.5962l-1e-4 1h12.0577zM14.25 8.0178v5.6401h1V8.0178zM14.537 6.1983 9.6044 0.8647 8.8702 1.5436l4.9327 5.3337zM5.6457 0.8647 0.713 6.1983l0.7341 0.679 4.9327-5.3337zM9.6044 0.8647c-1.0663-1.1529-2.8925-1.1529-3.9587 0l0.7341 0.6789c0.6704-0.7248 1.82-0.7248 2.4904 0zM15.25 8.0178c0-0.6745-0.2547-1.324-0.713-1.8195l-0.7341 0.679C14.0906 7.1884 14.25 7.5955 14.25 8.0178zM1 8.0178c0-0.4223 0.1594-0.8295 0.4471-1.1405L0.713 6.1983C0.2547 6.6938 0 7.3433 0 8.0178zM0 13.6579C0 14.539 0.7164 15.25 1.5962 15.25l-1e-4-1C1.2652 14.25 1 13.9832 1 13.6579zM13.6538 15.25c0.8798 0 1.5962-0.7111 1.5962-1.5921h-1c0 0.3253-0.2652 0.5921-0.5962 0.5921zM4.9327 9.2896l0 4.9144h1l0-4.9144zM9.2692 14.25H5.9808l0 1h3.2884zM9.3173 9.2896l0 4.9144h1V9.2896zM9.2692 8.2436l-3.2884-1e-4 0 1 3.2884 0zM10.3173 9.2896c0-0.5795-0.471-1.046-1.0481-1.046l0 1c0.0283 0 0.0481 0.0223 0.0481 0.046zM5.9327 9.2896c0-0.0237 0.0198-0.0461 0.0481-0.0461l0-1c-0.5771 0-1.0481 0.4666-1.0481 1.0461zM4.9327 14.204c0 0.5794 0.471 1.046 1.0481 1.046l0-1c-0.0283 0-0.0481-0.0224-0.0481-0.046zM9.2692 15.25c0.5771 0 1.0481-0.4666 1.0481-1.046h-1c0 0.0236-0.0198 0.046-0.0481 0.046z" />
</svg>