<svg viewBox="0 0 20 20" fill="none" width="32" height="32" xmlns="http://www.w3.org/2000/svg" xmlns:xlink="http://www.w3.org/1999/xlink">
    <path fill="currentColor" d="M0.5 10.5237H1zM0.5 18.0439H0zM18.0385 19.5V19zM1.9615 19.5l0 0.5h0zM19.5 10.5238H19zM19.5 18.0439H20zM18.7266 8.5504 18.3595 8.8899zM12.1497 1.4389 11.7826 1.7784zM7.8503 1.4389 8.2174 1.7784zM1.2734 8.5504 0.9063 8.2109h0zM7.0769 12.2194h0.5zM7.0769 18.7719h-0.5zM12.1923 19.5V19zM7.8077 19.5l0 0.5zM12.9231 12.2195h0.5v0zM12.9231 18.7719h-0.5zM12.1923 11.4914v0.5zM7.8077 11.4914l0 0.5h0zM0 10.5237v7.5202h1v-7.5202zM18.0385 19H1.9615l0 1h16.077zM19 10.5238v7.5201h1v-7.5201zM19.0937 8.2109 12.5168 1.0994l-0.7342 0.679 6.5769 7.1115zM7.4832 1.0994 0.9063 8.2109l0.7342 0.679 6.5769-7.1116zM12.5168 1.0994c-1.3557-1.4659-3.6779-1.4659-5.0336 0l0.7342 0.6789c0.9598-1.0378 2.6054-1.0378 3.5652 1e-4zM20 10.5238c0-0.8573-0.3237-1.6829-0.9063-2.3129l-0.7342 0.679C18.7715 9.3354 19 9.9187 19 10.5238zM1 10.5237c0-0.6051 0.2285-1.1883 0.6405-1.6338l-0.7342-0.679C0.3237 8.8409 0 9.6665 0 10.5237zM0 18.0439C0 19.126 0.88 20 1.9615 20l0-1C1.4287 19 1 18.5702 1 18.0439zM18.0385 20C19.12 20 20 19.126 20 18.0439h-1C19 18.5702 18.5713 19 18.0385 19zM6.5769 12.2194l0 6.5525h1l0-6.5525zM12.1923 19H7.8077l0 1h4.3846zM12.4231 12.2195v6.5524h1v-6.5524zM12.1923 10.9914H7.8077l0 1h4.3846zM13.4231 12.2195c0-0.68-0.5528-1.2281-1.2308-1.2281v1c0.1292 0 0.2308 0.1039 0.2308 0.2281zM7.5769 12.2194c0-0.1242 0.1016-0.228 0.2308-0.228v-1c-0.678 0-1.2308 0.5481-1.2308 1.228zM6.5769 18.7719c0 0.68 0.5528 1.2281 1.2308 1.2281l0-1c-0.1292 0-0.2308-0.1039-0.2308-0.2281zM12.1923 20c0.678 0 1.2308-0.5481 1.2308-1.2281h-1c0 0.1242-0.1016 0.2281-0.2308 0.2281z" />
</svg>