<svg viewBox="0 0 11 11" fill="none" width="32" height="32" xmlns="http://www.w3.org/2000/svg" xmlns:xlink="http://www.w3.org/1999/xlink">
    <path fill="currentColor" d="M0.5 5.5119l0.5 0zM0.5 9.2719l-0.5 0zM9.2692 10l0-0.5zM1.2308 10l0 0.5h0zM10 5.5119l-0.5 0zM10 9.2719l0.5 0zM9.6133 4.5252 9.2462 4.8647zM6.3249 0.9694 5.9578 1.3089zM4.1752 0.9694l0.367 0.3395zM0.8867 4.5252 0.5196 4.1857l0 0zM3.7885 6.3597l0.5 0zM3.7885 9.636l-0.5 0zM6.3462 10l-1e-4-0.5zM4.1539 10l0 0.5zM6.7115 6.3597l0.5 0 0 0zM6.7115 9.636l-0.5 0zM6.3462 5.9957l-1e-4 0.5zM4.1539 5.9957l-1e-4 0.5 0 0zM0 5.5119v3.76l1 0v-3.76zM9.2692 9.5H1.2308l0 1h8.0384zM9.5 5.5119v3.76l1 0v-3.76zM9.9804 4.1857 6.6919 0.63 5.9578 1.3089 9.2462 4.8647zM3.8081 0.6299 0.5196 4.1857l0.7342 0.679 3.2884-3.5558zM6.6919 0.63c-0.7768-0.84-2.107-0.84-2.8838-1e-4l0.7341 0.679c0.381-0.4119 1.0346-0.4119 1.4156 0zM10.5 5.5119c0-0.4917-0.1857-0.9651-0.5196-1.3262l-0.7342 0.679C9.4096 5.0413 9.5 5.2724 9.5 5.5119zM1 5.5119c0-0.2395 0.0904-0.4706 0.2538-0.6472l-0.7342-0.679C0.1857 4.5468 0 5.0202 0 5.5119zM0 9.2719C0 9.9519 0.5528 10.5 1.2308 10.5l0-1C1.1016 9.5 1 9.3961 1 9.2719zM9.2692 10.5c0.678 0 1.2308-0.5481 1.2308-1.2281l-1 0C9.5 9.3961 9.3984 9.5 9.2692 9.5zM3.2885 6.3597l0 3.2763 1 0 0-3.2763zM6.3462 9.5H4.1539l0 1h2.1922zM6.2115 6.3597l0 3.2763 1 0 0-3.2763zM6.3462 5.4957l-2.1924 0 0 1h2.1923zM7.2115 6.3597c0-0.4789-0.3892-0.864-0.8653-0.864l0 1c-0.0726 0-0.1347-0.0591-0.1347-0.136zM4.2885 6.3597c0 0.0769-0.0621 0.136-0.1347 0.136l0-1c-0.4761 0-0.8653 0.3851-0.8653 0.864zM3.2885 9.636c0 0.4789 0.3892 0.864 0.8654 0.864l0-1c0.0725 0 0.1346 0.0591 0.1346 0.136zM6.3462 10.5c0.4761 0 0.8653-0.3851 0.8653-0.864l-1 0c0-0.0769 0.0621-0.136 0.1346-0.136z" />
</svg>