<svg viewBox="0 0 11 11" fill="none" width="32" height="32" xmlns="http://www.w3.org/2000/svg" xmlns:xlink="http://www.w3.org/1999/xlink">
    <path stroke="currentColor" stroke-linecap="round" stroke-linejoin="round" d="M7.8077 10 5.7981 7.9904M10 8.1731 7.8077 5.9808 5.7981 7.9904M5.7981 7.9904 2.6923 4.8846 0.8654 6.7115 0.5 7.0769M0.5 7.0769l0-5.1154C0.5 1.1544 1.1544 0.5 1.9615 0.5l6.577 0C9.3456 0.5 10 1.1544 10 1.9616v6.5769C10 9.3456 9.3456 10 8.5385 10h-6.577C1.1544 10 0.5 9.3456 0.5 8.5385zM8.5385 3.0577c0 0.6054-0.4908 1.0961-1.0962 1.0961-0.6054 0-1.0961-0.4907-1.0961-1.0961 0-0.6054 0.4907-1.0962 1.0961-1.0962 0.6054 0 1.0962 0.4908 1.0962 1.0962z" />
</svg>