<svg viewBox="0 0 20 20" fill="none" width="32" height="32" xmlns="http://www.w3.org/2000/svg" xmlns:xlink="http://www.w3.org/1999/xlink">
    <path stroke="currentColor" stroke-linecap="round" stroke-linejoin="round" d="M15.1154 19.5l-4.0192-4.0192M19.5 15.8462l-4.3846-4.3847-4.0192 4.0193M11.0962 15.4808 4.8846 9.2692 1.2308 12.9231 0.5 13.6538M0.5 13.6538l0-10.2307C0.5 1.8087 1.8087 0.5 3.4231 0.5l13.1538 0C18.1913 0.5 19.5 1.8087 19.5 3.4231v13.1538c0 1.6144-1.3087 2.9231-2.9231 2.9231H3.4231C1.8087 19.5 0.5 18.1913 0.5 16.5769zM16.5769 5.6154c0 1.2108-0.9815 2.1923-2.1923 2.1923-1.2108 0-2.1923-0.9815-2.1923-2.1923 0-1.2108 0.9815-2.1923 2.1923-2.1923 1.2108 0 2.1923 0.9815 2.1923 2.1923z" />
</svg>