<svg viewBox="0 0 16 16" fill="none" width="32" height="32" xmlns="http://www.w3.org/2000/svg" xmlns:xlink="http://www.w3.org/1999/xlink">
    <path stroke="currentColor" stroke-linecap="round" stroke-linejoin="round" d="M11.4615 14.75 8.4471 11.7356M14.75 12.0096 11.4615 8.7212 8.4471 11.7356M8.4471 11.7356 3.7885 7.0769 1.0481 9.8173 0.5 10.3654M0.5 10.3654l0-7.6731C0.5 1.4815 1.4815 0.5 2.6923 0.5l9.8654 0c1.2108 0 2.1923 0.9816 2.1923 2.1923v9.8654c0 1.2108-0.9815 2.1923-2.1923 2.1923H2.6923C1.4815 14.75 0.5 13.7685 0.5 12.5577zM12.5577 4.3365c0 0.9081-0.7362 1.6443-1.6442 1.6443-0.9081 0-1.6443-0.7362-1.6443-1.6443 0-0.908 0.7362-1.6442 1.6443-1.6442 0.908 0 1.6442 0.7362 1.6442 1.6442z" />
</svg>