<svg viewBox="0 0 24 23" fill="none" width="33.391304" height="32" xmlns="http://www.w3.org/2000/svg" xmlns:xlink="http://www.w3.org/1999/xlink">
    <path stroke="currentColor" d="M10.2178 1.424c0.5124-1.2319 2.2576-1.2319 2.77 0l1.9662 4.7274c0.216 0.5193 0.7044 0.8742 1.2651 0.9191l5.1036 0.4092c1.33 0.1066 1.8692 1.7664 0.8559 2.6344l-3.8884 3.3308c-0.4271 0.3659-0.6137 0.9401-0.4832 1.4872l1.188 4.9802c0.3096 1.2979-1.1023 2.3237-2.241 1.6282l-4.3693-2.6688c-0.4801-0.2932-1.0838-0.2932-1.5638 0l-4.3694 2.6688c-1.1386 0.6955-2.5505-0.3303-2.2409-1.6282l1.188-4.9802c0.1305-0.5471-0.0561-1.1213-0.4833-1.4872l-3.8884-3.3308c-1.0133-0.868-0.474-2.5278 0.856-2.6344l5.1036-0.4092c0.5607-0.0449 1.0491-0.3998 1.2651-0.9191z" />
</svg>