<svg viewBox="0 0 12 12" fill="none" width="32" height="32" xmlns="http://www.w3.org/2000/svg" xmlns:xlink="http://www.w3.org/1999/xlink">
    <path stroke="currentColor" d="M5.2394 0.9927c0.2733-0.657 1.204-0.657 1.4773 0l0.9252 2.2245c0.1152 0.277 0.3757 0.4663 0.6747 0.4902L10.7181 3.9c0.7094 0.0568 0.997 0.942 0.4566 1.405L9.345 6.8723C9.1171 7.0675 9.0176 7.3737 9.0872 7.6655l0.559 2.3435c0.1651 0.6922-0.5879 1.2392-1.1951 0.8683L6.395 9.6215c-0.256-0.1564-0.578-0.1564-0.834 0l-2.056 1.2558c-0.6073 0.3709-1.3603-0.1761-1.1952-0.8683l0.559-2.3435c0.0696-0.2918-0.0299-0.598-0.2577-0.7932L0.7814 5.305C0.241 4.842 0.5286 3.9568 1.2379 3.9l2.4015-0.1926C3.9385 3.6835 4.199 3.4942 4.3142 3.2172z" />
</svg>