<svg viewBox="0 0 17 17" fill="none" width="32" height="32" xmlns="http://www.w3.org/2000/svg" xmlns:xlink="http://www.w3.org/1999/xlink">
    <path stroke="currentColor" d="M7.3948 1.172c0.3727-0.896 1.6419-0.896 2.0146 0l1.3818 3.3224c0.1571 0.3777 0.5124 0.6358 0.9201 0.6685l3.5869 0.2876c0.9673 0.0775 1.3595 1.2846 0.6225 1.9159l-2.7328 2.3409c-0.3107 0.2662-0.4464 0.6837-0.3514 1.0817l0.8349 3.5001c0.2251 0.9439-0.8017 1.6899-1.6298 1.1841l-3.0709-1.8756c-0.3491-0.2133-0.7881-0.2133-1.1372 0l-3.0709 1.8756c-0.8281 0.5058-1.8549-0.2402-1.6298-1.1841l0.8349-3.5001c0.095-0.398-0.0407-0.8155-0.3514-1.0817L0.8835 7.3664C0.1465 6.7351 0.5387 5.528 1.506 5.4505l3.5869-0.2876c0.4077-0.0327 0.763-0.2907 0.92-0.6685z" />
</svg>