<?xml version="1.0" encoding="UTF-8" standalone="no"?>
<!DOCTYPE svg PUBLIC "-//W3C//DTD SVG 1.1//EN" "http://www.w3.org/Graphics/SVG/1.1/DTD/svg11.dtd">
<svg width="100%" height="100%" viewBox="0 0 1288 756" version="1.1" xmlns="http://www.w3.org/2000/svg" xmlns:xlink="http://www.w3.org/1999/xlink" xml:space="preserve" xmlns:serif="http://www.serif.com/" style="fill-rule:evenodd;clip-rule:evenodd;stroke-linejoin:round;stroke-miterlimit:2;">
    <g transform="matrix(1,0,0,1,-1475.98,-68.959033)">
        <rect x="1475.98" y="73.97" width="1287.03" height="750.03" style="fill:rgb(145,96,221);"/>
        <path d="M1475.98,68.99C1583.24,68.98 1690.5,69.02 1797.75,68.96C1795.31,73.64 1793.11,78.55 1789.41,82.4C1785.48,86.57 1782.65,91.61 1778.83,95.86C1776.4,98.53 1774.4,101.52 1772.53,104.58C1770.26,108.25 1766.81,111.09 1764.98,115.05C1762.74,120.2 1757.71,123.24 1754.77,127.91C1751.68,132.01 1749.48,137.9 1743.67,138.59C1742.81,141.3 1742.07,144.04 1741.71,146.86C1738.93,149.07 1736.69,151.85 1734.82,154.84C1735.61,150.35 1735.62,145.15 1732.23,141.66C1726.85,135.91 1716.43,137.75 1712.22,144.05C1707.06,151.89 1705.96,161.96 1708.03,171C1708.7,174.5 1710.85,177.49 1713.47,179.85C1710.22,182.97 1707.34,186.46 1704.93,190.25C1700.08,186.68 1693.25,186.21 1688,189.11C1683.64,192.41 1680.41,198.81 1684.03,203.81C1685.95,203.69 1687.9,203.56 1689.86,203.42C1690.97,201.47 1691.75,199.14 1693.59,197.71C1694.94,197.41 1696.33,197.4 1697.75,197.35C1694.99,200.74 1692.18,204.08 1689.41,207.44C1683.45,207.61 1676.91,207.19 1671.72,210.62C1666.7,213.93 1667.51,222.31 1661.21,224.05C1658.34,224.66 1654.2,225.66 1652.43,222.57C1650.39,220.28 1651.15,217.04 1652.48,214.61C1654.98,208.56 1662.97,207.14 1664.44,200.4C1663.62,199.36 1662.81,198.32 1662.03,197.27C1653.81,196.8 1647.55,203.61 1644.44,210.53C1642.2,215.67 1640.67,222.11 1643.75,227.24C1645.76,230.21 1648.33,233.25 1651.94,234.24C1655.82,234.85 1659.8,234.56 1663.71,234.15C1657.64,237.26 1653.74,243.05 1648.39,247.04C1641.28,250.75 1636.54,257.49 1629.83,261.74C1626.18,264.02 1622.59,266.43 1619.64,269.59C1613.92,275.6 1606.02,278.63 1599.45,283.49C1589.77,291.02 1578.77,296.54 1568.54,303.23C1560.61,308.41 1551.69,311.81 1543.81,317.04C1536.32,321.88 1527.97,325.1 1520.04,329.08C1516.32,331.08 1512.63,333.16 1508.64,334.55C1503.51,336.24 1499.21,339.72 1494.03,341.27C1487.96,343.17 1482.16,345.84 1476.02,347.5C1475.96,254.66 1476.03,161.82 1475.98,68.99M1550.41,134.31C1549.7,136.8 1548.05,139.75 1549.8,142.17C1552.09,145.54 1554.78,148.86 1558.52,150.71C1563.41,153.16 1568.16,155.94 1573.26,158C1573.37,158.39 1573.6,159.17 1573.71,159.55C1566.83,163.16 1560.21,167.29 1554.06,172.05C1552.13,173.65 1549.67,175.25 1549.54,178.02C1549.08,180.11 1550.51,182.89 1552.92,182.67C1558.39,183.42 1561.77,178.4 1566.02,175.96C1573.4,171.32 1580.86,166.77 1588.33,162.26C1590.56,159.36 1589.98,153.96 1586.12,152.68C1578.44,149.32 1570.9,145.66 1563.51,141.73C1560.61,140.29 1558.83,137.49 1556.43,135.45C1554.9,133.71 1552.41,134.48 1550.41,134.31M1636.51,136.27C1636.33,139.18 1635.8,142.1 1636.07,145.03C1636.58,148.85 1643.16,150.18 1644.39,146.21C1645.91,142.25 1645.5,137.53 1642.81,134.18C1640.52,134.28 1638.3,134.8 1636.51,136.27M1593.53,136.28C1593.09,139.07 1592.04,141.88 1592.41,144.72C1593.19,146.17 1594.35,147.37 1595.41,148.65C1597.97,148.48 1600.98,147.68 1601.72,144.83C1602.42,141.26 1602.67,136.8 1599.49,134.32C1598.57,134.37 1596.73,134.48 1595.81,134.53C1595.03,135.11 1594.27,135.69 1593.53,136.28M1623.77,140.03C1623.62,141.81 1623.47,143.59 1623.38,145.38C1620.24,145.47 1616.84,145.11 1614.11,146.96C1607.18,150.65 1605.35,160.34 1609.32,166.83C1610.92,170.34 1614.82,171.52 1618.17,172.68C1618.66,172.41 1619.65,171.85 1620.14,171.57C1617.44,176.4 1611.24,175.2 1606.61,175.56C1605.88,178.48 1605.63,181.72 1608.44,183.61C1616.04,183.89 1625.83,181.81 1628.54,173.64C1631.3,163.03 1631.74,151.86 1630.88,140.96C1631.12,138.62 1628.52,138.15 1627.01,137.19C1625.9,138.14 1624.84,139.08 1623.77,140.03M1658.43,138.35C1657.36,141.98 1657.09,145.77 1657.02,149.53C1654.45,149.86 1651.91,150.22 1649.36,150.52C1648.49,152.85 1648.53,155.28 1649.41,157.6C1651.77,157.67 1654.17,157.74 1656.56,157.77C1656.35,164.01 1655.61,170.4 1657.37,176.5C1658.06,179.37 1660.76,180.91 1662.87,182.67C1665.63,182.4 1669.09,182.44 1670.8,179.82C1671.66,177.72 1671.52,174.6 1669.14,173.59C1667.56,173.72 1666.02,174.01 1664.53,174.45C1663.15,168.94 1663.41,163.26 1664.13,157.69C1666.55,157.6 1668.99,157.5 1671.43,157.39C1671.79,155.56 1672.79,153.73 1672.37,151.85C1670.66,148.99 1666.95,149.71 1664.16,149.5C1664.4,146.26 1665.42,142.87 1664.41,139.67C1663.13,137.66 1660.38,138.66 1658.43,138.35M1682.25,143.33C1677.25,150.41 1675.73,159.54 1677.01,168.02C1677.55,172.02 1678.89,176.2 1682.01,178.96C1687.01,182.94 1693.83,183.23 1699.9,182.27C1702.22,181.51 1704.81,180.29 1705.93,177.98C1707.31,175.22 1704.08,171.2 1701.17,172.97C1696.99,175.08 1691.75,175.53 1687.55,173.29C1683.77,170.07 1684,164.61 1683.81,160.09C1687.55,160.57 1691.31,161.85 1695.13,161.21C1697.99,160.38 1700.73,158.92 1702.89,156.84C1706.98,151.05 1704.54,141.73 1697.95,138.92C1692.4,137.18 1685.95,138.72 1682.25,143.33M1593.61,156.98C1593.8,165.02 1592.58,173.11 1593.91,181.1C1593.82,182.94 1595.61,183.69 1596.78,184.7C1598.01,184.17 1599.26,183.64 1600.53,183.13C1601.81,176.49 1600.83,169.7 1601.67,163.02C1601.52,159.35 1602.78,154.88 1599.96,151.93C1596.66,149.98 1593.28,153.73 1593.61,156.98M1637.37,165.93C1637.2,170.98 1636.76,176.02 1636.84,181.07C1637.3,184.62 1641.31,183.28 1643.65,182.66C1645.32,172.8 1645.82,162.57 1644.05,152.69C1642.57,152.2 1641.1,151.7 1639.65,151.22C1636.13,155.44 1637.85,160.96 1637.37,165.93M1546.49,162.63C1548.23,164.75 1551.08,166.45 1553.9,165.5C1556.46,164.63 1559.58,163.21 1559.47,159.99C1560.44,156.68 1557.42,154.49 1555.38,152.46C1553.41,152.48 1551.46,152.47 1549.52,152.45C1546.52,154.89 1545.25,158.94 1546.49,162.63M1613.3,186.76C1612.35,190.1 1612.17,193.6 1614.21,196.59C1616.44,197 1619.14,198.07 1621.09,196.31C1622.62,195.4 1622.69,193.5 1623.22,191.98C1624.03,193.58 1624.89,195.16 1625.75,196.75C1628,196.33 1631.01,196.75 1632.43,194.49C1634.04,192.26 1635.17,188.52 1632.57,186.57C1630.24,184.52 1627.29,186.27 1624.77,186.81C1624.64,187.63 1624.37,189.27 1624.24,190.09C1622.93,188.51 1621.72,186.81 1620.07,185.6C1617.71,185.04 1615.47,186.07 1613.3,186.76M1544.47,206.32C1543.31,211.84 1541.98,218.29 1545.71,223.16C1551.26,233.32 1566,237.29 1575.55,230.47C1580.18,227.51 1582.54,222.2 1586.87,218.84C1588.12,217.3 1590.21,217.78 1591.96,217.67C1598.02,217.74 1604.08,217.8 1610.14,217.38C1613.33,221.71 1618.88,223.47 1624.08,222.24C1631.46,221.51 1637.06,215.82 1640.59,209.7C1642.67,205.32 1644.72,199.13 1640.32,195.46C1639.42,195.46 1637.63,195.47 1636.73,195.48C1636.3,195.87 1635.43,196.66 1635,197.05C1633.85,204.75 1628.04,211.43 1620.29,212.93C1620.48,210.55 1620.71,208.16 1620.95,205.78C1619.15,203.61 1616.52,203.04 1613.83,203.47C1611.54,205.37 1608.95,207.2 1605.9,207.41C1598.34,207.93 1590.56,206.68 1583.22,209C1580,210.69 1577.69,213.6 1575.23,216.18C1573.24,219 1570.69,221.34 1568.06,223.54C1564.96,223.46 1561.64,223.85 1558.88,222.2C1556.4,220.74 1554.33,218.5 1553.25,215.83C1552.63,210.36 1556.24,205.61 1559.93,201.98C1562.74,201.22 1565.6,199.26 1565.52,196.01C1565.63,193.24 1563.02,191.92 1561.21,190.4C1553.7,192.83 1546.62,198.49 1544.47,206.32M1561.87,215.1C1563.96,217.84 1567.55,216.02 1570.22,215.36C1570.65,213.17 1571.16,211 1571.33,208.77C1570.51,207.08 1568.99,205.36 1566.98,205.35C1562.27,204.52 1558.02,211.8 1561.87,215.1M1588.77,224.66C1586.46,226.48 1586.22,229.49 1586.3,232.2C1587.17,232.91 1588.06,233.63 1588.97,234.35C1590.95,234.51 1592.93,234.68 1594.93,234.92C1596.83,235.67 1598.84,235.42 1600.81,235C1603.07,235.87 1605.31,234.94 1607.46,234.17C1607.87,232 1608.29,229.83 1608.76,227.66C1607.09,226.26 1605.47,224.25 1603.05,224.52C1598.29,224.63 1593.49,224.1 1588.77,224.66Z" style="fill:rgb(129,83,205);fill-rule:nonzero;"/>
        <path d="M1825.25,69C1878.83,68.97 1932.42,69 1986.01,68.99C2025.52,69.1 2065.05,68.76 2104.56,69.16C2099.68,71.7 2095.11,74.8 2090.22,77.3C2085.6,79.69 2080.34,80.85 2076.28,84.22C2071,88.69 2064.19,90.57 2058.62,94.57C2051.14,98.95 2044.46,104.55 2036.78,108.58C2031.35,111.34 2026.88,115.59 2021.49,118.4C2016.37,121.1 2012.37,125.37 2007.57,128.52C2002.93,132.33 1997.34,134.81 1993.04,139.04C1990.9,141.22 1987.88,141.98 1985.1,142.91C1983.77,144.9 1982.77,147.25 1980.7,148.59C1977.65,150.56 1974.26,152.03 1971.59,154.53C1967.25,158.61 1962.17,161.77 1957.87,165.88C1953.85,169.69 1948.89,172.21 1944.36,175.3C1940.98,177.56 1938.39,180.72 1935.43,183.45C1931.72,186.87 1926.98,188.84 1923.05,191.97C1919.49,194.74 1917.07,198.72 1913.26,201.2C1908.46,204.34 1904.44,208.47 1899.8,211.81C1896.24,214.27 1894.61,218.62 1890.98,220.97C1888.68,222.57 1885.98,223.7 1884.23,225.95C1882.42,228.21 1880.87,230.77 1878.35,232.31C1874.11,235.01 1870.49,238.51 1866.5,241.53C1862.47,244.56 1860.5,249.49 1856.52,252.58C1849.89,258.87 1842.29,264.06 1836.07,270.77C1830.57,275.4 1825.22,280.2 1819.44,284.47C1811.79,290.51 1807.04,299.5 1799.05,305.18C1793.05,309.41 1788.64,315.4 1782.9,319.92C1777.89,323.88 1773.67,328.69 1769.06,333.07C1765.44,336.49 1762.98,340.98 1759.03,344.04C1756.23,346.27 1753.05,348 1750.42,350.43C1747.56,353.05 1746.35,356.89 1743.84,359.78C1737.24,366.53 1729.55,372.12 1723.24,379.16C1716.64,385.27 1711.59,392.89 1704.51,398.51C1700.22,401.72 1698.91,407.39 1694.72,410.68C1691.51,413.24 1688.67,416.19 1686.22,419.47C1684.1,422.37 1679.97,422.91 1678.15,426.07C1672.26,435.66 1662.24,442.06 1657.16,452.21C1654.87,456.37 1651.19,459.46 1648.04,462.93C1644.49,466.75 1640.98,470.6 1637.34,474.33C1633.87,477.91 1629.26,480.23 1626.17,484.2C1623.85,487.21 1621.18,489.92 1618.28,492.35C1615.01,494.96 1614.64,499.66 1611.44,502.32C1605.86,506.86 1601.92,513.19 1595.53,516.76C1594.92,520.63 1594.79,524.69 1593.2,528.33C1589.25,535.28 1581.53,538.68 1576.61,544.77C1574.76,546.88 1572.62,548.69 1570.62,550.64C1567.57,553.46 1567.26,558.26 1563.79,560.71C1559.37,563.85 1554.47,566.64 1551.5,571.35C1548.66,575.84 1543.88,578.75 1541.63,583.64C1540.31,586.65 1537.29,588.14 1534.98,590.24C1533.27,592.48 1532.7,595.55 1530.3,597.26C1526.69,600.06 1522.91,602.65 1518.97,604.96C1514.74,607.31 1511.84,611.34 1507.79,613.95C1503.72,616.47 1505.15,622.15 1503.07,625.91C1500.26,627.97 1496.89,629.05 1494,630.99C1490.37,633.26 1487.79,636.77 1484.54,639.5C1482,641.63 1478.96,642.99 1476.02,644.44C1475.96,553.64 1476.02,462.85 1475.99,372.05C1480.69,370.2 1485.65,369.03 1490.25,366.9C1503.24,359.6 1517.47,354.97 1531.15,349.17C1536.96,347.54 1541.06,342.74 1546.65,340.63C1549.84,339.33 1552.95,337.81 1555.92,336.04C1560.39,333.4 1565.33,331.64 1569.66,328.75C1572.76,326.66 1576.01,324.82 1579.3,323.05C1583.95,320.59 1587.45,316.35 1592.42,314.41C1599.7,311.55 1605.49,306.13 1611.93,301.84C1618.93,295.57 1627.88,292.13 1634.96,285.95C1639.77,281.7 1645.72,278.91 1650.23,274.3C1655.5,268.83 1661.9,264.67 1667.34,259.39C1671.83,255.86 1674.9,250.82 1679.68,247.63C1681.42,246.44 1682.97,244.96 1684.07,243.13C1687.23,237.73 1693.26,235.13 1697.58,230.82C1699.15,232.8 1701.19,234.72 1703.95,234.43C1709.99,234.7 1716.07,234.55 1722.08,233.72C1722.65,230.57 1723.31,227.18 1721.49,224.29C1715.62,222.78 1709.53,223.4 1703.57,223.46C1705.41,221.44 1706.96,218.49 1710,218.21C1719.9,216.97 1729.97,218.93 1739.84,217.18C1743.92,215.07 1743.87,207.97 1739.11,206.72C1734.74,206.68 1730.39,207.61 1726.04,206.98C1720.43,206.3 1714.77,206.6 1709.19,207.34C1709.27,206.45 1709.39,205.56 1709.53,204.67C1713.08,206.7 1718.14,207.31 1721.31,204.25C1724.68,201.03 1727.33,197.17 1730.28,193.56C1730.58,193.6 1731.2,193.66 1731.51,193.69C1734.39,197.31 1737.18,201.29 1741.42,203.43C1746.47,206.1 1751.67,208.51 1756.86,210.91C1756.83,211.34 1756.78,212.2 1756.75,212.63C1748.97,216.65 1741.3,221.05 1734.53,226.64C1731.96,228.57 1731.34,232.85 1734.03,234.97C1735.33,236.54 1737.62,235.72 1739.25,235.1C1743.82,232.96 1747.51,229.37 1751.92,226.93C1758.31,223.33 1764.55,219.48 1770.97,215.93C1774.99,214.11 1774.69,207.28 1770.55,205.77C1762.76,202.18 1754.78,198.97 1747.24,194.89C1743.42,192.78 1740.56,189.41 1737.36,186.54C1738.23,184.35 1739.38,182.26 1741.14,180.65C1743.18,181.93 1746.27,183.79 1748.01,180.99C1749.45,176.83 1749.31,172.31 1750.31,168.03C1753.51,165.08 1757.16,162.19 1757.81,157.55C1759.83,156.08 1761.9,154.66 1763.99,153.26C1765.08,159.79 1764.81,166.45 1764.45,173.04C1764.31,176.07 1763.81,179.21 1764.73,182.18C1766.77,182.96 1769.83,183.27 1770.95,180.87C1772.42,177.48 1771.95,173.64 1772.14,170.04C1772.03,161.87 1773.14,153.07 1768.86,145.68C1770.52,143.1 1772.27,140.57 1774.25,138.22C1778.9,132.78 1782.54,126.57 1787.14,121.08C1790.75,116.93 1792.64,111.5 1796.82,107.83C1800.92,104.37 1802.75,99.14 1806.06,95.03C1810.04,89.98 1812.92,84.09 1817.54,79.53C1820.64,76.45 1823.15,72.83 1825.25,69Z" style="fill:rgb(129,83,205);fill-rule:nonzero;"/>
        <path d="M2293,68.99C2341.92,68.98 2390.84,69 2439.76,68.98C2437.27,75.11 2436.78,81.97 2433.6,87.8C2430.04,92.16 2425.79,95.92 2422.23,100.28C2417.65,105.82 2410.55,108.39 2405.97,113.91C2404.54,115.37 2403.31,117.09 2401.53,118.11C2397.35,119.76 2392.75,119.91 2388.61,121.64C2384.8,123.12 2381.59,126.08 2377.42,126.53C2373.54,127.07 2369.71,127.82 2365.89,128.59C2362.02,129.56 2358.62,126.93 2354.93,126.42C2351.88,126.3 2348.92,127.62 2345.9,127.13C2337.05,125.07 2329.7,119.48 2322.22,114.63C2318.15,111.83 2314.88,108.07 2310.93,105.14C2304.7,100.6 2300.54,93.94 2296.56,87.49C2293.09,81.96 2292.92,75.3 2293,68.99Z" style="fill:rgb(129,83,205);fill-rule:nonzero;"/>
        <path d="M2514.92,69.03C2597.61,68.92 2680.3,69.04 2763,68.97C2763.02,128.33 2762.99,187.69 2763.01,247.05C2757.76,249.01 2752.42,250.7 2746.97,251.95C2740.23,253.4 2734.29,257.08 2727.68,258.91C2716.99,262.1 2706.3,265.29 2695.68,268.72C2688.13,270.98 2681.23,275.14 2673.39,276.47C2667.02,277.58 2661.66,281.4 2655.56,283.28C2648.03,285.65 2640.49,288 2632.81,289.81C2622.6,292.21 2613.29,297.24 2603.23,300.09C2597.16,301.79 2591.58,304.82 2585.61,306.77C2578.44,309.08 2571.66,312.45 2564.36,314.34C2557.6,316.11 2551.33,319.53 2544.36,320.51C2538.43,321.38 2532.85,323.63 2527.01,324.83C2514,327.21 2502.15,333.7 2489.08,335.8C2471.69,338.91 2453.86,342.5 2436.2,339.64C2428.75,338.56 2421.12,337.12 2414.46,333.5C2408.99,329.37 2404.72,323.9 2399.67,319.29C2392.51,312.65 2388.74,303.43 2385.51,294.44C2383.55,289.2 2383.95,283.5 2384.02,278.02C2384.06,271.84 2386.89,266.13 2387.2,259.97C2387.66,252.02 2391.72,245.01 2394.55,237.75C2395.91,234.01 2397.99,230.59 2400.49,227.49C2403.57,223.71 2403.73,218.49 2406.47,214.49C2408.78,211.06 2410.97,207.53 2412.88,203.84C2417,196.29 2424.91,191.13 2427.37,182.64C2428.79,177.23 2433.69,173.79 2435.81,168.7C2438.41,162.68 2443.27,158.19 2447.3,153.16C2451.55,147.82 2456.57,143.13 2460.64,137.63C2463.42,134.01 2465.07,129.49 2468.78,126.62C2472.73,123.45 2474.22,118.32 2477.77,114.78C2482.97,109.25 2488.23,103.72 2492.58,97.47C2497.11,91.74 2500.24,84.76 2506.38,80.45C2510.39,77.65 2513.04,73.48 2514.92,69.03Z" style="fill:rgb(129,83,205);fill-rule:nonzero;"/>
        <path d="M2241.65,121.71C2245.05,120.52 2248.38,118.96 2251.99,118.44C2258.58,118.99 2263.07,124.3 2268.3,127.69C2268.29,132.5 2268.07,137.33 2267.01,142.04C2265.78,147.59 2266.53,153.32 2265.74,158.91C2263.87,170.87 2263.66,182.99 2262.83,195.04C2261.9,202.67 2262.09,210.37 2261.35,218.01C2261.01,230.36 2259.68,242.66 2259.99,255.02C2258.68,276.29 2258.8,297.63 2256.71,318.85C2255.79,326.83 2256.56,334.87 2255.74,342.85C2254.85,351.54 2255.44,360.29 2255.12,369C2255,386.52 2252.9,403.92 2251.59,421.37C2250.49,434.57 2248.65,447.69 2247.74,460.91C2247.02,467.13 2247.13,473.67 2244.38,479.43C2243.58,481.2 2242.87,483.01 2242.28,484.86C2240.92,489.73 2236.99,493.47 2236.4,498.63C2231.59,504.18 2228.31,510.86 2223.29,516.23C2220.5,519.23 2218.44,522.78 2216.07,526.09C2213.85,529.24 2210.05,530.67 2207.6,533.59C2204.34,537.25 2201.57,541.63 2197.12,543.97C2192.57,546.37 2188.5,549.55 2184.02,552.07C2179.9,554.37 2180.14,561.07 2175,561.98C2168.98,563.83 2162.28,567.14 2160.25,573.59C2155.97,574.97 2151.89,576.85 2147.91,578.91C2142.72,581.68 2136.57,581.59 2131.4,584.37C2122.11,589.03 2112.81,593.79 2102.92,597.03C2099.23,598.1 2096.11,601.34 2092.06,600.65C2079.06,599.49 2066.01,599.53 2052.99,599.77C2048.55,599.58 2044.83,596.88 2040.9,595.16C2036.19,592.87 2030.82,592.34 2026.25,589.78C2022.59,587.71 2018.84,585.82 2014.93,584.32C2010.64,582.77 2007.33,579.42 2003.07,577.83C2000.14,576.65 1997.04,575.56 1994.94,573.09C1991.91,569.67 1987.86,567.48 1984.44,564.53C1978.36,558.87 1970.26,556.19 1963.55,551.45C1960.64,548.27 1957.75,544.95 1953.61,543.34C1951.92,536.33 1944.77,532.97 1940.65,527.59C1940.01,524.73 1939.14,521.99 1937.54,519.54C1937.01,516.3 1938.47,512.91 1937.52,509.66C1936.43,504.4 1930.99,501.39 1930.12,496.05C1929.16,490.49 1926.64,485.42 1924.95,480.09C1923.93,475.13 1924.44,470 1924.13,464.97C1923.65,460.65 1926.37,457.03 1927.24,453C1927.08,448.99 1925.65,445.07 1926.28,441.03C1926.73,437.35 1926.26,433.66 1926.27,429.97C1926.75,426.22 1928.59,422.81 1929.39,419.12C1930.28,415.79 1929.46,412.37 1929.26,409.02C1928.84,406.69 1930.43,404.78 1931.35,402.8C1934.06,397.27 1937.39,391.92 1938.65,385.81C1939.15,382.73 1940.75,380.05 1942.64,377.63C1944.93,374.8 1943.04,370.36 1945.86,367.83C1948.02,365.34 1951.24,363.48 1951.94,360.01C1953.07,354.8 1959.29,352.09 1958.75,346.29C1960.64,343.86 1962.3,341.24 1963.52,338.4C1965.82,332.79 1970.84,329.08 1974.36,324.31C1979.44,317.5 1985.7,311.7 1991.17,305.21C1994.28,301.28 1998.98,298.98 2001.85,294.81C2005.54,290.52 2008.16,285.11 2013.2,282.15C2018.22,278.99 2021.95,274.26 2026.7,270.74C2030.65,267.63 2034.36,264.13 2038.84,261.75C2043.68,259.17 2047.62,255.31 2051.37,251.37C2055.66,246.8 2061.71,244.53 2066.23,240.24C2069.18,237.37 2072.64,235.1 2076.36,233.33C2080.89,231.19 2084.4,227.55 2088.5,224.75C2091.74,222.61 2094.19,219.44 2097.65,217.59C2101.69,215.38 2105.22,212.35 2109.43,210.43C2114.2,208.18 2118.16,204.63 2122.34,201.48C2126.27,198.32 2131.3,196.64 2134.61,192.67C2138.52,188.07 2144.45,185.98 2148.51,181.52C2153.75,176.3 2163,177.57 2167.09,170.93C2168.75,168.81 2171.54,168.18 2173.67,166.64C2175.89,164.89 2177.16,162.17 2179.5,160.54C2182.26,158.97 2185.55,158.24 2187.83,155.87C2189.9,153.76 2192.29,151.9 2195.29,151.31C2199.5,150.44 2202.91,147.78 2206.51,145.59C2213.12,142.13 2218.45,136.78 2224.59,132.6C2230.19,128.84 2235.14,123.91 2241.65,121.71M2184.65,190.66C2183.23,193 2182,195.43 2180.95,197.94C2179.1,199.53 2177.35,201.38 2177.2,203.95C2176.46,209.81 2171.96,214.19 2170.85,219.93C2169.07,227.86 2166.87,235.84 2163.02,243.04C2162.99,251.7 2156.46,258.14 2152.9,265.53C2151.47,270.23 2148.5,274.24 2146.94,278.87C2144.68,285.66 2140.11,291.47 2135.02,296.36C2134.44,297.63 2133.92,298.91 2133.41,300.19C2133.32,296.19 2133.34,292.18 2132.73,288.22C2131.69,281.02 2131.61,273.72 2130.47,266.54C2128.56,264.4 2127.21,260.98 2123.96,260.78C2118.84,261.24 2116.16,266.08 2113.65,269.92C2113.91,270.83 2114.21,271.74 2114.54,272.65C2113.53,274.31 2112.55,275.98 2111.64,277.68C2109.26,282.07 2108.54,287.09 2106.43,291.59C2105.77,293.04 2105.39,294.58 2105.08,296.13C2103.31,301.14 2100.43,305.65 2098.58,310.62C2096.82,315.23 2093.81,319.2 2091.89,323.73C2089.58,329.1 2086.09,333.84 2082.51,338.42C2077.7,346.91 2071.09,354.48 2062.55,359.36C2055.31,363.2 2049.35,368.87 2043.15,374.1C2038.65,376.86 2035.16,380.84 2031.18,384.22C2028.02,387.15 2026.18,391.15 2023.33,394.34C2020.77,397.25 2018.19,400.26 2017.08,404.05C2016.23,406.94 2013.78,408.86 2012.27,411.35C2007.88,419.6 2007.95,429.1 2007.1,438.17C2006.35,440.38 2005.8,442.64 2005.28,444.91C2005.95,447.22 2006.45,449.58 2006.92,451.95C2002.46,454.01 1999.84,458.34 1995.73,460.79C1992.91,463.96 1990.56,467.5 1987.95,470.82C1985.46,474.06 1982.64,477.19 1981.29,481.13C1978.02,489.74 1976.59,499.66 1980.08,508.43C1981.03,511.72 1982.08,515.05 1984.06,517.89C1987.06,522.9 1992.32,525.79 1996.99,529.03C2001.45,532.16 2006.88,533.27 2012.14,534.33C2022.11,536.25 2032.8,535.08 2042.18,539.59C2043.51,540.03 2044.96,541.13 2046.47,540.66C2055.99,535.58 2063.96,528.2 2071.33,520.41C2074.8,516.39 2077.31,511.67 2080.4,507.37C2081.52,505.75 2082.96,504.23 2084.91,503.61C2087.4,502.96 2089.85,504.12 2092.28,504.69C2092.6,508.14 2093.44,511.52 2093.73,514.98C2088.3,524.96 2081.87,534.62 2073.57,542.5C2070.96,542.94 2070,544.89 2070.04,547.34C2077.57,551.85 2086.63,550.43 2094.95,549.87C2104.53,549.76 2113.87,547.27 2123.1,544.93C2131.26,541.86 2139.21,538.12 2146.52,533.33C2153.45,529.59 2159.11,524.08 2165.01,518.95C2171.65,513.22 2176.3,505.67 2181.25,498.52C2182.09,494.14 2185.34,490.55 2185.38,486C2188.83,480.18 2187.66,473.24 2189.36,466.93C2188.91,464.62 2190.1,462.73 2191.31,460.89C2191.6,450.61 2192.37,440.34 2192.37,430.05C2193.26,421.41 2191.82,412.71 2193.22,404.11C2193.36,395.74 2193.69,387.36 2193.52,378.98C2193.76,374.97 2194.65,370.97 2194.01,366.95C2193.12,362.25 2194.88,357.66 2194.89,352.98C2194.62,342.65 2195.2,332.32 2195.91,322.02C2196.07,317.01 2195.47,311.98 2196.13,306.99C2197,301.58 2195.74,296.12 2196.53,290.71C2196.72,282.12 2197.95,273.55 2197.37,264.96C2197.11,260.62 2198.19,256.35 2198.31,252.03C2198.42,248.99 2197.56,246.01 2197.72,242.97C2198.66,232.35 2199.55,221.59 2197.98,210.99C2197.06,204.58 2198.93,197.45 2195.33,191.65C2192.62,188.21 2188.12,189.46 2184.65,190.66Z" style="fill:rgb(129,83,205);fill-rule:nonzero;"/>
        <path d="M1860.4,329.45C1863.44,328.43 1867.1,328.16 1869.87,330.09C1874.43,333.18 1878.95,337.41 1879.76,343.15C1880.58,346.71 1878,349.7 1877.03,352.94C1875.76,356.62 1874.81,361.07 1870.9,362.85C1866.8,364.29 1862.38,364.39 1858.1,364.84C1850.56,366.08 1844.73,357.94 1845.07,351.07C1846.16,346.19 1847.1,340.57 1851.33,337.33C1854.49,334.87 1856.86,331.39 1860.4,329.45Z" style="fill:rgb(129,83,205);fill-rule:nonzero;"/>
        <path d="M2736.03,370.02C2744.82,367.35 2753.81,365.24 2763.01,364.6C2762.98,423.36 2763.03,482.12 2762.99,540.88C2753.51,541.42 2744.33,543.95 2735.19,546.31C2729.1,548 2722.61,547.55 2716.63,549.65C2708.22,552.65 2699.29,553.53 2690.62,555.42C2684.19,556.24 2678.56,559.98 2672.04,560.29C2665.39,560.66 2659.48,564.03 2653.01,565.18C2644.5,566.79 2636.37,569.82 2628.04,572.07C2615.83,576.57 2603.06,579.37 2590.93,584.05C2583.1,587.9 2574.29,588.9 2566.37,592.49C2554.34,597.73 2542.46,603.33 2530.39,608.48C2524.09,610.55 2517.9,612.93 2512.02,615.98C2504.91,619.49 2497.67,622.76 2490.98,627.03C2485.38,630.68 2478.49,631.43 2472.86,635.01C2467.04,638.7 2460.81,641.65 2454.66,644.7C2449.17,647.34 2445.56,652.73 2439.83,654.95C2433.48,657.52 2427.53,660.93 2422.04,665.02C2416.67,669.08 2410.05,671.38 2405.43,676.4C2398.53,683.68 2389.85,688.85 2381.9,694.82C2377.81,697.76 2375.34,702.43 2371,705.05C2365.73,708.05 2363.28,713.92 2358.79,717.79C2349.53,726.24 2341.65,736.02 2332.85,744.92C2327.52,750.08 2324.02,756.7 2319.1,762.2C2316.03,765.79 2313.21,769.59 2310.23,773.25C2303.96,780.79 2300.09,790.07 2293.08,797.04C2287.76,803.73 2284.07,811.58 2279.88,819.01C2197.23,819.05 2114.58,818.94 2031.93,819.07C2034.49,816.9 2036.78,814.45 2039.04,811.97C2041.9,808.83 2045.5,806.48 2048.46,803.44C2051.58,800.25 2053.8,796.28 2057.1,793.24C2063.28,787.6 2068.25,780.8 2073.23,774.12C2076.19,770.1 2081.98,768.29 2083.12,762.99C2084.93,756.35 2088.6,750.34 2093.32,745.37C2097.35,741.32 2100.74,736.53 2105.73,733.54C2109.8,731.48 2109.48,725.63 2113.66,723.76C2117.28,721.81 2121.26,720.25 2124.13,717.16C2127.31,713.97 2127.59,709.06 2130.56,705.71C2133.48,702.47 2135.35,698.45 2138.27,695.21C2141.86,691.37 2144.98,686.62 2150.41,685.26C2155.65,684.26 2155.6,678.13 2159,675.02C2161.14,672.77 2163.15,670.4 2165.19,668.05C2167.57,665.19 2171.7,664.91 2174.4,662.43C2176.64,660.28 2178.82,658.05 2181.25,656.1C2182.2,653.05 2183.02,649.72 2185.63,647.6C2189.31,644.32 2192.59,640.58 2196.43,637.46C2203.49,632.65 2209.25,626.26 2215.04,620.04C2218.77,616.84 2224.18,616.28 2227.63,612.62C2231.21,608.88 2233.65,604.08 2238,601.08C2242.94,597.72 2246.42,592.7 2251.34,589.32C2253.36,587.81 2255.61,586.37 2256.86,584.07C2258.04,582.23 2258.73,579.97 2260.4,578.47C2262.55,577.33 2265,576.91 2267.36,576.24C2268.18,573.2 2266.64,567.6 2270.89,567.09C2274.42,566.19 2278.07,565.28 2281.03,563C2287.87,557.96 2294.35,552.43 2300.27,546.32C2304.79,541.6 2310.77,538.75 2315.94,534.86C2319.9,531.83 2324.88,530.02 2327.94,525.91C2330.4,522.73 2333.13,519.65 2336.74,517.73C2344.05,513.72 2351.86,510.53 2358.66,505.61C2362.1,503.08 2364.27,499.28 2367.4,496.42C2370.29,494 2374.09,493.16 2377.4,491.43C2381.37,489.54 2384.43,485.95 2388.84,484.92C2393.12,483.85 2397.51,482.73 2401.12,480.01C2406.43,476.21 2412.3,473.18 2418.66,471.53C2427.04,469.34 2434.48,464.79 2442.35,461.32C2448.02,458.79 2453.33,455.51 2459.19,453.38C2462.26,452.25 2465.14,450.66 2467.99,449.02C2472.61,446.31 2478.22,446.33 2483,443.96C2486.72,442.2 2489.8,439.28 2493.68,437.81C2498.52,436.24 2503.81,436.5 2508.56,434.52C2513.21,432.57 2517.62,430.07 2522.41,428.41C2530.9,425.05 2540.36,424.72 2548.48,420.31C2554.53,417.03 2561.68,417.59 2567.99,415.05C2576.87,411.65 2586.34,409.96 2595.01,405.97C2603.36,401.86 2612.83,401.08 2621.27,397.2C2629.4,393.64 2638.5,394.99 2646.99,393.06C2651.41,392.04 2655.86,391.16 2660.35,390.37C2667.48,389.15 2674.03,385.88 2681.03,384.13C2692.18,381.39 2703.24,378.29 2714.37,375.45C2721.4,372.91 2728.72,371.51 2736.03,370.02Z" style="fill:rgb(129,83,205);fill-rule:nonzero;"/>
        <path d="M2340.28,366.32C2346.15,365.45 2351.94,367.47 2357.18,369.94C2364.04,374.54 2369.15,381.72 2371.54,389.61C2372.6,397.16 2369.71,404.53 2367.76,411.7C2365.93,418.68 2360.76,423.95 2355.78,428.86C2353.22,431.57 2349.36,432.03 2345.95,432.91C2337.17,435.19 2327.57,434.5 2319.29,430.78C2314.48,427.73 2310.02,423.44 2308,418.02C2305.3,407.14 2309.69,396.44 2312.15,385.98C2313.14,381.61 2317.36,379.3 2320.24,376.26C2323.21,373.52 2325.24,369.5 2329.28,368.12C2332.8,366.9 2336.58,366.73 2340.28,366.32Z" style="fill:rgb(129,83,205);fill-rule:nonzero;"/>
        <path d="M1780.04,430.93C1784.39,429.85 1788.82,431.04 1793.19,431.45C1795.95,431.8 1798.8,431.74 1801.51,432.55C1804.1,433.75 1806.2,435.75 1808.58,437.32C1813.72,440.92 1819.63,443.16 1825.29,445.81C1828.59,447.29 1830.58,450.43 1832.94,453.02C1834.98,455.38 1837.6,457.1 1840.05,459.03C1843.46,461.65 1845.67,465.44 1847.82,469.1C1850.4,473.41 1850.01,478.66 1851.64,483.31C1853.09,487.09 1851.9,491.08 1851.78,494.97C1851.53,499.71 1852.92,504.33 1853.04,509.06C1853.34,511.04 1851.48,512.21 1850.45,513.6C1848.19,515.76 1848.58,519.15 1847.86,521.95C1846.81,526.24 1846.46,530.75 1844.87,534.87C1841.27,540.21 1837.13,545.36 1835.39,551.7C1831.99,553.25 1828.38,554.33 1825.14,556.19C1819.26,560.28 1817.37,568.77 1810.16,571.18C1801.34,574.22 1791.91,575.44 1783.43,579.48C1780.54,581.11 1777.99,583.26 1775.23,585.07C1771.85,584.52 1768.44,584.65 1765.06,584.91C1759.87,585.32 1755.05,582.94 1750.63,580.54C1746.96,578.48 1743.09,576.76 1739.62,574.39C1736.02,571.96 1732.63,569.2 1728.83,567.09C1725.34,565.14 1721.09,564.66 1718.12,561.85C1713.4,558.07 1710.89,552.44 1707.19,547.81C1703.98,543.89 1701.56,539.28 1700.54,534.3C1700.09,531.76 1701.22,529.28 1701.13,526.75C1700.47,523.13 1698.83,519.71 1698.78,515.98C1698.59,510.31 1699.15,504.63 1698.71,498.97C1698.02,491.42 1701.29,484.25 1704.65,477.7C1706.64,473.95 1707.95,469.83 1710.3,466.27C1712.56,463.04 1716.75,462.52 1720.1,460.96C1728.9,456.96 1735.49,449.58 1743.67,444.6C1745.72,443.22 1748.27,443.42 1750.64,443.17C1753.61,443.07 1755.45,440.32 1757.76,438.8C1759.45,437.26 1761.79,437.06 1763.93,436.51C1769.52,435.31 1774.39,431.97 1780.04,430.93Z" style="fill:rgb(129,83,205);fill-rule:nonzero;"/>
        <path d="M2746.99,570.25C2752.35,569.52 2757.68,568.58 2763.01,567.52C2763,646.25 2763,724.97 2763.01,803.7C2758.97,804.25 2754.82,804.86 2751.34,807.11C2746.57,809.75 2744.04,814.77 2740.91,818.98C2597.16,819.04 2453.4,819 2309.64,819C2311.28,815.64 2313.03,812.31 2315.39,809.38C2319.64,804.16 2322.16,797.77 2326.66,792.72C2332.1,784.91 2337.97,777.39 2344.41,770.37C2351.1,763.02 2356.25,754.31 2363.77,747.71C2366.78,745.11 2369.47,742.16 2372.17,739.24C2381.21,730.2 2391.15,722.07 2399.77,712.62C2403.98,709.02 2408.82,706.26 2413.28,702.98C2417.31,700.18 2420.27,696.11 2424.48,693.53C2430.83,689.52 2436.94,685.11 2443.52,681.47C2448.98,678.39 2454.56,675.46 2459.43,671.45C2463.08,668.37 2467.82,667.25 2471.94,664.95C2478.22,661.45 2484.2,657.21 2491.14,655.05C2494.72,653.91 2498.14,652.31 2501.38,650.39C2512.53,643.66 2525.27,640.19 2536.34,633.28C2541.71,629.65 2548.34,628.97 2554.02,625.99C2559.13,623.26 2564.92,622 2569.88,618.93C2575.02,615.76 2581.08,614.78 2586.68,612.7C2597.02,609.4 2607.42,606.27 2617.62,602.53C2630.61,596.68 2644.97,595.09 2658.25,590C2663.83,587.63 2669.98,587.58 2675.74,585.83C2681.79,583.95 2688.22,583.45 2694.13,581.01C2699.21,578.88 2704.8,579.06 2710.18,578.28C2716.2,577.49 2721.39,573.53 2727.59,573.56C2734.2,573.5 2740.46,571.08 2746.99,570.25Z" style="fill:rgb(129,83,205);fill-rule:nonzero;"/>
        <path d="M1596.75,625.37C1600.72,624.71 1604.76,623.34 1608.83,624.26C1612.68,625.1 1616.38,626.54 1620.18,627.63C1625.22,629.13 1630.59,630.6 1634.48,634.39C1638.02,637.9 1641,641.93 1644.14,645.82C1648.57,651.32 1650.06,658.8 1648.82,665.69C1647.86,670.25 1650.73,674.39 1650.75,678.88C1650.1,681.45 1647.75,683.11 1646.19,685.12C1642.79,688.45 1644.13,693.68 1642.89,697.88C1641.68,704.99 1636.44,710.24 1633.33,716.49C1631.4,720.17 1629.39,723.82 1627.59,727.56C1633.25,726.68 1635.82,721.07 1640.45,718.42C1644.81,715.63 1650.06,714.86 1654.64,712.55C1659.76,709.53 1663.77,705.02 1667.49,700.45C1672.19,699.9 1677.03,698.89 1680.79,695.78C1686.52,691.1 1693.46,688.43 1699.82,684.77C1703.03,683.01 1706.71,682.42 1710.07,680.98C1711.68,679.99 1712.55,678.17 1713.75,676.76C1716.9,676.45 1720.15,676.33 1723.14,675.12C1726.6,673.75 1729.57,671.39 1733.08,670.1C1736.23,669.05 1739.64,669.25 1742.86,668.4C1745.63,667.03 1747.77,664.42 1750.98,663.94C1754.95,663.15 1758.52,661.23 1761.77,658.87C1766.14,655.73 1771.44,654.47 1776.62,653.34C1780.97,652.41 1785.1,650.73 1789.33,649.35C1793.04,648.13 1797.03,648.44 1800.81,647.5C1803.87,645.95 1806.38,643.25 1809.94,642.75C1824.52,639.55 1839.02,636.03 1853.54,632.53C1861.17,630.35 1869.26,631.49 1876.97,629.64C1887.17,627.25 1897.54,625.38 1908.05,625.01C1921.19,624.69 1934.24,627.31 1946.71,631.33C1953.42,633.23 1959.79,636.46 1965.22,640.88C1968.62,644.07 1970.95,648.41 1975.16,650.76C1979.57,653.34 1982.48,657.63 1985.35,661.73C1989.46,667.24 1990.37,674.58 1995.5,679.43C1994.76,683.55 1994.23,687.72 1994.34,691.92C1994.29,696.77 1995.11,701.79 1993.48,706.48C1991.62,711.84 1990.51,717.51 1987.63,722.46C1983.49,729.63 1981.98,737.85 1979.82,745.74C1979.04,749.19 1976.11,751.39 1974.25,754.22C1972.81,757.37 1972.98,761.1 1971.16,764.12C1969.1,767.68 1965.81,770.65 1964.94,774.81C1963.99,778.13 1964.26,782.11 1961.48,784.61C1958.81,787.25 1957.36,790.74 1955.96,794.15C1953.67,799.74 1949.32,804.11 1946.63,809.48C1944.94,812.78 1943.1,816.01 1940.97,819.05C1785.97,818.96 1630.98,819.03 1475.98,819.01C1476,777.14 1476.01,735.28 1475.99,693.41C1481.48,689.83 1487.79,687.19 1492.13,682.09C1499.32,673.54 1508.93,667.59 1517.66,660.76C1524.79,655.15 1532.02,649.68 1539.61,644.72C1544.13,642.15 1549.61,643.06 1554.4,641.38C1555.74,639.77 1556.59,637.79 1558,636.22C1561.05,635.34 1564.45,635.72 1567.29,634.05C1576.17,628.68 1586.64,626.93 1596.75,625.37Z" style="fill:rgb(129,83,205);fill-rule:nonzero;"/>
        <path d="M1797.75,68.96C1806.91,69.03 1816.08,68.96 1825.25,69C1823.15,72.83 1820.64,76.45 1817.54,79.53C1812.92,84.09 1810.04,89.98 1806.06,95.03C1802.75,99.14 1800.92,104.37 1796.82,107.83C1792.64,111.5 1790.75,116.93 1787.14,121.08C1782.54,126.57 1778.9,132.78 1774.25,138.22C1772.27,140.57 1770.52,143.1 1768.86,145.68C1766.61,143.95 1763.96,142.22 1761,142.63C1756.36,142.97 1752.59,145.93 1749.16,148.77C1749.51,145.76 1749.92,142.71 1749.62,139.67C1747.97,138.19 1745.63,138.76 1743.67,138.59C1749.48,137.9 1751.68,132.01 1754.77,127.91C1757.71,123.24 1762.74,120.2 1764.98,115.05C1766.81,111.09 1770.26,108.25 1772.53,104.58C1774.4,101.52 1776.4,98.53 1778.83,95.86C1782.65,91.61 1785.48,86.57 1789.41,82.4C1793.11,78.55 1795.31,73.64 1797.75,68.96Z" style="fill:rgb(145,96,221);fill-rule:nonzero;"/>
        <path d="M2104.56,69.16C2167.35,68.76 2230.19,69.11 2293,68.99C2292.92,75.3 2293.09,81.96 2296.56,87.49C2300.54,93.94 2304.7,100.6 2310.93,105.14C2314.88,108.07 2318.15,111.83 2322.22,114.63C2329.7,119.48 2337.05,125.07 2345.9,127.13C2348.92,127.62 2351.88,126.3 2354.93,126.42C2358.62,126.93 2362.02,129.56 2365.89,128.59C2369.71,127.82 2373.54,127.07 2377.42,126.53C2381.59,126.08 2384.8,123.12 2388.61,121.64C2392.75,119.91 2397.35,119.76 2401.53,118.11C2403.31,117.09 2404.54,115.37 2405.97,113.91C2410.55,108.39 2417.65,105.82 2422.23,100.28C2425.79,95.92 2430.04,92.16 2433.6,87.8C2436.78,81.97 2437.27,75.11 2439.76,68.98C2464.81,69.04 2489.87,68.93 2514.92,69.03C2513.04,73.48 2510.39,77.65 2506.38,80.45C2500.24,84.76 2497.11,91.74 2492.58,97.47C2488.23,103.72 2482.97,109.25 2477.77,114.78C2474.22,118.32 2472.73,123.45 2468.78,126.62C2465.07,129.49 2463.42,134.01 2460.64,137.63C2456.57,143.13 2451.55,147.82 2447.3,153.16C2443.27,158.19 2438.41,162.68 2435.81,168.7C2433.69,173.79 2428.79,177.23 2427.37,182.64C2424.91,191.13 2417,196.29 2412.88,203.84C2410.97,207.53 2408.78,211.06 2406.47,214.49C2403.73,218.49 2403.57,223.71 2400.49,227.49C2397.99,230.59 2395.91,234.01 2394.55,237.75C2391.72,245.01 2387.66,252.02 2387.2,259.97C2386.89,266.13 2384.06,271.84 2384.02,278.02C2383.95,283.5 2383.55,289.2 2385.51,294.44C2388.74,303.43 2392.51,312.65 2399.67,319.29C2404.72,323.9 2408.99,329.37 2414.46,333.5C2421.12,337.12 2428.75,338.56 2436.2,339.64C2453.86,342.5 2471.69,338.91 2489.08,335.8C2502.15,333.7 2514,327.21 2527.01,324.83C2532.85,323.63 2538.43,321.38 2544.36,320.51C2551.33,319.53 2557.6,316.11 2564.36,314.34C2571.66,312.45 2578.44,309.08 2585.61,306.77C2591.58,304.82 2597.16,301.79 2603.23,300.09C2613.29,297.24 2622.6,292.21 2632.81,289.81C2640.49,288 2648.03,285.65 2655.56,283.28C2661.66,281.4 2667.02,277.58 2673.39,276.47C2681.23,275.14 2688.13,270.98 2695.68,268.72C2706.3,265.29 2716.99,262.1 2727.68,258.91C2734.29,257.08 2740.23,253.4 2746.97,251.95C2752.42,250.7 2757.76,249.01 2763.01,247.05C2762.99,286.23 2762.99,325.41 2763.01,364.6C2753.81,365.24 2744.82,367.35 2736.03,370.02C2728.72,371.51 2721.4,372.91 2714.37,375.45C2703.24,378.29 2692.18,381.39 2681.03,384.13C2674.03,385.88 2667.48,389.15 2660.35,390.37C2655.86,391.16 2651.41,392.04 2646.99,393.06C2638.5,394.99 2629.4,393.64 2621.27,397.2C2612.83,401.08 2603.36,401.86 2595.01,405.97C2586.34,409.96 2576.87,411.65 2567.99,415.05C2561.68,417.59 2554.53,417.03 2548.48,420.31C2540.36,424.72 2530.9,425.05 2522.41,428.41C2517.62,430.07 2513.21,432.57 2508.56,434.52C2503.81,436.5 2498.52,436.24 2493.68,437.81C2489.8,439.28 2486.72,442.2 2483,443.96C2478.22,446.33 2472.61,446.31 2467.99,449.02C2465.14,450.66 2462.26,452.25 2459.19,453.38C2453.33,455.51 2448.02,458.79 2442.35,461.32C2434.48,464.79 2427.04,469.34 2418.66,471.53C2412.3,473.18 2406.43,476.21 2401.12,480.01C2397.51,482.73 2393.12,483.85 2388.84,484.92C2384.43,485.95 2381.37,489.54 2377.4,491.43C2374.09,493.16 2370.29,494 2367.4,496.42C2364.27,499.28 2362.1,503.08 2358.66,505.61C2351.86,510.53 2344.05,513.72 2336.74,517.73C2333.13,519.65 2330.4,522.73 2327.94,525.91C2324.88,530.02 2319.9,531.83 2315.94,534.86C2310.77,538.75 2304.79,541.6 2300.27,546.32C2294.35,552.43 2287.87,557.96 2281.03,563C2278.07,565.28 2274.42,566.19 2270.89,567.09C2266.64,567.6 2268.18,573.2 2267.36,576.24C2265,576.91 2262.55,577.33 2260.4,578.47C2258.73,579.97 2258.04,582.23 2256.86,584.07C2255.61,586.37 2253.36,587.81 2251.34,589.32C2246.42,592.7 2242.94,597.72 2238,601.08C2233.65,604.08 2231.21,608.88 2227.63,612.62C2224.18,616.28 2218.77,616.84 2215.04,620.04C2209.25,626.26 2203.49,632.65 2196.43,637.46C2192.59,640.58 2189.31,644.32 2185.63,647.6C2183.02,649.72 2182.2,653.05 2181.25,656.1C2178.82,658.05 2176.64,660.28 2174.4,662.43C2171.7,664.91 2167.57,665.19 2165.19,668.05C2163.15,670.4 2161.14,672.77 2159,675.02C2155.6,678.13 2155.65,684.26 2150.41,685.26C2144.98,686.62 2141.86,691.37 2138.27,695.21C2135.35,698.45 2133.48,702.47 2130.56,705.71C2127.59,709.06 2127.31,713.97 2124.13,717.16C2121.26,720.25 2117.28,721.81 2113.66,723.76C2109.48,725.63 2109.8,731.48 2105.73,733.54C2100.74,736.53 2097.35,741.32 2093.32,745.37C2088.6,750.34 2084.93,756.35 2083.12,762.99C2081.98,768.29 2076.19,770.1 2073.23,774.12C2068.25,780.8 2063.28,787.6 2057.1,793.24C2053.8,796.28 2051.58,800.25 2048.46,803.44C2045.5,806.48 2041.9,808.83 2039.04,811.97C2036.78,814.45 2034.49,816.9 2031.93,819.07C2001.61,818.96 1971.29,818.99 1940.97,819.05C1943.1,816.01 1944.94,812.78 1946.63,809.48C1949.32,804.11 1953.67,799.74 1955.96,794.15C1957.36,790.74 1958.81,787.25 1961.48,784.61C1964.26,782.11 1963.99,778.13 1964.94,774.81C1965.81,770.65 1969.1,767.68 1971.16,764.12C1972.98,761.1 1972.81,757.37 1974.25,754.22C1976.11,751.39 1979.04,749.19 1979.82,745.74C1981.98,737.85 1983.49,729.63 1987.63,722.46C1990.51,717.51 1991.62,711.84 1993.48,706.48C1995.11,701.79 1994.29,696.77 1994.34,691.92C1994.23,687.72 1994.76,683.55 1995.5,679.43C1990.37,674.58 1989.46,667.24 1985.35,661.73C1982.48,657.63 1979.57,653.34 1975.16,650.76C1970.95,648.41 1968.62,644.07 1965.22,640.88C1959.79,636.46 1953.42,633.23 1946.71,631.33C1934.24,627.31 1921.19,624.69 1908.05,625.01C1897.54,625.38 1887.17,627.25 1876.97,629.64C1869.26,631.49 1861.17,630.35 1853.54,632.53C1839.02,636.03 1824.52,639.55 1809.94,642.75C1806.38,643.25 1803.87,645.95 1800.81,647.5C1797.03,648.44 1793.04,648.13 1789.33,649.35C1785.1,650.73 1780.97,652.41 1776.62,653.34C1771.44,654.47 1766.14,655.73 1761.77,658.87C1758.52,661.23 1754.95,663.15 1750.98,663.94C1747.77,664.42 1745.63,667.03 1742.86,668.4C1739.64,669.25 1736.23,669.05 1733.08,670.1C1729.57,671.39 1726.6,673.75 1723.14,675.12C1720.15,676.33 1716.9,676.45 1713.75,676.76C1712.55,678.17 1711.68,679.99 1710.07,680.98C1706.71,682.42 1703.03,683.01 1699.82,684.77C1693.46,688.43 1686.52,691.1 1680.79,695.78C1677.03,698.89 1672.19,699.9 1667.49,700.45C1663.77,705.02 1659.76,709.53 1654.64,712.55C1650.06,714.86 1644.81,715.63 1640.45,718.42C1635.82,721.07 1633.25,726.68 1627.59,727.56C1629.39,723.82 1631.4,720.17 1633.33,716.49C1636.44,710.24 1641.68,704.99 1642.89,697.88C1644.13,693.68 1642.79,688.45 1646.19,685.12C1647.75,683.11 1650.1,681.45 1650.75,678.88C1650.73,674.39 1647.86,670.25 1648.82,665.69C1650.06,658.8 1648.57,651.32 1644.14,645.82C1641,641.93 1638.02,637.9 1634.48,634.39C1630.59,630.6 1625.22,629.13 1620.18,627.63C1616.38,626.54 1612.68,625.1 1608.83,624.26C1604.76,623.34 1600.72,624.71 1596.75,625.37C1586.64,626.93 1576.17,628.68 1567.29,634.05C1564.45,635.72 1561.05,635.34 1558,636.22C1556.59,637.79 1555.74,639.77 1554.4,641.38C1549.61,643.06 1544.13,642.15 1539.61,644.72C1532.02,649.68 1524.79,655.15 1517.66,660.76C1508.93,667.59 1499.32,673.54 1492.13,682.09C1487.79,687.19 1481.48,689.83 1475.99,693.41C1476,677.08 1475.95,660.76 1476.02,644.44C1478.96,642.99 1482,641.63 1484.54,639.5C1487.79,636.77 1490.37,633.26 1494,630.99C1496.89,629.05 1500.26,627.97 1503.07,625.91C1505.15,622.15 1503.72,616.47 1507.79,613.95C1511.84,611.34 1514.74,607.31 1518.97,604.96C1522.91,602.65 1526.69,600.06 1530.3,597.26C1532.7,595.55 1533.27,592.48 1534.98,590.24C1537.29,588.14 1540.31,586.65 1541.63,583.64C1543.88,578.75 1548.66,575.84 1551.5,571.35C1554.47,566.64 1559.37,563.85 1563.79,560.71C1567.26,558.26 1567.57,553.46 1570.62,550.64C1572.62,548.69 1574.76,546.88 1576.61,544.77C1581.53,538.68 1589.25,535.28 1593.2,528.33C1594.79,524.69 1594.92,520.63 1595.53,516.76C1601.92,513.19 1605.86,506.86 1611.44,502.32C1614.64,499.66 1615.01,494.96 1618.28,492.35C1621.18,489.92 1623.85,487.21 1626.17,484.2C1629.26,480.23 1633.87,477.91 1637.34,474.33C1640.98,470.6 1644.49,466.75 1648.04,462.93C1651.19,459.46 1654.87,456.37 1657.16,452.21C1662.24,442.06 1672.26,435.66 1678.15,426.07C1679.97,422.91 1684.1,422.37 1686.22,419.47C1688.67,416.19 1691.51,413.24 1694.72,410.68C1698.91,407.39 1700.22,401.72 1704.51,398.51C1711.59,392.89 1716.64,385.27 1723.24,379.16C1729.55,372.12 1737.24,366.53 1743.84,359.78C1746.35,356.89 1747.56,353.05 1750.42,350.43C1753.05,348 1756.23,346.27 1759.03,344.04C1762.98,340.98 1765.44,336.49 1769.06,333.07C1773.67,328.69 1777.89,323.88 1782.9,319.92C1788.64,315.4 1793.05,309.41 1799.05,305.18C1807.04,299.5 1811.79,290.51 1819.44,284.47C1825.22,280.2 1830.57,275.4 1836.07,270.77C1842.29,264.06 1849.89,258.87 1856.52,252.58C1860.5,249.49 1862.47,244.56 1866.5,241.53C1870.49,238.51 1874.11,235.01 1878.35,232.31C1880.87,230.77 1882.42,228.21 1884.23,225.95C1885.98,223.7 1888.68,222.57 1890.98,220.97C1894.61,218.62 1896.24,214.27 1899.8,211.81C1904.44,208.47 1908.46,204.34 1913.26,201.2C1917.07,198.72 1919.49,194.74 1923.05,191.97C1926.98,188.84 1931.72,186.87 1935.43,183.45C1938.39,180.72 1940.98,177.56 1944.36,175.3C1948.89,172.21 1953.85,169.69 1957.87,165.88C1962.17,161.77 1967.25,158.61 1971.59,154.53C1974.26,152.03 1977.65,150.56 1980.7,148.59C1982.77,147.25 1983.77,144.9 1985.1,142.91C1987.88,141.98 1990.9,141.22 1993.04,139.04C1997.34,134.81 2002.93,132.33 2007.57,128.52C2012.37,125.37 2016.37,121.1 2021.49,118.4C2026.88,115.59 2031.35,111.34 2036.78,108.58C2044.46,104.55 2051.14,98.95 2058.62,94.57C2064.19,90.57 2071,88.69 2076.28,84.22C2080.34,80.85 2085.6,79.69 2090.22,77.3C2095.11,74.8 2099.68,71.7 2104.56,69.16M2241.65,121.71C2235.14,123.91 2230.19,128.84 2224.59,132.6C2218.45,136.78 2213.12,142.13 2206.51,145.59C2202.91,147.78 2199.5,150.44 2195.29,151.31C2192.29,151.9 2189.9,153.76 2187.83,155.87C2185.55,158.24 2182.26,158.97 2179.5,160.54C2177.16,162.17 2175.89,164.89 2173.67,166.64C2171.54,168.18 2168.75,168.81 2167.09,170.93C2163,177.57 2153.75,176.3 2148.51,181.52C2144.45,185.98 2138.52,188.07 2134.61,192.67C2131.3,196.64 2126.27,198.32 2122.34,201.48C2118.16,204.63 2114.2,208.18 2109.43,210.43C2105.22,212.35 2101.69,215.38 2097.65,217.59C2094.19,219.44 2091.74,222.61 2088.5,224.75C2084.4,227.55 2080.89,231.19 2076.36,233.33C2072.64,235.1 2069.18,237.37 2066.23,240.24C2061.71,244.53 2055.66,246.8 2051.37,251.37C2047.62,255.31 2043.68,259.17 2038.84,261.75C2034.36,264.13 2030.65,267.63 2026.7,270.74C2021.95,274.26 2018.22,278.99 2013.2,282.15C2008.16,285.11 2005.54,290.52 2001.85,294.81C1998.98,298.98 1994.28,301.28 1991.17,305.21C1985.7,311.7 1979.44,317.5 1974.36,324.31C1970.84,329.08 1965.82,332.79 1963.52,338.4C1962.3,341.24 1960.64,343.86 1958.75,346.29C1959.29,352.09 1953.07,354.8 1951.94,360.01C1951.24,363.48 1948.02,365.34 1945.86,367.83C1943.04,370.36 1944.93,374.8 1942.64,377.63C1940.75,380.05 1939.15,382.73 1938.65,385.81C1937.39,391.92 1934.06,397.27 1931.35,402.8C1930.43,404.78 1928.84,406.69 1929.26,409.02C1929.46,412.37 1930.28,415.79 1929.39,419.12C1928.59,422.81 1926.75,426.22 1926.27,429.97C1926.26,433.66 1926.73,437.35 1926.28,441.03C1925.65,445.07 1927.08,448.99 1927.24,453C1926.37,457.03 1923.65,460.65 1924.13,464.97C1924.44,470 1923.93,475.13 1924.95,480.09C1926.64,485.42 1929.16,490.49 1930.12,496.05C1930.99,501.39 1936.43,504.4 1937.52,509.66C1938.47,512.91 1937.01,516.3 1937.54,519.54C1939.14,521.99 1940.01,524.73 1940.65,527.59C1944.77,532.97 1951.92,536.33 1953.61,543.34C1957.75,544.95 1960.64,548.27 1963.55,551.45C1970.26,556.19 1978.36,558.87 1984.44,564.53C1987.86,567.48 1991.91,569.67 1994.94,573.09C1997.04,575.56 2000.14,576.65 2003.07,577.83C2007.33,579.42 2010.64,582.77 2014.93,584.32C2018.84,585.82 2022.59,587.71 2026.25,589.78C2030.82,592.34 2036.19,592.87 2040.9,595.16C2044.83,596.88 2048.55,599.58 2052.99,599.77C2066.01,599.53 2079.06,599.49 2092.06,600.65C2096.11,601.34 2099.23,598.1 2102.92,597.03C2112.81,593.79 2122.11,589.03 2131.4,584.37C2136.57,581.59 2142.72,581.68 2147.91,578.91C2151.89,576.85 2155.97,574.97 2160.25,573.59C2162.28,567.14 2168.98,563.83 2175,561.98C2180.14,561.07 2179.9,554.37 2184.02,552.07C2188.5,549.55 2192.57,546.37 2197.12,543.97C2201.57,541.63 2204.34,537.25 2207.6,533.59C2210.05,530.67 2213.85,529.24 2216.07,526.09C2218.44,522.78 2220.5,519.23 2223.29,516.23C2228.31,510.86 2231.59,504.18 2236.4,498.63C2236.99,493.47 2240.92,489.73 2242.28,484.86C2242.87,483.01 2243.58,481.2 2244.38,479.43C2247.13,473.67 2247.02,467.13 2247.74,460.91C2248.65,447.69 2250.49,434.57 2251.59,421.37C2252.9,403.92 2255,386.52 2255.12,369C2255.44,360.29 2254.85,351.54 2255.74,342.85C2256.56,334.87 2255.79,326.83 2256.71,318.85C2258.8,297.63 2258.68,276.29 2259.99,255.02C2259.68,242.66 2261.01,230.36 2261.35,218.01C2262.09,210.37 2261.9,202.67 2262.83,195.04C2263.66,182.99 2263.87,170.87 2265.74,158.91C2266.53,153.32 2265.78,147.59 2267.01,142.04C2268.07,137.33 2268.29,132.5 2268.3,127.69C2263.07,124.3 2258.58,118.99 2251.99,118.44C2248.38,118.96 2245.05,120.52 2241.65,121.71M1860.4,329.45C1856.86,331.39 1854.49,334.87 1851.33,337.33C1847.1,340.57 1846.16,346.19 1845.07,351.07C1844.73,357.94 1850.56,366.08 1858.1,364.84C1862.38,364.39 1866.8,364.29 1870.9,362.85C1874.81,361.07 1875.76,356.62 1877.03,352.94C1878,349.7 1880.58,346.71 1879.76,343.15C1878.95,337.41 1874.43,333.18 1869.87,330.09C1867.1,328.16 1863.44,328.43 1860.4,329.45M2340.28,366.32C2336.58,366.73 2332.8,366.9 2329.28,368.12C2325.24,369.5 2323.21,373.52 2320.24,376.26C2317.36,379.3 2313.14,381.61 2312.15,385.98C2309.69,396.44 2305.3,407.14 2308,418.02C2310.02,423.44 2314.48,427.73 2319.29,430.78C2327.57,434.5 2337.17,435.19 2345.95,432.91C2349.36,432.03 2353.22,431.57 2355.78,428.86C2360.76,423.95 2365.93,418.68 2367.76,411.7C2369.71,404.53 2372.6,397.16 2371.54,389.61C2369.15,381.72 2364.04,374.54 2357.18,369.94C2351.94,367.47 2346.15,365.45 2340.28,366.32M1780.04,430.93C1774.39,431.97 1769.52,435.31 1763.93,436.51C1761.79,437.06 1759.45,437.26 1757.76,438.8C1755.45,440.32 1753.61,443.07 1750.64,443.17C1748.27,443.42 1745.72,443.22 1743.67,444.6C1735.49,449.58 1728.9,456.96 1720.1,460.96C1716.75,462.52 1712.56,463.04 1710.3,466.27C1707.95,469.83 1706.64,473.95 1704.65,477.7C1701.29,484.25 1698.02,491.42 1698.71,498.97C1699.15,504.63 1698.59,510.31 1698.78,515.98C1698.83,519.71 1700.47,523.13 1701.13,526.75C1701.22,529.28 1700.09,531.76 1700.54,534.3C1701.56,539.28 1703.98,543.89 1707.19,547.81C1710.89,552.44 1713.4,558.07 1718.12,561.85C1721.09,564.66 1725.34,565.14 1728.83,567.09C1732.63,569.2 1736.02,571.96 1739.62,574.39C1743.09,576.76 1746.96,578.48 1750.63,580.54C1755.05,582.94 1759.87,585.32 1765.06,584.91C1768.44,584.65 1771.85,584.52 1775.23,585.07C1777.99,583.26 1780.54,581.11 1783.43,579.48C1791.91,575.44 1801.34,574.22 1810.16,571.18C1817.37,568.77 1819.26,560.28 1825.14,556.19C1828.38,554.33 1831.99,553.25 1835.39,551.7C1837.13,545.36 1841.27,540.21 1844.87,534.87C1846.46,530.75 1846.81,526.24 1847.86,521.95C1848.58,519.15 1848.19,515.76 1850.45,513.6C1851.48,512.21 1853.34,511.04 1853.04,509.06C1852.92,504.33 1851.53,499.71 1851.78,494.97C1851.9,491.08 1853.09,487.09 1851.64,483.31C1850.01,478.66 1850.4,473.41 1847.82,469.1C1845.67,465.44 1843.46,461.65 1840.05,459.03C1837.6,457.1 1834.98,455.38 1832.94,453.02C1830.58,450.43 1828.59,447.29 1825.29,445.81C1819.63,443.16 1813.72,440.92 1808.58,437.32C1806.2,435.75 1804.1,433.75 1801.51,432.55C1798.8,431.74 1795.95,431.8 1793.19,431.45C1788.82,431.04 1784.39,429.85 1780.04,430.93Z" style="fill:rgb(145,96,221);fill-rule:nonzero;"/>
        <path d="M1734.82,154.84C1736.69,151.85 1738.93,149.07 1741.71,146.86C1741.46,158.13 1740.96,169.38 1741.14,180.65C1739.38,182.26 1738.23,184.35 1737.36,186.54C1735.99,187.1 1734.65,187.65 1733.41,188.39C1732.32,189.96 1732.06,191.91 1731.51,193.69C1731.2,193.66 1730.58,193.6 1730.28,193.56C1727.33,197.17 1724.68,201.03 1721.31,204.25C1718.14,207.31 1713.08,206.7 1709.53,204.67C1710.78,199.39 1708.94,193.85 1704.93,190.25C1707.34,186.46 1710.22,182.97 1713.47,179.85C1719.59,183.13 1727.6,184.1 1733.87,180.72C1736.74,179.45 1736.5,176.06 1736.68,173.45C1734.63,173.1 1732.53,172.64 1730.55,173.47C1727.01,174.72 1723.23,174.95 1719.55,174.37C1722.8,169.98 1726.04,165.53 1728.24,160.49C1730.66,158.9 1732.99,157.12 1734.82,154.84Z" style="fill:rgb(145,96,221);fill-rule:nonzero;"/>
        <path d="M1677.01,219.97C1678.72,218.12 1681.24,217.07 1683.79,217.17C1689.56,217.3 1695.34,216.1 1701.1,216.96C1707.35,217.86 1713.66,217.35 1719.95,217.31C1726.57,217.23 1733.21,217.57 1739.84,217.18C1729.97,218.93 1719.9,216.97 1710,218.21C1706.96,218.49 1705.41,221.44 1703.57,223.46C1709.53,223.4 1715.62,222.78 1721.49,224.29C1714.12,224.37 1706.76,224.28 1699.41,224.42C1698.74,226.54 1698.08,228.66 1697.58,230.82C1693.26,235.13 1687.23,237.73 1684.07,243.13C1682.97,244.96 1681.42,246.44 1679.68,247.63C1674.9,250.82 1671.83,255.86 1667.34,259.39C1661.9,264.67 1655.5,268.83 1650.23,274.3C1645.72,278.91 1639.77,281.7 1634.96,285.95C1627.88,292.13 1618.93,295.57 1611.93,301.84C1605.49,306.13 1599.7,311.55 1592.42,314.41C1587.45,316.35 1583.95,320.59 1579.3,323.05C1576.01,324.82 1572.76,326.66 1569.66,328.75C1565.33,331.64 1560.39,333.4 1555.92,336.04C1552.95,337.81 1549.84,339.33 1546.65,340.63C1541.06,342.74 1536.96,347.54 1531.15,349.17C1517.47,354.97 1503.24,359.6 1490.25,366.9C1485.65,369.03 1480.69,370.2 1475.99,372.05C1476,363.87 1475.95,355.68 1476.02,347.5C1482.16,345.84 1487.96,343.17 1494.03,341.27C1499.21,339.72 1503.51,336.24 1508.64,334.55C1512.63,333.16 1516.32,331.08 1520.04,329.08C1527.97,325.1 1536.32,321.88 1543.81,317.04C1551.69,311.81 1560.61,308.41 1568.54,303.23C1578.77,296.54 1589.77,291.02 1599.45,283.49C1606.02,278.63 1613.92,275.6 1619.64,269.59C1622.59,266.43 1626.18,264.02 1629.83,261.74C1636.54,257.49 1641.28,250.75 1648.39,247.04C1653.74,243.05 1657.64,237.26 1663.71,234.15C1666.4,232.8 1669.3,231.7 1671.6,229.68C1674.12,226.89 1674.73,222.93 1677.01,219.97M1684.14,221.95C1679.35,223.34 1679.45,229.22 1681.18,232.95C1682.31,235.23 1685.36,234.6 1687.45,234.4C1690.06,233.61 1694.05,232.48 1693.7,229.01C1694.82,223.73 1688.73,219.96 1684.14,221.95Z" style="fill:rgb(145,96,221);fill-rule:nonzero;"/>
        <path d="M2735.19,546.31C2744.33,543.95 2753.51,541.42 2762.99,540.88C2763.01,549.76 2762.98,558.64 2763.01,567.52C2757.68,568.58 2752.35,569.52 2746.99,570.25C2740.46,571.08 2734.2,573.5 2727.59,573.56C2721.39,573.53 2716.2,577.49 2710.18,578.28C2704.8,579.06 2699.21,578.88 2694.13,581.01C2688.22,583.45 2681.79,583.95 2675.74,585.83C2669.98,587.58 2663.83,587.63 2658.25,590C2644.97,595.09 2630.61,596.68 2617.62,602.53C2607.42,606.27 2597.02,609.4 2586.68,612.7C2581.08,614.78 2575.02,615.76 2569.88,618.93C2564.92,622 2559.13,623.26 2554.02,625.99C2548.34,628.97 2541.71,629.65 2536.34,633.28C2525.27,640.19 2512.53,643.66 2501.38,650.39C2498.14,652.31 2494.72,653.91 2491.14,655.05C2484.2,657.21 2478.22,661.45 2471.94,664.95C2467.82,667.25 2463.08,668.37 2459.43,671.45C2454.56,675.46 2448.98,678.39 2443.52,681.47C2436.94,685.11 2430.83,689.52 2424.48,693.53C2420.27,696.11 2417.31,700.18 2413.28,702.98C2408.82,706.26 2403.98,709.02 2399.77,712.62C2391.15,722.07 2381.21,730.2 2372.17,739.24C2369.47,742.16 2366.78,745.11 2363.77,747.71C2356.25,754.31 2351.1,763.02 2344.41,770.37C2337.97,777.39 2332.1,784.91 2326.66,792.72C2322.16,797.77 2319.64,804.16 2315.39,809.38C2313.03,812.31 2311.28,815.64 2309.64,819C2299.72,819.01 2289.8,819.01 2279.88,819.01C2284.07,811.58 2287.76,803.73 2293.08,797.04C2300.09,790.07 2303.96,780.79 2310.23,773.25C2313.21,769.59 2316.03,765.79 2319.1,762.2C2324.02,756.7 2327.52,750.08 2332.85,744.92C2341.65,736.02 2349.53,726.24 2358.79,717.79C2363.28,713.92 2365.73,708.05 2371,705.05C2375.34,702.43 2377.81,697.76 2381.9,694.82C2389.85,688.85 2398.53,683.68 2405.43,676.4C2410.05,671.38 2416.67,669.08 2422.04,665.02C2427.53,660.93 2433.48,657.52 2439.83,654.95C2445.56,652.73 2449.17,647.34 2454.66,644.7C2460.81,641.65 2467.04,638.7 2472.86,635.01C2478.49,631.43 2485.38,630.68 2490.98,627.03C2497.67,622.76 2504.91,619.49 2512.02,615.98C2517.9,612.93 2524.09,610.55 2530.39,608.48C2542.46,603.33 2554.34,597.73 2566.37,592.49C2574.29,588.9 2583.1,587.9 2590.93,584.05C2603.06,579.37 2615.83,576.57 2628.04,572.07C2636.37,569.82 2644.5,566.79 2653.01,565.18C2659.48,564.03 2665.39,560.66 2672.04,560.29C2678.56,559.98 2684.19,556.24 2690.62,555.42C2699.29,553.53 2708.22,552.65 2716.63,549.65C2722.61,547.55 2729.1,548 2735.19,546.31Z" style="fill:rgb(145,96,221);fill-rule:nonzero;"/>
        <path d="M2751.34,807.11C2754.82,804.86 2758.97,804.25 2763.01,803.7C2762.99,808.8 2762.99,813.91 2763,819.02C2755.63,818.99 2748.27,819.03 2740.91,818.98C2744.04,814.77 2746.57,809.75 2751.34,807.11Z" style="fill:rgb(145,96,221);fill-rule:nonzero;"/>
        <path d="M1550.41,134.31C1552.41,134.48 1554.9,133.71 1556.43,135.45C1558.83,137.49 1560.61,140.29 1563.51,141.73C1570.9,145.66 1578.44,149.32 1586.12,152.68C1589.98,153.96 1590.56,159.36 1588.33,162.26C1580.86,166.77 1573.4,171.32 1566.02,175.96C1561.77,178.4 1558.39,183.42 1552.92,182.67C1550.51,182.89 1549.08,180.11 1549.54,178.02C1549.67,175.25 1552.13,173.65 1554.06,172.05C1560.21,167.29 1566.83,163.16 1573.71,159.55C1573.6,159.17 1573.37,158.39 1573.26,158C1568.16,155.94 1563.41,153.16 1558.52,150.71C1554.78,148.86 1552.09,145.54 1549.8,142.17C1548.05,139.75 1549.7,136.8 1550.41,134.31Z" style="fill:rgb(251,252,222);fill-rule:nonzero;"/>
        <path d="M1688,189.11C1693.25,186.21 1700.08,186.68 1704.93,190.25C1708.94,193.85 1710.78,199.39 1709.53,204.67C1709.39,205.56 1709.27,206.45 1709.19,207.34C1714.77,206.6 1720.43,206.3 1726.04,206.98C1730.39,207.61 1734.74,206.68 1739.11,206.72C1743.87,207.97 1743.92,215.07 1739.84,217.18C1733.21,217.57 1726.57,217.23 1719.95,217.31C1713.66,217.35 1707.35,217.86 1701.1,216.96C1695.34,216.1 1689.56,217.3 1683.79,217.17C1681.24,217.07 1678.72,218.12 1677.01,219.97C1674.73,222.93 1674.12,226.89 1671.6,229.68C1669.3,231.7 1666.4,232.8 1663.71,234.15C1659.8,234.56 1655.82,234.85 1651.94,234.24C1648.33,233.25 1645.76,230.21 1643.75,227.24C1640.67,222.11 1642.2,215.67 1644.44,210.53C1647.55,203.61 1653.81,196.8 1662.03,197.27C1662.81,198.32 1663.62,199.36 1664.44,200.4C1662.97,207.14 1654.98,208.56 1652.48,214.61C1651.15,217.04 1650.39,220.28 1652.43,222.57C1654.2,225.66 1658.34,224.66 1661.21,224.05C1667.51,222.31 1666.7,213.93 1671.72,210.62C1676.91,207.19 1683.45,207.61 1689.41,207.44C1692.96,207.22 1697.33,206.99 1699.53,203.72C1701.23,201.54 1698.76,199.26 1697.75,197.35C1696.33,197.4 1694.94,197.41 1693.59,197.71C1691.75,199.14 1690.97,201.47 1689.86,203.42C1687.9,203.56 1685.95,203.69 1684.03,203.81C1680.41,198.81 1683.64,192.41 1688,189.11Z" style="fill:rgb(251,252,222);fill-rule:nonzero;"/>
        <path d="M1733.41,188.39C1734.65,187.65 1735.99,187.1 1737.36,186.54C1740.56,189.41 1743.42,192.78 1747.24,194.89C1754.78,198.97 1762.76,202.18 1770.55,205.77C1774.69,207.28 1774.99,214.11 1770.97,215.93C1764.55,219.48 1758.31,223.33 1751.92,226.93C1747.51,229.37 1743.82,232.96 1739.25,235.1C1737.62,235.72 1735.33,236.54 1734.03,234.97C1731.34,232.85 1731.96,228.57 1734.53,226.64C1741.3,221.05 1748.97,216.65 1756.75,212.63C1756.78,212.2 1756.83,211.34 1756.86,210.91C1751.67,208.51 1746.47,206.1 1741.42,203.43C1737.18,201.29 1734.39,197.31 1731.51,193.69C1732.06,191.91 1732.32,189.96 1733.41,188.39Z" style="fill:rgb(251,252,222);fill-rule:nonzero;"/>
        <path d="M1544.47,206.32C1546.62,198.49 1553.7,192.83 1561.21,190.4C1563.02,191.92 1565.63,193.24 1565.52,196.01C1565.6,199.26 1562.74,201.22 1559.93,201.98C1556.24,205.61 1552.63,210.36 1553.25,215.83C1554.33,218.5 1556.4,220.74 1558.88,222.2C1561.64,223.85 1564.96,223.46 1568.06,223.54C1570.69,221.34 1573.24,219 1575.23,216.18C1577.69,213.6 1580,210.69 1583.22,209C1590.56,206.68 1598.34,207.93 1605.9,207.41C1608.95,207.2 1611.54,205.37 1613.83,203.47C1616.52,203.04 1619.15,203.61 1620.95,205.78C1620.71,208.16 1620.48,210.55 1620.29,212.93C1628.04,211.43 1633.85,204.75 1635,197.05C1635.43,196.66 1636.3,195.87 1636.73,195.48C1637.63,195.47 1639.42,195.46 1640.32,195.46C1644.72,199.13 1642.67,205.32 1640.59,209.7C1637.06,215.82 1631.46,221.51 1624.08,222.24C1618.88,223.47 1613.33,221.71 1610.14,217.38C1604.08,217.8 1598.02,217.74 1591.96,217.67C1590.21,217.78 1588.12,217.3 1586.87,218.84C1582.54,222.2 1580.18,227.51 1575.55,230.47C1566,237.29 1551.26,233.32 1545.71,223.16C1541.98,218.29 1543.31,211.84 1544.47,206.32Z" style="fill:rgb(251,252,222);fill-rule:nonzero;"/>
        <path d="M1697.58,230.82C1698.08,228.66 1698.74,226.54 1699.41,224.42C1706.76,224.28 1714.12,224.37 1721.49,224.29C1723.31,227.18 1722.65,230.57 1722.08,233.72C1716.07,234.55 1709.99,234.7 1703.95,234.43C1701.19,234.72 1699.15,232.8 1697.58,230.82Z" style="fill:rgb(251,252,222);fill-rule:nonzero;"/>
        <path d="M1636.51,136.27C1638.3,134.8 1640.52,134.28 1642.81,134.18C1645.5,137.53 1645.91,142.25 1644.39,146.21C1643.16,150.18 1636.58,148.85 1636.07,145.03C1635.8,142.1 1636.33,139.18 1636.51,136.27Z" style="fill:rgb(250,251,220);fill-rule:nonzero;"/>
        <path d="M1593.61,156.98C1593.28,153.73 1596.66,149.98 1599.96,151.93C1602.78,154.88 1601.52,159.35 1601.67,163.02C1600.83,169.7 1601.81,176.49 1600.53,183.13C1599.26,183.64 1598.01,184.17 1596.78,184.7C1595.61,183.69 1593.82,182.94 1593.91,181.1C1592.58,173.11 1593.8,165.02 1593.61,156.98Z" style="fill:rgb(250,251,220);fill-rule:nonzero;"/>
        <path d="M1593.53,136.28C1594.27,135.69 1595.03,135.11 1595.81,134.53C1596.73,134.48 1598.57,134.37 1599.49,134.32C1602.67,136.8 1602.42,141.26 1601.72,144.83C1600.98,147.68 1597.97,148.48 1595.41,148.65C1594.35,147.37 1593.19,146.17 1592.41,144.72C1592.04,141.88 1593.09,139.07 1593.53,136.28Z" style="fill:rgb(250,250,220);fill-rule:nonzero;"/>
        <path d="M1623.77,140.03C1624.84,139.08 1625.9,138.14 1627.01,137.19C1628.52,138.15 1631.12,138.62 1630.88,140.96C1631.74,151.86 1631.3,163.03 1628.54,173.64C1625.83,181.81 1616.04,183.89 1608.44,183.61C1605.63,181.72 1605.88,178.48 1606.61,175.56C1611.24,175.2 1617.44,176.4 1620.14,171.57C1619.65,171.85 1618.66,172.41 1618.17,172.68C1614.82,171.52 1610.92,170.34 1609.32,166.83C1605.35,160.34 1607.18,150.65 1614.11,146.96C1616.84,145.11 1620.24,145.47 1623.38,145.38C1623.47,143.59 1623.62,141.81 1623.77,140.03M1617.89,153.76C1616.26,155.06 1614.88,156.87 1614.54,158.95C1614.5,161.11 1615.99,162.79 1617.14,164.47C1618.93,164.4 1620.73,164.34 1622.56,164.29C1623.55,160.75 1623.84,157.07 1623.79,153.4C1621.8,153.47 1619.8,153.31 1617.89,153.76Z" style="fill:rgb(250,251,221);fill-rule:nonzero;"/>
        <path d="M1658.43,138.35C1660.38,138.66 1663.13,137.66 1664.41,139.67C1665.42,142.87 1664.4,146.26 1664.16,149.5C1666.95,149.71 1670.66,148.99 1672.37,151.85C1672.79,153.73 1671.79,155.56 1671.43,157.39C1668.99,157.5 1666.55,157.6 1664.13,157.69C1663.41,163.26 1663.15,168.94 1664.53,174.45C1666.02,174.01 1667.56,173.72 1669.14,173.59C1671.52,174.6 1671.66,177.72 1670.8,179.82C1669.09,182.44 1665.63,182.4 1662.87,182.67C1660.76,180.91 1658.06,179.37 1657.37,176.5C1655.61,170.4 1656.35,164.01 1656.56,157.77C1654.17,157.74 1651.77,157.67 1649.41,157.6C1648.53,155.28 1648.49,152.85 1649.36,150.52C1651.91,150.22 1654.45,149.86 1657.02,149.53C1657.09,145.77 1657.36,141.98 1658.43,138.35Z" style="fill:rgb(250,251,221);fill-rule:nonzero;"/>
        <path d="M1682.25,143.33C1685.95,138.72 1692.4,137.18 1697.95,138.92C1704.54,141.73 1706.98,151.05 1702.89,156.84C1700.73,158.92 1697.99,160.38 1695.13,161.21C1691.31,161.85 1687.55,160.57 1683.81,160.09C1684,164.61 1683.77,170.07 1687.55,173.29C1691.75,175.53 1696.99,175.08 1701.17,172.97C1704.08,171.2 1707.31,175.22 1705.93,177.98C1704.81,180.29 1702.22,181.51 1699.9,182.27C1693.83,183.23 1687.01,182.94 1682.01,178.96C1678.89,176.2 1677.55,172.02 1677.01,168.02C1675.73,159.54 1677.25,150.41 1682.25,143.33M1690.52,146.68C1688.2,147.67 1687.21,150.19 1685.97,152.17C1689.22,152.69 1693.26,154.75 1696.15,152.18C1698.4,150.7 1696.37,148.17 1695.84,146.31C1694.05,146.4 1692.25,146.34 1690.52,146.68Z" style="fill:rgb(250,251,221);fill-rule:nonzero;"/>
        <path d="M1712.22,144.05C1716.43,137.75 1726.85,135.91 1732.23,141.66C1735.62,145.15 1735.61,150.35 1734.82,154.84C1732.99,157.12 1730.66,158.9 1728.24,160.49C1723.63,162.07 1718.8,160.84 1714.17,160.13C1714.34,165.26 1714.59,171.41 1719.55,174.37C1723.23,174.95 1727.01,174.72 1730.55,173.47C1732.53,172.64 1734.63,173.1 1736.68,173.45C1736.5,176.06 1736.74,179.45 1733.87,180.72C1727.6,184.1 1719.59,183.13 1713.47,179.85C1710.85,177.49 1708.7,174.5 1708.03,171C1705.96,161.96 1707.06,151.89 1712.22,144.05M1720.58,146.72C1718.42,147.84 1717.52,150.19 1716.68,152.31C1720.28,153.47 1724.07,153.69 1727.64,152.25C1727.54,150.23 1727.12,148.25 1726.51,146.33C1724.52,146.42 1722.51,146.31 1720.58,146.72Z" style="fill:rgb(250,251,221);fill-rule:nonzero;"/>
        <path d="M1743.67,138.59C1745.63,138.76 1747.97,138.19 1749.62,139.67C1749.92,142.71 1749.51,145.76 1749.16,148.77C1752.59,145.93 1756.36,142.97 1761,142.63C1763.96,142.22 1766.61,143.95 1768.86,145.68C1773.14,153.07 1772.03,161.87 1772.14,170.04C1771.95,173.64 1772.42,177.48 1770.95,180.87C1769.83,183.27 1766.77,182.96 1764.73,182.18C1763.81,179.21 1764.31,176.07 1764.45,173.04C1764.81,166.45 1765.08,159.79 1763.99,153.26C1762.16,151.63 1759.35,150.32 1757.16,152.05C1752.46,155.95 1751.12,162.28 1750.31,168.03C1749.31,172.31 1749.45,176.83 1748.01,180.99C1746.27,183.79 1743.18,181.93 1741.14,180.65C1740.96,169.38 1741.46,158.13 1741.71,146.86C1742.07,144.04 1742.81,141.3 1743.67,138.59Z" style="fill:rgb(250,251,221);fill-rule:nonzero;"/>
        <path d="M1637.37,165.93C1637.85,160.96 1636.13,155.44 1639.65,151.22C1641.1,151.7 1642.57,152.2 1644.05,152.69C1645.82,162.57 1645.32,172.8 1643.65,182.66C1641.31,183.28 1637.3,184.62 1636.84,181.07C1636.76,176.02 1637.2,170.98 1637.37,165.93Z" style="fill:rgb(250,251,221);fill-rule:nonzero;"/>
        <path d="M1690.52,146.68C1692.25,146.34 1694.05,146.4 1695.84,146.31C1696.37,148.17 1698.4,150.7 1696.15,152.18C1693.26,154.75 1689.22,152.69 1685.97,152.17C1687.21,150.19 1688.2,147.67 1690.52,146.68Z" style="fill:rgb(131,84,205);fill-rule:nonzero;"/>
        <path d="M1720.58,146.72C1722.51,146.31 1724.52,146.42 1726.51,146.33C1727.12,148.25 1727.54,150.23 1727.64,152.25C1724.07,153.69 1720.28,153.47 1716.68,152.31C1717.52,150.19 1718.42,147.84 1720.58,146.72Z" style="fill:rgb(130,84,206);fill-rule:nonzero;"/>
        <path d="M1757.16,152.05C1759.35,150.32 1762.16,151.63 1763.99,153.26C1761.9,154.66 1759.83,156.08 1757.81,157.55C1757.16,162.19 1753.51,165.08 1750.31,168.03C1751.12,162.28 1752.46,155.95 1757.16,152.05Z" style="fill:rgb(146,96,222);fill-rule:nonzero;"/>
        <path d="M1546.49,162.63C1545.25,158.94 1546.52,154.89 1549.52,152.45C1551.46,152.47 1553.41,152.48 1555.38,152.46C1557.42,154.49 1560.44,156.68 1559.47,159.99C1559.58,163.21 1556.46,164.63 1553.9,165.5C1551.08,166.45 1548.23,164.75 1546.49,162.63Z" style="fill:rgb(251,251,222);fill-rule:nonzero;"/>
        <path d="M1588.77,224.66C1593.49,224.1 1598.29,224.63 1603.05,224.52C1605.47,224.25 1607.09,226.26 1608.76,227.66C1608.29,229.83 1607.87,232 1607.46,234.17C1605.31,234.94 1603.07,235.87 1600.81,235C1598.84,235.42 1596.83,235.67 1594.93,234.92C1592.93,234.68 1590.95,234.51 1588.97,234.35C1588.06,233.63 1587.17,232.91 1586.3,232.2C1586.22,229.49 1586.46,226.48 1588.77,224.66Z" style="fill:rgb(251,251,222);fill-rule:nonzero;"/>
        <path d="M1617.89,153.76C1619.8,153.31 1621.8,153.47 1623.79,153.4C1623.84,157.07 1623.55,160.75 1622.56,164.29C1620.73,164.34 1618.93,164.4 1617.14,164.47C1615.99,162.79 1614.5,161.11 1614.54,158.95C1614.88,156.87 1616.26,155.06 1617.89,153.76Z" style="fill:rgb(130,83,205);fill-rule:nonzero;"/>
        <path d="M1714.17,160.13C1718.8,160.84 1723.63,162.07 1728.24,160.49C1726.04,165.53 1722.8,169.98 1719.55,174.37C1714.59,171.41 1714.34,165.26 1714.17,160.13Z" style="fill:rgb(130,84,205);fill-rule:nonzero;"/>
        <path d="M1613.3,186.76C1615.47,186.07 1617.71,185.04 1620.07,185.6C1621.72,186.81 1622.93,188.51 1624.24,190.09C1624.37,189.27 1624.64,187.63 1624.77,186.81C1627.29,186.27 1630.24,184.52 1632.57,186.57C1635.17,188.52 1634.04,192.26 1632.43,194.49C1631.01,196.75 1628,196.33 1625.75,196.75C1624.89,195.16 1624.03,193.58 1623.22,191.98C1622.69,193.5 1622.62,195.4 1621.09,196.31C1619.14,198.07 1616.44,197 1614.21,196.59C1612.17,193.6 1612.35,190.1 1613.3,186.76Z" style="fill:rgb(251,251,220);fill-rule:nonzero;"/>
        <path d="M2184.65,190.66C2188.12,189.46 2192.62,188.21 2195.33,191.65C2198.93,197.45 2197.06,204.58 2197.98,210.99C2199.55,221.59 2198.66,232.35 2197.72,242.97C2197.56,246.01 2198.42,248.99 2198.31,252.03C2198.19,256.35 2197.11,260.62 2197.37,264.96C2197.95,273.55 2196.72,282.12 2196.53,290.71C2195.74,296.12 2197,301.58 2196.13,306.99C2195.47,311.98 2196.07,317.01 2195.91,322.02C2195.2,332.32 2194.62,342.65 2194.89,352.98C2194.88,357.66 2193.12,362.25 2194.01,366.95C2194.65,370.97 2193.76,374.97 2193.52,378.98C2193.69,387.36 2193.36,395.74 2193.22,404.11C2191.82,412.71 2193.26,421.41 2192.37,430.05C2192.37,440.34 2191.6,450.61 2191.31,460.89C2190.1,462.73 2188.91,464.62 2189.36,466.93C2187.66,473.24 2188.83,480.18 2185.38,486C2185.34,490.55 2182.09,494.14 2181.25,498.52C2176.3,505.67 2171.65,513.22 2165.01,518.95C2159.11,524.08 2153.45,529.59 2146.52,533.33C2139.21,538.12 2131.26,541.86 2123.1,544.93C2113.87,547.27 2104.53,549.76 2094.95,549.87C2086.63,550.43 2077.57,551.85 2070.04,547.34C2070,544.89 2070.96,542.94 2073.57,542.5C2081.87,534.62 2088.3,524.96 2093.73,514.98C2093.44,511.52 2092.6,508.14 2092.28,504.69C2089.85,504.12 2087.4,502.96 2084.91,503.61C2082.96,504.23 2081.52,505.75 2080.4,507.37C2077.31,511.67 2074.8,516.39 2071.33,520.41C2063.96,528.2 2055.99,535.58 2046.47,540.66C2044.96,541.13 2043.51,540.03 2042.18,539.59C2032.8,535.08 2022.11,536.25 2012.14,534.33C2006.88,533.27 2001.45,532.16 1996.99,529.03C1992.32,525.79 1987.06,522.9 1984.06,517.89C1982.08,515.05 1981.03,511.72 1980.08,508.43C1976.59,499.66 1978.02,489.74 1981.29,481.13C1982.64,477.19 1985.46,474.06 1987.95,470.82C1990.56,467.5 1992.91,463.96 1995.73,460.79C1999.84,458.34 2002.46,454.01 2006.92,451.95C2006.45,449.58 2005.95,447.22 2005.28,444.91C2005.8,442.64 2006.35,440.38 2007.1,438.17C2007.95,429.1 2007.88,419.6 2012.27,411.35C2013.78,408.86 2016.23,406.94 2017.08,404.05C2018.19,400.26 2020.77,397.25 2023.33,394.34C2026.18,391.15 2028.02,387.15 2031.18,384.22C2035.16,380.84 2038.65,376.86 2043.15,374.1C2049.35,368.87 2055.31,363.2 2062.55,359.36C2071.09,354.48 2077.7,346.91 2082.51,338.42C2086.09,333.84 2089.58,329.1 2091.89,323.73C2093.81,319.2 2096.82,315.23 2098.58,310.62C2100.43,305.65 2103.31,301.14 2105.08,296.13C2105.39,294.58 2105.77,293.04 2106.43,291.59C2108.54,287.09 2109.26,282.07 2111.64,277.68C2112.55,275.98 2113.53,274.31 2114.54,272.65C2114.21,271.74 2113.91,270.83 2113.65,269.92C2116.16,266.08 2118.84,261.24 2123.96,260.78C2127.21,260.98 2128.56,264.4 2130.47,266.54C2131.61,273.72 2131.69,281.02 2132.73,288.22C2133.34,292.18 2133.32,296.19 2133.41,300.19C2133.92,298.91 2134.44,297.63 2135.02,296.36C2140.11,291.47 2144.68,285.66 2146.94,278.87C2148.5,274.24 2151.47,270.23 2152.9,265.53C2156.46,258.14 2162.99,251.7 2163.02,243.04C2166.87,235.84 2169.07,227.86 2170.85,219.93C2171.96,214.19 2176.46,209.81 2177.2,203.95C2177.35,201.38 2179.1,199.53 2180.95,197.94C2182,195.43 2183.23,193 2184.65,190.66M2084.78,413.79C2080.58,418.94 2077.11,425.05 2076.68,431.83C2076.23,437.99 2075.1,444.86 2078.61,450.39C2082.18,457.85 2086.28,466.46 2094.63,469.47C2099.99,470.58 2105.66,469.07 2110.47,466.64C2116,463.9 2119.33,457.97 2119.7,451.91C2118.42,451.17 2117.18,450.42 2115.95,449.68C2110.36,452.14 2103.09,451.97 2098.7,447.28C2095.66,443.28 2097.01,437.95 2097.18,433.34C2099.87,429.98 2103.51,426.57 2108.09,426.57C2110.53,428 2112.66,429.93 2114.93,431.65C2116.71,428.05 2119.67,424.2 2118.35,419.97C2115.55,415.68 2112.49,410.66 2107.08,409.54C2099.56,407.77 2090.54,407.94 2084.78,413.79Z" style="fill:rgb(252,253,222);fill-rule:nonzero;"/>
        <path d="M1561.87,215.1C1558.02,211.8 1562.27,204.52 1566.98,205.35C1568.99,205.36 1570.51,207.08 1571.33,208.77C1571.16,211 1570.65,213.17 1570.22,215.36C1567.55,216.02 1563.96,217.84 1561.87,215.1Z" style="fill:rgb(251,251,221);fill-rule:nonzero;"/>
        <path d="M1697.75,197.35C1698.76,199.26 1701.23,201.54 1699.53,203.72C1697.33,206.99 1692.96,207.22 1689.41,207.44C1692.18,204.08 1694.99,200.74 1697.75,197.35Z" style="fill:rgb(146,96,219);fill-rule:nonzero;"/>
        <path d="M1684.14,221.95C1688.73,219.96 1694.82,223.73 1693.7,229.01C1694.05,232.48 1690.06,233.61 1687.45,234.4C1685.36,234.6 1682.31,235.23 1681.18,232.95C1679.45,229.22 1679.35,223.34 1684.14,221.95Z" style="fill:rgb(250,251,222);fill-rule:nonzero;"/>
        <path d="M2084.78,413.79C2090.54,407.94 2099.56,407.77 2107.08,409.54C2112.49,410.66 2115.55,415.68 2118.35,419.97C2119.67,424.2 2116.71,428.05 2114.93,431.65C2112.66,429.93 2110.53,428 2108.09,426.57C2103.51,426.57 2099.87,429.98 2097.18,433.34C2097.01,437.95 2095.66,443.28 2098.7,447.28C2103.09,451.97 2110.36,452.14 2115.95,449.68C2117.18,450.42 2118.42,451.17 2119.7,451.91C2119.33,457.97 2116,463.9 2110.47,466.64C2105.66,469.07 2099.99,470.58 2094.63,469.47C2086.28,466.46 2082.18,457.85 2078.61,450.39C2075.1,444.86 2076.23,437.99 2076.68,431.83C2077.11,425.05 2080.58,418.94 2084.78,413.79Z" style="fill:rgb(131,86,203);fill-rule:nonzero;"/>
    </g>
</svg>
