<?xml version="1.0" encoding="UTF-8" standalone="no"?>
<!DOCTYPE svg PUBLIC "-//W3C//DTD SVG 1.1//EN" "http://www.w3.org/Graphics/SVG/1.1/DTD/svg11.dtd">
<svg width="100%" height="100%" viewBox="0 0 18 18" version="1.1" xmlns="http://www.w3.org/2000/svg" xmlns:xlink="http://www.w3.org/1999/xlink" xml:space="preserve" xmlns:serif="http://www.serif.com/" style="fill-rule:evenodd;clip-rule:evenodd;stroke-linecap:round;stroke-linejoin:round;">
    <g transform="matrix(1,0,0,1,-476.916407,-258.541601)">
        <g transform="matrix(0.818064,0,0,0.795666,34.199997,-130.684869)">
            <path d="M551.97,510C557.493,510 561.97,505.523 561.97,500C561.97,494.477 557.493,490 551.97,490C546.447,490 541.97,494.477 541.97,500C541.97,505.523 546.447,510 551.97,510Z" style="fill:none;fill-rule:nonzero;stroke:rgb(81,82,108);stroke-width:1.61px;"/>
        </g>
        <g transform="matrix(0.735125,-0.445457,0.437663,0.684576,-138.629026,171.080949)">
            <path d="M552,506.5C553.98,506.5 555.73,505.51 556.79,504" style="fill:none;fill-rule:nonzero;stroke:rgb(81,82,108);stroke-width:1.5px;"/>
        </g>
        <g transform="matrix(0.04473,-0.856501,-0.812081,-0.059491,866.548702,769.5321)">
            <path d="M552,506.5C553.98,506.5 555.73,505.51 556.79,504" style="fill:none;fill-rule:nonzero;stroke:rgb(81,82,108);stroke-width:1.5px;"/>
        </g>
        <g transform="matrix(1.124996,0,0,1.094194,-71.49567,-25.855671)">
            <path d="M494.264,271.073C494.25,271.099 494.22,271.108 494.195,271.095C493.656,270.851 493.642,270.822 492.934,270.64C492.231,270.459 491.715,269.101 492.656,268.494C493.687,267.828 492.686,267.074 494.409,266.033C495.13,265.597 495.09,265.183 495.512,263.989C495.531,263.93 495.585,263.892 495.645,263.896C495.705,263.9 495.755,263.945 495.766,264.006C495.932,264.743 496.226,265.79 496.226,265.79C496.532,265.388 496.943,264.14 497.401,262.636C497.417,262.58 497.467,262.541 497.524,262.542C497.581,262.542 497.631,262.58 497.647,262.637C497.684,262.91 497.687,263.238 497.71,263.502C497.772,264.228 497.731,264.988 497.703,265.527C497.583,267.825 497.654,268.272 497.124,269.784C496.69,271.024 495.184,271.394 494.241,271.115C495.582,268.339 494.567,270.516 494.264,271.073Z" style="fill:none;stroke:rgb(81,82,108);stroke-width:0.9px;stroke-miterlimit:1.5;"/>
        </g>
        <g transform="matrix(1,0,0,1,-0.278472,-0.562932)">
            <path d="M486.084,267.755C486.084,267.755 485.779,267.648 485.592,268.084C485.439,268.442 485.823,268.522 485.823,268.522" style="fill:none;stroke:rgb(81,82,108);stroke-width:1px;stroke-miterlimit:1.5;"/>
        </g>
    </g>
</svg>
