<?xml version="1.0" encoding="UTF-8" standalone="no"?>
<!DOCTYPE svg PUBLIC "-//W3C//DTD SVG 1.1//EN" "http://www.w3.org/Graphics/SVG/1.1/DTD/svg11.dtd">
<svg width="100%" height="100%" viewBox="0 0 15 18" version="1.1" xmlns="http://www.w3.org/2000/svg" xmlns:xlink="http://www.w3.org/1999/xlink" xml:space="preserve" xmlns:serif="http://www.serif.com/" style="fill-rule:evenodd;clip-rule:evenodd;stroke-linecap:round;stroke-linejoin:round;">
    <g transform="matrix(1,0,0,1,-426.843987,-258.407711)">
        <g transform="matrix(0.672664,0,0,0.740591,278.23854,38.390674)">
            <path d="M226,306L226,304C226,300.69 227,298 232,298C237,298 238,300.69 238,304L238,306" style="fill:none;fill-rule:nonzero;stroke:rgb(81,82,108);stroke-width:1.92px;"/>
        </g>
        <g transform="matrix(0.792397,0,0,1.051537,90.611331,-15.182118)">
            <path d="M442.755,269.61L442.755,272.723C442.755,274.815 440.501,276.513 437.725,276.513L429.353,276.513C426.577,276.513 424.324,274.815 424.324,272.723L424.324,269.61C424.324,267.519 426.577,265.82 429.353,265.82L437.725,265.82C440.501,265.82 442.755,267.519 442.755,269.61ZM441.114,269.61C441.114,268.201 439.596,267.056 437.725,267.056L429.353,267.056C427.483,267.056 425.964,268.201 425.964,269.61L425.964,272.723C425.964,274.132 427.483,275.277 429.353,275.277L437.725,275.277C439.596,275.277 441.114,274.132 441.114,272.723L441.114,269.61Z" style="fill:rgb(81,82,108);"/>
        </g>
        <g transform="matrix(-2.250221,0,0,2.298805,1552.957294,-1220.649691)">
            <path d="M497.4,647.978C496.677,648.032 496.711,648.84 497.376,648.878" style="fill:none;stroke:rgb(81,82,108);stroke-width:0.57px;stroke-miterlimit:1.5;"/>
        </g>
    </g>
</svg>
