<?xml version="1.0" encoding="UTF-8" standalone="no"?>
<!DOCTYPE svg PUBLIC "-//W3C//DTD SVG 1.1//EN" "http://www.w3.org/Graphics/SVG/1.1/DTD/svg11.dtd">
<svg width="100%" height="100%" viewBox="0 0 19 17" version="1.1" xmlns="http://www.w3.org/2000/svg" xmlns:xlink="http://www.w3.org/1999/xlink" xml:space="preserve" xmlns:serif="http://www.serif.com/" style="fill-rule:evenodd;clip-rule:evenodd;stroke-linecap:round;stroke-linejoin:round;stroke-miterlimit:10;">
    <g transform="matrix(1,0,0,1,-336.692152,-259.162415)">
        <g transform="matrix(0.784607,0,0,0.784607,-37.733292,77.815896)">
            <path d="M479.029,241.173L479.06,237.656L485.031,231.881L485.029,236.732L492.14,231.881C492.34,231.801 491.8,237.108 492,237.188L498,231.881L498,250.907" style="fill:none;fill-rule:nonzero;stroke:rgb(81,82,108);stroke-width:1.5px;"/>
        </g>
        <g transform="matrix(0.784607,0,0,0.784607,-37.761693,78.170554)">
            <path d="M479.06,250L479.029,243" style="fill:none;fill-rule:nonzero;stroke:rgb(81,82,108);stroke-width:1.5px;"/>
        </g>
        <g transform="matrix(0.784607,0,0,0.784607,-36.977086,75.787039)">
            <path d="M477,254L499,254" style="fill:none;fill-rule:nonzero;stroke:rgb(81,82,108);stroke-width:1.5px;"/>
        </g>
        <g transform="matrix(1,0,0,1,2.839975,-0.213761)">
            <path d="M348.093,270.229L348.093,271.039C348.093,271.702 347.556,272.239 346.893,272.239L338.44,272.239C337.778,272.239 337.24,271.702 337.24,271.039L337.24,270.229C337.24,269.566 337.778,269.029 338.44,269.029L346.893,269.029C347.556,269.029 348.093,269.566 348.093,270.229ZM346.893,270.229L338.44,270.229L338.44,271.039L346.893,271.039L346.893,270.229Z" style="fill:rgb(81,82,108);"/>
        </g>
        <g transform="matrix(1.154631,0,0,0.828198,-49.820225,46.951965)">
            <path d="M345.254,271.79L345.254,274.536C345.254,275.336 344.789,275.985 344.215,275.985L340.554,275.985C339.98,275.985 339.514,275.336 339.514,274.536L339.514,271.79C339.514,270.99 339.98,270.341 340.554,270.341L344.215,270.341C344.789,270.341 345.254,270.99 345.254,271.79ZM344.215,271.79L340.554,271.79L340.554,274.536L344.215,274.536L344.215,271.79Z" style="fill:rgb(81,82,108);"/>
        </g>
        <g transform="matrix(1,0,0,1,3.31712,-0.148094)">
            <path d="M340.554,268.088L340.541,266.292" style="fill:none;stroke:rgb(81,82,108);stroke-width:1.2px;stroke-miterlimit:1.5;"/>
        </g>
        <g transform="matrix(1,0,0,1,3.31712,-0.148094)">
            <path d="M340.554,265.882L342.069,267.162" style="fill:none;stroke:rgb(81,82,108);stroke-width:1.2px;stroke-miterlimit:1.5;"/>
        </g>
        <g transform="matrix(1,0,0,1,3.31712,-0.148094)">
            <path d="M342.29,267.162L343.838,265.882" style="fill:none;stroke:rgb(81,82,108);stroke-width:1.2px;stroke-miterlimit:1.5;"/>
        </g>
        <g transform="matrix(1,0,0,1,3.31712,-0.148094)">
            <path d="M343.838,265.882L343.838,268.088" style="fill:none;stroke:rgb(81,82,108);stroke-width:1.2px;stroke-miterlimit:1.5;"/>
        </g>
    </g>
</svg>
