<?xml version="1.0" encoding="UTF-8" standalone="no"?>
<!DOCTYPE svg PUBLIC "-//W3C//DTD SVG 1.1//EN" "http://www.w3.org/Graphics/SVG/1.1/DTD/svg11.dtd">
<svg width="100%" height="100%" viewBox="0 0 24 20" version="1.1" xmlns="http://www.w3.org/2000/svg" xmlns:xlink="http://www.w3.org/1999/xlink" xml:space="preserve" xmlns:serif="http://www.serif.com/" style="fill-rule:evenodd;clip-rule:evenodd;">
    <g transform="matrix(1,0,0,1,-460.513127,-237.501137)">
        <g transform="matrix(0.915757,0,0,1.068664,35.258817,43.675416)">
            <path d="M480.942,186.471L480.964,183.404C480.717,183.404 476.193,183.349 475.754,183.415M477.824,197.746L470.721,197.746C468.513,197.746 466.721,195.954 466.721,193.746L466.721,190.471C466.721,188.263 468.513,186.471 470.721,186.471L480.942,186.471" style="fill:none;stroke:rgb(81,82,108);stroke-width:1.05px;"/>
        </g>
        <g transform="matrix(0.915757,0,0,1.068664,35.258817,43.675416)">
            <path d="M480.942,186.471L480.964,183.404C480.717,183.404 476.193,183.349 475.754,183.415M480.571,197.746L470.721,197.746C468.513,197.746 466.721,195.954 466.721,193.746L466.721,190.471C466.721,188.263 468.513,186.471 470.721,186.471L480.942,186.471" style="fill:none;stroke:rgb(81,82,108);stroke-width:1px;"/>
        </g>
        <g transform="matrix(1.068664,0,0,1.068664,-32.666593,43.675416)">
            <path d="M471.112,197.746L471.112,190.471C471.112,188.263 472.813,186.471 475.021,186.471C476.142,186.391 476.382,186.771 477.609,187.58" style="fill:none;stroke:rgb(81,82,108);stroke-width:1.05px;"/>
        </g>
        <g transform="matrix(0.824163,0,-0.329013,0.963521,147.591666,64.467096)">
            <path d="M475.021,186.471C475.021,186.471 477.521,186.471 477.521,186.471C479.729,186.471 481.521,188.263 481.521,190.471L481.521,193.746C481.521,195.954 479.729,197.746 477.521,197.746L471.1,197.746C471.1,197.746 471.112,194.974 471.112,193.746L471.112,190.471C471.112,188.263 472.813,186.471 475.021,186.471Z" style="fill:none;stroke:rgb(81,82,108);stroke-width:1.38px;"/>
        </g>
        <g transform="matrix(-0.956049,-0,0,-1.350875,939.898717,359.268709)">
            <path d="M490.367,78.388L490.692,80.636L491,82.1C491,82.1 490.732,82.395 490.588,82.553C490.531,82.616 490.507,82.691 490.519,82.765C490.68,83.751 489.949,84.414 489.111,85.038L487.314,85.714C485.609,86.097 484.213,85.974 484.233,85.638C484.266,85.101 486.732,83.927 488.413,82.703L490.367,78.388Z" style="fill:rgb(81,82,108);fill-rule:nonzero;"/>
        </g>
        <path d="M476.578,246.667L479.789,246.667" style="fill:none;stroke:rgb(81,82,108);stroke-width:1.5px;stroke-linecap:round;stroke-linejoin:round;stroke-miterlimit:1.5;"/>
        <g transform="matrix(1.068664,0,0,1.068664,-31.618836,34.557489)">
            <path d="M474.174,192.369L468.974,192.334" style="fill:none;stroke:rgb(81,82,108);stroke-width:1.87px;stroke-linecap:round;stroke-linejoin:round;stroke-miterlimit:1.5;"/>
        </g>
        <g transform="matrix(0.375951,0,0,0.375951,297.745769,169.454374)">
            <path d="M474.659,192.536L469.364,192.515" style="fill:none;stroke:rgb(81,82,108);stroke-width:5.32px;stroke-linejoin:round;stroke-miterlimit:1.5;"/>
        </g>
    </g>
</svg>
