<?xml version="1.0" encoding="UTF-8" standalone="no"?>
<!DOCTYPE svg PUBLIC "-//W3C//DTD SVG 1.1//EN" "http://www.w3.org/Graphics/SVG/1.1/DTD/svg11.dtd">
<svg width="100%" height="100%" viewBox="0 0 15 19" version="1.1" xmlns="http://www.w3.org/2000/svg" xmlns:xlink="http://www.w3.org/1999/xlink" xml:space="preserve" xmlns:serif="http://www.serif.com/" style="fill-rule:evenodd;clip-rule:evenodd;stroke-linecap:round;stroke-linejoin:round;stroke-miterlimit:1.5;">
    <g transform="matrix(1,0,0,1,-513.357073,-237.481559)">
        <g transform="matrix(0.144238,0,0,0.144238,396.538118,217.714237)">
            <path d="M873.993,191.622C881.012,192.924 883.765,194.731 888.881,198.281C897.781,204.457 903.228,213.575 903.228,224.039C903.228,243.421 883.174,259.157 858.474,259.157C833.773,259.157 813.719,243.421 813.719,224.039C813.719,208.574 824.53,197.13 842.588,192.698M872.669,195.949C872.711,195.545 872.855,192.772 873.258,190.267C873.945,185.988 875.836,184.538 877.099,183.472C879.794,181.198 885.282,179.181 886.036,178.904C852.341,169.758 856.497,144.566 857.23,140.86M843.874,196.479C843.767,195.45 841.087,188.186 838.481,185.223C836.152,182.575 830.001,179.181 829.248,178.904C862.942,169.758 857.962,144.566 857.23,140.86" style="fill:none;stroke:rgb(81,82,108);stroke-width:7.63px;"/>
        </g>
        <g transform="matrix(0.144238,0,0,0.144238,396.538118,217.714237)">
            <g transform="matrix(1.010725,0,0,1.010725,-11.76216,-3.413405)">
                <path d="M841.644,230.973L841.687,230.935C844.089,228.77 858.216,216.082 879.674,217.089C884.454,217.313 887.734,218.969 889.766,220.932L891.657,223.338L892.82,226.217L893.137,229.196L892.743,231.977C891.963,235.003 889.757,238.672 885.524,242.096C880.878,245.853 873.407,249.669 862.884,252.098C848.208,255.485 842.41,251.01 840.939,250.043L838.86,248.328L837.161,245.991L836.186,243.224L836.044,240.524C836.382,236.395 841.644,230.973 841.644,230.973ZM846.521,236.299C846.229,236.591 840.468,241.098 844.9,244.006C845.996,244.726 850.345,247.581 861.26,245.062C886.662,239.198 891.977,224.894 879.336,224.302C860.793,223.432 848.597,234.428 846.521,236.299Z" style="fill:rgb(81,82,108);"/>
            </g>
        </g>
        <g transform="matrix(0.144238,0,0,0.144238,396.538118,217.714237)">
            <path d="M845.964,207.759C846.347,208.206 848.715,212.662 857.093,213.491C864.267,214.2 867.7,209.838 869.415,207.126" style="fill:none;stroke:rgb(81,82,108);stroke-width:6.57px;"/>
        </g>
    </g>
</svg>
