<?xml version="1.0" encoding="UTF-8" standalone="no"?>
<!DOCTYPE svg PUBLIC "-//W3C//DTD SVG 1.1//EN" "http://www.w3.org/Graphics/SVG/1.1/DTD/svg11.dtd">
<svg width="100%" height="100%" viewBox="0 0 19 22" version="1.1" xmlns="http://www.w3.org/2000/svg" xmlns:xlink="http://www.w3.org/1999/xlink" xml:space="preserve" xmlns:serif="http://www.serif.com/" style="fill-rule:evenodd;clip-rule:evenodd;">
    <g transform="matrix(1,0,0,1,-479.779806,-236.77332)">
        <g transform="matrix(1.117979,0.308648,-0.30354,1.099478,16.975468,-177.301439)">
            <path d="M493,247.681C493,249.337 492.378,250.515 490.812,251.052C488.275,251.921 485.98,249.697 487,247.681C487.093,247.497 493,247.474 493,247.681Z" style="fill:none;stroke:rgb(81,82,108);stroke-width:1.2px;"/>
        </g>
        <g transform="matrix(1.117979,0.308648,-0.308648,1.117979,18.239787,-181.881037)">
            <path d="M493.446,247.526L486.263,247.526L489.888,241.794L493.446,247.526Z" style="fill:none;stroke:rgb(81,82,108);stroke-width:1.2px;"/>
        </g>
        <g transform="matrix(1,0,0,1,-1.025536,0.480604)">
            <path d="M496.621,253.048C497.033,254.073 496.106,255 495.001,255L484.999,255C483.894,255 482.967,254.073 483.379,253.048C484.324,250.693 490,250.681 490,250.681C490,250.681 495.676,250.693 496.621,253.048Z" style="fill:none;fill-rule:nonzero;stroke:rgb(81,82,108);stroke-width:1.2px;"/>
        </g>
    </g>
</svg>
