<?xml version="1.0" encoding="UTF-8" standalone="no"?>
<!DOCTYPE svg PUBLIC "-//W3C//DTD SVG 1.1//EN" "http://www.w3.org/Graphics/SVG/1.1/DTD/svg11.dtd">
<svg width="100%" height="100%" viewBox="0 0 15 19" version="1.1" xmlns="http://www.w3.org/2000/svg" xmlns:xlink="http://www.w3.org/1999/xlink" xml:space="preserve" xmlns:serif="http://www.serif.com/" style="fill-rule:evenodd;clip-rule:evenodd;stroke-linecap:round;stroke-linejoin:round;stroke-miterlimit:1.5;">
    <g transform="matrix(1,0,0,1,-497.656354,-237.563689)">
        <g transform="matrix(0.145785,0,0,0.145785,380.157833,217.554822)">
            <path d="M870.488,190.85C877.507,192.152 883.765,194.731 888.881,198.281C897.781,204.457 903.228,213.575 903.228,224.039C903.228,243.421 883.174,259.157 858.474,259.157C833.773,259.157 813.719,243.421 813.719,224.039C813.719,208.574 827.352,196.048 845.411,191.616M867.618,194.915C867.66,194.511 868.895,192.825 870.488,190.85C872.79,187.996 875.836,184.538 877.099,183.472C879.794,181.198 885.282,179.181 886.036,178.904C852.341,169.758 857.23,140.86 857.23,140.86M847.384,194.551C847.277,193.522 840.175,185.151 838.184,183.472C835.489,181.198 830.001,179.181 829.248,178.904C862.942,169.758 857.23,140.86 857.23,140.86" style="fill:none;stroke:rgb(81,82,108);stroke-width:7.22px;"/>
        </g>
        <g transform="matrix(0.145785,0,0,0.145785,379.584262,217.531776)">
            <path d="M841.644,230.973L841.687,230.935C844.089,228.77 858.216,216.082 879.674,217.089C884.454,217.313 887.734,218.969 889.766,220.932L891.657,223.338L892.82,226.217L893.137,229.196L892.743,231.977C891.963,235.003 889.757,238.672 885.524,242.096C880.878,245.853 873.407,249.669 862.884,252.098C848.208,255.485 842.41,251.01 840.939,250.043L838.86,248.328L837.161,245.991L836.186,243.224L836.044,240.524C836.382,236.395 841.644,230.973 841.644,230.973ZM846.521,236.299C846.229,236.591 840.468,241.098 844.9,244.006C845.996,244.726 850.345,247.581 861.26,245.062C886.662,239.198 891.977,224.894 879.336,224.302C860.793,223.432 848.597,234.428 846.521,236.299Z" style="fill:rgb(81,82,108);"/>
        </g>
        <g transform="matrix(0.144238,0,0,0.125386,381.428127,220.970024)">
            <g transform="matrix(1.05036,0,0,1.05036,-56.1697,-350.098)">
                <path d="M861.208,507.276C863.334,510.061 870.656,521.637 870.656,521.637C873.31,517.668 878.855,507.024 878.855,507.024" style="fill:none;fill-rule:nonzero;stroke:rgb(81,82,108);stroke-width:6.15px;"/>
            </g>
        </g>
        <g transform="matrix(0.144238,0,0,0.144238,381.419367,217.726362)">
            <g transform="matrix(1.05036,0,0,1.05036,-56.1697,-350.098)">
                <path d="M824.611,505.784C824.233,474.606 873.748,472.59 870.604,516.522" style="fill:none;stroke:rgb(81,82,108);stroke-width:6.15px;"/>
            </g>
        </g>
        <g transform="matrix(0.144238,0,0,0.144238,381.419367,217.726362)">
            <g transform="matrix(1.05036,0,0,1.05036,-56.1697,-350.098)">
                <path d="M823.901,513.56C823.91,513.488 823.918,513.417 823.927,513.345" style="fill:none;stroke:rgb(81,82,108);stroke-width:6.15px;"/>
            </g>
        </g>
        <g transform="matrix(0.144238,0,0,0.144238,381.419367,217.726362)">
            <g transform="matrix(1.05036,0,0,1.05036,-56.1697,-350.098)">
                <path d="M823.901,513.56C823.859,511.261 823.662,515.591 823.901,513.56Z" style="fill:none;stroke:rgb(81,82,108);stroke-width:6.15px;"/>
            </g>
        </g>
        <g transform="matrix(0.144238,0,0,0.144238,381.504238,217.714237)">
            <path d="M845.964,207.759C846.347,208.206 848.715,212.662 857.093,213.491C864.267,214.2 867.7,209.838 869.415,207.126" style="fill:none;stroke:rgb(81,82,108);stroke-width:6.38px;"/>
        </g>
    </g>
</svg>
