<?xml version="1.0" encoding="UTF-8" standalone="no"?>
<!DOCTYPE svg PUBLIC "-//W3C//DTD SVG 1.1//EN" "http://www.w3.org/Graphics/SVG/1.1/DTD/svg11.dtd">
<svg width="100%" height="100%" viewBox="0 0 21 21" version="1.1" xmlns="http://www.w3.org/2000/svg" xmlns:xlink="http://www.w3.org/1999/xlink" xml:space="preserve" xmlns:serif="http://www.serif.com/" style="fill-rule:evenodd;clip-rule:evenodd;stroke-linecap:round;stroke-linejoin:round;">
    <g transform="matrix(1,0,0,1,-201.321501,-255.27579)">
        <g transform="matrix(0.932876,-0.360197,0.360197,0.932876,-60.098413,42.361611)">
            <path d="M167.294,309.006C168.042,308.922 169.126,308.096 169.126,307.325C169.126,306.497 168.328,306 167.5,306C167.23,306 166.149,306.221 165.93,306.346" style="fill:none;fill-rule:nonzero;stroke:rgb(81,82,108);stroke-width:1px;"/>
        </g>
        <g transform="matrix(-0.897418,-0.441182,-0.441182,0.897418,502.459078,67.013666)">
            <path d="M167.501,308.944C168.249,308.86 169,308.271 169,307.5C169,306.672 168.328,306 167.5,306C167.23,306 166.707,306.021 166.489,306.146" style="fill:none;fill-rule:nonzero;stroke:rgb(81,82,108);stroke-width:1px;"/>
        </g>
        <g transform="matrix(0.258819,-0.965926,0.965926,0.258819,-128.699692,351.453902)">
            <path d="M166.806,309.232C167.554,309.148 169.255,308.501 168.9,307.213C168.681,306.414 168.328,306 167.5,306C167.23,306 166.229,306.138 166.01,306.263" style="fill:none;fill-rule:nonzero;stroke:rgb(81,82,108);stroke-width:1px;"/>
        </g>
        <g transform="matrix(1,0,0,1,38.269071,-37.788003)">
            <path d="M167.5,309C168.328,309 169,308.328 169,307.5C169,306.672 168.328,306 167.5,306C166.672,306 166,306.672 166,307.5C166,308.328 166.672,309 167.5,309Z" style="fill:none;fill-rule:nonzero;stroke:rgb(81,82,108);stroke-width:1px;"/>
        </g>
        <g transform="matrix(-1,0,0,1,385.138937,-37.623259)">
            <path d="M167.5,309C168.328,309 169,308.328 169,307.5C169,306.672 168.328,306 167.5,306C166.672,306 166,306.672 166,307.5C166,308.328 166.672,309 167.5,309Z" style="fill:none;fill-rule:nonzero;stroke:rgb(81,82,108);stroke-width:1px;"/>
        </g>
        <g transform="matrix(0.258819,-0.965926,0.965926,0.258819,-128.78773,353.170691)">
            <path d="M167.5,309C168.328,309 169,308.328 169,307.5C169,306.672 168.328,306 167.5,306C166.672,306 166,306.672 166,307.5C166,308.328 166.672,309 167.5,309Z" style="fill:none;fill-rule:nonzero;stroke:rgb(81,82,108);stroke-width:1px;"/>
        </g>
        <g transform="matrix(1,0,0,0.557097,-37.064675,118.057961)">
            <path d="M240.625,260.952C244.442,264.066 253.049,264.157 256.912,260.832" style="fill:none;stroke:rgb(81,82,108);stroke-width:1.61px;stroke-miterlimit:21;"/>
        </g>
        <g transform="matrix(0.92978,0,0,0.70329,-123.016832,5.487155)">
            <path d="M364.71,365.703C364.342,365.676 363.554,365.429 363.147,365.429L360.037,356.051L356.336,365.404C355.896,365.404 354.961,365.734 354.567,365.766M355.363,363.573C351.277,363.901 350,366.44 350,371L350,377C350,382 352,384 357,384L363,384C368,384 370,382 370,377L370,371C370,366.407 368.407,363.954 364.257,363.648" style="fill:none;fill-rule:nonzero;stroke:rgb(81,82,108);stroke-width:1.5px;"/>
        </g>
        <g transform="matrix(0.773717,0,0,0.773717,46.489847,59.392773)">
            <path d="M204.853,258.602L204.902,261.482C204.912,262.064 204.532,262.58 203.974,262.744C203.924,262.759 203.903,262.812 203.869,262.857C203.774,262.978 203.693,263.123 203.611,263.282C203.34,263.811 202.744,264.087 202.166,263.951C201.588,263.816 201.176,263.304 201.168,262.71L201.114,258.642C201.109,258.296 201.243,257.963 201.486,257.717C201.729,257.471 202.06,257.332 202.406,257.332L203.561,257.332C204.266,257.332 204.841,257.897 204.853,258.602ZM203.561,258.625L202.406,258.625L202.461,262.693C202.764,262.101 203.099,261.654 203.61,261.504L203.561,258.625Z" style="fill:rgb(81,82,108);"/>
        </g>
        <g transform="matrix(0.794839,0,0,0.744375,41.441223,66.784923)">
            <path d="M205.571,259.062L202.633,259.062C202.184,259.062 201.769,258.806 201.544,258.391C201.285,257.911 201.148,257.367 201.148,256.813C201.148,255.072 202.472,253.659 204.102,253.659C205.733,253.659 207.057,255.072 207.057,256.813C207.057,257.367 206.92,257.911 206.661,258.391C206.436,258.806 206.021,259.062 205.571,259.062ZM205.571,257.719C205.72,257.444 205.799,257.131 205.799,256.813C205.799,255.814 205.039,255.002 204.102,255.002C203.166,255.002 202.406,255.814 202.406,256.813C202.406,257.131 202.485,257.444 202.633,257.719L205.571,257.719Z" style="fill:rgb(81,82,108);"/>
        </g>
        <g transform="matrix(0.794839,0,0,0.744375,57.096506,66.784923)">
            <path d="M205.571,259.062L202.633,259.062C202.184,259.062 201.769,258.806 201.544,258.391C201.285,257.911 201.148,257.367 201.148,256.813C201.148,255.072 202.472,253.659 204.102,253.659C205.733,253.659 207.057,255.072 207.057,256.813C207.057,257.367 206.92,257.911 206.661,258.391C206.436,258.806 206.021,259.062 205.571,259.062ZM205.571,257.719C205.72,257.444 205.799,257.131 205.799,256.813C205.799,255.814 205.039,255.002 204.102,255.002C203.166,255.002 202.406,255.814 202.406,256.813C202.406,257.131 202.485,257.444 202.633,257.719L205.571,257.719Z" style="fill:rgb(81,82,108);"/>
        </g>
        <g transform="matrix(-0.673446,0,0,0.673446,356.03988,85.535852)">
            <path d="M204.078,262.913C204.692,262.71 205.105,262.13 205.094,261.479L205.045,258.599C205.031,257.789 204.371,257.14 203.561,257.14L202.406,257.14C202.009,257.14 201.628,257.299 201.349,257.582C201.07,257.864 200.916,258.247 200.921,258.644L200.976,262.713C200.985,263.395 201.458,263.983 202.122,264.139C202.787,264.294 203.471,263.977 203.782,263.37C203.868,263.203 204.038,262.967 204.078,262.913ZM203.561,258.625L203.61,261.504C203.099,261.654 202.764,262.101 202.461,262.693L202.406,258.625L203.561,258.625Z" style="fill:rgb(81,82,108);"/>
        </g>
        <g transform="matrix(1.158482,0,0,1.177164,-33.6605,-46.469079)">
            <path d="M207.493,262.744C209.746,263.314 213.42,263.194 215.579,262.713" style="fill:none;stroke:rgb(81,82,108);stroke-width:0.86px;stroke-miterlimit:21;"/>
        </g>
        <path d="M204.277,266.147L204.277,266.524" style="fill:none;stroke:rgb(81,82,108);stroke-width:1px;stroke-miterlimit:21;"/>
        <g transform="matrix(1,0,0,1,5.243686,0.430988)">
            <path d="M204.277,266.147L204.277,266.524" style="fill:none;stroke:rgb(81,82,108);stroke-width:1px;stroke-miterlimit:21;"/>
        </g>
        <g transform="matrix(1,0,0,1,10.095892,0.373523)">
            <path d="M204.277,266.147L204.277,266.524" style="fill:none;stroke:rgb(81,82,108);stroke-width:1px;stroke-miterlimit:21;"/>
        </g>
        <g transform="matrix(1,0,0,1,14.681085,-0.377044)">
            <path d="M204.277,266.147L204.277,266.524" style="fill:none;stroke:rgb(81,82,108);stroke-width:1px;stroke-miterlimit:21;"/>
        </g>
        <path d="M209.684,275.323L209.725,275.323L209.725,273.802" style="fill:none;stroke:rgb(81,82,108);stroke-width:1px;stroke-miterlimit:21;"/>
        <path d="M209.889,273.733L213.588,273.733" style="fill:none;stroke:rgb(81,82,108);stroke-width:1px;stroke-miterlimit:21;"/>
        <path d="M213.616,273.898L213.616,275.186" style="fill:none;stroke:rgb(81,82,108);stroke-width:1px;stroke-miterlimit:21;"/>
    </g>
</svg>
