<?xml version="1.0" encoding="UTF-8" standalone="no"?>
<!DOCTYPE svg PUBLIC "-//W3C//DTD SVG 1.1//EN" "http://www.w3.org/Graphics/SVG/1.1/DTD/svg11.dtd">
<svg width="100%" height="100%" viewBox="0 0 20 19" version="1.1" xmlns="http://www.w3.org/2000/svg" xmlns:xlink="http://www.w3.org/1999/xlink" xml:space="preserve" xmlns:serif="http://www.serif.com/" style="fill-rule:evenodd;clip-rule:evenodd;stroke-linecap:round;stroke-linejoin:round;">
    <g transform="matrix(1,0,0,1,-402.199432,-258.024502)">
        <g transform="matrix(0.646632,0,0,0.646632,264.794012,70.353348)">
            <path d="M232,291.157C230.665,295.771 227.95,300.386 223.129,305C221.199,306.26 222.1,306.54 224.03,307.8L230.05,311.73C231.13,312.44 232.91,312.44 233.99,311.73L239.98,307.8C241.9,306.54 242.305,306.26 240.385,305C236.145,301.242 233.472,296.555 232,291.157Z" style="fill:none;fill-rule:nonzero;stroke:rgb(81,82,108);stroke-width:1.86px;"/>
        </g>
        <g transform="matrix(0.365103,0,0,0.365103,321.726154,161.905934)">
            <path d="M232,274.81C232,274.81 227.95,300.386 223.129,305C221.199,306.26 222.1,306.54 224.03,307.8C224.03,307.8 226.86,309.338 229.198,310.608C231.089,311.636 233.379,311.607 235.244,310.531C237.419,309.277 239.98,307.8 239.98,307.8C241.9,306.54 242.305,306.26 240.385,305C236.145,301.242 232,274.81 232,274.81Z" style="fill:none;fill-rule:nonzero;stroke:rgb(81,82,108);stroke-width:3.29px;"/>
        </g>
        <g transform="matrix(0.646632,0,0,0.652209,264.794012,68.629618)">
            <path d="M225.63,309.08L225.62,313.77C225.62,315.04 226.6,316.4 227.8,316.8L230.99,317.86C231.54,318.04 232.45,318.04 233.01,317.86L236.2,316.8C237.4,316.4 238.38,315.04 238.38,313.77L238.38,309.13" style="fill:none;fill-rule:nonzero;stroke:rgb(81,82,108);stroke-width:1.85px;"/>
        </g>
        <path d="M414.943,274.168L414.943,275.389" style="fill:none;stroke:rgb(81,82,108);stroke-width:1.2px;stroke-linecap:square;stroke-miterlimit:1.5;"/>
        <g transform="matrix(1,0,0,1,-8.515312,0)">
            <path d="M414.943,274.168L414.943,275.389" style="fill:none;stroke:rgb(81,82,108);stroke-width:1.2px;stroke-linecap:square;stroke-miterlimit:1.5;"/>
        </g>
    </g>
</svg>
