<?xml version="1.0" encoding="UTF-8" standalone="no"?>
<!DOCTYPE svg PUBLIC "-//W3C//DTD SVG 1.1//EN" "http://www.w3.org/Graphics/SVG/1.1/DTD/svg11.dtd">
<svg width="100%" height="100%" viewBox="0 0 19 20" version="1.1" xmlns="http://www.w3.org/2000/svg" xmlns:xlink="http://www.w3.org/1999/xlink" xml:space="preserve" xmlns:serif="http://www.serif.com/" style="fill-rule:evenodd;clip-rule:evenodd;stroke-linecap:round;stroke-miterlimit:1.5;">
    <g transform="matrix(1,0,0,1,-339.923093,-237.666566)">
        <g transform="matrix(-1.179614,0,-0,-1.179614,735.002166,584.161921)">
            <path d="M320.041,287.78L319.883,286.953C319.799,286.51 319.757,286.06 319.757,285.609C319.757,281.65 322.971,278.435 326.931,278.435C330.891,278.435 334.106,281.65 334.106,285.609C334.106,286.06 334.063,286.51 333.979,286.953L333.821,287.78L320.041,287.78ZM332.979,286.762C333.052,286.382 333.088,285.996 333.088,285.609C333.088,282.211 330.329,279.452 326.931,279.452C323.533,279.452 320.774,282.211 320.774,285.609C320.774,285.996 320.81,286.382 320.883,286.762L332.979,286.762Z" style="fill:rgb(81,82,108);"/>
        </g>
        <g transform="matrix(1.179614,0,0,1.179614,-40.027273,-84.447018)">
            <path d="M327.088,282.228C328.086,284.713 332.035,284.724 333.088,282.182" style="fill:none;stroke:rgb(81,82,108);stroke-width:1.02px;"/>
        </g>
        <g transform="matrix(1.179614,0,0,1.179614,-39.923054,-137.599537)">
            <path d="M333,325.1L333,323.6C333,321.943 331.657,320.6 330,320.6C328.343,320.6 327,321.943 327,323.6L327,325.1" style="fill:none;fill-rule:nonzero;stroke:rgb(81,82,108);stroke-width:1.2px;stroke-miterlimit:4;"/>
        </g>
    </g>
</svg>
