<?xml version="1.0" encoding="UTF-8" standalone="no"?>
<!DOCTYPE svg PUBLIC "-//W3C//DTD SVG 1.1//EN" "http://www.w3.org/Graphics/SVG/1.1/DTD/svg11.dtd">
<svg width="100%" height="100%" viewBox="0 0 24 19" version="1.1" xmlns="http://www.w3.org/2000/svg" xmlns:xlink="http://www.w3.org/1999/xlink" xml:space="preserve" xmlns:serif="http://www.serif.com/" style="fill-rule:evenodd;clip-rule:evenodd;">
    <g transform="matrix(1,0,0,1,-377.652011,-238.737739)">
        <g transform="matrix(1.082073,0,0,1.082073,31.252222,66.945843)">
            <path d="M337.4,163.924L337.4,172.076C337.4,172.586 336.986,173 336.476,173L323.524,173C323.014,173 322.6,172.586 322.6,172.076L322.6,163.924C322.6,163.414 323.014,163 323.524,163L336.476,163C336.986,163 337.4,163.414 337.4,163.924Z" style="fill:none;stroke:rgb(81,82,108);stroke-width:1.2px;"/>
        </g>
        <g transform="matrix(1.082073,0,0,1.082073,33.053738,65.03677)">
            <path d="M321.076,165.334C321.088,164.185 322.014,163 323.6,163L335.214,163C335.918,163 337.4,163.613 337.4,165.185L337.4,172C337.428,173.958 336.356,174.767 334.835,174.764" style="fill:none;stroke:rgb(81,82,108);stroke-width:1.2px;"/>
        </g>
        <g transform="matrix(1.082073,0,0,1.082073,31.252222,66.945843)">
            <path d="M324.482,171L326,171" style="fill:none;fill-rule:nonzero;stroke:rgb(81,82,108);stroke-width:1.2px;stroke-linecap:round;"/>
        </g>
        <g transform="matrix(1.082073,0,0,1.082073,31.252222,66.945843)">
            <path d="M328,171L328.325,171" style="fill:none;fill-rule:nonzero;stroke:rgb(81,82,108);stroke-width:1.2px;stroke-linecap:round;"/>
        </g>
        <g transform="matrix(0.372268,0,0,1.082073,270.101629,66.945843)">
            <rect x="323.5" y="165.5" width="13" height="1" style="fill:rgb(81,82,108);stroke:rgb(81,82,108);stroke-width:1px;"/>
        </g>
    </g>
</svg>
