<?xml version="1.0" encoding="UTF-8" standalone="no"?>
<!DOCTYPE svg PUBLIC "-//W3C//DTD SVG 1.1//EN" "http://www.w3.org/Graphics/SVG/1.1/DTD/svg11.dtd">
<svg width="100%" height="100%" viewBox="0 0 590 488" version="1.1" xmlns="http://www.w3.org/2000/svg" xmlns:xlink="http://www.w3.org/1999/xlink" xml:space="preserve" xmlns:serif="http://www.serif.com/" style="fill-rule:evenodd;clip-rule:evenodd;stroke-linejoin:round;stroke-miterlimit:2;">
    <g transform="matrix(1,0,0,1,0,-28.38216)">
        <path d="M41.61,39.57C39.96,35.09 42.78,28.5 48.07,28.43C54.58,27.98 60.79,30.78 66.47,33.66C71.87,36.33 75.32,41.44 78.72,46.2C84.64,54.56 91.87,61.91 97.66,70.36C102.03,77.2 106.5,84.05 112.08,89.98C115.61,93.8 118.58,98.1 121.86,102.14C130.63,113.08 140,123.6 147.59,135.42C154.36,145.47 164.28,152.8 171.59,162.41C176.31,168.63 181.53,174.44 186.58,180.39C189.55,184.77 192.49,189.18 195.51,193.54C201.45,203.04 210.99,209.37 218.11,217.87C220.53,220.78 222.81,223.84 225.63,226.4C229.86,230.65 235.4,233.23 239.88,237.18C246.69,243.29 254.74,248.69 264,249.91C269.97,251.15 276.05,249.53 282.05,250.45C290.11,251.99 298.3,248.94 306.35,250.64C309.85,251.26 310.51,255.11 311.54,257.89C308.76,268.85 298.62,275.14 291.38,283C293.55,285.48 295.59,288.11 296.93,291.15C298.25,293.52 299.32,296.57 302.08,297.59C307.88,299.4 314.15,299.05 319.86,301.25C323.22,302.45 326.19,304.46 329.18,306.37C335.84,300.73 344.51,298 353.12,297.49C361.24,296.69 368.51,292.82 375.4,288.72C372.11,282.43 370.1,275.66 367.9,268.96C356.68,229.3 370.37,184.38 400.53,156.62C411.75,145.87 425.01,137.01 439.71,131.81C449.55,127.28 460.33,125.5 470.98,124.09C482.68,123.7 494.56,123.32 506.03,126.21C514.43,128.54 523.05,130.68 530.5,135.42C547.87,143.24 561.64,157.28 572.1,172.94C587.32,196.95 593.31,226.92 587.41,254.83C584.04,272.09 576.6,288.68 565.14,302.09C559.46,309.42 552.3,315.42 545.02,321.08C540.3,325.5 534.55,328.52 529.02,331.75C516.08,339.03 501.78,343.71 487.17,346.12C470.07,348.22 452.14,348.4 435.78,342.33C433.95,341.46 432.13,342.73 431.36,344.37C428.82,348.65 425.83,352.69 422.02,355.93C415.61,361.37 411.59,368.9 405.88,374.97C401.98,379.03 398.64,383.57 395.23,388.03C394.01,392.95 389.54,395.84 386.47,399.54C380.43,406.76 373.84,413.51 367.07,420.04C362.56,423.46 358.75,427.65 354.65,431.52C348.54,436.66 345.05,444 340.04,450.09C334.74,458.53 327.33,465.46 322.37,474.11C320.43,488.08 317.89,501.99 316.21,516L287.3,516C297.05,501.69 306.79,487.35 315.52,472.38C322.49,463.7 329.28,454.86 335.91,445.91C340.89,439.59 344.14,431.71 350.89,426.94C356.04,422.37 360.57,417.15 366.02,412.89C373.15,405.05 381.52,398.13 386.8,388.8C392.26,381.94 397.73,375.06 403.65,368.58C412.29,357.16 421.92,346.55 430.93,335.42C433.77,332.46 437.17,329.9 439.04,326.14C442.87,318.58 450.61,313.92 454.12,306.13C455.7,302.31 458.97,298.46 457.78,294.1C455.91,291.03 452.45,289.05 449.01,288.31C448.39,288.63 447.16,289.26 446.55,289.58C434.92,297.79 423.94,307.11 411.09,313.42C404.41,316.04 397.82,318.92 391.6,322.52C385.8,326.5 380.24,330.97 373.79,333.89C368.87,336.1 364.35,339.08 359.39,341.21C349.83,345.19 340.75,350.32 332.28,356.27C327.51,359.64 322.33,362.4 316.88,364.49C313.53,365.47 311.56,368.83 308.07,369.51C298.98,372.2 289.36,374.33 279.87,372.82C275.57,372.38 271.24,372.86 266.94,372.5C260.98,371.9 254.97,373.31 249.04,372.11C237.52,369.37 225.71,368.21 214.05,366.21C209.75,365.32 205.43,364.4 201.02,364.36C194.55,364.3 188.43,361.98 182.08,361.05C172.07,359.55 161.99,358.37 152.08,356.26C139.47,355.35 127.4,351.43 115.02,349.19C107.66,347.91 100.53,345.52 93.1,344.66C88.15,344.05 83.14,344.68 78.19,344.04C76.71,343.36 75.27,342.62 73.86,341.83C72.38,340.34 69.46,338.85 70.41,336.35C71.04,333.4 74.3,331.65 77.12,332.69C77.29,333.04 77.64,333.75 77.82,334.1L78.43,335.36C84.66,334.99 90.76,333.39 97.02,333.28C102.97,333.06 108.91,333.65 114.87,333.62C116.16,333.61 117.46,333.57 118.76,333.5C116.73,332.99 114.64,332.71 112.57,332.46C103.17,331.36 93.73,330.53 84.29,329.95C80.6,329.83 76.92,329.01 73.23,329.31C69.26,330.7 64.52,332.24 62.67,336.4C60.71,340.36 58.65,344.29 56.66,348.24C53.16,355.75 49.38,363.29 47.69,371.45C46.1,382.13 51.75,391.89 55.66,401.42C59.03,409.46 65.71,415.33 72.37,420.64C76.49,424.64 82.62,424.76 88,424.85C93.39,424.73 98.73,423.84 104.05,422.99C105.06,423.65 106.06,424.32 107.06,424.99C107,426.3 106.95,427.61 106.89,428.93C101.32,430.06 95.72,431.27 90.01,431.29C84.84,431.36 79.72,430.52 74.56,430.36C75.31,432.59 76.02,434.84 76.67,437.1C77.35,439.64 78.33,442.09 79.53,444.43C80.57,446.75 82.85,447.47 85.19,447.81C87.83,450.37 91.2,452.3 95.02,451.96C102.91,452.09 109.65,447.62 116.64,444.66C121.82,442.35 127.43,441.16 132.46,438.52C142.08,434.35 151.68,430.08 160.72,424.76C164.43,422.63 168.85,419.98 173.02,422.62C172.5,423.77 171.97,424.93 171.44,426.09C168.71,428.5 166.69,431.67 163.64,433.72C153.46,440.79 144.16,449.16 133.3,455.25C126.14,459.89 118.57,463.85 111.27,468.26C105.13,472.06 98.59,475.34 93.29,480.31C87.16,485.83 79.29,488.55 72.08,492.25C65.62,496.67 57.7,498.27 50.02,498.82C43.13,498.47 35.85,499.42 29.35,496.56C26.58,495.42 25.06,492.7 23.35,490.41C15.28,495.4 7.86,501.33 0,506.64L0,496.91C10.45,491.93 19.94,485.22 29.38,478.58C43.45,468.76 60.35,463.96 74.23,453.81C71.77,444.98 66.67,436 69.54,426.59C62.2,420.58 54.45,414.35 50.52,405.44C46.39,396.02 41.41,386.52 41.14,376C41.02,367.39 45.07,359.54 48.07,351.7C50.52,347.52 52.69,343.17 54.68,338.75C56.93,335.01 58.55,330.73 61.86,327.75C64.28,325.95 67.13,324.85 69.9,323.72C73.74,322.16 77.92,323.19 81.91,323.41C95.67,324.35 109.44,325.48 123.11,327.34C124.93,326.14 125.75,323.93 127,322.21C129.06,321.26 129.69,319.02 128.99,316.97C130.61,310.45 131.67,303.64 130.71,296.93C129.83,288.64 126.4,280.95 124.52,272.89C122.39,264.54 121.83,255.86 119.47,247.56C115.1,234.79 109.33,222.43 106.61,209.14C105.73,205.37 104.5,201.69 103.14,198.07C100.98,190.86 98.12,183.87 94.9,177.07C91.93,169.05 89.15,160.97 86.45,152.87C82.82,140.1 75.58,128.73 71.87,115.99C69.71,110.52 67.68,105 65.33,99.61C61.7,90.42 56.6,81.77 54.41,72.06C52.46,65.97 50.26,59.96 48.26,53.88C46.63,48.84 43.49,44.49 41.61,39.57M46.87,35.51C49.44,41.74 53.22,47.44 54.9,54.02C59.45,65.12 61.51,77.18 67.25,87.79C69.17,91.72 70.63,95.86 72.35,99.88C77.01,109.87 79.61,120.67 84.27,130.66C89.44,140.92 92.92,151.9 96.37,162.82C98.83,169.51 101.51,176.11 104.45,182.6C108.57,192.96 111.68,203.67 114.52,214.43C114.53,214.45 114.54,214.51 114.55,214.53C115.16,216.32 115.7,218.13 116.37,219.9L115.82,220.67L116.19,221.69L117.08,221.9L117.26,222.91L116.77,223.69L117.22,224.67L118.12,224.84C120.07,232.75 123.85,240.09 126.09,247.91C127.28,253.6 128.38,259.3 129.16,265.06C130.87,273.92 133.96,282.43 136.26,291.13C138.11,298.68 137.01,306.45 135.83,314C134.24,323.54 129.8,332.22 125.47,340.76C131.23,342.6 136.92,344.83 142.91,345.82C147.65,346.59 151.66,343.53 155.9,342.03C163.5,339.83 171.63,339.32 178.8,335.77C186.36,333.16 193.29,329.01 200.96,326.67C204.28,325.71 207.2,322.83 210.86,323.62C216.24,322.44 220.68,319.01 225.51,316.54C235.99,310.88 244.6,302 255.97,297.95C262.66,295.29 268.16,290.48 274.76,287.7C284.59,281.5 293.01,273.38 300.94,264.95C303,262.61 304.96,260.01 305.28,256.8C297.57,255.97 289.95,257.57 282.27,257.78C279.26,255.6 275.44,256.44 272.03,256.8C262.11,257.65 252.36,254.09 244.06,248.89C239.5,245.83 236.1,240.94 230.79,239.09C231.6,237.56 228.95,236.07 227.86,237.26C224.02,232.7 218.89,229.39 215.28,224.61C209.48,217.18 202.05,211.3 195.58,204.5C190.52,198.14 186.59,190.95 181.38,184.7C181.35,184.67 181.3,184.62 181.28,184.59C178.35,180.9 174.97,177.59 172.29,173.71C172.27,173.69 172.24,173.64 172.22,173.62C165.93,165.4 159.28,157.37 151.54,150.47C149.37,148.35 147.23,146.16 145.57,143.61C142.23,138.26 138.1,133.45 134.75,128.1C129.72,121.84 124.44,115.8 119.59,109.41C112.97,100.14 104.66,92.24 98.21,82.84C95.71,79.61 93.85,75.85 90.82,73.05C92.07,71.48 89.84,68.41 87.99,69.21C87.67,68.7 87.03,67.69 86.71,67.19C87.29,65.43 86.67,64.71 84.88,65.02C81.94,60.14 78.01,55.94 74.57,51.43C72.44,48.57 70.68,45.41 68.11,42.91C64.32,39.16 59.17,37.28 54.22,35.6C51.83,34.74 49.28,34.73 46.87,35.51M462.03,133.93C459.81,134.36 458.33,136.45 456.06,136.75C442.61,139.64 430.5,146.66 419.39,154.54C417.09,156.48 415.31,158.96 413,160.91C405.45,167.62 400.39,176.49 395.29,185.07C389.67,197.81 385.16,211.39 385.18,225.47C385.12,226.74 385.06,228.02 385,229.29C385.02,230.67 385.04,232.04 385.07,233.42C385.67,243.21 386.88,253.19 390.62,262.33C391.88,270.28 396.93,276.94 399.81,284.34C404.78,291.01 409.29,298.1 414.93,304.29C418.29,302.22 421.58,300.03 424.54,297.4C425.64,296.7 426.76,296.02 427.88,295.35L427.49,294.95C430.93,292.92 434.23,290.64 437.12,287.85L437.59,288.33C439.41,286.47 441.5,284.94 443.64,283.48L443.77,283.58C445.13,282.79 446.48,281.99 447.95,281.43C453.96,281.22 459,285.24 462.59,289.68C463.12,290.26 463.68,290.84 464.24,291.43L464.6,291.45C464.74,292.42 465.01,294.37 465.15,295.34L464.54,295.88C464.42,297.31 464.31,298.73 464.12,300.15C462.17,303.62 460.6,307.29 458.75,310.81C457.84,312.19 456.94,313.58 456.04,314.97C452.6,319.34 448.25,323.1 445.52,327.93C450.34,329.5 455.4,330.22 460.07,332.26C463.21,333.73 466.72,333.11 470.06,333.23C474.33,333.28 478.38,334.96 482.66,334.97L482.94,334.49C485.33,335.02 487.71,334.36 490.07,333.97C496.92,332.66 503.92,332.2 510.68,330.42C514.24,329.47 518.14,329.31 521.36,327.33C528.05,323.51 535.22,320.26 540.83,314.84C546.67,310.77 551.42,305.45 556.41,300.44C560.45,296.17 563.06,290.88 566.47,286.13C578.96,266.27 583.61,241.87 580.48,218.71C578.67,202.97 572.8,187.72 564.03,174.53C559.42,167.77 553.95,161.64 547.84,156.2C545.9,153.76 542.95,152.39 540.67,150.31C539.34,149.29 537.96,148.34 536.52,147.52C531.74,144.55 526.53,142.43 521.75,139.48C517.46,138.74 513.86,136.03 509.49,135.61C498.6,132.69 487.26,131.58 476.01,132.29C471.26,131.88 466.68,133.2 462.03,133.93M374.05,217.29C371.31,230.7 370.22,244.67 373.24,258.14C375.69,273.26 383.14,286.88 391.2,299.68C395.26,298.98 398.4,302.23 402.32,302.56C401.65,299.67 399.28,297.74 397.74,295.35C392.87,288.7 389.82,281.03 385.97,273.81C384.66,270.18 384.13,266.2 382.25,262.81C378.12,248.04 376.69,232.57 378.03,217.3C376.7,217.3 375.37,217.3 374.05,217.29M280.02,303.76C283.09,310.67 284.09,318.41 283.53,325.92C280.51,340.51 267.9,352.72 253.14,355.01C249.68,355.68 246.43,357.17 242.9,357.51L242.73,357.81C238.99,358.17 235.16,358.12 231.53,357.1C224.09,354.29 217.08,350.28 211.15,344.96C205.37,345.32 199.8,347.05 194.11,347.99C189.16,348.88 184.72,351.4 179.84,352.51C186.71,352.95 193.45,354.3 200.14,355.87C212.65,359.96 225.81,361.09 238.71,363.34C243.09,363.77 247.48,364.07 251.88,363.94C257.57,364.72 263.22,365.77 268.9,366.62C267.75,363.71 267.06,360.66 266.38,357.62C267.25,356.56 268.11,355.5 268.98,354.44C274.39,355.75 273.02,362.25 275.59,365.95C281,366.47 286.47,367.01 291.85,365.85C295.01,363.63 296.6,359.8 299.99,357.83C305.16,354.92 311.3,356.29 316.81,354.74C318.34,351.79 321.51,350.68 324.23,349.18C328.17,345.75 332.48,341.67 332.15,335.95C331.51,328.45 331.47,320.28 327.16,313.77C325.27,310.64 321.54,309.44 318.48,307.77C311.55,304.68 303.33,306.24 296.73,302.22C294.64,300.8 293.49,298.49 292.32,296.34C288.43,299.15 284.09,301.23 280.02,303.76M269.48,300.18C270.03,302.75 270.16,305.9 267.47,307.31C264.82,306.25 263.02,307.97 261.61,309.96C262.89,311.27 264.21,312.55 265.56,313.8C267.14,312.21 268.88,310.78 270.82,309.64C273.95,310.27 275.51,312.92 276.34,315.77C275.41,319.76 273.3,323.41 270.14,326.04C272.33,323.98 276,324.42 277.83,322.06C277.13,317.67 277.13,313.07 275.36,308.93C274.3,305.47 271.34,303.17 269.48,300.18M235.51,323.49C231.26,327.04 229.1,332.36 224.92,335.98C231.87,334.01 239.22,333.99 246.07,331.61C252.68,329.49 259.69,328.78 266.17,326.35C263.13,326.15 259.91,326.93 257.04,325.56C253.01,323.66 249.21,320.61 248.29,316C243.49,317.29 238.94,319.86 235.51,323.49M257.99,335.08C252.65,336.69 247.19,337.84 241.84,339.41C236.99,340.82 231.77,340.5 227.02,342.3L227.02,342.74L226.17,342.65C224.36,342.95 222.67,343.7 220.97,344.34C225.72,347.37 230.7,350.34 236.23,351.63C242.22,351.46 248.04,349.66 253.89,348.48C260.27,346.61 266.76,343.51 270.73,337.97C273.2,335.99 274.45,333.04 275.92,330.33C270.17,332.72 263.96,333.44 257.99,335.08M46.48,490.1C50.68,493.12 55.74,491.48 60.3,490.46C55.71,489.97 51.09,489.96 46.48,490.1Z" style="fill-rule:nonzero;"/>
        <path d="M156.81,225.6C159.31,224.28 161.29,226.58 162.99,228.08C165.18,230.59 169.62,229.28 170.87,232.89C169.95,234.16 169.04,235.43 168.13,236.71C162.74,236.53 157.65,233.59 155.04,228.84C154.84,227.5 156.04,226.52 156.81,225.6Z" style="fill-rule:nonzero;"/>
        <path d="M178.36,264.99C179.21,263.85 180.05,262.71 180.89,261.57C185.48,261.92 189.47,264.49 194.03,264.95C195.66,265.37 198.13,265.08 198.75,267.11C199.6,268.35 198.7,269.94 197.95,271C194.06,272.28 189.87,271 186.15,269.68C183.31,268.59 180.01,267.82 178.36,264.99Z" style="fill-rule:nonzero;"/>
        <path d="M362.32,359.49C363.99,358.59 366.26,357.59 367.94,359.06C369.55,359.92 368.61,361.84 368.75,363.28C367.54,363.94 366.34,364.62 365.13,365.28C344.58,376.92 324.3,389.04 303.88,400.92C300.61,402.73 297.2,404.38 294.41,406.92C294.04,407.22 293.31,407.81 292.94,408.11C291.39,407.97 289.85,407.85 288.32,407.8C288.39,406.32 288.4,404.84 288.65,403.39C290.42,401.19 293.06,399.92 295.43,398.45C303.71,393.81 311.7,388.65 320.08,384.18C333.86,375.46 348.19,367.63 362.32,359.49Z" style="fill-rule:nonzero;"/>
        <path d="M93.88,375.34C94.52,374.58 95.17,373.82 95.81,373.07C107.98,371.35 119.98,374.81 131.98,376.26C143.43,378.48 154.99,380.03 166.39,382.54C178,385.37 189.45,388.85 200.97,392C208.11,393.18 215.15,394.87 222.3,395.97C224.21,399.36 220.63,403.24 217.14,403.07C213.02,403.19 208.89,402.94 204.81,402.33C198.04,400.93 190.97,400.51 184.64,397.51C173.12,392.46 160.76,389.91 148.98,385.7C135.93,383.37 122.84,381.27 109.73,379.36C105.5,378.81 101.24,379.35 97,379.32C95.1,379.57 93.92,377.9 92.59,376.87C92.91,376.49 93.56,375.72 93.88,375.34Z" style="fill-rule:nonzero;"/>
        <path d="M150.24,411.31C152.21,410.89 154.88,411.48 154.9,413.95C154.54,416.62 151.57,417.96 149.18,418.36C141.71,419.9 134.06,420.87 126.91,423.65C124.46,424.25 121.54,425.61 119.2,423.99C117.83,422.18 118.79,419.71 120.59,418.67C129.82,414.09 139.97,411.65 150.24,411.31Z" style="fill-rule:nonzero;"/>
        <path d="M312.15,428.17C313.19,427.28 314.65,426.19 316.07,426.92C318.2,427.01 317.31,429.72 317.78,431.07C309.39,440.53 300.05,449.06 291.1,457.96C287.83,461.71 284.32,465.24 280.8,468.75C279.78,469.47 278.36,471.11 277.06,470C275.46,469.37 275.73,467.25 275.15,465.93C278.4,461.28 283.17,458.05 286.54,453.51C290.77,448.41 296.04,444.35 300.73,439.71C304.58,435.91 308.22,431.89 312.15,428.17Z" style="fill-rule:nonzero;"/>
        <path d="M206.59,435.59C211.23,433.34 215.45,430.36 219.9,427.79C222.11,427.29 223.16,429.46 224.38,430.82C223.04,432.33 221.75,433.95 219.97,434.96C216.27,437.1 212.97,439.92 209.01,441.59C207.14,441.81 206.03,440.22 204.81,439.14C205.4,437.95 206,436.77 206.59,435.59Z" style="fill-rule:nonzero;"/>
        <path d="M46.87,35.51C49.28,34.73 51.83,34.74 54.22,35.6C59.17,37.28 64.32,39.16 68.11,42.91C70.68,45.41 72.44,48.57 74.57,51.43C78.01,55.94 81.94,60.14 84.88,65.02C85.23,65.96 85.84,66.68 86.71,67.19C87.03,67.69 87.67,68.7 87.99,69.21C88.67,70.66 89.59,72.01 90.82,73.05C93.85,75.85 95.71,79.61 98.21,82.84C104.66,92.24 112.97,100.14 119.59,109.41C124.44,115.8 129.72,121.84 134.75,128.1C138.1,133.45 142.23,138.26 145.57,143.61C147.23,146.16 149.37,148.35 151.54,150.47C159.28,157.37 165.93,165.4 172.22,173.62C172.24,173.64 172.27,173.69 172.29,173.71C174.97,177.59 178.35,180.9 181.28,184.59L181.33,184.65L181.38,184.7C186.59,190.95 190.52,198.14 195.58,204.5C202.05,211.3 209.48,217.18 215.28,224.61C218.89,229.39 224.02,232.7 227.86,237.26C228.51,238.3 229.62,238.86 230.79,239.09C236.1,240.94 239.5,245.83 244.06,248.89C252.36,254.09 262.11,257.65 272.03,256.8C275.44,256.44 279.26,255.6 282.27,257.78C289.95,257.57 297.57,255.97 305.28,256.8C304.96,260.01 303,262.61 300.94,264.95C293.01,273.38 284.59,281.5 274.76,287.7C268.16,290.48 262.66,295.29 255.97,297.95C244.6,302 235.99,310.88 225.51,316.54C220.68,319.01 216.24,322.44 210.86,323.62C207.2,322.83 204.28,325.71 200.96,326.67C193.29,329.01 186.36,333.16 178.8,335.77C171.63,339.32 163.5,339.83 155.9,342.03C151.66,343.53 147.65,346.59 142.91,345.82C136.92,344.83 131.23,342.6 125.47,340.76C129.8,332.22 134.24,323.54 135.83,314C137.01,306.45 138.11,298.68 136.26,291.13C133.96,282.43 130.87,273.92 129.16,265.06C128.38,259.3 127.28,253.6 126.09,247.91C123.85,240.09 120.07,232.75 118.12,224.84C117.91,224.35 117.47,223.39 117.26,222.91L117.08,221.9C116.9,221.4 116.55,220.4 116.37,219.9C115.7,218.13 115.16,216.32 114.55,214.53C114.54,214.51 114.53,214.45 114.52,214.43C111.68,203.67 108.57,192.96 104.45,182.6C101.51,176.11 98.83,169.51 96.37,162.82C92.92,151.9 89.44,140.92 84.27,130.66C79.61,120.67 77.01,109.87 72.35,99.88C70.63,95.86 69.17,91.72 67.25,87.79C61.51,77.18 59.45,65.12 54.9,54.02C53.22,47.44 49.44,41.74 46.87,35.51M93.22,111.31C92.48,112.3 93.64,114.31 94.89,113.84C95.63,112.86 94.45,110.87 93.22,111.31M156.81,225.6C156.04,226.52 154.84,227.5 155.04,228.84C157.65,233.59 162.74,236.53 168.13,236.71C169.04,235.43 169.95,234.16 170.87,232.89C169.62,229.28 165.18,230.59 162.99,228.08C161.29,226.58 159.31,224.28 156.81,225.6M178.36,264.99C180.01,267.82 183.31,268.59 186.15,269.68C189.87,271 194.06,272.28 197.95,271C198.7,269.94 199.6,268.35 198.75,267.11C198.13,265.08 195.66,265.37 194.03,264.95C189.47,264.49 185.48,261.92 180.89,261.57C180.05,262.71 179.21,263.85 178.36,264.99Z" style="fill:rgb(234,51,35);fill-rule:nonzero;"/>
        <path d="M94.9,177.07C98.12,183.87 100.98,190.86 103.14,198.07C99.55,191.45 96.23,184.54 94.9,177.07Z" style="fill:rgb(234,51,35);fill-rule:nonzero;"/>
        <path d="M84.88,65.02C86.67,64.71 87.29,65.43 86.71,67.19C85.84,66.68 85.23,65.96 84.88,65.02Z" style="fill:rgb(74,16,11);fill-opacity:0.85;fill-rule:nonzero;"/>
        <path d="M87.99,69.21C89.84,68.41 92.07,71.48 90.82,73.05C89.59,72.01 88.67,70.66 87.99,69.21Z" style="fill:rgb(56,12,8);fill-opacity:0.55;fill-rule:nonzero;"/>
        <path d="M93.22,111.31C94.45,110.87 95.63,112.86 94.89,113.84C93.64,114.31 92.48,112.3 93.22,111.31Z" style="fill:rgb(133,29,20);fill-opacity:0.57;fill-rule:nonzero;"/>
        <path d="M462.03,133.93C466.68,133.2 471.26,131.88 476.01,132.29C487.26,131.58 498.6,132.69 509.49,135.61C513.86,136.03 517.46,138.74 521.75,139.48C526.53,142.43 531.74,144.55 536.52,147.52C530.65,149.76 524.15,151.33 519.64,155.99C526.8,154.72 533.6,151.98 540.67,150.31C542.95,152.39 545.9,153.76 547.84,156.2C546.61,155.21 545.35,154.27 544.11,153.3C537.49,156.34 530.74,159.1 524.27,162.45C506.27,151.14 483.95,147.64 463.18,151.55C446.55,155.34 430.91,163.7 419.18,176.17C409.29,186.51 402.16,199.42 398.57,213.27C393.97,217.18 389.1,220.82 385.18,225.47C385.16,211.39 389.67,197.81 395.29,185.07C400.39,176.49 405.45,167.62 413,160.91C415.31,158.96 417.09,156.48 419.39,154.54C430.5,146.66 442.61,139.64 456.06,136.75C458.33,136.45 459.81,134.36 462.03,133.93Z" style="fill:rgb(252,200,28);fill-rule:nonzero;"/>
        <path d="M459.94,173.01C473.35,169.17 487.46,167.2 501.41,168.54C489.59,172.62 477.38,175.46 465.59,179.6C455.32,182.53 445.1,185.74 435.43,190.3C433.5,190.14 431.59,189.9 429.68,189.67C430.84,187.17 432.11,184.69 433.99,182.65C441.93,177.76 451.08,175.59 459.94,173.01Z" style="fill:rgb(252,200,28);fill-rule:nonzero;"/>
        <path d="M563.97,225.83C569.36,223.21 574.89,220.89 580.48,218.71C583.61,241.87 578.96,266.27 566.47,286.13C558.3,286.57 550.68,289.77 542.69,291.15C558.36,273.55 566.75,249.37 563.97,225.83Z" style="fill:rgb(252,200,28);fill-rule:nonzero;"/>
        <path d="M385,229.29C388.93,226.61 392.88,223.95 396.91,221.42C396.63,223.31 396.41,225.21 396.25,227.12C392.48,229.15 388.76,231.26 385.07,233.42C385.04,232.04 385.02,230.67 385,229.29Z" style="fill:rgb(252,200,28);fill-rule:nonzero;"/>
        <path d="M471.43,250.71C472.98,248.07 476.06,248.2 478.7,248.53C477.04,250.5 475.18,252.4 472.58,253.01C472.29,252.43 471.72,251.28 471.43,250.71Z" style="fill:rgb(252,200,28);fill-rule:nonzero;"/>
        <path d="M456.04,314.97C469.37,318.75 483.55,319.49 497.15,316.75C492.12,322.42 486.49,327.7 482.94,334.49L482.66,334.97C478.38,334.96 474.33,333.28 470.06,333.23C466.72,333.11 463.21,333.73 460.07,332.26C455.4,330.22 450.34,329.5 445.52,327.93C448.25,323.1 452.6,319.34 456.04,314.97Z" style="fill:rgb(252,200,28);fill-rule:nonzero;"/>
        <path d="M519.64,155.99C524.15,151.33 530.65,149.76 536.52,147.52C537.96,148.34 539.34,149.29 540.67,150.31C533.6,151.98 526.8,154.72 519.64,155.99Z" style="fill:rgb(255,254,246);fill-rule:nonzero;"/>
        <path d="M507.33,169.18C507.83,168.1 508.35,167.03 508.88,165.97C509.84,166.59 510.81,167.23 511.77,167.89C512.29,171.41 512.58,174.98 512.39,178.55C505.41,186.96 501.78,198.91 491.22,203.8C498.6,193.26 501.65,180.59 507.33,169.18Z" style="fill:rgb(255,254,246);fill-rule:nonzero;"/>
        <path d="M436.7,192.7C443.98,188.93 451.6,185.83 459.38,183.24C452.88,189.59 445.76,195.32 437.96,200C435.18,201.56 432.22,203.09 428.99,203.32C426.9,203.3 427.38,200.26 428.21,199.15C430.25,196.13 433.6,194.41 436.7,192.7Z" style="fill:rgb(255,254,246);fill-rule:nonzero;"/>
        <path d="M483.25,194.04C483.83,192.27 485.96,192.84 487.37,192.45C488.09,196.99 488.39,201.58 488.41,206.18C481.5,208.11 475.43,213.1 473.47,220.18C480.36,218.18 487.36,215.64 492.79,210.77C499.37,205.32 502.64,196.36 510.96,192.98C511.04,193.33 511.21,194.02 511.3,194.37C511.26,197.91 511.1,201.45 510.78,204.98C509.54,205.48 508.31,205.98 507.08,206.47C503.5,207.88 499.85,209.34 496.92,211.9C492.05,216.04 488.67,221.72 483.37,225.4C478.68,228.96 472.73,230.02 467.04,230.78C460.72,231.28 455.86,235.96 451.57,240.18C449.03,242.86 446.47,245.81 445.84,249.59C444.88,253.83 444.01,258.1 443.41,262.41C441.76,263.86 440.09,265.3 438.57,266.88C434.29,271.17 432.12,277.24 433.37,283.26C433.22,282.75 432.93,281.72 432.79,281.21C430.34,273.13 436.55,266.28 442.58,261.89C442.81,259.85 443.04,257.81 443.21,255.76C442.86,246.66 449.22,239.26 455.78,233.77C460.22,229.83 466.12,227.52 469.45,222.41C475.85,213.89 478.12,203.23 483.25,194.04Z" style="fill:rgb(255,254,246);fill-rule:nonzero;"/>
        <path d="M417.31,203.37C418.84,202.54 420.95,203.36 421.71,204.87C422.06,208.92 417.33,213.32 413.43,211.51C412.05,208.36 414.42,204.71 417.31,203.37Z" style="fill:rgb(255,254,246);fill-rule:nonzero;"/>
        <path d="M385.18,225.47C389.1,220.82 393.97,217.18 398.57,213.27C397.89,215.96 397.35,218.68 396.91,221.42C392.88,223.95 388.93,226.61 385,229.29C385.06,228.02 385.12,226.74 385.18,225.47Z" style="fill:rgb(255,254,246);fill-rule:nonzero;"/>
        <path d="M463.18,151.55C483.95,147.64 506.27,151.14 524.27,162.45C530.76,166.33 536.59,171.22 541.78,176.7C536.81,177.1 532.3,174.78 527.64,173.49C523.04,172.1 518.33,171.12 513.57,170.45C513.01,169.57 512.39,168.72 511.77,167.89C510.81,167.23 509.84,166.59 508.88,165.97C508.35,167.03 507.83,168.1 507.33,169.18C505.35,168.94 503.38,168.69 501.41,168.54C487.46,167.2 473.35,169.17 459.94,173.01C451.08,175.59 441.93,177.76 433.99,182.65C426.24,186.42 418.9,191.02 410.87,194.2C415.42,185.36 423,178.77 429.85,171.77C432.85,168.71 436.29,166.11 440.02,164C447.6,159.67 455.2,155.22 463.52,152.47C463.44,152.24 463.26,151.78 463.18,151.55Z" style="fill:rgb(249,163,7);fill-rule:nonzero;"/>
        <path d="M532.99,212.93C541.15,211.38 549.06,208.61 556.28,204.49C559.05,211.79 560.61,219.47 561.59,227.2C561.68,232.45 561.68,237.75 560.7,242.93C560.41,244.74 558.38,245.35 557.02,246.19C542.91,252.53 527.12,254.56 511.78,252.92C511.48,241.38 512.66,229.88 513,218.35C519.59,216.27 526.17,214.14 532.99,212.93Z" style="fill:rgb(249,163,7);fill-rule:nonzero;"/>
        <path d="M439.4,256.13C440.67,255.98 441.93,255.86 443.21,255.76C443.04,257.81 442.81,259.85 442.58,261.89C436.55,266.28 430.34,273.13 432.79,281.21C429.11,283.9 426.38,287.57 423.74,291.22C417.76,286.08 413.92,279.17 410,272.46C419.2,266.01 429.35,261.06 439.4,256.13Z" style="fill:rgb(249,163,7);fill-rule:nonzero;"/>
        <path d="M542.69,291.15C550.68,289.77 558.3,286.57 566.47,286.13C563.06,290.88 560.45,296.17 556.41,300.44C551.42,305.45 546.67,310.77 540.83,314.84C535.22,320.26 528.05,323.51 521.36,327.33C518.14,329.31 514.24,329.47 510.68,330.42C503.92,332.2 496.92,332.66 490.07,333.97C487.71,334.36 485.33,335.02 482.94,334.49C486.49,327.7 492.12,322.42 497.15,316.75C508.39,314.42 519.1,309.78 528.57,303.29C534.06,300.26 538.41,295.65 542.69,291.15Z" style="fill:rgb(249,163,7);fill-rule:nonzero;"/>
        <path d="M419.18,176.17C430.91,163.7 446.55,155.34 463.18,151.55C463.26,151.78 463.44,152.24 463.52,152.47C455.2,155.22 447.6,159.67 440.02,164C436.29,166.11 432.85,168.71 429.85,171.77C423,178.77 415.42,185.36 410.87,194.2C409.05,197.34 407.66,200.7 406.44,204.1C403.84,211.32 401.04,218.65 400.71,226.4C400.45,233.24 400.08,240.17 401.48,246.93C402.72,253.52 403.5,260.35 406.6,266.4C407.64,268.47 408.82,270.47 410,272.46C413.92,279.17 417.76,286.08 423.74,291.22C424.99,292.45 426.24,293.7 427.49,294.95L427.88,295.35C426.76,296.02 425.64,296.7 424.54,297.4C412.38,286.73 403.42,272.51 399.05,256.94C396.39,247.26 395.44,237.13 396.25,227.12C396.41,225.21 396.63,223.31 396.91,221.42C397.35,218.68 397.89,215.96 398.57,213.27C402.16,199.42 409.29,186.51 419.18,176.17Z" style="fill:rgb(202,85,17);fill-rule:nonzero;"/>
        <path d="M511.77,167.89C512.39,168.72 513.01,169.57 513.57,170.45C514.59,182.19 514.28,194.01 513.38,205.75C513.13,209.95 513.13,214.15 513,218.35C512.66,229.88 511.48,241.38 511.78,252.92C511.65,260.37 512.47,268.01 510.3,275.27C508.63,281.46 504.17,286.32 499.81,290.79C490.78,299.93 476.53,305.07 464.12,300.15C464.31,298.73 464.42,297.31 464.54,295.88L465.15,295.34C465.35,295.18 465.74,294.84 465.93,294.67C468.24,297.21 471.85,296.73 474.93,296.43C485.96,295.32 496.53,289.76 503.32,280.93C508.3,277.24 508.31,270.6 509.4,265.07C510.13,249.36 510.59,233.62 511.4,217.9C511.53,210.42 512.31,202.92 511.57,195.45C511.42,189.79 512.11,184.18 512.39,178.55C512.58,174.98 512.29,171.41 511.77,167.89Z" style="fill:rgb(202,85,17);fill-rule:nonzero;"/>
        <path d="M487.37,192.45C490.49,195.42 490.49,199.99 490.93,203.96C490.12,204.74 489.28,205.48 488.41,206.18C488.39,201.58 488.09,196.99 487.37,192.45Z" style="fill:rgb(202,85,17);fill-rule:nonzero;"/>
        <path d="M483.39,267.74C484.87,265.47 486.64,263.4 488.65,261.6C491.52,261.9 494.53,261.72 497.29,262.72C499.81,264.82 499.93,268.87 498.61,271.67C495.74,274.78 490.59,276.34 486.72,274.25C484.74,272.68 484.39,269.92 483.39,267.74Z" style="fill:rgb(202,85,17);fill-rule:nonzero;"/>
        <path d="M438.17,275.1C439.48,270.73 444.33,269.13 447.57,266.47C448.85,269.98 447.17,273.21 445.15,276.01C452.29,279.17 459.82,276.02 467.1,275.4C471.41,274.93 475.21,277.39 479.08,278.85C483.28,280.54 487.96,279.84 492.23,278.8C496.43,276.7 499.47,273.05 501.97,269.18C503.12,269.46 504.27,269.76 505.44,270.05C504.82,271.91 504.23,273.78 503.62,275.64C498.59,282.98 490.93,289.13 481.97,290.65C477.94,291.63 473.78,291.77 469.66,291.62C471.47,287.88 473.76,284.22 474.08,279.96C472.59,280.42 470.52,279.91 469.7,281.58C467.63,284.53 465.43,287.42 462.59,289.68C459,285.24 453.96,281.22 447.95,281.43C446.48,281.99 445.13,282.79 443.77,283.58L443.64,283.48C440.9,281.5 437.14,279.09 438.17,275.1Z" style="fill:rgb(202,85,17);fill-rule:nonzero;"/>
        <path d="M510.65,309.51C516.94,308.38 522.35,304.68 528.57,303.29C519.1,309.78 508.39,314.42 497.15,316.75C483.55,319.49 469.37,318.75 456.04,314.97C456.94,313.58 457.84,312.19 458.75,310.81C475.82,314.68 493.66,312.99 510.65,309.51Z" style="fill:rgb(202,85,17);fill-rule:nonzero;"/>
        <path d="M524.27,162.45C530.74,159.1 537.49,156.34 544.11,153.3C545.35,154.27 546.61,155.21 547.84,156.2C553.95,161.64 559.42,167.77 564.03,174.53C558.05,176.83 551.73,178.24 545.93,180.98C547.97,184.56 550.7,187.7 552.75,191.28C558.93,201.79 563.05,213.64 563.97,225.83L562.59,225.35C562.34,225.81 561.84,226.74 561.59,227.2C560.61,219.47 559.05,211.79 556.28,204.49C555.78,203.14 555.25,201.8 554.69,200.48C553.67,198.22 552.58,196 551.44,193.81C549.69,190.45 547.75,187.19 545.62,184.06C544.44,182.34 543.25,180.64 542.06,178.94C542.13,178.53 542.28,177.7 542.36,177.28C542.21,177.13 541.92,176.84 541.78,176.7C536.59,171.22 530.76,166.33 524.27,162.45Z" style="fill:rgb(252,248,191);fill-rule:nonzero;"/>
        <path d="M385.07,233.42C388.76,231.26 392.48,229.15 396.25,227.12C395.44,237.13 396.39,247.26 399.05,256.94C396.22,258.72 393.41,260.52 390.62,262.33C386.88,253.19 385.67,243.21 385.07,233.42Z" style="fill:rgb(252,248,191);fill-rule:nonzero;"/>
        <path d="M465.59,179.6C477.38,175.46 489.59,172.62 501.41,168.54C503.38,168.69 505.35,168.94 507.33,169.18C501.65,180.59 498.6,193.26 491.22,203.8L490.93,203.96C490.49,199.99 490.49,195.42 487.37,192.45C485.96,192.84 483.83,192.27 483.25,194.04C478.12,203.23 475.85,213.89 469.45,222.41C466.12,227.52 460.22,229.83 455.78,233.77C449.22,239.26 442.86,246.66 443.21,255.76C441.93,255.86 440.67,255.98 439.4,256.13C439.2,255.35 438.79,253.79 438.59,253C426.82,254.08 415.94,259.38 406.6,266.4C403.5,260.35 402.72,253.52 401.48,246.93C400.08,240.17 400.45,233.24 400.71,226.4C417.89,216.77 434.68,206.3 450.41,194.43C455.82,189.91 462,185.85 465.59,179.6Z" style="fill:rgb(253,210,9);fill-rule:nonzero;"/>
        <path d="M513.57,170.45C518.33,171.12 523.04,172.1 527.64,173.49C532.3,174.78 536.81,177.1 541.78,176.7C541.92,176.84 542.21,177.13 542.36,177.28C542.28,177.7 542.13,178.53 542.06,178.94C543.25,180.64 544.44,182.34 545.62,184.06C537.03,188.1 528.14,191.51 519.62,195.69C517.7,196.4 517.09,198.42 516.33,200.11C528.21,199.3 539.85,196.4 551.44,193.81C552.58,196 553.67,198.22 554.69,200.48C549.63,203.81 543.42,204.24 537.65,205.52C529.67,206.69 521.72,208.14 514.05,210.71C513.81,209.06 513.55,207.41 513.38,205.75C514.28,194.01 514.59,182.19 513.57,170.45Z" style="fill:rgb(253,210,9);fill-rule:nonzero;"/>
        <path d="M410.87,194.2C418.9,191.02 426.24,186.42 433.99,182.65C432.11,184.69 430.84,187.17 429.68,189.67C431.59,189.9 433.5,190.14 435.43,190.3C425.78,194.93 416.37,200.11 406.44,204.1C407.66,200.7 409.05,197.34 410.87,194.2Z" style="fill:rgb(253,210,9);fill-rule:nonzero;"/>
        <path d="M172.22,173.62C172.24,173.64 172.27,173.69 172.29,173.71C172.27,173.69 172.24,173.64 172.22,173.62Z" style="fill:rgb(20,4,3);fill-opacity:0.57;fill-rule:nonzero;"/>
        <path d="M545.93,180.98C551.73,178.24 558.05,176.83 564.03,174.53C572.8,187.72 578.67,202.97 580.48,218.71C574.89,220.89 569.36,223.21 563.97,225.83C563.05,213.64 558.93,201.79 552.75,191.28C550.7,187.7 547.97,184.56 545.93,180.98Z" style="fill:rgb(254,232,46);fill-rule:nonzero;"/>
        <path d="M435.43,190.3C445.1,185.74 455.32,182.53 465.59,179.6C462,185.85 455.82,189.91 450.41,194.43C434.68,206.3 417.89,216.77 400.71,226.4C401.04,218.65 403.84,211.32 406.44,204.1C416.37,200.11 425.78,194.93 435.43,190.3M436.7,192.7C433.6,194.41 430.25,196.13 428.21,199.15C427.38,200.26 426.9,203.3 428.99,203.32C432.22,203.09 435.18,201.56 437.96,200C445.76,195.32 452.88,189.59 459.38,183.24C451.6,185.83 443.98,188.93 436.7,192.7M417.31,203.37C414.42,204.71 412.05,208.36 413.43,211.51C417.33,213.32 422.06,208.92 421.71,204.87C420.95,203.36 418.84,202.54 417.31,203.37Z" style="fill:rgb(254,232,46);fill-rule:nonzero;"/>
        <path d="M545.62,184.06C547.75,187.19 549.69,190.45 551.44,193.81C539.85,196.4 528.21,199.3 516.33,200.11C517.09,198.42 517.7,196.4 519.62,195.69C528.14,191.51 537.03,188.1 545.62,184.06Z" style="fill:rgb(254,232,46);fill-rule:nonzero;"/>
        <path d="M390.62,262.33C393.41,260.52 396.22,258.72 399.05,256.94C403.42,272.51 412.38,286.73 424.54,297.4C421.58,300.03 418.29,302.22 414.93,304.29C409.29,298.1 404.78,291.01 399.81,284.34C396.93,276.94 391.88,270.28 390.62,262.33Z" style="fill:rgb(254,232,46);fill-rule:nonzero;"/>
        <path d="M491.22,203.8C501.78,198.91 505.41,186.96 512.39,178.55C512.11,184.18 511.42,189.79 511.57,195.45L511.3,194.37C511.21,194.02 511.04,193.33 510.96,192.98C502.64,196.36 499.37,205.32 492.79,210.77C487.36,215.64 480.36,218.18 473.47,220.18C475.43,213.1 481.5,208.11 488.41,206.18C489.28,205.48 490.12,204.74 490.93,203.96L491.22,203.8Z" style="fill:rgb(252,247,190);fill-rule:nonzero;"/>
        <path d="M382.25,262.81C384.13,266.2 384.66,270.18 385.97,273.81C383.97,270.44 383.1,266.59 382.25,262.81Z" style="fill:rgb(252,247,190);fill-rule:nonzero;"/>
        <path d="M181.28,184.59C181.3,184.62 181.35,184.67 181.38,184.7L181.33,184.65L181.28,184.59Z" style="fill:rgb(21,5,3);fill-opacity:0.57;fill-rule:nonzero;"/>
        <path d="M511.3,194.37L511.57,195.45C512.31,202.92 511.53,210.42 511.4,217.9C510.59,233.62 510.13,249.36 509.4,265.07C509.33,262.6 509.04,260.15 508.73,257.71C507.94,261.23 507.18,264.77 506.02,268.19C506.12,262.38 505.79,256.56 506.35,250.77C506.75,243.99 509.02,237.25 507.6,230.44C507.86,229.25 508.12,228.06 508.4,226.87C510.1,219.69 509.7,212.25 510.78,204.98C511.1,201.45 511.26,197.91 511.3,194.37Z" style="fill:rgb(232,169,48);fill-rule:nonzero;"/>
        <path d="M554.69,200.48C555.25,201.8 555.78,203.14 556.28,204.49C549.06,208.61 541.15,211.38 532.99,212.93C526.17,214.14 519.59,216.27 513,218.35C513.13,214.15 513.13,209.95 513.38,205.75C513.55,207.41 513.81,209.06 514.05,210.71C521.72,208.14 529.67,206.69 537.65,205.52C543.42,204.24 549.63,203.81 554.69,200.48Z" style="fill:rgb(255,201,23);fill-rule:nonzero;"/>
        <path d="M406.6,266.4C415.94,259.38 426.82,254.08 438.59,253C438.79,253.79 439.2,255.35 439.4,256.13C429.35,261.06 419.2,266.01 410,272.46C408.82,270.47 407.64,268.47 406.6,266.4Z" style="fill:rgb(255,201,23);fill-rule:nonzero;"/>
        <path d="M507.08,206.47C508.31,205.98 509.54,205.48 510.78,204.98C509.7,212.25 510.1,219.69 508.4,226.87C503.36,226.98 499.14,230.11 496.27,234.03C493.72,237.24 491,240.34 489,243.94C487.8,246.27 485.88,248.07 483.94,249.78C481.88,247.51 479.37,244.97 475.99,245.59C471.63,245.52 469.22,249.78 468.38,253.51C460.62,253.3 453.67,248.28 445.84,249.59C446.47,245.81 449.03,242.86 451.57,240.18C456.71,239.18 461.19,236.03 466.47,235.66C475.72,234.84 484.97,232.53 493.14,228.08C499.57,222.25 503.41,214.2 507.08,206.47Z" style="fill:rgb(252,233,117);fill-rule:nonzero;"/>
        <path d="M496.92,211.9C499.85,209.34 503.5,207.88 507.08,206.47C503.41,214.2 499.57,222.25 493.14,228.08C484.97,232.53 475.72,234.84 466.47,235.66C461.19,236.03 456.71,239.18 451.57,240.18C455.86,235.96 460.72,231.28 467.04,230.78C472.73,230.02 478.68,228.96 483.37,225.4C488.67,221.72 492.05,216.04 496.92,211.9Z" style="fill:rgb(252,247,191);fill-rule:nonzero;"/>
        <path d="M114.52,214.43C114.53,214.45 114.54,214.51 114.55,214.53C114.54,214.51 114.53,214.45 114.52,214.43Z" style="fill:rgb(112,24,17);fill-opacity:0.62;fill-rule:nonzero;"/>
        <path d="M374.05,217.29C375.37,217.3 376.7,217.3 378.03,217.3C376.69,232.57 378.12,248.04 382.25,262.81C383.1,266.59 383.97,270.44 385.97,273.81C389.82,281.03 392.87,288.7 397.74,295.35C399.28,297.74 401.65,299.67 402.32,302.56C398.4,302.23 395.26,298.98 391.2,299.68C383.14,286.88 375.69,273.26 373.24,258.14C370.22,244.67 371.31,230.7 374.05,217.29Z" style="fill:rgb(233,122,9);fill-rule:nonzero;"/>
        <path d="M561.59,227.2C561.84,226.74 562.34,225.81 562.59,225.35L563.97,225.83C566.75,249.37 558.36,273.55 542.69,291.15C538.41,295.65 534.06,300.26 528.57,303.29C522.35,304.68 516.94,308.38 510.65,309.51C493.66,312.99 475.82,314.68 458.75,310.81C460.6,307.29 462.17,303.62 464.12,300.15C476.53,305.07 490.78,299.93 499.81,290.79C504.17,286.32 508.63,281.46 510.3,275.27C512.47,268.01 511.65,260.37 511.78,252.92C527.12,254.56 542.91,252.53 557.02,246.19C558.38,245.35 560.41,244.74 560.7,242.93C561.68,237.75 561.68,232.45 561.59,227.2Z" style="fill:rgb(233,122,9);fill-rule:nonzero;"/>
        <path d="M423.74,291.22C426.38,287.57 429.11,283.9 432.79,281.21C432.93,281.72 433.22,282.75 433.37,283.26C434.08,285.16 435.71,286.46 437.12,287.85C434.23,290.64 430.93,292.92 427.49,294.95C426.24,293.7 424.99,292.45 423.74,291.22Z" style="fill:rgb(233,122,9);fill-rule:nonzero;"/>
        <path d="M116.37,219.9C116.55,220.4 116.9,221.4 117.08,221.9L116.19,221.69L115.82,220.67L116.37,219.9Z" style="fill:rgb(70,15,11);fill-opacity:0.72;fill-rule:nonzero;"/>
        <path d="M117.26,222.91C117.47,223.39 117.91,224.35 118.12,224.84L117.22,224.67L116.77,223.69L117.26,222.91Z" style="fill:rgb(60,13,9);fill-opacity:0.74;fill-rule:nonzero;"/>
        <path d="M496.27,234.03C499.14,230.11 503.36,226.98 508.4,226.87C508.12,228.06 507.86,229.25 507.6,230.44C504.55,232.26 501.52,234.18 499.02,236.73C498.09,235.83 497.18,234.93 496.27,234.03Z" style="fill:rgb(253,200,24);fill-rule:nonzero;"/>
        <path d="M499.02,236.73C501.52,234.18 504.55,232.26 507.6,230.44C509.02,237.25 506.75,243.99 506.35,250.77C505.79,256.56 506.12,262.38 506.02,268.19C505.88,268.65 505.58,269.59 505.44,270.05C504.27,269.76 503.12,269.46 501.97,269.18C501.07,266.29 501.19,262.49 498.31,260.74C495.28,258.79 491.53,260 488.65,261.6C486.64,263.4 484.87,265.47 483.39,267.74C483.17,270.61 482.95,273.84 484.9,276.22C486.99,277.82 489.77,278.04 492.23,278.8C487.96,279.84 483.28,280.54 479.08,278.85C475.21,277.39 471.41,274.93 467.1,275.4C459.82,276.02 452.29,279.17 445.15,276.01C447.17,273.21 448.85,269.98 447.57,266.47C449.38,263.59 450.73,260.45 451.89,257.26C456.98,254.75 462.63,253.35 468.33,253.96C467.93,258.92 469.85,264.3 474.07,267.15C478.44,268.96 483.86,265.57 484.02,260.74C481.3,260.73 478.47,260.91 475.95,259.68C476.57,258.44 477.18,257.19 477.85,255.98C480.07,255.29 482.55,254.93 484.36,253.35C487.77,250.38 489.75,246.18 492.88,242.96C494.9,240.86 496.97,238.8 499.02,236.73Z" style="fill:rgb(232,137,35);fill-rule:nonzero;"/>
        <path d="M489,243.94C491,240.34 493.72,237.24 496.27,234.03C497.18,234.93 498.09,235.83 499.02,236.73C496.97,238.8 494.9,240.86 492.88,242.96C489.75,246.18 487.77,250.38 484.36,253.35C482.55,254.93 480.07,255.29 477.85,255.98C478.98,255.03 480.18,254.18 481.32,253.25C482.56,252.41 483.17,251.01 483.94,249.78C485.88,248.07 487.8,246.27 489,243.94Z" style="fill:rgb(245,203,70);fill-rule:nonzero;"/>
        <path d="M227.86,237.26C228.95,236.07 231.6,237.56 230.79,239.09C229.62,238.86 228.51,238.3 227.86,237.26Z" style="fill:rgb(71,15,11);fill-opacity:0.58;fill-rule:nonzero;"/>
        <path d="M468.38,253.51C469.22,249.78 471.63,245.52 475.99,245.59C479.37,244.97 481.88,247.51 483.94,249.78C483.17,251.01 482.56,252.41 481.32,253.25L481.19,252.21C480.89,251.01 480.56,249.82 480.19,248.64C479.82,248.61 479.07,248.56 478.7,248.53C476.06,248.2 472.98,248.07 471.43,250.71C470.68,252.92 470.4,255.25 470.16,257.56C471.73,257.51 473.32,257.46 474.91,257.41C475.17,257.98 475.69,259.11 475.95,259.68C478.47,260.91 481.3,260.73 484.02,260.74C483.86,265.57 478.44,268.96 474.07,267.15C469.85,264.3 467.93,258.92 468.33,253.96L468.38,253.51Z" style="fill:rgb(58,28,17);fill-rule:nonzero;"/>
        <path d="M445.84,249.59C453.67,248.28 460.62,253.3 468.38,253.51L468.33,253.96C462.63,253.35 456.98,254.75 451.89,257.26C448.61,258.59 447.69,262.25 445.56,264.73C443.45,266.02 440.91,266.27 438.57,266.88C440.09,265.3 441.76,263.86 443.41,262.41C444.01,258.1 444.88,253.83 445.84,249.59Z" style="fill:rgb(246,203,70);fill-rule:nonzero;"/>
        <path d="M478.7,248.53C479.07,248.56 479.82,248.61 480.19,248.64C480.56,249.82 480.89,251.01 481.19,252.21C479.65,252.62 477.67,252.17 476.59,253.64C475.21,255.35 476.05,257.69 475.95,259.68C475.69,259.11 475.17,257.98 474.91,257.41C473.32,257.46 471.73,257.51 470.16,257.56C470.4,255.25 470.68,252.92 471.43,250.71C471.72,251.28 472.29,252.43 472.58,253.01C475.18,252.4 477.04,250.5 478.7,248.53Z" style="fill:rgb(188,103,32);fill-rule:nonzero;"/>
        <path d="M476.59,253.64C477.67,252.17 479.65,252.62 481.19,252.21L481.32,253.25C480.18,254.18 478.98,255.03 477.85,255.98C477.18,257.19 476.57,258.44 475.95,259.68C476.05,257.69 475.21,255.35 476.59,253.64Z" style="fill:white;fill-rule:nonzero;"/>
        <path d="M269.48,300.18C271.34,303.17 274.3,305.47 275.36,308.93C277.13,313.07 277.13,317.67 277.83,322.06C276,324.42 272.33,323.98 270.14,326.04C273.3,323.41 275.41,319.76 276.34,315.77C275.51,312.92 273.95,310.27 270.82,309.64C268.88,310.78 267.14,312.21 265.56,313.8C264.21,312.55 262.89,311.27 261.61,309.96C263.02,307.97 264.82,306.25 267.47,307.31C270.16,305.9 270.03,302.75 269.48,300.18Z" style="fill:white;fill-rule:nonzero;"/>
        <path d="M235.51,323.49C238.94,319.86 243.49,317.29 248.29,316C249.21,320.61 253.01,323.66 257.04,325.56C259.91,326.93 263.13,326.15 266.17,326.35C259.69,328.78 252.68,329.49 246.07,331.61C239.22,333.99 231.87,334.01 224.92,335.98C229.1,332.36 231.26,327.04 235.51,323.49Z" style="fill:white;fill-rule:nonzero;"/>
        <path d="M445.56,264.73C447.69,262.25 448.61,258.59 451.89,257.26C450.73,260.45 449.38,263.59 447.57,266.47C444.33,269.13 439.48,270.73 438.17,275.1C437.14,279.09 440.9,281.5 443.64,283.48C441.5,284.94 439.41,286.47 437.59,288.33L437.12,287.85C435.71,286.46 434.08,285.16 433.37,283.26C432.12,277.24 434.29,271.17 438.57,266.88C440.91,266.27 443.45,266.02 445.56,264.73Z" style="fill:rgb(232,170,47);fill-rule:nonzero;"/>
        <path d="M506.02,268.19C507.18,264.77 507.94,261.23 508.73,257.71C509.04,260.15 509.33,262.6 509.4,265.07C508.31,270.6 508.3,277.24 503.32,280.93C504.13,278.72 504.96,276.52 505.83,274.33C505.28,274.66 504.17,275.31 503.62,275.64C504.23,273.78 504.82,271.91 505.44,270.05C505.58,269.59 505.88,268.65 506.02,268.19Z" style="fill:rgb(239,189,66);fill-rule:nonzero;"/>
        <path d="M488.65,261.6C491.53,260 495.28,258.79 498.31,260.74C501.19,262.49 501.07,266.29 501.97,269.18C499.47,273.05 496.43,276.7 492.23,278.8C489.77,278.04 486.99,277.82 484.9,276.22C482.95,273.84 483.17,270.61 483.39,267.74C484.39,269.92 484.74,272.68 486.72,274.25C490.59,276.34 495.74,274.78 498.61,271.67C499.93,268.87 499.81,264.82 497.29,262.72C494.53,261.72 491.52,261.9 488.65,261.6Z" style="fill:rgb(217,113,2);fill-rule:nonzero;"/>
        <path d="M503.62,275.64C504.17,275.31 505.28,274.66 505.83,274.33C504.96,276.52 504.13,278.72 503.32,280.93C496.53,289.76 485.96,295.32 474.93,296.43C471.85,296.73 468.24,297.21 465.93,294.67C467.11,293.7 468.2,292.6 469.4,291.64L469.66,291.62C473.78,291.77 477.94,291.63 481.97,290.65C490.93,289.13 498.59,282.98 503.62,275.64Z" style="fill:rgb(251,246,190);fill-rule:nonzero;"/>
        <path d="M469.7,281.58C470.52,279.91 472.59,280.42 474.08,279.96C473.76,284.22 471.47,287.88 469.66,291.62L469.4,291.64C467.79,291.5 466.2,291.54 464.6,291.45L464.24,291.43C463.68,290.84 463.12,290.26 462.59,289.68C465.43,287.42 467.63,284.53 469.7,281.58Z" style="fill:rgb(70,35,15);fill-rule:nonzero;"/>
        <path d="M446.55,289.58C447.16,289.26 448.39,288.63 449.01,288.31C452.45,289.05 455.91,291.03 457.78,294.1C458.97,298.46 455.7,302.31 454.12,306.13C450.61,313.92 442.87,318.58 439.04,326.14C437.17,329.9 433.77,332.46 430.93,335.42C424.84,336.28 419.16,339.4 412.9,339.1C409.67,338.6 406.68,336.11 406.24,332.76C404.8,325.91 408.08,319.36 411.09,313.42C423.94,307.11 434.92,297.79 446.55,289.58Z" style="fill:rgb(75,77,164);fill-rule:nonzero;"/>
        <path d="M84.29,329.95C93.73,330.53 103.17,331.36 112.57,332.46C113.14,332.75 114.29,333.33 114.87,333.62C108.91,333.65 102.97,333.06 97.02,333.28C90.76,333.39 84.66,334.99 78.43,335.36L77.82,334.1C79.87,332.56 82.07,331.24 84.29,329.95Z" style="fill:rgb(75,77,164);fill-rule:nonzero;"/>
        <path d="M47.69,371.45C49.38,363.29 53.16,355.75 56.66,348.24C57.9,349.41 59.14,350.6 60.38,351.79C58.89,355.29 57.72,358.93 57.06,362.69C62.62,365.71 68.19,368.87 74.35,370.5C80.85,372.14 87.25,374.25 93.88,375.34C93.56,375.72 92.91,376.49 92.59,376.87C93.92,377.9 95.1,379.57 97,379.32C101.24,379.35 105.5,378.81 109.73,379.36C122.84,381.27 135.93,383.37 148.98,385.7C160.76,389.91 173.12,392.46 184.64,397.51C190.97,400.51 198.04,400.93 204.81,402.33C204.02,403.4 203.23,404.49 202.45,405.57C196.08,405.8 189.65,405.84 183.37,404.61C168.95,402.57 154.46,401.19 139.95,400C130.66,399.35 121.64,396.76 112.39,395.8C121.77,401.96 133.41,401.04 143.98,403.2C153.8,404.63 162.55,409.55 171.15,414.19C174.36,413.62 177.64,412.33 180.92,412.93C183.59,414.28 185.69,416.5 187.96,418.41C187.26,420.17 186.91,422.16 185.7,423.66C183.73,425.47 181.32,426.68 179.19,428.27C174.89,431.27 171.94,435.68 168.34,439.41C164.43,443.47 160.4,447.41 156.7,451.65C145.6,465.13 133.27,477.52 120.7,489.63C113.06,497.72 104.52,504.92 97.02,513.14C103.12,509.22 109.22,505.3 115.28,501.32C131.16,491.47 147.84,483.03 164.34,474.28C172.31,469.99 179.92,465.06 188.05,461.05C192.4,458.89 196.21,455.86 199.97,452.82C201.95,451.24 205.07,449.56 207.27,451.72C210.16,454.4 208.61,458.86 206.78,461.71C196.14,479.12 188.02,497.88 178.73,516L0,516L0,506.64C7.86,501.33 15.28,495.4 23.35,490.41C25.06,492.7 26.58,495.42 29.35,496.56C35.85,499.42 43.13,498.47 50.02,498.82C57.7,498.27 65.62,496.67 72.08,492.25C79.29,488.55 87.16,485.83 93.29,480.31C98.59,475.34 105.13,472.06 111.27,468.26C118.57,463.85 126.14,459.89 133.3,455.25C144.16,449.16 153.46,440.79 163.64,433.72C166.69,431.67 168.71,428.5 171.44,426.09C171.97,424.93 172.5,423.77 173.02,422.62C168.85,419.98 164.43,422.63 160.72,424.76C151.68,430.08 142.08,434.35 132.46,438.52C127.43,441.16 121.82,442.35 116.64,444.66C109.65,447.62 102.91,452.09 95.02,451.96C91.2,452.3 87.83,450.37 85.19,447.81C82.85,447.47 80.57,446.75 79.53,444.43C82.09,442.7 84.63,440.45 87.9,440.44C90.42,440.43 92.76,439.52 94.67,437.9C91.12,437.98 87.57,438.59 84.02,438.26C81.36,437.18 78.97,435.57 76.41,434.29C76.48,434.99 76.6,436.4 76.67,437.1C76.02,434.84 75.31,432.59 74.56,430.36C79.72,430.52 84.84,431.36 90.01,431.29C95.72,431.27 101.32,430.06 106.89,428.93C106.95,427.61 107,426.3 107.06,424.99C106.06,424.32 105.06,423.65 104.05,422.99C98.73,423.84 93.39,424.73 88,424.85C82.62,424.76 76.49,424.64 72.37,420.64C65.71,415.33 59.03,409.46 55.66,401.42C51.75,391.89 46.1,382.13 47.69,371.45M150.24,411.31C139.97,411.65 129.82,414.09 120.59,418.67C118.79,419.71 117.83,422.18 119.2,423.99C121.54,425.61 124.46,424.25 126.91,423.65C134.06,420.87 141.71,419.9 149.18,418.36C151.57,417.96 154.54,416.62 154.9,413.95C154.88,411.48 152.21,410.89 150.24,411.31Z" style="fill:rgb(75,77,164);fill-rule:nonzero;"/>
        <path d="M356.71,359.53C358.54,359.01 360.45,359.35 362.32,359.49C348.19,367.63 333.86,375.46 320.08,384.18C311.7,388.65 303.71,393.81 295.43,398.45C293.06,399.92 290.42,401.19 288.65,403.39C288.4,404.84 288.39,406.32 288.32,407.8C289.85,407.85 291.39,407.97 292.94,408.11C290.61,409.57 286.67,410.96 284.76,408.17C282.7,406.23 283.63,402.97 284.9,400.89C291.5,394.17 299.92,389.71 307.76,384.64C317.02,379.22 326.31,373.82 335.76,368.73C342.62,365.4 349.3,361.53 356.71,359.53Z" style="fill:rgb(75,77,164);fill-rule:nonzero;"/>
        <path d="M303.88,400.92C324.3,389.04 344.58,376.92 365.13,365.28C366.14,368.01 364.94,370.95 362.41,372.34C349.42,381.45 335.98,390.15 321.38,396.45C314.73,399.95 307.84,402.99 300.78,405.58C298.74,406.36 296.57,406.69 294.41,406.92C297.2,404.38 300.61,402.73 303.88,400.92Z" style="fill:rgb(75,77,164);fill-rule:nonzero;"/>
        <path d="M310.24,420.38C313.41,418.36 316.46,421.25 318.86,423.08C320.69,424.29 321.15,426.64 320.55,428.65C318.34,435.4 314.34,441.42 309.78,446.81C302.96,454.29 296.91,462.58 288.95,468.94C283.85,472.88 278.86,476.97 273.49,480.56C269.86,482.97 266.5,486.33 262.02,487C259.32,487.29 255.32,485.26 256.26,482.04C260.01,474.29 266.57,468.46 271.37,461.42C282.91,448.28 295.44,436.07 307.13,423.09C308.07,422.08 309,421.02 310.24,420.38M312.15,428.17C308.22,431.89 304.58,435.91 300.73,439.71C296.04,444.35 290.77,448.41 286.54,453.51C283.17,458.05 278.4,461.28 275.15,465.93C275.73,467.25 275.46,469.37 277.06,470C278.36,471.11 279.78,469.47 280.8,468.75C284.32,465.24 287.83,461.71 291.1,457.96C300.05,449.06 309.39,440.53 317.78,431.07C317.31,429.72 318.2,427.01 316.07,426.92C314.65,426.19 313.19,427.28 312.15,428.17Z" style="fill:rgb(75,77,164);fill-rule:nonzero;"/>
        <path d="M464.6,291.45C466.2,291.54 467.79,291.5 469.4,291.64C468.2,292.6 467.11,293.7 465.93,294.67C465.74,294.84 465.35,295.18 465.15,295.34C465.01,294.37 464.74,292.42 464.6,291.45Z" style="fill:rgb(122,73,26);fill-rule:nonzero;"/>
        <path d="M280.02,303.76C284.09,301.23 288.43,299.15 292.32,296.34C293.49,298.49 294.64,300.8 296.73,302.22C303.33,306.24 311.55,304.68 318.48,307.77C321.54,309.44 325.27,310.64 327.16,313.77C331.47,320.28 331.51,328.45 332.15,335.95C332.48,341.67 328.17,345.75 324.23,349.18C321.51,350.68 318.34,351.79 316.81,354.74C311.3,356.29 305.16,354.92 299.99,357.83C296.6,359.8 295.01,363.63 291.85,365.85C286.47,367.01 281,366.47 275.59,365.95C273.02,362.25 274.39,355.75 268.98,354.44C268.11,355.5 267.25,356.56 266.38,357.62C267.06,360.66 267.75,363.71 268.9,366.62C263.22,365.77 257.57,364.72 251.88,363.94C247.48,364.07 243.09,363.77 238.71,363.34C240.26,361.66 241.64,359.83 242.73,357.81L242.9,357.51C246.43,357.17 249.68,355.68 253.14,355.01C267.9,352.72 280.51,340.51 283.53,325.92C284.09,318.41 283.09,310.67 280.02,303.76M311.2,316.14C304.83,317.71 298.18,321.32 295.62,327.7C293.88,332.17 292.86,337.41 294.9,341.95C296.59,344.54 299.07,346.82 301.98,347.95C307.89,349.04 314.27,348.25 319.59,345.37C323.53,342.82 326.99,338.9 327.36,334.03C327.94,327.68 325.73,320.32 319.87,317.03C317.3,315.39 314.06,315.4 311.2,316.14Z" style="fill:rgb(255,209,187);fill-rule:nonzero;"/>
        <path d="M257.99,335.08C263.96,333.44 270.17,332.72 275.92,330.33C274.45,333.04 273.2,335.99 270.73,337.97C266.75,336.4 263.49,339.6 260.12,341.15C249.85,345.89 237.62,347.39 227.02,342.74L227.02,342.3C231.77,340.5 236.99,340.82 241.84,339.41C247.19,337.84 252.65,336.69 257.99,335.08Z" style="fill:rgb(255,209,187);fill-rule:nonzero;"/>
        <path d="M391.6,322.52C397.82,318.92 404.41,316.04 411.09,313.42C408.08,319.36 404.8,325.91 406.24,332.76C406.68,336.11 409.67,338.6 412.9,339.1C419.16,339.4 424.84,336.28 430.93,335.42C421.92,346.55 412.29,357.16 403.65,368.58C397.73,375.06 392.26,381.94 386.8,388.8C381.52,398.13 373.15,405.05 366.02,412.89C360.57,417.15 356.04,422.37 350.89,426.94C344.14,431.71 340.89,439.59 335.91,445.91C329.28,454.86 322.49,463.7 315.52,472.38C306.79,487.35 297.05,501.69 287.3,516L178.73,516C188.02,497.88 196.14,479.12 206.78,461.71C208.61,458.86 210.16,454.4 207.27,451.72C205.07,449.56 201.95,451.24 199.97,452.82C196.21,455.86 192.4,458.89 188.05,461.05C179.92,465.06 172.31,469.99 164.34,474.28C147.84,483.03 131.16,491.47 115.28,501.32C109.22,505.3 103.12,509.22 97.02,513.14C104.52,504.92 113.06,497.72 120.7,489.63C133.27,477.52 145.6,465.13 156.7,451.65C160.4,447.41 164.43,443.47 168.34,439.41C171.94,435.68 174.89,431.27 179.19,428.27C181.32,426.68 183.73,425.47 185.7,423.66C186.91,422.16 187.26,420.17 187.96,418.41C185.69,416.5 183.59,414.28 180.92,412.93C177.64,412.33 174.36,413.62 171.15,414.19C162.55,409.55 153.8,404.63 143.98,403.2C133.41,401.04 121.77,401.96 112.39,395.8C121.64,396.76 130.66,399.35 139.95,400C154.46,401.19 168.95,402.57 183.37,404.61C189.65,405.84 196.08,405.8 202.45,405.57C203.23,404.49 204.02,403.4 204.81,402.33C208.89,402.94 213.02,403.19 217.14,403.07C220.63,403.24 224.21,399.36 222.3,395.97C215.15,394.87 208.11,393.18 200.97,392C189.45,388.85 178,385.37 166.39,382.54C154.99,380.03 143.43,378.48 131.98,376.26C119.98,374.81 107.98,371.35 95.81,373.07C95.17,373.82 94.52,374.58 93.88,375.34C87.25,374.25 80.85,372.14 74.35,370.5C68.19,368.87 62.62,365.71 57.06,362.69C57.72,358.93 58.89,355.29 60.38,351.79C59.14,350.6 57.9,349.41 56.66,348.24C58.65,344.29 60.71,340.36 62.67,336.4C64.52,332.24 69.26,330.7 73.23,329.31C76.92,329.01 80.6,329.83 84.29,329.95C82.07,331.24 79.87,332.56 77.82,334.1C77.64,333.75 77.29,333.04 77.12,332.69C74.3,331.65 71.04,333.4 70.41,336.35C69.46,338.85 72.38,340.34 73.86,341.83C74.48,343.52 74.28,345.85 75.96,346.95C77.95,347.43 79.73,346.26 81.53,345.61C80.42,345.08 79.31,344.55 78.19,344.04C83.14,344.68 88.15,344.05 93.1,344.66C100.53,345.52 107.66,347.91 115.02,349.19C127.4,351.43 139.47,355.35 152.08,356.26C161.99,358.37 172.07,359.55 182.08,361.05C188.43,361.98 194.55,364.3 201.02,364.36C205.43,364.4 209.75,365.32 214.05,366.21C225.71,368.21 237.52,369.37 249.04,372.11C254.97,373.31 260.98,371.9 266.94,372.5C271.24,372.86 275.57,372.38 279.87,372.82C289.36,374.33 298.98,372.2 308.07,369.51C311.56,368.83 313.53,365.47 316.88,364.49C322.33,362.4 327.51,359.64 332.28,356.27C340.75,350.32 349.83,345.19 359.39,341.21C364.35,339.08 368.87,336.1 373.79,333.89C380.24,330.97 385.8,326.5 391.6,322.52M362.32,359.49C360.45,359.35 358.54,359.01 356.71,359.53C349.3,361.53 342.62,365.4 335.76,368.73C326.31,373.82 317.02,379.22 307.76,384.64C299.92,389.71 291.5,394.17 284.9,400.89C283.63,402.97 282.7,406.23 284.76,408.17C286.67,410.96 290.61,409.57 292.94,408.11C293.31,407.81 294.04,407.22 294.41,406.92C296.57,406.69 298.74,406.36 300.78,405.58C307.84,402.99 314.73,399.95 321.38,396.45C335.98,390.15 349.42,381.45 362.41,372.34C364.94,370.95 366.14,368.01 365.13,365.28C366.34,364.62 367.54,363.94 368.75,363.28C368.61,361.84 369.55,359.92 367.94,359.06C366.26,357.59 363.99,358.59 362.32,359.49M310.24,420.38C309,421.02 308.07,422.08 307.13,423.09C295.44,436.07 282.91,448.28 271.37,461.42C266.57,468.46 260.01,474.29 256.26,482.04C255.32,485.26 259.32,487.29 262.02,487C266.5,486.33 269.86,482.97 273.49,480.56C278.86,476.97 283.85,472.88 288.95,468.94C296.91,462.58 302.96,454.29 309.78,446.81C314.34,441.42 318.34,435.4 320.55,428.65C321.15,426.64 320.69,424.29 318.86,423.08C316.46,421.25 313.41,418.36 310.24,420.38M206.59,435.59C206,436.77 205.4,437.95 204.81,439.14C206.03,440.22 207.14,441.81 209.01,441.59C212.97,439.92 216.27,437.1 219.97,434.96C221.75,433.95 223.04,432.33 224.38,430.82C223.16,429.46 222.11,427.29 219.9,427.79C215.45,430.36 211.23,433.34 206.59,435.59Z" style="fill:rgb(142,95,218);fill-rule:nonzero;"/>
        <path d="M48.07,351.7C48.81,346.79 51.2,342.26 54.68,338.75C52.69,343.17 50.52,347.52 48.07,351.7Z" style="fill:rgb(142,95,218);fill-rule:nonzero;"/>
        <path d="M76.41,434.29C78.97,435.57 81.36,437.18 84.02,438.26C87.57,438.59 91.12,437.98 94.67,437.9C92.76,439.52 90.42,440.43 87.9,440.44C84.63,440.45 82.09,442.7 79.53,444.43C78.33,442.09 77.35,439.64 76.67,437.1C76.6,436.4 76.48,434.99 76.41,434.29Z" style="fill:rgb(142,95,218);fill-rule:nonzero;"/>
        <path d="M311.2,316.14C314.06,315.4 317.3,315.39 319.87,317.03C325.73,320.32 327.94,327.68 327.36,334.03C326.99,338.9 323.53,342.82 319.59,345.37C314.27,348.25 307.89,349.04 301.98,347.95C299.07,346.82 296.59,344.54 294.9,341.95C292.86,337.41 293.88,332.17 295.62,327.7C298.18,321.32 304.83,317.71 311.2,316.14Z" style="fill:rgb(249,164,130);fill-rule:nonzero;"/>
        <path d="M260.12,341.15C263.49,339.6 266.75,336.4 270.73,337.97C266.76,343.51 260.27,346.61 253.89,348.48C248.04,349.66 242.22,351.46 236.23,351.63C230.7,350.34 225.72,347.37 220.97,344.34C222.67,343.7 224.36,342.95 226.17,342.65L227.02,342.74C237.62,347.39 249.85,345.89 260.12,341.15Z" style="fill:rgb(249,164,130);fill-rule:nonzero;"/>
        <path d="M194.11,347.99C199.8,347.05 205.37,345.32 211.15,344.96C217.08,350.28 224.09,354.29 231.53,357.1C235.16,358.12 238.99,358.17 242.73,357.81C241.64,359.83 240.26,361.66 238.71,363.34C225.81,361.09 212.65,359.96 200.14,355.87C193.45,354.3 186.71,352.95 179.84,352.51C184.72,351.4 189.16,348.88 194.11,347.99Z" style="fill:rgb(249,164,130);fill-rule:nonzero;"/>
        <path d="M127,322.21C127.05,320.27 127.66,318.4 128.99,316.97C129.69,319.02 129.06,321.26 127,322.21Z" style="fill:rgb(53,12,8);fill-opacity:0.67;fill-rule:nonzero;"/>
        <path d="M73.86,341.83C75.27,342.62 76.71,343.36 78.19,344.04C79.31,344.55 80.42,345.08 81.53,345.61C79.73,346.26 77.95,347.43 75.96,346.95C74.28,345.85 74.48,343.52 73.86,341.83Z" style="fill:rgb(82,78,168);fill-rule:nonzero;"/>
        <path d="M46.48,490.1C51.09,489.96 55.71,489.97 60.3,490.46C55.74,491.48 50.68,493.12 46.48,490.1Z" style="fill:rgb(38,40,84);fill-rule:nonzero;"/>
    </g>
</svg>
